<?xml version="1.0" encoding="UTF-8"?>
<!--Generator: Apple Native CoreSVG 175.5-->
<!DOCTYPE svg
PUBLIC "-//W3C//DTD SVG 1.1//EN"
       "http://www.w3.org/Graphics/SVG/1.1/DTD/svg11.dtd">
<svg version="1.1" xmlns="http://www.w3.org/2000/svg" xmlns:xlink="http://www.w3.org/1999/xlink" width="3300" height="2200">
 <!--glyph: "uni1014E3.medium", point size: 100.0, font version: "18.0d11e1", template writer version: "90"-->
 <style>.monochrome-0 {fill:#000000}
.monochrome-1 {fill:#000000;-sfsymbols-variable-threshold:0.0}
.monochrome-2 {fill:#000000;-sfsymbols-variable-threshold:0.34}
.monochrome-3 {fill:#000000;-sfsymbols-variable-threshold:0.68}

.multicolor-0:tintColor {fill:#007AFF}
.multicolor-1:tintColor {fill:#007AFF;-sfsymbols-variable-threshold:0.0}
.multicolor-2:tintColor {fill:#007AFF;-sfsymbols-variable-threshold:0.34}
.multicolor-3:tintColor {fill:#007AFF;-sfsymbols-variable-threshold:0.68}

.hierarchical-0:primary {fill:#212121}
.hierarchical-1:secondary {fill:#4D4D4D;-sfsymbols-variable-threshold:0.0}
.hierarchical-2:secondary {fill:#4D4D4D;-sfsymbols-variable-threshold:0.34}
.hierarchical-3:secondary {fill:#4D4D4D;-sfsymbols-variable-threshold:0.68}

.SFSymbolsPreview007AFF {fill:#007AFF;opacity:1.0}
</style>
 <g id="Notes">
  <rect height="2200" id="artboard" style="fill:white;opacity:1" width="3300" x="0" y="0"/>
  <line style="fill:none;stroke:black;opacity:1;stroke-width:0.5;" x1="263" x2="3036" y1="292" y2="292"/>
  <text style="stroke:none;fill:black;font-family:sans-serif;font-size:13;font-weight:bold;" transform="matrix(1 0 0 1 263 322)">Weight/Scale Variations</text>
  <text style="stroke:none;fill:black;font-family:sans-serif;font-size:13;text-anchor:middle;" transform="matrix(1 0 0 1 559.711 322)">Ultralight</text>
  <text style="stroke:none;fill:black;font-family:sans-serif;font-size:13;text-anchor:middle;" transform="matrix(1 0 0 1 856.422 322)">Thin</text>
  <text style="stroke:none;fill:black;font-family:sans-serif;font-size:13;text-anchor:middle;" transform="matrix(1 0 0 1 1153.13 322)">Light</text>
  <text style="stroke:none;fill:black;font-family:sans-serif;font-size:13;text-anchor:middle;" transform="matrix(1 0 0 1 1449.84 322)">Regular</text>
  <text style="stroke:none;fill:black;font-family:sans-serif;font-size:13;text-anchor:middle;" transform="matrix(1 0 0 1 1746.56 322)">Medium</text>
  <text style="stroke:none;fill:black;font-family:sans-serif;font-size:13;text-anchor:middle;" transform="matrix(1 0 0 1 2043.27 322)">Semibold</text>
  <text style="stroke:none;fill:black;font-family:sans-serif;font-size:13;text-anchor:middle;" transform="matrix(1 0 0 1 2339.98 322)">Bold</text>
  <text style="stroke:none;fill:black;font-family:sans-serif;font-size:13;text-anchor:middle;" transform="matrix(1 0 0 1 2636.69 322)">Heavy</text>
  <text style="stroke:none;fill:black;font-family:sans-serif;font-size:13;text-anchor:middle;" transform="matrix(1 0 0 1 2933.4 322)">Black</text>
  <line style="fill:none;stroke:black;opacity:1;stroke-width:0.5;" x1="263" x2="3036" y1="1903" y2="1903"/>
  <g transform="matrix(1 0 0 1 263 1933)">
   <path d="M9.24805 0.830078C13.5547 0.830078 17.1387-2.74414 17.1387-7.05078C17.1387-11.3574 13.5449-14.9316 9.23828-14.9316C4.94141-14.9316 1.36719-11.3574 1.36719-7.05078C1.36719-2.74414 4.95117 0.830078 9.24805 0.830078ZM9.24805-0.654297C5.70312-0.654297 2.87109-3.49609 2.87109-7.05078C2.87109-10.6055 5.69336-13.4473 9.23828-13.4473C12.793-13.4473 15.6445-10.6055 15.6445-7.05078C15.6445-3.49609 12.8027-0.654297 9.24805-0.654297ZM5.6543-7.05078C5.6543-6.62109 5.95703-6.32812 6.40625-6.32812L8.50586-6.32812L8.50586-4.20898C8.50586-3.76953 8.79883-3.4668 9.22852-3.4668C9.67773-3.4668 9.9707-3.76953 9.9707-4.20898L9.9707-6.32812L12.0898-6.32812C12.5293-6.32812 12.832-6.62109 12.832-7.05078C12.832-7.49023 12.5293-7.79297 12.0898-7.79297L9.9707-7.79297L9.9707-9.90234C9.9707-10.3516 9.67773-10.6543 9.22852-10.6543C8.79883-10.6543 8.50586-10.3516 8.50586-9.90234L8.50586-7.79297L6.40625-7.79297C5.95703-7.79297 5.6543-7.49023 5.6543-7.05078Z"/>
  </g>
  <g transform="matrix(1 0 0 1 281.867 1933)">
   <path d="M11.709 2.91016C17.1582 2.91016 21.6699-1.61133 21.6699-7.05078C21.6699-12.5 17.1484-17.0117 11.6992-17.0117C6.25977-17.0117 1.74805-12.5 1.74805-7.05078C1.74805-1.61133 6.26953 2.91016 11.709 2.91016ZM11.709 1.25C7.09961 1.25 3.41797-2.44141 3.41797-7.05078C3.41797-11.6602 7.08984-15.3516 11.6992-15.3516C16.3086-15.3516 20.0098-11.6602 20.0098-7.05078C20.0098-2.44141 16.3184 1.25 11.709 1.25ZM7.17773-7.05078C7.17773-6.57227 7.50977-6.25 8.00781-6.25L10.8789-6.25L10.8789-3.36914C10.8789-2.88086 11.2109-2.53906 11.6895-2.53906C12.1777-2.53906 12.5195-2.87109 12.5195-3.36914L12.5195-6.25L15.4004-6.25C15.8887-6.25 16.2305-6.57227 16.2305-7.05078C16.2305-7.53906 15.8887-7.88086 15.4004-7.88086L12.5195-7.88086L12.5195-10.752C12.5195-11.25 12.1777-11.5918 11.6895-11.5918C11.2109-11.5918 10.8789-11.25 10.8789-10.752L10.8789-7.88086L8.00781-7.88086C7.50977-7.88086 7.17773-7.53906 7.17773-7.05078Z"/>
  </g>
  <g transform="matrix(1 0 0 1 305.646 1933)">
   <path d="M14.9707 5.66406C21.9336 5.66406 27.6953-0.0976562 27.6953-7.05078C27.6953-14.0137 21.9238-19.7754 14.9609-19.7754C8.00781-19.7754 2.25586-14.0137 2.25586-7.05078C2.25586-0.0976562 8.01758 5.66406 14.9707 5.66406ZM14.9707 3.84766C8.93555 3.84766 4.08203-1.01562 4.08203-7.05078C4.08203-13.0957 8.92578-17.9492 14.9609-17.9492C21.0059-17.9492 25.8691-13.0957 25.8691-7.05078C25.8691-1.01562 21.0156 3.84766 14.9707 3.84766ZM9.19922-7.05078C9.19922-6.5332 9.57031-6.17188 10.1172-6.17188L14.0625-6.17188L14.0625-2.2168C14.0625-1.67969 14.4336-1.29883 14.9512-1.29883C15.4883-1.29883 15.8594-1.66992 15.8594-2.2168L15.8594-6.17188L19.8145-6.17188C20.3516-6.17188 20.7324-6.5332 20.7324-7.05078C20.7324-7.59766 20.3613-7.96875 19.8145-7.96875L15.8594-7.96875L15.8594-11.9141C15.8594-12.4609 15.4883-12.8418 14.9512-12.8418C14.4336-12.8418 14.0625-12.4609 14.0625-11.9141L14.0625-7.96875L10.1172-7.96875C9.57031-7.96875 9.19922-7.59766 9.19922-7.05078Z"/>
  </g>
  <text style="stroke:none;fill:black;font-family:sans-serif;font-size:13;font-weight:bold;" transform="matrix(1 0 0 1 263 1953)">Design Variations</text>
  <text style="stroke:none;fill:black;font-family:sans-serif;font-size:13;" transform="matrix(1 0 0 1 263 1971)">Symbols are supported in up to nine weights and three scales.</text>
  <text style="stroke:none;fill:black;font-family:sans-serif;font-size:13;" transform="matrix(1 0 0 1 263 1989)">For optimal layout with text and other symbols, vertically align</text>
  <text style="stroke:none;fill:black;font-family:sans-serif;font-size:13;" transform="matrix(1 0 0 1 263 2007)">symbols with the adjacent text.</text>
  <line style="fill:none;stroke:#00AEEF;stroke-width:0.5;opacity:1.0;" x1="776" x2="776" y1="1919" y2="1933"/>
  <g transform="matrix(1 0 0 1 776 1933)">
   <path d="M3.31055 0.15625C3.82812 0.15625 4.08203-0.0390625 4.26758-0.585938L5.52734-4.0332L11.2891-4.0332L12.5488-0.585938C12.7344-0.0390625 12.9883 0.15625 13.4961 0.15625C14.0137 0.15625 14.3457-0.15625 14.3457-0.644531C14.3457-0.810547 14.3164-0.966797 14.2383-1.17188L9.6582-13.3691C9.43359-13.9648 9.0332-14.2676 8.4082-14.2676C7.80273-14.2676 7.39258-13.9746 7.17773-13.3789L2.59766-1.16211C2.51953-0.957031 2.49023-0.800781 2.49023-0.634766C2.49023-0.146484 2.80273 0.15625 3.31055 0.15625ZM6.00586-5.51758L8.37891-12.0898L8.42773-12.0898L10.8008-5.51758Z"/>
  </g>
  <line style="fill:none;stroke:#00AEEF;stroke-width:0.5;opacity:1.0;" x1="793.197" x2="793.197" y1="1919" y2="1933"/>
  <text style="stroke:none;fill:black;font-family:sans-serif;font-size:13;font-weight:bold;" transform="matrix(1 0 0 1 776 1953)">Margins</text>
  <text style="stroke:none;fill:black;font-family:sans-serif;font-size:13;" transform="matrix(1 0 0 1 776 1971)">Leading and trailing margins on the left and right side of each symbol</text>
  <text style="stroke:none;fill:black;font-family:sans-serif;font-size:13;" transform="matrix(1 0 0 1 776 1989)">can be adjusted by modifying the x-location of the margin guidelines.</text>
  <text style="stroke:none;fill:black;font-family:sans-serif;font-size:13;" transform="matrix(1 0 0 1 776 2007)">Modifications are automatically applied proportionally to all</text>
  <text style="stroke:none;fill:black;font-family:sans-serif;font-size:13;" transform="matrix(1 0 0 1 776 2025)">scales and weights.</text>
  <g transform="matrix(1 0 0 1 1289 1933)">
   <path d="M2.8418 1.86523L4.54102 3.57422C5.40039 4.44336 6.38672 4.38477 7.31445 3.35938L18.0078-8.42773L17.041-9.4043L6.42578 2.27539C6.07422 2.67578 5.74219 2.77344 5.27344 2.30469L4.10156 1.14258C3.63281 0.683594 3.74023 0.341797 4.14062-0.0195312L15.6152-10.8203L14.6387-11.7871L3.04688-0.898438C2.06055 0.0195312 1.98242 0.996094 2.8418 1.86523ZM9.25781-16.3281C8.83789-15.918 8.80859-15.3418 9.04297-14.9512C9.27734-14.5898 9.73633-14.3555 10.3809-14.5215C11.8457-14.8633 13.3691-14.9219 14.7949-13.9844L14.209-12.5293C13.8672-11.6992 14.043-11.1133 14.5801-10.5664L16.875-8.25195C17.3633-7.76367 17.7734-7.74414 18.3398-7.8418L19.4043-8.03711L20.0684-7.36328L20.0293-6.80664C19.9902-6.30859 20.1172-5.92773 20.6055-5.44922L21.3672-4.70703C21.8457-4.22852 22.4609-4.19922 22.9297-4.66797L25.8398-7.58789C26.3086-8.05664 26.2891-8.65234 25.8105-9.13086L25.0391-9.89258C24.5605-10.3711 24.1895-10.5273 23.7109-10.4883L23.1348-10.4395L22.4902-11.0742L22.7344-12.1973C22.8613-12.7637 22.7051-13.2031 22.1191-13.7891L19.9219-15.9766C16.582-19.2969 12.1484-19.2188 9.25781-16.3281ZM10.752-15.957C13.1836-17.7344 16.4746-17.4316 18.7012-15.2051L21.1328-12.793C21.3672-12.5586 21.4062-12.373 21.3379-12.0312L21.0156-10.5469L22.5195-9.0625L23.5059-9.12109C23.7598-9.13086 23.8379-9.11133 24.0332-8.91602L24.6094-8.33984L22.168-5.89844L21.5918-6.47461C21.3965-6.66992 21.3672-6.74805 21.377-7.01172L21.4453-7.98828L19.9512-9.47266L18.4277-9.21875C18.1055-9.15039 17.959-9.17969 17.7148-9.41406L15.7129-11.416C15.459-11.6504 15.4297-11.8164 15.5859-12.1875L16.4648-14.2773C14.9023-15.7324 12.8711-16.3574 10.8398-15.7617C10.6836-15.7227 10.625-15.8496 10.752-15.957Z"/>
  </g>
  <text style="stroke:none;fill:black;font-family:sans-serif;font-size:13;font-weight:bold;" transform="matrix(1 0 0 1 1289 1953)">Exporting</text>
  <text style="stroke:none;fill:black;font-family:sans-serif;font-size:13;" transform="matrix(1 0 0 1 1289 1971)">Symbols should be outlined when exporting to ensure the</text>
  <text style="stroke:none;fill:black;font-family:sans-serif;font-size:13;" transform="matrix(1 0 0 1 1289 1989)">design is preserved when submitting to Xcode.</text>
  <text id="template-version" style="stroke:none;fill:black;font-family:sans-serif;font-size:13;text-anchor:end;" transform="matrix(1 0 0 1 3036 1933)">Template v.4.0</text>
  <text style="stroke:none;fill:black;font-family:sans-serif;font-size:13;text-anchor:end;" transform="matrix(1 0 0 1 3036 1951)">Requires Xcode 14 or greater</text>
  <text id="descriptive-name" style="stroke:none;fill:black;font-family:sans-serif;font-size:13;text-anchor:end;" transform="matrix(1 0 0 1 3036 1969)">Generated from wifi.router</text>
  <text style="stroke:none;fill:black;font-family:sans-serif;font-size:13;text-anchor:end;" transform="matrix(1 0 0 1 3036 1987)">Typeset at 100 points</text>
  <text style="stroke:none;fill:black;font-family:sans-serif;font-size:13;" transform="matrix(1 0 0 1 263 726)">Small</text>
  <text style="stroke:none;fill:black;font-family:sans-serif;font-size:13;" transform="matrix(1 0 0 1 263 1156)">Medium</text>
  <text style="stroke:none;fill:black;font-family:sans-serif;font-size:13;" transform="matrix(1 0 0 1 263 1586)">Large</text>
 </g>
 <g id="Guides">
  <g id="H-reference" style="fill:#27AAE1;stroke:none;" transform="matrix(1 0 0 1 339 696)">
   <path d="M0.993654 0L3.63775 0L29.3281-67.1323L30.0303-67.1323L30.0303-70.459L28.1226-70.459ZM11.6885-24.4799L46.9815-24.4799L46.2315-26.7285L12.4385-26.7285ZM55.1196 0L57.7637 0L30.6382-70.459L29.4326-70.459L29.4326-67.1323Z"/>
  </g>
  <line id="Baseline-S" style="fill:none;stroke:#27AAE1;opacity:1;stroke-width:0.5;" x1="263" x2="3036" y1="696" y2="696"/>
  <line id="Capline-S" style="fill:none;stroke:#27AAE1;opacity:1;stroke-width:0.5;" x1="263" x2="3036" y1="625.541" y2="625.541"/>
  <g id="H-reference" style="fill:#27AAE1;stroke:none;" transform="matrix(1 0 0 1 339 1126)">
   <path d="M0.993654 0L3.63775 0L29.3281-67.1323L30.0303-67.1323L30.0303-70.459L28.1226-70.459ZM11.6885-24.4799L46.9815-24.4799L46.2315-26.7285L12.4385-26.7285ZM55.1196 0L57.7637 0L30.6382-70.459L29.4326-70.459L29.4326-67.1323Z"/>
  </g>
  <line id="Baseline-M" style="fill:none;stroke:#27AAE1;opacity:1;stroke-width:0.5;" x1="263" x2="3036" y1="1126" y2="1126"/>
  <line id="Capline-M" style="fill:none;stroke:#27AAE1;opacity:1;stroke-width:0.5;" x1="263" x2="3036" y1="1055.54" y2="1055.54"/>
  <g id="H-reference" style="fill:#27AAE1;stroke:none;" transform="matrix(1 0 0 1 339 1556)">
   <path d="M0.993654 0L3.63775 0L29.3281-67.1323L30.0303-67.1323L30.0303-70.459L28.1226-70.459ZM11.6885-24.4799L46.9815-24.4799L46.2315-26.7285L12.4385-26.7285ZM55.1196 0L57.7637 0L30.6382-70.459L29.4326-70.459L29.4326-67.1323Z"/>
  </g>
  <line id="Baseline-L" style="fill:none;stroke:#27AAE1;opacity:1;stroke-width:0.5;" x1="263" x2="3036" y1="1556" y2="1556"/>
  <line id="Capline-L" style="fill:none;stroke:#27AAE1;opacity:1;stroke-width:0.5;" x1="263" x2="3036" y1="1485.54" y2="1485.54"/>
  <line id="left-margin-Ultralight-S" style="fill:none;stroke:#00AEEF;stroke-width:0.5;opacity:1.0;" x1="500.92" x2="500.92" y1="600.785" y2="720.121"/>
  <line id="right-margin-Ultralight-S" style="fill:none;stroke:#00AEEF;stroke-width:0.5;opacity:1.0;" x1="618.502" x2="618.502" y1="600.785" y2="720.121"/>
  <line id="left-margin-Regular-S" style="fill:none;stroke:#00AEEF;stroke-width:0.5;opacity:1.0;" x1="1384.22" x2="1384.22" y1="600.785" y2="720.121"/>
  <line id="right-margin-Regular-S" style="fill:none;stroke:#00AEEF;stroke-width:0.5;opacity:1.0;" x1="1515.47" x2="1515.47" y1="600.785" y2="720.121"/>
  <line id="left-margin-Black-S" style="fill:none;stroke:#00AEEF;stroke-width:0.5;opacity:1.0;" x1="2860.06" x2="2860.06" y1="600.785" y2="720.121"/>
  <line id="right-margin-Black-S" style="fill:none;stroke:#00AEEF;stroke-width:0.5;opacity:1.0;" x1="3006.74" x2="3006.74" y1="600.785" y2="720.121"/>
 </g>
 <g id="Symbols">
  <g id="Black-S" transform="matrix(1 0 0 1 2860.06 696)">
   <path class="monochrome-0 multicolor-0:tintColor hierarchical-0:primary SFSymbolsPreview007AFF" d="M24.8047 10.0098L121.875 10.0098C131.396 10.0098 136.914 4.49219 136.914-5.0293L136.914-22.2168C136.914-31.7383 131.396-37.2559 121.875-37.2559L24.8047-37.2559C15.2832-37.2559 9.76562-31.7383 9.76562-22.2168L9.76562-5.0293C9.76562 4.49219 15.2832 10.0098 24.8047 10.0098ZM26.123-2.68555C24.707-2.68555 23.9258-3.4668 23.9258-4.88281L23.9258-22.3145C23.9258-23.7305 24.707-24.5605 26.123-24.5605L120.557-24.5605C121.973-24.5605 122.754-23.7305 122.754-22.3145L122.754-4.88281C122.754-3.4668 121.973-2.68555 120.557-2.68555ZM35.4004-10.2051L45.166-10.2051C48.0957-10.2051 50.293-12.4023 50.293-15.332C50.293-18.2617 48.0957-20.459 45.166-20.459L35.4004-20.459C32.4707-20.459 30.2734-18.2617 30.2734-15.332C30.2734-12.4023 32.4707-10.2051 35.4004-10.2051ZM110.205-7.42188C113.574-7.42188 116.406-10.2539 116.406-13.6719C116.406-17.041 113.574-19.873 110.205-19.873C106.787-19.873 103.955-17.041 103.955-13.6719C103.955-10.2539 106.787-7.42188 110.205-7.42188ZM79.9316-7.42188C83.3008-7.42188 86.1328-10.2539 86.1328-13.6719C86.1328-17.041 83.3008-19.873 79.9316-19.873C76.5137-19.873 73.6816-17.041 73.6816-13.6719C73.6816-10.2539 76.5137-7.42188 79.9316-7.42188ZM64.7949-7.42188C68.1641-7.42188 70.9961-10.2539 70.9961-13.6719C70.9961-17.041 68.1641-19.873 64.7949-19.873C61.377-19.873 58.5449-17.041 58.5449-13.6719C58.5449-10.2539 61.377-7.42188 64.7949-7.42188ZM95.0684-7.42188C98.4375-7.42188 101.27-10.2539 101.27-13.6719C101.27-17.041 98.4375-19.873 95.0684-19.873C91.6504-19.873 88.8184-17.041 88.8184-13.6719C88.8184-10.2539 91.6504-7.42188 95.0684-7.42188Z"/>
   <path class="monochrome-1 multicolor-1:tintColor hierarchical-1:secondary SFSymbolsPreview007AFF" d="M73.3398-55.7617C69.5312-55.7617 65.6738-54.541 62.6465-52.3926C60.6445-51.0254 60.1562-48.2422 61.4258-45.9473C62.9395-43.4082 65.918-43.0176 68.9941-44.7266C70.3613-45.5078 71.7773-45.8984 73.3398-45.8984C74.9023-45.8984 76.3184-45.5078 77.6855-44.7266C80.7617-43.0176 83.7402-43.4082 85.2539-45.9473C86.5234-48.2422 86.0352-51.0254 84.0332-52.3926C81.0059-54.541 77.1484-55.7617 73.3398-55.7617Z"/>
   <path class="monochrome-2 multicolor-2:tintColor hierarchical-2:secondary SFSymbolsPreview007AFF" d="M73.3398-68.1641C67.5293-68.1641 61.8652-66.5039 57.0312-63.4766C54.7852-62.1094 54.0527-59.3262 55.3711-56.9336C56.8359-54.3457 59.8633-53.7598 62.8418-55.4199C66.0156-57.3242 69.5801-58.3008 73.3398-58.3008C77.0996-58.3008 80.6641-57.3242 83.8379-55.4199C86.8164-53.7598 89.8438-54.3457 91.3086-56.9336C92.627-59.3262 91.8945-62.1094 89.6484-63.4766C84.8145-66.5039 79.1504-68.1641 73.3398-68.1641Z"/>
   <path class="monochrome-3 multicolor-3:tintColor hierarchical-3:secondary SFSymbolsPreview007AFF" d="M73.3398-80.4688C65.5762-80.4688 57.959-78.3691 51.2207-74.4629C48.8281-73.0469 48.0957-70.1172 49.5117-67.7246C50.8301-65.2344 53.9062-64.5996 56.6895-66.1621C61.8164-69.0918 67.4316-70.6055 73.3398-70.6055C79.248-70.6055 84.8633-69.0918 89.9902-66.1621C92.7734-64.5996 95.8496-65.2344 97.168-67.7246C98.584-70.1172 97.8516-73.0469 95.459-74.4629C88.7207-78.3691 81.1035-80.4688 73.3398-80.4688Z"/>
  </g>
  <g id="Regular-S" transform="matrix(1 0 0 1 1384.22 696)">
   <path class="monochrome-0 multicolor-0:tintColor hierarchical-0:primary SFSymbolsPreview007AFF" d="M21.1426 2.14844L110.107 2.14844C117.09 2.14844 121.484-2.19727 121.484-9.08203L121.484-21.5332C121.484-28.418 117.09-32.7148 110.107-32.7148L21.1426-32.7148C14.1602-32.7148 9.76562-28.418 9.76562-21.5332L9.76562-9.08203C9.76562-2.19727 14.1602 2.14844 21.1426 2.14844ZM21.1426-4.93164C18.5059-4.93164 16.7969-6.49414 16.7969-9.08203L16.7969-21.5332C16.7969-24.1211 18.5059-25.6836 21.1426-25.6836L110.107-25.6836C112.744-25.6836 114.404-24.1211 114.404-21.5332L114.404-9.08203C114.404-6.49414 112.744-4.93164 110.107-4.93164ZM26.5137-13.7695L39.6484-13.7695C41.4551-13.7695 42.7246-15.0391 42.7246-16.7969C42.7246-18.6035 41.4551-19.873 39.6484-19.873L26.5137-19.873C24.7559-19.873 23.4863-18.6035 23.4863-16.7969C23.4863-15.0391 24.7559-13.7695 26.5137-13.7695ZM102.686-10.1074C105.469-10.1074 107.812-12.4512 107.812-15.332C107.812-18.1152 105.469-20.459 102.686-20.459C99.8047-20.459 97.4609-18.1152 97.4609-15.332C97.4609-12.4512 99.8047-10.1074 102.686-10.1074ZM73.4375-10.1074C76.2695-10.1074 78.6133-12.5 78.6133-15.332C78.6133-18.1152 76.2695-20.459 73.4375-20.459C70.6055-20.459 68.2617-18.1152 68.2617-15.332C68.2617-12.5 70.6055-10.1074 73.4375-10.1074ZM58.8379-10.1074C61.6699-10.1074 64.0137-12.5 64.0137-15.332C64.0137-18.1152 61.6699-20.459 58.8379-20.459C56.0059-20.459 53.6621-18.1152 53.6621-15.332C53.6621-12.5 56.0059-10.1074 58.8379-10.1074ZM88.0859-10.1074C90.8691-10.1074 93.2129-12.5 93.2129-15.332C93.2129-18.1152 90.8691-20.459 88.0859-20.459C85.2051-20.459 82.8613-18.1152 82.8613-15.332C82.8613-12.5 85.2051-10.1074 88.0859-10.1074Z"/>
   <path class="monochrome-1 multicolor-1:tintColor hierarchical-1:secondary SFSymbolsPreview007AFF" d="M65.5762-49.0234C61.5723-49.0234 57.6172-47.8516 54.9805-45.8984C53.6133-44.9219 53.2715-43.1152 54.1504-41.7969C55.1758-40.332 57.0312-40.0391 58.5938-41.1133C60.3027-42.3828 62.9395-43.1152 65.5762-43.1152C68.3105-43.1152 70.9473-42.3828 72.5586-41.1133C74.1211-39.9902 75.9766-40.2832 77.0508-41.7969C77.8809-43.1152 77.4902-44.873 76.1719-45.8984C73.3887-47.8516 69.4336-49.0234 65.5762-49.0234Z"/>
   <path class="monochrome-2 multicolor-2:tintColor hierarchical-2:secondary SFSymbolsPreview007AFF" d="M65.625-60.8887C59.375-60.8887 53.1738-59.0332 48.4375-55.6641C47.0215-54.6387 46.6797-52.8809 47.6562-51.5137C48.584-50.1953 50.3906-49.9023 51.9043-50.9766C55.5176-53.5156 60.5469-54.9805 65.625-54.9805C70.7031-54.9805 75.6836-53.5156 79.2969-50.9766C80.8105-49.9023 82.666-50.1953 83.5449-51.5137C84.5215-52.8809 84.2285-54.6387 82.8125-55.6641C78.2227-59.0332 72.0215-60.8887 65.625-60.8887Z"/>
   <path class="monochrome-3 multicolor-3:tintColor hierarchical-3:secondary SFSymbolsPreview007AFF" d="M65.5762-72.7051C56.8359-72.7051 48.3398-70.166 41.7969-65.5762C40.3809-64.502 40.0391-62.6953 40.9668-61.377C41.9434-60.0098 43.75-59.7656 45.2148-60.791C50.8301-64.6973 58.252-66.8945 65.5762-66.8945C72.998-66.8945 80.2734-64.6973 85.9375-60.791C87.4023-59.7656 89.209-60.0098 90.1855-61.377C91.1621-62.7441 90.7715-64.5508 89.3066-65.5762C82.7148-70.166 74.2188-72.7051 65.5762-72.7051Z"/>
  </g>
  <g id="Ultralight-S" transform="matrix(1 0 0 1 500.92 696)">
   <path class="monochrome-0 multicolor-0:tintColor hierarchical-0:primary SFSymbolsPreview007AFF" d="M17.1011-3.16451L100.481-3.16451C105.011-3.16451 107.816-5.96628 107.816-10.4443L107.816-21.4878C107.816-25.9658 105.011-28.7642 100.481-28.7642L17.1011-28.7642C12.5708-28.7642 9.76562-25.9658 9.76562-21.4878L9.76562-10.4443C9.76562-5.96628 12.5708-3.16451 17.1011-3.16451ZM17.1011-5.34033C13.9649-5.34033 11.9834-7.26611 11.9834-10.4443L11.9834-21.4878C11.9834-24.6206 13.9649-26.5464 17.1011-26.5464L100.481-26.5464C103.662-26.5464 105.64-24.6206 105.64-21.4878L105.64-10.4443C105.64-7.26611 103.662-5.34033 100.481-5.34033ZM20.8829-16.7666L33.1548-16.7666C33.7354-16.7666 34.233-17.2641 34.233-17.8867C34.233-18.4673 33.7354-18.9649 33.1548-18.9649L20.8829-18.9649C20.3057-18.9649 19.8081-18.4673 19.8081-17.8867C19.8081-17.2641 20.3057-16.7666 20.8829-16.7666ZM94.8297-11.9238C97.0679-11.9238 98.8668-13.7226 98.8668-15.9678C98.8668-18.2515 97.0679-20.0503 94.8297-20.0503C92.5845-20.0503 90.7403-18.2515 90.7403-15.9678C90.7403-13.7226 92.5845-11.9238 94.8297-11.9238ZM67.1255-11.9238C69.3672-11.9238 71.1207-13.7715 71.1207-16.0132C71.1207-18.2515 69.3672-20.0503 67.1255-20.0503C64.8384-20.0503 62.9942-18.2515 62.9942-16.0132C62.9942-13.7715 64.8384-11.9238 67.1255-11.9238ZM53.2525-11.9238C55.4942-11.9238 57.293-13.7715 57.293-16.0132C57.293-18.2515 55.4942-20.0503 53.2525-20.0503C51.0108-20.0503 49.1665-18.2515 49.1665-16.0132C49.1665-13.7715 51.0108-11.9238 53.2525-11.9238ZM81.002-11.9238C83.1949-11.9238 84.9937-13.7715 84.9937-16.0132C84.9937-18.2515 83.1949-20.0503 81.002-20.0503C78.7115-20.0503 76.8672-18.2515 76.8672-16.0132C76.8672-13.7715 78.7115-11.9238 81.002-11.9238Z"/>
   <path class="monochrome-1 multicolor-1:tintColor hierarchical-1:secondary SFSymbolsPreview007AFF" d="M58.8101-42.3028C54.7608-42.3028 50.7603-41.0401 47.8511-38.8145C47.3467-38.3829 47.232-37.6661 47.6114-37.2559C48.0919-36.6538 48.7213-36.6787 49.3302-37.1172C51.8565-39.0225 55.2652-40.1636 58.8101-40.1636C62.3165-40.1636 65.7705-39.0225 68.2901-37.1172C68.8536-36.6753 69.5284-36.6504 70.0123-37.2559C70.3428-37.6661 70.2701-38.3794 69.7691-38.8145C66.8497-41.0401 62.8492-42.3028 58.8101-42.3028Z"/>
   <path class="monochrome-2 multicolor-2:tintColor hierarchical-2:secondary SFSymbolsPreview007AFF" d="M58.8135-54.8038C51.7916-54.8038 45.6358-52.8575 40.8087-49.1251C40.3462-48.7354 40.2315-48.1582 40.5723-47.6538C40.8643-47.1983 41.5357-46.9961 42.0504-47.3438C46.5264-50.8364 52.2823-52.6646 58.8135-52.6646C65.2994-52.6646 71.0972-50.8364 75.5279-47.3438C76.0879-46.9961 76.7173-47.1983 77.0513-47.6538C77.3921-48.1582 77.2808-48.7354 76.773-49.1251C71.9561-52.8575 65.8003-54.8038 58.8135-54.8038Z"/>
   <path class="monochrome-3 multicolor-3:tintColor hierarchical-3:secondary SFSymbolsPreview007AFF" d="M58.8101-67.3921C49.752-67.3921 41.1651-64.7168 33.7139-59.5367C33.2061-59.1436 33.0914-58.563 33.3834-58.0166C33.815-57.5122 34.4864-57.4043 34.9522-57.794C41.2032-62.6084 49.5333-65.2598 58.8101-65.2598C68.0938-65.2598 76.3682-62.6084 82.6226-57.794C83.1338-57.4043 83.7598-57.5122 84.1915-58.0166C84.5323-58.5664 84.4141-59.147 83.8575-59.5367C76.4483-64.7168 67.8614-67.3921 58.8101-67.3921Z"/>
  </g>
 </g>
</svg>
