<?xml version="1.0" encoding="UTF-8"?>
<!--Generator: Apple Native CoreSVG 175.5-->
<!DOCTYPE svg
PUBLIC "-//W3C//DTD SVG 1.1//EN"
       "http://www.w3.org/Graphics/SVG/1.1/DTD/svg11.dtd">
<svg version="1.1" xmlns="http://www.w3.org/2000/svg" xmlns:xlink="http://www.w3.org/1999/xlink" width="3300" height="2200">
 <!--glyph: "uni101239.medium", point size: 100.0, font version: "18.0d11e1", template writer version: "90"-->
 <style>.monochrome-0 {fill:#000000}

.SFSymbolsPreview000000 {fill:#000000;opacity:1.0}
</style>
 <g id="Notes">
  <rect height="2200" id="artboard" style="fill:white;opacity:1" width="3300" x="0" y="0"/>
  <line style="fill:none;stroke:black;opacity:1;stroke-width:0.5;" x1="263" x2="3036" y1="292" y2="292"/>
  <text style="stroke:none;fill:black;font-family:sans-serif;font-size:13;font-weight:bold;" transform="matrix(1 0 0 1 263 322)">Weight/Scale Variations</text>
  <text style="stroke:none;fill:black;font-family:sans-serif;font-size:13;text-anchor:middle;" transform="matrix(1 0 0 1 559.711 322)">Ultralight</text>
  <text style="stroke:none;fill:black;font-family:sans-serif;font-size:13;text-anchor:middle;" transform="matrix(1 0 0 1 856.422 322)">Thin</text>
  <text style="stroke:none;fill:black;font-family:sans-serif;font-size:13;text-anchor:middle;" transform="matrix(1 0 0 1 1153.13 322)">Light</text>
  <text style="stroke:none;fill:black;font-family:sans-serif;font-size:13;text-anchor:middle;" transform="matrix(1 0 0 1 1449.84 322)">Regular</text>
  <text style="stroke:none;fill:black;font-family:sans-serif;font-size:13;text-anchor:middle;" transform="matrix(1 0 0 1 1746.56 322)">Medium</text>
  <text style="stroke:none;fill:black;font-family:sans-serif;font-size:13;text-anchor:middle;" transform="matrix(1 0 0 1 2043.27 322)">Semibold</text>
  <text style="stroke:none;fill:black;font-family:sans-serif;font-size:13;text-anchor:middle;" transform="matrix(1 0 0 1 2339.98 322)">Bold</text>
  <text style="stroke:none;fill:black;font-family:sans-serif;font-size:13;text-anchor:middle;" transform="matrix(1 0 0 1 2636.69 322)">Heavy</text>
  <text style="stroke:none;fill:black;font-family:sans-serif;font-size:13;text-anchor:middle;" transform="matrix(1 0 0 1 2933.4 322)">Black</text>
  <line style="fill:none;stroke:black;opacity:1;stroke-width:0.5;" x1="263" x2="3036" y1="1903" y2="1903"/>
  <g transform="matrix(1 0 0 1 263 1933)">
   <path d="M9.24805 0.830078C13.5547 0.830078 17.1387-2.74414 17.1387-7.05078C17.1387-11.3574 13.5449-14.9316 9.23828-14.9316C4.94141-14.9316 1.36719-11.3574 1.36719-7.05078C1.36719-2.74414 4.95117 0.830078 9.24805 0.830078ZM9.24805-0.654297C5.70312-0.654297 2.87109-3.49609 2.87109-7.05078C2.87109-10.6055 5.69336-13.4473 9.23828-13.4473C12.793-13.4473 15.6445-10.6055 15.6445-7.05078C15.6445-3.49609 12.8027-0.654297 9.24805-0.654297ZM5.6543-7.05078C5.6543-6.62109 5.95703-6.32812 6.40625-6.32812L8.50586-6.32812L8.50586-4.20898C8.50586-3.76953 8.79883-3.4668 9.22852-3.4668C9.67773-3.4668 9.9707-3.76953 9.9707-4.20898L9.9707-6.32812L12.0898-6.32812C12.5293-6.32812 12.832-6.62109 12.832-7.05078C12.832-7.49023 12.5293-7.79297 12.0898-7.79297L9.9707-7.79297L9.9707-9.90234C9.9707-10.3516 9.67773-10.6543 9.22852-10.6543C8.79883-10.6543 8.50586-10.3516 8.50586-9.90234L8.50586-7.79297L6.40625-7.79297C5.95703-7.79297 5.6543-7.49023 5.6543-7.05078Z"/>
  </g>
  <g transform="matrix(1 0 0 1 281.867 1933)">
   <path d="M11.709 2.91016C17.1582 2.91016 21.6699-1.61133 21.6699-7.05078C21.6699-12.5 17.1484-17.0117 11.6992-17.0117C6.25977-17.0117 1.74805-12.5 1.74805-7.05078C1.74805-1.61133 6.26953 2.91016 11.709 2.91016ZM11.709 1.25C7.09961 1.25 3.41797-2.44141 3.41797-7.05078C3.41797-11.6602 7.08984-15.3516 11.6992-15.3516C16.3086-15.3516 20.0098-11.6602 20.0098-7.05078C20.0098-2.44141 16.3184 1.25 11.709 1.25ZM7.17773-7.05078C7.17773-6.57227 7.50977-6.25 8.00781-6.25L10.8789-6.25L10.8789-3.36914C10.8789-2.88086 11.2109-2.53906 11.6895-2.53906C12.1777-2.53906 12.5195-2.87109 12.5195-3.36914L12.5195-6.25L15.4004-6.25C15.8887-6.25 16.2305-6.57227 16.2305-7.05078C16.2305-7.53906 15.8887-7.88086 15.4004-7.88086L12.5195-7.88086L12.5195-10.752C12.5195-11.25 12.1777-11.5918 11.6895-11.5918C11.2109-11.5918 10.8789-11.25 10.8789-10.752L10.8789-7.88086L8.00781-7.88086C7.50977-7.88086 7.17773-7.53906 7.17773-7.05078Z"/>
  </g>
  <g transform="matrix(1 0 0 1 305.646 1933)">
   <path d="M14.9707 5.66406C21.9336 5.66406 27.6953-0.0976562 27.6953-7.05078C27.6953-14.0137 21.9238-19.7754 14.9609-19.7754C8.00781-19.7754 2.25586-14.0137 2.25586-7.05078C2.25586-0.0976562 8.01758 5.66406 14.9707 5.66406ZM14.9707 3.84766C8.93555 3.84766 4.08203-1.01562 4.08203-7.05078C4.08203-13.0957 8.92578-17.9492 14.9609-17.9492C21.0059-17.9492 25.8691-13.0957 25.8691-7.05078C25.8691-1.01562 21.0156 3.84766 14.9707 3.84766ZM9.19922-7.05078C9.19922-6.5332 9.57031-6.17188 10.1172-6.17188L14.0625-6.17188L14.0625-2.2168C14.0625-1.67969 14.4336-1.29883 14.9512-1.29883C15.4883-1.29883 15.8594-1.66992 15.8594-2.2168L15.8594-6.17188L19.8145-6.17188C20.3516-6.17188 20.7324-6.5332 20.7324-7.05078C20.7324-7.59766 20.3613-7.96875 19.8145-7.96875L15.8594-7.96875L15.8594-11.9141C15.8594-12.4609 15.4883-12.8418 14.9512-12.8418C14.4336-12.8418 14.0625-12.4609 14.0625-11.9141L14.0625-7.96875L10.1172-7.96875C9.57031-7.96875 9.19922-7.59766 9.19922-7.05078Z"/>
  </g>
  <text style="stroke:none;fill:black;font-family:sans-serif;font-size:13;font-weight:bold;" transform="matrix(1 0 0 1 263 1953)">Design Variations</text>
  <text style="stroke:none;fill:black;font-family:sans-serif;font-size:13;" transform="matrix(1 0 0 1 263 1971)">Symbols are supported in up to nine weights and three scales.</text>
  <text style="stroke:none;fill:black;font-family:sans-serif;font-size:13;" transform="matrix(1 0 0 1 263 1989)">For optimal layout with text and other symbols, vertically align</text>
  <text style="stroke:none;fill:black;font-family:sans-serif;font-size:13;" transform="matrix(1 0 0 1 263 2007)">symbols with the adjacent text.</text>
  <line style="fill:none;stroke:#00AEEF;stroke-width:0.5;opacity:1.0;" x1="776" x2="776" y1="1919" y2="1933"/>
  <g transform="matrix(1 0 0 1 776 1933)">
   <path d="M3.31055 0.15625C3.82812 0.15625 4.08203-0.0390625 4.26758-0.585938L5.52734-4.0332L11.2891-4.0332L12.5488-0.585938C12.7344-0.0390625 12.9883 0.15625 13.4961 0.15625C14.0137 0.15625 14.3457-0.15625 14.3457-0.644531C14.3457-0.810547 14.3164-0.966797 14.2383-1.17188L9.6582-13.3691C9.43359-13.9648 9.0332-14.2676 8.4082-14.2676C7.80273-14.2676 7.39258-13.9746 7.17773-13.3789L2.59766-1.16211C2.51953-0.957031 2.49023-0.800781 2.49023-0.634766C2.49023-0.146484 2.80273 0.15625 3.31055 0.15625ZM6.00586-5.51758L8.37891-12.0898L8.42773-12.0898L10.8008-5.51758Z"/>
  </g>
  <line style="fill:none;stroke:#00AEEF;stroke-width:0.5;opacity:1.0;" x1="793.197" x2="793.197" y1="1919" y2="1933"/>
  <text style="stroke:none;fill:black;font-family:sans-serif;font-size:13;font-weight:bold;" transform="matrix(1 0 0 1 776 1953)">Margins</text>
  <text style="stroke:none;fill:black;font-family:sans-serif;font-size:13;" transform="matrix(1 0 0 1 776 1971)">Leading and trailing margins on the left and right side of each symbol</text>
  <text style="stroke:none;fill:black;font-family:sans-serif;font-size:13;" transform="matrix(1 0 0 1 776 1989)">can be adjusted by modifying the x-location of the margin guidelines.</text>
  <text style="stroke:none;fill:black;font-family:sans-serif;font-size:13;" transform="matrix(1 0 0 1 776 2007)">Modifications are automatically applied proportionally to all</text>
  <text style="stroke:none;fill:black;font-family:sans-serif;font-size:13;" transform="matrix(1 0 0 1 776 2025)">scales and weights.</text>
  <g transform="matrix(1 0 0 1 1289 1933)">
   <path d="M2.8418 1.86523L4.54102 3.57422C5.40039 4.44336 6.38672 4.38477 7.31445 3.35938L18.0078-8.42773L17.041-9.4043L6.42578 2.27539C6.07422 2.67578 5.74219 2.77344 5.27344 2.30469L4.10156 1.14258C3.63281 0.683594 3.74023 0.341797 4.14062-0.0195312L15.6152-10.8203L14.6387-11.7871L3.04688-0.898438C2.06055 0.0195312 1.98242 0.996094 2.8418 1.86523ZM9.25781-16.3281C8.83789-15.918 8.80859-15.3418 9.04297-14.9512C9.27734-14.5898 9.73633-14.3555 10.3809-14.5215C11.8457-14.8633 13.3691-14.9219 14.7949-13.9844L14.209-12.5293C13.8672-11.6992 14.043-11.1133 14.5801-10.5664L16.875-8.25195C17.3633-7.76367 17.7734-7.74414 18.3398-7.8418L19.4043-8.03711L20.0684-7.36328L20.0293-6.80664C19.9902-6.30859 20.1172-5.92773 20.6055-5.44922L21.3672-4.70703C21.8457-4.22852 22.4609-4.19922 22.9297-4.66797L25.8398-7.58789C26.3086-8.05664 26.2891-8.65234 25.8105-9.13086L25.0391-9.89258C24.5605-10.3711 24.1895-10.5273 23.7109-10.4883L23.1348-10.4395L22.4902-11.0742L22.7344-12.1973C22.8613-12.7637 22.7051-13.2031 22.1191-13.7891L19.9219-15.9766C16.582-19.2969 12.1484-19.2188 9.25781-16.3281ZM10.752-15.957C13.1836-17.7344 16.4746-17.4316 18.7012-15.2051L21.1328-12.793C21.3672-12.5586 21.4062-12.373 21.3379-12.0312L21.0156-10.5469L22.5195-9.0625L23.5059-9.12109C23.7598-9.13086 23.8379-9.11133 24.0332-8.91602L24.6094-8.33984L22.168-5.89844L21.5918-6.47461C21.3965-6.66992 21.3672-6.74805 21.377-7.01172L21.4453-7.98828L19.9512-9.47266L18.4277-9.21875C18.1055-9.15039 17.959-9.17969 17.7148-9.41406L15.7129-11.416C15.459-11.6504 15.4297-11.8164 15.5859-12.1875L16.4648-14.2773C14.9023-15.7324 12.8711-16.3574 10.8398-15.7617C10.6836-15.7227 10.625-15.8496 10.752-15.957Z"/>
  </g>
  <text style="stroke:none;fill:black;font-family:sans-serif;font-size:13;font-weight:bold;" transform="matrix(1 0 0 1 1289 1953)">Exporting</text>
  <text style="stroke:none;fill:black;font-family:sans-serif;font-size:13;" transform="matrix(1 0 0 1 1289 1971)">Symbols should be outlined when exporting to ensure the</text>
  <text style="stroke:none;fill:black;font-family:sans-serif;font-size:13;" transform="matrix(1 0 0 1 1289 1989)">design is preserved when submitting to Xcode.</text>
  <text id="template-version" style="stroke:none;fill:black;font-family:sans-serif;font-size:13;text-anchor:end;" transform="matrix(1 0 0 1 3036 1933)">Template v.4.0</text>
  <text style="stroke:none;fill:black;font-family:sans-serif;font-size:13;text-anchor:end;" transform="matrix(1 0 0 1 3036 1951)">Requires Xcode 14 or greater</text>
  <text id="descriptive-name" style="stroke:none;fill:black;font-family:sans-serif;font-size:13;text-anchor:end;" transform="matrix(1 0 0 1 3036 1969)">Generated from microbe</text>
  <text style="stroke:none;fill:black;font-family:sans-serif;font-size:13;text-anchor:end;" transform="matrix(1 0 0 1 3036 1987)">Typeset at 100 points</text>
  <text style="stroke:none;fill:black;font-family:sans-serif;font-size:13;" transform="matrix(1 0 0 1 263 726)">Small</text>
  <text style="stroke:none;fill:black;font-family:sans-serif;font-size:13;" transform="matrix(1 0 0 1 263 1156)">Medium</text>
  <text style="stroke:none;fill:black;font-family:sans-serif;font-size:13;" transform="matrix(1 0 0 1 263 1586)">Large</text>
 </g>
 <g id="Guides">
  <g id="H-reference" style="fill:#27AAE1;stroke:none;" transform="matrix(1 0 0 1 339 696)">
   <path d="M0.993654 0L3.63775 0L29.3281-67.1323L30.0303-67.1323L30.0303-70.459L28.1226-70.459ZM11.6885-24.4799L46.9815-24.4799L46.2315-26.7285L12.4385-26.7285ZM55.1196 0L57.7637 0L30.6382-70.459L29.4326-70.459L29.4326-67.1323Z"/>
  </g>
  <line id="Baseline-S" style="fill:none;stroke:#27AAE1;opacity:1;stroke-width:0.5;" x1="263" x2="3036" y1="696" y2="696"/>
  <line id="Capline-S" style="fill:none;stroke:#27AAE1;opacity:1;stroke-width:0.5;" x1="263" x2="3036" y1="625.541" y2="625.541"/>
  <g id="H-reference" style="fill:#27AAE1;stroke:none;" transform="matrix(1 0 0 1 339 1126)">
   <path d="M0.993654 0L3.63775 0L29.3281-67.1323L30.0303-67.1323L30.0303-70.459L28.1226-70.459ZM11.6885-24.4799L46.9815-24.4799L46.2315-26.7285L12.4385-26.7285ZM55.1196 0L57.7637 0L30.6382-70.459L29.4326-70.459L29.4326-67.1323Z"/>
  </g>
  <line id="Baseline-M" style="fill:none;stroke:#27AAE1;opacity:1;stroke-width:0.5;" x1="263" x2="3036" y1="1126" y2="1126"/>
  <line id="Capline-M" style="fill:none;stroke:#27AAE1;opacity:1;stroke-width:0.5;" x1="263" x2="3036" y1="1055.54" y2="1055.54"/>
  <g id="H-reference" style="fill:#27AAE1;stroke:none;" transform="matrix(1 0 0 1 339 1556)">
   <path d="M0.993654 0L3.63775 0L29.3281-67.1323L30.0303-67.1323L30.0303-70.459L28.1226-70.459ZM11.6885-24.4799L46.9815-24.4799L46.2315-26.7285L12.4385-26.7285ZM55.1196 0L57.7637 0L30.6382-70.459L29.4326-70.459L29.4326-67.1323Z"/>
  </g>
  <line id="Baseline-L" style="fill:none;stroke:#27AAE1;opacity:1;stroke-width:0.5;" x1="263" x2="3036" y1="1556" y2="1556"/>
  <line id="Capline-L" style="fill:none;stroke:#27AAE1;opacity:1;stroke-width:0.5;" x1="263" x2="3036" y1="1485.54" y2="1485.54"/>
  <line id="left-margin-Ultralight-S" style="fill:none;stroke:#00AEEF;stroke-width:0.5;opacity:1.0;" x1="513.381" x2="513.381" y1="600.785" y2="720.121"/>
  <line id="right-margin-Ultralight-S" style="fill:none;stroke:#00AEEF;stroke-width:0.5;opacity:1.0;" x1="606.041" x2="606.041" y1="600.785" y2="720.121"/>
  <line id="left-margin-Regular-S" style="fill:none;stroke:#00AEEF;stroke-width:0.5;opacity:1.0;" x1="1401.99" x2="1401.99" y1="600.785" y2="720.121"/>
  <line id="right-margin-Regular-S" style="fill:none;stroke:#00AEEF;stroke-width:0.5;opacity:1.0;" x1="1497.7" x2="1497.7" y1="600.785" y2="720.121"/>
  <line id="left-margin-Black-S" style="fill:none;stroke:#00AEEF;stroke-width:0.5;opacity:1.0;" x1="2885.16" x2="2885.16" y1="600.785" y2="720.121"/>
  <line id="right-margin-Black-S" style="fill:none;stroke:#00AEEF;stroke-width:0.5;opacity:1.0;" x1="2981.64" x2="2981.64" y1="600.785" y2="720.121"/>
 </g>
 <g id="Symbols">
  <g id="Black-S" transform="matrix(1 0 0 1 2885.16 696)">
   <path class="monochrome-0 SFSymbolsPreview000000" d="M48.1934-14.9414C59.2773-14.9414 68.5059-24.1699 68.5059-35.2539C68.5059-46.3379 59.2773-55.5664 48.1934-55.5664C37.1094-55.5664 27.8809-46.3379 27.8809-35.2539C27.8809-24.1699 37.1094-14.9414 48.1934-14.9414ZM48.1934-28.6133C44.6777-28.6133 41.5527-31.7383 41.5527-35.2539C41.5527-38.7695 44.6777-41.8945 48.1934-41.8945C51.709-41.8945 54.834-38.7695 54.834-35.2539C54.834-31.7383 51.709-28.6133 48.1934-28.6133ZM72.9492-49.5117C74.707-46.3867 78.6133-45.3125 81.6895-47.1191C84.8145-48.9258 85.8398-52.832 84.082-55.957C82.2754-58.9844 78.3691-60.0098 75.293-58.252C72.2168-56.4941 71.1426-52.5879 72.9492-49.5117ZM72.998-20.8984C71.1914-17.8711 72.168-13.9648 75.2441-12.1582C78.418-10.3516 82.2754-11.4258 84.1309-14.5508C85.8398-17.627 84.7656-21.4844 81.7383-23.2422C78.6621-25.0977 74.7559-24.0234 72.998-20.8984ZM23.4863-20.9473C21.6797-24.0234 17.8223-25.0488 14.7461-23.291C11.6211-21.4844 10.5469-17.5781 12.3535-14.5508C14.1113-11.4258 18.0664-10.4004 21.1426-12.1582C24.2188-13.916 25.2441-17.8223 23.4863-20.9473ZM62.5-59.9609C65.5762-58.1543 69.4824-59.1797 71.2402-62.2559C73.0469-65.3809 71.9727-69.2871 68.8965-71.0938C65.8203-72.8516 61.9141-71.7773 60.1562-68.7012C58.3496-65.625 59.375-61.7188 62.5-59.9609ZM33.9355-10.498C30.8105-12.2559 26.9531-11.2305 25.1953-8.1543C23.3887-5.0293 24.4141-1.12305 27.4902 0.634766C30.5664 2.44141 34.5215 1.36719 36.2793-1.70898C38.0859-4.78516 37.0117-8.69141 33.9355-10.498ZM33.9844-59.9121C37.0117-61.7676 38.0371-65.5762 36.3281-68.6523C34.5215-71.7773 30.6152-72.9004 27.5879-71.0938C24.4141-69.2871 23.4375-65.3809 25.1465-62.3047C27.002-59.1797 30.8594-58.2031 33.9844-59.9121ZM62.5488-10.4492C59.4727-8.69141 58.3496-4.83398 60.1074-1.70898C61.9629 1.41602 65.8203 2.39258 68.9941 0.634766C72.0215-1.17188 72.998-5.0293 71.2891-8.10547C69.5312-11.2305 65.625-12.2559 62.5488-10.4492ZM23.5352-49.4629C25.2441-52.5879 24.2188-56.4453 21.1914-58.2031C18.0664-60.0098 14.1113-59.0332 12.4023-55.957C10.5469-52.832 11.6699-48.9258 14.6973-47.1191C17.8223-45.3613 21.6797-46.4355 23.5352-49.4629ZM19.6777-35.2051C19.6289-38.7695 16.7969-41.6016 13.2812-41.6016C9.66797-41.6016 6.78711-38.7695 6.83594-35.2539C6.78711-31.6406 9.7168-28.8086 13.2324-28.7598C16.7969-28.7598 19.6289-31.6406 19.6777-35.2051ZM48.1934-63.7695C51.7578-63.7695 54.6387-66.6016 54.6387-70.166C54.6387-73.7305 51.7578-76.6113 48.1934-76.6113C44.6289-76.6113 41.7969-73.7305 41.7969-70.166C41.7969-66.6016 44.6289-63.7695 48.1934-63.7695ZM48.1934-6.64062C44.6289-6.64062 41.7969-3.80859 41.7969-0.244141C41.7969 3.32031 44.6289 6.20117 48.1934 6.20117C51.7578 6.20117 54.6387 3.32031 54.6387-0.244141C54.6387-3.80859 51.7578-6.64062 48.1934-6.64062ZM76.8066-35.2051C76.7578-31.6406 79.5898-28.7598 83.1543-28.7598C86.7676-28.7598 89.5996-31.6406 89.6484-35.2539C89.5996-38.7695 86.7188-41.6016 83.2031-41.6016C79.6387-41.6504 76.7578-38.7695 76.8066-35.2051Z"/>
  </g>
  <g id="Regular-S" transform="matrix(1 0 0 1 1401.99 696)">
   <path class="monochrome-0 SFSymbolsPreview000000" d="M47.7539-11.2305C61.1816-11.2305 71.8262-21.875 71.8262-35.2539C71.8262-48.6328 61.084-59.2773 47.7051-59.2773C34.375-59.2773 23.7793-48.6816 23.7793-35.2539C23.7793-21.875 34.4238-11.2305 47.7539-11.2305ZM47.7539-18.3105C38.3301-18.3105 30.8594-25.7812 30.8594-35.2539C30.8594-44.7266 38.2812-52.1973 47.7051-52.1973C57.1777-52.1973 64.6973-44.6777 64.6973-35.2539C64.7461-25.8301 57.2266-18.3105 47.7539-18.3105ZM74.6582-50.7324C76.0254-48.291 79.1016-47.4609 81.543-48.877C83.9355-50.2441 84.8145-53.3203 83.3984-55.7617C81.9824-58.2031 78.9551-58.9844 76.4648-57.6172C74.0723-56.2012 73.2422-53.125 74.6582-50.7324ZM74.6582-19.7754C73.2422-17.3828 74.0723-14.3066 76.4648-12.8906C78.9062-11.5234 81.9824-12.3047 83.3984-14.7461C84.8145-17.1875 83.9355-20.166 81.543-21.6309C79.1016-23.0469 76.0254-22.2168 74.6582-19.7754ZM21.0449-19.7754C19.6777-22.2168 16.6016-23.0469 14.209-21.6309C11.7676-20.2637 10.9375-17.1875 12.3535-14.7461C13.7207-12.3047 16.748-11.5234 19.2383-12.8906C21.6797-14.3066 22.4609-17.3828 21.0449-19.7754ZM63.3301-62.0605C65.7715-60.6445 68.7988-61.4258 70.2148-63.8672C71.6309-66.3086 70.8008-69.3848 68.3594-70.752C65.9668-72.2168 62.8906-71.3379 61.4746-68.8965C60.1074-66.5039 60.8887-63.4277 63.3301-62.0605ZM32.373-8.44727C29.9805-9.86328 26.9043-9.08203 25.4883-6.64062C24.1211-4.19922 24.9023-1.12305 27.3438 0.244141C29.7852 1.70898 32.8125 0.830078 34.2285-1.61133C35.6445-4.00391 34.8145-7.08008 32.373-8.44727ZM32.373-62.0605C34.8145-63.4277 35.6445-66.5039 34.2285-68.8965C32.8613-71.3379 29.7852-72.2168 27.3438-70.752C24.9023-69.3848 24.1699-66.3574 25.4883-63.8672C26.9043-61.4258 29.9805-60.6445 32.373-62.0605ZM63.3301-8.44727C60.8887-7.08008 60.1074-4.00391 61.4746-1.61133C62.8418 0.830078 65.9668 1.70898 68.3594 0.244141C70.8008-1.12305 71.582-4.15039 70.2148-6.64062C68.7988-9.08203 65.7715-9.86328 63.3301-8.44727ZM21.0449-50.7324C22.4609-53.125 21.6797-56.2012 19.2383-57.6172C16.7969-58.9844 13.7207-58.2031 12.3535-55.7617C10.9375-53.3203 11.7676-50.3418 14.209-48.877C16.6016-47.4609 19.6777-48.291 21.0449-50.7324ZM16.9434-35.2539C16.9434-38.0371 14.6973-40.2832 11.8652-40.2832C9.13086-40.2832 6.83594-38.0371 6.83594-35.2539C6.83594-32.4707 9.08203-30.2734 11.8652-30.2246C14.6973-30.2246 16.9434-32.4707 16.9434-35.2539ZM47.8516-66.2109C50.6836-66.2109 52.8809-68.4082 52.8809-71.2402C52.8809-74.0234 50.6836-76.2695 47.8516-76.2695C45.0684-76.2695 42.8223-74.0234 42.8223-71.2402C42.8223-68.4082 45.0684-66.2109 47.8516-66.2109ZM47.8516-4.29688C45.0684-4.29688 42.8223-2.09961 42.8223 0.732422C42.8223 3.51562 45.0684 5.76172 47.8516 5.76172C50.6836 5.76172 52.8809 3.51562 52.8809 0.732422C52.8809-2.09961 50.6836-4.29688 47.8516-4.29688ZM78.8086-35.2539C78.8086-32.4707 81.0547-30.2246 83.8379-30.2246C86.6211-30.2246 88.8672-32.4707 88.8672-35.2539C88.8672-38.0371 86.6211-40.2344 83.8379-40.2832C81.0547-40.2832 78.8086-38.0371 78.8086-35.2539Z"/>
  </g>
  <g id="Ultralight-S" transform="matrix(1 0 0 1 513.381 696)">
   <path class="monochrome-0 SFSymbolsPreview000000" d="M46.2554-10.2315C60.1826-10.2315 71.4175-21.4663 71.4175-35.3447C71.4175-49.2231 60.1758-60.5034 46.252-60.5034C32.377-60.5034 21.1455-49.2266 21.1455-35.3447C21.1455-21.4663 32.3804-10.2315 46.2554-10.2315ZM46.2554-13.3609C34.107-13.3609 24.275-23.1929 24.275-35.3447C24.275-47.4966 34.1035-57.3286 46.252-57.3286C58.4492-57.3286 68.2846-47.4931 68.2846-35.3447C68.2881-23.1963 58.4526-13.3609 46.2554-13.3609ZM75.6572-52.2309C76.3887-50.8794 78.1934-50.3672 79.4995-51.1474C80.8477-51.9243 81.2725-53.6836 80.5376-54.9898C79.7573-56.2959 78.0469-56.8047 76.6919-56.0278C75.3891-55.293 74.9224-53.5337 75.6572-52.2309ZM75.6572-18.2769C74.9224-17.0195 75.3891-15.2148 76.6919-14.48C78.0435-13.7031 79.7573-14.2119 80.5376-15.5181C81.2725-16.8242 80.8477-18.5767 79.4995-19.3604C78.1934-20.1406 76.4341-19.6284 75.6572-18.2769ZM17.0034-18.2769C16.2266-19.6284 14.4673-20.1406 13.1191-19.3604C11.813-18.5835 11.3462-16.8242 12.1265-15.4727C12.9033-14.2119 14.6138-13.7031 15.9234-14.48C17.2749-15.2148 17.7383-16.9741 17.0034-18.2769ZM63.2847-64.6035C64.5454-63.8686 66.3467-64.2866 67.127-65.6382C67.8618-66.9443 67.3496-68.7036 66.0889-69.4351C64.7407-70.2188 62.9814-69.7485 62.2012-68.4424C61.4697-67.0942 61.9785-65.3804 63.2847-64.6035ZM29.4214-5.90432C28.0733-6.63919 26.314-6.22121 25.5337-4.86964C24.7568-3.56348 25.2656-1.80419 26.6172-1.07274C27.8779-0.289047 29.6338-0.759265 30.4141-2.06543C31.1944-3.41358 30.6822-5.12746 29.4214-5.90432ZM29.376-64.5581C30.6822-65.3349 31.1944-67.0942 30.4141-68.4424C29.6372-69.7485 27.8779-70.2188 26.6172-69.4351C25.2656-68.7036 24.7602-66.9477 25.5337-65.6382C26.314-64.2866 28.0278-63.8686 29.376-64.5581ZM63.2847-5.90432C61.9785-5.17287 61.4697-3.41358 62.2012-2.06543C62.978-0.759265 64.7407-0.289047 66.0889-1.07274C67.3496-1.80419 67.8584-3.56006 67.127-4.86964C66.3467-6.22121 64.5908-6.63919 63.2847-5.90432ZM16.958-52.1855C17.7383-53.4883 17.2749-55.293 15.9234-56.0278C14.6172-56.8047 12.9033-56.2959 12.1265-55.0352C11.3462-53.6836 11.813-51.9311 13.1191-51.1474C14.4673-50.3672 16.1812-50.8794 16.958-52.1855ZM12.4478-35.2085C12.4478-36.7202 11.1553-38.0581 9.64015-38.0581C8.13184-38.0581 6.83594-36.7656 6.83594-35.2539C6.83594-33.7422 8.12843-32.4531 9.64015-32.4497C11.1553-32.4497 12.4024-33.7422 12.4478-35.2085ZM46.3076-69.1172C47.8682-69.1172 49.1118-70.4062 49.1118-71.9214C49.1118-73.4785 47.8682-74.7256 46.3076-74.7256C44.7959-74.7256 43.5034-73.4785 43.5034-71.9214C43.5034-70.4062 44.7959-69.1172 46.3076-69.1172ZM46.3076-1.39065C44.7959-1.39065 43.5034-0.101578 43.5034 1.41357C43.5034 2.97071 44.7959 4.21779 46.3076 4.21779C47.8682 4.21779 49.1118 2.97071 49.1118 1.41357C49.1118-0.101578 47.8682-1.39065 46.3076-1.39065ZM80.2617-35.2539C80.2163-33.7876 81.4634-32.4497 83.0205-32.4497C84.5322-32.4497 85.8247-33.7422 85.8247-35.2539C85.8247-36.7656 84.5322-38.0547 83.0205-38.0581C81.4634-38.0581 80.2617-36.7656 80.2617-35.2539Z"/>
  </g>
 </g>
</svg>
