<?xml version="1.0" encoding="UTF-8"?>
<!--Generator: Apple Native CoreSVG 175.5-->
<!DOCTYPE svg
PUBLIC "-//W3C//DTD SVG 1.1//EN"
       "http://www.w3.org/Graphics/SVG/1.1/DTD/svg11.dtd">
<svg version="1.1" xmlns="http://www.w3.org/2000/svg" xmlns:xlink="http://www.w3.org/1999/xlink" width="3300" height="2200">
 <!--glyph: "uni1015DF.medium", point size: 100.0, font version: "18.0d11e1", template writer version: "90"-->
 <style>.monochrome-0 {fill:#000000}

.SFSymbolsPreview000000 {fill:#000000;opacity:1.0}
</style>
 <g id="Notes">
  <rect height="2200" id="artboard" style="fill:white;opacity:1" width="3300" x="0" y="0"/>
  <line style="fill:none;stroke:black;opacity:1;stroke-width:0.5;" x1="263" x2="3036" y1="292" y2="292"/>
  <text style="stroke:none;fill:black;font-family:sans-serif;font-size:13;font-weight:bold;" transform="matrix(1 0 0 1 263 322)">Weight/Scale Variations</text>
  <text style="stroke:none;fill:black;font-family:sans-serif;font-size:13;text-anchor:middle;" transform="matrix(1 0 0 1 559.711 322)">Ultralight</text>
  <text style="stroke:none;fill:black;font-family:sans-serif;font-size:13;text-anchor:middle;" transform="matrix(1 0 0 1 856.422 322)">Thin</text>
  <text style="stroke:none;fill:black;font-family:sans-serif;font-size:13;text-anchor:middle;" transform="matrix(1 0 0 1 1153.13 322)">Light</text>
  <text style="stroke:none;fill:black;font-family:sans-serif;font-size:13;text-anchor:middle;" transform="matrix(1 0 0 1 1449.84 322)">Regular</text>
  <text style="stroke:none;fill:black;font-family:sans-serif;font-size:13;text-anchor:middle;" transform="matrix(1 0 0 1 1746.56 322)">Medium</text>
  <text style="stroke:none;fill:black;font-family:sans-serif;font-size:13;text-anchor:middle;" transform="matrix(1 0 0 1 2043.27 322)">Semibold</text>
  <text style="stroke:none;fill:black;font-family:sans-serif;font-size:13;text-anchor:middle;" transform="matrix(1 0 0 1 2339.98 322)">Bold</text>
  <text style="stroke:none;fill:black;font-family:sans-serif;font-size:13;text-anchor:middle;" transform="matrix(1 0 0 1 2636.69 322)">Heavy</text>
  <text style="stroke:none;fill:black;font-family:sans-serif;font-size:13;text-anchor:middle;" transform="matrix(1 0 0 1 2933.4 322)">Black</text>
  <line style="fill:none;stroke:black;opacity:1;stroke-width:0.5;" x1="263" x2="3036" y1="1903" y2="1903"/>
  <g transform="matrix(1 0 0 1 263 1933)">
   <path d="M9.24805 0.830078C13.5547 0.830078 17.1387-2.74414 17.1387-7.05078C17.1387-11.3574 13.5449-14.9316 9.23828-14.9316C4.94141-14.9316 1.36719-11.3574 1.36719-7.05078C1.36719-2.74414 4.95117 0.830078 9.24805 0.830078ZM9.24805-0.654297C5.70312-0.654297 2.87109-3.49609 2.87109-7.05078C2.87109-10.6055 5.69336-13.4473 9.23828-13.4473C12.793-13.4473 15.6445-10.6055 15.6445-7.05078C15.6445-3.49609 12.8027-0.654297 9.24805-0.654297ZM5.6543-7.05078C5.6543-6.62109 5.95703-6.32812 6.40625-6.32812L8.50586-6.32812L8.50586-4.20898C8.50586-3.76953 8.79883-3.4668 9.22852-3.4668C9.67773-3.4668 9.9707-3.76953 9.9707-4.20898L9.9707-6.32812L12.0898-6.32812C12.5293-6.32812 12.832-6.62109 12.832-7.05078C12.832-7.49023 12.5293-7.79297 12.0898-7.79297L9.9707-7.79297L9.9707-9.90234C9.9707-10.3516 9.67773-10.6543 9.22852-10.6543C8.79883-10.6543 8.50586-10.3516 8.50586-9.90234L8.50586-7.79297L6.40625-7.79297C5.95703-7.79297 5.6543-7.49023 5.6543-7.05078Z"/>
  </g>
  <g transform="matrix(1 0 0 1 281.867 1933)">
   <path d="M11.709 2.91016C17.1582 2.91016 21.6699-1.61133 21.6699-7.05078C21.6699-12.5 17.1484-17.0117 11.6992-17.0117C6.25977-17.0117 1.74805-12.5 1.74805-7.05078C1.74805-1.61133 6.26953 2.91016 11.709 2.91016ZM11.709 1.25C7.09961 1.25 3.41797-2.44141 3.41797-7.05078C3.41797-11.6602 7.08984-15.3516 11.6992-15.3516C16.3086-15.3516 20.0098-11.6602 20.0098-7.05078C20.0098-2.44141 16.3184 1.25 11.709 1.25ZM7.17773-7.05078C7.17773-6.57227 7.50977-6.25 8.00781-6.25L10.8789-6.25L10.8789-3.36914C10.8789-2.88086 11.2109-2.53906 11.6895-2.53906C12.1777-2.53906 12.5195-2.87109 12.5195-3.36914L12.5195-6.25L15.4004-6.25C15.8887-6.25 16.2305-6.57227 16.2305-7.05078C16.2305-7.53906 15.8887-7.88086 15.4004-7.88086L12.5195-7.88086L12.5195-10.752C12.5195-11.25 12.1777-11.5918 11.6895-11.5918C11.2109-11.5918 10.8789-11.25 10.8789-10.752L10.8789-7.88086L8.00781-7.88086C7.50977-7.88086 7.17773-7.53906 7.17773-7.05078Z"/>
  </g>
  <g transform="matrix(1 0 0 1 305.646 1933)">
   <path d="M14.9707 5.66406C21.9336 5.66406 27.6953-0.0976562 27.6953-7.05078C27.6953-14.0137 21.9238-19.7754 14.9609-19.7754C8.00781-19.7754 2.25586-14.0137 2.25586-7.05078C2.25586-0.0976562 8.01758 5.66406 14.9707 5.66406ZM14.9707 3.84766C8.93555 3.84766 4.08203-1.01562 4.08203-7.05078C4.08203-13.0957 8.92578-17.9492 14.9609-17.9492C21.0059-17.9492 25.8691-13.0957 25.8691-7.05078C25.8691-1.01562 21.0156 3.84766 14.9707 3.84766ZM9.19922-7.05078C9.19922-6.5332 9.57031-6.17188 10.1172-6.17188L14.0625-6.17188L14.0625-2.2168C14.0625-1.67969 14.4336-1.29883 14.9512-1.29883C15.4883-1.29883 15.8594-1.66992 15.8594-2.2168L15.8594-6.17188L19.8145-6.17188C20.3516-6.17188 20.7324-6.5332 20.7324-7.05078C20.7324-7.59766 20.3613-7.96875 19.8145-7.96875L15.8594-7.96875L15.8594-11.9141C15.8594-12.4609 15.4883-12.8418 14.9512-12.8418C14.4336-12.8418 14.0625-12.4609 14.0625-11.9141L14.0625-7.96875L10.1172-7.96875C9.57031-7.96875 9.19922-7.59766 9.19922-7.05078Z"/>
  </g>
  <text style="stroke:none;fill:black;font-family:sans-serif;font-size:13;font-weight:bold;" transform="matrix(1 0 0 1 263 1953)">Design Variations</text>
  <text style="stroke:none;fill:black;font-family:sans-serif;font-size:13;" transform="matrix(1 0 0 1 263 1971)">Symbols are supported in up to nine weights and three scales.</text>
  <text style="stroke:none;fill:black;font-family:sans-serif;font-size:13;" transform="matrix(1 0 0 1 263 1989)">For optimal layout with text and other symbols, vertically align</text>
  <text style="stroke:none;fill:black;font-family:sans-serif;font-size:13;" transform="matrix(1 0 0 1 263 2007)">symbols with the adjacent text.</text>
  <line style="fill:none;stroke:#00AEEF;stroke-width:0.5;opacity:1.0;" x1="776" x2="776" y1="1919" y2="1933"/>
  <g transform="matrix(1 0 0 1 776 1933)">
   <path d="M3.31055 0.15625C3.82812 0.15625 4.08203-0.0390625 4.26758-0.585938L5.52734-4.0332L11.2891-4.0332L12.5488-0.585938C12.7344-0.0390625 12.9883 0.15625 13.4961 0.15625C14.0137 0.15625 14.3457-0.15625 14.3457-0.644531C14.3457-0.810547 14.3164-0.966797 14.2383-1.17188L9.6582-13.3691C9.43359-13.9648 9.0332-14.2676 8.4082-14.2676C7.80273-14.2676 7.39258-13.9746 7.17773-13.3789L2.59766-1.16211C2.51953-0.957031 2.49023-0.800781 2.49023-0.634766C2.49023-0.146484 2.80273 0.15625 3.31055 0.15625ZM6.00586-5.51758L8.37891-12.0898L8.42773-12.0898L10.8008-5.51758Z"/>
  </g>
  <line style="fill:none;stroke:#00AEEF;stroke-width:0.5;opacity:1.0;" x1="793.197" x2="793.197" y1="1919" y2="1933"/>
  <text style="stroke:none;fill:black;font-family:sans-serif;font-size:13;font-weight:bold;" transform="matrix(1 0 0 1 776 1953)">Margins</text>
  <text style="stroke:none;fill:black;font-family:sans-serif;font-size:13;" transform="matrix(1 0 0 1 776 1971)">Leading and trailing margins on the left and right side of each symbol</text>
  <text style="stroke:none;fill:black;font-family:sans-serif;font-size:13;" transform="matrix(1 0 0 1 776 1989)">can be adjusted by modifying the x-location of the margin guidelines.</text>
  <text style="stroke:none;fill:black;font-family:sans-serif;font-size:13;" transform="matrix(1 0 0 1 776 2007)">Modifications are automatically applied proportionally to all</text>
  <text style="stroke:none;fill:black;font-family:sans-serif;font-size:13;" transform="matrix(1 0 0 1 776 2025)">scales and weights.</text>
  <g transform="matrix(1 0 0 1 1289 1933)">
   <path d="M2.8418 1.86523L4.54102 3.57422C5.40039 4.44336 6.38672 4.38477 7.31445 3.35938L18.0078-8.42773L17.041-9.4043L6.42578 2.27539C6.07422 2.67578 5.74219 2.77344 5.27344 2.30469L4.10156 1.14258C3.63281 0.683594 3.74023 0.341797 4.14062-0.0195312L15.6152-10.8203L14.6387-11.7871L3.04688-0.898438C2.06055 0.0195312 1.98242 0.996094 2.8418 1.86523ZM9.25781-16.3281C8.83789-15.918 8.80859-15.3418 9.04297-14.9512C9.27734-14.5898 9.73633-14.3555 10.3809-14.5215C11.8457-14.8633 13.3691-14.9219 14.7949-13.9844L14.209-12.5293C13.8672-11.6992 14.043-11.1133 14.5801-10.5664L16.875-8.25195C17.3633-7.76367 17.7734-7.74414 18.3398-7.8418L19.4043-8.03711L20.0684-7.36328L20.0293-6.80664C19.9902-6.30859 20.1172-5.92773 20.6055-5.44922L21.3672-4.70703C21.8457-4.22852 22.4609-4.19922 22.9297-4.66797L25.8398-7.58789C26.3086-8.05664 26.2891-8.65234 25.8105-9.13086L25.0391-9.89258C24.5605-10.3711 24.1895-10.5273 23.7109-10.4883L23.1348-10.4395L22.4902-11.0742L22.7344-12.1973C22.8613-12.7637 22.7051-13.2031 22.1191-13.7891L19.9219-15.9766C16.582-19.2969 12.1484-19.2188 9.25781-16.3281ZM10.752-15.957C13.1836-17.7344 16.4746-17.4316 18.7012-15.2051L21.1328-12.793C21.3672-12.5586 21.4062-12.373 21.3379-12.0312L21.0156-10.5469L22.5195-9.0625L23.5059-9.12109C23.7598-9.13086 23.8379-9.11133 24.0332-8.91602L24.6094-8.33984L22.168-5.89844L21.5918-6.47461C21.3965-6.66992 21.3672-6.74805 21.377-7.01172L21.4453-7.98828L19.9512-9.47266L18.4277-9.21875C18.1055-9.15039 17.959-9.17969 17.7148-9.41406L15.7129-11.416C15.459-11.6504 15.4297-11.8164 15.5859-12.1875L16.4648-14.2773C14.9023-15.7324 12.8711-16.3574 10.8398-15.7617C10.6836-15.7227 10.625-15.8496 10.752-15.957Z"/>
  </g>
  <text style="stroke:none;fill:black;font-family:sans-serif;font-size:13;font-weight:bold;" transform="matrix(1 0 0 1 1289 1953)">Exporting</text>
  <text style="stroke:none;fill:black;font-family:sans-serif;font-size:13;" transform="matrix(1 0 0 1 1289 1971)">Symbols should be outlined when exporting to ensure the</text>
  <text style="stroke:none;fill:black;font-family:sans-serif;font-size:13;" transform="matrix(1 0 0 1 1289 1989)">design is preserved when submitting to Xcode.</text>
  <text id="template-version" style="stroke:none;fill:black;font-family:sans-serif;font-size:13;text-anchor:end;" transform="matrix(1 0 0 1 3036 1933)">Template v.4.0</text>
  <text style="stroke:none;fill:black;font-family:sans-serif;font-size:13;text-anchor:end;" transform="matrix(1 0 0 1 3036 1951)">Requires Xcode 14 or greater</text>
  <text id="descriptive-name" style="stroke:none;fill:black;font-family:sans-serif;font-size:13;text-anchor:end;" transform="matrix(1 0 0 1 3036 1969)">Generated from bird</text>
  <text style="stroke:none;fill:black;font-family:sans-serif;font-size:13;text-anchor:end;" transform="matrix(1 0 0 1 3036 1987)">Typeset at 100 points</text>
  <text style="stroke:none;fill:black;font-family:sans-serif;font-size:13;" transform="matrix(1 0 0 1 263 726)">Small</text>
  <text style="stroke:none;fill:black;font-family:sans-serif;font-size:13;" transform="matrix(1 0 0 1 263 1156)">Medium</text>
  <text style="stroke:none;fill:black;font-family:sans-serif;font-size:13;" transform="matrix(1 0 0 1 263 1586)">Large</text>
 </g>
 <g id="Guides">
  <g id="H-reference" style="fill:#27AAE1;stroke:none;" transform="matrix(1 0 0 1 339 696)">
   <path d="M0.993654 0L3.63775 0L29.3281-67.1323L30.0303-67.1323L30.0303-70.459L28.1226-70.459ZM11.6885-24.4799L46.9815-24.4799L46.2315-26.7285L12.4385-26.7285ZM55.1196 0L57.7637 0L30.6382-70.459L29.4326-70.459L29.4326-67.1323Z"/>
  </g>
  <line id="Baseline-S" style="fill:none;stroke:#27AAE1;opacity:1;stroke-width:0.5;" x1="263" x2="3036" y1="696" y2="696"/>
  <line id="Capline-S" style="fill:none;stroke:#27AAE1;opacity:1;stroke-width:0.5;" x1="263" x2="3036" y1="625.541" y2="625.541"/>
  <g id="H-reference" style="fill:#27AAE1;stroke:none;" transform="matrix(1 0 0 1 339 1126)">
   <path d="M0.993654 0L3.63775 0L29.3281-67.1323L30.0303-67.1323L30.0303-70.459L28.1226-70.459ZM11.6885-24.4799L46.9815-24.4799L46.2315-26.7285L12.4385-26.7285ZM55.1196 0L57.7637 0L30.6382-70.459L29.4326-70.459L29.4326-67.1323Z"/>
  </g>
  <line id="Baseline-M" style="fill:none;stroke:#27AAE1;opacity:1;stroke-width:0.5;" x1="263" x2="3036" y1="1126" y2="1126"/>
  <line id="Capline-M" style="fill:none;stroke:#27AAE1;opacity:1;stroke-width:0.5;" x1="263" x2="3036" y1="1055.54" y2="1055.54"/>
  <g id="H-reference" style="fill:#27AAE1;stroke:none;" transform="matrix(1 0 0 1 339 1556)">
   <path d="M0.993654 0L3.63775 0L29.3281-67.1323L30.0303-67.1323L30.0303-70.459L28.1226-70.459ZM11.6885-24.4799L46.9815-24.4799L46.2315-26.7285L12.4385-26.7285ZM55.1196 0L57.7637 0L30.6382-70.459L29.4326-70.459L29.4326-67.1323Z"/>
  </g>
  <line id="Baseline-L" style="fill:none;stroke:#27AAE1;opacity:1;stroke-width:0.5;" x1="263" x2="3036" y1="1556" y2="1556"/>
  <line id="Capline-L" style="fill:none;stroke:#27AAE1;opacity:1;stroke-width:0.5;" x1="263" x2="3036" y1="1485.54" y2="1485.54"/>
  <line id="left-margin-Ultralight-S" style="fill:none;stroke:#00AEEF;stroke-width:0.5;opacity:1.0;" x1="508.151" x2="508.151" y1="600.785" y2="720.121"/>
  <line id="right-margin-Ultralight-S" style="fill:none;stroke:#00AEEF;stroke-width:0.5;opacity:1.0;" x1="611.271" x2="611.271" y1="600.785" y2="720.121"/>
  <line id="left-margin-Regular-S" style="fill:none;stroke:#00AEEF;stroke-width:0.5;opacity:1.0;" x1="1394.42" x2="1394.42" y1="600.785" y2="720.121"/>
  <line id="right-margin-Regular-S" style="fill:none;stroke:#00AEEF;stroke-width:0.5;opacity:1.0;" x1="1505.26" x2="1505.26" y1="600.785" y2="720.121"/>
  <line id="left-margin-Black-S" style="fill:none;stroke:#00AEEF;stroke-width:0.5;opacity:1.0;" x1="2872.8" x2="2872.8" y1="600.785" y2="720.121"/>
  <line id="right-margin-Black-S" style="fill:none;stroke:#00AEEF;stroke-width:0.5;opacity:1.0;" x1="2994" x2="2994" y1="600.785" y2="720.121"/>
 </g>
 <g id="Symbols">
  <g id="Black-S" transform="matrix(1 0 0 1 2872.8 696)">
   <path class="monochrome-0 SFSymbolsPreview000000" d="M81.543-65.7715C75.3906-65.7715 70.5566-62.6465 66.8457-55.5176C53.9062-67.4805 35.498-77.3438 17.1875-78.7598C10.791-79.1504 9.96094-73.7793 9.81445-70.9473C8.59375-50.2441 23.9746-31.4453 43.8477-27.7832C37.9883-16.8945 29.248-8.49609 19.4824-1.2207C16.5039 0.976562 17.8223 4.63867 19.0918 6.64062C25.0977 16.1133 44.4336 23.3887 55.6152 19.4824C59.4238 18.1641 59.9609 15.625 59.9609 13.3789L59.9609 0.878906C71.4355-0.683594 88.4277-10.2051 86.1816-33.6426L86.084-34.668C94.3359-37.3047 100.195-43.2129 100.195-49.7559C100.195-57.666 91.6504-65.7715 81.543-65.7715ZM81.9824-56.0547C86.8652-56.0547 90.8691-52.5879 90.8691-49.7559C90.8691-47.3633 87.9883-44.4336 79.4922-43.2129C76.8066-42.8223 75.4883-41.1621 75.6836-38.7695L76.0742-33.3496C77.5391-13.2324 62.3047-10.1562 53.4668-9.375C51.0742-9.17969 49.6582-7.37305 49.6582-5.37109L49.6582 9.91211C49.6582 10.791 49.5117 11.1816 48.3398 11.2793C44.4824 11.5234 32.666 7.27539 30.0293 3.61328C29.4922 2.88086 29.5898 2.44141 29.9316 2.19727C40.1855-5.27344 50.1953-16.3086 56.1035-30.3711C57.5684-33.6914 55.7129-36.5723 52.5879-36.5723C34.9121-36.5723 21.6309-49.4141 20.166-67.1387C20.1172-67.9199 20.5078-68.0664 21.1426-67.9199C36.9141-65.2344 51.3672-56.2012 60.7422-47.4121C63.1836-45.1172 64.7461-44.2383 66.9922-44.2383C70.6543-44.2383 72.5586-45.8984 74.4141-49.7559C76.123-53.3203 77.832-56.0547 81.9824-56.0547ZM72.8027-56.3965L82.4219-59.8145C76.4648-74.4629 67.8711-84.6191 56.4453-91.3086C51.8066-93.9453 47.0703-92.1875 45.7031-86.8164C43.6035-78.5645 42.6758-71.0938 43.9941-63.0859L55.6641-57.4707C53.2227-65.3809 53.0762-71.6797 54.4434-79.0527C54.5898-79.834 55.0293-80.0293 55.6641-79.541C62.8418-74.2188 68.2617-66.9922 72.8027-56.3965ZM90.0391-42.1875L107.275-39.6484C111.377-39.0625 113.184-44.7266 109.082-46.4844L93.5059-53.125ZM84.375-48.1934C85.791-48.1934 87.0117-49.3652 87.0117-50.8301C87.0117-52.2461 85.791-53.5156 84.375-53.5156C82.9102-53.5156 81.6895-52.2461 81.6895-50.8301C81.6895-49.3652 82.9102-48.1934 84.375-48.1934Z"/>
  </g>
  <g id="Regular-S" transform="matrix(1 0 0 1 1394.42 696)">
   <path class="monochrome-0 SFSymbolsPreview000000" d="M74.4141-61.9629C68.457-61.9629 63.9648-58.4961 61.1328-51.6113C49.5605-62.9883 32.1777-72.6562 14.8926-73.9746C10.5469-74.2676 9.91211-70.8008 9.81445-68.3594C8.69141-49.2188 23.4863-32.0801 42.2363-29.7852C37.1094-18.6035 30.7617-8.39844 21.4355 0.439453C19.7266 2.00195 20.3125 4.19922 21.2402 5.71289C25.8789 12.793 40.2832 16.9922 49.9512 13.623C52.5391 12.7441 52.8809 11.2793 52.8809 9.52148L52.8809-4.44336C63.0371-5.12695 79.6387-12.207 77.1484-33.6914L76.9043-36.0352C84.668-38.0371 90.0391-43.2617 90.0391-48.7305C90.0391-55.127 82.9102-61.9629 74.4141-61.9629ZM74.8535-55.7129C79.9805-55.7129 83.7891-52.0508 83.7891-48.7305C83.7891-45.8008 80.0293-42.5293 72.7539-41.5527C71.4844-41.4551 70.5078-40.5273 70.6055-39.3555L70.9961-33.6914C72.3145-13.8184 57.0801-11.5234 48.6816-10.8887C47.5098-10.791 46.582-10.0098 46.582-8.69141L46.582 8.10547C46.582 8.54492 46.4355 8.88672 45.9473 8.93555C38.6719 9.96094 31.2988 7.37305 27.4414 3.80859C27.1484 3.51562 27.0508 3.07617 27.3438 2.7832C37.6465-7.17773 44.2383-18.75 49.6094-31.543C50.4395-33.4473 49.6582-35.0586 47.7051-35.1074C30.0293-35.4004 16.5527-48.7793 16.0645-66.7969C16.0645-67.4316 16.2109-67.5781 16.8457-67.4805C32.5684-65.4297 47.4121-56.543 56.25-47.6562C58.0566-45.8496 59.2773-44.9707 61.0352-44.9707C63.8672-44.9707 65.1855-46.3379 66.6504-49.3164C68.4082-53.0273 70.166-55.7129 74.8535-55.7129ZM67.2363-56.8359L73.1445-58.8867C67.7734-71.3867 60.3516-79.9805 50.3906-85.7422C47.1191-87.6465 43.7988-86.2305 42.9199-82.666C41.0156-75.4883 40.2344-68.9941 41.2109-62.0605L48.0957-58.7891C46.5332-65.5273 46.7773-71.4355 48.291-78.125C48.3887-78.8574 49.2188-79.1504 49.8047-78.7598C57.2266-73.7793 62.8418-66.8457 67.2363-56.8359ZM83.2031-42.334L98.1445-40.1367C100.928-39.7461 102.344-43.9453 99.4629-45.2148L85.9375-50.9766ZM77.0996-47.4121C78.418-47.4121 79.541-48.4375 79.541-49.8047C79.541-51.123 78.418-52.2949 77.0996-52.2949C75.7324-52.2949 74.6582-51.123 74.6582-49.8047C74.6582-48.4375 75.7324-47.4121 77.0996-47.4121Z"/>
  </g>
  <g id="Ultralight-S" transform="matrix(1 0 0 1 508.151 696)">
   <path class="monochrome-0 SFSymbolsPreview000000" d="M70.9175-59.5108C66.3682-59.5108 62.5117-57.8149 57.8633-48.7051C49.1064-58.8106 30.9971-69.8863 12.5313-71.25C10.7739-71.3614 9.95752-70.4375 9.85986-68.8589C8.41895-49.7183 23.7134-34.9863 44.4614-33.3271C39.5615-21.8276 30.7617-8.76172 20.8452 0.621092C19.9536 1.41163 19.9038 2.42824 20.6499 3.62404C24.7437 9.97756 37.604 13.6773 46.4546 10.626C47.4986 10.2466 48.0674 9.82618 48.0674 8.34083L48.0674-7.03172C59.6768-7.03416 76.0059-13.0698 72.1988-33.1465L71.3189-37.5337C79.355-39.1724 84.3174-43.625 84.3174-47.5498C84.3174-53.0381 78.5054-59.5108 70.9175-59.5108ZM70.9483-57.3476C77.6192-57.3476 82.1543-52.0962 82.1543-47.5498C82.1543-44.4385 78.0313-40.8491 70.0293-39.4639C69.4409-39.3662 69.0093-38.8926 69.1069-38.3565L70.1333-32.4653C73.2681-13.6821 58.1245-8.79885 47.0015-9.20851C46.3291-9.24708 45.9009-8.7837 45.9009-8.1919L45.9009 8.15088C45.9009 8.40869 45.8452 8.56885 45.5386 8.66309C37.4458 11.4141 26.2129 8.0996 22.4917 2.4463C22.335 2.19874 22.3282 2.12257 22.5303 1.92042C32.8785-7.81347 42.1494-21.7925 46.9302-33.541C47.3516-34.5825 46.979-35.2856 45.8433-35.3345C25.3521-36.6265 10.9219-50.0508 12.023-68.6133C12.0684-68.9756 12.1241-69.0766 12.5318-69.0244C30.7066-67.5185 47.8662-56.9517 56.25-47.2476C56.7852-46.5762 57.4155-46.333 58.0381-46.333C58.7359-46.333 59.3277-46.7012 59.7481-47.5C64.0489-56.0698 66.8057-57.3476 70.9483-57.3476ZM65.5562-57.7895L67.6045-58.4326C62.5059-69.9336 55.7652-77.8462 45.8951-83.3355C44.3037-84.1953 42.8906-83.6875 42.375-82.1211C40.2891-76.124 39.5532-68.54 40.3482-61.4248L42.5557-60.6055C41.7652-68.3882 42.3726-75.5224 44.3404-81.122C44.438-81.4912 44.6324-81.5571 44.9912-81.3481C54.3203-76.0952 60.6621-68.8437 65.5562-57.7895ZM82.2495-43.2876L91.8326-42.1347C93.4351-41.9258 93.9883-44.1724 92.379-44.8516L83.8032-48.252ZM74.4658-47.9116C75.5572-47.9116 76.4531-48.8008 76.4531-49.8955C76.4531-50.9868 75.5572-51.8862 74.4658-51.8862C73.3711-51.8862 72.4785-50.9868 72.4785-49.8955C72.4785-48.8008 73.3711-47.9116 74.4658-47.9116Z"/>
  </g>
 </g>
</svg>
