<?xml version="1.0" encoding="UTF-8"?>
<!--Generator: Apple Native CoreSVG 175.5-->
<!DOCTYPE svg
PUBLIC "-//W3C//DTD SVG 1.1//EN"
       "http://www.w3.org/Graphics/SVG/1.1/DTD/svg11.dtd">
<svg version="1.1" xmlns="http://www.w3.org/2000/svg" xmlns:xlink="http://www.w3.org/1999/xlink" width="3300" height="2200">
 <!--glyph: "uni101384.medium", point size: 100.0, font version: "18.0d11e1", template writer version: "90"-->
 <style>.monochrome-0 {fill:#000000;-sfsymbols-variable-threshold:0.0}
.monochrome-1 {fill:#000000;-sfsymbols-variable-threshold:0.34}
.monochrome-2 {fill:#000000;-sfsymbols-variable-threshold:0.68}

.multicolor-0:tintColor {fill:#007AFF;-sfsymbols-variable-threshold:0.0}
.multicolor-1:tintColor {fill:#007AFF;-sfsymbols-variable-threshold:0.34}
.multicolor-2:tintColor {fill:#007AFF;-sfsymbols-variable-threshold:0.68}

.hierarchical-0:primary {fill:#212121;-sfsymbols-variable-threshold:0.0}
.hierarchical-1:primary {fill:#212121;-sfsymbols-variable-threshold:0.34}
.hierarchical-2:primary {fill:#212121;-sfsymbols-variable-threshold:0.68}

.SFSymbolsPreview007AFF {fill:#007AFF;opacity:1.0}
</style>
 <g id="Notes">
  <rect height="2200" id="artboard" style="fill:white;opacity:1" width="3300" x="0" y="0"/>
  <line style="fill:none;stroke:black;opacity:1;stroke-width:0.5;" x1="263" x2="3036" y1="292" y2="292"/>
  <text style="stroke:none;fill:black;font-family:sans-serif;font-size:13;font-weight:bold;" transform="matrix(1 0 0 1 263 322)">Weight/Scale Variations</text>
  <text style="stroke:none;fill:black;font-family:sans-serif;font-size:13;text-anchor:middle;" transform="matrix(1 0 0 1 559.711 322)">Ultralight</text>
  <text style="stroke:none;fill:black;font-family:sans-serif;font-size:13;text-anchor:middle;" transform="matrix(1 0 0 1 856.422 322)">Thin</text>
  <text style="stroke:none;fill:black;font-family:sans-serif;font-size:13;text-anchor:middle;" transform="matrix(1 0 0 1 1153.13 322)">Light</text>
  <text style="stroke:none;fill:black;font-family:sans-serif;font-size:13;text-anchor:middle;" transform="matrix(1 0 0 1 1449.84 322)">Regular</text>
  <text style="stroke:none;fill:black;font-family:sans-serif;font-size:13;text-anchor:middle;" transform="matrix(1 0 0 1 1746.56 322)">Medium</text>
  <text style="stroke:none;fill:black;font-family:sans-serif;font-size:13;text-anchor:middle;" transform="matrix(1 0 0 1 2043.27 322)">Semibold</text>
  <text style="stroke:none;fill:black;font-family:sans-serif;font-size:13;text-anchor:middle;" transform="matrix(1 0 0 1 2339.98 322)">Bold</text>
  <text style="stroke:none;fill:black;font-family:sans-serif;font-size:13;text-anchor:middle;" transform="matrix(1 0 0 1 2636.69 322)">Heavy</text>
  <text style="stroke:none;fill:black;font-family:sans-serif;font-size:13;text-anchor:middle;" transform="matrix(1 0 0 1 2933.4 322)">Black</text>
  <line style="fill:none;stroke:black;opacity:1;stroke-width:0.5;" x1="263" x2="3036" y1="1903" y2="1903"/>
  <g transform="matrix(1 0 0 1 263 1933)">
   <path d="M9.24805 0.830078C13.5547 0.830078 17.1387-2.74414 17.1387-7.05078C17.1387-11.3574 13.5449-14.9316 9.23828-14.9316C4.94141-14.9316 1.36719-11.3574 1.36719-7.05078C1.36719-2.74414 4.95117 0.830078 9.24805 0.830078ZM9.24805-0.654297C5.70312-0.654297 2.87109-3.49609 2.87109-7.05078C2.87109-10.6055 5.69336-13.4473 9.23828-13.4473C12.793-13.4473 15.6445-10.6055 15.6445-7.05078C15.6445-3.49609 12.8027-0.654297 9.24805-0.654297ZM5.6543-7.05078C5.6543-6.62109 5.95703-6.32812 6.40625-6.32812L8.50586-6.32812L8.50586-4.20898C8.50586-3.76953 8.79883-3.4668 9.22852-3.4668C9.67773-3.4668 9.9707-3.76953 9.9707-4.20898L9.9707-6.32812L12.0898-6.32812C12.5293-6.32812 12.832-6.62109 12.832-7.05078C12.832-7.49023 12.5293-7.79297 12.0898-7.79297L9.9707-7.79297L9.9707-9.90234C9.9707-10.3516 9.67773-10.6543 9.22852-10.6543C8.79883-10.6543 8.50586-10.3516 8.50586-9.90234L8.50586-7.79297L6.40625-7.79297C5.95703-7.79297 5.6543-7.49023 5.6543-7.05078Z"/>
  </g>
  <g transform="matrix(1 0 0 1 281.867 1933)">
   <path d="M11.709 2.91016C17.1582 2.91016 21.6699-1.61133 21.6699-7.05078C21.6699-12.5 17.1484-17.0117 11.6992-17.0117C6.25977-17.0117 1.74805-12.5 1.74805-7.05078C1.74805-1.61133 6.26953 2.91016 11.709 2.91016ZM11.709 1.25C7.09961 1.25 3.41797-2.44141 3.41797-7.05078C3.41797-11.6602 7.08984-15.3516 11.6992-15.3516C16.3086-15.3516 20.0098-11.6602 20.0098-7.05078C20.0098-2.44141 16.3184 1.25 11.709 1.25ZM7.17773-7.05078C7.17773-6.57227 7.50977-6.25 8.00781-6.25L10.8789-6.25L10.8789-3.36914C10.8789-2.88086 11.2109-2.53906 11.6895-2.53906C12.1777-2.53906 12.5195-2.87109 12.5195-3.36914L12.5195-6.25L15.4004-6.25C15.8887-6.25 16.2305-6.57227 16.2305-7.05078C16.2305-7.53906 15.8887-7.88086 15.4004-7.88086L12.5195-7.88086L12.5195-10.752C12.5195-11.25 12.1777-11.5918 11.6895-11.5918C11.2109-11.5918 10.8789-11.25 10.8789-10.752L10.8789-7.88086L8.00781-7.88086C7.50977-7.88086 7.17773-7.53906 7.17773-7.05078Z"/>
  </g>
  <g transform="matrix(1 0 0 1 305.646 1933)">
   <path d="M14.9707 5.66406C21.9336 5.66406 27.6953-0.0976562 27.6953-7.05078C27.6953-14.0137 21.9238-19.7754 14.9609-19.7754C8.00781-19.7754 2.25586-14.0137 2.25586-7.05078C2.25586-0.0976562 8.01758 5.66406 14.9707 5.66406ZM14.9707 3.84766C8.93555 3.84766 4.08203-1.01562 4.08203-7.05078C4.08203-13.0957 8.92578-17.9492 14.9609-17.9492C21.0059-17.9492 25.8691-13.0957 25.8691-7.05078C25.8691-1.01562 21.0156 3.84766 14.9707 3.84766ZM9.19922-7.05078C9.19922-6.5332 9.57031-6.17188 10.1172-6.17188L14.0625-6.17188L14.0625-2.2168C14.0625-1.67969 14.4336-1.29883 14.9512-1.29883C15.4883-1.29883 15.8594-1.66992 15.8594-2.2168L15.8594-6.17188L19.8145-6.17188C20.3516-6.17188 20.7324-6.5332 20.7324-7.05078C20.7324-7.59766 20.3613-7.96875 19.8145-7.96875L15.8594-7.96875L15.8594-11.9141C15.8594-12.4609 15.4883-12.8418 14.9512-12.8418C14.4336-12.8418 14.0625-12.4609 14.0625-11.9141L14.0625-7.96875L10.1172-7.96875C9.57031-7.96875 9.19922-7.59766 9.19922-7.05078Z"/>
  </g>
  <text style="stroke:none;fill:black;font-family:sans-serif;font-size:13;font-weight:bold;" transform="matrix(1 0 0 1 263 1953)">Design Variations</text>
  <text style="stroke:none;fill:black;font-family:sans-serif;font-size:13;" transform="matrix(1 0 0 1 263 1971)">Symbols are supported in up to nine weights and three scales.</text>
  <text style="stroke:none;fill:black;font-family:sans-serif;font-size:13;" transform="matrix(1 0 0 1 263 1989)">For optimal layout with text and other symbols, vertically align</text>
  <text style="stroke:none;fill:black;font-family:sans-serif;font-size:13;" transform="matrix(1 0 0 1 263 2007)">symbols with the adjacent text.</text>
  <line style="fill:none;stroke:#00AEEF;stroke-width:0.5;opacity:1.0;" x1="776" x2="776" y1="1919" y2="1933"/>
  <g transform="matrix(1 0 0 1 776 1933)">
   <path d="M3.31055 0.15625C3.82812 0.15625 4.08203-0.0390625 4.26758-0.585938L5.52734-4.0332L11.2891-4.0332L12.5488-0.585938C12.7344-0.0390625 12.9883 0.15625 13.4961 0.15625C14.0137 0.15625 14.3457-0.15625 14.3457-0.644531C14.3457-0.810547 14.3164-0.966797 14.2383-1.17188L9.6582-13.3691C9.43359-13.9648 9.0332-14.2676 8.4082-14.2676C7.80273-14.2676 7.39258-13.9746 7.17773-13.3789L2.59766-1.16211C2.51953-0.957031 2.49023-0.800781 2.49023-0.634766C2.49023-0.146484 2.80273 0.15625 3.31055 0.15625ZM6.00586-5.51758L8.37891-12.0898L8.42773-12.0898L10.8008-5.51758Z"/>
  </g>
  <line style="fill:none;stroke:#00AEEF;stroke-width:0.5;opacity:1.0;" x1="793.197" x2="793.197" y1="1919" y2="1933"/>
  <text style="stroke:none;fill:black;font-family:sans-serif;font-size:13;font-weight:bold;" transform="matrix(1 0 0 1 776 1953)">Margins</text>
  <text style="stroke:none;fill:black;font-family:sans-serif;font-size:13;" transform="matrix(1 0 0 1 776 1971)">Leading and trailing margins on the left and right side of each symbol</text>
  <text style="stroke:none;fill:black;font-family:sans-serif;font-size:13;" transform="matrix(1 0 0 1 776 1989)">can be adjusted by modifying the x-location of the margin guidelines.</text>
  <text style="stroke:none;fill:black;font-family:sans-serif;font-size:13;" transform="matrix(1 0 0 1 776 2007)">Modifications are automatically applied proportionally to all</text>
  <text style="stroke:none;fill:black;font-family:sans-serif;font-size:13;" transform="matrix(1 0 0 1 776 2025)">scales and weights.</text>
  <g transform="matrix(1 0 0 1 1289 1933)">
   <path d="M2.8418 1.86523L4.54102 3.57422C5.40039 4.44336 6.38672 4.38477 7.31445 3.35938L18.0078-8.42773L17.041-9.4043L6.42578 2.27539C6.07422 2.67578 5.74219 2.77344 5.27344 2.30469L4.10156 1.14258C3.63281 0.683594 3.74023 0.341797 4.14062-0.0195312L15.6152-10.8203L14.6387-11.7871L3.04688-0.898438C2.06055 0.0195312 1.98242 0.996094 2.8418 1.86523ZM9.25781-16.3281C8.83789-15.918 8.80859-15.3418 9.04297-14.9512C9.27734-14.5898 9.73633-14.3555 10.3809-14.5215C11.8457-14.8633 13.3691-14.9219 14.7949-13.9844L14.209-12.5293C13.8672-11.6992 14.043-11.1133 14.5801-10.5664L16.875-8.25195C17.3633-7.76367 17.7734-7.74414 18.3398-7.8418L19.4043-8.03711L20.0684-7.36328L20.0293-6.80664C19.9902-6.30859 20.1172-5.92773 20.6055-5.44922L21.3672-4.70703C21.8457-4.22852 22.4609-4.19922 22.9297-4.66797L25.8398-7.58789C26.3086-8.05664 26.2891-8.65234 25.8105-9.13086L25.0391-9.89258C24.5605-10.3711 24.1895-10.5273 23.7109-10.4883L23.1348-10.4395L22.4902-11.0742L22.7344-12.1973C22.8613-12.7637 22.7051-13.2031 22.1191-13.7891L19.9219-15.9766C16.582-19.2969 12.1484-19.2188 9.25781-16.3281ZM10.752-15.957C13.1836-17.7344 16.4746-17.4316 18.7012-15.2051L21.1328-12.793C21.3672-12.5586 21.4062-12.373 21.3379-12.0312L21.0156-10.5469L22.5195-9.0625L23.5059-9.12109C23.7598-9.13086 23.8379-9.11133 24.0332-8.91602L24.6094-8.33984L22.168-5.89844L21.5918-6.47461C21.3965-6.66992 21.3672-6.74805 21.377-7.01172L21.4453-7.98828L19.9512-9.47266L18.4277-9.21875C18.1055-9.15039 17.959-9.17969 17.7148-9.41406L15.7129-11.416C15.459-11.6504 15.4297-11.8164 15.5859-12.1875L16.4648-14.2773C14.9023-15.7324 12.8711-16.3574 10.8398-15.7617C10.6836-15.7227 10.625-15.8496 10.752-15.957Z"/>
  </g>
  <text style="stroke:none;fill:black;font-family:sans-serif;font-size:13;font-weight:bold;" transform="matrix(1 0 0 1 1289 1953)">Exporting</text>
  <text style="stroke:none;fill:black;font-family:sans-serif;font-size:13;" transform="matrix(1 0 0 1 1289 1971)">Symbols should be outlined when exporting to ensure the</text>
  <text style="stroke:none;fill:black;font-family:sans-serif;font-size:13;" transform="matrix(1 0 0 1 1289 1989)">design is preserved when submitting to Xcode.</text>
  <text id="template-version" style="stroke:none;fill:black;font-family:sans-serif;font-size:13;text-anchor:end;" transform="matrix(1 0 0 1 3036 1933)">Template v.4.0</text>
  <text style="stroke:none;fill:black;font-family:sans-serif;font-size:13;text-anchor:end;" transform="matrix(1 0 0 1 3036 1951)">Requires Xcode 14 or greater</text>
  <text id="descriptive-name" style="stroke:none;fill:black;font-family:sans-serif;font-size:13;text-anchor:end;" transform="matrix(1 0 0 1 3036 1969)">Generated from water.waves</text>
  <text style="stroke:none;fill:black;font-family:sans-serif;font-size:13;text-anchor:end;" transform="matrix(1 0 0 1 3036 1987)">Typeset at 100 points</text>
  <text style="stroke:none;fill:black;font-family:sans-serif;font-size:13;" transform="matrix(1 0 0 1 263 726)">Small</text>
  <text style="stroke:none;fill:black;font-family:sans-serif;font-size:13;" transform="matrix(1 0 0 1 263 1156)">Medium</text>
  <text style="stroke:none;fill:black;font-family:sans-serif;font-size:13;" transform="matrix(1 0 0 1 263 1586)">Large</text>
 </g>
 <g id="Guides">
  <g id="H-reference" style="fill:#27AAE1;stroke:none;" transform="matrix(1 0 0 1 339 696)">
   <path d="M0.993654 0L3.63775 0L29.3281-67.1323L30.0303-67.1323L30.0303-70.459L28.1226-70.459ZM11.6885-24.4799L46.9815-24.4799L46.2315-26.7285L12.4385-26.7285ZM55.1196 0L57.7637 0L30.6382-70.459L29.4326-70.459L29.4326-67.1323Z"/>
  </g>
  <line id="Baseline-S" style="fill:none;stroke:#27AAE1;opacity:1;stroke-width:0.5;" x1="263" x2="3036" y1="696" y2="696"/>
  <line id="Capline-S" style="fill:none;stroke:#27AAE1;opacity:1;stroke-width:0.5;" x1="263" x2="3036" y1="625.541" y2="625.541"/>
  <g id="H-reference" style="fill:#27AAE1;stroke:none;" transform="matrix(1 0 0 1 339 1126)">
   <path d="M0.993654 0L3.63775 0L29.3281-67.1323L30.0303-67.1323L30.0303-70.459L28.1226-70.459ZM11.6885-24.4799L46.9815-24.4799L46.2315-26.7285L12.4385-26.7285ZM55.1196 0L57.7637 0L30.6382-70.459L29.4326-70.459L29.4326-67.1323Z"/>
  </g>
  <line id="Baseline-M" style="fill:none;stroke:#27AAE1;opacity:1;stroke-width:0.5;" x1="263" x2="3036" y1="1126" y2="1126"/>
  <line id="Capline-M" style="fill:none;stroke:#27AAE1;opacity:1;stroke-width:0.5;" x1="263" x2="3036" y1="1055.54" y2="1055.54"/>
  <g id="H-reference" style="fill:#27AAE1;stroke:none;" transform="matrix(1 0 0 1 339 1556)">
   <path d="M0.993654 0L3.63775 0L29.3281-67.1323L30.0303-67.1323L30.0303-70.459L28.1226-70.459ZM11.6885-24.4799L46.9815-24.4799L46.2315-26.7285L12.4385-26.7285ZM55.1196 0L57.7637 0L30.6382-70.459L29.4326-70.459L29.4326-67.1323Z"/>
  </g>
  <line id="Baseline-L" style="fill:none;stroke:#27AAE1;opacity:1;stroke-width:0.5;" x1="263" x2="3036" y1="1556" y2="1556"/>
  <line id="Capline-L" style="fill:none;stroke:#27AAE1;opacity:1;stroke-width:0.5;" x1="263" x2="3036" y1="1485.54" y2="1485.54"/>
  <line id="left-margin-Ultralight-S" style="fill:none;stroke:#00AEEF;stroke-width:0.5;opacity:1.0;" x1="511.369" x2="511.369" y1="600.785" y2="720.121"/>
  <line id="right-margin-Ultralight-S" style="fill:none;stroke:#00AEEF;stroke-width:0.5;opacity:1.0;" x1="608.053" x2="608.053" y1="600.785" y2="720.121"/>
  <line id="left-margin-Regular-S" style="fill:none;stroke:#00AEEF;stroke-width:0.5;opacity:1.0;" x1="1399.53" x2="1399.53" y1="600.785" y2="720.121"/>
  <line id="right-margin-Regular-S" style="fill:none;stroke:#00AEEF;stroke-width:0.5;opacity:1.0;" x1="1500.16" x2="1500.16" y1="600.785" y2="720.121"/>
  <line id="left-margin-Black-S" style="fill:none;stroke:#00AEEF;stroke-width:0.5;opacity:1.0;" x1="2879.35" x2="2879.35" y1="600.785" y2="720.121"/>
  <line id="right-margin-Black-S" style="fill:none;stroke:#00AEEF;stroke-width:0.5;opacity:1.0;" x1="2987.45" x2="2987.45" y1="600.785" y2="720.121"/>
 </g>
 <g id="Symbols">
  <g id="Black-S" transform="matrix(1 0 0 1 2879.35 696)">
   <path class="monochrome-0 multicolor-0:tintColor hierarchical-0:primary SFSymbolsPreview007AFF" d="M54.0527-2.97852C66.5039-2.97852 67.7246-11.084 72.9492-11.084C78.1738-11.084 79.0039-2.97852 92.6758-2.97852L93.0664-2.97852C95.9961-2.97852 98.3398-5.32227 98.3398-8.25195C98.3398-11.1328 95.9961-13.4766 93.0664-13.4766L92.6758-13.4766C90.1855-13.4766 88.1836-14.3555 84.5703-16.9434C81.9824-18.8477 78.1738-21.582 72.9492-21.582C67.7246-21.582 63.916-18.8477 61.3281-16.9434C58.5449-14.8926 56.7871-13.4766 54.0527-13.4766C51.3184-13.4766 49.5605-14.8926 46.7773-16.9434C44.1895-18.8477 40.3809-21.582 35.1562-21.582C29.9316-21.582 26.123-18.8477 23.5352-16.9434C19.9219-14.3555 17.9199-13.4766 15.4297-13.4766L15.0391-13.4766C12.1094-13.4766 9.76562-11.1328 9.76562-8.25195C9.76562-5.32227 12.1094-2.97852 15.0391-2.97852L15.4297-2.97852C29.1016-2.97852 29.9316-11.084 35.1562-11.084C40.3809-11.084 41.6016-2.97852 54.0527-2.97852Z"/>
   <path class="monochrome-1 multicolor-1:tintColor hierarchical-1:primary SFSymbolsPreview007AFF" d="M54.0527-25.9277C66.5039-25.9277 67.7246-34.0332 72.9492-34.0332C78.1738-34.0332 79.0039-25.9277 92.6758-25.9277L93.0664-25.9277C95.9961-25.9277 98.3398-28.2715 98.3398-31.2012C98.3398-34.082 95.9961-36.4258 93.0664-36.4258L92.6758-36.4258C90.1855-36.4258 88.1836-37.3047 84.5703-39.8926C81.9824-41.7969 78.1738-44.5312 72.9492-44.5312C67.7246-44.5312 63.916-41.7969 61.3281-39.8926C58.5449-37.8418 56.7871-36.4258 54.0527-36.4258C51.3184-36.4258 49.5605-37.8418 46.7773-39.8926C44.1895-41.7969 40.3809-44.5312 35.1562-44.5312C29.9316-44.5312 26.123-41.7969 23.5352-39.8926C19.9219-37.3047 17.9199-36.4258 15.4297-36.4258L15.0391-36.4258C12.1094-36.4258 9.76562-34.082 9.76562-31.2012C9.76562-28.2715 12.1094-25.9277 15.0391-25.9277L15.4297-25.9277C29.1016-25.9277 29.9316-34.0332 35.1562-34.0332C40.3809-34.0332 41.6016-25.9277 54.0527-25.9277Z"/>
   <path class="monochrome-2 multicolor-2:tintColor hierarchical-2:primary SFSymbolsPreview007AFF" d="M54.0527-48.877C66.5039-48.877 67.7246-56.9824 72.9492-56.9824C78.1738-56.9824 79.0039-48.877 92.6758-48.877L93.0664-48.877C95.9961-48.877 98.3398-51.2207 98.3398-54.1504C98.3398-57.0312 95.9961-59.375 93.0664-59.375L92.6758-59.375C90.1855-59.375 88.1836-60.2539 84.5703-62.8418C81.9824-64.7461 78.1738-67.4805 72.9492-67.4805C67.7246-67.4805 63.916-64.7461 61.3281-62.8418C58.5449-60.791 56.7871-59.375 54.0527-59.375C51.3184-59.375 49.5605-60.791 46.7773-62.8418C44.1895-64.7461 40.3809-67.4805 35.1562-67.4805C29.9316-67.4805 26.123-64.7461 23.5352-62.8418C19.9219-60.2539 17.9199-59.375 15.4297-59.375L15.0391-59.375C12.1094-59.375 9.76562-57.0312 9.76562-54.1504C9.76562-51.2207 12.1094-48.877 15.0391-48.877L15.4297-48.877C29.1016-48.877 29.9316-56.9824 35.1562-56.9824C40.3809-56.9824 41.6016-48.877 54.0527-48.877Z"/>
  </g>
  <g id="Regular-S" transform="matrix(1 0 0 1 1399.53 696)">
   <path class="monochrome-0 multicolor-0:tintColor hierarchical-0:primary SFSymbolsPreview007AFF" d="M50.3418-5.0293C61.0352-5.0293 62.7441-12.793 68.5059-12.793C74.4141-12.793 75.3906-5.0293 87.6465-5.0293L87.8418-5.0293C89.502-5.0293 90.8691-6.39648 90.8691-8.10547C90.8691-9.76562 89.502-11.1328 87.8418-11.1328L87.6465-11.1328C83.6426-11.1328 81.3965-12.793 78.5156-14.8438C76.0254-16.6504 72.8516-18.8965 68.5059-18.8965C63.9648-18.8965 60.7422-16.5039 58.252-14.6484C55.6152-12.6465 53.6133-11.1328 50.3418-11.1328C47.0215-11.1328 45.0195-12.6465 42.3828-14.6484C39.8926-16.5039 36.6699-18.8965 32.1777-18.8965C27.7832-18.8965 24.6094-16.6504 22.1191-14.8438C19.2383-12.793 16.9922-11.1328 13.0371-11.1328L12.8418-11.1328C11.1328-11.1328 9.76562-9.76562 9.76562-8.10547C9.76562-6.39648 11.1328-5.0293 12.8418-5.0293L13.0371-5.0293C25.293-5.0293 26.2695-12.793 32.1777-12.793C37.9395-12.793 39.5996-5.0293 50.3418-5.0293Z"/>
   <path class="monochrome-1 multicolor-1:tintColor hierarchical-1:primary SFSymbolsPreview007AFF" d="M50.3418-28.3691C61.0352-28.3691 62.7441-36.1328 68.5059-36.1328C74.4141-36.1328 75.3906-28.3691 87.6465-28.3691L87.8418-28.3691C89.502-28.3691 90.8691-29.7363 90.8691-31.4453C90.8691-33.1543 89.502-34.5215 87.8418-34.5215L87.6465-34.5215C83.6426-34.5215 81.3965-36.1328 78.5156-38.1836C76.0254-39.9902 72.8516-42.2852 68.5059-42.2852C63.9648-42.2852 60.7422-39.8438 58.252-37.9883C55.6152-35.9863 53.6133-34.5215 50.3418-34.5215C47.0215-34.5215 45.0195-35.9863 42.3828-37.9883C39.8926-39.8438 36.6699-42.2852 32.1777-42.2852C27.7832-42.2852 24.6094-39.9902 22.1191-38.1836C19.2383-36.1328 16.9922-34.5215 13.0371-34.5215L12.8418-34.5215C11.1328-34.5215 9.76562-33.1543 9.76562-31.4453C9.76562-29.7363 11.1328-28.3691 12.8418-28.3691L13.0371-28.3691C25.293-28.3691 26.2695-36.1328 32.1777-36.1328C37.9395-36.1328 39.5996-28.3691 50.3418-28.3691Z"/>
   <path class="monochrome-2 multicolor-2:tintColor hierarchical-2:primary SFSymbolsPreview007AFF" d="M50.3418-51.7578C61.0352-51.7578 62.7441-59.5215 68.5059-59.5215C74.4141-59.5215 75.3906-51.7578 87.6465-51.7578L87.8418-51.7578C89.502-51.7578 90.8691-53.125 90.8691-54.7852C90.8691-56.4941 89.502-57.8613 87.8418-57.8613L87.6465-57.8613C83.6426-57.8613 81.3965-59.4727 78.5156-61.5234C76.0254-63.3301 72.8516-65.625 68.5059-65.625C63.9648-65.625 60.7422-63.1836 58.252-61.3281C55.6152-59.3262 53.6133-57.8613 50.3418-57.8613C47.0215-57.8613 45.0195-59.3262 42.3828-61.3281C39.8926-63.1836 36.6699-65.625 32.1777-65.625C27.7832-65.625 24.6094-63.3301 22.1191-61.5234C19.2383-59.4727 16.9922-57.8613 13.0371-57.8613L12.8418-57.8613C11.1328-57.8613 9.76562-56.4941 9.76562-54.7852C9.76562-53.125 11.1328-51.7578 12.8418-51.7578L13.0371-51.7578C25.293-51.7578 26.2695-59.5215 32.1777-59.5215C37.9395-59.5215 39.5996-51.7578 50.3418-51.7578Z"/>
  </g>
  <g id="Ultralight-S" transform="matrix(1 0 0 1 511.369 696)">
   <path class="monochrome-0 multicolor-0:tintColor hierarchical-0:primary SFSymbolsPreview007AFF" d="M48.3438-8.2988C57.5386-8.2988 59.0659-16.0625 66.5078-16.0625C74.0962-16.0625 75.1636-8.2988 85.6485-8.2988L85.8438-8.2988C86.4595-8.2988 86.9185-8.75779 86.9185-9.37694C86.9185-9.94726 86.4595-10.4517 85.8438-10.4517L85.6485-10.4517C81.0088-10.4517 78.3086-12.4751 75.4278-14.4805C72.9375-16.2871 70.2632-18.2153 66.5078-18.2153C62.648-18.2153 59.9702-16.186 57.48-14.3306C54.8433-12.3286 52.2964-10.4517 48.3438-10.4517C44.3877-10.4517 41.8408-12.3286 39.2041-14.3306C36.7139-16.186 34.0362-18.2153 30.1797-18.2153C26.4209-18.2153 23.792-16.2871 21.3018-14.4805C18.4209-12.4751 15.6753-10.4517 11.0391-10.4517L10.8438-10.4517C10.27-10.4517 9.76562-9.94726 9.76562-9.37694C9.76562-8.75779 10.27-8.2988 10.8438-8.2988L11.0391-8.2988C21.524-8.2988 22.5913-16.0625 30.1797-16.0625C37.6216-16.0625 39.1455-8.2988 48.3438-8.2988Z"/>
   <path class="monochrome-1 multicolor-1:tintColor hierarchical-1:primary SFSymbolsPreview007AFF" d="M48.3438-30.3218C57.5386-30.3218 59.0659-38.0854 66.5078-38.0854C74.0962-38.0854 75.1636-30.3218 85.6485-30.3218L85.8438-30.3218C86.4595-30.3218 86.9185-30.8262 86.9185-31.3999C86.9185-31.9736 86.4595-32.478 85.8438-32.478L85.6485-32.478C81.0088-32.478 78.3086-34.4981 75.4278-36.5034C72.9375-38.3101 70.2632-40.2417 66.5078-40.2417C62.648-40.2417 59.9702-38.209 57.48-36.3535C54.8433-34.3516 52.2964-32.478 48.3438-32.478C44.3877-32.478 41.8408-34.3516 39.2041-36.3535C36.7139-38.209 34.0362-40.2417 30.1797-40.2417C26.4209-40.2417 23.792-38.3101 21.3018-36.5034C18.4209-34.4981 15.6753-32.478 11.0391-32.478L10.8438-32.478C10.27-32.478 9.76562-31.9736 9.76562-31.3999C9.76562-30.8262 10.27-30.3218 10.8438-30.3218L11.0391-30.3218C21.524-30.3218 22.5913-38.0854 30.1797-38.0854C37.6216-38.0854 39.1455-30.3218 48.3438-30.3218Z"/>
   <path class="monochrome-2 multicolor-2:tintColor hierarchical-2:primary SFSymbolsPreview007AFF" d="M48.3438-52.3481C57.5386-52.3481 59.0659-60.1118 66.5078-60.1118C74.0962-60.1118 75.1636-52.3481 85.6485-52.3481L85.8438-52.3481C86.4595-52.3481 86.9185-52.8525 86.9185-53.4229C86.9185-54.042 86.4595-54.501 85.8438-54.501L85.6485-54.501C81.0088-54.501 78.3086-56.5664 75.4278-58.5718C72.9375-60.3784 70.2632-62.2647 66.5078-62.2647C62.648-62.2647 59.9702-60.2774 57.48-58.4219C54.8433-56.4199 52.2964-54.501 48.3438-54.501C44.3877-54.501 41.8408-56.4199 39.2041-58.4219C36.7139-60.2774 34.0362-62.2647 30.1797-62.2647C26.4209-62.2647 23.792-60.3784 21.3018-58.5718C18.4209-56.5664 15.6753-54.501 11.0391-54.501L10.8438-54.501C10.27-54.501 9.76562-54.042 9.76562-53.4229C9.76562-52.8525 10.27-52.3481 10.8438-52.3481L11.0391-52.3481C21.524-52.3481 22.5913-60.1118 30.1797-60.1118C37.6216-60.1118 39.1455-52.3481 48.3438-52.3481Z"/>
  </g>
 </g>
</svg>
