<?xml version="1.0" encoding="UTF-8"?>
<!--Generator: Apple Native CoreSVG 175.5-->
<!DOCTYPE svg
PUBLIC "-//W3C//DTD SVG 1.1//EN"
       "http://www.w3.org/Graphics/SVG/1.1/DTD/svg11.dtd">
<svg version="1.1" xmlns="http://www.w3.org/2000/svg" xmlns:xlink="http://www.w3.org/1999/xlink" width="3300" height="2200">
 <!--glyph: "uni1014CD.medium", point size: 100.0, font version: "18.0d11e1", template writer version: "90"-->
 <style>.monochrome-0 {fill:#000000}
.monochrome-1 {fill:#000000;-sfsymbols-variable-threshold:0.0}
.monochrome-2 {fill:#000000;-sfsymbols-variable-threshold:0.34}
.monochrome-3 {fill:#000000;-sfsymbols-variable-threshold:0.68}

.multicolor-0:tintColor {fill:#007AFF}
.multicolor-1:tintColor {fill:#007AFF;-sfsymbols-variable-threshold:0.0}
.multicolor-2:tintColor {fill:#007AFF;-sfsymbols-variable-threshold:0.34}
.multicolor-3:tintColor {fill:#007AFF;-sfsymbols-variable-threshold:0.68}

.hierarchical-0:primary {fill:#212121}
.hierarchical-1:secondary {fill:#4D4D4D;-sfsymbols-variable-threshold:0.0}
.hierarchical-2:secondary {fill:#4D4D4D;-sfsymbols-variable-threshold:0.34}
.hierarchical-3:secondary {fill:#4D4D4D;-sfsymbols-variable-threshold:0.68}

.SFSymbolsPreview007AFF {fill:#007AFF;opacity:1.0}
</style>
 <g id="Notes">
  <rect height="2200" id="artboard" style="fill:white;opacity:1" width="3300" x="0" y="0"/>
  <line style="fill:none;stroke:black;opacity:1;stroke-width:0.5;" x1="263" x2="3036" y1="292" y2="292"/>
  <text style="stroke:none;fill:black;font-family:sans-serif;font-size:13;font-weight:bold;" transform="matrix(1 0 0 1 263 322)">Weight/Scale Variations</text>
  <text style="stroke:none;fill:black;font-family:sans-serif;font-size:13;text-anchor:middle;" transform="matrix(1 0 0 1 559.711 322)">Ultralight</text>
  <text style="stroke:none;fill:black;font-family:sans-serif;font-size:13;text-anchor:middle;" transform="matrix(1 0 0 1 856.422 322)">Thin</text>
  <text style="stroke:none;fill:black;font-family:sans-serif;font-size:13;text-anchor:middle;" transform="matrix(1 0 0 1 1153.13 322)">Light</text>
  <text style="stroke:none;fill:black;font-family:sans-serif;font-size:13;text-anchor:middle;" transform="matrix(1 0 0 1 1449.84 322)">Regular</text>
  <text style="stroke:none;fill:black;font-family:sans-serif;font-size:13;text-anchor:middle;" transform="matrix(1 0 0 1 1746.56 322)">Medium</text>
  <text style="stroke:none;fill:black;font-family:sans-serif;font-size:13;text-anchor:middle;" transform="matrix(1 0 0 1 2043.27 322)">Semibold</text>
  <text style="stroke:none;fill:black;font-family:sans-serif;font-size:13;text-anchor:middle;" transform="matrix(1 0 0 1 2339.98 322)">Bold</text>
  <text style="stroke:none;fill:black;font-family:sans-serif;font-size:13;text-anchor:middle;" transform="matrix(1 0 0 1 2636.69 322)">Heavy</text>
  <text style="stroke:none;fill:black;font-family:sans-serif;font-size:13;text-anchor:middle;" transform="matrix(1 0 0 1 2933.4 322)">Black</text>
  <line style="fill:none;stroke:black;opacity:1;stroke-width:0.5;" x1="263" x2="3036" y1="1903" y2="1903"/>
  <g transform="matrix(1 0 0 1 263 1933)">
   <path d="M9.24805 0.830078C13.5547 0.830078 17.1387-2.74414 17.1387-7.05078C17.1387-11.3574 13.5449-14.9316 9.23828-14.9316C4.94141-14.9316 1.36719-11.3574 1.36719-7.05078C1.36719-2.74414 4.95117 0.830078 9.24805 0.830078ZM9.24805-0.654297C5.70312-0.654297 2.87109-3.49609 2.87109-7.05078C2.87109-10.6055 5.69336-13.4473 9.23828-13.4473C12.793-13.4473 15.6445-10.6055 15.6445-7.05078C15.6445-3.49609 12.8027-0.654297 9.24805-0.654297ZM5.6543-7.05078C5.6543-6.62109 5.95703-6.32812 6.40625-6.32812L8.50586-6.32812L8.50586-4.20898C8.50586-3.76953 8.79883-3.4668 9.22852-3.4668C9.67773-3.4668 9.9707-3.76953 9.9707-4.20898L9.9707-6.32812L12.0898-6.32812C12.5293-6.32812 12.832-6.62109 12.832-7.05078C12.832-7.49023 12.5293-7.79297 12.0898-7.79297L9.9707-7.79297L9.9707-9.90234C9.9707-10.3516 9.67773-10.6543 9.22852-10.6543C8.79883-10.6543 8.50586-10.3516 8.50586-9.90234L8.50586-7.79297L6.40625-7.79297C5.95703-7.79297 5.6543-7.49023 5.6543-7.05078Z"/>
  </g>
  <g transform="matrix(1 0 0 1 281.867 1933)">
   <path d="M11.709 2.91016C17.1582 2.91016 21.6699-1.61133 21.6699-7.05078C21.6699-12.5 17.1484-17.0117 11.6992-17.0117C6.25977-17.0117 1.74805-12.5 1.74805-7.05078C1.74805-1.61133 6.26953 2.91016 11.709 2.91016ZM11.709 1.25C7.09961 1.25 3.41797-2.44141 3.41797-7.05078C3.41797-11.6602 7.08984-15.3516 11.6992-15.3516C16.3086-15.3516 20.0098-11.6602 20.0098-7.05078C20.0098-2.44141 16.3184 1.25 11.709 1.25ZM7.17773-7.05078C7.17773-6.57227 7.50977-6.25 8.00781-6.25L10.8789-6.25L10.8789-3.36914C10.8789-2.88086 11.2109-2.53906 11.6895-2.53906C12.1777-2.53906 12.5195-2.87109 12.5195-3.36914L12.5195-6.25L15.4004-6.25C15.8887-6.25 16.2305-6.57227 16.2305-7.05078C16.2305-7.53906 15.8887-7.88086 15.4004-7.88086L12.5195-7.88086L12.5195-10.752C12.5195-11.25 12.1777-11.5918 11.6895-11.5918C11.2109-11.5918 10.8789-11.25 10.8789-10.752L10.8789-7.88086L8.00781-7.88086C7.50977-7.88086 7.17773-7.53906 7.17773-7.05078Z"/>
  </g>
  <g transform="matrix(1 0 0 1 305.646 1933)">
   <path d="M14.9707 5.66406C21.9336 5.66406 27.6953-0.0976562 27.6953-7.05078C27.6953-14.0137 21.9238-19.7754 14.9609-19.7754C8.00781-19.7754 2.25586-14.0137 2.25586-7.05078C2.25586-0.0976562 8.01758 5.66406 14.9707 5.66406ZM14.9707 3.84766C8.93555 3.84766 4.08203-1.01562 4.08203-7.05078C4.08203-13.0957 8.92578-17.9492 14.9609-17.9492C21.0059-17.9492 25.8691-13.0957 25.8691-7.05078C25.8691-1.01562 21.0156 3.84766 14.9707 3.84766ZM9.19922-7.05078C9.19922-6.5332 9.57031-6.17188 10.1172-6.17188L14.0625-6.17188L14.0625-2.2168C14.0625-1.67969 14.4336-1.29883 14.9512-1.29883C15.4883-1.29883 15.8594-1.66992 15.8594-2.2168L15.8594-6.17188L19.8145-6.17188C20.3516-6.17188 20.7324-6.5332 20.7324-7.05078C20.7324-7.59766 20.3613-7.96875 19.8145-7.96875L15.8594-7.96875L15.8594-11.9141C15.8594-12.4609 15.4883-12.8418 14.9512-12.8418C14.4336-12.8418 14.0625-12.4609 14.0625-11.9141L14.0625-7.96875L10.1172-7.96875C9.57031-7.96875 9.19922-7.59766 9.19922-7.05078Z"/>
  </g>
  <text style="stroke:none;fill:black;font-family:sans-serif;font-size:13;font-weight:bold;" transform="matrix(1 0 0 1 263 1953)">Design Variations</text>
  <text style="stroke:none;fill:black;font-family:sans-serif;font-size:13;" transform="matrix(1 0 0 1 263 1971)">Symbols are supported in up to nine weights and three scales.</text>
  <text style="stroke:none;fill:black;font-family:sans-serif;font-size:13;" transform="matrix(1 0 0 1 263 1989)">For optimal layout with text and other symbols, vertically align</text>
  <text style="stroke:none;fill:black;font-family:sans-serif;font-size:13;" transform="matrix(1 0 0 1 263 2007)">symbols with the adjacent text.</text>
  <line style="fill:none;stroke:#00AEEF;stroke-width:0.5;opacity:1.0;" x1="776" x2="776" y1="1919" y2="1933"/>
  <g transform="matrix(1 0 0 1 776 1933)">
   <path d="M3.31055 0.15625C3.82812 0.15625 4.08203-0.0390625 4.26758-0.585938L5.52734-4.0332L11.2891-4.0332L12.5488-0.585938C12.7344-0.0390625 12.9883 0.15625 13.4961 0.15625C14.0137 0.15625 14.3457-0.15625 14.3457-0.644531C14.3457-0.810547 14.3164-0.966797 14.2383-1.17188L9.6582-13.3691C9.43359-13.9648 9.0332-14.2676 8.4082-14.2676C7.80273-14.2676 7.39258-13.9746 7.17773-13.3789L2.59766-1.16211C2.51953-0.957031 2.49023-0.800781 2.49023-0.634766C2.49023-0.146484 2.80273 0.15625 3.31055 0.15625ZM6.00586-5.51758L8.37891-12.0898L8.42773-12.0898L10.8008-5.51758Z"/>
  </g>
  <line style="fill:none;stroke:#00AEEF;stroke-width:0.5;opacity:1.0;" x1="793.197" x2="793.197" y1="1919" y2="1933"/>
  <text style="stroke:none;fill:black;font-family:sans-serif;font-size:13;font-weight:bold;" transform="matrix(1 0 0 1 776 1953)">Margins</text>
  <text style="stroke:none;fill:black;font-family:sans-serif;font-size:13;" transform="matrix(1 0 0 1 776 1971)">Leading and trailing margins on the left and right side of each symbol</text>
  <text style="stroke:none;fill:black;font-family:sans-serif;font-size:13;" transform="matrix(1 0 0 1 776 1989)">can be adjusted by modifying the x-location of the margin guidelines.</text>
  <text style="stroke:none;fill:black;font-family:sans-serif;font-size:13;" transform="matrix(1 0 0 1 776 2007)">Modifications are automatically applied proportionally to all</text>
  <text style="stroke:none;fill:black;font-family:sans-serif;font-size:13;" transform="matrix(1 0 0 1 776 2025)">scales and weights.</text>
  <g transform="matrix(1 0 0 1 1289 1933)">
   <path d="M2.8418 1.86523L4.54102 3.57422C5.40039 4.44336 6.38672 4.38477 7.31445 3.35938L18.0078-8.42773L17.041-9.4043L6.42578 2.27539C6.07422 2.67578 5.74219 2.77344 5.27344 2.30469L4.10156 1.14258C3.63281 0.683594 3.74023 0.341797 4.14062-0.0195312L15.6152-10.8203L14.6387-11.7871L3.04688-0.898438C2.06055 0.0195312 1.98242 0.996094 2.8418 1.86523ZM9.25781-16.3281C8.83789-15.918 8.80859-15.3418 9.04297-14.9512C9.27734-14.5898 9.73633-14.3555 10.3809-14.5215C11.8457-14.8633 13.3691-14.9219 14.7949-13.9844L14.209-12.5293C13.8672-11.6992 14.043-11.1133 14.5801-10.5664L16.875-8.25195C17.3633-7.76367 17.7734-7.74414 18.3398-7.8418L19.4043-8.03711L20.0684-7.36328L20.0293-6.80664C19.9902-6.30859 20.1172-5.92773 20.6055-5.44922L21.3672-4.70703C21.8457-4.22852 22.4609-4.19922 22.9297-4.66797L25.8398-7.58789C26.3086-8.05664 26.2891-8.65234 25.8105-9.13086L25.0391-9.89258C24.5605-10.3711 24.1895-10.5273 23.7109-10.4883L23.1348-10.4395L22.4902-11.0742L22.7344-12.1973C22.8613-12.7637 22.7051-13.2031 22.1191-13.7891L19.9219-15.9766C16.582-19.2969 12.1484-19.2188 9.25781-16.3281ZM10.752-15.957C13.1836-17.7344 16.4746-17.4316 18.7012-15.2051L21.1328-12.793C21.3672-12.5586 21.4062-12.373 21.3379-12.0312L21.0156-10.5469L22.5195-9.0625L23.5059-9.12109C23.7598-9.13086 23.8379-9.11133 24.0332-8.91602L24.6094-8.33984L22.168-5.89844L21.5918-6.47461C21.3965-6.66992 21.3672-6.74805 21.377-7.01172L21.4453-7.98828L19.9512-9.47266L18.4277-9.21875C18.1055-9.15039 17.959-9.17969 17.7148-9.41406L15.7129-11.416C15.459-11.6504 15.4297-11.8164 15.5859-12.1875L16.4648-14.2773C14.9023-15.7324 12.8711-16.3574 10.8398-15.7617C10.6836-15.7227 10.625-15.8496 10.752-15.957Z"/>
  </g>
  <text style="stroke:none;fill:black;font-family:sans-serif;font-size:13;font-weight:bold;" transform="matrix(1 0 0 1 1289 1953)">Exporting</text>
  <text style="stroke:none;fill:black;font-family:sans-serif;font-size:13;" transform="matrix(1 0 0 1 1289 1971)">Symbols should be outlined when exporting to ensure the</text>
  <text style="stroke:none;fill:black;font-family:sans-serif;font-size:13;" transform="matrix(1 0 0 1 1289 1989)">design is preserved when submitting to Xcode.</text>
  <text id="template-version" style="stroke:none;fill:black;font-family:sans-serif;font-size:13;text-anchor:end;" transform="matrix(1 0 0 1 3036 1933)">Template v.4.0</text>
  <text style="stroke:none;fill:black;font-family:sans-serif;font-size:13;text-anchor:end;" transform="matrix(1 0 0 1 3036 1951)">Requires Xcode 14 or greater</text>
  <text id="descriptive-name" style="stroke:none;fill:black;font-family:sans-serif;font-size:13;text-anchor:end;" transform="matrix(1 0 0 1 3036 1969)">Generated from shower.handheld</text>
  <text style="stroke:none;fill:black;font-family:sans-serif;font-size:13;text-anchor:end;" transform="matrix(1 0 0 1 3036 1987)">Typeset at 100 points</text>
  <text style="stroke:none;fill:black;font-family:sans-serif;font-size:13;" transform="matrix(1 0 0 1 263 726)">Small</text>
  <text style="stroke:none;fill:black;font-family:sans-serif;font-size:13;" transform="matrix(1 0 0 1 263 1156)">Medium</text>
  <text style="stroke:none;fill:black;font-family:sans-serif;font-size:13;" transform="matrix(1 0 0 1 263 1586)">Large</text>
 </g>
 <g id="Guides">
  <g id="H-reference" style="fill:#27AAE1;stroke:none;" transform="matrix(1 0 0 1 339 696)">
   <path d="M0.993654 0L3.63775 0L29.3281-67.1323L30.0303-67.1323L30.0303-70.459L28.1226-70.459ZM11.6885-24.4799L46.9815-24.4799L46.2315-26.7285L12.4385-26.7285ZM55.1196 0L57.7637 0L30.6382-70.459L29.4326-70.459L29.4326-67.1323Z"/>
  </g>
  <line id="Baseline-S" style="fill:none;stroke:#27AAE1;opacity:1;stroke-width:0.5;" x1="263" x2="3036" y1="696" y2="696"/>
  <line id="Capline-S" style="fill:none;stroke:#27AAE1;opacity:1;stroke-width:0.5;" x1="263" x2="3036" y1="625.541" y2="625.541"/>
  <g id="H-reference" style="fill:#27AAE1;stroke:none;" transform="matrix(1 0 0 1 339 1126)">
   <path d="M0.993654 0L3.63775 0L29.3281-67.1323L30.0303-67.1323L30.0303-70.459L28.1226-70.459ZM11.6885-24.4799L46.9815-24.4799L46.2315-26.7285L12.4385-26.7285ZM55.1196 0L57.7637 0L30.6382-70.459L29.4326-70.459L29.4326-67.1323Z"/>
  </g>
  <line id="Baseline-M" style="fill:none;stroke:#27AAE1;opacity:1;stroke-width:0.5;" x1="263" x2="3036" y1="1126" y2="1126"/>
  <line id="Capline-M" style="fill:none;stroke:#27AAE1;opacity:1;stroke-width:0.5;" x1="263" x2="3036" y1="1055.54" y2="1055.54"/>
  <g id="H-reference" style="fill:#27AAE1;stroke:none;" transform="matrix(1 0 0 1 339 1556)">
   <path d="M0.993654 0L3.63775 0L29.3281-67.1323L30.0303-67.1323L30.0303-70.459L28.1226-70.459ZM11.6885-24.4799L46.9815-24.4799L46.2315-26.7285L12.4385-26.7285ZM55.1196 0L57.7637 0L30.6382-70.459L29.4326-70.459L29.4326-67.1323Z"/>
  </g>
  <line id="Baseline-L" style="fill:none;stroke:#27AAE1;opacity:1;stroke-width:0.5;" x1="263" x2="3036" y1="1556" y2="1556"/>
  <line id="Capline-L" style="fill:none;stroke:#27AAE1;opacity:1;stroke-width:0.5;" x1="263" x2="3036" y1="1485.54" y2="1485.54"/>
  <line id="left-margin-Ultralight-S" style="fill:none;stroke:#00AEEF;stroke-width:0.5;opacity:1.0;" x1="511.266" x2="511.266" y1="600.785" y2="720.121"/>
  <line id="right-margin-Ultralight-S" style="fill:none;stroke:#00AEEF;stroke-width:0.5;opacity:1.0;" x1="608.156" x2="608.156" y1="600.785" y2="720.121"/>
  <line id="left-margin-Regular-S" style="fill:none;stroke:#00AEEF;stroke-width:0.5;opacity:1.0;" x1="1395.13" x2="1395.13" y1="600.785" y2="720.121"/>
  <line id="right-margin-Regular-S" style="fill:none;stroke:#00AEEF;stroke-width:0.5;opacity:1.0;" x1="1504.56" x2="1504.56" y1="600.785" y2="720.121"/>
  <line id="left-margin-Black-S" style="fill:none;stroke:#00AEEF;stroke-width:0.5;opacity:1.0;" x1="2873.17" x2="2873.17" y1="600.785" y2="720.121"/>
  <line id="right-margin-Black-S" style="fill:none;stroke:#00AEEF;stroke-width:0.5;opacity:1.0;" x1="2993.63" x2="2993.63" y1="600.785" y2="720.121"/>
 </g>
 <g id="Symbols">
  <g id="Black-S" transform="matrix(1 0 0 1 2873.17 696)">
   <path class="monochrome-0 multicolor-0:tintColor hierarchical-0:primary SFSymbolsPreview007AFF" d="M19.5312-6.00586C24.7559-4.15039 29.8828-6.68945 31.7383-11.7188L45.8008-50.0488L39.5508-47.1191C42.4316-39.502 48.3398-35.498 56.0547-33.0078L59.1309-41.4062C49.8047-44.2871 45.0684-49.9512 45.5078-58.0566L42.9199-58.9844C41.3574-59.5703 39.5996-58.7402 39.0137-57.1777L23.7305-15.2344C23.5352-14.6484 22.9492-14.209 22.2168-14.4043C21.6309-14.5508 21.3379-15.2832 21.5332-15.8203L39.3555-64.5996C40.1855-66.7969 42.334-67.7734 44.5312-66.9922L48.2422-65.6738C53.1738-72.0215 60.4004-73.3398 69.3848-69.6289L72.4121-77.9785C62.5-82.0312 52.9785-81.2012 45.8984-75.6836L45.166-75.9766C39.209-78.3691 33.6914-74.5605 31.1523-67.5293L13.3301-18.457C11.4746-13.3789 13.2812-8.20312 19.5312-6.00586ZM68.8965-78.3691L53.125-35.0586C52.1973-32.5684 53.5156-29.834 56.0059-28.9062C58.5449-27.9785 61.2793-29.2969 62.1582-31.7383L77.9297-75.0977C78.8086-77.5391 77.5879-80.3223 75.0488-81.25C72.5586-82.1289 69.7754-80.8105 68.8965-78.3691ZM25.3906-10.498L17.8711-13.2812L9.76562 9.13086L17.2852 11.9141Z"/>
   <path class="monochrome-1 multicolor-1:tintColor hierarchical-1:secondary SFSymbolsPreview007AFF" d="M82.7637-48.9258C83.5938-51.2695 82.373-53.9062 79.9805-54.7852C77.6367-55.6152 75.0488-54.3945 74.1699-52.0508C73.291-49.707 74.5117-47.0703 76.8555-46.1914C79.248-45.3613 81.8848-46.582 82.7637-48.9258ZM76.2695-33.1055C78.2227-34.7656 78.5156-37.6465 76.8555-39.5996C75.2441-41.5039 72.3633-41.7969 70.4102-40.1367C68.5059-38.5254 68.2617-35.6445 69.8242-33.7402C71.4844-31.7871 74.3652-31.543 76.2695-33.1055ZM87.9395-65.1367C87.5-67.5781 85.1074-69.2383 82.6172-68.7988C80.1758-68.4082 78.5156-65.9668 78.9062-63.5254C79.3457-61.0352 81.7871-59.375 84.2285-59.8145C86.7188-60.2539 88.3789-62.6465 87.9395-65.1367Z"/>
   <path class="monochrome-2 multicolor-2:tintColor hierarchical-2:secondary SFSymbolsPreview007AFF" d="M99.2676-67.1387C98.8281-69.6777 96.4355-71.2891 93.9453-70.8496C91.5039-70.459 89.8438-68.0176 90.2832-65.5273C90.7227-63.0859 93.0664-61.4746 95.5566-61.8652C98.0469-62.3047 99.707-64.6973 99.2676-67.1387ZM83.6426-24.3164C85.5957-25.8789 85.8887-28.8086 84.2285-30.7617C82.5684-32.666 79.7363-32.9102 77.832-31.2988C75.8789-29.6875 75.6348-26.7578 77.1973-24.9023C78.8574-22.9492 81.7383-22.6562 83.6426-24.3164ZM93.5547-44.9707C94.4336-47.3145 93.2129-49.9512 90.8203-50.7812C88.4766-51.6602 85.8398-50.4395 85.0098-48.0957C84.1309-45.7031 85.3516-43.0664 87.6953-42.2363C90.0879-41.3574 92.7246-42.5781 93.5547-44.9707Z"/>
   <path class="monochrome-3 multicolor-3:tintColor hierarchical-3:secondary SFSymbolsPreview007AFF" d="M104.395-41.0156C105.273-43.3594 104.004-45.9961 101.66-46.875C99.3164-47.7051 96.6797-46.4844 95.8008-44.1406C94.9707-41.748 96.1914-39.1113 98.5352-38.2812C100.879-37.4023 103.516-38.623 104.395-41.0156ZM110.645-69.1406C110.205-71.6309 107.764-73.291 105.273-72.8516C102.832-72.4609 101.172-70.0195 101.611-67.5293C102.051-65.0879 104.443-63.4277 106.885-63.8672C109.375-64.3066 111.035-66.6992 110.645-69.1406ZM91.1133-15.4785C92.9688-17.0898 93.2617-19.9707 91.6504-21.9238C90.0391-23.8281 87.1094-24.0723 85.2539-22.4609C83.3008-20.8496 83.0078-17.9199 84.6191-16.0645C86.2305-14.1113 89.1602-13.8184 91.1133-15.4785Z"/>
  </g>
  <g id="Regular-S" transform="matrix(1 0 0 1 1395.13 696)">
   <path class="monochrome-0 multicolor-0:tintColor hierarchical-0:primary SFSymbolsPreview007AFF" d="M17.6758-8.93555C21.8262-7.4707 25.8789-9.42383 27.3926-13.4277L39.8438-47.5098L37.5488-46.0449C39.9414-40.9668 44.6289-36.6699 50.9277-34.8145L52.832-39.9902C44.9219-42.8223 40.332-48.3887 40.2832-55.6641L38.8184-56.2012C38.0371-56.4453 37.207-56.1035 36.9141-55.3223L22.5098-15.7715C21.9238-14.209 20.5078-13.8184 19.3848-14.2578C18.3594-14.6973 17.6758-15.7227 18.1641-17.0898L35.0586-63.3301C35.9863-66.0645 38.9648-67.4316 41.6992-66.4551L43.8965-65.6738C48.6328-71.1914 55.7129-72.5586 63.623-69.6777L65.5273-74.8535C56.7871-78.0762 48.4863-76.9043 42.4805-71.7773L41.8945-72.0215C36.9629-73.7793 32.1777-71.0449 30.0293-65.1367L13.1348-18.6523C11.6699-14.5996 13.623-10.4492 17.6758-8.93555ZM65.2344-75.5371L50.293-34.5215C49.7559-32.9102 50.5371-31.1523 52.1484-30.5664C53.7598-29.9805 55.5176-30.8105 56.0547-32.373L71.0449-73.4375C71.582-75.0488 70.8008-76.7578 69.1895-77.3926C67.5781-77.9785 65.7715-77.0996 65.2344-75.5371ZM20.9473-10.9863L16.5039-12.5977L9.76562 5.95703L14.209 7.56836Z"/>
   <path class="monochrome-1 multicolor-1:tintColor hierarchical-1:secondary SFSymbolsPreview007AFF" d="M73.9258-49.5605C74.5117-51.0742 73.6328-52.832 72.1191-53.3203C70.5566-53.9062 68.7988-53.1738 68.2129-51.6113C67.6758-50 68.4082-48.1934 70.0195-47.6074C71.582-47.0215 73.291-47.9004 73.9258-49.5605ZM68.3594-35.2051C69.6289-36.377 69.6777-38.2324 68.6035-39.502C67.3828-40.8203 65.5762-40.8203 64.3066-39.6973C63.0371-38.4277 62.9883-36.6211 64.209-35.4004C65.332-34.2285 67.1387-34.0332 68.3594-35.2051ZM78.8086-63.8672C78.5645-65.4785 77.1484-66.5527 75.4395-66.3086C73.7305-66.0645 72.5586-64.7949 72.8027-63.0859C72.998-61.4746 74.4629-60.3027 76.2207-60.4492C77.8809-60.6934 79.0039-62.207 78.8086-63.8672Z"/>
   <path class="monochrome-2 multicolor-2:tintColor hierarchical-2:secondary SFSymbolsPreview007AFF" d="M89.209-65.1367C89.0625-66.7969 87.5-67.9199 85.8398-67.7734C84.2285-67.4805 83.0078-66.0156 83.252-64.3066C83.4473-62.793 84.9609-61.6211 86.6211-61.7676C88.2812-62.0117 89.4531-63.4766 89.209-65.1367ZM75.5371-27.5391C76.8066-28.7109 76.8555-30.6152 75.6348-31.9336C74.6094-33.0078 72.7051-33.1055 71.4355-31.9336C70.3125-30.8105 70.166-28.9062 71.2891-27.832C72.5098-26.5625 74.3652-26.416 75.5371-27.5391ZM83.7402-45.8496C84.3262-47.3633 83.4961-49.1211 81.9336-49.707C80.3223-50.2441 78.7598-49.5605 78.1738-47.9004C77.5879-46.3867 78.3203-44.6777 79.9316-44.1406C81.4941-43.5547 83.1543-44.3359 83.7402-45.8496Z"/>
   <path class="monochrome-3 multicolor-3:tintColor hierarchical-3:secondary SFSymbolsPreview007AFF" d="M93.6523-42.334C94.2383-43.8965 93.4082-45.6055 91.8457-46.1914C90.2344-46.7285 88.5254-45.9961 87.9395-44.4336C87.3535-42.8711 88.1348-41.0156 89.6973-40.4297C91.3086-39.8438 93.0664-40.7715 93.6523-42.334ZM99.6094-66.3574C99.3164-68.0664 97.9492-69.2383 96.2891-69.043C94.6289-68.8965 93.457-67.2852 93.7012-65.7227C93.8965-64.0625 95.3613-62.8906 96.9727-63.0859C98.6816-63.2812 99.8535-64.8438 99.6094-66.3574ZM82.666-19.9219C83.7891-21.0938 83.9355-22.8027 82.8613-24.1699C81.6895-25.3906 79.7852-25.3418 78.6133-24.1699C77.4902-23.0469 77.2949-21.2402 78.418-19.9707C79.541-18.75 81.4941-18.7988 82.666-19.9219Z"/>
  </g>
  <g id="Ultralight-S" transform="matrix(1 0 0 1 511.266 696)">
   <path class="monochrome-0 multicolor-0:tintColor hierarchical-0:primary SFSymbolsPreview007AFF" d="M16.2227-13.2495C19.1016-12.2387 21.792-13.5107 22.8062-16.2431L34.0313-47.2373L33.3711-46.8169C34.9917-40.9214 39.2706-35.8525 45.4786-33.543L46.2476-35.5855C39.7906-37.9634 35.7002-43.3028 34.834-49.5337L33.4146-50.0708C33.1783-50.1788 32.8477-49.9732 32.7364-49.6915L20.7842-17.043C20.1983-15.4805 18.646-14.772 17.0235-15.4385C15.4077-16.0141 14.6333-17.4936 15.2124-19.0425L30.4722-61.0596C31.3545-63.5669 34.0152-64.8433 36.5225-63.9575L38.9014-63.0855C43.4561-68.5122 50.854-70.606 58.0376-67.9522L58.7613-69.9947C51.3379-72.6724 43.4458-70.6377 38.2119-65.42L36.9903-65.8912C33.5117-67.2403 29.8164-65.4141 28.44-61.6856L13.1802-19.7876C12.1694-17.0063 13.4414-14.3091 16.2227-13.2495ZM58.1959-70.7237L44.6167-33.3862C44.3521-32.7285 44.7247-31.9243 45.4278-31.7017C46.0855-31.4336 46.8897-31.8096 47.109-32.4639L60.6915-69.7593C60.9561-70.5078 60.5382-71.2178 59.9259-71.4893C59.2227-71.7574 58.3697-71.3326 58.1959-70.7237ZM17.4961-13.7109L15.5957-14.414L9.76562 1.50687L11.7569 2.21Z"/>
   <path class="monochrome-1 multicolor-1:tintColor hierarchical-1:secondary SFSymbolsPreview007AFF" d="M62.3009-48.6524C62.7052-49.6211 62.1895-50.7886 61.13-51.1861C60.1124-51.5449 58.8995-51.0396 58.5406-49.9766C58.1397-48.9102 58.6905-47.7847 59.7569-47.4258C60.8199-47.0215 61.984-47.5825 62.3009-48.6524ZM57.4156-35.977C58.2765-36.6948 58.4161-37.96 57.6598-38.8208C56.9386-39.6397 55.6768-39.7305 54.816-39.0615C54.0006-38.2915 53.9063-37.0752 54.5821-36.2178C55.3419-35.4092 56.6036-35.3047 57.4156-35.977ZM66.6842-61.4151C66.4854-62.5269 65.4781-63.1924 64.3595-63.0391C63.2408-62.8404 62.5684-61.8887 62.7218-60.7246C62.9171-59.6128 63.9278-58.9404 65.0499-59.0869C66.1651-59.2857 66.8341-60.2998 66.6842-61.4151Z"/>
   <path class="monochrome-2 multicolor-2:tintColor hierarchical-2:secondary SFSymbolsPreview007AFF" d="M76.8575-63.1841C76.6656-64.3447 75.648-65.0137 74.5782-64.8672C73.5118-64.6651 72.7906-63.6089 72.9439-62.4902C73.1392-61.3853 74.1988-60.7129 75.2686-60.9048C76.3385-61.1035 77.0562-62.0689 76.8575-63.1841ZM64.0938-28.084C64.9093-28.8018 65.0489-30.0703 64.3277-30.9346C63.6202-31.6909 62.3971-31.834 61.5362-31.1616C60.6856-30.4019 60.5391-29.1333 61.2535-28.2861C61.9747-27.4707 63.2398-27.3242 64.0938-28.084ZM72.0245-45.0776C72.4288-46.0918 71.8712-47.2593 70.8536-47.6182C69.8326-48.0191 68.6788-47.4717 68.2745-46.4019C67.9156-45.4331 68.421-44.269 69.4874-43.8682C70.5504-43.5093 71.711-44.0181 72.0245-45.0776Z"/>
   <path class="monochrome-3 multicolor-3:tintColor hierarchical-3:secondary SFSymbolsPreview007AFF" d="M81.8004-41.562C82.1593-42.5342 81.6017-43.6983 80.6295-44.1026C79.5631-44.458 78.399-43.9527 77.9947-42.8897C77.6358-41.8721 78.19-40.6978 79.2076-40.3389C80.274-39.9346 81.3961-40.499 81.8004-41.562ZM87.0763-64.9497C86.8741-66.0684 85.8702-66.7862 84.755-66.5908C83.7306-66.3989 82.9674-65.3779 83.1207-64.2695C83.316-63.1997 84.3722-62.4819 85.4386-62.6772C86.5572-62.8726 87.275-63.8901 87.0763-64.9497ZM70.7686-20.1489C71.6192-20.9121 71.7203-22.1216 71.0094-22.9439C70.2916-23.8013 69.023-23.9341 68.2144-23.2617C67.3184-22.502 67.2594-21.2402 67.9737-20.3794C68.6881-19.522 69.9146-19.3892 70.7686-20.1489Z"/>
  </g>
 </g>
</svg>
