<?xml version="1.0" encoding="UTF-8"?>
<!--Generator: Apple Native CoreSVG 175.5-->
<!DOCTYPE svg
PUBLIC "-//W3C//DTD SVG 1.1//EN"
       "http://www.w3.org/Graphics/SVG/1.1/DTD/svg11.dtd">
<svg version="1.1" xmlns="http://www.w3.org/2000/svg" xmlns:xlink="http://www.w3.org/1999/xlink" width="3300" height="2200">
 <!--glyph: "uni101426.medium", point size: 100.0, font version: "18.0d11e1", template writer version: "90"-->
 <style>.monochrome-0 {fill:#000000}

.SFSymbolsPreview000000 {fill:#000000;opacity:1.0}
</style>
 <g id="Notes">
  <rect height="2200" id="artboard" style="fill:white;opacity:1" width="3300" x="0" y="0"/>
  <line style="fill:none;stroke:black;opacity:1;stroke-width:0.5;" x1="263" x2="3036" y1="292" y2="292"/>
  <text style="stroke:none;fill:black;font-family:sans-serif;font-size:13;font-weight:bold;" transform="matrix(1 0 0 1 263 322)">Weight/Scale Variations</text>
  <text style="stroke:none;fill:black;font-family:sans-serif;font-size:13;text-anchor:middle;" transform="matrix(1 0 0 1 559.711 322)">Ultralight</text>
  <text style="stroke:none;fill:black;font-family:sans-serif;font-size:13;text-anchor:middle;" transform="matrix(1 0 0 1 856.422 322)">Thin</text>
  <text style="stroke:none;fill:black;font-family:sans-serif;font-size:13;text-anchor:middle;" transform="matrix(1 0 0 1 1153.13 322)">Light</text>
  <text style="stroke:none;fill:black;font-family:sans-serif;font-size:13;text-anchor:middle;" transform="matrix(1 0 0 1 1449.84 322)">Regular</text>
  <text style="stroke:none;fill:black;font-family:sans-serif;font-size:13;text-anchor:middle;" transform="matrix(1 0 0 1 1746.56 322)">Medium</text>
  <text style="stroke:none;fill:black;font-family:sans-serif;font-size:13;text-anchor:middle;" transform="matrix(1 0 0 1 2043.27 322)">Semibold</text>
  <text style="stroke:none;fill:black;font-family:sans-serif;font-size:13;text-anchor:middle;" transform="matrix(1 0 0 1 2339.98 322)">Bold</text>
  <text style="stroke:none;fill:black;font-family:sans-serif;font-size:13;text-anchor:middle;" transform="matrix(1 0 0 1 2636.69 322)">Heavy</text>
  <text style="stroke:none;fill:black;font-family:sans-serif;font-size:13;text-anchor:middle;" transform="matrix(1 0 0 1 2933.4 322)">Black</text>
  <line style="fill:none;stroke:black;opacity:1;stroke-width:0.5;" x1="263" x2="3036" y1="1903" y2="1903"/>
  <g transform="matrix(1 0 0 1 263 1933)">
   <path d="M9.24805 0.830078C13.5547 0.830078 17.1387-2.74414 17.1387-7.05078C17.1387-11.3574 13.5449-14.9316 9.23828-14.9316C4.94141-14.9316 1.36719-11.3574 1.36719-7.05078C1.36719-2.74414 4.95117 0.830078 9.24805 0.830078ZM9.24805-0.654297C5.70312-0.654297 2.87109-3.49609 2.87109-7.05078C2.87109-10.6055 5.69336-13.4473 9.23828-13.4473C12.793-13.4473 15.6445-10.6055 15.6445-7.05078C15.6445-3.49609 12.8027-0.654297 9.24805-0.654297ZM5.6543-7.05078C5.6543-6.62109 5.95703-6.32812 6.40625-6.32812L8.50586-6.32812L8.50586-4.20898C8.50586-3.76953 8.79883-3.4668 9.22852-3.4668C9.67773-3.4668 9.9707-3.76953 9.9707-4.20898L9.9707-6.32812L12.0898-6.32812C12.5293-6.32812 12.832-6.62109 12.832-7.05078C12.832-7.49023 12.5293-7.79297 12.0898-7.79297L9.9707-7.79297L9.9707-9.90234C9.9707-10.3516 9.67773-10.6543 9.22852-10.6543C8.79883-10.6543 8.50586-10.3516 8.50586-9.90234L8.50586-7.79297L6.40625-7.79297C5.95703-7.79297 5.6543-7.49023 5.6543-7.05078Z"/>
  </g>
  <g transform="matrix(1 0 0 1 281.867 1933)">
   <path d="M11.709 2.91016C17.1582 2.91016 21.6699-1.61133 21.6699-7.05078C21.6699-12.5 17.1484-17.0117 11.6992-17.0117C6.25977-17.0117 1.74805-12.5 1.74805-7.05078C1.74805-1.61133 6.26953 2.91016 11.709 2.91016ZM11.709 1.25C7.09961 1.25 3.41797-2.44141 3.41797-7.05078C3.41797-11.6602 7.08984-15.3516 11.6992-15.3516C16.3086-15.3516 20.0098-11.6602 20.0098-7.05078C20.0098-2.44141 16.3184 1.25 11.709 1.25ZM7.17773-7.05078C7.17773-6.57227 7.50977-6.25 8.00781-6.25L10.8789-6.25L10.8789-3.36914C10.8789-2.88086 11.2109-2.53906 11.6895-2.53906C12.1777-2.53906 12.5195-2.87109 12.5195-3.36914L12.5195-6.25L15.4004-6.25C15.8887-6.25 16.2305-6.57227 16.2305-7.05078C16.2305-7.53906 15.8887-7.88086 15.4004-7.88086L12.5195-7.88086L12.5195-10.752C12.5195-11.25 12.1777-11.5918 11.6895-11.5918C11.2109-11.5918 10.8789-11.25 10.8789-10.752L10.8789-7.88086L8.00781-7.88086C7.50977-7.88086 7.17773-7.53906 7.17773-7.05078Z"/>
  </g>
  <g transform="matrix(1 0 0 1 305.646 1933)">
   <path d="M14.9707 5.66406C21.9336 5.66406 27.6953-0.0976562 27.6953-7.05078C27.6953-14.0137 21.9238-19.7754 14.9609-19.7754C8.00781-19.7754 2.25586-14.0137 2.25586-7.05078C2.25586-0.0976562 8.01758 5.66406 14.9707 5.66406ZM14.9707 3.84766C8.93555 3.84766 4.08203-1.01562 4.08203-7.05078C4.08203-13.0957 8.92578-17.9492 14.9609-17.9492C21.0059-17.9492 25.8691-13.0957 25.8691-7.05078C25.8691-1.01562 21.0156 3.84766 14.9707 3.84766ZM9.19922-7.05078C9.19922-6.5332 9.57031-6.17188 10.1172-6.17188L14.0625-6.17188L14.0625-2.2168C14.0625-1.67969 14.4336-1.29883 14.9512-1.29883C15.4883-1.29883 15.8594-1.66992 15.8594-2.2168L15.8594-6.17188L19.8145-6.17188C20.3516-6.17188 20.7324-6.5332 20.7324-7.05078C20.7324-7.59766 20.3613-7.96875 19.8145-7.96875L15.8594-7.96875L15.8594-11.9141C15.8594-12.4609 15.4883-12.8418 14.9512-12.8418C14.4336-12.8418 14.0625-12.4609 14.0625-11.9141L14.0625-7.96875L10.1172-7.96875C9.57031-7.96875 9.19922-7.59766 9.19922-7.05078Z"/>
  </g>
  <text style="stroke:none;fill:black;font-family:sans-serif;font-size:13;font-weight:bold;" transform="matrix(1 0 0 1 263 1953)">Design Variations</text>
  <text style="stroke:none;fill:black;font-family:sans-serif;font-size:13;" transform="matrix(1 0 0 1 263 1971)">Symbols are supported in up to nine weights and three scales.</text>
  <text style="stroke:none;fill:black;font-family:sans-serif;font-size:13;" transform="matrix(1 0 0 1 263 1989)">For optimal layout with text and other symbols, vertically align</text>
  <text style="stroke:none;fill:black;font-family:sans-serif;font-size:13;" transform="matrix(1 0 0 1 263 2007)">symbols with the adjacent text.</text>
  <line style="fill:none;stroke:#00AEEF;stroke-width:0.5;opacity:1.0;" x1="776" x2="776" y1="1919" y2="1933"/>
  <g transform="matrix(1 0 0 1 776 1933)">
   <path d="M3.31055 0.15625C3.82812 0.15625 4.08203-0.0390625 4.26758-0.585938L5.52734-4.0332L11.2891-4.0332L12.5488-0.585938C12.7344-0.0390625 12.9883 0.15625 13.4961 0.15625C14.0137 0.15625 14.3457-0.15625 14.3457-0.644531C14.3457-0.810547 14.3164-0.966797 14.2383-1.17188L9.6582-13.3691C9.43359-13.9648 9.0332-14.2676 8.4082-14.2676C7.80273-14.2676 7.39258-13.9746 7.17773-13.3789L2.59766-1.16211C2.51953-0.957031 2.49023-0.800781 2.49023-0.634766C2.49023-0.146484 2.80273 0.15625 3.31055 0.15625ZM6.00586-5.51758L8.37891-12.0898L8.42773-12.0898L10.8008-5.51758Z"/>
  </g>
  <line style="fill:none;stroke:#00AEEF;stroke-width:0.5;opacity:1.0;" x1="793.197" x2="793.197" y1="1919" y2="1933"/>
  <text style="stroke:none;fill:black;font-family:sans-serif;font-size:13;font-weight:bold;" transform="matrix(1 0 0 1 776 1953)">Margins</text>
  <text style="stroke:none;fill:black;font-family:sans-serif;font-size:13;" transform="matrix(1 0 0 1 776 1971)">Leading and trailing margins on the left and right side of each symbol</text>
  <text style="stroke:none;fill:black;font-family:sans-serif;font-size:13;" transform="matrix(1 0 0 1 776 1989)">can be adjusted by modifying the x-location of the margin guidelines.</text>
  <text style="stroke:none;fill:black;font-family:sans-serif;font-size:13;" transform="matrix(1 0 0 1 776 2007)">Modifications are automatically applied proportionally to all</text>
  <text style="stroke:none;fill:black;font-family:sans-serif;font-size:13;" transform="matrix(1 0 0 1 776 2025)">scales and weights.</text>
  <g transform="matrix(1 0 0 1 1289 1933)">
   <path d="M2.8418 1.86523L4.54102 3.57422C5.40039 4.44336 6.38672 4.38477 7.31445 3.35938L18.0078-8.42773L17.041-9.4043L6.42578 2.27539C6.07422 2.67578 5.74219 2.77344 5.27344 2.30469L4.10156 1.14258C3.63281 0.683594 3.74023 0.341797 4.14062-0.0195312L15.6152-10.8203L14.6387-11.7871L3.04688-0.898438C2.06055 0.0195312 1.98242 0.996094 2.8418 1.86523ZM9.25781-16.3281C8.83789-15.918 8.80859-15.3418 9.04297-14.9512C9.27734-14.5898 9.73633-14.3555 10.3809-14.5215C11.8457-14.8633 13.3691-14.9219 14.7949-13.9844L14.209-12.5293C13.8672-11.6992 14.043-11.1133 14.5801-10.5664L16.875-8.25195C17.3633-7.76367 17.7734-7.74414 18.3398-7.8418L19.4043-8.03711L20.0684-7.36328L20.0293-6.80664C19.9902-6.30859 20.1172-5.92773 20.6055-5.44922L21.3672-4.70703C21.8457-4.22852 22.4609-4.19922 22.9297-4.66797L25.8398-7.58789C26.3086-8.05664 26.2891-8.65234 25.8105-9.13086L25.0391-9.89258C24.5605-10.3711 24.1895-10.5273 23.7109-10.4883L23.1348-10.4395L22.4902-11.0742L22.7344-12.1973C22.8613-12.7637 22.7051-13.2031 22.1191-13.7891L19.9219-15.9766C16.582-19.2969 12.1484-19.2188 9.25781-16.3281ZM10.752-15.957C13.1836-17.7344 16.4746-17.4316 18.7012-15.2051L21.1328-12.793C21.3672-12.5586 21.4062-12.373 21.3379-12.0312L21.0156-10.5469L22.5195-9.0625L23.5059-9.12109C23.7598-9.13086 23.8379-9.11133 24.0332-8.91602L24.6094-8.33984L22.168-5.89844L21.5918-6.47461C21.3965-6.66992 21.3672-6.74805 21.377-7.01172L21.4453-7.98828L19.9512-9.47266L18.4277-9.21875C18.1055-9.15039 17.959-9.17969 17.7148-9.41406L15.7129-11.416C15.459-11.6504 15.4297-11.8164 15.5859-12.1875L16.4648-14.2773C14.9023-15.7324 12.8711-16.3574 10.8398-15.7617C10.6836-15.7227 10.625-15.8496 10.752-15.957Z"/>
  </g>
  <text style="stroke:none;fill:black;font-family:sans-serif;font-size:13;font-weight:bold;" transform="matrix(1 0 0 1 1289 1953)">Exporting</text>
  <text style="stroke:none;fill:black;font-family:sans-serif;font-size:13;" transform="matrix(1 0 0 1 1289 1971)">Symbols should be outlined when exporting to ensure the</text>
  <text style="stroke:none;fill:black;font-family:sans-serif;font-size:13;" transform="matrix(1 0 0 1 1289 1989)">design is preserved when submitting to Xcode.</text>
  <text id="template-version" style="stroke:none;fill:black;font-family:sans-serif;font-size:13;text-anchor:end;" transform="matrix(1 0 0 1 3036 1933)">Template v.4.0</text>
  <text style="stroke:none;fill:black;font-family:sans-serif;font-size:13;text-anchor:end;" transform="matrix(1 0 0 1 3036 1951)">Requires Xcode 14 or greater</text>
  <text id="descriptive-name" style="stroke:none;fill:black;font-family:sans-serif;font-size:13;text-anchor:end;" transform="matrix(1 0 0 1 3036 1969)">Generated from stove</text>
  <text style="stroke:none;fill:black;font-family:sans-serif;font-size:13;text-anchor:end;" transform="matrix(1 0 0 1 3036 1987)">Typeset at 100 points</text>
  <text style="stroke:none;fill:black;font-family:sans-serif;font-size:13;" transform="matrix(1 0 0 1 263 726)">Small</text>
  <text style="stroke:none;fill:black;font-family:sans-serif;font-size:13;" transform="matrix(1 0 0 1 263 1156)">Medium</text>
  <text style="stroke:none;fill:black;font-family:sans-serif;font-size:13;" transform="matrix(1 0 0 1 263 1586)">Large</text>
 </g>
 <g id="Guides">
  <g id="H-reference" style="fill:#27AAE1;stroke:none;" transform="matrix(1 0 0 1 339 696)">
   <path d="M0.993654 0L3.63775 0L29.3281-67.1323L30.0303-67.1323L30.0303-70.459L28.1226-70.459ZM11.6885-24.4799L46.9815-24.4799L46.2315-26.7285L12.4385-26.7285ZM55.1196 0L57.7637 0L30.6382-70.459L29.4326-70.459L29.4326-67.1323Z"/>
  </g>
  <line id="Baseline-S" style="fill:none;stroke:#27AAE1;opacity:1;stroke-width:0.5;" x1="263" x2="3036" y1="696" y2="696"/>
  <line id="Capline-S" style="fill:none;stroke:#27AAE1;opacity:1;stroke-width:0.5;" x1="263" x2="3036" y1="625.541" y2="625.541"/>
  <g id="H-reference" style="fill:#27AAE1;stroke:none;" transform="matrix(1 0 0 1 339 1126)">
   <path d="M0.993654 0L3.63775 0L29.3281-67.1323L30.0303-67.1323L30.0303-70.459L28.1226-70.459ZM11.6885-24.4799L46.9815-24.4799L46.2315-26.7285L12.4385-26.7285ZM55.1196 0L57.7637 0L30.6382-70.459L29.4326-70.459L29.4326-67.1323Z"/>
  </g>
  <line id="Baseline-M" style="fill:none;stroke:#27AAE1;opacity:1;stroke-width:0.5;" x1="263" x2="3036" y1="1126" y2="1126"/>
  <line id="Capline-M" style="fill:none;stroke:#27AAE1;opacity:1;stroke-width:0.5;" x1="263" x2="3036" y1="1055.54" y2="1055.54"/>
  <g id="H-reference" style="fill:#27AAE1;stroke:none;" transform="matrix(1 0 0 1 339 1556)">
   <path d="M0.993654 0L3.63775 0L29.3281-67.1323L30.0303-67.1323L30.0303-70.459L28.1226-70.459ZM11.6885-24.4799L46.9815-24.4799L46.2315-26.7285L12.4385-26.7285ZM55.1196 0L57.7637 0L30.6382-70.459L29.4326-70.459L29.4326-67.1323Z"/>
  </g>
  <line id="Baseline-L" style="fill:none;stroke:#27AAE1;opacity:1;stroke-width:0.5;" x1="263" x2="3036" y1="1556" y2="1556"/>
  <line id="Capline-L" style="fill:none;stroke:#27AAE1;opacity:1;stroke-width:0.5;" x1="263" x2="3036" y1="1485.54" y2="1485.54"/>
  <line id="left-margin-Ultralight-S" style="fill:none;stroke:#00AEEF;stroke-width:0.5;opacity:1.0;" x1="516.578" x2="516.578" y1="600.785" y2="720.121"/>
  <line id="right-margin-Ultralight-S" style="fill:none;stroke:#00AEEF;stroke-width:0.5;opacity:1.0;" x1="602.845" x2="602.845" y1="600.785" y2="720.121"/>
  <line id="left-margin-Regular-S" style="fill:none;stroke:#00AEEF;stroke-width:0.5;opacity:1.0;" x1="1401.6" x2="1401.6" y1="600.785" y2="720.121"/>
  <line id="right-margin-Regular-S" style="fill:none;stroke:#00AEEF;stroke-width:0.5;opacity:1.0;" x1="1498.09" x2="1498.09" y1="600.785" y2="720.121"/>
  <line id="left-margin-Black-S" style="fill:none;stroke:#00AEEF;stroke-width:0.5;opacity:1.0;" x1="2878.47" x2="2878.47" y1="600.785" y2="720.121"/>
  <line id="right-margin-Black-S" style="fill:none;stroke:#00AEEF;stroke-width:0.5;opacity:1.0;" x1="2988.33" x2="2988.33" y1="600.785" y2="720.121"/>
 </g>
 <g id="Symbols">
  <g id="Black-S" transform="matrix(1 0 0 1 2878.47 696)">
   <path class="monochrome-0 SFSymbolsPreview000000" d="M22.2168-1.36719L87.5977-1.36719C94.9219-1.36719 100.098-6.64062 100.098-14.0625L100.098-67.0898C100.098-74.5117 94.9219-79.7852 87.5977-79.7852L22.2168-79.7852C14.8926-79.7852 9.76562-74.5117 9.76562-67.0898L9.76562-14.0625C9.76562-6.64062 14.8926-1.36719 22.2168-1.36719ZM24.0723-14.0625C23.1445-14.0625 22.5098-14.6973 22.5098-15.625L22.5098-65.5273C22.5098-66.4551 23.1445-67.0898 24.0723-67.0898L86.2305-67.0898C86.9141-67.0898 87.3535-66.6504 87.3535-66.0156L87.3535-15.1367C87.3535-14.502 86.9141-14.0625 86.2305-14.0625ZM31.1035-18.2129L78.8086-18.2129C80.9082-18.2129 82.2754-19.5801 82.2754-21.6797L82.2754-36.3281C82.2754-38.4277 80.9082-39.7949 78.8086-39.7949L31.1035-39.7949C29.0039-39.7949 27.6367-38.4277 27.6367-36.3281L27.6367-21.6797C27.6367-19.5801 29.0039-18.2129 31.1035-18.2129ZM35.2051-25.0488C34.8145-25.0488 34.4727-25.3906 34.4727-25.7812L34.4727-32.7148C34.4727-33.1055 34.8145-33.4473 35.2051-33.4473L74.707-33.4473C75.0977-33.4473 75.4395-33.1055 75.4395-32.7148L75.4395-25.7812C75.4395-25.3906 75.0977-25.0488 74.707-25.0488ZM19.5312-42.9688L90.3809-42.9688L90.3809-50.7812L19.5312-50.7812ZM82.8125 9.22852C86.084 9.22852 88.4277 6.88477 88.4277 3.61328L88.4277-6.49414L77.1973-6.49414L77.1973 3.61328C77.1973 6.88477 79.541 9.22852 82.8125 9.22852ZM27.0508 9.22852C30.3223 9.22852 32.666 6.88477 32.666 3.61328L32.666-6.49414L21.4355-6.49414L21.4355 3.61328C21.4355 6.88477 23.7793 9.22852 27.0508 9.22852ZM76.2695-53.4668C79.0527-53.4668 81.3965-55.7129 81.3965-58.5449C81.3965-61.4258 79.0527-63.6719 76.2695-63.6719C73.4863-63.6719 71.0938-61.4258 71.0938-58.5449C71.0938-55.7129 73.4863-53.4668 76.2695-53.4668ZM47.8516-53.4668C50.6348-53.4668 52.9785-55.7129 52.9785-58.5449C52.9785-61.4258 50.6348-63.6719 47.8516-63.6719C45.0684-63.6719 42.6758-61.4258 42.6758-58.5449C42.6758-55.7129 45.0684-53.4668 47.8516-53.4668ZM62.0117-53.4668C64.7949-53.4668 67.1875-55.7129 67.1875-58.5449C67.1875-61.4258 64.7949-63.6719 62.0117-63.6719C59.2285-63.6719 56.8848-61.4258 56.8848-58.5449C56.8848-55.7129 59.2285-53.4668 62.0117-53.4668ZM33.5938-53.4668C36.377-53.4668 38.7695-55.7129 38.7695-58.5449C38.7695-61.4258 36.377-63.6719 33.5938-63.6719C30.8105-63.6719 28.4668-61.4258 28.4668-58.5449C28.4668-55.7129 30.8105-53.4668 33.5938-53.4668Z"/>
  </g>
  <g id="Regular-S" transform="matrix(1 0 0 1 1401.6 696)">
   <path class="monochrome-0 SFSymbolsPreview000000" d="M19.2871-3.80859L77.1973-3.80859C82.9102-3.80859 86.7188-7.56836 86.7188-13.1836L86.7188-64.502C86.7188-70.0684 82.9102-73.8281 77.1973-73.8281L19.2871-73.8281C13.5742-73.8281 9.76562-70.0684 9.76562-64.502L9.76562-13.1836C9.76562-7.56836 13.5742-3.80859 19.2871-3.80859ZM19.3359-10.8398C17.8223-10.8398 16.7969-11.9141 16.7969-13.5254L16.7969-64.1113C16.7969-65.7227 17.8223-66.7969 19.3359-66.7969L77.0996-66.7969C78.6621-66.7969 79.6875-65.7227 79.6875-64.1113L79.6875-13.5254C79.6875-11.9141 78.6621-10.8398 77.0996-10.8398ZM25.4395-15.0879L71.0449-15.0879C73.1934-15.0879 74.5605-16.4551 74.5605-18.6035L74.5605-39.8926C74.5605-41.9922 73.1934-43.3594 71.0449-43.3594L25.4395-43.3594C23.3398-43.3594 21.9727-41.9922 21.9727-39.8926L21.9727-18.6035C21.9727-16.4551 23.3398-15.0879 25.4395-15.0879ZM27.4902-19.8242C27.0508-19.8242 26.709-20.166 26.709-20.6055L26.709-37.8418C26.709-38.2812 27.0508-38.6719 27.4902-38.6719L69.043-38.6719C69.4824-38.6719 69.8242-38.2812 69.8242-37.8418L69.8242-20.6055C69.8242-20.166 69.4824-19.8242 69.043-19.8242ZM13.9648-47.6074L82.5684-47.6074L82.5684-53.2715L13.9648-53.2715ZM75.0488 3.27148C77.1973 3.27148 78.6133 1.9043 78.6133-0.244141L78.6133-8.25195L71.5332-8.25195L71.5332-0.244141C71.5332 1.9043 72.9492 3.27148 75.0488 3.27148ZM21.3867 3.27148C23.5352 3.27148 24.9023 1.9043 24.9023-0.244141L24.9023-8.25195L17.8711-8.25195L17.8711-0.244141C17.8711 1.9043 19.2871 3.27148 21.3867 3.27148ZM68.1641-56.25C70.3125-56.25 72.1191-58.0078 72.1191-60.1074C72.1191-62.3047 70.3125-64.0137 68.1641-64.0137C66.0645-64.0137 64.2578-62.3047 64.2578-60.1074C64.2578-58.0078 66.0645-56.25 68.1641-56.25ZM41.6504-56.25C43.75-56.25 45.5566-58.0078 45.5566-60.1074C45.5566-62.3047 43.75-64.0137 41.6504-64.0137C39.502-64.0137 37.6953-62.3047 37.6953-60.1074C37.6953-58.0078 39.502-56.25 41.6504-56.25ZM54.8828-56.25C57.0312-56.25 58.8379-58.0078 58.8379-60.1074C58.8379-62.3047 57.0312-64.0137 54.8828-64.0137C52.7832-64.0137 50.9766-62.3047 50.9766-60.1074C50.9766-58.0078 52.7832-56.25 54.8828-56.25ZM28.3691-56.25C30.5176-56.25 32.2754-58.0078 32.2754-60.1074C32.2754-62.3047 30.5176-64.0137 28.3691-64.0137C26.2207-64.0137 24.4629-62.3047 24.4629-60.1074C24.4629-58.0078 26.2207-56.25 28.3691-56.25Z"/>
  </g>
  <g id="Ultralight-S" transform="matrix(1 0 0 1 516.578 696)">
   <path class="monochrome-0 SFSymbolsPreview000000" d="M16.5171-8.07711L69.7501-8.07711C73.8282-8.07711 76.5015-11.0195 76.5015-15.4087L76.5015-60.8692C76.5015-65.3003 73.8282-68.1973 69.7501-68.1973L16.5171-68.1973C12.439-68.1973 9.76562-65.3003 9.76562-60.8692L9.76562-15.4087C9.76562-11.0195 12.439-8.07711 16.5171-8.07711ZM16.4297-10.2949C13.7354-10.2949 11.9834-12.2773 11.9834-15.3418L11.9834-60.9326C11.9834-63.9971 13.7354-66.0249 16.4297-66.0249L69.8795-66.0249C72.5318-66.0249 74.2837-63.9971 74.2837-60.9326L74.2837-15.3418C74.2837-12.2773 72.5318-10.2949 69.8795-10.2949ZM21.4434-16.0415L64.7784-16.0415C67.1993-16.0415 68.7027-17.6357 68.7027-20.0566L68.7027-38.1216C68.7027-40.5391 67.1993-42.0879 64.7784-42.0879L21.4434-42.0879C19.0259-42.0879 17.5225-40.5391 17.5225-38.1216L17.5225-20.0566C17.5225-17.6357 19.0259-16.0415 21.4434-16.0415ZM21.5416-18.1441C20.3755-18.1441 19.6251-18.8945 19.6251-20.1514L19.6251-38.0234C19.6251-39.2349 20.3755-40.0342 21.5416-40.0342L64.6836-40.0342C65.8496-40.0342 66.6001-39.2349 66.6001-38.0234L66.6001-20.1514C66.6001-18.8945 65.8496-18.1441 64.6836-18.1441ZM11.2857-47.8799L74.9849-47.8799L74.9849-50.002L11.2857-50.002ZM68.7369-2.2231C69.3414-2.2231 69.8492-2.68209 69.8492-3.2866L69.8492-9.25097L67.628-9.25097L67.628-3.2866C67.628-2.68209 68.1358-2.2231 68.7369-2.2231ZM17.5269-2.2231C18.1314-2.2231 18.6358-2.68209 18.6358-3.2866L18.6358-9.25097L16.418-9.25097L16.418-3.2866C16.418-2.68209 16.9258-2.2231 17.5269-2.2231ZM62.5787-54.5244C64.4546-54.5244 65.898-55.9644 65.898-57.7915C65.898-59.6709 64.4546-61.1074 62.5787-61.1074C60.7061-61.1074 59.3081-59.6709 59.3081-57.7915C59.3081-55.9644 60.7061-54.5244 62.5787-54.5244ZM36.3374-54.5244C38.21-54.5244 39.6534-55.9644 39.6534-57.7915C39.6534-59.6709 38.21-61.1074 36.3374-61.1074C34.5069-61.1074 33.0635-59.6709 33.0635-57.7915C33.0635-55.9644 34.5069-54.5244 36.3374-54.5244ZM49.4336-54.5244C51.3096-54.5244 52.753-55.9644 52.753-57.7915C52.753-59.6709 51.3096-61.1074 49.4336-61.1074C47.6065-61.1074 46.1631-59.6709 46.1631-57.7915C46.1631-55.9644 47.6065-54.5244 49.4336-54.5244ZM23.2378-54.5244C25.0684-54.5244 26.5083-55.9644 26.5083-57.7915C26.5083-59.6709 25.0684-61.1074 23.2378-61.1074C21.3619-61.1074 19.9219-59.6709 19.9219-57.7915C19.9219-55.9644 21.3619-54.5244 23.2378-54.5244Z"/>
  </g>
 </g>
</svg>
