<?xml version="1.0" encoding="UTF-8"?>
<!--Generator: Apple Native CoreSVG 175.5-->
<!DOCTYPE svg
PUBLIC "-//W3C//DTD SVG 1.1//EN"
       "http://www.w3.org/Graphics/SVG/1.1/DTD/svg11.dtd">
<svg version="1.1" xmlns="http://www.w3.org/2000/svg" xmlns:xlink="http://www.w3.org/1999/xlink" width="3300" height="2200">
 <!--glyph: "uni1014BE.medium", point size: 100.0, font version: "18.0d11e1", template writer version: "90"-->
 <style>.monochrome-0 {fill:#000000}

.SFSymbolsPreview000000 {fill:#000000;opacity:1.0}
</style>
 <g id="Notes">
  <rect height="2200" id="artboard" style="fill:white;opacity:1" width="3300" x="0" y="0"/>
  <line style="fill:none;stroke:black;opacity:1;stroke-width:0.5;" x1="263" x2="3036" y1="292" y2="292"/>
  <text style="stroke:none;fill:black;font-family:sans-serif;font-size:13;font-weight:bold;" transform="matrix(1 0 0 1 263 322)">Weight/Scale Variations</text>
  <text style="stroke:none;fill:black;font-family:sans-serif;font-size:13;text-anchor:middle;" transform="matrix(1 0 0 1 559.711 322)">Ultralight</text>
  <text style="stroke:none;fill:black;font-family:sans-serif;font-size:13;text-anchor:middle;" transform="matrix(1 0 0 1 856.422 322)">Thin</text>
  <text style="stroke:none;fill:black;font-family:sans-serif;font-size:13;text-anchor:middle;" transform="matrix(1 0 0 1 1153.13 322)">Light</text>
  <text style="stroke:none;fill:black;font-family:sans-serif;font-size:13;text-anchor:middle;" transform="matrix(1 0 0 1 1449.84 322)">Regular</text>
  <text style="stroke:none;fill:black;font-family:sans-serif;font-size:13;text-anchor:middle;" transform="matrix(1 0 0 1 1746.56 322)">Medium</text>
  <text style="stroke:none;fill:black;font-family:sans-serif;font-size:13;text-anchor:middle;" transform="matrix(1 0 0 1 2043.27 322)">Semibold</text>
  <text style="stroke:none;fill:black;font-family:sans-serif;font-size:13;text-anchor:middle;" transform="matrix(1 0 0 1 2339.98 322)">Bold</text>
  <text style="stroke:none;fill:black;font-family:sans-serif;font-size:13;text-anchor:middle;" transform="matrix(1 0 0 1 2636.69 322)">Heavy</text>
  <text style="stroke:none;fill:black;font-family:sans-serif;font-size:13;text-anchor:middle;" transform="matrix(1 0 0 1 2933.4 322)">Black</text>
  <line style="fill:none;stroke:black;opacity:1;stroke-width:0.5;" x1="263" x2="3036" y1="1903" y2="1903"/>
  <g transform="matrix(1 0 0 1 263 1933)">
   <path d="M9.24805 0.830078C13.5547 0.830078 17.1387-2.74414 17.1387-7.05078C17.1387-11.3574 13.5449-14.9316 9.23828-14.9316C4.94141-14.9316 1.36719-11.3574 1.36719-7.05078C1.36719-2.74414 4.95117 0.830078 9.24805 0.830078ZM9.24805-0.654297C5.70312-0.654297 2.87109-3.49609 2.87109-7.05078C2.87109-10.6055 5.69336-13.4473 9.23828-13.4473C12.793-13.4473 15.6445-10.6055 15.6445-7.05078C15.6445-3.49609 12.8027-0.654297 9.24805-0.654297ZM5.6543-7.05078C5.6543-6.62109 5.95703-6.32812 6.40625-6.32812L8.50586-6.32812L8.50586-4.20898C8.50586-3.76953 8.79883-3.4668 9.22852-3.4668C9.67773-3.4668 9.9707-3.76953 9.9707-4.20898L9.9707-6.32812L12.0898-6.32812C12.5293-6.32812 12.832-6.62109 12.832-7.05078C12.832-7.49023 12.5293-7.79297 12.0898-7.79297L9.9707-7.79297L9.9707-9.90234C9.9707-10.3516 9.67773-10.6543 9.22852-10.6543C8.79883-10.6543 8.50586-10.3516 8.50586-9.90234L8.50586-7.79297L6.40625-7.79297C5.95703-7.79297 5.6543-7.49023 5.6543-7.05078Z"/>
  </g>
  <g transform="matrix(1 0 0 1 281.867 1933)">
   <path d="M11.709 2.91016C17.1582 2.91016 21.6699-1.61133 21.6699-7.05078C21.6699-12.5 17.1484-17.0117 11.6992-17.0117C6.25977-17.0117 1.74805-12.5 1.74805-7.05078C1.74805-1.61133 6.26953 2.91016 11.709 2.91016ZM11.709 1.25C7.09961 1.25 3.41797-2.44141 3.41797-7.05078C3.41797-11.6602 7.08984-15.3516 11.6992-15.3516C16.3086-15.3516 20.0098-11.6602 20.0098-7.05078C20.0098-2.44141 16.3184 1.25 11.709 1.25ZM7.17773-7.05078C7.17773-6.57227 7.50977-6.25 8.00781-6.25L10.8789-6.25L10.8789-3.36914C10.8789-2.88086 11.2109-2.53906 11.6895-2.53906C12.1777-2.53906 12.5195-2.87109 12.5195-3.36914L12.5195-6.25L15.4004-6.25C15.8887-6.25 16.2305-6.57227 16.2305-7.05078C16.2305-7.53906 15.8887-7.88086 15.4004-7.88086L12.5195-7.88086L12.5195-10.752C12.5195-11.25 12.1777-11.5918 11.6895-11.5918C11.2109-11.5918 10.8789-11.25 10.8789-10.752L10.8789-7.88086L8.00781-7.88086C7.50977-7.88086 7.17773-7.53906 7.17773-7.05078Z"/>
  </g>
  <g transform="matrix(1 0 0 1 305.646 1933)">
   <path d="M14.9707 5.66406C21.9336 5.66406 27.6953-0.0976562 27.6953-7.05078C27.6953-14.0137 21.9238-19.7754 14.9609-19.7754C8.00781-19.7754 2.25586-14.0137 2.25586-7.05078C2.25586-0.0976562 8.01758 5.66406 14.9707 5.66406ZM14.9707 3.84766C8.93555 3.84766 4.08203-1.01562 4.08203-7.05078C4.08203-13.0957 8.92578-17.9492 14.9609-17.9492C21.0059-17.9492 25.8691-13.0957 25.8691-7.05078C25.8691-1.01562 21.0156 3.84766 14.9707 3.84766ZM9.19922-7.05078C9.19922-6.5332 9.57031-6.17188 10.1172-6.17188L14.0625-6.17188L14.0625-2.2168C14.0625-1.67969 14.4336-1.29883 14.9512-1.29883C15.4883-1.29883 15.8594-1.66992 15.8594-2.2168L15.8594-6.17188L19.8145-6.17188C20.3516-6.17188 20.7324-6.5332 20.7324-7.05078C20.7324-7.59766 20.3613-7.96875 19.8145-7.96875L15.8594-7.96875L15.8594-11.9141C15.8594-12.4609 15.4883-12.8418 14.9512-12.8418C14.4336-12.8418 14.0625-12.4609 14.0625-11.9141L14.0625-7.96875L10.1172-7.96875C9.57031-7.96875 9.19922-7.59766 9.19922-7.05078Z"/>
  </g>
  <text style="stroke:none;fill:black;font-family:sans-serif;font-size:13;font-weight:bold;" transform="matrix(1 0 0 1 263 1953)">Design Variations</text>
  <text style="stroke:none;fill:black;font-family:sans-serif;font-size:13;" transform="matrix(1 0 0 1 263 1971)">Symbols are supported in up to nine weights and three scales.</text>
  <text style="stroke:none;fill:black;font-family:sans-serif;font-size:13;" transform="matrix(1 0 0 1 263 1989)">For optimal layout with text and other symbols, vertically align</text>
  <text style="stroke:none;fill:black;font-family:sans-serif;font-size:13;" transform="matrix(1 0 0 1 263 2007)">symbols with the adjacent text.</text>
  <line style="fill:none;stroke:#00AEEF;stroke-width:0.5;opacity:1.0;" x1="776" x2="776" y1="1919" y2="1933"/>
  <g transform="matrix(1 0 0 1 776 1933)">
   <path d="M3.31055 0.15625C3.82812 0.15625 4.08203-0.0390625 4.26758-0.585938L5.52734-4.0332L11.2891-4.0332L12.5488-0.585938C12.7344-0.0390625 12.9883 0.15625 13.4961 0.15625C14.0137 0.15625 14.3457-0.15625 14.3457-0.644531C14.3457-0.810547 14.3164-0.966797 14.2383-1.17188L9.6582-13.3691C9.43359-13.9648 9.0332-14.2676 8.4082-14.2676C7.80273-14.2676 7.39258-13.9746 7.17773-13.3789L2.59766-1.16211C2.51953-0.957031 2.49023-0.800781 2.49023-0.634766C2.49023-0.146484 2.80273 0.15625 3.31055 0.15625ZM6.00586-5.51758L8.37891-12.0898L8.42773-12.0898L10.8008-5.51758Z"/>
  </g>
  <line style="fill:none;stroke:#00AEEF;stroke-width:0.5;opacity:1.0;" x1="793.197" x2="793.197" y1="1919" y2="1933"/>
  <text style="stroke:none;fill:black;font-family:sans-serif;font-size:13;font-weight:bold;" transform="matrix(1 0 0 1 776 1953)">Margins</text>
  <text style="stroke:none;fill:black;font-family:sans-serif;font-size:13;" transform="matrix(1 0 0 1 776 1971)">Leading and trailing margins on the left and right side of each symbol</text>
  <text style="stroke:none;fill:black;font-family:sans-serif;font-size:13;" transform="matrix(1 0 0 1 776 1989)">can be adjusted by modifying the x-location of the margin guidelines.</text>
  <text style="stroke:none;fill:black;font-family:sans-serif;font-size:13;" transform="matrix(1 0 0 1 776 2007)">Modifications are automatically applied proportionally to all</text>
  <text style="stroke:none;fill:black;font-family:sans-serif;font-size:13;" transform="matrix(1 0 0 1 776 2025)">scales and weights.</text>
  <g transform="matrix(1 0 0 1 1289 1933)">
   <path d="M2.8418 1.86523L4.54102 3.57422C5.40039 4.44336 6.38672 4.38477 7.31445 3.35938L18.0078-8.42773L17.041-9.4043L6.42578 2.27539C6.07422 2.67578 5.74219 2.77344 5.27344 2.30469L4.10156 1.14258C3.63281 0.683594 3.74023 0.341797 4.14062-0.0195312L15.6152-10.8203L14.6387-11.7871L3.04688-0.898438C2.06055 0.0195312 1.98242 0.996094 2.8418 1.86523ZM9.25781-16.3281C8.83789-15.918 8.80859-15.3418 9.04297-14.9512C9.27734-14.5898 9.73633-14.3555 10.3809-14.5215C11.8457-14.8633 13.3691-14.9219 14.7949-13.9844L14.209-12.5293C13.8672-11.6992 14.043-11.1133 14.5801-10.5664L16.875-8.25195C17.3633-7.76367 17.7734-7.74414 18.3398-7.8418L19.4043-8.03711L20.0684-7.36328L20.0293-6.80664C19.9902-6.30859 20.1172-5.92773 20.6055-5.44922L21.3672-4.70703C21.8457-4.22852 22.4609-4.19922 22.9297-4.66797L25.8398-7.58789C26.3086-8.05664 26.2891-8.65234 25.8105-9.13086L25.0391-9.89258C24.5605-10.3711 24.1895-10.5273 23.7109-10.4883L23.1348-10.4395L22.4902-11.0742L22.7344-12.1973C22.8613-12.7637 22.7051-13.2031 22.1191-13.7891L19.9219-15.9766C16.582-19.2969 12.1484-19.2188 9.25781-16.3281ZM10.752-15.957C13.1836-17.7344 16.4746-17.4316 18.7012-15.2051L21.1328-12.793C21.3672-12.5586 21.4062-12.373 21.3379-12.0312L21.0156-10.5469L22.5195-9.0625L23.5059-9.12109C23.7598-9.13086 23.8379-9.11133 24.0332-8.91602L24.6094-8.33984L22.168-5.89844L21.5918-6.47461C21.3965-6.66992 21.3672-6.74805 21.377-7.01172L21.4453-7.98828L19.9512-9.47266L18.4277-9.21875C18.1055-9.15039 17.959-9.17969 17.7148-9.41406L15.7129-11.416C15.459-11.6504 15.4297-11.8164 15.5859-12.1875L16.4648-14.2773C14.9023-15.7324 12.8711-16.3574 10.8398-15.7617C10.6836-15.7227 10.625-15.8496 10.752-15.957Z"/>
  </g>
  <text style="stroke:none;fill:black;font-family:sans-serif;font-size:13;font-weight:bold;" transform="matrix(1 0 0 1 1289 1953)">Exporting</text>
  <text style="stroke:none;fill:black;font-family:sans-serif;font-size:13;" transform="matrix(1 0 0 1 1289 1971)">Symbols should be outlined when exporting to ensure the</text>
  <text style="stroke:none;fill:black;font-family:sans-serif;font-size:13;" transform="matrix(1 0 0 1 1289 1989)">design is preserved when submitting to Xcode.</text>
  <text id="template-version" style="stroke:none;fill:black;font-family:sans-serif;font-size:13;text-anchor:end;" transform="matrix(1 0 0 1 3036 1933)">Template v.4.0</text>
  <text style="stroke:none;fill:black;font-family:sans-serif;font-size:13;text-anchor:end;" transform="matrix(1 0 0 1 3036 1951)">Requires Xcode 14 or greater</text>
  <text id="descriptive-name" style="stroke:none;fill:black;font-family:sans-serif;font-size:13;text-anchor:end;" transform="matrix(1 0 0 1 3036 1969)">Generated from spigot</text>
  <text style="stroke:none;fill:black;font-family:sans-serif;font-size:13;text-anchor:end;" transform="matrix(1 0 0 1 3036 1987)">Typeset at 100 points</text>
  <text style="stroke:none;fill:black;font-family:sans-serif;font-size:13;" transform="matrix(1 0 0 1 263 726)">Small</text>
  <text style="stroke:none;fill:black;font-family:sans-serif;font-size:13;" transform="matrix(1 0 0 1 263 1156)">Medium</text>
  <text style="stroke:none;fill:black;font-family:sans-serif;font-size:13;" transform="matrix(1 0 0 1 263 1586)">Large</text>
 </g>
 <g id="Guides">
  <g id="H-reference" style="fill:#27AAE1;stroke:none;" transform="matrix(1 0 0 1 339 696)">
   <path d="M0.993654 0L3.63775 0L29.3281-67.1323L30.0303-67.1323L30.0303-70.459L28.1226-70.459ZM11.6885-24.4799L46.9815-24.4799L46.2315-26.7285L12.4385-26.7285ZM55.1196 0L57.7637 0L30.6382-70.459L29.4326-70.459L29.4326-67.1323Z"/>
  </g>
  <line id="Baseline-S" style="fill:none;stroke:#27AAE1;opacity:1;stroke-width:0.5;" x1="263" x2="3036" y1="696" y2="696"/>
  <line id="Capline-S" style="fill:none;stroke:#27AAE1;opacity:1;stroke-width:0.5;" x1="263" x2="3036" y1="625.541" y2="625.541"/>
  <g id="H-reference" style="fill:#27AAE1;stroke:none;" transform="matrix(1 0 0 1 339 1126)">
   <path d="M0.993654 0L3.63775 0L29.3281-67.1323L30.0303-67.1323L30.0303-70.459L28.1226-70.459ZM11.6885-24.4799L46.9815-24.4799L46.2315-26.7285L12.4385-26.7285ZM55.1196 0L57.7637 0L30.6382-70.459L29.4326-70.459L29.4326-67.1323Z"/>
  </g>
  <line id="Baseline-M" style="fill:none;stroke:#27AAE1;opacity:1;stroke-width:0.5;" x1="263" x2="3036" y1="1126" y2="1126"/>
  <line id="Capline-M" style="fill:none;stroke:#27AAE1;opacity:1;stroke-width:0.5;" x1="263" x2="3036" y1="1055.54" y2="1055.54"/>
  <g id="H-reference" style="fill:#27AAE1;stroke:none;" transform="matrix(1 0 0 1 339 1556)">
   <path d="M0.993654 0L3.63775 0L29.3281-67.1323L30.0303-67.1323L30.0303-70.459L28.1226-70.459ZM11.6885-24.4799L46.9815-24.4799L46.2315-26.7285L12.4385-26.7285ZM55.1196 0L57.7637 0L30.6382-70.459L29.4326-70.459L29.4326-67.1323Z"/>
  </g>
  <line id="Baseline-L" style="fill:none;stroke:#27AAE1;opacity:1;stroke-width:0.5;" x1="263" x2="3036" y1="1556" y2="1556"/>
  <line id="Capline-L" style="fill:none;stroke:#27AAE1;opacity:1;stroke-width:0.5;" x1="263" x2="3036" y1="1485.54" y2="1485.54"/>
  <line id="left-margin-Ultralight-S" style="fill:none;stroke:#00AEEF;stroke-width:0.5;opacity:1.0;" x1="509.904" x2="509.904" y1="600.785" y2="720.121"/>
  <line id="right-margin-Ultralight-S" style="fill:none;stroke:#00AEEF;stroke-width:0.5;opacity:1.0;" x1="609.518" x2="609.518" y1="600.785" y2="720.121"/>
  <line id="left-margin-Regular-S" style="fill:none;stroke:#00AEEF;stroke-width:0.5;opacity:1.0;" x1="1392.54" x2="1392.54" y1="600.785" y2="720.121"/>
  <line id="right-margin-Regular-S" style="fill:none;stroke:#00AEEF;stroke-width:0.5;opacity:1.0;" x1="1507.14" x2="1507.14" y1="600.785" y2="720.121"/>
  <line id="left-margin-Black-S" style="fill:none;stroke:#00AEEF;stroke-width:0.5;opacity:1.0;" x1="2872.98" x2="2872.98" y1="600.785" y2="720.121"/>
  <line id="right-margin-Black-S" style="fill:none;stroke:#00AEEF;stroke-width:0.5;opacity:1.0;" x1="2993.82" x2="2993.82" y1="600.785" y2="720.121"/>
 </g>
 <g id="Symbols">
  <g id="Black-S" transform="matrix(1 0 0 1 2872.98 696)">
   <path class="monochrome-0 SFSymbolsPreview000000" d="M60.0098 0.78125C70.6055 0.78125 74.3164-4.3457 77.3926-7.12891C78.5645-8.1543 79.6387-8.88672 80.957-8.88672C83.1543-8.88672 84.9609-6.88477 84.9609-3.66211L84.9609 1.70898C84.9609 4.93164 87.4512 7.42188 90.6738 7.42188L105.371 7.42188C108.594 7.42188 111.084 4.93164 111.084 1.70898L111.084-4.15039C111.084-27.5879 96.0449-35.2539 83.3496-35.2539L83.252-35.2539C81.6895-35.2539 80.3711-36.1328 79.834-37.6465L78.7598-40.6738C77.5879-43.9453 75.5371-45.5566 72.3633-45.5566L47.6562-45.5566C44.4824-45.5566 42.4316-43.9453 41.2598-40.6738L40.1855-37.6465C39.6484-36.1328 38.3301-35.2539 36.7676-35.2539L12.5977-35.2539L12.5977-25.2441L40.4785-25.2441C45.4102-25.2441 47.168-27.6367 48.3398-30.8105L50.0488-35.5469L69.9707-35.5469L71.6797-30.8105C72.8516-27.6367 75.0977-25.2441 80.0293-25.2441L82.1289-25.2441C92.1875-25.2441 101.123-20.3613 101.123-4.15039L101.123-2.58789L94.9707-2.58789L94.9707-3.66211C94.9707-16.2598 86.9629-18.8965 81.25-18.8965C76.6602-18.8965 73.8281-17.3828 71.582-15.5762C68.0664-12.7441 65.7715-9.22852 60.0098-9.22852C56.1523-9.22852 52.8809-10.5469 49.5605-14.502C47.0703-17.4316 45.6543-18.8965 39.7461-18.8965L12.5977-18.8965L12.5977-8.88672L39.3555-8.88672C40.625-8.88672 41.748-8.30078 42.5781-7.27539C46.9727-2.09961 53.125 0.78125 60.0098 0.78125ZM15.1367 0.634766C18.0664 0.634766 20.5078-1.80664 20.5078-4.73633L20.5078-39.4043C20.5078-42.334 18.0664-44.7754 15.1367-44.7754C12.207-44.7754 9.76562-42.334 9.76562-39.4043L9.76562-4.73633C9.76562-1.80664 12.207 0.634766 15.1367 0.634766ZM65.0391-73.3398L65.0391-63.8184L87.1094-61.5234C91.748-61.0352 95.166-64.1113 95.166-68.6035C95.166-73.0469 91.748-76.123 87.1094-75.6348ZM55.0781-73.3398L33.0078-75.6348C28.3691-76.123 24.9512-73.0469 24.9512-68.6035C24.9512-64.1113 28.3691-61.0352 33.0078-61.5234L55.0781-63.8184ZM64.2578-41.1133L73.7793-41.1133L73.7793-48.7793C73.7793-53.4668 70.3613-56.8848 65.6738-56.8848L54.3457-56.8848C49.6582-56.8848 46.2402-53.4668 46.2402-48.7793L46.2402-41.1133L55.7617-41.1133L55.7617-47.8027C55.7617-48.1445 55.957-48.3398 56.2988-48.3398L63.7207-48.3398C64.0625-48.3398 64.2578-48.1445 64.2578-47.8027ZM60.0098-59.2285C65.1855-59.2285 69.3848-63.4277 69.3848-68.6035C69.3848-73.7305 65.1855-77.9297 60.0098-77.9297C54.8828-77.9297 50.6836-73.7305 50.6836-68.6035C50.6836-63.4277 54.8828-59.2285 60.0098-59.2285ZM54.3945-62.5488L54.3945-50.6836L65.625-50.6836L65.625-62.5488Z"/>
  </g>
  <g id="Regular-S" transform="matrix(1 0 0 1 1392.54 696)">
   <path class="monochrome-0 SFSymbolsPreview000000" d="M56.3965-3.56445C62.9395-3.56445 67.334-6.15234 71.8262-10.498C73.4375-12.0605 75.293-12.8418 77.0508-12.8418C80.0781-12.8418 82.5684-10.5957 82.5684-6.20117L82.5684-1.2207C82.5684 1.02539 84.1797 2.63672 86.4258 2.63672L100.977 2.63672C103.174 2.63672 104.834 1.02539 104.834-1.2207L104.834-4.6875C104.834-28.4668 89.9414-35.7422 77.7832-35.7422L76.2695-35.7422C75.8789-35.7422 75.5859-36.0352 75.3906-36.377L73.1934-42.4316C72.2656-44.9707 70.8984-46.0449 68.5547-46.0449L44.1895-46.0449C41.8945-46.0449 40.5273-44.9707 39.5508-42.4316L37.3535-36.377C37.207-36.0352 36.8652-35.7422 36.4746-35.7422L12.5-35.7422L12.5-29.3945L37.0117-29.3945C40.918-29.3945 42.1875-31.0547 43.1641-33.7891L45.3613-39.6973L67.3828-39.6973L69.5801-33.7891C70.5566-31.0547 71.8262-29.3945 75.7324-29.3945L77.7344-29.3945C88.4277-29.3945 98.5352-23.6816 98.5352-4.6875L98.5352-3.71094L88.916-3.71094L88.916-6.20117C88.916-17.1387 82.2754-19.2871 77.4902-19.2871C73.3398-19.2871 70.3125-17.627 67.3828-14.7461C65.1367-12.6465 61.8652-9.91211 56.3965-9.91211C50.7812-9.91211 47.3633-12.3047 44.873-15.3809C42.334-18.5547 40.2344-19.4824 36.1328-19.4824L12.5-19.4824L12.5-13.1348L35.7422-13.1348C37.8418-13.1348 38.7207-12.8906 40.1855-11.1816C44.043-6.5918 49.8047-3.56445 56.3965-3.56445ZM13.2812-4.10156C15.2344-4.10156 16.7969-5.71289 16.7969-7.61719L16.7969-39.9902C16.7969-41.8945 15.2344-43.5059 13.2812-43.5059C11.377-43.5059 9.76562-41.8945 9.76562-39.9902L9.76562-7.61719C9.76562-5.71289 11.377-4.10156 13.2812-4.10156ZM60.1074-68.7988L60.1074-62.5L80.4688-60.3516C84.0332-59.9609 86.5723-62.2559 86.5723-65.6738C86.5723-69.043 84.0332-71.3379 80.4688-70.9473ZM52.7344-68.7988L32.373-70.9473C28.8086-71.3379 26.2695-69.043 26.2695-65.6738C26.2695-62.2559 28.8086-59.9609 32.373-60.3516L52.7344-62.5ZM62.4023-43.1641L68.3105-43.1641L68.3105-49.0723C68.3105-52.7344 65.7227-55.2734 62.0605-55.2734L50.6836-55.2734C47.0215-55.2734 44.4824-52.7344 44.4824-49.0723L44.4824-43.1641L50.3418-43.1641L50.3418-48.3887C50.3418-49.5117 51.1719-50.3418 52.2949-50.3418L60.4492-50.3418C61.6211-50.3418 62.4023-49.5117 62.4023-48.3887ZM56.4453-58.1543C60.5957-58.1543 63.9648-61.5234 63.9648-65.6738C63.9648-69.8242 60.5957-73.1445 56.4453-73.1445C52.2949-73.1445 48.9258-69.8242 48.9258-65.6738C48.9258-61.5234 52.2949-58.1543 56.4453-58.1543ZM52.6367-60.9863L52.6367-51.6113L60.2051-51.6113L60.2051-60.9863Z"/>
  </g>
  <g id="Ultralight-S" transform="matrix(1 0 0 1 509.904 696)">
   <path class="monochrome-0 SFSymbolsPreview000000" d="M48.4952-10.9208C55.7193-10.9208 59.3419-14.7348 63.3345-17.6274C64.7188-18.645 66.5289-19.4262 68.2413-19.4262C72.1768-19.4262 74.6671-16.726 74.6671-12.5585L74.6671-5.53463C74.6671-4.15133 75.0523-3.76606 76.3902-3.76606L88.0802-3.76606C89.3692-3.76606 89.8488-4.24215 89.8488-5.53463L89.8488-9.63717C89.8488-26.1963 81.1773-36.0146 66.4308-36.0146L64.0543-36.0146C63.3004-36.0146 62.6441-36.4438 62.4034-37.1489L59.7066-44.5205C59.3692-45.3794 58.8194-45.7725 57.8834-45.7725L39.1036-45.7725C38.1255-45.7725 37.6211-45.3794 37.2803-44.5205L34.5835-37.1489C34.3462-36.4438 33.6411-36.0146 32.8872-36.0146L10.8198-36.0146L10.8198-33.8447L32.3799-33.8447C35.0147-33.8447 36.0118-34.8691 36.7159-36.7861L39.231-43.6479L57.7105-43.6479L60.2711-36.7861C60.9298-34.8691 61.9268-33.8447 64.607-33.8447L66.4273-33.8447C79.9361-33.8447 87.7276-24.8169 87.7276-9.63717L87.7276-5.93602L76.7916-5.93602L76.7916-12.5585C76.7916-18.2285 73.4659-21.603 68.272-21.603C65.8018-21.603 63.6373-20.6694 61.979-19.3779C58.3707-16.5517 55.4625-13.0908 48.4952-13.0908C41.5631-13.0908 38.1905-16.8003 34.5196-19.6948C32.8887-21.0068 31.9698-21.3442 29.0943-21.3442L10.8198-21.3442L10.8198-19.1743L29.0669-19.1743C31.2574-19.1743 31.8184-18.9755 33.1924-17.9477C37.1407-15.038 41.3131-10.9208 48.4952-10.9208ZM10.8745-13.2289C11.4654-13.2289 11.9834-13.7504 11.9834-14.3378L11.9834-40.7168C11.9834-41.3496 11.4654-41.8257 10.8745-41.8257C10.2417-41.8257 9.76562-41.3496 9.76562-40.7168L9.76562-14.3378C9.76562-13.7504 10.2417-13.2289 10.8745-13.2289ZM51.0709-63.8038L51.0709-59.4575L67.9811-57.2637C70.9098-56.8731 73.0401-58.7593 73.0401-61.6324C73.0401-64.4566 70.9098-66.3882 67.9811-65.9976ZM46.0591-63.8038L29.1035-65.9976C26.2202-66.3882 24.0899-64.4566 24.0899-61.6324C24.0899-58.7593 26.2202-56.8731 29.1035-57.2637L46.0591-59.4575ZM55.7725-44.6172L57.9117-44.6172L57.9117-49.708C57.9117-51.5537 56.6407-52.8667 54.8404-52.8667L42.192-52.8667C40.3917-52.8667 39.0787-51.5537 39.0787-49.708L39.0787-44.6172L41.2598-44.6172L41.2598-49.7056C41.2598-50.3291 41.6358-50.7505 42.2594-50.7505L54.7276-50.7505C55.3545-50.7505 55.7725-50.3291 55.7725-49.7056ZM48.544-56.4287C51.4683-56.4287 53.7022-58.7534 53.7022-61.6324C53.7022-64.5113 51.4683-66.8326 48.544-66.8326C45.6197-66.8326 43.295-64.5113 43.295-61.6324C43.295-58.7534 45.6197-56.4287 48.544-56.4287ZM47.0059-58.8975L47.0059-51.1118L50.1695-51.1118L50.1695-58.8975Z"/>
  </g>
 </g>
</svg>
