<?xml version="1.0" encoding="UTF-8"?>
<!-- Generator: CustomSymbols v2.6.2.41 by @serious_bret https://bretlester.com/app_content/CustomSymbols/ -->
<!-- Guides: Left/Right 0.004/0.002 Cap/Base 0.088/0.136 -->
<!-- Settings: RefScale 0.5 Min/Max Stroke Scales 2.2/5.0 -->
<!DOCTYPE svg
PUBLIC "-//W3C//DTD SVG 1.1//EN"
       "http://www.w3.org/Graphics/SVG/1.1/DTD/svg11.dtd">
<svg version="1.1" xmlns="http://www.w3.org/2000/svg" xmlns:xlink="http://www.w3.org/1999/xlink" width="3300" height="2200">
<![CDATA[<?xml version="1.0" encoding="UTF-8" standalone="no"?>
<!--Generator: Apple Native CoreSVG 175.5-->

<svg
   version="1.1"
   width="65.047325"
   height="82.324219"
   id="svg122"
   xmlns="http://www.w3.org/2000/svg"
   xmlns:svg="http://www.w3.org/2000/svg">
  <defs
     id="defs126" />
  <!--glyph: "uni100246.medium", point size: 100.0, font version: "18.0d11e1", template writer version: "90"-->
  <g
     id="g1764"
     transform="translate(-1417.3262,-619.58398)">
    <path
       id="path115"
       d="m 22.022031,-76.416016 c -8.203076,0 -12.2558591,4.150399 -12.2558591,12.451172 v 57.4218752 c 0,8.3495851 4.0527831,12.4511719 12.2558591,12.4511719 h 12.458985 v -7.03125 h -12.06836 c -3.710888,0 -5.615234,-2.0019686 -5.615234,-5.5175781 v -57.226563 c 0,-3.515588 1.904346,-5.517578 5.615234,-5.517578 H 62.15875 c 3.662088,0 5.566406,2.00199 5.566406,5.517578 v 24.728516 h 7.080078 v -24.826172 c 0,-8.300773 -4.101611,-12.451172 -12.304687,-12.451172 z m 6.103516,17.919922 c -1.562497,0 -2.685547,1.123094 -2.685547,2.587891 0,1.513694 1.12305,2.685547 2.685547,2.685547 h 28.369141 c 1.513694,0 2.636718,-1.171853 2.636718,-2.685547 0,-1.464797 -1.123024,-2.587891 -2.636718,-2.587891 z m 0,13.28125 c -1.562497,0 -2.685547,1.171894 -2.685547,2.587891 0,1.513694 1.12305,2.734375 2.685547,2.734375 h 17.441406 v -5.322266 z m 0,13.330078 c -1.562497,0 -2.685547,1.171853 -2.685547,2.685547 0,1.464797 1.12305,2.587891 2.685547,2.587891 h 6.355469 v -5.273438 z"
       transform="translate(1407.56,696)" />
    <path
       stroke-dasharray="none"
       stroke="none"
       stroke-width="0.30081"
       version="1.1"
       fill-rule="nonzero"
       stroke-linejoin="miter"
       fill-opacity="1"
       stroke-linecap="butt"
       stroke-miterlimit="4"
       stroke-opacity="1"
       fill="#000000"
       d="m 1462.8843,701.82091 c 0.3246,0 0.9147,-0.11856 1.5632,-0.47243 13.2381,-7.25249 17.926,-10.55497 17.926,-19.28222 v -17.74908 c 0,-2.4178 -1.1501,-3.15473 -2.9778,-3.95093 -2.3886,-1.03242 -12.1474,-4.48174 -14.536,-5.30713 -0.6193,-0.20703 -1.2969,-0.35386 -1.9754,-0.35386 -0.6777,0 -1.3854,0.20612 -1.9755,0.35386 -2.3877,0.58918 -12.1474,4.3048 -14.5351,5.30713 -1.8286,0.76611 -2.9778,1.53313 -2.9778,3.95093 v 17.74908 c 0,8.72725 4.6879,11.99963 17.926,19.28222 0.6485,0.35387 1.2386,0.47243 1.5624,0.47243 z m 0,-4.8356 c -0.353,0 -0.7078,-0.0885 -1.5031,-0.53081 -10.6443,-6.36873 -13.799,-8.25572 -13.799,-15.41975 v -15.92228 c 0,-0.52989 0.1185,-0.76611 0.59,-0.97223 3.774,-1.47476 10.1428,-3.50859 13.9168,-5.01253 0.2945,-0.11766 0.5599,-0.14775 0.7953,-0.14775 0.2362,0 0.5016,0.0301 0.7962,0.14775 3.7448,1.50394 10.025,3.71471 13.8875,5.01253 0.5007,0.17694 0.5892,0.44234 0.5892,0.97223 v 15.92228 c 0,7.16403 -3.1548,9.05102 -13.7982,15.41975 -0.767,0.44234 -1.1209,0.53081 -1.4747,0.53081 z m 0,0"
       id="path1491" />
  </g>
</svg>
]]>
 <g id="Notes">
  <rect height="2200" id="artboard" style="fill:white;opacity:1" width="3300" x="0" y="0"/>
  <line id="" style="fill:none;stroke:black;opacity:1;stroke-width:0.5;" x1="263" x2="3036" y1="292" y2="292"/>
  <text id="reftext1" style="stroke:none;fill:black;font-family:-apple-system,&quot;SF Pro Display&quot;,&quot;SF Pro Text&quot;,Helvetica,sans-serif;font-weight:bold;" transform="matrix(1 0 0 1 263 322)">Weight/Scale Variations</text>
  <text id="reftext2" style="stroke:none;fill:black;font-family:-apple-system,&quot;SF Pro Display&quot;,&quot;SF Pro Text&quot;,Helvetica,sans-serif;text-anchor:middle;" transform="matrix(1 0 0 1 559.711 322)">Ultralight</text>
  <text style="stroke:none;fill:black;font-family:-apple-system,&quot;SF Pro Display&quot;,&quot;SF Pro Text&quot;,Helvetica,sans-serif;text-anchor:middle;" transform="matrix(1 0 0 1 856.422 322)">Thin</text>
  <text style="stroke:none;fill:black;font-family:-apple-system,&quot;SF Pro Display&quot;,&quot;SF Pro Text&quot;,Helvetica,sans-serif;text-anchor:middle;" transform="matrix(1 0 0 1 1153.13 322)">Light</text>
  <text style="stroke:none;fill:black;font-family:-apple-system,&quot;SF Pro Display&quot;,&quot;SF Pro Text&quot;,Helvetica,sans-serif;text-anchor:middle;" transform="matrix(1 0 0 1 1449.84 322)">Regular</text>
  <text style="stroke:none;fill:black;font-family:-apple-system,&quot;SF Pro Display&quot;,&quot;SF Pro Text&quot;,Helvetica,sans-serif;text-anchor:middle;" transform="matrix(1 0 0 1 1746.56 322)">Medium</text>
  <text style="stroke:none;fill:black;font-family:-apple-system,&quot;SF Pro Display&quot;,&quot;SF Pro Text&quot;,Helvetica,sans-serif;text-anchor:middle;" transform="matrix(1 0 0 1 2043.27 322)">Semibold</text>
  <text style="stroke:none;fill:black;font-family:-apple-system,&quot;SF Pro Display&quot;,&quot;SF Pro Text&quot;,Helvetica,sans-serif;text-anchor:middle;" transform="matrix(1 0 0 1 2339.98 322)">Bold</text>
  <text style="stroke:none;fill:black;font-family:-apple-system,&quot;SF Pro Display&quot;,&quot;SF Pro Text&quot;,Helvetica,sans-serif;text-anchor:middle;" transform="matrix(1 0 0 1 2636.69 322)">Heavy</text>
  <text style="stroke:none;fill:black;font-family:-apple-system,&quot;SF Pro Display&quot;,&quot;SF Pro Text&quot;,Helvetica,sans-serif;text-anchor:middle;" transform="matrix(1 0 0 1 2933.4 322)">Black</text>
  <line id="" style="fill:none;stroke:black;opacity:1;stroke-width:0.5;" x1="263" x2="3036" y1="1903" y2="1903"/>
  <g id="" transform="matrix(1 0 0 1 263 1933)">
   <path d="M9.24805 0.830078C13.5547 0.830078 17.1387-2.74414 17.1387-7.05078C17.1387-11.3574 13.5449-14.9316 9.23828-14.9316C4.94141-14.9316 1.36719-11.3574 1.36719-7.05078C1.36719-2.74414 4.95117 0.830078 9.24805 0.830078ZM9.24805-0.654297C5.70312-0.654297 2.87109-3.49609 2.87109-7.05078C2.87109-10.6055 5.69336-13.4473 9.23828-13.4473C12.793-13.4473 15.6348-10.6055 15.6445-7.05078C15.6543-3.49609 12.8027-0.654297 9.24805-0.654297ZM6.39648-6.31836L8.50586-6.31836L8.50586-4.19922C8.50586-3.75977 8.79883-3.45703 9.22852-3.45703C9.67773-3.45703 9.9707-3.75977 9.9707-4.19922L9.9707-6.31836L12.0996-6.31836C12.5391-6.31836 12.8418-6.61133 12.8418-7.04102C12.8418-7.48047 12.5391-7.7832 12.0996-7.7832L9.9707-7.7832L9.9707-9.89258C9.9707-10.3418 9.67773-10.6445 9.22852-10.6445C8.79883-10.6445 8.50586-10.3418 8.50586-9.89258L8.50586-7.7832L6.39648-7.7832C5.94727-7.7832 5.64453-7.48047 5.64453-7.04102C5.64453-6.61133 5.94727-6.31836 6.39648-6.31836Z"/>
  </g>
  <g id="" transform="matrix(1 0 0 1 281.506 1933)">
   <path d="M11.709 2.91016C17.1582 2.91016 21.6699-1.61133 21.6699-7.05078C21.6699-12.5 17.1484-17.0117 11.6992-17.0117C6.25977-17.0117 1.74805-12.5 1.74805-7.05078C1.74805-1.61133 6.26953 2.91016 11.709 2.91016ZM11.709 1.25C7.09961 1.25 3.41797-2.44141 3.41797-7.05078C3.41797-11.6602 7.08984-15.3516 11.6992-15.3516C16.3086-15.3516 20-11.6602 20.0098-7.05078C20.0195-2.44141 16.3184 1.25 11.709 1.25ZM7.98828-6.23047L10.8789-6.23047L10.8789-3.32031C10.8789-2.83203 11.2109-2.5 11.6895-2.5C12.1777-2.5 12.5195-2.83203 12.5195-3.32031L12.5195-6.23047L15.4297-6.23047C15.918-6.23047 16.25-6.5625 16.25-7.04102C16.25-7.5293 15.918-7.87109 15.4297-7.87109L12.5195-7.87109L12.5195-10.7617C12.5195-11.2695 12.1777-11.6016 11.6895-11.6016C11.2109-11.6016 10.8789-11.2598 10.8789-10.7617L10.8789-7.87109L7.98828-7.87109C7.48047-7.87109 7.14844-7.5293 7.14844-7.04102C7.14844-6.5625 7.49023-6.23047 7.98828-6.23047Z"/>
  </g>
  <g id="" transform="matrix(1 0 0 1 304.924 1933)">
   <path d="M14.9707 5.66406C21.9336 5.66406 27.6953-0.0976562 27.6953-7.05078C27.6953-14.0137 21.9238-19.7754 14.9609-19.7754C8.00781-19.7754 2.25586-14.0137 2.25586-7.05078C2.25586-0.0976562 8.01758 5.66406 14.9707 5.66406ZM14.9707 3.84766C8.93555 3.84766 4.08203-1.01562 4.08203-7.05078C4.08203-13.0957 8.92578-17.9492 14.9609-17.9492C21.0059-17.9492 25.8594-13.0957 25.8691-7.05078C25.8789-1.01562 21.0156 3.84766 14.9707 3.84766ZM10.0586-6.14258L14.0625-6.14258L14.0625-2.12891C14.0625-1.5918 14.4336-1.2207 14.9512-1.2207C15.4883-1.2207 15.8594-1.5918 15.8594-2.12891L15.8594-6.14258L19.8828-6.14258C20.4102-6.14258 20.791-6.51367 20.791-7.03125C20.791-7.56836 20.4199-7.94922 19.8828-7.94922L15.8594-7.94922L15.8594-11.9531C15.8594-12.5098 15.4883-12.8809 14.9512-12.8809C14.4336-12.8809 14.0625-12.5 14.0625-11.9531L14.0625-7.94922L10.0586-7.94922C9.50195-7.94922 9.13086-7.56836 9.13086-7.03125C9.13086-6.51367 9.51172-6.14258 10.0586-6.14258Z"/>
  </g>
  <text style="stroke:none;fill:black;font-family:-apple-system,&quot;SF Pro Display&quot;,&quot;SF Pro Text&quot;,Helvetica,sans-serif;font-weight:bold;" transform="matrix(1 0 0 1 263 1953)">Design Variations</text>
  <text style="stroke:none;fill:black;font-family:-apple-system,&quot;SF Pro Display&quot;,&quot;SF Pro Text&quot;,Helvetica,sans-serif;" transform="matrix(1 0 0 1 263 1971)">Symbols are supported in up to nine weights and three scales.</text>
  <text style="stroke:none;fill:black;font-family:-apple-system,&quot;SF Pro Display&quot;,&quot;SF Pro Text&quot;,Helvetica,sans-serif;" transform="matrix(1 0 0 1 263 1989)">For optimal layout with text and other symbols, vertically align</text>
  <text style="stroke:none;fill:black;font-family:-apple-system,&quot;SF Pro Display&quot;,&quot;SF Pro Text&quot;,Helvetica,sans-serif;" transform="matrix(1 0 0 1 263 2007)">symbols with the adjacent text.</text>
  <line id="" style="fill:none;stroke:#00AEEF;stroke-width:0.5;opacity:1.0;" x1="776" x2="776" y1="1919" y2="1933"/>
  <g id="" transform="matrix(1 0 0 1 776 1933)">
   <path d="M3.31055 0.126953C3.82812 0.126953 4.08203-0.0683594 4.26758-0.605469L5.52734-4.0625L11.2891-4.0625L12.5488-0.605469C12.7344-0.0683594 12.9883 0.126953 13.4961 0.126953C14.0137 0.126953 14.3457-0.185547 14.3457-0.673828C14.3457-0.839844 14.3164-0.986328 14.2383-1.20117L9.6582-13.3887C9.43359-13.9941 9.0332-14.2871 8.4082-14.2871C7.80273-14.2871 7.39258-13.9941 7.17773-13.3984L2.59766-1.19141C2.51953-0.976562 2.49023-0.830078 2.49023-0.664062C2.49023-0.175781 2.80273 0.126953 3.31055 0.126953ZM6.00586-5.53711L8.37891-12.1094L8.42773-12.1094L10.8008-5.53711Z"/>
  </g>
  <line id="" style="fill:none;stroke:#00AEEF;stroke-width:0.5;opacity:1.0;" x1="792.836" x2="792.836" y1="1919" y2="1933"/>
  <text style="stroke:none;fill:black;font-family:-apple-system,&quot;SF Pro Display&quot;,&quot;SF Pro Text&quot;,Helvetica,sans-serif;font-weight:bold;" transform="matrix(1 0 0 1 776 1953)">Margins</text>
  <text style="stroke:none;fill:black;font-family:-apple-system,&quot;SF Pro Display&quot;,&quot;SF Pro Text&quot;,Helvetica,sans-serif;" transform="matrix(1 0 0 1 776 1971)">Leading and trailing margins on the left and right side of each symbol</text>
  <text style="stroke:none;fill:black;font-family:-apple-system,&quot;SF Pro Display&quot;,&quot;SF Pro Text&quot;,Helvetica,sans-serif;" transform="matrix(1 0 0 1 776 1989)">can be adjusted by modifying the x-location of the margin guidelines.</text>
  <text style="stroke:none;fill:black;font-family:-apple-system,&quot;SF Pro Display&quot;,&quot;SF Pro Text&quot;,Helvetica,sans-serif;" transform="matrix(1 0 0 1 776 2007)">Modifications are automatically applied proportionally to all</text>
  <text style="stroke:none;fill:black;font-family:-apple-system,&quot;SF Pro Display&quot;,&quot;SF Pro Text&quot;,Helvetica,sans-serif;" transform="matrix(1 0 0 1 776 2025)">scales and weights.</text>
  <g id="" transform="matrix(1 0 0 1 1289 1933)">
   <path d="M2.8418 1.86523L4.54102 3.57422C5.40039 4.44336 6.38672 4.38477 7.31445 3.35938L17.4902-7.85156C17.7539-7.76367 18.0273-7.7832 18.3398-7.8418L19.4043-8.03711L20.0684-7.36328L20.0293-6.80664C19.9902-6.30859 20.1172-5.92773 20.6055-5.44922L21.3672-4.70703C21.8457-4.22852 22.4609-4.19922 22.9297-4.66797L25.8398-7.58789C26.3086-8.05664 26.2891-8.65234 25.8105-9.13086L25.0391-9.89258C24.5605-10.3711 24.1895-10.5273 23.7109-10.4883L23.1348-10.4395L22.4902-11.0742L22.7344-12.1973C22.8613-12.7637 22.7051-13.2031 22.1191-13.7891L19.9219-15.9766C16.582-19.2969 12.1484-19.2188 9.25781-16.3281C8.83789-15.918 8.80859-15.3418 9.04297-14.9512C9.27734-14.5898 9.73633-14.3555 10.3809-14.5215C11.8457-14.8633 13.3691-14.9219 14.7949-13.9844L14.209-12.5293C14.0137-12.0508 13.9844-11.6504 14.1113-11.2891L3.04688-0.898438C2.06055 0.0195312 1.98242 0.996094 2.8418 1.86523ZM10.752-15.957C13.1836-17.7344 16.4746-17.4316 18.7012-15.2051L21.1328-12.793C21.3672-12.5586 21.4062-12.373 21.3379-12.0312L21.0156-10.5469L22.5195-9.0625L23.5059-9.12109C23.7598-9.13086 23.8379-9.11133 24.0332-8.91602L24.6094-8.33984L22.168-5.89844L21.5918-6.47461C21.3965-6.66992 21.3672-6.74805 21.377-7.01172L21.4453-7.98828L19.9512-9.47266L18.4277-9.21875C18.1055-9.15039 17.959-9.17969 17.7148-9.41406L15.7129-11.416C15.459-11.6504 15.4297-11.8164 15.5859-12.1875L16.4648-14.2773C14.9023-15.7324 12.8711-16.3574 10.8398-15.7617C10.6836-15.7227 10.625-15.8496 10.752-15.957ZM5.27344 2.30469L4.10156 1.14258C3.63281 0.683594 3.74023 0.341797 4.14062-0.0195312L14.9512-10.1953L16.416-8.71094L6.42578 2.27539C6.07422 2.67578 5.74219 2.77344 5.27344 2.30469Z"/>
  </g>
  <text style="stroke:none;fill:black;font-family:-apple-system,&quot;SF Pro Display&quot;,&quot;SF Pro Text&quot;,Helvetica,sans-serif;font-weight:bold;" transform="matrix(1 0 0 1 1289 1953)">Exporting</text>
  <text style="stroke:none;fill:black;font-family:-apple-system,&quot;SF Pro Display&quot;,&quot;SF Pro Text&quot;,Helvetica,sans-serif;" transform="matrix(1 0 0 1 1289 1971)">Symbols should be outlined when exporting to ensure the</text>
  <text style="stroke:none;fill:black;font-family:-apple-system,&quot;SF Pro Display&quot;,&quot;SF Pro Text&quot;,Helvetica,sans-serif;" transform="matrix(1 0 0 1 1289 1989)">design is preserved when submitting to Xcode.</text>
  <text id="template-version" style="stroke:none;fill:black;font-family:-apple-system,&quot;SF Pro Display&quot;,&quot;SF Pro Text&quot;,Helvetica,sans-serif;text-anchor:end;" transform="matrix(1 0 0 1 3036 1933)">Template v.2.0</text>
  <text style="stroke:none;fill:black;font-family:-apple-system,&quot;SF Pro Display&quot;,&quot;SF Pro Text&quot;,Helvetica,sans-serif;text-anchor:end;" transform="matrix(1 0 0 1 3036 1951)">Requires Xcode 12 or greater</text>
  <text style="stroke:none;fill:black;font-family:-apple-system,&quot;SF Pro Display&quot;,&quot;SF Pro Text&quot;,Helvetica,sans-serif;" transform="matrix(1 0 0 1 263 726)">Small</text>
  <text style="stroke:none;fill:black;font-family:-apple-system,&quot;SF Pro Display&quot;,&quot;SF Pro Text&quot;,Helvetica,sans-serif;" transform="matrix(1 0 0 1 263 1156)">Medium</text>
  <text style="stroke:none;fill:black;font-family:-apple-system,&quot;SF Pro Display&quot;,&quot;SF Pro Text&quot;,Helvetica,sans-serif;" transform="matrix(1 0 0 1 263 1586)">Large</text>
 </g>
 <g id="Guides">
  <g id="H-reference" style="fill:#27AAE1;stroke:none;" transform="matrix(1 0 0 1 339 696)">
   <path d="M0.976562 0L3.66211 0L12.9883-24.4629L45.752-24.4629L55.127 0L57.7637 0L30.6152-70.459L28.125-70.459ZM29.3457-67.1387L29.4434-67.1387L44.873-26.709L13.8672-26.709Z"/>
  </g>
  <line id="Baseline-S" style="fill:none;stroke:#27AAE1;opacity:1;stroke-width:0.5;" x1="263" x2="3036" y1="696" y2="696"/>
  <line id="Capline-S" style="fill:none;stroke:#27AAE1;opacity:1;stroke-width:0.5;" x1="263" x2="3036" y1="625.541" y2="625.541"/>
  <g id="H-reference" style="fill:#27AAE1;stroke:none;" transform="matrix(1 0 0 1 339 1126)">
   <path d="M0.976562 0L3.66211 0L12.9883-24.4629L45.752-24.4629L55.127 0L57.7637 0L30.6152-70.459L28.125-70.459ZM29.3457-67.1387L29.4434-67.1387L44.873-26.709L13.8672-26.709Z"/>
  </g>
  <line id="Baseline-M" style="fill:none;stroke:#27AAE1;opacity:1;stroke-width:0.5;" x1="263" x2="3036" y1="1126" y2="1126"/>
  <line id="Capline-M" style="fill:none;stroke:#27AAE1;opacity:1;stroke-width:0.5;" x1="263" x2="3036" y1="1055.54" y2="1055.54"/>
  <g id="H-reference" style="fill:#27AAE1;stroke:none;" transform="matrix(1 0 0 1 339 1556)">
   <path d="M0.976562 0L3.66211 0L12.9883-24.4629L45.752-24.4629L55.127 0L57.7637 0L30.6152-70.459L28.125-70.459ZM29.3457-67.1387L29.4434-67.1387L44.873-26.709L13.8672-26.709Z"/>
  </g>
  <line id="Baseline-L" style="fill:none;stroke:#27AAE1;opacity:1;stroke-width:0.5;" x1="263" x2="3036" y1="1556" y2="1556"/>
  <line id="Capline-L" style="fill:none;stroke:#27AAE1;opacity:1;stroke-width:0.5;" x1="263" x2="3036" y1="1485.54" y2="1485.54"/>
  <line id="left-margin" x1="1406.0937363079895" x2="1406.0937363079895" y1="1030.79" y2="1150.12" style="fill:none;stroke:#00AEEF;stroke-width:0.5;opacity:1.0;"/>
  <line id="right-margin" x1="1496.347861529478" x2="1496.347861529478" y1="1030.79" y2="1150.12" style="fill:none;stroke:#00AEEF;stroke-width:0.5;opacity:1.0;"/>
 </g>
 <g id="Symbols">
  <g id="Black-L" transform="matrix(1.0,0.0,0.0,1.0,2876.1146974166395,1465.0158514718912)">  <path xmlns:svg="http://www.w3.org/2000/svg" stroke-linejoin="miter" fill-opacity="1" stroke-dasharray="none" stroke="none" stroke-width="0.5px" stroke-miterlimit="4" stroke-linecap="butt" version="1.1" fill-rule="nonzero" fill="#000000" stroke-opacity="1" d="M17.438,0C5.766,0,0,5.905,0,17.715L0,99.415C0,111.295,5.766,117.131,17.438,117.131L35.164,117.131L35.164,107.127L17.993,107.127C12.714,107.127,10.004,104.278,10.004,99.276L10.004,17.854C10.004,12.852,12.714,10.004,17.993,10.004L74.544,10.004C79.754,10.004,82.464,12.852,82.464,17.854L82.464,53.038L92.537,53.038L92.537,17.715C92.537,5.905,86.702,0,75.03,0ZM26.122,25.496C23.899,25.496,22.301,27.094,22.301,29.178C22.301,31.332,23.899,32.999,26.122,32.999L66.485,32.999C68.639,32.999,70.237,31.332,70.237,29.178C70.237,27.094,68.639,25.496,66.485,25.496ZM26.122,44.393C23.899,44.393,22.301,46.06,22.301,48.075C22.301,50.229,23.899,51.965,26.122,51.965L50.937,51.965L50.937,44.393ZM26.122,63.359C23.899,63.359,22.301,65.026,22.301,67.18C22.301,69.264,23.899,70.862,26.122,70.862L35.164,70.862L35.164,63.359ZM26.122,63.359"/>
  <path stroke-linejoin="miter" fill-opacity="1" stroke-opacity="1" fill-rule="nonzero" fill="#000000" xmlns:svg="http://www.w3.org/2000/svg" stroke="none" stroke-dasharray="none" version="1.1" stroke-width="0.15040500462055206px" stroke-miterlimit="4" stroke-linecap="butt" d="M64.82,117.006C65.282,117.006,66.121,116.838,67.044,116.334C85.879,106.015,92.549,101.317,92.549,88.9L92.549,63.646C92.549,60.206,90.913,59.158,88.312,58.025C84.914,56.556,71.029,51.648,67.631,50.474C66.749,50.179,65.785,49.97,64.82,49.97C63.856,49.97,62.849,50.264,62.009,50.474C58.612,51.312,44.726,56.599,41.329,58.025C38.727,59.115,37.092,60.206,37.092,63.646L37.092,88.9C37.092,101.317,43.762,105.973,62.597,116.334C63.52,116.838,64.359,117.006,64.82,117.006ZM64.82,110.126C64.318,110.126,63.813,110,62.681,109.371C47.537,100.31,43.048,97.625,43.048,87.432L43.048,64.778C43.048,64.024,43.217,63.688,43.888,63.394C49.257,61.296,58.319,58.402,63.688,56.263C64.107,56.095,64.485,56.052,64.82,56.052C65.156,56.052,65.534,56.095,65.953,56.263C71.281,58.402,80.216,61.548,85.712,63.394C86.424,63.646,86.55,64.024,86.55,64.778L86.55,87.432C86.55,97.625,82.061,100.31,66.918,109.371C65.827,110,65.323,110.126,64.82,110.126ZM64.82,110.126"/>
</g>
  <g id="Heavy-L" transform="matrix(1.0,0.0,0.0,1.0,2579.4046974166395,1465.0158514718912)">  <path stroke-width="0.5px" version="1.1" xmlns:svg="http://www.w3.org/2000/svg" stroke="none" stroke-miterlimit="4" stroke-opacity="1" stroke-linejoin="miter" fill="#000000" stroke-dasharray="none" fill-opacity="1" stroke-linecap="butt" fill-rule="nonzero" d="M17.438,0C5.766,0,0,5.905,0,17.715L0,99.415C0,111.295,5.766,117.131,17.438,117.131L35.164,117.131L35.164,107.127L17.993,107.127C12.714,107.127,10.004,104.278,10.004,99.276L10.004,17.854C10.004,12.852,12.714,10.004,17.993,10.004L74.544,10.004C79.754,10.004,82.464,12.852,82.464,17.854L82.464,53.038L92.537,53.038L92.537,17.715C92.537,5.905,86.702,0,75.03,0ZM26.122,25.496C23.899,25.496,22.301,27.094,22.301,29.178C22.301,31.332,23.899,32.999,26.122,32.999L66.485,32.999C68.639,32.999,70.237,31.332,70.237,29.178C70.237,27.094,68.639,25.496,66.485,25.496ZM26.122,44.393C23.899,44.393,22.301,46.06,22.301,48.075C22.301,50.229,23.899,51.965,26.122,51.965L50.937,51.965L50.937,44.393ZM26.122,63.359C23.899,63.359,22.301,65.026,22.301,67.18C22.301,69.264,23.899,70.862,26.122,70.862L35.164,70.862L35.164,63.359ZM26.122,63.359"/>
  <path stroke-linejoin="miter" xmlns:svg="http://www.w3.org/2000/svg" stroke-dasharray="none" stroke="none" stroke-linecap="butt" stroke-width="0.15040500462055206px" fill-opacity="1" stroke-opacity="1" fill-rule="nonzero" version="1.1" fill="#000000" stroke-miterlimit="4" d="M64.82,117.006C65.282,117.006,66.121,116.838,67.044,116.334C85.879,106.015,92.549,101.317,92.549,88.9L92.549,63.646C92.549,60.206,90.913,59.158,88.312,58.025C84.914,56.556,71.029,51.648,67.631,50.474C66.749,50.179,65.785,49.97,64.82,49.97C63.856,49.97,62.849,50.264,62.009,50.474C58.612,51.312,44.726,56.599,41.329,58.025C38.727,59.115,37.092,60.206,37.092,63.646L37.092,88.9C37.092,101.317,43.762,105.973,62.597,116.334C63.52,116.838,64.359,117.006,64.82,117.006ZM64.82,110.126C64.318,110.126,63.813,110,62.681,109.371C47.537,100.31,43.048,97.625,43.048,87.432L43.048,64.778C43.048,64.024,43.217,63.688,43.888,63.394C49.257,61.296,58.319,58.402,63.688,56.263C64.107,56.095,64.485,56.052,64.82,56.052C65.156,56.052,65.534,56.095,65.953,56.263C71.281,58.402,80.216,61.548,85.712,63.394C86.424,63.646,86.55,64.024,86.55,64.778L86.55,87.432C86.55,97.625,82.061,100.31,66.918,109.371C65.827,110,65.323,110.126,64.82,110.126ZM64.82,110.126"/>
</g>
  <g id="Bold-L" transform="matrix(1.0,0.0,0.0,1.0,2282.6946974166394,1465.0158514718912)">  <path xmlns:svg="http://www.w3.org/2000/svg" fill-rule="nonzero" stroke="none" stroke-linejoin="miter" stroke-opacity="1" fill-opacity="1" fill="#000000" stroke-width="0.5px" stroke-miterlimit="4" version="1.1" stroke-dasharray="none" stroke-linecap="butt" d="M17.438,0C5.766,0,0,5.905,0,17.715L0,99.415C0,111.295,5.766,117.131,17.438,117.131L35.164,117.131L35.164,107.127L17.993,107.127C12.714,107.127,10.004,104.278,10.004,99.276L10.004,17.854C10.004,12.852,12.714,10.004,17.993,10.004L74.544,10.004C79.754,10.004,82.464,12.852,82.464,17.854L82.464,53.038L92.537,53.038L92.537,17.715C92.537,5.905,86.702,0,75.03,0ZM26.122,25.496C23.899,25.496,22.301,27.094,22.301,29.178C22.301,31.332,23.899,32.999,26.122,32.999L66.485,32.999C68.639,32.999,70.237,31.332,70.237,29.178C70.237,27.094,68.639,25.496,66.485,25.496ZM26.122,44.393C23.899,44.393,22.301,46.06,22.301,48.075C22.301,50.229,23.899,51.965,26.122,51.965L50.937,51.965L50.937,44.393ZM26.122,63.359C23.899,63.359,22.301,65.026,22.301,67.18C22.301,69.264,23.899,70.862,26.122,70.862L35.164,70.862L35.164,63.359ZM26.122,63.359"/>
  <path stroke-linecap="butt" fill-rule="nonzero" fill="#000000" stroke-miterlimit="4" stroke-width="0.15040500462055206px" xmlns:svg="http://www.w3.org/2000/svg" stroke-opacity="1" fill-opacity="1" stroke-dasharray="none" version="1.1" stroke="none" stroke-linejoin="miter" d="M64.82,117.006C65.282,117.006,66.121,116.838,67.044,116.334C85.879,106.015,92.549,101.317,92.549,88.9L92.549,63.646C92.549,60.206,90.913,59.158,88.312,58.025C84.914,56.556,71.029,51.648,67.631,50.474C66.749,50.179,65.785,49.97,64.82,49.97C63.856,49.97,62.849,50.264,62.009,50.474C58.612,51.312,44.726,56.599,41.329,58.025C38.727,59.115,37.092,60.206,37.092,63.646L37.092,88.9C37.092,101.317,43.762,105.973,62.597,116.334C63.52,116.838,64.359,117.006,64.82,117.006ZM64.82,110.126C64.318,110.126,63.813,110,62.681,109.371C47.537,100.31,43.048,97.625,43.048,87.432L43.048,64.778C43.048,64.024,43.217,63.688,43.888,63.394C49.257,61.296,58.319,58.402,63.688,56.263C64.107,56.095,64.485,56.052,64.82,56.052C65.156,56.052,65.534,56.095,65.953,56.263C71.281,58.402,80.216,61.548,85.712,63.394C86.424,63.646,86.55,64.024,86.55,64.778L86.55,87.432C86.55,97.625,82.061,100.31,66.918,109.371C65.827,110,65.323,110.126,64.82,110.126ZM64.82,110.126"/>
</g>
  <g id="Semibold-L" transform="matrix(1.0,0.0,0.0,1.0,1985.9846974166398,1465.0158514718912)">  <path stroke-dasharray="none" stroke-width="0.5px" stroke-opacity="1" stroke-miterlimit="4" fill-rule="nonzero" fill-opacity="1" fill="#000000" stroke="none" version="1.1" stroke-linecap="butt" xmlns:svg="http://www.w3.org/2000/svg" stroke-linejoin="miter" d="M17.438,0C5.766,0,0,5.905,0,17.715L0,99.415C0,111.295,5.766,117.131,17.438,117.131L35.164,117.131L35.164,107.127L17.993,107.127C12.714,107.127,10.004,104.278,10.004,99.276L10.004,17.854C10.004,12.852,12.714,10.004,17.993,10.004L74.544,10.004C79.754,10.004,82.464,12.852,82.464,17.854L82.464,53.038L92.537,53.038L92.537,17.715C92.537,5.905,86.702,0,75.03,0ZM26.122,25.496C23.899,25.496,22.301,27.094,22.301,29.178C22.301,31.332,23.899,32.999,26.122,32.999L66.485,32.999C68.639,32.999,70.237,31.332,70.237,29.178C70.237,27.094,68.639,25.496,66.485,25.496ZM26.122,44.393C23.899,44.393,22.301,46.06,22.301,48.075C22.301,50.229,23.899,51.965,26.122,51.965L50.937,51.965L50.937,44.393ZM26.122,63.359C23.899,63.359,22.301,65.026,22.301,67.18C22.301,69.264,23.899,70.862,26.122,70.862L35.164,70.862L35.164,63.359ZM26.122,63.359"/>
  <path stroke-linecap="butt" stroke-linejoin="miter" stroke-miterlimit="4" stroke-opacity="1" fill-opacity="1" stroke-width="0.15040500462055206px" stroke="none" stroke-dasharray="none" fill="#000000" fill-rule="nonzero" xmlns:svg="http://www.w3.org/2000/svg" version="1.1" d="M64.82,117.006C65.282,117.006,66.121,116.838,67.044,116.334C85.879,106.015,92.549,101.317,92.549,88.9L92.549,63.646C92.549,60.206,90.913,59.158,88.312,58.025C84.914,56.556,71.029,51.648,67.631,50.474C66.749,50.179,65.785,49.97,64.82,49.97C63.856,49.97,62.849,50.264,62.009,50.474C58.612,51.312,44.726,56.599,41.329,58.025C38.727,59.115,37.092,60.206,37.092,63.646L37.092,88.9C37.092,101.317,43.762,105.973,62.597,116.334C63.52,116.838,64.359,117.006,64.82,117.006ZM64.82,110.126C64.318,110.126,63.813,110,62.681,109.371C47.537,100.31,43.048,97.625,43.048,87.432L43.048,64.778C43.048,64.024,43.217,63.688,43.888,63.394C49.257,61.296,58.319,58.402,63.688,56.263C64.107,56.095,64.485,56.052,64.82,56.052C65.156,56.052,65.534,56.095,65.953,56.263C71.281,58.402,80.216,61.548,85.712,63.394C86.424,63.646,86.55,64.024,86.55,64.778L86.55,87.432C86.55,97.625,82.061,100.31,66.918,109.371C65.827,110,65.323,110.126,64.82,110.126ZM64.82,110.126"/>
</g>
  <g id="Medium-L" transform="matrix(1.0,0.0,0.0,1.0,1689.2746974166398,1465.0158514718912)">  <path stroke-dasharray="none" stroke-linejoin="miter" stroke-linecap="butt" stroke="none" stroke-opacity="1" fill="#000000" xmlns:svg="http://www.w3.org/2000/svg" version="1.1" fill-opacity="1" stroke-miterlimit="4" stroke-width="0.5px" fill-rule="nonzero" d="M17.438,0C5.766,0,0,5.905,0,17.715L0,99.415C0,111.295,5.766,117.131,17.438,117.131L35.164,117.131L35.164,107.127L17.993,107.127C12.714,107.127,10.004,104.278,10.004,99.276L10.004,17.854C10.004,12.852,12.714,10.004,17.993,10.004L74.544,10.004C79.754,10.004,82.464,12.852,82.464,17.854L82.464,53.038L92.537,53.038L92.537,17.715C92.537,5.905,86.702,0,75.03,0ZM26.122,25.496C23.899,25.496,22.301,27.094,22.301,29.178C22.301,31.332,23.899,32.999,26.122,32.999L66.485,32.999C68.639,32.999,70.237,31.332,70.237,29.178C70.237,27.094,68.639,25.496,66.485,25.496ZM26.122,44.393C23.899,44.393,22.301,46.06,22.301,48.075C22.301,50.229,23.899,51.965,26.122,51.965L50.937,51.965L50.937,44.393ZM26.122,63.359C23.899,63.359,22.301,65.026,22.301,67.18C22.301,69.264,23.899,70.862,26.122,70.862L35.164,70.862L35.164,63.359ZM26.122,63.359"/>
  <path stroke-linecap="butt" stroke-dasharray="none" stroke="none" fill-rule="nonzero" xmlns:svg="http://www.w3.org/2000/svg" version="1.1" stroke-miterlimit="4" fill-opacity="1" stroke-width="0.15040500462055206px" stroke-opacity="1" stroke-linejoin="miter" fill="#000000" d="M64.82,117.006C65.282,117.006,66.121,116.838,67.044,116.334C85.879,106.015,92.549,101.317,92.549,88.9L92.549,63.646C92.549,60.206,90.913,59.158,88.312,58.025C84.914,56.556,71.029,51.648,67.631,50.474C66.749,50.179,65.785,49.97,64.82,49.97C63.856,49.97,62.849,50.264,62.009,50.474C58.612,51.312,44.726,56.599,41.329,58.025C38.727,59.115,37.092,60.206,37.092,63.646L37.092,88.9C37.092,101.317,43.762,105.973,62.597,116.334C63.52,116.838,64.359,117.006,64.82,117.006ZM64.82,110.126C64.318,110.126,63.813,110,62.681,109.371C47.537,100.31,43.048,97.625,43.048,87.432L43.048,64.778C43.048,64.024,43.217,63.688,43.888,63.394C49.257,61.296,58.319,58.402,63.688,56.263C64.107,56.095,64.485,56.052,64.82,56.052C65.156,56.052,65.534,56.095,65.953,56.263C71.281,58.402,80.216,61.548,85.712,63.394C86.424,63.646,86.55,64.024,86.55,64.778L86.55,87.432C86.55,97.625,82.061,100.31,66.918,109.371C65.827,110,65.323,110.126,64.82,110.126ZM64.82,110.126"/>
</g>
  <g id="Regular-L" transform="matrix(1.0,0.0,0.0,1.0,1392.5646974166398,1465.0158514718912)">  <path stroke-linecap="butt" stroke-dasharray="none" stroke-width="0.5px" stroke="none" version="1.1" fill-opacity="1" stroke-miterlimit="4" fill-rule="nonzero" stroke-linejoin="miter" stroke-opacity="1" fill="#000000" xmlns:svg="http://www.w3.org/2000/svg" d="M17.438,0C5.766,0,0,5.905,0,17.715L0,99.415C0,111.295,5.766,117.131,17.438,117.131L35.164,117.131L35.164,107.127L17.993,107.127C12.714,107.127,10.004,104.278,10.004,99.276L10.004,17.854C10.004,12.852,12.714,10.004,17.993,10.004L74.544,10.004C79.754,10.004,82.464,12.852,82.464,17.854L82.464,53.038L92.537,53.038L92.537,17.715C92.537,5.905,86.702,0,75.03,0ZM26.122,25.496C23.899,25.496,22.301,27.094,22.301,29.178C22.301,31.332,23.899,32.999,26.122,32.999L66.485,32.999C68.639,32.999,70.237,31.332,70.237,29.178C70.237,27.094,68.639,25.496,66.485,25.496ZM26.122,44.393C23.899,44.393,22.301,46.06,22.301,48.075C22.301,50.229,23.899,51.965,26.122,51.965L50.937,51.965L50.937,44.393ZM26.122,63.359C23.899,63.359,22.301,65.026,22.301,67.18C22.301,69.264,23.899,70.862,26.122,70.862L35.164,70.862L35.164,63.359ZM26.122,63.359"/>
  <path stroke-dasharray="none" xmlns:svg="http://www.w3.org/2000/svg" fill-opacity="1" fill-rule="nonzero" stroke="none" stroke-width="0.15040500462055206px" fill="#000000" stroke-opacity="1" stroke-linejoin="miter" version="1.1" stroke-miterlimit="4" stroke-linecap="butt" d="M64.82,117.006C65.282,117.006,66.121,116.838,67.044,116.334C85.879,106.015,92.549,101.317,92.549,88.9L92.549,63.646C92.549,60.206,90.913,59.158,88.312,58.025C84.914,56.556,71.029,51.648,67.631,50.474C66.749,50.179,65.785,49.97,64.82,49.97C63.856,49.97,62.849,50.264,62.009,50.474C58.612,51.312,44.726,56.599,41.329,58.025C38.727,59.115,37.092,60.206,37.092,63.646L37.092,88.9C37.092,101.317,43.762,105.973,62.597,116.334C63.52,116.838,64.359,117.006,64.82,117.006ZM64.82,110.126C64.318,110.126,63.813,110,62.681,109.371C47.537,100.31,43.048,97.625,43.048,87.432L43.048,64.778C43.048,64.024,43.217,63.688,43.888,63.394C49.257,61.296,58.319,58.402,63.688,56.263C64.107,56.095,64.485,56.052,64.82,56.052C65.156,56.052,65.534,56.095,65.953,56.263C71.281,58.402,80.216,61.548,85.712,63.394C86.424,63.646,86.55,64.024,86.55,64.778L86.55,87.432C86.55,97.625,82.061,100.31,66.918,109.371C65.827,110,65.323,110.126,64.82,110.126ZM64.82,110.126"/>
</g>
  <g id="Light-L" transform="matrix(1.0,0.0,0.0,1.0,1095.85469741664,1465.0158514718912)">  <path stroke-linejoin="miter" stroke-miterlimit="4" fill-rule="nonzero" stroke-linecap="butt" fill="#000000" stroke-width="0.5px" version="1.1" stroke-dasharray="none" xmlns:svg="http://www.w3.org/2000/svg" stroke-opacity="1" stroke="none" fill-opacity="1" d="M17.438,0C5.766,0,0,5.905,0,17.715L0,99.415C0,111.295,5.766,117.131,17.438,117.131L35.164,117.131L35.164,107.127L17.993,107.127C12.714,107.127,10.004,104.278,10.004,99.276L10.004,17.854C10.004,12.852,12.714,10.004,17.993,10.004L74.544,10.004C79.754,10.004,82.464,12.852,82.464,17.854L82.464,53.038L92.537,53.038L92.537,17.715C92.537,5.905,86.702,0,75.03,0ZM26.122,25.496C23.899,25.496,22.301,27.094,22.301,29.178C22.301,31.332,23.899,32.999,26.122,32.999L66.485,32.999C68.639,32.999,70.237,31.332,70.237,29.178C70.237,27.094,68.639,25.496,66.485,25.496ZM26.122,44.393C23.899,44.393,22.301,46.06,22.301,48.075C22.301,50.229,23.899,51.965,26.122,51.965L50.937,51.965L50.937,44.393ZM26.122,63.359C23.899,63.359,22.301,65.026,22.301,67.18C22.301,69.264,23.899,70.862,26.122,70.862L35.164,70.862L35.164,63.359ZM26.122,63.359"/>
  <path stroke-opacity="1" fill="#000000" version="1.1" stroke-linejoin="miter" xmlns:svg="http://www.w3.org/2000/svg" fill-opacity="1" stroke-miterlimit="4" stroke-linecap="butt" stroke-width="0.15040500462055206px" stroke="none" fill-rule="nonzero" stroke-dasharray="none" d="M64.82,117.006C65.282,117.006,66.121,116.838,67.044,116.334C85.879,106.015,92.549,101.317,92.549,88.9L92.549,63.646C92.549,60.206,90.913,59.158,88.312,58.025C84.914,56.556,71.029,51.648,67.631,50.474C66.749,50.179,65.785,49.97,64.82,49.97C63.856,49.97,62.849,50.264,62.009,50.474C58.612,51.312,44.726,56.599,41.329,58.025C38.727,59.115,37.092,60.206,37.092,63.646L37.092,88.9C37.092,101.317,43.762,105.973,62.597,116.334C63.52,116.838,64.359,117.006,64.82,117.006ZM64.82,110.126C64.318,110.126,63.813,110,62.681,109.371C47.537,100.31,43.048,97.625,43.048,87.432L43.048,64.778C43.048,64.024,43.217,63.688,43.888,63.394C49.257,61.296,58.319,58.402,63.688,56.263C64.107,56.095,64.485,56.052,64.82,56.052C65.156,56.052,65.534,56.095,65.953,56.263C71.281,58.402,80.216,61.548,85.712,63.394C86.424,63.646,86.55,64.024,86.55,64.778L86.55,87.432C86.55,97.625,82.061,100.31,66.918,109.371C65.827,110,65.323,110.126,64.82,110.126ZM64.82,110.126"/>
</g>
  <g id="Thin-L" transform="matrix(1.0,0.0,0.0,1.0,799.1446974166398,1465.0158514718912)">  <path stroke-linecap="butt" stroke-miterlimit="4" stroke="none" stroke-linejoin="miter" xmlns:svg="http://www.w3.org/2000/svg" fill-rule="nonzero" fill-opacity="1" stroke-dasharray="none" stroke-width="0.5px" fill="#000000" version="1.1" stroke-opacity="1" d="M17.438,0C5.766,0,0,5.905,0,17.715L0,99.415C0,111.295,5.766,117.131,17.438,117.131L35.164,117.131L35.164,107.127L17.993,107.127C12.714,107.127,10.004,104.278,10.004,99.276L10.004,17.854C10.004,12.852,12.714,10.004,17.993,10.004L74.544,10.004C79.754,10.004,82.464,12.852,82.464,17.854L82.464,53.038L92.537,53.038L92.537,17.715C92.537,5.905,86.702,0,75.03,0ZM26.122,25.496C23.899,25.496,22.301,27.094,22.301,29.178C22.301,31.332,23.899,32.999,26.122,32.999L66.485,32.999C68.639,32.999,70.237,31.332,70.237,29.178C70.237,27.094,68.639,25.496,66.485,25.496ZM26.122,44.393C23.899,44.393,22.301,46.06,22.301,48.075C22.301,50.229,23.899,51.965,26.122,51.965L50.937,51.965L50.937,44.393ZM26.122,63.359C23.899,63.359,22.301,65.026,22.301,67.18C22.301,69.264,23.899,70.862,26.122,70.862L35.164,70.862L35.164,63.359ZM26.122,63.359"/>
  <path stroke-linejoin="miter" fill="#000000" stroke-linecap="butt" fill-rule="nonzero" xmlns:svg="http://www.w3.org/2000/svg" version="1.1" stroke-opacity="1" stroke-dasharray="none" stroke-width="0.15040500462055206px" fill-opacity="1" stroke="none" stroke-miterlimit="4" d="M64.82,117.006C65.282,117.006,66.121,116.838,67.044,116.334C85.879,106.015,92.549,101.317,92.549,88.9L92.549,63.646C92.549,60.206,90.913,59.158,88.312,58.025C84.914,56.556,71.029,51.648,67.631,50.474C66.749,50.179,65.785,49.97,64.82,49.97C63.856,49.97,62.849,50.264,62.009,50.474C58.612,51.312,44.726,56.599,41.329,58.025C38.727,59.115,37.092,60.206,37.092,63.646L37.092,88.9C37.092,101.317,43.762,105.973,62.597,116.334C63.52,116.838,64.359,117.006,64.82,117.006ZM64.82,110.126C64.318,110.126,63.813,110,62.681,109.371C47.537,100.31,43.048,97.625,43.048,87.432L43.048,64.778C43.048,64.024,43.217,63.688,43.888,63.394C49.257,61.296,58.319,58.402,63.688,56.263C64.107,56.095,64.485,56.052,64.82,56.052C65.156,56.052,65.534,56.095,65.953,56.263C71.281,58.402,80.216,61.548,85.712,63.394C86.424,63.646,86.55,64.024,86.55,64.778L86.55,87.432C86.55,97.625,82.061,100.31,66.918,109.371C65.827,110,65.323,110.126,64.82,110.126ZM64.82,110.126"/>
</g>
  <g id="Ultralight-L" transform="matrix(1.0,0.0,0.0,1.0,502.43469741663984,1465.0158514718912)">  <path fill-opacity="1" fill="#000000" fill-rule="nonzero" stroke-linecap="butt" stroke-width="0.5px" stroke-opacity="1" stroke-miterlimit="4" stroke-dasharray="none" xmlns:svg="http://www.w3.org/2000/svg" stroke="none" version="1.1" stroke-linejoin="miter" d="M17.438,0C5.766,0,0,5.905,0,17.715L0,99.415C0,111.295,5.766,117.131,17.438,117.131L35.164,117.131L35.164,107.127L17.993,107.127C12.714,107.127,10.004,104.278,10.004,99.276L10.004,17.854C10.004,12.852,12.714,10.004,17.993,10.004L74.544,10.004C79.754,10.004,82.464,12.852,82.464,17.854L82.464,53.038L92.537,53.038L92.537,17.715C92.537,5.905,86.702,0,75.03,0ZM26.122,25.496C23.899,25.496,22.301,27.094,22.301,29.178C22.301,31.332,23.899,32.999,26.122,32.999L66.485,32.999C68.639,32.999,70.237,31.332,70.237,29.178C70.237,27.094,68.639,25.496,66.485,25.496ZM26.122,44.393C23.899,44.393,22.301,46.06,22.301,48.075C22.301,50.229,23.899,51.965,26.122,51.965L50.937,51.965L50.937,44.393ZM26.122,63.359C23.899,63.359,22.301,65.026,22.301,67.18C22.301,69.264,23.899,70.862,26.122,70.862L35.164,70.862L35.164,63.359ZM26.122,63.359"/>
  <path fill-rule="nonzero" stroke-linejoin="miter" fill-opacity="1" stroke-dasharray="none" stroke-miterlimit="4" fill="#000000" version="1.1" stroke-linecap="butt" stroke-opacity="1" xmlns:svg="http://www.w3.org/2000/svg" stroke-width="0.15040500462055206px" stroke="none" d="M64.82,117.006C65.282,117.006,66.121,116.838,67.044,116.334C85.879,106.015,92.549,101.317,92.549,88.9L92.549,63.646C92.549,60.206,90.913,59.158,88.312,58.025C84.914,56.556,71.029,51.648,67.631,50.474C66.749,50.179,65.785,49.97,64.82,49.97C63.856,49.97,62.849,50.264,62.009,50.474C58.612,51.312,44.726,56.599,41.329,58.025C38.727,59.115,37.092,60.206,37.092,63.646L37.092,88.9C37.092,101.317,43.762,105.973,62.597,116.334C63.52,116.838,64.359,117.006,64.82,117.006ZM64.82,110.126C64.318,110.126,63.813,110,62.681,109.371C47.537,100.31,43.048,97.625,43.048,87.432L43.048,64.778C43.048,64.024,43.217,63.688,43.888,63.394C49.257,61.296,58.319,58.402,63.688,56.263C64.107,56.095,64.485,56.052,64.82,56.052C65.156,56.052,65.534,56.095,65.953,56.263C71.281,58.402,80.216,61.548,85.712,63.394C86.424,63.646,86.55,64.024,86.55,64.778L86.55,87.432C86.55,97.625,82.061,100.31,66.918,109.371C65.827,110,65.323,110.126,64.82,110.126ZM64.82,110.126"/>
</g>
  <g id="Black-M" transform="matrix(1.0,0.0,0.0,1.0,2889.280540633054,1047.5497342139174)">  <path xmlns:svg="http://www.w3.org/2000/svg" stroke-linejoin="miter" fill-opacity="1" stroke-dasharray="none" stroke="none" stroke-width="0.5px" stroke-miterlimit="4" stroke-linecap="butt" version="1.1" fill-rule="nonzero" fill="#000000" stroke-opacity="1" d="M13.518,0C4.47,0,0,4.578,0,13.733L0,77.066C0,86.275,4.47,90.799,13.518,90.799L27.259,90.799L27.259,83.044L13.948,83.044C9.856,83.044,7.755,80.836,7.755,76.958L7.755,13.841C7.755,9.963,9.856,7.755,13.948,7.755L57.786,7.755C61.825,7.755,63.926,9.963,63.926,13.841L63.926,41.115L71.734,41.115L71.734,13.733C71.734,4.578,67.211,0,58.163,0ZM20.249,19.765C18.526,19.765,17.287,21.003,17.287,22.619C17.287,24.288,18.526,25.581,20.249,25.581L51.539,25.581C53.208,25.581,54.447,24.288,54.447,22.619C54.447,21.003,53.208,19.765,51.539,19.765ZM20.249,34.413C18.526,34.413,17.287,35.706,17.287,37.267C17.287,38.937,18.526,40.283,20.249,40.283L39.486,40.283L39.486,34.413ZM20.249,49.115C18.526,49.115,17.287,50.408,17.287,52.077C17.287,53.693,18.526,54.932,20.249,54.932L27.259,54.932L27.259,49.115ZM20.249,49.115"/>
  <path stroke-linejoin="miter" fill-opacity="1" stroke-opacity="1" fill-rule="nonzero" fill="#000000" xmlns:svg="http://www.w3.org/2000/svg" stroke="none" stroke-dasharray="none" version="1.1" stroke-width="0.15040500462055206px" stroke-miterlimit="4" stroke-linecap="butt" d="M50.248,90.703C50.606,90.703,51.257,90.572,51.972,90.182C66.573,82.183,71.743,78.54,71.743,68.914L71.743,49.338C71.743,46.671,70.475,45.859,68.459,44.981C65.825,43.842,55.061,40.037,52.427,39.127C51.744,38.899,50.996,38.737,50.248,38.737C49.501,38.737,48.72,38.964,48.069,39.127C45.436,39.777,34.671,43.875,32.038,44.981C30.021,45.826,28.753,46.671,28.753,49.338L28.753,68.914C28.753,78.54,33.924,82.149,48.525,90.182C49.24,90.572,49.891,90.703,50.248,90.703ZM50.248,85.369C49.859,85.369,49.467,85.272,48.59,84.784C36.85,77.759,33.371,75.678,33.371,67.777L33.371,50.215C33.371,49.631,33.501,49.37,34.021,49.143C38.184,47.516,45.208,45.273,49.371,43.614C49.696,43.485,49.988,43.452,50.248,43.452C50.509,43.452,50.801,43.485,51.126,43.614C55.256,45.273,62.183,47.712,66.443,49.143C66.996,49.338,67.093,49.631,67.093,50.215L67.093,67.777C67.093,75.678,63.614,77.759,51.875,84.784C51.029,85.272,50.638,85.369,50.248,85.369ZM50.248,85.369"/>
</g>
  <g id="Heavy-M" transform="matrix(1.0,0.0,0.0,1.0,2592.570540633054,1047.5497342139174)">  <path stroke-width="0.5px" version="1.1" xmlns:svg="http://www.w3.org/2000/svg" stroke="none" stroke-miterlimit="4" stroke-opacity="1" stroke-linejoin="miter" fill="#000000" stroke-dasharray="none" fill-opacity="1" stroke-linecap="butt" fill-rule="nonzero" d="M13.518,0C4.47,0,0,4.578,0,13.733L0,77.066C0,86.275,4.47,90.799,13.518,90.799L27.259,90.799L27.259,83.044L13.948,83.044C9.856,83.044,7.755,80.836,7.755,76.958L7.755,13.841C7.755,9.963,9.856,7.755,13.948,7.755L57.786,7.755C61.825,7.755,63.926,9.963,63.926,13.841L63.926,41.115L71.734,41.115L71.734,13.733C71.734,4.578,67.211,0,58.163,0ZM20.249,19.765C18.526,19.765,17.287,21.003,17.287,22.619C17.287,24.288,18.526,25.581,20.249,25.581L51.539,25.581C53.208,25.581,54.447,24.288,54.447,22.619C54.447,21.003,53.208,19.765,51.539,19.765ZM20.249,34.413C18.526,34.413,17.287,35.706,17.287,37.267C17.287,38.937,18.526,40.283,20.249,40.283L39.486,40.283L39.486,34.413ZM20.249,49.115C18.526,49.115,17.287,50.408,17.287,52.077C17.287,53.693,18.526,54.932,20.249,54.932L27.259,54.932L27.259,49.115ZM20.249,49.115"/>
  <path stroke-linejoin="miter" xmlns:svg="http://www.w3.org/2000/svg" stroke-dasharray="none" stroke="none" stroke-linecap="butt" stroke-width="0.15040500462055206px" fill-opacity="1" stroke-opacity="1" fill-rule="nonzero" version="1.1" fill="#000000" stroke-miterlimit="4" d="M50.248,90.703C50.606,90.703,51.257,90.572,51.972,90.182C66.573,82.183,71.743,78.54,71.743,68.914L71.743,49.338C71.743,46.671,70.475,45.859,68.459,44.981C65.825,43.842,55.061,40.037,52.427,39.127C51.744,38.899,50.996,38.737,50.248,38.737C49.501,38.737,48.72,38.964,48.069,39.127C45.436,39.777,34.671,43.875,32.038,44.981C30.021,45.826,28.753,46.671,28.753,49.338L28.753,68.914C28.753,78.54,33.924,82.149,48.525,90.182C49.24,90.572,49.891,90.703,50.248,90.703ZM50.248,85.369C49.859,85.369,49.467,85.272,48.59,84.784C36.85,77.759,33.371,75.678,33.371,67.777L33.371,50.215C33.371,49.631,33.501,49.37,34.021,49.143C38.184,47.516,45.208,45.273,49.371,43.614C49.696,43.485,49.988,43.452,50.248,43.452C50.509,43.452,50.801,43.485,51.126,43.614C55.256,45.273,62.183,47.712,66.443,49.143C66.996,49.338,67.093,49.631,67.093,50.215L67.093,67.777C67.093,75.678,63.614,77.759,51.875,84.784C51.029,85.272,50.638,85.369,50.248,85.369ZM50.248,85.369"/>
</g>
  <g id="Bold-M" transform="matrix(1.0,0.0,0.0,1.0,2295.860540633054,1047.5497342139174)">  <path xmlns:svg="http://www.w3.org/2000/svg" fill-rule="nonzero" stroke="none" stroke-linejoin="miter" stroke-opacity="1" fill-opacity="1" fill="#000000" stroke-width="0.5px" stroke-miterlimit="4" version="1.1" stroke-dasharray="none" stroke-linecap="butt" d="M13.518,0C4.47,0,0,4.578,0,13.733L0,77.066C0,86.275,4.47,90.799,13.518,90.799L27.259,90.799L27.259,83.044L13.948,83.044C9.856,83.044,7.755,80.836,7.755,76.958L7.755,13.841C7.755,9.963,9.856,7.755,13.948,7.755L57.786,7.755C61.825,7.755,63.926,9.963,63.926,13.841L63.926,41.115L71.734,41.115L71.734,13.733C71.734,4.578,67.211,0,58.163,0ZM20.249,19.765C18.526,19.765,17.287,21.003,17.287,22.619C17.287,24.288,18.526,25.581,20.249,25.581L51.539,25.581C53.208,25.581,54.447,24.288,54.447,22.619C54.447,21.003,53.208,19.765,51.539,19.765ZM20.249,34.413C18.526,34.413,17.287,35.706,17.287,37.267C17.287,38.937,18.526,40.283,20.249,40.283L39.486,40.283L39.486,34.413ZM20.249,49.115C18.526,49.115,17.287,50.408,17.287,52.077C17.287,53.693,18.526,54.932,20.249,54.932L27.259,54.932L27.259,49.115ZM20.249,49.115"/>
  <path stroke-linecap="butt" fill-rule="nonzero" fill="#000000" stroke-miterlimit="4" stroke-width="0.15040500462055206px" xmlns:svg="http://www.w3.org/2000/svg" stroke-opacity="1" fill-opacity="1" stroke-dasharray="none" version="1.1" stroke="none" stroke-linejoin="miter" d="M50.248,90.703C50.606,90.703,51.257,90.572,51.972,90.182C66.573,82.183,71.743,78.54,71.743,68.914L71.743,49.338C71.743,46.671,70.475,45.859,68.459,44.981C65.825,43.842,55.061,40.037,52.427,39.127C51.744,38.899,50.996,38.737,50.248,38.737C49.501,38.737,48.72,38.964,48.069,39.127C45.436,39.777,34.671,43.875,32.038,44.981C30.021,45.826,28.753,46.671,28.753,49.338L28.753,68.914C28.753,78.54,33.924,82.149,48.525,90.182C49.24,90.572,49.891,90.703,50.248,90.703ZM50.248,85.369C49.859,85.369,49.467,85.272,48.59,84.784C36.85,77.759,33.371,75.678,33.371,67.777L33.371,50.215C33.371,49.631,33.501,49.37,34.021,49.143C38.184,47.516,45.208,45.273,49.371,43.614C49.696,43.485,49.988,43.452,50.248,43.452C50.509,43.452,50.801,43.485,51.126,43.614C55.256,45.273,62.183,47.712,66.443,49.143C66.996,49.338,67.093,49.631,67.093,50.215L67.093,67.777C67.093,75.678,63.614,77.759,51.875,84.784C51.029,85.272,50.638,85.369,50.248,85.369ZM50.248,85.369"/>
</g>
  <g id="Semibold-M" transform="matrix(1.0,0.0,0.0,1.0,1999.150540633054,1047.5497342139174)">  <path stroke-dasharray="none" stroke-width="0.5px" stroke-opacity="1" stroke-miterlimit="4" fill-rule="nonzero" fill-opacity="1" fill="#000000" stroke="none" version="1.1" stroke-linecap="butt" xmlns:svg="http://www.w3.org/2000/svg" stroke-linejoin="miter" d="M13.518,0C4.47,0,0,4.578,0,13.733L0,77.066C0,86.275,4.47,90.799,13.518,90.799L27.259,90.799L27.259,83.044L13.948,83.044C9.856,83.044,7.755,80.836,7.755,76.958L7.755,13.841C7.755,9.963,9.856,7.755,13.948,7.755L57.786,7.755C61.825,7.755,63.926,9.963,63.926,13.841L63.926,41.115L71.734,41.115L71.734,13.733C71.734,4.578,67.211,0,58.163,0ZM20.249,19.765C18.526,19.765,17.287,21.003,17.287,22.619C17.287,24.288,18.526,25.581,20.249,25.581L51.539,25.581C53.208,25.581,54.447,24.288,54.447,22.619C54.447,21.003,53.208,19.765,51.539,19.765ZM20.249,34.413C18.526,34.413,17.287,35.706,17.287,37.267C17.287,38.937,18.526,40.283,20.249,40.283L39.486,40.283L39.486,34.413ZM20.249,49.115C18.526,49.115,17.287,50.408,17.287,52.077C17.287,53.693,18.526,54.932,20.249,54.932L27.259,54.932L27.259,49.115ZM20.249,49.115"/>
  <path stroke-linecap="butt" stroke-linejoin="miter" stroke-miterlimit="4" stroke-opacity="1" fill-opacity="1" stroke-width="0.15040500462055206px" stroke="none" stroke-dasharray="none" fill="#000000" fill-rule="nonzero" xmlns:svg="http://www.w3.org/2000/svg" version="1.1" d="M50.248,90.703C50.606,90.703,51.257,90.572,51.972,90.182C66.573,82.183,71.743,78.54,71.743,68.914L71.743,49.338C71.743,46.671,70.475,45.859,68.459,44.981C65.825,43.842,55.061,40.037,52.427,39.127C51.744,38.899,50.996,38.737,50.248,38.737C49.501,38.737,48.72,38.964,48.069,39.127C45.436,39.777,34.671,43.875,32.038,44.981C30.021,45.826,28.753,46.671,28.753,49.338L28.753,68.914C28.753,78.54,33.924,82.149,48.525,90.182C49.24,90.572,49.891,90.703,50.248,90.703ZM50.248,85.369C49.859,85.369,49.467,85.272,48.59,84.784C36.85,77.759,33.371,75.678,33.371,67.777L33.371,50.215C33.371,49.631,33.501,49.37,34.021,49.143C38.184,47.516,45.208,45.273,49.371,43.614C49.696,43.485,49.988,43.452,50.248,43.452C50.509,43.452,50.801,43.485,51.126,43.614C55.256,45.273,62.183,47.712,66.443,49.143C66.996,49.338,67.093,49.631,67.093,50.215L67.093,67.777C67.093,75.678,63.614,77.759,51.875,84.784C51.029,85.272,50.638,85.369,50.248,85.369ZM50.248,85.369"/>
</g>
  <g id="Medium-M" transform="matrix(1.0,0.0,0.0,1.0,1702.440540633054,1047.5497342139174)">  <path stroke-dasharray="none" stroke-linejoin="miter" stroke-linecap="butt" stroke="none" stroke-opacity="1" fill="#000000" xmlns:svg="http://www.w3.org/2000/svg" version="1.1" fill-opacity="1" stroke-miterlimit="4" stroke-width="0.5px" fill-rule="nonzero" d="M13.518,0C4.47,0,0,4.578,0,13.733L0,77.066C0,86.275,4.47,90.799,13.518,90.799L27.259,90.799L27.259,83.044L13.948,83.044C9.856,83.044,7.755,80.836,7.755,76.958L7.755,13.841C7.755,9.963,9.856,7.755,13.948,7.755L57.786,7.755C61.825,7.755,63.926,9.963,63.926,13.841L63.926,41.115L71.734,41.115L71.734,13.733C71.734,4.578,67.211,0,58.163,0ZM20.249,19.765C18.526,19.765,17.287,21.003,17.287,22.619C17.287,24.288,18.526,25.581,20.249,25.581L51.539,25.581C53.208,25.581,54.447,24.288,54.447,22.619C54.447,21.003,53.208,19.765,51.539,19.765ZM20.249,34.413C18.526,34.413,17.287,35.706,17.287,37.267C17.287,38.937,18.526,40.283,20.249,40.283L39.486,40.283L39.486,34.413ZM20.249,49.115C18.526,49.115,17.287,50.408,17.287,52.077C17.287,53.693,18.526,54.932,20.249,54.932L27.259,54.932L27.259,49.115ZM20.249,49.115"/>
  <path stroke-linecap="butt" stroke-dasharray="none" stroke="none" fill-rule="nonzero" xmlns:svg="http://www.w3.org/2000/svg" version="1.1" stroke-miterlimit="4" fill-opacity="1" stroke-width="0.15040500462055206px" stroke-opacity="1" stroke-linejoin="miter" fill="#000000" d="M50.248,90.703C50.606,90.703,51.257,90.572,51.972,90.182C66.573,82.183,71.743,78.54,71.743,68.914L71.743,49.338C71.743,46.671,70.475,45.859,68.459,44.981C65.825,43.842,55.061,40.037,52.427,39.127C51.744,38.899,50.996,38.737,50.248,38.737C49.501,38.737,48.72,38.964,48.069,39.127C45.436,39.777,34.671,43.875,32.038,44.981C30.021,45.826,28.753,46.671,28.753,49.338L28.753,68.914C28.753,78.54,33.924,82.149,48.525,90.182C49.24,90.572,49.891,90.703,50.248,90.703ZM50.248,85.369C49.859,85.369,49.467,85.272,48.59,84.784C36.85,77.759,33.371,75.678,33.371,67.777L33.371,50.215C33.371,49.631,33.501,49.37,34.021,49.143C38.184,47.516,45.208,45.273,49.371,43.614C49.696,43.485,49.988,43.452,50.248,43.452C50.509,43.452,50.801,43.485,51.126,43.614C55.256,45.273,62.183,47.712,66.443,49.143C66.996,49.338,67.093,49.631,67.093,50.215L67.093,67.777C67.093,75.678,63.614,77.759,51.875,84.784C51.029,85.272,50.638,85.369,50.248,85.369ZM50.248,85.369"/>
</g>
  <g id="Regular-M" transform="matrix(1.0,0.0,0.0,1.0,1405.730540633054,1047.5497342139174)">  <path stroke-linecap="butt" stroke-dasharray="none" stroke-width="0.5px" stroke="none" version="1.1" fill-opacity="1" stroke-miterlimit="4" fill-rule="nonzero" stroke-linejoin="miter" stroke-opacity="1" fill="#000000" xmlns:svg="http://www.w3.org/2000/svg" d="M13.518,0C4.47,0,0,4.578,0,13.733L0,77.066C0,86.275,4.47,90.799,13.518,90.799L27.259,90.799L27.259,83.044L13.948,83.044C9.856,83.044,7.755,80.836,7.755,76.958L7.755,13.841C7.755,9.963,9.856,7.755,13.948,7.755L57.786,7.755C61.825,7.755,63.926,9.963,63.926,13.841L63.926,41.115L71.734,41.115L71.734,13.733C71.734,4.578,67.211,0,58.163,0ZM20.249,19.765C18.526,19.765,17.287,21.003,17.287,22.619C17.287,24.288,18.526,25.581,20.249,25.581L51.539,25.581C53.208,25.581,54.447,24.288,54.447,22.619C54.447,21.003,53.208,19.765,51.539,19.765ZM20.249,34.413C18.526,34.413,17.287,35.706,17.287,37.267C17.287,38.937,18.526,40.283,20.249,40.283L39.486,40.283L39.486,34.413ZM20.249,49.115C18.526,49.115,17.287,50.408,17.287,52.077C17.287,53.693,18.526,54.932,20.249,54.932L27.259,54.932L27.259,49.115ZM20.249,49.115"/>
  <path stroke-dasharray="none" xmlns:svg="http://www.w3.org/2000/svg" fill-opacity="1" fill-rule="nonzero" stroke="none" stroke-width="0.15040500462055206px" fill="#000000" stroke-opacity="1" stroke-linejoin="miter" version="1.1" stroke-miterlimit="4" stroke-linecap="butt" d="M50.248,90.703C50.606,90.703,51.257,90.572,51.972,90.182C66.573,82.183,71.743,78.54,71.743,68.914L71.743,49.338C71.743,46.671,70.475,45.859,68.459,44.981C65.825,43.842,55.061,40.037,52.427,39.127C51.744,38.899,50.996,38.737,50.248,38.737C49.501,38.737,48.72,38.964,48.069,39.127C45.436,39.777,34.671,43.875,32.038,44.981C30.021,45.826,28.753,46.671,28.753,49.338L28.753,68.914C28.753,78.54,33.924,82.149,48.525,90.182C49.24,90.572,49.891,90.703,50.248,90.703ZM50.248,85.369C49.859,85.369,49.467,85.272,48.59,84.784C36.85,77.759,33.371,75.678,33.371,67.777L33.371,50.215C33.371,49.631,33.501,49.37,34.021,49.143C38.184,47.516,45.208,45.273,49.371,43.614C49.696,43.485,49.988,43.452,50.248,43.452C50.509,43.452,50.801,43.485,51.126,43.614C55.256,45.273,62.183,47.712,66.443,49.143C66.996,49.338,67.093,49.631,67.093,50.215L67.093,67.777C67.093,75.678,63.614,77.759,51.875,84.784C51.029,85.272,50.638,85.369,50.248,85.369ZM50.248,85.369"/>
</g>
  <g id="Light-M" transform="matrix(1.0,0.0,0.0,1.0,1109.0205406330542,1047.5497342139174)">  <path stroke-linejoin="miter" stroke-miterlimit="4" fill-rule="nonzero" stroke-linecap="butt" fill="#000000" stroke-width="0.5px" version="1.1" stroke-dasharray="none" xmlns:svg="http://www.w3.org/2000/svg" stroke-opacity="1" stroke="none" fill-opacity="1" d="M13.518,0C4.47,0,0,4.578,0,13.733L0,77.066C0,86.275,4.47,90.799,13.518,90.799L27.259,90.799L27.259,83.044L13.948,83.044C9.856,83.044,7.755,80.836,7.755,76.958L7.755,13.841C7.755,9.963,9.856,7.755,13.948,7.755L57.786,7.755C61.825,7.755,63.926,9.963,63.926,13.841L63.926,41.115L71.734,41.115L71.734,13.733C71.734,4.578,67.211,0,58.163,0ZM20.249,19.765C18.526,19.765,17.287,21.003,17.287,22.619C17.287,24.288,18.526,25.581,20.249,25.581L51.539,25.581C53.208,25.581,54.447,24.288,54.447,22.619C54.447,21.003,53.208,19.765,51.539,19.765ZM20.249,34.413C18.526,34.413,17.287,35.706,17.287,37.267C17.287,38.937,18.526,40.283,20.249,40.283L39.486,40.283L39.486,34.413ZM20.249,49.115C18.526,49.115,17.287,50.408,17.287,52.077C17.287,53.693,18.526,54.932,20.249,54.932L27.259,54.932L27.259,49.115ZM20.249,49.115"/>
  <path stroke-opacity="1" fill="#000000" version="1.1" stroke-linejoin="miter" xmlns:svg="http://www.w3.org/2000/svg" fill-opacity="1" stroke-miterlimit="4" stroke-linecap="butt" stroke-width="0.15040500462055206px" stroke="none" fill-rule="nonzero" stroke-dasharray="none" d="M50.248,90.703C50.606,90.703,51.257,90.572,51.972,90.182C66.573,82.183,71.743,78.54,71.743,68.914L71.743,49.338C71.743,46.671,70.475,45.859,68.459,44.981C65.825,43.842,55.061,40.037,52.427,39.127C51.744,38.899,50.996,38.737,50.248,38.737C49.501,38.737,48.72,38.964,48.069,39.127C45.436,39.777,34.671,43.875,32.038,44.981C30.021,45.826,28.753,46.671,28.753,49.338L28.753,68.914C28.753,78.54,33.924,82.149,48.525,90.182C49.24,90.572,49.891,90.703,50.248,90.703ZM50.248,85.369C49.859,85.369,49.467,85.272,48.59,84.784C36.85,77.759,33.371,75.678,33.371,67.777L33.371,50.215C33.371,49.631,33.501,49.37,34.021,49.143C38.184,47.516,45.208,45.273,49.371,43.614C49.696,43.485,49.988,43.452,50.248,43.452C50.509,43.452,50.801,43.485,51.126,43.614C55.256,45.273,62.183,47.712,66.443,49.143C66.996,49.338,67.093,49.631,67.093,50.215L67.093,67.777C67.093,75.678,63.614,77.759,51.875,84.784C51.029,85.272,50.638,85.369,50.248,85.369ZM50.248,85.369"/>
</g>
  <g id="Thin-M" transform="matrix(1.0,0.0,0.0,1.0,812.3105406330542,1047.5497342139174)">  <path stroke-linecap="butt" stroke-miterlimit="4" stroke="none" stroke-linejoin="miter" xmlns:svg="http://www.w3.org/2000/svg" fill-rule="nonzero" fill-opacity="1" stroke-dasharray="none" stroke-width="0.5px" fill="#000000" version="1.1" stroke-opacity="1" d="M13.518,0C4.47,0,0,4.578,0,13.733L0,77.066C0,86.275,4.47,90.799,13.518,90.799L27.259,90.799L27.259,83.044L13.948,83.044C9.856,83.044,7.755,80.836,7.755,76.958L7.755,13.841C7.755,9.963,9.856,7.755,13.948,7.755L57.786,7.755C61.825,7.755,63.926,9.963,63.926,13.841L63.926,41.115L71.734,41.115L71.734,13.733C71.734,4.578,67.211,0,58.163,0ZM20.249,19.765C18.526,19.765,17.287,21.003,17.287,22.619C17.287,24.288,18.526,25.581,20.249,25.581L51.539,25.581C53.208,25.581,54.447,24.288,54.447,22.619C54.447,21.003,53.208,19.765,51.539,19.765ZM20.249,34.413C18.526,34.413,17.287,35.706,17.287,37.267C17.287,38.937,18.526,40.283,20.249,40.283L39.486,40.283L39.486,34.413ZM20.249,49.115C18.526,49.115,17.287,50.408,17.287,52.077C17.287,53.693,18.526,54.932,20.249,54.932L27.259,54.932L27.259,49.115ZM20.249,49.115"/>
  <path stroke-linejoin="miter" fill="#000000" stroke-linecap="butt" fill-rule="nonzero" xmlns:svg="http://www.w3.org/2000/svg" version="1.1" stroke-opacity="1" stroke-dasharray="none" stroke-width="0.15040500462055206px" fill-opacity="1" stroke="none" stroke-miterlimit="4" d="M50.248,90.703C50.606,90.703,51.257,90.572,51.972,90.182C66.573,82.183,71.743,78.54,71.743,68.914L71.743,49.338C71.743,46.671,70.475,45.859,68.459,44.981C65.825,43.842,55.061,40.037,52.427,39.127C51.744,38.899,50.996,38.737,50.248,38.737C49.501,38.737,48.72,38.964,48.069,39.127C45.436,39.777,34.671,43.875,32.038,44.981C30.021,45.826,28.753,46.671,28.753,49.338L28.753,68.914C28.753,78.54,33.924,82.149,48.525,90.182C49.24,90.572,49.891,90.703,50.248,90.703ZM50.248,85.369C49.859,85.369,49.467,85.272,48.59,84.784C36.85,77.759,33.371,75.678,33.371,67.777L33.371,50.215C33.371,49.631,33.501,49.37,34.021,49.143C38.184,47.516,45.208,45.273,49.371,43.614C49.696,43.485,49.988,43.452,50.248,43.452C50.509,43.452,50.801,43.485,51.126,43.614C55.256,45.273,62.183,47.712,66.443,49.143C66.996,49.338,67.093,49.631,67.093,50.215L67.093,67.777C67.093,75.678,63.614,77.759,51.875,84.784C51.029,85.272,50.638,85.369,50.248,85.369ZM50.248,85.369"/>
</g>
  <g id="Ultralight-M" transform="matrix(1.0,0.0,0.0,1.0,515.6005406330542,1047.5497342139174)">  <path fill-opacity="1" fill="#000000" fill-rule="nonzero" stroke-linecap="butt" stroke-width="0.5px" stroke-opacity="1" stroke-miterlimit="4" stroke-dasharray="none" xmlns:svg="http://www.w3.org/2000/svg" stroke="none" version="1.1" stroke-linejoin="miter" d="M13.518,0C4.47,0,0,4.578,0,13.733L0,77.066C0,86.275,4.47,90.799,13.518,90.799L27.259,90.799L27.259,83.044L13.948,83.044C9.856,83.044,7.755,80.836,7.755,76.958L7.755,13.841C7.755,9.963,9.856,7.755,13.948,7.755L57.786,7.755C61.825,7.755,63.926,9.963,63.926,13.841L63.926,41.115L71.734,41.115L71.734,13.733C71.734,4.578,67.211,0,58.163,0ZM20.249,19.765C18.526,19.765,17.287,21.003,17.287,22.619C17.287,24.288,18.526,25.581,20.249,25.581L51.539,25.581C53.208,25.581,54.447,24.288,54.447,22.619C54.447,21.003,53.208,19.765,51.539,19.765ZM20.249,34.413C18.526,34.413,17.287,35.706,17.287,37.267C17.287,38.937,18.526,40.283,20.249,40.283L39.486,40.283L39.486,34.413ZM20.249,49.115C18.526,49.115,17.287,50.408,17.287,52.077C17.287,53.693,18.526,54.932,20.249,54.932L27.259,54.932L27.259,49.115ZM20.249,49.115"/>
  <path fill-rule="nonzero" stroke-linejoin="miter" fill-opacity="1" stroke-dasharray="none" stroke-miterlimit="4" fill="#000000" version="1.1" stroke-linecap="butt" stroke-opacity="1" xmlns:svg="http://www.w3.org/2000/svg" stroke-width="0.15040500462055206px" stroke="none" d="M50.248,90.703C50.606,90.703,51.257,90.572,51.972,90.182C66.573,82.183,71.743,78.54,71.743,68.914L71.743,49.338C71.743,46.671,70.475,45.859,68.459,44.981C65.825,43.842,55.061,40.037,52.427,39.127C51.744,38.899,50.996,38.737,50.248,38.737C49.501,38.737,48.72,38.964,48.069,39.127C45.436,39.777,34.671,43.875,32.038,44.981C30.021,45.826,28.753,46.671,28.753,49.338L28.753,68.914C28.753,78.54,33.924,82.149,48.525,90.182C49.24,90.572,49.891,90.703,50.248,90.703ZM50.248,85.369C49.859,85.369,49.467,85.272,48.59,84.784C36.85,77.759,33.371,75.678,33.371,67.777L33.371,50.215C33.371,49.631,33.501,49.37,34.021,49.143C38.184,47.516,45.208,45.273,49.371,43.614C49.696,43.485,49.988,43.452,50.248,43.452C50.509,43.452,50.801,43.485,51.126,43.614C55.256,45.273,62.183,47.712,66.443,49.143C66.996,49.338,67.093,49.631,67.093,50.215L67.093,67.777C67.093,75.678,63.614,77.759,51.875,84.784C51.029,85.272,50.638,85.369,50.248,85.369ZM50.248,85.369"/>
</g>
  <g id="Black-S" transform="matrix(1.0,0.0,0.0,1.0,2899.132223315681,626.9285361277787)">  <path xmlns:svg="http://www.w3.org/2000/svg" stroke-linejoin="miter" fill-opacity="1" stroke-dasharray="none" stroke="none" stroke-width="0.5px" stroke-miterlimit="4" stroke-linecap="butt" version="1.1" fill-rule="nonzero" fill="#000000" stroke-opacity="1" d="M10.584,0C3.5,0,0,3.584,0,10.753L0,60.343C0,67.553,3.5,71.096,10.584,71.096L21.344,71.096L21.344,65.023L10.922,65.023C7.717,65.023,6.072,63.294,6.072,60.258L6.072,10.837C6.072,7.801,7.717,6.072,10.922,6.072L45.247,6.072C48.409,6.072,50.054,7.801,50.054,10.837L50.054,32.193L56.168,32.193L56.168,10.753C56.168,3.584,52.626,0,45.542,0ZM15.855,15.476C14.506,15.476,13.536,16.446,13.536,17.711C13.536,19.018,14.506,20.03,15.855,20.03L40.355,20.03C41.662,20.03,42.632,19.018,42.632,17.711C42.632,16.446,41.662,15.476,40.355,15.476ZM15.855,26.945C14.506,26.945,13.536,27.958,13.536,29.18C13.536,30.488,14.506,31.542,15.855,31.542L30.918,31.542L30.918,26.945ZM15.855,38.457C14.506,38.457,13.536,39.469,13.536,40.777C13.536,42.042,14.506,43.012,15.855,43.012L21.344,43.012L21.344,38.457ZM15.855,38.457"/>
  <path stroke-linejoin="miter" fill-opacity="1" stroke-opacity="1" fill-rule="nonzero" fill="#000000" xmlns:svg="http://www.w3.org/2000/svg" stroke="none" stroke-dasharray="none" version="1.1" stroke-width="0.15040500462055206px" stroke-miterlimit="4" stroke-linecap="butt" d="M39.344,71.02C39.625,71.02,40.134,70.918,40.694,70.612C52.127,64.349,56.175,61.497,56.175,53.96L56.175,38.632C56.175,36.544,55.182,35.907,53.603,35.22C51.541,34.328,43.113,31.349,41.05,30.636C40.515,30.458,39.93,30.331,39.344,30.331C38.759,30.331,38.148,30.509,37.638,30.636C35.576,31.145,27.148,34.354,25.086,35.22C23.506,35.881,22.514,36.544,22.514,38.632L22.514,53.96C22.514,61.497,26.562,64.323,37.995,70.612C38.555,70.918,39.065,71.02,39.344,71.02ZM39.344,66.844C39.039,66.844,38.733,66.768,38.046,66.386C28.854,60.886,26.129,59.256,26.129,53.069L26.129,39.319C26.129,38.861,26.232,38.657,26.639,38.479C29.898,37.205,35.398,35.449,38.657,34.15C38.912,34.049,39.141,34.023,39.344,34.023C39.548,34.023,39.777,34.049,40.032,34.15C43.266,35.449,48.689,37.358,52.025,38.479C52.457,38.632,52.534,38.861,52.534,39.319L52.534,53.069C52.534,59.256,49.809,60.886,40.618,66.386C39.955,66.768,39.65,66.844,39.344,66.844ZM39.344,66.844"/>
</g>
  <g id="Heavy-S" transform="matrix(1.0,0.0,0.0,1.0,2602.422223315681,626.9285361277787)">  <path stroke-width="0.5px" version="1.1" xmlns:svg="http://www.w3.org/2000/svg" stroke="none" stroke-miterlimit="4" stroke-opacity="1" stroke-linejoin="miter" fill="#000000" stroke-dasharray="none" fill-opacity="1" stroke-linecap="butt" fill-rule="nonzero" d="M10.584,0C3.5,0,0,3.584,0,10.753L0,60.343C0,67.553,3.5,71.096,10.584,71.096L21.344,71.096L21.344,65.023L10.922,65.023C7.717,65.023,6.072,63.294,6.072,60.258L6.072,10.837C6.072,7.801,7.717,6.072,10.922,6.072L45.247,6.072C48.409,6.072,50.054,7.801,50.054,10.837L50.054,32.193L56.168,32.193L56.168,10.753C56.168,3.584,52.626,0,45.542,0ZM15.855,15.476C14.506,15.476,13.536,16.446,13.536,17.711C13.536,19.018,14.506,20.03,15.855,20.03L40.355,20.03C41.662,20.03,42.632,19.018,42.632,17.711C42.632,16.446,41.662,15.476,40.355,15.476ZM15.855,26.945C14.506,26.945,13.536,27.958,13.536,29.18C13.536,30.488,14.506,31.542,15.855,31.542L30.918,31.542L30.918,26.945ZM15.855,38.457C14.506,38.457,13.536,39.469,13.536,40.777C13.536,42.042,14.506,43.012,15.855,43.012L21.344,43.012L21.344,38.457ZM15.855,38.457"/>
  <path stroke-linejoin="miter" xmlns:svg="http://www.w3.org/2000/svg" stroke-dasharray="none" stroke="none" stroke-linecap="butt" stroke-width="0.15040500462055206px" fill-opacity="1" stroke-opacity="1" fill-rule="nonzero" version="1.1" fill="#000000" stroke-miterlimit="4" d="M39.344,71.02C39.625,71.02,40.134,70.918,40.694,70.612C52.127,64.349,56.175,61.497,56.175,53.96L56.175,38.632C56.175,36.544,55.182,35.907,53.603,35.22C51.541,34.328,43.113,31.349,41.05,30.636C40.515,30.458,39.93,30.331,39.344,30.331C38.759,30.331,38.148,30.509,37.638,30.636C35.576,31.145,27.148,34.354,25.086,35.22C23.506,35.881,22.514,36.544,22.514,38.632L22.514,53.96C22.514,61.497,26.562,64.323,37.995,70.612C38.555,70.918,39.065,71.02,39.344,71.02ZM39.344,66.844C39.039,66.844,38.733,66.768,38.046,66.386C28.854,60.886,26.129,59.256,26.129,53.069L26.129,39.319C26.129,38.861,26.232,38.657,26.639,38.479C29.898,37.205,35.398,35.449,38.657,34.15C38.912,34.049,39.141,34.023,39.344,34.023C39.548,34.023,39.777,34.049,40.032,34.15C43.266,35.449,48.689,37.358,52.025,38.479C52.457,38.632,52.534,38.861,52.534,39.319L52.534,53.069C52.534,59.256,49.809,60.886,40.618,66.386C39.955,66.768,39.65,66.844,39.344,66.844ZM39.344,66.844"/>
</g>
  <g id="Bold-S" transform="matrix(1.0,0.0,0.0,1.0,2305.712223315681,626.9285361277787)">  <path xmlns:svg="http://www.w3.org/2000/svg" fill-rule="nonzero" stroke="none" stroke-linejoin="miter" stroke-opacity="1" fill-opacity="1" fill="#000000" stroke-width="0.5px" stroke-miterlimit="4" version="1.1" stroke-dasharray="none" stroke-linecap="butt" d="M10.584,0C3.5,0,0,3.584,0,10.753L0,60.343C0,67.553,3.5,71.096,10.584,71.096L21.344,71.096L21.344,65.023L10.922,65.023C7.717,65.023,6.072,63.294,6.072,60.258L6.072,10.837C6.072,7.801,7.717,6.072,10.922,6.072L45.247,6.072C48.409,6.072,50.054,7.801,50.054,10.837L50.054,32.193L56.168,32.193L56.168,10.753C56.168,3.584,52.626,0,45.542,0ZM15.855,15.476C14.506,15.476,13.536,16.446,13.536,17.711C13.536,19.018,14.506,20.03,15.855,20.03L40.355,20.03C41.662,20.03,42.632,19.018,42.632,17.711C42.632,16.446,41.662,15.476,40.355,15.476ZM15.855,26.945C14.506,26.945,13.536,27.958,13.536,29.18C13.536,30.488,14.506,31.542,15.855,31.542L30.918,31.542L30.918,26.945ZM15.855,38.457C14.506,38.457,13.536,39.469,13.536,40.777C13.536,42.042,14.506,43.012,15.855,43.012L21.344,43.012L21.344,38.457ZM15.855,38.457"/>
  <path stroke-linecap="butt" fill-rule="nonzero" fill="#000000" stroke-miterlimit="4" stroke-width="0.15040500462055206px" xmlns:svg="http://www.w3.org/2000/svg" stroke-opacity="1" fill-opacity="1" stroke-dasharray="none" version="1.1" stroke="none" stroke-linejoin="miter" d="M39.344,71.02C39.625,71.02,40.134,70.918,40.694,70.612C52.127,64.349,56.175,61.497,56.175,53.96L56.175,38.632C56.175,36.544,55.182,35.907,53.603,35.22C51.541,34.328,43.113,31.349,41.05,30.636C40.515,30.458,39.93,30.331,39.344,30.331C38.759,30.331,38.148,30.509,37.638,30.636C35.576,31.145,27.148,34.354,25.086,35.22C23.506,35.881,22.514,36.544,22.514,38.632L22.514,53.96C22.514,61.497,26.562,64.323,37.995,70.612C38.555,70.918,39.065,71.02,39.344,71.02ZM39.344,66.844C39.039,66.844,38.733,66.768,38.046,66.386C28.854,60.886,26.129,59.256,26.129,53.069L26.129,39.319C26.129,38.861,26.232,38.657,26.639,38.479C29.898,37.205,35.398,35.449,38.657,34.15C38.912,34.049,39.141,34.023,39.344,34.023C39.548,34.023,39.777,34.049,40.032,34.15C43.266,35.449,48.689,37.358,52.025,38.479C52.457,38.632,52.534,38.861,52.534,39.319L52.534,53.069C52.534,59.256,49.809,60.886,40.618,66.386C39.955,66.768,39.65,66.844,39.344,66.844ZM39.344,66.844"/>
</g>
  <g id="Semibold-S" transform="matrix(1.0,0.0,0.0,1.0,2009.0022233156812,626.9285361277787)">  <path stroke-dasharray="none" stroke-width="0.5px" stroke-opacity="1" stroke-miterlimit="4" fill-rule="nonzero" fill-opacity="1" fill="#000000" stroke="none" version="1.1" stroke-linecap="butt" xmlns:svg="http://www.w3.org/2000/svg" stroke-linejoin="miter" d="M10.584,0C3.5,0,0,3.584,0,10.753L0,60.343C0,67.553,3.5,71.096,10.584,71.096L21.344,71.096L21.344,65.023L10.922,65.023C7.717,65.023,6.072,63.294,6.072,60.258L6.072,10.837C6.072,7.801,7.717,6.072,10.922,6.072L45.247,6.072C48.409,6.072,50.054,7.801,50.054,10.837L50.054,32.193L56.168,32.193L56.168,10.753C56.168,3.584,52.626,0,45.542,0ZM15.855,15.476C14.506,15.476,13.536,16.446,13.536,17.711C13.536,19.018,14.506,20.03,15.855,20.03L40.355,20.03C41.662,20.03,42.632,19.018,42.632,17.711C42.632,16.446,41.662,15.476,40.355,15.476ZM15.855,26.945C14.506,26.945,13.536,27.958,13.536,29.18C13.536,30.488,14.506,31.542,15.855,31.542L30.918,31.542L30.918,26.945ZM15.855,38.457C14.506,38.457,13.536,39.469,13.536,40.777C13.536,42.042,14.506,43.012,15.855,43.012L21.344,43.012L21.344,38.457ZM15.855,38.457"/>
  <path stroke-linecap="butt" stroke-linejoin="miter" stroke-miterlimit="4" stroke-opacity="1" fill-opacity="1" stroke-width="0.15040500462055206px" stroke="none" stroke-dasharray="none" fill="#000000" fill-rule="nonzero" xmlns:svg="http://www.w3.org/2000/svg" version="1.1" d="M39.344,71.02C39.625,71.02,40.134,70.918,40.694,70.612C52.127,64.349,56.175,61.497,56.175,53.96L56.175,38.632C56.175,36.544,55.182,35.907,53.603,35.22C51.541,34.328,43.113,31.349,41.05,30.636C40.515,30.458,39.93,30.331,39.344,30.331C38.759,30.331,38.148,30.509,37.638,30.636C35.576,31.145,27.148,34.354,25.086,35.22C23.506,35.881,22.514,36.544,22.514,38.632L22.514,53.96C22.514,61.497,26.562,64.323,37.995,70.612C38.555,70.918,39.065,71.02,39.344,71.02ZM39.344,66.844C39.039,66.844,38.733,66.768,38.046,66.386C28.854,60.886,26.129,59.256,26.129,53.069L26.129,39.319C26.129,38.861,26.232,38.657,26.639,38.479C29.898,37.205,35.398,35.449,38.657,34.15C38.912,34.049,39.141,34.023,39.344,34.023C39.548,34.023,39.777,34.049,40.032,34.15C43.266,35.449,48.689,37.358,52.025,38.479C52.457,38.632,52.534,38.861,52.534,39.319L52.534,53.069C52.534,59.256,49.809,60.886,40.618,66.386C39.955,66.768,39.65,66.844,39.344,66.844ZM39.344,66.844"/>
</g>
  <g id="Medium-S" transform="matrix(1.0,0.0,0.0,1.0,1712.2922233156812,626.9285361277787)">  <path stroke-dasharray="none" stroke-linejoin="miter" stroke-linecap="butt" stroke="none" stroke-opacity="1" fill="#000000" xmlns:svg="http://www.w3.org/2000/svg" version="1.1" fill-opacity="1" stroke-miterlimit="4" stroke-width="0.5px" fill-rule="nonzero" d="M10.584,0C3.5,0,0,3.584,0,10.753L0,60.343C0,67.553,3.5,71.096,10.584,71.096L21.344,71.096L21.344,65.023L10.922,65.023C7.717,65.023,6.072,63.294,6.072,60.258L6.072,10.837C6.072,7.801,7.717,6.072,10.922,6.072L45.247,6.072C48.409,6.072,50.054,7.801,50.054,10.837L50.054,32.193L56.168,32.193L56.168,10.753C56.168,3.584,52.626,0,45.542,0ZM15.855,15.476C14.506,15.476,13.536,16.446,13.536,17.711C13.536,19.018,14.506,20.03,15.855,20.03L40.355,20.03C41.662,20.03,42.632,19.018,42.632,17.711C42.632,16.446,41.662,15.476,40.355,15.476ZM15.855,26.945C14.506,26.945,13.536,27.958,13.536,29.18C13.536,30.488,14.506,31.542,15.855,31.542L30.918,31.542L30.918,26.945ZM15.855,38.457C14.506,38.457,13.536,39.469,13.536,40.777C13.536,42.042,14.506,43.012,15.855,43.012L21.344,43.012L21.344,38.457ZM15.855,38.457"/>
  <path stroke-linecap="butt" stroke-dasharray="none" stroke="none" fill-rule="nonzero" xmlns:svg="http://www.w3.org/2000/svg" version="1.1" stroke-miterlimit="4" fill-opacity="1" stroke-width="0.15040500462055206px" stroke-opacity="1" stroke-linejoin="miter" fill="#000000" d="M39.344,71.02C39.625,71.02,40.134,70.918,40.694,70.612C52.127,64.349,56.175,61.497,56.175,53.96L56.175,38.632C56.175,36.544,55.182,35.907,53.603,35.22C51.541,34.328,43.113,31.349,41.05,30.636C40.515,30.458,39.93,30.331,39.344,30.331C38.759,30.331,38.148,30.509,37.638,30.636C35.576,31.145,27.148,34.354,25.086,35.22C23.506,35.881,22.514,36.544,22.514,38.632L22.514,53.96C22.514,61.497,26.562,64.323,37.995,70.612C38.555,70.918,39.065,71.02,39.344,71.02ZM39.344,66.844C39.039,66.844,38.733,66.768,38.046,66.386C28.854,60.886,26.129,59.256,26.129,53.069L26.129,39.319C26.129,38.861,26.232,38.657,26.639,38.479C29.898,37.205,35.398,35.449,38.657,34.15C38.912,34.049,39.141,34.023,39.344,34.023C39.548,34.023,39.777,34.049,40.032,34.15C43.266,35.449,48.689,37.358,52.025,38.479C52.457,38.632,52.534,38.861,52.534,39.319L52.534,53.069C52.534,59.256,49.809,60.886,40.618,66.386C39.955,66.768,39.65,66.844,39.344,66.844ZM39.344,66.844"/>
</g>
  <g id="Regular-S" transform="matrix(1.0,0.0,0.0,1.0,1415.5822233156812,626.9285361277787)">  <path stroke-linecap="butt" stroke-dasharray="none" stroke-width="0.5px" stroke="none" version="1.1" fill-opacity="1" stroke-miterlimit="4" fill-rule="nonzero" stroke-linejoin="miter" stroke-opacity="1" fill="#000000" xmlns:svg="http://www.w3.org/2000/svg" d="M10.584,0C3.5,0,0,3.584,0,10.753L0,60.343C0,67.553,3.5,71.096,10.584,71.096L21.344,71.096L21.344,65.023L10.922,65.023C7.717,65.023,6.072,63.294,6.072,60.258L6.072,10.837C6.072,7.801,7.717,6.072,10.922,6.072L45.247,6.072C48.409,6.072,50.054,7.801,50.054,10.837L50.054,32.193L56.168,32.193L56.168,10.753C56.168,3.584,52.626,0,45.542,0ZM15.855,15.476C14.506,15.476,13.536,16.446,13.536,17.711C13.536,19.018,14.506,20.03,15.855,20.03L40.355,20.03C41.662,20.03,42.632,19.018,42.632,17.711C42.632,16.446,41.662,15.476,40.355,15.476ZM15.855,26.945C14.506,26.945,13.536,27.958,13.536,29.18C13.536,30.488,14.506,31.542,15.855,31.542L30.918,31.542L30.918,26.945ZM15.855,38.457C14.506,38.457,13.536,39.469,13.536,40.777C13.536,42.042,14.506,43.012,15.855,43.012L21.344,43.012L21.344,38.457ZM15.855,38.457"/>
  <path stroke-dasharray="none" xmlns:svg="http://www.w3.org/2000/svg" fill-opacity="1" fill-rule="nonzero" stroke="none" stroke-width="0.15040500462055206px" fill="#000000" stroke-opacity="1" stroke-linejoin="miter" version="1.1" stroke-miterlimit="4" stroke-linecap="butt" d="M39.344,71.02C39.625,71.02,40.134,70.918,40.694,70.612C52.127,64.349,56.175,61.497,56.175,53.96L56.175,38.632C56.175,36.544,55.182,35.907,53.603,35.22C51.541,34.328,43.113,31.349,41.05,30.636C40.515,30.458,39.93,30.331,39.344,30.331C38.759,30.331,38.148,30.509,37.638,30.636C35.576,31.145,27.148,34.354,25.086,35.22C23.506,35.881,22.514,36.544,22.514,38.632L22.514,53.96C22.514,61.497,26.562,64.323,37.995,70.612C38.555,70.918,39.065,71.02,39.344,71.02ZM39.344,66.844C39.039,66.844,38.733,66.768,38.046,66.386C28.854,60.886,26.129,59.256,26.129,53.069L26.129,39.319C26.129,38.861,26.232,38.657,26.639,38.479C29.898,37.205,35.398,35.449,38.657,34.15C38.912,34.049,39.141,34.023,39.344,34.023C39.548,34.023,39.777,34.049,40.032,34.15C43.266,35.449,48.689,37.358,52.025,38.479C52.457,38.632,52.534,38.861,52.534,39.319L52.534,53.069C52.534,59.256,49.809,60.886,40.618,66.386C39.955,66.768,39.65,66.844,39.344,66.844ZM39.344,66.844"/>
</g>
  <g id="Light-S" transform="matrix(1.0,0.0,0.0,1.0,1118.8722233156814,626.9285361277787)">  <path stroke-linejoin="miter" stroke-miterlimit="4" fill-rule="nonzero" stroke-linecap="butt" fill="#000000" stroke-width="0.5px" version="1.1" stroke-dasharray="none" xmlns:svg="http://www.w3.org/2000/svg" stroke-opacity="1" stroke="none" fill-opacity="1" d="M10.584,0C3.5,0,0,3.584,0,10.753L0,60.343C0,67.553,3.5,71.096,10.584,71.096L21.344,71.096L21.344,65.023L10.922,65.023C7.717,65.023,6.072,63.294,6.072,60.258L6.072,10.837C6.072,7.801,7.717,6.072,10.922,6.072L45.247,6.072C48.409,6.072,50.054,7.801,50.054,10.837L50.054,32.193L56.168,32.193L56.168,10.753C56.168,3.584,52.626,0,45.542,0ZM15.855,15.476C14.506,15.476,13.536,16.446,13.536,17.711C13.536,19.018,14.506,20.03,15.855,20.03L40.355,20.03C41.662,20.03,42.632,19.018,42.632,17.711C42.632,16.446,41.662,15.476,40.355,15.476ZM15.855,26.945C14.506,26.945,13.536,27.958,13.536,29.18C13.536,30.488,14.506,31.542,15.855,31.542L30.918,31.542L30.918,26.945ZM15.855,38.457C14.506,38.457,13.536,39.469,13.536,40.777C13.536,42.042,14.506,43.012,15.855,43.012L21.344,43.012L21.344,38.457ZM15.855,38.457"/>
  <path stroke-opacity="1" fill="#000000" version="1.1" stroke-linejoin="miter" xmlns:svg="http://www.w3.org/2000/svg" fill-opacity="1" stroke-miterlimit="4" stroke-linecap="butt" stroke-width="0.15040500462055206px" stroke="none" fill-rule="nonzero" stroke-dasharray="none" d="M39.344,71.02C39.625,71.02,40.134,70.918,40.694,70.612C52.127,64.349,56.175,61.497,56.175,53.96L56.175,38.632C56.175,36.544,55.182,35.907,53.603,35.22C51.541,34.328,43.113,31.349,41.05,30.636C40.515,30.458,39.93,30.331,39.344,30.331C38.759,30.331,38.148,30.509,37.638,30.636C35.576,31.145,27.148,34.354,25.086,35.22C23.506,35.881,22.514,36.544,22.514,38.632L22.514,53.96C22.514,61.497,26.562,64.323,37.995,70.612C38.555,70.918,39.065,71.02,39.344,71.02ZM39.344,66.844C39.039,66.844,38.733,66.768,38.046,66.386C28.854,60.886,26.129,59.256,26.129,53.069L26.129,39.319C26.129,38.861,26.232,38.657,26.639,38.479C29.898,37.205,35.398,35.449,38.657,34.15C38.912,34.049,39.141,34.023,39.344,34.023C39.548,34.023,39.777,34.049,40.032,34.15C43.266,35.449,48.689,37.358,52.025,38.479C52.457,38.632,52.534,38.861,52.534,39.319L52.534,53.069C52.534,59.256,49.809,60.886,40.618,66.386C39.955,66.768,39.65,66.844,39.344,66.844ZM39.344,66.844"/>
</g>
  <g id="Thin-S" transform="matrix(1.0,0.0,0.0,1.0,822.1622233156814,626.9285361277787)">  <path stroke-linecap="butt" stroke-miterlimit="4" stroke="none" stroke-linejoin="miter" xmlns:svg="http://www.w3.org/2000/svg" fill-rule="nonzero" fill-opacity="1" stroke-dasharray="none" stroke-width="0.5px" fill="#000000" version="1.1" stroke-opacity="1" d="M10.584,0C3.5,0,0,3.584,0,10.753L0,60.343C0,67.553,3.5,71.096,10.584,71.096L21.344,71.096L21.344,65.023L10.922,65.023C7.717,65.023,6.072,63.294,6.072,60.258L6.072,10.837C6.072,7.801,7.717,6.072,10.922,6.072L45.247,6.072C48.409,6.072,50.054,7.801,50.054,10.837L50.054,32.193L56.168,32.193L56.168,10.753C56.168,3.584,52.626,0,45.542,0ZM15.855,15.476C14.506,15.476,13.536,16.446,13.536,17.711C13.536,19.018,14.506,20.03,15.855,20.03L40.355,20.03C41.662,20.03,42.632,19.018,42.632,17.711C42.632,16.446,41.662,15.476,40.355,15.476ZM15.855,26.945C14.506,26.945,13.536,27.958,13.536,29.18C13.536,30.488,14.506,31.542,15.855,31.542L30.918,31.542L30.918,26.945ZM15.855,38.457C14.506,38.457,13.536,39.469,13.536,40.777C13.536,42.042,14.506,43.012,15.855,43.012L21.344,43.012L21.344,38.457ZM15.855,38.457"/>
  <path stroke-linejoin="miter" fill="#000000" stroke-linecap="butt" fill-rule="nonzero" xmlns:svg="http://www.w3.org/2000/svg" version="1.1" stroke-opacity="1" stroke-dasharray="none" stroke-width="0.15040500462055206px" fill-opacity="1" stroke="none" stroke-miterlimit="4" d="M39.344,71.02C39.625,71.02,40.134,70.918,40.694,70.612C52.127,64.349,56.175,61.497,56.175,53.96L56.175,38.632C56.175,36.544,55.182,35.907,53.603,35.22C51.541,34.328,43.113,31.349,41.05,30.636C40.515,30.458,39.93,30.331,39.344,30.331C38.759,30.331,38.148,30.509,37.638,30.636C35.576,31.145,27.148,34.354,25.086,35.22C23.506,35.881,22.514,36.544,22.514,38.632L22.514,53.96C22.514,61.497,26.562,64.323,37.995,70.612C38.555,70.918,39.065,71.02,39.344,71.02ZM39.344,66.844C39.039,66.844,38.733,66.768,38.046,66.386C28.854,60.886,26.129,59.256,26.129,53.069L26.129,39.319C26.129,38.861,26.232,38.657,26.639,38.479C29.898,37.205,35.398,35.449,38.657,34.15C38.912,34.049,39.141,34.023,39.344,34.023C39.548,34.023,39.777,34.049,40.032,34.15C43.266,35.449,48.689,37.358,52.025,38.479C52.457,38.632,52.534,38.861,52.534,39.319L52.534,53.069C52.534,59.256,49.809,60.886,40.618,66.386C39.955,66.768,39.65,66.844,39.344,66.844ZM39.344,66.844"/>
</g>
  <g id="Ultralight-S" transform="matrix(1.0,0.0,0.0,1.0,525.4522233156814,626.9285361277787)">  <path fill-opacity="1" fill="#000000" fill-rule="nonzero" stroke-linecap="butt" stroke-width="0.5px" stroke-opacity="1" stroke-miterlimit="4" stroke-dasharray="none" xmlns:svg="http://www.w3.org/2000/svg" stroke="none" version="1.1" stroke-linejoin="miter" d="M10.584,0C3.5,0,0,3.584,0,10.753L0,60.343C0,67.553,3.5,71.096,10.584,71.096L21.344,71.096L21.344,65.023L10.922,65.023C7.717,65.023,6.072,63.294,6.072,60.258L6.072,10.837C6.072,7.801,7.717,6.072,10.922,6.072L45.247,6.072C48.409,6.072,50.054,7.801,50.054,10.837L50.054,32.193L56.168,32.193L56.168,10.753C56.168,3.584,52.626,0,45.542,0ZM15.855,15.476C14.506,15.476,13.536,16.446,13.536,17.711C13.536,19.018,14.506,20.03,15.855,20.03L40.355,20.03C41.662,20.03,42.632,19.018,42.632,17.711C42.632,16.446,41.662,15.476,40.355,15.476ZM15.855,26.945C14.506,26.945,13.536,27.958,13.536,29.18C13.536,30.488,14.506,31.542,15.855,31.542L30.918,31.542L30.918,26.945ZM15.855,38.457C14.506,38.457,13.536,39.469,13.536,40.777C13.536,42.042,14.506,43.012,15.855,43.012L21.344,43.012L21.344,38.457ZM15.855,38.457"/>
  <path fill-rule="nonzero" stroke-linejoin="miter" fill-opacity="1" stroke-dasharray="none" stroke-miterlimit="4" fill="#000000" version="1.1" stroke-linecap="butt" stroke-opacity="1" xmlns:svg="http://www.w3.org/2000/svg" stroke-width="0.15040500462055206px" stroke="none" d="M39.344,71.02C39.625,71.02,40.134,70.918,40.694,70.612C52.127,64.349,56.175,61.497,56.175,53.96L56.175,38.632C56.175,36.544,55.182,35.907,53.603,35.22C51.541,34.328,43.113,31.349,41.05,30.636C40.515,30.458,39.93,30.331,39.344,30.331C38.759,30.331,38.148,30.509,37.638,30.636C35.576,31.145,27.148,34.354,25.086,35.22C23.506,35.881,22.514,36.544,22.514,38.632L22.514,53.96C22.514,61.497,26.562,64.323,37.995,70.612C38.555,70.918,39.065,71.02,39.344,71.02ZM39.344,66.844C39.039,66.844,38.733,66.768,38.046,66.386C28.854,60.886,26.129,59.256,26.129,53.069L26.129,39.319C26.129,38.861,26.232,38.657,26.639,38.479C29.898,37.205,35.398,35.449,38.657,34.15C38.912,34.049,39.141,34.023,39.344,34.023C39.548,34.023,39.777,34.049,40.032,34.15C43.266,35.449,48.689,37.358,52.025,38.479C52.457,38.632,52.534,38.861,52.534,39.319L52.534,53.069C52.534,59.256,49.809,60.886,40.618,66.386C39.955,66.768,39.65,66.844,39.344,66.844ZM39.344,66.844"/>
</g>
 </g>
</svg>
