<?xml version="1.0" encoding="UTF-8"?>
<!--Generator: Apple Native CoreSVG 175.5-->
<!DOCTYPE svg
PUBLIC "-//W3C//DTD SVG 1.1//EN"
       "http://www.w3.org/Graphics/SVG/1.1/DTD/svg11.dtd">
<svg version="1.1" xmlns="http://www.w3.org/2000/svg" xmlns:xlink="http://www.w3.org/1999/xlink" width="3300" height="2200">
 <!--glyph: "uni1014E9.medium", point size: 100.0, font version: "18.0d11e1", template writer version: "90"-->
 <style>.monochrome-0 {fill:#000000}
.monochrome-1 {fill:#000000}

.hierarchical-0:secondary {fill:#4D4D4D}
.hierarchical-1:primary {fill:#212121}

.SFSymbolsPreview212121 {fill:#212121;opacity:1.0}
.SFSymbolsPreview4D4D4D {fill:#4D4D4D;opacity:1.0}
</style>
 <g id="Notes">
  <rect height="2200" id="artboard" style="fill:white;opacity:1" width="3300" x="0" y="0"/>
  <line style="fill:none;stroke:black;opacity:1;stroke-width:0.5;" x1="263" x2="3036" y1="292" y2="292"/>
  <text style="stroke:none;fill:black;font-family:sans-serif;font-size:13;font-weight:bold;" transform="matrix(1 0 0 1 263 322)">Weight/Scale Variations</text>
  <text style="stroke:none;fill:black;font-family:sans-serif;font-size:13;text-anchor:middle;" transform="matrix(1 0 0 1 559.711 322)">Ultralight</text>
  <text style="stroke:none;fill:black;font-family:sans-serif;font-size:13;text-anchor:middle;" transform="matrix(1 0 0 1 856.422 322)">Thin</text>
  <text style="stroke:none;fill:black;font-family:sans-serif;font-size:13;text-anchor:middle;" transform="matrix(1 0 0 1 1153.13 322)">Light</text>
  <text style="stroke:none;fill:black;font-family:sans-serif;font-size:13;text-anchor:middle;" transform="matrix(1 0 0 1 1449.84 322)">Regular</text>
  <text style="stroke:none;fill:black;font-family:sans-serif;font-size:13;text-anchor:middle;" transform="matrix(1 0 0 1 1746.56 322)">Medium</text>
  <text style="stroke:none;fill:black;font-family:sans-serif;font-size:13;text-anchor:middle;" transform="matrix(1 0 0 1 2043.27 322)">Semibold</text>
  <text style="stroke:none;fill:black;font-family:sans-serif;font-size:13;text-anchor:middle;" transform="matrix(1 0 0 1 2339.98 322)">Bold</text>
  <text style="stroke:none;fill:black;font-family:sans-serif;font-size:13;text-anchor:middle;" transform="matrix(1 0 0 1 2636.69 322)">Heavy</text>
  <text style="stroke:none;fill:black;font-family:sans-serif;font-size:13;text-anchor:middle;" transform="matrix(1 0 0 1 2933.4 322)">Black</text>
  <line style="fill:none;stroke:black;opacity:1;stroke-width:0.5;" x1="263" x2="3036" y1="1903" y2="1903"/>
  <g transform="matrix(1 0 0 1 263 1933)">
   <path d="M9.24805 0.830078C13.5547 0.830078 17.1387-2.74414 17.1387-7.05078C17.1387-11.3574 13.5449-14.9316 9.23828-14.9316C4.94141-14.9316 1.36719-11.3574 1.36719-7.05078C1.36719-2.74414 4.95117 0.830078 9.24805 0.830078ZM9.24805-0.654297C5.70312-0.654297 2.87109-3.49609 2.87109-7.05078C2.87109-10.6055 5.69336-13.4473 9.23828-13.4473C12.793-13.4473 15.6445-10.6055 15.6445-7.05078C15.6445-3.49609 12.8027-0.654297 9.24805-0.654297ZM5.6543-7.05078C5.6543-6.62109 5.95703-6.32812 6.40625-6.32812L8.50586-6.32812L8.50586-4.20898C8.50586-3.76953 8.79883-3.4668 9.22852-3.4668C9.67773-3.4668 9.9707-3.76953 9.9707-4.20898L9.9707-6.32812L12.0898-6.32812C12.5293-6.32812 12.832-6.62109 12.832-7.05078C12.832-7.49023 12.5293-7.79297 12.0898-7.79297L9.9707-7.79297L9.9707-9.90234C9.9707-10.3516 9.67773-10.6543 9.22852-10.6543C8.79883-10.6543 8.50586-10.3516 8.50586-9.90234L8.50586-7.79297L6.40625-7.79297C5.95703-7.79297 5.6543-7.49023 5.6543-7.05078Z"/>
  </g>
  <g transform="matrix(1 0 0 1 281.867 1933)">
   <path d="M11.709 2.91016C17.1582 2.91016 21.6699-1.61133 21.6699-7.05078C21.6699-12.5 17.1484-17.0117 11.6992-17.0117C6.25977-17.0117 1.74805-12.5 1.74805-7.05078C1.74805-1.61133 6.26953 2.91016 11.709 2.91016ZM11.709 1.25C7.09961 1.25 3.41797-2.44141 3.41797-7.05078C3.41797-11.6602 7.08984-15.3516 11.6992-15.3516C16.3086-15.3516 20.0098-11.6602 20.0098-7.05078C20.0098-2.44141 16.3184 1.25 11.709 1.25ZM7.17773-7.05078C7.17773-6.57227 7.50977-6.25 8.00781-6.25L10.8789-6.25L10.8789-3.36914C10.8789-2.88086 11.2109-2.53906 11.6895-2.53906C12.1777-2.53906 12.5195-2.87109 12.5195-3.36914L12.5195-6.25L15.4004-6.25C15.8887-6.25 16.2305-6.57227 16.2305-7.05078C16.2305-7.53906 15.8887-7.88086 15.4004-7.88086L12.5195-7.88086L12.5195-10.752C12.5195-11.25 12.1777-11.5918 11.6895-11.5918C11.2109-11.5918 10.8789-11.25 10.8789-10.752L10.8789-7.88086L8.00781-7.88086C7.50977-7.88086 7.17773-7.53906 7.17773-7.05078Z"/>
  </g>
  <g transform="matrix(1 0 0 1 305.646 1933)">
   <path d="M14.9707 5.66406C21.9336 5.66406 27.6953-0.0976562 27.6953-7.05078C27.6953-14.0137 21.9238-19.7754 14.9609-19.7754C8.00781-19.7754 2.25586-14.0137 2.25586-7.05078C2.25586-0.0976562 8.01758 5.66406 14.9707 5.66406ZM14.9707 3.84766C8.93555 3.84766 4.08203-1.01562 4.08203-7.05078C4.08203-13.0957 8.92578-17.9492 14.9609-17.9492C21.0059-17.9492 25.8691-13.0957 25.8691-7.05078C25.8691-1.01562 21.0156 3.84766 14.9707 3.84766ZM9.19922-7.05078C9.19922-6.5332 9.57031-6.17188 10.1172-6.17188L14.0625-6.17188L14.0625-2.2168C14.0625-1.67969 14.4336-1.29883 14.9512-1.29883C15.4883-1.29883 15.8594-1.66992 15.8594-2.2168L15.8594-6.17188L19.8145-6.17188C20.3516-6.17188 20.7324-6.5332 20.7324-7.05078C20.7324-7.59766 20.3613-7.96875 19.8145-7.96875L15.8594-7.96875L15.8594-11.9141C15.8594-12.4609 15.4883-12.8418 14.9512-12.8418C14.4336-12.8418 14.0625-12.4609 14.0625-11.9141L14.0625-7.96875L10.1172-7.96875C9.57031-7.96875 9.19922-7.59766 9.19922-7.05078Z"/>
  </g>
  <text style="stroke:none;fill:black;font-family:sans-serif;font-size:13;font-weight:bold;" transform="matrix(1 0 0 1 263 1953)">Design Variations</text>
  <text style="stroke:none;fill:black;font-family:sans-serif;font-size:13;" transform="matrix(1 0 0 1 263 1971)">Symbols are supported in up to nine weights and three scales.</text>
  <text style="stroke:none;fill:black;font-family:sans-serif;font-size:13;" transform="matrix(1 0 0 1 263 1989)">For optimal layout with text and other symbols, vertically align</text>
  <text style="stroke:none;fill:black;font-family:sans-serif;font-size:13;" transform="matrix(1 0 0 1 263 2007)">symbols with the adjacent text.</text>
  <line style="fill:none;stroke:#00AEEF;stroke-width:0.5;opacity:1.0;" x1="776" x2="776" y1="1919" y2="1933"/>
  <g transform="matrix(1 0 0 1 776 1933)">
   <path d="M3.31055 0.15625C3.82812 0.15625 4.08203-0.0390625 4.26758-0.585938L5.52734-4.0332L11.2891-4.0332L12.5488-0.585938C12.7344-0.0390625 12.9883 0.15625 13.4961 0.15625C14.0137 0.15625 14.3457-0.15625 14.3457-0.644531C14.3457-0.810547 14.3164-0.966797 14.2383-1.17188L9.6582-13.3691C9.43359-13.9648 9.0332-14.2676 8.4082-14.2676C7.80273-14.2676 7.39258-13.9746 7.17773-13.3789L2.59766-1.16211C2.51953-0.957031 2.49023-0.800781 2.49023-0.634766C2.49023-0.146484 2.80273 0.15625 3.31055 0.15625ZM6.00586-5.51758L8.37891-12.0898L8.42773-12.0898L10.8008-5.51758Z"/>
  </g>
  <line style="fill:none;stroke:#00AEEF;stroke-width:0.5;opacity:1.0;" x1="793.197" x2="793.197" y1="1919" y2="1933"/>
  <text style="stroke:none;fill:black;font-family:sans-serif;font-size:13;font-weight:bold;" transform="matrix(1 0 0 1 776 1953)">Margins</text>
  <text style="stroke:none;fill:black;font-family:sans-serif;font-size:13;" transform="matrix(1 0 0 1 776 1971)">Leading and trailing margins on the left and right side of each symbol</text>
  <text style="stroke:none;fill:black;font-family:sans-serif;font-size:13;" transform="matrix(1 0 0 1 776 1989)">can be adjusted by modifying the x-location of the margin guidelines.</text>
  <text style="stroke:none;fill:black;font-family:sans-serif;font-size:13;" transform="matrix(1 0 0 1 776 2007)">Modifications are automatically applied proportionally to all</text>
  <text style="stroke:none;fill:black;font-family:sans-serif;font-size:13;" transform="matrix(1 0 0 1 776 2025)">scales and weights.</text>
  <g transform="matrix(1 0 0 1 1289 1933)">
   <path d="M2.8418 1.86523L4.54102 3.57422C5.40039 4.44336 6.38672 4.38477 7.31445 3.35938L18.0078-8.42773L17.041-9.4043L6.42578 2.27539C6.07422 2.67578 5.74219 2.77344 5.27344 2.30469L4.10156 1.14258C3.63281 0.683594 3.74023 0.341797 4.14062-0.0195312L15.6152-10.8203L14.6387-11.7871L3.04688-0.898438C2.06055 0.0195312 1.98242 0.996094 2.8418 1.86523ZM9.25781-16.3281C8.83789-15.918 8.80859-15.3418 9.04297-14.9512C9.27734-14.5898 9.73633-14.3555 10.3809-14.5215C11.8457-14.8633 13.3691-14.9219 14.7949-13.9844L14.209-12.5293C13.8672-11.6992 14.043-11.1133 14.5801-10.5664L16.875-8.25195C17.3633-7.76367 17.7734-7.74414 18.3398-7.8418L19.4043-8.03711L20.0684-7.36328L20.0293-6.80664C19.9902-6.30859 20.1172-5.92773 20.6055-5.44922L21.3672-4.70703C21.8457-4.22852 22.4609-4.19922 22.9297-4.66797L25.8398-7.58789C26.3086-8.05664 26.2891-8.65234 25.8105-9.13086L25.0391-9.89258C24.5605-10.3711 24.1895-10.5273 23.7109-10.4883L23.1348-10.4395L22.4902-11.0742L22.7344-12.1973C22.8613-12.7637 22.7051-13.2031 22.1191-13.7891L19.9219-15.9766C16.582-19.2969 12.1484-19.2188 9.25781-16.3281ZM10.752-15.957C13.1836-17.7344 16.4746-17.4316 18.7012-15.2051L21.1328-12.793C21.3672-12.5586 21.4062-12.373 21.3379-12.0312L21.0156-10.5469L22.5195-9.0625L23.5059-9.12109C23.7598-9.13086 23.8379-9.11133 24.0332-8.91602L24.6094-8.33984L22.168-5.89844L21.5918-6.47461C21.3965-6.66992 21.3672-6.74805 21.377-7.01172L21.4453-7.98828L19.9512-9.47266L18.4277-9.21875C18.1055-9.15039 17.959-9.17969 17.7148-9.41406L15.7129-11.416C15.459-11.6504 15.4297-11.8164 15.5859-12.1875L16.4648-14.2773C14.9023-15.7324 12.8711-16.3574 10.8398-15.7617C10.6836-15.7227 10.625-15.8496 10.752-15.957Z"/>
  </g>
  <text style="stroke:none;fill:black;font-family:sans-serif;font-size:13;font-weight:bold;" transform="matrix(1 0 0 1 1289 1953)">Exporting</text>
  <text style="stroke:none;fill:black;font-family:sans-serif;font-size:13;" transform="matrix(1 0 0 1 1289 1971)">Symbols should be outlined when exporting to ensure the</text>
  <text style="stroke:none;fill:black;font-family:sans-serif;font-size:13;" transform="matrix(1 0 0 1 1289 1989)">design is preserved when submitting to Xcode.</text>
  <text id="template-version" style="stroke:none;fill:black;font-family:sans-serif;font-size:13;text-anchor:end;" transform="matrix(1 0 0 1 3036 1933)">Template v.4.0</text>
  <text style="stroke:none;fill:black;font-family:sans-serif;font-size:13;text-anchor:end;" transform="matrix(1 0 0 1 3036 1951)">Requires Xcode 14 or greater</text>
  <text id="descriptive-name" style="stroke:none;fill:black;font-family:sans-serif;font-size:13;text-anchor:end;" transform="matrix(1 0 0 1 3036 1969)">Generated from heater.vertical</text>
  <text style="stroke:none;fill:black;font-family:sans-serif;font-size:13;text-anchor:end;" transform="matrix(1 0 0 1 3036 1987)">Typeset at 100 points</text>
  <text style="stroke:none;fill:black;font-family:sans-serif;font-size:13;" transform="matrix(1 0 0 1 263 726)">Small</text>
  <text style="stroke:none;fill:black;font-family:sans-serif;font-size:13;" transform="matrix(1 0 0 1 263 1156)">Medium</text>
  <text style="stroke:none;fill:black;font-family:sans-serif;font-size:13;" transform="matrix(1 0 0 1 263 1586)">Large</text>
 </g>
 <g id="Guides">
  <g id="H-reference" style="fill:#27AAE1;stroke:none;" transform="matrix(1 0 0 1 339 696)">
   <path d="M0.993654 0L3.63775 0L29.3281-67.1323L30.0303-67.1323L30.0303-70.459L28.1226-70.459ZM11.6885-24.4799L46.9815-24.4799L46.2315-26.7285L12.4385-26.7285ZM55.1196 0L57.7637 0L30.6382-70.459L29.4326-70.459L29.4326-67.1323Z"/>
  </g>
  <line id="Baseline-S" style="fill:none;stroke:#27AAE1;opacity:1;stroke-width:0.5;" x1="263" x2="3036" y1="696" y2="696"/>
  <line id="Capline-S" style="fill:none;stroke:#27AAE1;opacity:1;stroke-width:0.5;" x1="263" x2="3036" y1="625.541" y2="625.541"/>
  <g id="H-reference" style="fill:#27AAE1;stroke:none;" transform="matrix(1 0 0 1 339 1126)">
   <path d="M0.993654 0L3.63775 0L29.3281-67.1323L30.0303-67.1323L30.0303-70.459L28.1226-70.459ZM11.6885-24.4799L46.9815-24.4799L46.2315-26.7285L12.4385-26.7285ZM55.1196 0L57.7637 0L30.6382-70.459L29.4326-70.459L29.4326-67.1323Z"/>
  </g>
  <line id="Baseline-M" style="fill:none;stroke:#27AAE1;opacity:1;stroke-width:0.5;" x1="263" x2="3036" y1="1126" y2="1126"/>
  <line id="Capline-M" style="fill:none;stroke:#27AAE1;opacity:1;stroke-width:0.5;" x1="263" x2="3036" y1="1055.54" y2="1055.54"/>
  <g id="H-reference" style="fill:#27AAE1;stroke:none;" transform="matrix(1 0 0 1 339 1556)">
   <path d="M0.993654 0L3.63775 0L29.3281-67.1323L30.0303-67.1323L30.0303-70.459L28.1226-70.459ZM11.6885-24.4799L46.9815-24.4799L46.2315-26.7285L12.4385-26.7285ZM55.1196 0L57.7637 0L30.6382-70.459L29.4326-70.459L29.4326-67.1323Z"/>
  </g>
  <line id="Baseline-L" style="fill:none;stroke:#27AAE1;opacity:1;stroke-width:0.5;" x1="263" x2="3036" y1="1556" y2="1556"/>
  <line id="Capline-L" style="fill:none;stroke:#27AAE1;opacity:1;stroke-width:0.5;" x1="263" x2="3036" y1="1485.54" y2="1485.54"/>
  <line id="left-margin-Ultralight-S" style="fill:none;stroke:#00AEEF;stroke-width:0.5;opacity:1.0;" x1="510.748" x2="510.748" y1="600.785" y2="720.121"/>
  <line id="right-margin-Ultralight-S" style="fill:none;stroke:#00AEEF;stroke-width:0.5;opacity:1.0;" x1="608.675" x2="608.675" y1="600.785" y2="720.121"/>
  <line id="left-margin-Regular-S" style="fill:none;stroke:#00AEEF;stroke-width:0.5;opacity:1.0;" x1="1393.57" x2="1393.57" y1="600.785" y2="720.121"/>
  <line id="right-margin-Regular-S" style="fill:none;stroke:#00AEEF;stroke-width:0.5;opacity:1.0;" x1="1506.12" x2="1506.12" y1="600.785" y2="720.121"/>
  <line id="left-margin-Black-S" style="fill:none;stroke:#00AEEF;stroke-width:0.5;opacity:1.0;" x1="2866.65" x2="2866.65" y1="600.785" y2="720.121"/>
  <line id="right-margin-Black-S" style="fill:none;stroke:#00AEEF;stroke-width:0.5;opacity:1.0;" x1="3000.15" x2="3000.15" y1="600.785" y2="720.121"/>
 </g>
 <g id="Symbols">
  <g id="Black-S" transform="matrix(1 0 0 1 2866.65 696)">
   <path class="monochrome-0 hierarchical-0:secondary SFSymbolsPreview4D4D4D" d="M28.3691 16.5527L56.2988 16.5527C65.0879 16.5527 70.0195 11.6211 70.0195 2.83203L70.0195-73.3398C70.0195-82.1289 65.0879-87.0605 56.2988-87.0605L28.3691-87.0605C19.5801-87.0605 14.6484-82.1289 14.6484-73.3398L14.6484 2.83203C14.6484 11.6211 19.5801 16.5527 28.3691 16.5527ZM31.2988 2.88086C29.3945 2.88086 28.3203 1.85547 28.3203-0.0976562L28.3203-70.4102C28.3203-72.3633 29.3945-73.3887 31.2988-73.3887L53.3691-73.3887C55.2734-73.3887 56.3477-72.3633 56.3477-70.4102L56.3477-0.0976562C56.3477 1.85547 55.2734 2.88086 53.3691 2.88086ZM40.9668-49.2188C42.4316-49.2188 43.6035-50.4395 43.6035-51.9043L43.6035-65.7227C43.6035-67.1387 42.4316-68.4082 40.9668-68.4082C39.502-68.4082 38.2324-67.1387 38.2324-65.7227L38.2324-51.9043C38.2324-50.4395 39.502-49.2188 40.9668-49.2188ZM40.9668-25.6836C42.4316-25.6836 43.6035-26.9043 43.6035-28.418L43.6035-42.1875C43.6035-43.6523 42.4316-44.873 40.9668-44.873C39.502-44.873 38.2324-43.6523 38.2324-42.1875L38.2324-28.418C38.2324-26.9043 39.502-25.6836 40.9668-25.6836ZM40.9668-2.09961C42.4316-2.09961 43.6035-3.36914 43.6035-4.78516L43.6035-18.6035C43.6035-20.0684 42.4316-21.2891 40.9668-21.2891C39.502-21.2891 38.2324-20.0684 38.2324-18.6035L38.2324-4.78516C38.2324-3.36914 39.502-2.09961 40.9668-2.09961ZM50.0488-49.2188C51.5625-49.2188 52.7344-50.4395 52.7344-51.9043L52.7344-65.7227C52.7344-67.1387 51.5625-68.4082 50.0488-68.4082C48.584-68.4082 47.3145-67.1387 47.3145-65.7227L47.3145-51.9043C47.3145-50.4395 48.584-49.2188 50.0488-49.2188ZM50.0488-25.6836C51.5625-25.6836 52.7344-26.9043 52.7344-28.418L52.7344-42.1875C52.7344-43.6523 51.5625-44.873 50.0488-44.873C48.584-44.873 47.3145-43.6523 47.3145-42.1875L47.3145-28.418C47.3145-26.9043 48.584-25.6836 50.0488-25.6836ZM50.0488-2.09961C51.5625-2.09961 52.7344-3.36914 52.7344-4.78516L52.7344-18.6035C52.7344-20.0684 51.5625-21.2891 50.0488-21.2891C48.584-21.2891 47.3145-20.0684 47.3145-18.6035L47.3145-4.78516C47.3145-3.36914 48.584-2.09961 50.0488-2.09961Z"/>
   <path class="monochrome-1 hierarchical-1:primary SFSymbolsPreview212121" d="M87.9883-40.2344C100.684-40.2344 106.494-49.7559 115.82-49.7559C117.969-49.7559 119.531-49.2676 121.729-48.0957C123.828-46.875 126.318-47.4121 127.734-49.3652C129.395-51.8066 128.613-54.834 126.025-56.2988C122.9-58.1055 119.434-59.082 115.82-59.082C103.125-59.082 97.3145-49.5605 87.9883-49.5605C85.8398-49.5605 84.2773-50.0488 82.1289-51.2207C79.9805-52.5391 77.3438-51.9043 76.0254-49.8535C74.4629-47.4609 75.2441-44.4336 77.7832-43.0176C80.9082-41.2109 84.375-40.2344 87.9883-40.2344ZM87.9883-11.377C100.684-11.377 106.494-20.8496 115.82-20.8496C117.969-20.8496 119.531-20.4102 121.729-19.1406C123.828-18.0176 126.318-18.5059 127.734-20.459C129.395-22.8516 128.613-25.9766 126.025-27.4414C122.9-29.248 119.434-30.1758 115.82-30.1758C103.125-30.1758 97.3145-20.7031 87.9883-20.7031C85.8398-20.7031 84.2773-21.1426 82.1289-22.3633C79.9805-23.6328 77.3438-22.998 76.0254-20.9473C74.4629-18.5547 75.2441-15.5762 77.7832-14.1113C80.9082-12.3047 84.375-11.377 87.9883-11.377ZM87.9883-25.8301C100.684-25.8301 106.494-35.3027 115.82-35.3027C117.969-35.3027 119.531-34.8633 121.729-33.5938C123.828-32.4707 126.318-32.959 127.734-34.9121C129.395-37.3047 128.613-40.4297 126.025-41.8945C122.9-43.7012 119.434-44.6289 115.82-44.6289C103.125-44.6289 97.3145-35.1562 87.9883-35.1562C85.8398-35.1562 84.2773-35.5957 82.1289-36.8164C79.9805-38.0859 77.3438-37.4512 76.0254-35.4004C74.4629-33.0078 75.2441-30.0293 77.7832-28.5645C80.9082-26.7578 84.375-25.8301 87.9883-25.8301Z"/>
  </g>
  <g id="Regular-S" transform="matrix(1 0 0 1 1393.57 696)">
   <path class="monochrome-0 hierarchical-0:secondary SFSymbolsPreview4D4D4D" d="M23.7305 11.9629L48.0957 11.9629C53.5645 11.9629 57.1777 8.39844 57.1777 3.07617L57.1777-73.584C57.1777-78.9062 53.5645-82.4707 48.0957-82.4707L23.7305-82.4707C18.2617-82.4707 14.6484-78.9062 14.6484-73.584L14.6484 3.07617C14.6484 8.39844 18.2617 11.9629 23.7305 11.9629ZM23.8281 4.93164C22.5098 4.93164 21.6797 4.05273 21.6797 2.68555L21.6797-73.1934C21.6797-74.5117 22.5098-75.4395 23.8281-75.4395L47.998-75.4395C49.2676-75.4395 50.0977-74.5117 50.0977-73.1934L50.0977 2.68555C50.0977 4.05273 49.2676 4.93164 47.998 4.93164ZM36.5723-51.0742C37.6465-51.0742 38.5742-52.002 38.5742-53.1738L38.5742-68.3594C38.5742-69.4824 37.6465-70.4102 36.5723-70.4102C35.4004-70.4102 34.4727-69.4824 34.4727-68.3594L34.4727-53.1738C34.4727-52.002 35.4004-51.0742 36.5723-51.0742ZM36.5723-25.6348C37.6465-25.6348 38.5742-26.5625 38.5742-27.7344L38.5742-42.9199C38.5742-44.043 37.6465-44.9219 36.5723-44.9219C35.4004-44.9219 34.4727-44.043 34.4727-42.9199L34.4727-27.7344C34.4727-26.5625 35.4004-25.6348 36.5723-25.6348ZM36.5723-0.146484C37.6465-0.146484 38.5742-1.07422 38.5742-2.19727L38.5742-17.3828C38.5742-18.5547 37.6465-19.4336 36.5723-19.4336C35.4004-19.4336 34.4727-18.5547 34.4727-17.3828L34.4727-2.19727C34.4727-1.07422 35.4004-0.146484 36.5723-0.146484ZM44.5801-51.0742C45.7031-51.0742 46.582-52.002 46.582-53.1738L46.582-68.3594C46.582-69.4824 45.7031-70.4102 44.5801-70.4102C43.4082-70.4102 42.5293-69.4824 42.5293-68.3594L42.5293-53.1738C42.5293-52.002 43.4082-51.0742 44.5801-51.0742ZM44.5801-25.6348C45.7031-25.6348 46.582-26.5625 46.582-27.7344L46.582-42.9199C46.582-44.043 45.7031-44.9219 44.5801-44.9219C43.4082-44.9219 42.5293-44.043 42.5293-42.9199L42.5293-27.7344C42.5293-26.5625 43.4082-25.6348 44.5801-25.6348ZM44.5801-0.146484C45.7031-0.146484 46.582-1.07422 46.582-2.19727L46.582-17.3828C46.582-18.5547 45.7031-19.4336 44.5801-19.4336C43.4082-19.4336 42.5293-18.5547 42.5293-17.3828L42.5293-2.19727C42.5293-1.07422 43.4082-0.146484 44.5801-0.146484Z"/>
   <path class="monochrome-1 hierarchical-1:primary SFSymbolsPreview212121" d="M72.6074-39.7461C83.2031-39.7461 88.4766-48.1934 97.5586-48.1934C99.5605-48.1934 101.27-47.8027 103.467-46.5332C104.98-45.6543 106.396-46.2891 107.08-47.2656C107.91-48.4863 107.861-50.4395 105.957-51.5137C103.369-53.0273 100.537-53.8086 97.5586-53.8086C86.9629-53.8086 81.6406-45.3125 72.6074-45.3125C70.6543-45.3125 68.9453-45.752 66.6504-47.0215C65.1855-47.8516 63.7695-47.2656 63.0371-46.1426C62.3047-44.9707 62.3535-43.0176 64.209-41.9922C66.748-40.4297 69.6777-39.7461 72.6074-39.7461ZM72.6074-16.6504C83.2031-16.6504 88.4766-25.0977 97.5586-25.0977C99.5605-25.0977 101.27-24.707 103.467-23.4375C104.98-22.6074 106.396-23.2422 107.08-24.2188C107.91-25.4395 107.861-27.3926 105.957-28.4668C103.369-29.9805 100.537-30.7129 97.5586-30.7129C86.9629-30.7129 81.6406-22.2168 72.6074-22.2168C70.6543-22.2168 68.9453-22.6562 66.6504-23.9258C65.1855-24.8047 63.7695-24.1699 63.0371-23.0957C62.3047-21.9238 62.3535-19.9707 64.209-18.9453C66.748-17.3828 69.6777-16.6504 72.6074-16.6504ZM72.6562-28.2227C83.2031-28.2227 88.5254-36.6699 97.5586-36.6699C99.5605-36.6699 101.318-36.2305 103.516-35.0098C104.98-34.1309 106.396-34.7656 107.129-35.7422C107.91-36.9629 107.91-38.916 106.055-39.9902C103.418-41.5039 100.537-42.2363 97.5586-42.2363C86.9629-42.2363 81.6895-33.7402 72.6562-33.7402C70.6543-33.7402 68.9453-34.2285 66.6992-35.4492C65.2344-36.3281 63.7695-35.6934 63.0371-34.6191C62.3047-33.4473 62.3535-31.4941 64.209-30.4688C66.7969-28.9062 69.7266-28.2227 72.6562-28.2227Z"/>
  </g>
  <g id="Ultralight-S" transform="matrix(1 0 0 1 510.748 696)">
   <path class="monochrome-0 hierarchical-0:secondary SFSymbolsPreview4D4D4D" d="M21.687 5.24224L42.2832 5.24224C46.7984 5.24224 49.3218 2.6768 49.3218-1.78268L49.3218-68.5435C49.3218-73.003 46.7984-75.5684 42.2832-75.5684L21.687-75.5684C17.1719-75.5684 14.6484-73.003 14.6484-68.5435L14.6484-1.78268C14.6484 2.6768 17.1719 5.24224 21.687 5.24224ZM21.7847 3.02443C18.6045 3.02443 16.8662 1.28274 16.8662-1.90084L16.8662-68.4253C16.8662-71.6055 18.6045-73.3506 21.7847-73.3506L42.1856-73.3506C45.3623-73.3506 47.146-71.6055 47.146-68.4253L47.146-1.90084C47.146 1.28274 45.3623 3.02443 42.1856 3.02443ZM32.9849-49.8027C33.8321-49.8027 34.4873-50.458 34.4873-51.312L34.4873-65.9981C34.4873-66.8487 33.8321-67.5039 32.9849-67.5039C32.1309-67.5039 31.521-66.8487 31.521-65.9981L31.521-51.312C31.521-50.458 32.1309-49.8027 32.9849-49.8027ZM32.9849-26.8154C33.8321-26.8154 34.4873-27.4253 34.4873-28.2793L34.4873-42.9653C34.4873-43.8159 33.8321-44.4678 32.9849-44.4678C32.1309-44.4678 31.521-43.8159 31.521-42.9653L31.521-28.2793C31.521-27.4253 32.1309-26.8154 32.9849-26.8154ZM32.9849-3.77927C33.8321-3.77927 34.4873-4.43454 34.4873-5.23972L34.4873-19.9258C34.4873-20.7798 33.8321-21.4316 32.9849-21.4316C32.1309-21.4316 31.521-20.7798 31.521-19.9258L31.521-5.23972C31.521-4.43454 32.1309-3.77927 32.9849-3.77927ZM40.357-49.8027C41.2076-49.8027 41.8594-50.458 41.8594-51.312L41.8594-65.9981C41.8594-66.8487 41.2076-67.5039 40.357-67.5039C39.503-67.5039 38.8511-66.8487 38.8511-65.9981L38.8511-51.312C38.8511-50.458 39.503-49.8027 40.357-49.8027ZM40.357-26.8154C41.2076-26.8154 41.8594-27.4253 41.8594-28.2793L41.8594-42.9653C41.8594-43.8159 41.2076-44.4678 40.357-44.4678C39.503-44.4678 38.8511-43.8159 38.8511-42.9653L38.8511-28.2793C38.8511-27.4253 39.503-26.8154 40.357-26.8154ZM40.357-3.77927C41.2076-3.77927 41.8594-4.43454 41.8594-5.23972L41.8594-19.9258C41.8594-20.7798 41.2076-21.4316 40.357-21.4316C39.503-21.4316 38.8511-20.7798 38.8511-19.9258L38.8511-5.23972C38.8511-4.43454 39.503-3.77927 40.357-3.77927Z"/>
   <path class="monochrome-1 hierarchical-1:primary SFSymbolsPreview212121" d="M62.7989-40.291C71.3966-40.291 76.8062-48.0117 85.0255-48.0117C87.4361-48.0117 89.2359-47.4395 91.297-46.3062C92.0387-45.9268 92.5919-46.1528 92.8668-46.6299C93.152-47.0786 93.0577-47.8057 92.4249-48.1533C90.0641-49.5308 87.7315-50.1304 85.0255-50.1304C75.7013-50.1304 70.5152-42.4517 62.7989-42.4517C60.3917-42.4517 58.5465-43.0274 56.524-44.1607C55.9674-44.4458 55.3233-44.3594 54.9996-43.8267C54.6758-43.2451 54.8155-42.6089 55.4449-42.2192C57.7115-40.7476 60.0963-40.291 62.7989-40.291ZM62.7989-20.3286C71.3966-20.3286 76.8062-28.0039 85.0255-28.0039C87.4361-28.0039 89.2359-27.4316 91.297-26.2983C92.0387-25.9677 92.5919-26.1484 92.8668-26.6255C93.152-27.1196 93.0577-27.8013 92.4249-28.1943C90.0641-29.5718 87.7315-30.168 85.0255-30.168C75.7013-30.168 70.5152-22.4438 62.7989-22.4438C60.3917-22.4438 58.5465-23.0195 56.524-24.1528C55.9674-24.4868 55.3233-24.3516 54.9996-23.8223C54.6758-23.2861 54.8155-22.6045 55.4449-22.2602C57.7115-20.7885 60.0963-20.3286 62.7989-20.3286ZM62.8023-30.3115C71.3966-30.3115 76.8097-38.0322 85.0255-38.0322C87.4361-38.0322 89.2394-37.4565 91.3004-36.3266C92.0387-35.9473 92.5919-36.1733 92.8702-36.605C93.152-37.0991 93.0612-37.7808 92.3863-38.1738C90.0675-39.5513 87.7315-40.1475 85.0255-40.1475C75.7013-40.1475 70.5186-32.4234 62.8023-32.4234C60.3917-32.4234 58.5465-33.0025 56.5274-34.1323C55.9708-34.4663 55.3233-34.3311 54.9996-33.8472C54.6758-33.2656 54.8155-32.6294 55.4449-32.2397C57.7149-30.7681 60.0997-30.3115 62.8023-30.3115Z"/>
  </g>
 </g>
</svg>
