<?xml version="1.0" encoding="UTF-8"?>
<!-- Generator: CustomSymbols v2.6.2.41 by @serious_bret https://bretlester.com/app_content/CustomSymbols/ -->
<!-- Guides: Left/Right 0.004/0.0019999999050050975 Cap/Base 0.045/0.41 -->
<!-- Settings: RefScale 0.5 Min/Max Stroke Scales 2.2/5.0 -->
<!DOCTYPE svg
PUBLIC "-//W3C//DTD SVG 1.1//EN"
       "http://www.w3.org/Graphics/SVG/1.1/DTD/svg11.dtd">
<svg version="1.1" xmlns="http://www.w3.org/2000/svg" xmlns:xlink="http://www.w3.org/1999/xlink" width="3300" height="2200">
<![CDATA[<?xml version="1.0" encoding="UTF-8" standalone="no"?>
<!--Generator: Apple Native CoreSVG 175.5-->

<svg
   version="1.1"
   width="102.83398"
   height="64.705322"
   id="svg130"
   xmlns="http://www.w3.org/2000/svg"
   xmlns:svg="http://www.w3.org/2000/svg">
  <defs
     id="defs134" />
  <!--glyph: "uni100B7F.medium", point size: 100.0, font version: "18.0d11e1", template writer version: "90"-->
  <style
     id="style2">.monochrome-0 {fill:#000000}
.monochrome-1 {fill:#000000}

.hierarchical-0:secondary {fill:#4D4D4D}
.hierarchical-1:primary {fill:#212121}

.SFSymbolsPreview212121 {fill:#212121;opacity:1.0}
.SFSymbolsPreview4D4D4D {fill:#4D4D4D;opacity:1.0}
</style>
  <g
     id="Symbols"
     transform="translate(-1399.7754,-628.48437)">
    <g
       id="g6452">
      <g
         id="Regular-S"
         transform="translate(1373.7589,678.30496)">
        <g
           id="g4196">
          <path
             d="m 23.3887,-35.6934 c 8.5449,0 13.6718,-6.8359 13.6718,-17.7734 0,-10.9863 -5.1757,-17.7246 -13.6718,-17.7246 -8.4473,0 -13.62308,6.7871 -13.62308,17.7246 0,10.9863 5.12698,17.7734 13.62308,17.7734 z m 0,-6.1035 c -4.1504,0 -6.543,-4.248 -6.543,-11.6699 0,-7.373 2.4414,-11.6211 6.543,-11.6211 4.1015,0 6.5918,4.1992 6.5918,11.6211 0,7.4219 -2.4414,11.6699 -6.5918,11.6699 z M 67.5293,0.732422 c 8.4961,0 13.623,-6.884762 13.623,-17.822222 0,-10.9864 -5.1757,-17.6758 -13.623,-17.6758 -8.4473,0 -13.6231,6.7383 -13.6231,17.6758 0,10.98628 5.127,17.822222 13.6231,17.822222 z m 0,-6.103512 c -4.1504,0 -6.543,-4.24805 -6.543,-11.71871 0,-7.3243 2.4414,-11.5723 6.543,-11.5723 4.1016,0 6.543,4.1992 6.543,11.5723 0,7.47066 -2.3926,11.71871 -6.543,11.71871 z M 20.5078,0.878906 c 1.6113,0.927734 4.0039,0.781254 5.4199,-1.220703 L 71.2402,-66.0645 c 1.5625,-2.1972 0.6348,-4.4433 -1.0254,-5.4199 -1.5136,-0.8301 -3.6621,-0.6347 -5.2246,1.5625 L 19.6777,-4.44336 c -1.6113,2.29492 -0.7812,4.3457038 0.8301,5.322266 z"
             id="path2120"
             transform="matrix(0.63664821,0,0,0.63664821,76.9555,13.97541)" />
          <path
             id="path121-1-8"
             style="fill:#212121"
             class="monochrome-1 hierarchical-1:primary SFSymbolsPreview212121"
             d="m 29.336803,-49.820585 c -2.001896,0 -3.320312,1.318418 -3.320312,3.320312 v 57.910157 c 0,2.001946 1.318416,3.36914 3.320312,3.36914 H 80.905162 V 7.6989462 H 34.268444 c -0.927798,0 -1.220703,-0.2929766 -1.220703,-1.171875 V -41.61746 c 0,-0.878898 0.292905,-1.171875 1.220703,-1.171875 h 86.330076 c 0.927,0 1.21875,0.292977 1.21875,1.171875 v 6.751953 h 7.0332 v -11.634766 c 0,-2.001894 -1.32026,-3.320312 -3.32226,-3.320312 z" />
          <path
             id="path119"
             style="fill:#4d4d4d"
             class="monochrome-0 hierarchical-0:secondary SFSymbolsPreview4D4D4D"
             d="m 39.444225,-38.834257 c -1.513696,0 -2.441406,0.87891 -2.441406,2.441406 V 1.3024619 c 0,1.5623968 0.92771,2.4414062 2.441406,2.4414062 h 41.199219 v -5.9199219 c -1.060986,0.5715126 -2.203271,0.890625 -3.40625,0.890625 -5.32219,0 -9.521485,-6.445413 -9.521485,-16.3085942 0,-9.81448 4.199295,-16.210937 9.521485,-16.210937 1.202952,0 2.345284,0.315401 3.40625,0.882812 v -1.68164 h 37.218746 v -1.789063 c 0,-1.562496 -0.9273,-2.441406 -2.4414,-2.441406 z m 2.783203,4.248047 h 25.953125 c -3.326803,3.700669 -5.396484,9.616933 -5.396484,16.992187 0,7.436073 2.071955,13.3795618 5.402343,17.08984425 H 42.227428 c -0.634798,0 -0.927734,-0.34176375 -0.927734,-0.97656255 V -33.609648 c 0,-0.634698 0.292936,-0.976562 0.927734,-0.976562 z" />
        </g>
      </g>
    </g>
  </g>
</svg>
]]>
 <g id="Notes">
  <rect height="2200" id="artboard" style="fill:white;opacity:1" width="3300" x="0" y="0"/>
  <line id="" style="fill:none;stroke:black;opacity:1;stroke-width:0.5;" x1="263" x2="3036" y1="292" y2="292"/>
  <text id="reftext1" style="stroke:none;fill:black;font-family:-apple-system,&quot;SF Pro Display&quot;,&quot;SF Pro Text&quot;,Helvetica,sans-serif;font-weight:bold;" transform="matrix(1 0 0 1 263 322)">Weight/Scale Variations</text>
  <text id="reftext2" style="stroke:none;fill:black;font-family:-apple-system,&quot;SF Pro Display&quot;,&quot;SF Pro Text&quot;,Helvetica,sans-serif;text-anchor:middle;" transform="matrix(1 0 0 1 559.711 322)">Ultralight</text>
  <text style="stroke:none;fill:black;font-family:-apple-system,&quot;SF Pro Display&quot;,&quot;SF Pro Text&quot;,Helvetica,sans-serif;text-anchor:middle;" transform="matrix(1 0 0 1 856.422 322)">Thin</text>
  <text style="stroke:none;fill:black;font-family:-apple-system,&quot;SF Pro Display&quot;,&quot;SF Pro Text&quot;,Helvetica,sans-serif;text-anchor:middle;" transform="matrix(1 0 0 1 1153.13 322)">Light</text>
  <text style="stroke:none;fill:black;font-family:-apple-system,&quot;SF Pro Display&quot;,&quot;SF Pro Text&quot;,Helvetica,sans-serif;text-anchor:middle;" transform="matrix(1 0 0 1 1449.84 322)">Regular</text>
  <text style="stroke:none;fill:black;font-family:-apple-system,&quot;SF Pro Display&quot;,&quot;SF Pro Text&quot;,Helvetica,sans-serif;text-anchor:middle;" transform="matrix(1 0 0 1 1746.56 322)">Medium</text>
  <text style="stroke:none;fill:black;font-family:-apple-system,&quot;SF Pro Display&quot;,&quot;SF Pro Text&quot;,Helvetica,sans-serif;text-anchor:middle;" transform="matrix(1 0 0 1 2043.27 322)">Semibold</text>
  <text style="stroke:none;fill:black;font-family:-apple-system,&quot;SF Pro Display&quot;,&quot;SF Pro Text&quot;,Helvetica,sans-serif;text-anchor:middle;" transform="matrix(1 0 0 1 2339.98 322)">Bold</text>
  <text style="stroke:none;fill:black;font-family:-apple-system,&quot;SF Pro Display&quot;,&quot;SF Pro Text&quot;,Helvetica,sans-serif;text-anchor:middle;" transform="matrix(1 0 0 1 2636.69 322)">Heavy</text>
  <text style="stroke:none;fill:black;font-family:-apple-system,&quot;SF Pro Display&quot;,&quot;SF Pro Text&quot;,Helvetica,sans-serif;text-anchor:middle;" transform="matrix(1 0 0 1 2933.4 322)">Black</text>
  <line id="" style="fill:none;stroke:black;opacity:1;stroke-width:0.5;" x1="263" x2="3036" y1="1903" y2="1903"/>
  <g id="" transform="matrix(1 0 0 1 263 1933)">
   <path d="M9.24805 0.830078C13.5547 0.830078 17.1387-2.74414 17.1387-7.05078C17.1387-11.3574 13.5449-14.9316 9.23828-14.9316C4.94141-14.9316 1.36719-11.3574 1.36719-7.05078C1.36719-2.74414 4.95117 0.830078 9.24805 0.830078ZM9.24805-0.654297C5.70312-0.654297 2.87109-3.49609 2.87109-7.05078C2.87109-10.6055 5.69336-13.4473 9.23828-13.4473C12.793-13.4473 15.6348-10.6055 15.6445-7.05078C15.6543-3.49609 12.8027-0.654297 9.24805-0.654297ZM6.39648-6.31836L8.50586-6.31836L8.50586-4.19922C8.50586-3.75977 8.79883-3.45703 9.22852-3.45703C9.67773-3.45703 9.9707-3.75977 9.9707-4.19922L9.9707-6.31836L12.0996-6.31836C12.5391-6.31836 12.8418-6.61133 12.8418-7.04102C12.8418-7.48047 12.5391-7.7832 12.0996-7.7832L9.9707-7.7832L9.9707-9.89258C9.9707-10.3418 9.67773-10.6445 9.22852-10.6445C8.79883-10.6445 8.50586-10.3418 8.50586-9.89258L8.50586-7.7832L6.39648-7.7832C5.94727-7.7832 5.64453-7.48047 5.64453-7.04102C5.64453-6.61133 5.94727-6.31836 6.39648-6.31836Z"/>
  </g>
  <g id="" transform="matrix(1 0 0 1 281.506 1933)">
   <path d="M11.709 2.91016C17.1582 2.91016 21.6699-1.61133 21.6699-7.05078C21.6699-12.5 17.1484-17.0117 11.6992-17.0117C6.25977-17.0117 1.74805-12.5 1.74805-7.05078C1.74805-1.61133 6.26953 2.91016 11.709 2.91016ZM11.709 1.25C7.09961 1.25 3.41797-2.44141 3.41797-7.05078C3.41797-11.6602 7.08984-15.3516 11.6992-15.3516C16.3086-15.3516 20-11.6602 20.0098-7.05078C20.0195-2.44141 16.3184 1.25 11.709 1.25ZM7.98828-6.23047L10.8789-6.23047L10.8789-3.32031C10.8789-2.83203 11.2109-2.5 11.6895-2.5C12.1777-2.5 12.5195-2.83203 12.5195-3.32031L12.5195-6.23047L15.4297-6.23047C15.918-6.23047 16.25-6.5625 16.25-7.04102C16.25-7.5293 15.918-7.87109 15.4297-7.87109L12.5195-7.87109L12.5195-10.7617C12.5195-11.2695 12.1777-11.6016 11.6895-11.6016C11.2109-11.6016 10.8789-11.2598 10.8789-10.7617L10.8789-7.87109L7.98828-7.87109C7.48047-7.87109 7.14844-7.5293 7.14844-7.04102C7.14844-6.5625 7.49023-6.23047 7.98828-6.23047Z"/>
  </g>
  <g id="" transform="matrix(1 0 0 1 304.924 1933)">
   <path d="M14.9707 5.66406C21.9336 5.66406 27.6953-0.0976562 27.6953-7.05078C27.6953-14.0137 21.9238-19.7754 14.9609-19.7754C8.00781-19.7754 2.25586-14.0137 2.25586-7.05078C2.25586-0.0976562 8.01758 5.66406 14.9707 5.66406ZM14.9707 3.84766C8.93555 3.84766 4.08203-1.01562 4.08203-7.05078C4.08203-13.0957 8.92578-17.9492 14.9609-17.9492C21.0059-17.9492 25.8594-13.0957 25.8691-7.05078C25.8789-1.01562 21.0156 3.84766 14.9707 3.84766ZM10.0586-6.14258L14.0625-6.14258L14.0625-2.12891C14.0625-1.5918 14.4336-1.2207 14.9512-1.2207C15.4883-1.2207 15.8594-1.5918 15.8594-2.12891L15.8594-6.14258L19.8828-6.14258C20.4102-6.14258 20.791-6.51367 20.791-7.03125C20.791-7.56836 20.4199-7.94922 19.8828-7.94922L15.8594-7.94922L15.8594-11.9531C15.8594-12.5098 15.4883-12.8809 14.9512-12.8809C14.4336-12.8809 14.0625-12.5 14.0625-11.9531L14.0625-7.94922L10.0586-7.94922C9.50195-7.94922 9.13086-7.56836 9.13086-7.03125C9.13086-6.51367 9.51172-6.14258 10.0586-6.14258Z"/>
  </g>
  <text style="stroke:none;fill:black;font-family:-apple-system,&quot;SF Pro Display&quot;,&quot;SF Pro Text&quot;,Helvetica,sans-serif;font-weight:bold;" transform="matrix(1 0 0 1 263 1953)">Design Variations</text>
  <text style="stroke:none;fill:black;font-family:-apple-system,&quot;SF Pro Display&quot;,&quot;SF Pro Text&quot;,Helvetica,sans-serif;" transform="matrix(1 0 0 1 263 1971)">Symbols are supported in up to nine weights and three scales.</text>
  <text style="stroke:none;fill:black;font-family:-apple-system,&quot;SF Pro Display&quot;,&quot;SF Pro Text&quot;,Helvetica,sans-serif;" transform="matrix(1 0 0 1 263 1989)">For optimal layout with text and other symbols, vertically align</text>
  <text style="stroke:none;fill:black;font-family:-apple-system,&quot;SF Pro Display&quot;,&quot;SF Pro Text&quot;,Helvetica,sans-serif;" transform="matrix(1 0 0 1 263 2007)">symbols with the adjacent text.</text>
  <line id="" style="fill:none;stroke:#00AEEF;stroke-width:0.5;opacity:1.0;" x1="776" x2="776" y1="1919" y2="1933"/>
  <g id="" transform="matrix(1 0 0 1 776 1933)">
   <path d="M3.31055 0.126953C3.82812 0.126953 4.08203-0.0683594 4.26758-0.605469L5.52734-4.0625L11.2891-4.0625L12.5488-0.605469C12.7344-0.0683594 12.9883 0.126953 13.4961 0.126953C14.0137 0.126953 14.3457-0.185547 14.3457-0.673828C14.3457-0.839844 14.3164-0.986328 14.2383-1.20117L9.6582-13.3887C9.43359-13.9941 9.0332-14.2871 8.4082-14.2871C7.80273-14.2871 7.39258-13.9941 7.17773-13.3984L2.59766-1.19141C2.51953-0.976562 2.49023-0.830078 2.49023-0.664062C2.49023-0.175781 2.80273 0.126953 3.31055 0.126953ZM6.00586-5.53711L8.37891-12.1094L8.42773-12.1094L10.8008-5.53711Z"/>
  </g>
  <line id="" style="fill:none;stroke:#00AEEF;stroke-width:0.5;opacity:1.0;" x1="792.836" x2="792.836" y1="1919" y2="1933"/>
  <text style="stroke:none;fill:black;font-family:-apple-system,&quot;SF Pro Display&quot;,&quot;SF Pro Text&quot;,Helvetica,sans-serif;font-weight:bold;" transform="matrix(1 0 0 1 776 1953)">Margins</text>
  <text style="stroke:none;fill:black;font-family:-apple-system,&quot;SF Pro Display&quot;,&quot;SF Pro Text&quot;,Helvetica,sans-serif;" transform="matrix(1 0 0 1 776 1971)">Leading and trailing margins on the left and right side of each symbol</text>
  <text style="stroke:none;fill:black;font-family:-apple-system,&quot;SF Pro Display&quot;,&quot;SF Pro Text&quot;,Helvetica,sans-serif;" transform="matrix(1 0 0 1 776 1989)">can be adjusted by modifying the x-location of the margin guidelines.</text>
  <text style="stroke:none;fill:black;font-family:-apple-system,&quot;SF Pro Display&quot;,&quot;SF Pro Text&quot;,Helvetica,sans-serif;" transform="matrix(1 0 0 1 776 2007)">Modifications are automatically applied proportionally to all</text>
  <text style="stroke:none;fill:black;font-family:-apple-system,&quot;SF Pro Display&quot;,&quot;SF Pro Text&quot;,Helvetica,sans-serif;" transform="matrix(1 0 0 1 776 2025)">scales and weights.</text>
  <g id="" transform="matrix(1 0 0 1 1289 1933)">
   <path d="M2.8418 1.86523L4.54102 3.57422C5.40039 4.44336 6.38672 4.38477 7.31445 3.35938L17.4902-7.85156C17.7539-7.76367 18.0273-7.7832 18.3398-7.8418L19.4043-8.03711L20.0684-7.36328L20.0293-6.80664C19.9902-6.30859 20.1172-5.92773 20.6055-5.44922L21.3672-4.70703C21.8457-4.22852 22.4609-4.19922 22.9297-4.66797L25.8398-7.58789C26.3086-8.05664 26.2891-8.65234 25.8105-9.13086L25.0391-9.89258C24.5605-10.3711 24.1895-10.5273 23.7109-10.4883L23.1348-10.4395L22.4902-11.0742L22.7344-12.1973C22.8613-12.7637 22.7051-13.2031 22.1191-13.7891L19.9219-15.9766C16.582-19.2969 12.1484-19.2188 9.25781-16.3281C8.83789-15.918 8.80859-15.3418 9.04297-14.9512C9.27734-14.5898 9.73633-14.3555 10.3809-14.5215C11.8457-14.8633 13.3691-14.9219 14.7949-13.9844L14.209-12.5293C14.0137-12.0508 13.9844-11.6504 14.1113-11.2891L3.04688-0.898438C2.06055 0.0195312 1.98242 0.996094 2.8418 1.86523ZM10.752-15.957C13.1836-17.7344 16.4746-17.4316 18.7012-15.2051L21.1328-12.793C21.3672-12.5586 21.4062-12.373 21.3379-12.0312L21.0156-10.5469L22.5195-9.0625L23.5059-9.12109C23.7598-9.13086 23.8379-9.11133 24.0332-8.91602L24.6094-8.33984L22.168-5.89844L21.5918-6.47461C21.3965-6.66992 21.3672-6.74805 21.377-7.01172L21.4453-7.98828L19.9512-9.47266L18.4277-9.21875C18.1055-9.15039 17.959-9.17969 17.7148-9.41406L15.7129-11.416C15.459-11.6504 15.4297-11.8164 15.5859-12.1875L16.4648-14.2773C14.9023-15.7324 12.8711-16.3574 10.8398-15.7617C10.6836-15.7227 10.625-15.8496 10.752-15.957ZM5.27344 2.30469L4.10156 1.14258C3.63281 0.683594 3.74023 0.341797 4.14062-0.0195312L14.9512-10.1953L16.416-8.71094L6.42578 2.27539C6.07422 2.67578 5.74219 2.77344 5.27344 2.30469Z"/>
  </g>
  <text style="stroke:none;fill:black;font-family:-apple-system,&quot;SF Pro Display&quot;,&quot;SF Pro Text&quot;,Helvetica,sans-serif;font-weight:bold;" transform="matrix(1 0 0 1 1289 1953)">Exporting</text>
  <text style="stroke:none;fill:black;font-family:-apple-system,&quot;SF Pro Display&quot;,&quot;SF Pro Text&quot;,Helvetica,sans-serif;" transform="matrix(1 0 0 1 1289 1971)">Symbols should be outlined when exporting to ensure the</text>
  <text style="stroke:none;fill:black;font-family:-apple-system,&quot;SF Pro Display&quot;,&quot;SF Pro Text&quot;,Helvetica,sans-serif;" transform="matrix(1 0 0 1 1289 1989)">design is preserved when submitting to Xcode.</text>
  <text id="template-version" style="stroke:none;fill:black;font-family:-apple-system,&quot;SF Pro Display&quot;,&quot;SF Pro Text&quot;,Helvetica,sans-serif;text-anchor:end;" transform="matrix(1 0 0 1 3036 1933)">Template v.2.0</text>
  <text style="stroke:none;fill:black;font-family:-apple-system,&quot;SF Pro Display&quot;,&quot;SF Pro Text&quot;,Helvetica,sans-serif;text-anchor:end;" transform="matrix(1 0 0 1 3036 1951)">Requires Xcode 12 or greater</text>
  <text style="stroke:none;fill:black;font-family:-apple-system,&quot;SF Pro Display&quot;,&quot;SF Pro Text&quot;,Helvetica,sans-serif;" transform="matrix(1 0 0 1 263 726)">Small</text>
  <text style="stroke:none;fill:black;font-family:-apple-system,&quot;SF Pro Display&quot;,&quot;SF Pro Text&quot;,Helvetica,sans-serif;" transform="matrix(1 0 0 1 263 1156)">Medium</text>
  <text style="stroke:none;fill:black;font-family:-apple-system,&quot;SF Pro Display&quot;,&quot;SF Pro Text&quot;,Helvetica,sans-serif;" transform="matrix(1 0 0 1 263 1586)">Large</text>
 </g>
 <g id="Guides">
  <g id="H-reference" style="fill:#27AAE1;stroke:none;" transform="matrix(1 0 0 1 339 696)">
   <path d="M0.976562 0L3.66211 0L12.9883-24.4629L45.752-24.4629L55.127 0L57.7637 0L30.6152-70.459L28.125-70.459ZM29.3457-67.1387L29.4434-67.1387L44.873-26.709L13.8672-26.709Z"/>
  </g>
  <line id="Baseline-S" style="fill:none;stroke:#27AAE1;opacity:1;stroke-width:0.5;" x1="263" x2="3036" y1="696" y2="696"/>
  <line id="Capline-S" style="fill:none;stroke:#27AAE1;opacity:1;stroke-width:0.5;" x1="263" x2="3036" y1="625.541" y2="625.541"/>
  <g id="H-reference" style="fill:#27AAE1;stroke:none;" transform="matrix(1 0 0 1 339 1126)">
   <path d="M0.976562 0L3.66211 0L12.9883-24.4629L45.752-24.4629L55.127 0L57.7637 0L30.6152-70.459L28.125-70.459ZM29.3457-67.1387L29.4434-67.1387L44.873-26.709L13.8672-26.709Z"/>
  </g>
  <line id="Baseline-M" style="fill:none;stroke:#27AAE1;opacity:1;stroke-width:0.5;" x1="263" x2="3036" y1="1126" y2="1126"/>
  <line id="Capline-M" style="fill:none;stroke:#27AAE1;opacity:1;stroke-width:0.5;" x1="263" x2="3036" y1="1055.54" y2="1055.54"/>
  <g id="H-reference" style="fill:#27AAE1;stroke:none;" transform="matrix(1 0 0 1 339 1556)">
   <path d="M0.976562 0L3.66211 0L12.9883-24.4629L45.752-24.4629L55.127 0L57.7637 0L30.6152-70.459L28.125-70.459ZM29.3457-67.1387L29.4434-67.1387L44.873-26.709L13.8672-26.709Z"/>
  </g>
  <line id="Baseline-L" style="fill:none;stroke:#27AAE1;opacity:1;stroke-width:0.5;" x1="263" x2="3036" y1="1556" y2="1556"/>
  <line id="Capline-L" style="fill:none;stroke:#27AAE1;opacity:1;stroke-width:0.5;" x1="263" x2="3036" y1="1485.54" y2="1485.54"/>
  <line id="left-margin" x1="1387.0049879816033" x2="1387.0049879816033" y1="1030.79" y2="1150.12" style="fill:none;stroke:#00AEEF;stroke-width:0.5;opacity:1.0;"/>
  <line id="right-margin" x1="1515.5135806275262" x2="1515.5135806275262" y1="1030.79" y2="1150.12" style="fill:none;stroke:#00AEEF;stroke-width:0.5;opacity:1.0;"/>
 </g>
 <g id="Symbols">
  <g id="Black-L" transform="matrix(1.0,0.0,0.0,1.0,2851.2916275163993,1467.8184325611105)">  <path stroke="none" fill-opacity="1" stroke-linejoin="miter" stroke-dasharray="none" fill-rule="nonzero" stroke-miterlimit="4" stroke-width="0.015625px" xmlns:svg="http://www.w3.org/2000/svg" stroke-linecap="butt" version="1.1" fill="#000000" stroke-opacity="1" d="M106.762,66.611C115.585,66.611,120.879,59.552,120.879,48.259C120.879,36.916,115.535,29.958,106.762,29.958C98.04,29.958,92.696,36.966,92.696,48.259C92.696,59.603,97.99,66.611,106.762,66.611ZM106.762,60.309C102.477,60.309,100.007,55.922,100.007,48.259C100.007,40.646,102.527,36.26,106.762,36.26C110.997,36.26,113.569,40.596,113.569,48.259C113.569,55.922,111.048,60.309,106.762,60.309ZM152.339,104.221C161.111,104.221,166.405,97.112,166.405,85.819C166.405,74.475,161.061,67.568,152.339,67.568C143.617,67.568,138.272,74.526,138.272,85.819C138.272,97.163,143.566,104.221,152.339,104.221ZM152.339,97.919C148.053,97.919,145.583,93.533,145.583,85.819C145.583,78.257,148.104,73.87,152.339,73.87C156.573,73.87,159.094,78.206,159.094,85.819C159.094,93.533,156.624,97.919,152.339,97.919ZM103.788,104.372C105.452,105.33,107.922,105.179,109.384,103.112L156.17,35.252C157.783,32.983,156.826,30.664,155.111,29.656C153.549,28.799,151.33,29,149.717,31.269L102.931,98.877C101.267,101.246,102.124,103.364,103.788,104.372ZM103.788,104.372"/>
  <path stroke-dasharray="none" stroke-linecap="butt" fill="#212121" stroke="none" xmlns:svg="http://www.w3.org/2000/svg" version="1.1" stroke-linejoin="miter" stroke-opacity="1" stroke-width="0.015625" stroke-miterlimit="4" fill-opacity="1" fill-rule="nonzero" d="M5.385,-0C2.138,-0,0,2.138,0,5.385L0,99.304C0,102.551,2.138,104.768,5.385,104.768L89.019,104.768L89.019,93.285L13.383,93.285C11.878,93.285,11.403,92.81,11.403,91.385L11.403,13.304C11.403,11.878,11.878,11.403,13.383,11.403L153.394,11.403C154.897,11.403,155.37,11.878,155.37,13.304L155.37,24.254L166.777,24.254L166.777,5.385C166.777,2.138,164.636,-0,161.389,-0ZM5.385,-0"/>
  <path stroke-dasharray="none" xmlns:svg="http://www.w3.org/2000/svg" fill-opacity="1" stroke="none" stroke-miterlimit="4" fill="#4d4d4d" stroke-opacity="1" stroke-linecap="butt" version="1.1" stroke-width="0.015625" stroke-linejoin="miter" fill-rule="nonzero" d="M21.777,17.818C19.322,17.818,17.818,19.243,17.818,21.777L17.818,82.912C17.818,85.446,19.322,86.871,21.777,86.871L88.594,86.871L88.594,77.27C86.874,78.197,85.021,78.715,83.07,78.715C74.438,78.715,67.628,68.261,67.628,52.265C67.628,36.348,74.438,25.974,83.07,25.974C85.021,25.974,86.874,26.486,88.594,27.406L88.594,24.679L148.956,24.679L148.956,21.777C148.956,19.243,147.452,17.818,144.996,17.818ZM26.291,24.707L68.382,24.707C62.987,30.709,59.63,40.304,59.63,52.265C59.63,64.325,62.99,73.964,68.391,79.982L26.291,79.982C25.261,79.982,24.786,79.427,24.786,78.398L24.786,26.291C24.786,25.262,25.261,24.707,26.291,24.707ZM26.291,24.707"/>
</g>
  <g id="Heavy-L" transform="matrix(1.0,0.0,0.0,1.0,2554.5816275163993,1467.8184325611105)">  <path version="1.1" stroke-opacity="1" stroke-miterlimit="4" stroke-width="0.015625px" fill-opacity="1" stroke="none" fill="#000000" stroke-linecap="butt" fill-rule="nonzero" stroke-dasharray="none" xmlns:svg="http://www.w3.org/2000/svg" stroke-linejoin="miter" d="M106.762,66.611C115.585,66.611,120.879,59.552,120.879,48.259C120.879,36.916,115.535,29.958,106.762,29.958C98.04,29.958,92.696,36.966,92.696,48.259C92.696,59.603,97.99,66.611,106.762,66.611ZM106.762,60.309C102.477,60.309,100.007,55.922,100.007,48.259C100.007,40.646,102.527,36.26,106.762,36.26C110.997,36.26,113.569,40.596,113.569,48.259C113.569,55.922,111.048,60.309,106.762,60.309ZM152.339,104.221C161.111,104.221,166.405,97.112,166.405,85.819C166.405,74.475,161.061,67.568,152.339,67.568C143.617,67.568,138.272,74.526,138.272,85.819C138.272,97.163,143.566,104.221,152.339,104.221ZM152.339,97.919C148.053,97.919,145.583,93.533,145.583,85.819C145.583,78.257,148.104,73.87,152.339,73.87C156.573,73.87,159.094,78.206,159.094,85.819C159.094,93.533,156.624,97.919,152.339,97.919ZM103.788,104.372C105.452,105.33,107.922,105.179,109.384,103.112L156.17,35.252C157.783,32.983,156.826,30.664,155.111,29.656C153.549,28.799,151.33,29,149.717,31.269L102.931,98.877C101.267,101.246,102.124,103.364,103.788,104.372ZM103.788,104.372"/>
  <path stroke-linejoin="miter" stroke-dasharray="none" xmlns:svg="http://www.w3.org/2000/svg" stroke-opacity="1" stroke-width="0.015625" fill-rule="nonzero" stroke-linecap="butt" fill="#212121" version="1.1" fill-opacity="1" stroke="none" stroke-miterlimit="4" d="M5.385,-0C2.138,-0,0,2.138,0,5.385L0,99.304C0,102.551,2.138,104.768,5.385,104.768L89.019,104.768L89.019,93.285L13.383,93.285C11.878,93.285,11.403,92.81,11.403,91.385L11.403,13.304C11.403,11.878,11.878,11.403,13.383,11.403L153.394,11.403C154.897,11.403,155.37,11.878,155.37,13.304L155.37,24.254L166.777,24.254L166.777,5.385C166.777,2.138,164.636,-0,161.389,-0ZM5.385,-0"/>
  <path stroke="none" stroke-width="0.015625" fill-rule="nonzero" version="1.1" fill-opacity="1" stroke-dasharray="none" stroke-miterlimit="4" xmlns:svg="http://www.w3.org/2000/svg" stroke-opacity="1" stroke-linejoin="miter" fill="#4d4d4d" stroke-linecap="butt" d="M21.777,17.818C19.322,17.818,17.818,19.243,17.818,21.777L17.818,82.912C17.818,85.446,19.322,86.871,21.777,86.871L88.594,86.871L88.594,77.27C86.874,78.197,85.021,78.715,83.07,78.715C74.438,78.715,67.628,68.261,67.628,52.265C67.628,36.348,74.438,25.974,83.07,25.974C85.021,25.974,86.874,26.486,88.594,27.406L88.594,24.679L148.956,24.679L148.956,21.777C148.956,19.243,147.452,17.818,144.996,17.818ZM26.291,24.707L68.382,24.707C62.987,30.709,59.63,40.304,59.63,52.265C59.63,64.325,62.99,73.964,68.391,79.982L26.291,79.982C25.261,79.982,24.786,79.427,24.786,78.398L24.786,26.291C24.786,25.262,25.261,24.707,26.291,24.707ZM26.291,24.707"/>
</g>
  <g id="Bold-L" transform="matrix(1.0,0.0,0.0,1.0,2257.8716275163993,1467.8184325611105)">  <path stroke-opacity="1" version="1.1" fill-opacity="1" stroke-dasharray="none" fill="#000000" stroke="none" stroke-width="0.015625px" fill-rule="nonzero" stroke-miterlimit="4" xmlns:svg="http://www.w3.org/2000/svg" stroke-linejoin="miter" stroke-linecap="butt" d="M106.762,66.611C115.585,66.611,120.879,59.552,120.879,48.259C120.879,36.916,115.535,29.958,106.762,29.958C98.04,29.958,92.696,36.966,92.696,48.259C92.696,59.603,97.99,66.611,106.762,66.611ZM106.762,60.309C102.477,60.309,100.007,55.922,100.007,48.259C100.007,40.646,102.527,36.26,106.762,36.26C110.997,36.26,113.569,40.596,113.569,48.259C113.569,55.922,111.048,60.309,106.762,60.309ZM152.339,104.221C161.111,104.221,166.405,97.112,166.405,85.819C166.405,74.475,161.061,67.568,152.339,67.568C143.617,67.568,138.272,74.526,138.272,85.819C138.272,97.163,143.566,104.221,152.339,104.221ZM152.339,97.919C148.053,97.919,145.583,93.533,145.583,85.819C145.583,78.257,148.104,73.87,152.339,73.87C156.573,73.87,159.094,78.206,159.094,85.819C159.094,93.533,156.624,97.919,152.339,97.919ZM103.788,104.372C105.452,105.33,107.922,105.179,109.384,103.112L156.17,35.252C157.783,32.983,156.826,30.664,155.111,29.656C153.549,28.799,151.33,29,149.717,31.269L102.931,98.877C101.267,101.246,102.124,103.364,103.788,104.372ZM103.788,104.372"/>
  <path stroke-opacity="1" stroke-linecap="butt" fill-rule="nonzero" xmlns:svg="http://www.w3.org/2000/svg" stroke-dasharray="none" stroke-width="0.015625" stroke-miterlimit="4" stroke="none" fill="#212121" stroke-linejoin="miter" version="1.1" fill-opacity="1" d="M5.385,-0C2.138,-0,0,2.138,0,5.385L0,99.304C0,102.551,2.138,104.768,5.385,104.768L89.019,104.768L89.019,93.285L13.383,93.285C11.878,93.285,11.403,92.81,11.403,91.385L11.403,13.304C11.403,11.878,11.878,11.403,13.383,11.403L153.394,11.403C154.897,11.403,155.37,11.878,155.37,13.304L155.37,24.254L166.777,24.254L166.777,5.385C166.777,2.138,164.636,-0,161.389,-0ZM5.385,-0"/>
  <path stroke-linecap="butt" fill-rule="nonzero" fill="#4d4d4d" stroke-linejoin="miter" stroke="none" version="1.1" fill-opacity="1" stroke-opacity="1" stroke-miterlimit="4" stroke-dasharray="none" stroke-width="0.015625" xmlns:svg="http://www.w3.org/2000/svg" d="M21.777,17.818C19.322,17.818,17.818,19.243,17.818,21.777L17.818,82.912C17.818,85.446,19.322,86.871,21.777,86.871L88.594,86.871L88.594,77.27C86.874,78.197,85.021,78.715,83.07,78.715C74.438,78.715,67.628,68.261,67.628,52.265C67.628,36.348,74.438,25.974,83.07,25.974C85.021,25.974,86.874,26.486,88.594,27.406L88.594,24.679L148.956,24.679L148.956,21.777C148.956,19.243,147.452,17.818,144.996,17.818ZM26.291,24.707L68.382,24.707C62.987,30.709,59.63,40.304,59.63,52.265C59.63,64.325,62.99,73.964,68.391,79.982L26.291,79.982C25.261,79.982,24.786,79.427,24.786,78.398L24.786,26.291C24.786,25.262,25.261,24.707,26.291,24.707ZM26.291,24.707"/>
</g>
  <g id="Semibold-L" transform="matrix(1.0,0.0,0.0,1.0,1961.1616275163994,1467.8184325611105)">  <path stroke="none" stroke-dasharray="none" stroke-linejoin="miter" xmlns:svg="http://www.w3.org/2000/svg" fill="#000000" fill-rule="nonzero" fill-opacity="1" stroke-linecap="butt" stroke-miterlimit="4" version="1.1" stroke-width="0.015625px" stroke-opacity="1" d="M106.762,66.611C115.585,66.611,120.879,59.552,120.879,48.259C120.879,36.916,115.535,29.958,106.762,29.958C98.04,29.958,92.696,36.966,92.696,48.259C92.696,59.603,97.99,66.611,106.762,66.611ZM106.762,60.309C102.477,60.309,100.007,55.922,100.007,48.259C100.007,40.646,102.527,36.26,106.762,36.26C110.997,36.26,113.569,40.596,113.569,48.259C113.569,55.922,111.048,60.309,106.762,60.309ZM152.339,104.221C161.111,104.221,166.405,97.112,166.405,85.819C166.405,74.475,161.061,67.568,152.339,67.568C143.617,67.568,138.272,74.526,138.272,85.819C138.272,97.163,143.566,104.221,152.339,104.221ZM152.339,97.919C148.053,97.919,145.583,93.533,145.583,85.819C145.583,78.257,148.104,73.87,152.339,73.87C156.573,73.87,159.094,78.206,159.094,85.819C159.094,93.533,156.624,97.919,152.339,97.919ZM103.788,104.372C105.452,105.33,107.922,105.179,109.384,103.112L156.17,35.252C157.783,32.983,156.826,30.664,155.111,29.656C153.549,28.799,151.33,29,149.717,31.269L102.931,98.877C101.267,101.246,102.124,103.364,103.788,104.372ZM103.788,104.372"/>
  <path stroke-width="0.015625" stroke="none" stroke-linecap="butt" stroke-miterlimit="4" stroke-dasharray="none" xmlns:svg="http://www.w3.org/2000/svg" version="1.1" fill="#212121" stroke-opacity="1" fill-rule="nonzero" stroke-linejoin="miter" fill-opacity="1" d="M5.385,-0C2.138,-0,0,2.138,0,5.385L0,99.304C0,102.551,2.138,104.768,5.385,104.768L89.019,104.768L89.019,93.285L13.383,93.285C11.878,93.285,11.403,92.81,11.403,91.385L11.403,13.304C11.403,11.878,11.878,11.403,13.383,11.403L153.394,11.403C154.897,11.403,155.37,11.878,155.37,13.304L155.37,24.254L166.777,24.254L166.777,5.385C166.777,2.138,164.636,-0,161.389,-0ZM5.385,-0"/>
  <path stroke-linejoin="miter" xmlns:svg="http://www.w3.org/2000/svg" fill-opacity="1" version="1.1" stroke-opacity="1" fill="#4d4d4d" fill-rule="nonzero" stroke-miterlimit="4" stroke-dasharray="none" stroke-linecap="butt" stroke-width="0.015625" stroke="none" d="M21.777,17.818C19.322,17.818,17.818,19.243,17.818,21.777L17.818,82.912C17.818,85.446,19.322,86.871,21.777,86.871L88.594,86.871L88.594,77.27C86.874,78.197,85.021,78.715,83.07,78.715C74.438,78.715,67.628,68.261,67.628,52.265C67.628,36.348,74.438,25.974,83.07,25.974C85.021,25.974,86.874,26.486,88.594,27.406L88.594,24.679L148.956,24.679L148.956,21.777C148.956,19.243,147.452,17.818,144.996,17.818ZM26.291,24.707L68.382,24.707C62.987,30.709,59.63,40.304,59.63,52.265C59.63,64.325,62.99,73.964,68.391,79.982L26.291,79.982C25.261,79.982,24.786,79.427,24.786,78.398L24.786,26.291C24.786,25.262,25.261,24.707,26.291,24.707ZM26.291,24.707"/>
</g>
  <g id="Medium-L" transform="matrix(1.0,0.0,0.0,1.0,1664.4516275163994,1467.8184325611105)">  <path version="1.1" xmlns:svg="http://www.w3.org/2000/svg" stroke-opacity="1" stroke-linejoin="miter" stroke-linecap="butt" stroke-miterlimit="4" stroke-dasharray="none" fill-rule="nonzero" fill-opacity="1" stroke-width="0.015625px" stroke="none" fill="#000000" d="M106.762,66.611C115.585,66.611,120.879,59.552,120.879,48.259C120.879,36.916,115.535,29.958,106.762,29.958C98.04,29.958,92.696,36.966,92.696,48.259C92.696,59.603,97.99,66.611,106.762,66.611ZM106.762,60.309C102.477,60.309,100.007,55.922,100.007,48.259C100.007,40.646,102.527,36.26,106.762,36.26C110.997,36.26,113.569,40.596,113.569,48.259C113.569,55.922,111.048,60.309,106.762,60.309ZM152.339,104.221C161.111,104.221,166.405,97.112,166.405,85.819C166.405,74.475,161.061,67.568,152.339,67.568C143.617,67.568,138.272,74.526,138.272,85.819C138.272,97.163,143.566,104.221,152.339,104.221ZM152.339,97.919C148.053,97.919,145.583,93.533,145.583,85.819C145.583,78.257,148.104,73.87,152.339,73.87C156.573,73.87,159.094,78.206,159.094,85.819C159.094,93.533,156.624,97.919,152.339,97.919ZM103.788,104.372C105.452,105.33,107.922,105.179,109.384,103.112L156.17,35.252C157.783,32.983,156.826,30.664,155.111,29.656C153.549,28.799,151.33,29,149.717,31.269L102.931,98.877C101.267,101.246,102.124,103.364,103.788,104.372ZM103.788,104.372"/>
  <path version="1.1" stroke-linejoin="miter" xmlns:svg="http://www.w3.org/2000/svg" fill="#212121" fill-rule="nonzero" fill-opacity="1" stroke-miterlimit="4" stroke-width="0.015625" stroke-dasharray="none" stroke="none" stroke-linecap="butt" stroke-opacity="1" d="M5.385,-0C2.138,-0,0,2.138,0,5.385L0,99.304C0,102.551,2.138,104.768,5.385,104.768L89.019,104.768L89.019,93.285L13.383,93.285C11.878,93.285,11.403,92.81,11.403,91.385L11.403,13.304C11.403,11.878,11.878,11.403,13.383,11.403L153.394,11.403C154.897,11.403,155.37,11.878,155.37,13.304L155.37,24.254L166.777,24.254L166.777,5.385C166.777,2.138,164.636,-0,161.389,-0ZM5.385,-0"/>
  <path version="1.1" stroke-miterlimit="4" xmlns:svg="http://www.w3.org/2000/svg" stroke="none" fill-rule="nonzero" fill-opacity="1" stroke-opacity="1" stroke-dasharray="none" stroke-linecap="butt" stroke-linejoin="miter" stroke-width="0.015625" fill="#4d4d4d" d="M21.777,17.818C19.322,17.818,17.818,19.243,17.818,21.777L17.818,82.912C17.818,85.446,19.322,86.871,21.777,86.871L88.594,86.871L88.594,77.27C86.874,78.197,85.021,78.715,83.07,78.715C74.438,78.715,67.628,68.261,67.628,52.265C67.628,36.348,74.438,25.974,83.07,25.974C85.021,25.974,86.874,26.486,88.594,27.406L88.594,24.679L148.956,24.679L148.956,21.777C148.956,19.243,147.452,17.818,144.996,17.818ZM26.291,24.707L68.382,24.707C62.987,30.709,59.63,40.304,59.63,52.265C59.63,64.325,62.99,73.964,68.391,79.982L26.291,79.982C25.261,79.982,24.786,79.427,24.786,78.398L24.786,26.291C24.786,25.262,25.261,24.707,26.291,24.707ZM26.291,24.707"/>
</g>
  <g id="Regular-L" transform="matrix(1.0,0.0,0.0,1.0,1367.7416275163994,1467.8184325611105)">  <path fill-rule="nonzero" fill-opacity="1" xmlns:svg="http://www.w3.org/2000/svg" stroke-opacity="1" stroke="none" stroke-linejoin="miter" version="1.1" stroke-miterlimit="4" stroke-dasharray="none" fill="#000000" stroke-width="0.015625px" stroke-linecap="butt" d="M106.762,66.611C115.585,66.611,120.879,59.552,120.879,48.259C120.879,36.916,115.535,29.958,106.762,29.958C98.04,29.958,92.696,36.966,92.696,48.259C92.696,59.603,97.99,66.611,106.762,66.611ZM106.762,60.309C102.477,60.309,100.007,55.922,100.007,48.259C100.007,40.646,102.527,36.26,106.762,36.26C110.997,36.26,113.569,40.596,113.569,48.259C113.569,55.922,111.048,60.309,106.762,60.309ZM152.339,104.221C161.111,104.221,166.405,97.112,166.405,85.819C166.405,74.475,161.061,67.568,152.339,67.568C143.617,67.568,138.272,74.526,138.272,85.819C138.272,97.163,143.566,104.221,152.339,104.221ZM152.339,97.919C148.053,97.919,145.583,93.533,145.583,85.819C145.583,78.257,148.104,73.87,152.339,73.87C156.573,73.87,159.094,78.206,159.094,85.819C159.094,93.533,156.624,97.919,152.339,97.919ZM103.788,104.372C105.452,105.33,107.922,105.179,109.384,103.112L156.17,35.252C157.783,32.983,156.826,30.664,155.111,29.656C153.549,28.799,151.33,29,149.717,31.269L102.931,98.877C101.267,101.246,102.124,103.364,103.788,104.372ZM103.788,104.372"/>
  <path stroke="none" stroke-linecap="butt" fill="#212121" stroke-miterlimit="4" stroke-opacity="1" stroke-dasharray="none" version="1.1" fill-opacity="1" stroke-width="0.015625" stroke-linejoin="miter" xmlns:svg="http://www.w3.org/2000/svg" fill-rule="nonzero" d="M5.385,-0C2.138,-0,0,2.138,0,5.385L0,99.304C0,102.551,2.138,104.768,5.385,104.768L89.019,104.768L89.019,93.285L13.383,93.285C11.878,93.285,11.403,92.81,11.403,91.385L11.403,13.304C11.403,11.878,11.878,11.403,13.383,11.403L153.394,11.403C154.897,11.403,155.37,11.878,155.37,13.304L155.37,24.254L166.777,24.254L166.777,5.385C166.777,2.138,164.636,-0,161.389,-0ZM5.385,-0"/>
  <path stroke-linecap="butt" fill="#4d4d4d" stroke-width="0.015625" stroke-linejoin="miter" fill-opacity="1" stroke-opacity="1" stroke="none" fill-rule="nonzero" stroke-miterlimit="4" version="1.1" xmlns:svg="http://www.w3.org/2000/svg" stroke-dasharray="none" d="M21.777,17.818C19.322,17.818,17.818,19.243,17.818,21.777L17.818,82.912C17.818,85.446,19.322,86.871,21.777,86.871L88.594,86.871L88.594,77.27C86.874,78.197,85.021,78.715,83.07,78.715C74.438,78.715,67.628,68.261,67.628,52.265C67.628,36.348,74.438,25.974,83.07,25.974C85.021,25.974,86.874,26.486,88.594,27.406L88.594,24.679L148.956,24.679L148.956,21.777C148.956,19.243,147.452,17.818,144.996,17.818ZM26.291,24.707L68.382,24.707C62.987,30.709,59.63,40.304,59.63,52.265C59.63,64.325,62.99,73.964,68.391,79.982L26.291,79.982C25.261,79.982,24.786,79.427,24.786,78.398L24.786,26.291C24.786,25.262,25.261,24.707,26.291,24.707ZM26.291,24.707"/>
</g>
  <g id="Light-L" transform="matrix(1.0,0.0,0.0,1.0,1071.0316275163996,1467.8184325611105)">  <path fill-opacity="1" stroke="none" version="1.1" stroke-linejoin="miter" stroke-width="0.015625px" fill-rule="nonzero" xmlns:svg="http://www.w3.org/2000/svg" stroke-linecap="butt" stroke-dasharray="none" fill="#000000" stroke-opacity="1" stroke-miterlimit="4" d="M106.762,66.611C115.585,66.611,120.879,59.552,120.879,48.259C120.879,36.916,115.535,29.958,106.762,29.958C98.04,29.958,92.696,36.966,92.696,48.259C92.696,59.603,97.99,66.611,106.762,66.611ZM106.762,60.309C102.477,60.309,100.007,55.922,100.007,48.259C100.007,40.646,102.527,36.26,106.762,36.26C110.997,36.26,113.569,40.596,113.569,48.259C113.569,55.922,111.048,60.309,106.762,60.309ZM152.339,104.221C161.111,104.221,166.405,97.112,166.405,85.819C166.405,74.475,161.061,67.568,152.339,67.568C143.617,67.568,138.272,74.526,138.272,85.819C138.272,97.163,143.566,104.221,152.339,104.221ZM152.339,97.919C148.053,97.919,145.583,93.533,145.583,85.819C145.583,78.257,148.104,73.87,152.339,73.87C156.573,73.87,159.094,78.206,159.094,85.819C159.094,93.533,156.624,97.919,152.339,97.919ZM103.788,104.372C105.452,105.33,107.922,105.179,109.384,103.112L156.17,35.252C157.783,32.983,156.826,30.664,155.111,29.656C153.549,28.799,151.33,29,149.717,31.269L102.931,98.877C101.267,101.246,102.124,103.364,103.788,104.372ZM103.788,104.372"/>
  <path xmlns:svg="http://www.w3.org/2000/svg" fill-rule="nonzero" fill="#212121" stroke-width="0.015625" stroke="none" stroke-linejoin="miter" fill-opacity="1" stroke-opacity="1" version="1.1" stroke-miterlimit="4" stroke-dasharray="none" stroke-linecap="butt" d="M5.385,-0C2.138,-0,0,2.138,0,5.385L0,99.304C0,102.551,2.138,104.768,5.385,104.768L89.019,104.768L89.019,93.285L13.383,93.285C11.878,93.285,11.403,92.81,11.403,91.385L11.403,13.304C11.403,11.878,11.878,11.403,13.383,11.403L153.394,11.403C154.897,11.403,155.37,11.878,155.37,13.304L155.37,24.254L166.777,24.254L166.777,5.385C166.777,2.138,164.636,-0,161.389,-0ZM5.385,-0"/>
  <path fill="#4d4d4d" stroke-width="0.015625" stroke-dasharray="none" stroke-linejoin="miter" stroke-linecap="butt" stroke="none" xmlns:svg="http://www.w3.org/2000/svg" stroke-opacity="1" fill-opacity="1" fill-rule="nonzero" version="1.1" stroke-miterlimit="4" d="M21.777,17.818C19.322,17.818,17.818,19.243,17.818,21.777L17.818,82.912C17.818,85.446,19.322,86.871,21.777,86.871L88.594,86.871L88.594,77.27C86.874,78.197,85.021,78.715,83.07,78.715C74.438,78.715,67.628,68.261,67.628,52.265C67.628,36.348,74.438,25.974,83.07,25.974C85.021,25.974,86.874,26.486,88.594,27.406L88.594,24.679L148.956,24.679L148.956,21.777C148.956,19.243,147.452,17.818,144.996,17.818ZM26.291,24.707L68.382,24.707C62.987,30.709,59.63,40.304,59.63,52.265C59.63,64.325,62.99,73.964,68.391,79.982L26.291,79.982C25.261,79.982,24.786,79.427,24.786,78.398L24.786,26.291C24.786,25.262,25.261,24.707,26.291,24.707ZM26.291,24.707"/>
</g>
  <g id="Thin-L" transform="matrix(1.0,0.0,0.0,1.0,774.3216275163996,1467.8184325611105)">  <path stroke-linejoin="miter" stroke-width="0.015625px" fill-opacity="1" fill="#000000" stroke="none" stroke-opacity="1" stroke-miterlimit="4" version="1.1" stroke-linecap="butt" stroke-dasharray="none" xmlns:svg="http://www.w3.org/2000/svg" fill-rule="nonzero" d="M106.762,66.611C115.585,66.611,120.879,59.552,120.879,48.259C120.879,36.916,115.535,29.958,106.762,29.958C98.04,29.958,92.696,36.966,92.696,48.259C92.696,59.603,97.99,66.611,106.762,66.611ZM106.762,60.309C102.477,60.309,100.007,55.922,100.007,48.259C100.007,40.646,102.527,36.26,106.762,36.26C110.997,36.26,113.569,40.596,113.569,48.259C113.569,55.922,111.048,60.309,106.762,60.309ZM152.339,104.221C161.111,104.221,166.405,97.112,166.405,85.819C166.405,74.475,161.061,67.568,152.339,67.568C143.617,67.568,138.272,74.526,138.272,85.819C138.272,97.163,143.566,104.221,152.339,104.221ZM152.339,97.919C148.053,97.919,145.583,93.533,145.583,85.819C145.583,78.257,148.104,73.87,152.339,73.87C156.573,73.87,159.094,78.206,159.094,85.819C159.094,93.533,156.624,97.919,152.339,97.919ZM103.788,104.372C105.452,105.33,107.922,105.179,109.384,103.112L156.17,35.252C157.783,32.983,156.826,30.664,155.111,29.656C153.549,28.799,151.33,29,149.717,31.269L102.931,98.877C101.267,101.246,102.124,103.364,103.788,104.372ZM103.788,104.372"/>
  <path stroke-dasharray="none" stroke-linecap="butt" fill-opacity="1" fill-rule="nonzero" stroke-opacity="1" xmlns:svg="http://www.w3.org/2000/svg" stroke-linejoin="miter" stroke-width="0.015625" stroke="none" fill="#212121" version="1.1" stroke-miterlimit="4" d="M5.385,-0C2.138,-0,0,2.138,0,5.385L0,99.304C0,102.551,2.138,104.768,5.385,104.768L89.019,104.768L89.019,93.285L13.383,93.285C11.878,93.285,11.403,92.81,11.403,91.385L11.403,13.304C11.403,11.878,11.878,11.403,13.383,11.403L153.394,11.403C154.897,11.403,155.37,11.878,155.37,13.304L155.37,24.254L166.777,24.254L166.777,5.385C166.777,2.138,164.636,-0,161.389,-0ZM5.385,-0"/>
  <path stroke-width="0.015625" stroke="none" fill-opacity="1" fill-rule="nonzero" stroke-linejoin="miter" version="1.1" fill="#4d4d4d" stroke-linecap="butt" xmlns:svg="http://www.w3.org/2000/svg" stroke-opacity="1" stroke-miterlimit="4" stroke-dasharray="none" d="M21.777,17.818C19.322,17.818,17.818,19.243,17.818,21.777L17.818,82.912C17.818,85.446,19.322,86.871,21.777,86.871L88.594,86.871L88.594,77.27C86.874,78.197,85.021,78.715,83.07,78.715C74.438,78.715,67.628,68.261,67.628,52.265C67.628,36.348,74.438,25.974,83.07,25.974C85.021,25.974,86.874,26.486,88.594,27.406L88.594,24.679L148.956,24.679L148.956,21.777C148.956,19.243,147.452,17.818,144.996,17.818ZM26.291,24.707L68.382,24.707C62.987,30.709,59.63,40.304,59.63,52.265C59.63,64.325,62.99,73.964,68.391,79.982L26.291,79.982C25.261,79.982,24.786,79.427,24.786,78.398L24.786,26.291C24.786,25.262,25.261,24.707,26.291,24.707ZM26.291,24.707"/>
</g>
  <g id="Ultralight-L" transform="matrix(1.0,0.0,0.0,1.0,477.6116275163996,1467.8184325611105)">  <path stroke-linecap="butt" stroke-opacity="1" fill-rule="nonzero" stroke-miterlimit="4" stroke-width="0.015625px" stroke-linejoin="miter" xmlns:svg="http://www.w3.org/2000/svg" version="1.1" fill="#000000" fill-opacity="1" stroke="none" stroke-dasharray="none" d="M106.762,66.611C115.585,66.611,120.879,59.552,120.879,48.259C120.879,36.916,115.535,29.958,106.762,29.958C98.04,29.958,92.696,36.966,92.696,48.259C92.696,59.603,97.99,66.611,106.762,66.611ZM106.762,60.309C102.477,60.309,100.007,55.922,100.007,48.259C100.007,40.646,102.527,36.26,106.762,36.26C110.997,36.26,113.569,40.596,113.569,48.259C113.569,55.922,111.048,60.309,106.762,60.309ZM152.339,104.221C161.111,104.221,166.405,97.112,166.405,85.819C166.405,74.475,161.061,67.568,152.339,67.568C143.617,67.568,138.272,74.526,138.272,85.819C138.272,97.163,143.566,104.221,152.339,104.221ZM152.339,97.919C148.053,97.919,145.583,93.533,145.583,85.819C145.583,78.257,148.104,73.87,152.339,73.87C156.573,73.87,159.094,78.206,159.094,85.819C159.094,93.533,156.624,97.919,152.339,97.919ZM103.788,104.372C105.452,105.33,107.922,105.179,109.384,103.112L156.17,35.252C157.783,32.983,156.826,30.664,155.111,29.656C153.549,28.799,151.33,29,149.717,31.269L102.931,98.877C101.267,101.246,102.124,103.364,103.788,104.372ZM103.788,104.372"/>
  <path fill-opacity="1" fill-rule="nonzero" stroke-dasharray="none" xmlns:svg="http://www.w3.org/2000/svg" stroke-width="0.015625" fill="#212121" stroke-linejoin="miter" stroke-miterlimit="4" version="1.1" stroke-linecap="butt" stroke-opacity="1" stroke="none" d="M5.385,-0C2.138,-0,0,2.138,0,5.385L0,99.304C0,102.551,2.138,104.768,5.385,104.768L89.019,104.768L89.019,93.285L13.383,93.285C11.878,93.285,11.403,92.81,11.403,91.385L11.403,13.304C11.403,11.878,11.878,11.403,13.383,11.403L153.394,11.403C154.897,11.403,155.37,11.878,155.37,13.304L155.37,24.254L166.777,24.254L166.777,5.385C166.777,2.138,164.636,-0,161.389,-0ZM5.385,-0"/>
  <path stroke-dasharray="none" xmlns:svg="http://www.w3.org/2000/svg" stroke-linecap="butt" fill-opacity="1" stroke-linejoin="miter" stroke="none" fill="#4d4d4d" stroke-miterlimit="4" stroke-width="0.015625" stroke-opacity="1" fill-rule="nonzero" version="1.1" d="M21.777,17.818C19.322,17.818,17.818,19.243,17.818,21.777L17.818,82.912C17.818,85.446,19.322,86.871,21.777,86.871L88.594,86.871L88.594,77.27C86.874,78.197,85.021,78.715,83.07,78.715C74.438,78.715,67.628,68.261,67.628,52.265C67.628,36.348,74.438,25.974,83.07,25.974C85.021,25.974,86.874,26.486,88.594,27.406L88.594,24.679L148.956,24.679L148.956,21.777C148.956,19.243,147.452,17.818,144.996,17.818ZM26.291,24.707L68.382,24.707C62.987,30.709,59.63,40.304,59.63,52.265C59.63,64.325,62.99,73.964,68.391,79.982L26.291,79.982C25.261,79.982,24.786,79.427,24.786,78.398L24.786,26.291C24.786,25.262,25.261,24.707,26.291,24.707ZM26.291,24.707"/>
</g>
  <g id="Black-M" transform="matrix(1.0,0.0,0.0,1.0,2870.0378507879063,1049.7222776939325)">  <path stroke="none" fill-opacity="1" stroke-linejoin="miter" stroke-dasharray="none" fill-rule="nonzero" stroke-miterlimit="4" stroke-width="0.015625px" xmlns:svg="http://www.w3.org/2000/svg" stroke-linecap="butt" version="1.1" fill="#000000" stroke-opacity="1" d="M82.762,51.636C89.601,51.636,93.705,46.165,93.705,37.41C93.705,28.617,89.562,23.223,82.762,23.223C76,23.223,71.858,28.656,71.858,37.41C71.858,46.204,75.961,51.636,82.762,51.636ZM82.762,46.751C79.44,46.751,77.525,43.351,77.525,37.41C77.525,31.509,79.479,28.109,82.762,28.109C86.044,28.109,88.038,31.47,88.038,37.41C88.038,43.351,86.084,46.751,82.762,46.751ZM118.092,80.791C124.892,80.791,128.996,75.281,128.996,66.526C128.996,57.733,124.853,52.379,118.092,52.379C111.331,52.379,107.188,57.772,107.188,66.526C107.188,75.32,111.292,80.791,118.092,80.791ZM118.092,75.906C114.77,75.906,112.855,72.506,112.855,66.526C112.855,60.664,114.809,57.264,118.092,57.264C121.375,57.264,123.329,60.625,123.329,66.526C123.329,72.506,121.414,75.906,118.092,75.906ZM80.456,80.909C81.745,81.651,83.66,81.534,84.794,79.932L121.062,27.327C122.313,25.568,121.57,23.771,120.241,22.989C119.03,22.324,117.31,22.481,116.06,24.239L79.791,76.649C78.502,78.486,79.166,80.127,80.456,80.909ZM80.456,80.909"/>
  <path stroke-dasharray="none" stroke-linecap="butt" fill="#212121" stroke="none" xmlns:svg="http://www.w3.org/2000/svg" version="1.1" stroke-linejoin="miter" stroke-opacity="1" stroke-width="0.015625" stroke-miterlimit="4" fill-opacity="1" fill-rule="nonzero" d="M4.174,-0C1.658,-0,0,1.657,0,4.174L0,76.98C0,79.497,1.658,81.215,4.174,81.215L69.007,81.215L69.007,72.314L10.374,72.314C9.208,72.314,8.84,71.946,8.84,70.841L8.84,10.313C8.84,9.208,9.208,8.84,10.374,8.84L118.91,8.84C120.075,8.84,120.442,9.208,120.442,10.313L120.442,18.802L129.284,18.802L129.284,4.174C129.284,1.658,127.624,-0,125.108,-0ZM4.174,-0"/>
  <path stroke-dasharray="none" xmlns:svg="http://www.w3.org/2000/svg" fill-opacity="1" stroke="none" stroke-miterlimit="4" fill="#4d4d4d" stroke-opacity="1" stroke-linecap="butt" version="1.1" stroke-width="0.015625" stroke-linejoin="miter" fill-rule="nonzero" d="M16.882,13.812C14.979,13.812,13.812,14.917,13.812,16.881L13.812,64.273C13.812,66.237,14.979,67.342,16.882,67.342L68.678,67.342L68.678,59.899C67.344,60.618,65.908,61.019,64.395,61.019C57.704,61.019,52.425,52.916,52.425,40.516C52.425,28.177,57.704,20.135,64.395,20.135C65.908,20.135,67.344,20.532,68.678,21.245L68.678,19.131L115.47,19.131L115.47,16.881C115.47,14.917,114.304,13.812,112.4,13.812ZM20.381,19.153L53.009,19.153C48.827,23.805,46.225,31.243,46.225,40.516C46.225,49.864,48.83,57.337,53.017,62.001L20.381,62.001C19.583,62.001,19.214,61.572,19.214,60.773L19.214,20.381C19.214,19.583,19.583,19.153,20.381,19.153ZM20.381,19.153"/>
</g>
  <g id="Heavy-M" transform="matrix(1.0,0.0,0.0,1.0,2573.3278507879063,1049.7222776939325)">  <path version="1.1" stroke-opacity="1" stroke-miterlimit="4" stroke-width="0.015625px" fill-opacity="1" stroke="none" fill="#000000" stroke-linecap="butt" fill-rule="nonzero" stroke-dasharray="none" xmlns:svg="http://www.w3.org/2000/svg" stroke-linejoin="miter" d="M82.762,51.636C89.601,51.636,93.705,46.165,93.705,37.41C93.705,28.617,89.562,23.223,82.762,23.223C76,23.223,71.858,28.656,71.858,37.41C71.858,46.204,75.961,51.636,82.762,51.636ZM82.762,46.751C79.44,46.751,77.525,43.351,77.525,37.41C77.525,31.509,79.479,28.109,82.762,28.109C86.044,28.109,88.038,31.47,88.038,37.41C88.038,43.351,86.084,46.751,82.762,46.751ZM118.092,80.791C124.892,80.791,128.996,75.281,128.996,66.526C128.996,57.733,124.853,52.379,118.092,52.379C111.331,52.379,107.188,57.772,107.188,66.526C107.188,75.32,111.292,80.791,118.092,80.791ZM118.092,75.906C114.77,75.906,112.855,72.506,112.855,66.526C112.855,60.664,114.809,57.264,118.092,57.264C121.375,57.264,123.329,60.625,123.329,66.526C123.329,72.506,121.414,75.906,118.092,75.906ZM80.456,80.909C81.745,81.651,83.66,81.534,84.794,79.932L121.062,27.327C122.313,25.568,121.57,23.771,120.241,22.989C119.03,22.324,117.31,22.481,116.06,24.239L79.791,76.649C78.502,78.486,79.166,80.127,80.456,80.909ZM80.456,80.909"/>
  <path stroke-linejoin="miter" stroke-dasharray="none" xmlns:svg="http://www.w3.org/2000/svg" stroke-opacity="1" stroke-width="0.015625" fill-rule="nonzero" stroke-linecap="butt" fill="#212121" version="1.1" fill-opacity="1" stroke="none" stroke-miterlimit="4" d="M4.174,-0C1.658,-0,0,1.657,0,4.174L0,76.98C0,79.497,1.658,81.215,4.174,81.215L69.007,81.215L69.007,72.314L10.374,72.314C9.208,72.314,8.84,71.946,8.84,70.841L8.84,10.313C8.84,9.208,9.208,8.84,10.374,8.84L118.91,8.84C120.075,8.84,120.442,9.208,120.442,10.313L120.442,18.802L129.284,18.802L129.284,4.174C129.284,1.658,127.624,-0,125.108,-0ZM4.174,-0"/>
  <path stroke="none" stroke-width="0.015625" fill-rule="nonzero" version="1.1" fill-opacity="1" stroke-dasharray="none" stroke-miterlimit="4" xmlns:svg="http://www.w3.org/2000/svg" stroke-opacity="1" stroke-linejoin="miter" fill="#4d4d4d" stroke-linecap="butt" d="M16.882,13.812C14.979,13.812,13.812,14.917,13.812,16.881L13.812,64.273C13.812,66.237,14.979,67.342,16.882,67.342L68.678,67.342L68.678,59.899C67.344,60.618,65.908,61.019,64.395,61.019C57.704,61.019,52.425,52.916,52.425,40.516C52.425,28.177,57.704,20.135,64.395,20.135C65.908,20.135,67.344,20.532,68.678,21.245L68.678,19.131L115.47,19.131L115.47,16.881C115.47,14.917,114.304,13.812,112.4,13.812ZM20.381,19.153L53.009,19.153C48.827,23.805,46.225,31.243,46.225,40.516C46.225,49.864,48.83,57.337,53.017,62.001L20.381,62.001C19.583,62.001,19.214,61.572,19.214,60.773L19.214,20.381C19.214,19.583,19.583,19.153,20.381,19.153ZM20.381,19.153"/>
</g>
  <g id="Bold-M" transform="matrix(1.0,0.0,0.0,1.0,2276.6178507879063,1049.7222776939325)">  <path stroke-opacity="1" version="1.1" fill-opacity="1" stroke-dasharray="none" fill="#000000" stroke="none" stroke-width="0.015625px" fill-rule="nonzero" stroke-miterlimit="4" xmlns:svg="http://www.w3.org/2000/svg" stroke-linejoin="miter" stroke-linecap="butt" d="M82.762,51.636C89.601,51.636,93.705,46.165,93.705,37.41C93.705,28.617,89.562,23.223,82.762,23.223C76,23.223,71.858,28.656,71.858,37.41C71.858,46.204,75.961,51.636,82.762,51.636ZM82.762,46.751C79.44,46.751,77.525,43.351,77.525,37.41C77.525,31.509,79.479,28.109,82.762,28.109C86.044,28.109,88.038,31.47,88.038,37.41C88.038,43.351,86.084,46.751,82.762,46.751ZM118.092,80.791C124.892,80.791,128.996,75.281,128.996,66.526C128.996,57.733,124.853,52.379,118.092,52.379C111.331,52.379,107.188,57.772,107.188,66.526C107.188,75.32,111.292,80.791,118.092,80.791ZM118.092,75.906C114.77,75.906,112.855,72.506,112.855,66.526C112.855,60.664,114.809,57.264,118.092,57.264C121.375,57.264,123.329,60.625,123.329,66.526C123.329,72.506,121.414,75.906,118.092,75.906ZM80.456,80.909C81.745,81.651,83.66,81.534,84.794,79.932L121.062,27.327C122.313,25.568,121.57,23.771,120.241,22.989C119.03,22.324,117.31,22.481,116.06,24.239L79.791,76.649C78.502,78.486,79.166,80.127,80.456,80.909ZM80.456,80.909"/>
  <path stroke-opacity="1" stroke-linecap="butt" fill-rule="nonzero" xmlns:svg="http://www.w3.org/2000/svg" stroke-dasharray="none" stroke-width="0.015625" stroke-miterlimit="4" stroke="none" fill="#212121" stroke-linejoin="miter" version="1.1" fill-opacity="1" d="M4.174,-0C1.658,-0,0,1.657,0,4.174L0,76.98C0,79.497,1.658,81.215,4.174,81.215L69.007,81.215L69.007,72.314L10.374,72.314C9.208,72.314,8.84,71.946,8.84,70.841L8.84,10.313C8.84,9.208,9.208,8.84,10.374,8.84L118.91,8.84C120.075,8.84,120.442,9.208,120.442,10.313L120.442,18.802L129.284,18.802L129.284,4.174C129.284,1.658,127.624,-0,125.108,-0ZM4.174,-0"/>
  <path stroke-linecap="butt" fill-rule="nonzero" fill="#4d4d4d" stroke-linejoin="miter" stroke="none" version="1.1" fill-opacity="1" stroke-opacity="1" stroke-miterlimit="4" stroke-dasharray="none" stroke-width="0.015625" xmlns:svg="http://www.w3.org/2000/svg" d="M16.882,13.812C14.979,13.812,13.812,14.917,13.812,16.881L13.812,64.273C13.812,66.237,14.979,67.342,16.882,67.342L68.678,67.342L68.678,59.899C67.344,60.618,65.908,61.019,64.395,61.019C57.704,61.019,52.425,52.916,52.425,40.516C52.425,28.177,57.704,20.135,64.395,20.135C65.908,20.135,67.344,20.532,68.678,21.245L68.678,19.131L115.47,19.131L115.47,16.881C115.47,14.917,114.304,13.812,112.4,13.812ZM20.381,19.153L53.009,19.153C48.827,23.805,46.225,31.243,46.225,40.516C46.225,49.864,48.83,57.337,53.017,62.001L20.381,62.001C19.583,62.001,19.214,61.572,19.214,60.773L19.214,20.381C19.214,19.583,19.583,19.153,20.381,19.153ZM20.381,19.153"/>
</g>
  <g id="Semibold-M" transform="matrix(1.0,0.0,0.0,1.0,1979.9078507879067,1049.7222776939325)">  <path stroke="none" stroke-dasharray="none" stroke-linejoin="miter" xmlns:svg="http://www.w3.org/2000/svg" fill="#000000" fill-rule="nonzero" fill-opacity="1" stroke-linecap="butt" stroke-miterlimit="4" version="1.1" stroke-width="0.015625px" stroke-opacity="1" d="M82.762,51.636C89.601,51.636,93.705,46.165,93.705,37.41C93.705,28.617,89.562,23.223,82.762,23.223C76,23.223,71.858,28.656,71.858,37.41C71.858,46.204,75.961,51.636,82.762,51.636ZM82.762,46.751C79.44,46.751,77.525,43.351,77.525,37.41C77.525,31.509,79.479,28.109,82.762,28.109C86.044,28.109,88.038,31.47,88.038,37.41C88.038,43.351,86.084,46.751,82.762,46.751ZM118.092,80.791C124.892,80.791,128.996,75.281,128.996,66.526C128.996,57.733,124.853,52.379,118.092,52.379C111.331,52.379,107.188,57.772,107.188,66.526C107.188,75.32,111.292,80.791,118.092,80.791ZM118.092,75.906C114.77,75.906,112.855,72.506,112.855,66.526C112.855,60.664,114.809,57.264,118.092,57.264C121.375,57.264,123.329,60.625,123.329,66.526C123.329,72.506,121.414,75.906,118.092,75.906ZM80.456,80.909C81.745,81.651,83.66,81.534,84.794,79.932L121.062,27.327C122.313,25.568,121.57,23.771,120.241,22.989C119.03,22.324,117.31,22.481,116.06,24.239L79.791,76.649C78.502,78.486,79.166,80.127,80.456,80.909ZM80.456,80.909"/>
  <path stroke-width="0.015625" stroke="none" stroke-linecap="butt" stroke-miterlimit="4" stroke-dasharray="none" xmlns:svg="http://www.w3.org/2000/svg" version="1.1" fill="#212121" stroke-opacity="1" fill-rule="nonzero" stroke-linejoin="miter" fill-opacity="1" d="M4.174,-0C1.658,-0,0,1.657,0,4.174L0,76.98C0,79.497,1.658,81.215,4.174,81.215L69.007,81.215L69.007,72.314L10.374,72.314C9.208,72.314,8.84,71.946,8.84,70.841L8.84,10.313C8.84,9.208,9.208,8.84,10.374,8.84L118.91,8.84C120.075,8.84,120.442,9.208,120.442,10.313L120.442,18.802L129.284,18.802L129.284,4.174C129.284,1.658,127.624,-0,125.108,-0ZM4.174,-0"/>
  <path stroke-linejoin="miter" xmlns:svg="http://www.w3.org/2000/svg" fill-opacity="1" version="1.1" stroke-opacity="1" fill="#4d4d4d" fill-rule="nonzero" stroke-miterlimit="4" stroke-dasharray="none" stroke-linecap="butt" stroke-width="0.015625" stroke="none" d="M16.882,13.812C14.979,13.812,13.812,14.917,13.812,16.881L13.812,64.273C13.812,66.237,14.979,67.342,16.882,67.342L68.678,67.342L68.678,59.899C67.344,60.618,65.908,61.019,64.395,61.019C57.704,61.019,52.425,52.916,52.425,40.516C52.425,28.177,57.704,20.135,64.395,20.135C65.908,20.135,67.344,20.532,68.678,21.245L68.678,19.131L115.47,19.131L115.47,16.881C115.47,14.917,114.304,13.812,112.4,13.812ZM20.381,19.153L53.009,19.153C48.827,23.805,46.225,31.243,46.225,40.516C46.225,49.864,48.83,57.337,53.017,62.001L20.381,62.001C19.583,62.001,19.214,61.572,19.214,60.773L19.214,20.381C19.214,19.583,19.583,19.153,20.381,19.153ZM20.381,19.153"/>
</g>
  <g id="Medium-M" transform="matrix(1.0,0.0,0.0,1.0,1683.1978507879066,1049.7222776939325)">  <path version="1.1" xmlns:svg="http://www.w3.org/2000/svg" stroke-opacity="1" stroke-linejoin="miter" stroke-linecap="butt" stroke-miterlimit="4" stroke-dasharray="none" fill-rule="nonzero" fill-opacity="1" stroke-width="0.015625px" stroke="none" fill="#000000" d="M82.762,51.636C89.601,51.636,93.705,46.165,93.705,37.41C93.705,28.617,89.562,23.223,82.762,23.223C76,23.223,71.858,28.656,71.858,37.41C71.858,46.204,75.961,51.636,82.762,51.636ZM82.762,46.751C79.44,46.751,77.525,43.351,77.525,37.41C77.525,31.509,79.479,28.109,82.762,28.109C86.044,28.109,88.038,31.47,88.038,37.41C88.038,43.351,86.084,46.751,82.762,46.751ZM118.092,80.791C124.892,80.791,128.996,75.281,128.996,66.526C128.996,57.733,124.853,52.379,118.092,52.379C111.331,52.379,107.188,57.772,107.188,66.526C107.188,75.32,111.292,80.791,118.092,80.791ZM118.092,75.906C114.77,75.906,112.855,72.506,112.855,66.526C112.855,60.664,114.809,57.264,118.092,57.264C121.375,57.264,123.329,60.625,123.329,66.526C123.329,72.506,121.414,75.906,118.092,75.906ZM80.456,80.909C81.745,81.651,83.66,81.534,84.794,79.932L121.062,27.327C122.313,25.568,121.57,23.771,120.241,22.989C119.03,22.324,117.31,22.481,116.06,24.239L79.791,76.649C78.502,78.486,79.166,80.127,80.456,80.909ZM80.456,80.909"/>
  <path version="1.1" stroke-linejoin="miter" xmlns:svg="http://www.w3.org/2000/svg" fill="#212121" fill-rule="nonzero" fill-opacity="1" stroke-miterlimit="4" stroke-width="0.015625" stroke-dasharray="none" stroke="none" stroke-linecap="butt" stroke-opacity="1" d="M4.174,-0C1.658,-0,0,1.657,0,4.174L0,76.98C0,79.497,1.658,81.215,4.174,81.215L69.007,81.215L69.007,72.314L10.374,72.314C9.208,72.314,8.84,71.946,8.84,70.841L8.84,10.313C8.84,9.208,9.208,8.84,10.374,8.84L118.91,8.84C120.075,8.84,120.442,9.208,120.442,10.313L120.442,18.802L129.284,18.802L129.284,4.174C129.284,1.658,127.624,-0,125.108,-0ZM4.174,-0"/>
  <path version="1.1" stroke-miterlimit="4" xmlns:svg="http://www.w3.org/2000/svg" stroke="none" fill-rule="nonzero" fill-opacity="1" stroke-opacity="1" stroke-dasharray="none" stroke-linecap="butt" stroke-linejoin="miter" stroke-width="0.015625" fill="#4d4d4d" d="M16.882,13.812C14.979,13.812,13.812,14.917,13.812,16.881L13.812,64.273C13.812,66.237,14.979,67.342,16.882,67.342L68.678,67.342L68.678,59.899C67.344,60.618,65.908,61.019,64.395,61.019C57.704,61.019,52.425,52.916,52.425,40.516C52.425,28.177,57.704,20.135,64.395,20.135C65.908,20.135,67.344,20.532,68.678,21.245L68.678,19.131L115.47,19.131L115.47,16.881C115.47,14.917,114.304,13.812,112.4,13.812ZM20.381,19.153L53.009,19.153C48.827,23.805,46.225,31.243,46.225,40.516C46.225,49.864,48.83,57.337,53.017,62.001L20.381,62.001C19.583,62.001,19.214,61.572,19.214,60.773L19.214,20.381C19.214,19.583,19.583,19.153,20.381,19.153ZM20.381,19.153"/>
</g>
  <g id="Regular-M" transform="matrix(1.0,0.0,0.0,1.0,1386.4878507879066,1049.7222776939325)">  <path fill-rule="nonzero" fill-opacity="1" xmlns:svg="http://www.w3.org/2000/svg" stroke-opacity="1" stroke="none" stroke-linejoin="miter" version="1.1" stroke-miterlimit="4" stroke-dasharray="none" fill="#000000" stroke-width="0.015625px" stroke-linecap="butt" d="M82.762,51.636C89.601,51.636,93.705,46.165,93.705,37.41C93.705,28.617,89.562,23.223,82.762,23.223C76,23.223,71.858,28.656,71.858,37.41C71.858,46.204,75.961,51.636,82.762,51.636ZM82.762,46.751C79.44,46.751,77.525,43.351,77.525,37.41C77.525,31.509,79.479,28.109,82.762,28.109C86.044,28.109,88.038,31.47,88.038,37.41C88.038,43.351,86.084,46.751,82.762,46.751ZM118.092,80.791C124.892,80.791,128.996,75.281,128.996,66.526C128.996,57.733,124.853,52.379,118.092,52.379C111.331,52.379,107.188,57.772,107.188,66.526C107.188,75.32,111.292,80.791,118.092,80.791ZM118.092,75.906C114.77,75.906,112.855,72.506,112.855,66.526C112.855,60.664,114.809,57.264,118.092,57.264C121.375,57.264,123.329,60.625,123.329,66.526C123.329,72.506,121.414,75.906,118.092,75.906ZM80.456,80.909C81.745,81.651,83.66,81.534,84.794,79.932L121.062,27.327C122.313,25.568,121.57,23.771,120.241,22.989C119.03,22.324,117.31,22.481,116.06,24.239L79.791,76.649C78.502,78.486,79.166,80.127,80.456,80.909ZM80.456,80.909"/>
  <path stroke="none" stroke-linecap="butt" fill="#212121" stroke-miterlimit="4" stroke-opacity="1" stroke-dasharray="none" version="1.1" fill-opacity="1" stroke-width="0.015625" stroke-linejoin="miter" xmlns:svg="http://www.w3.org/2000/svg" fill-rule="nonzero" d="M4.174,-0C1.658,-0,0,1.657,0,4.174L0,76.98C0,79.497,1.658,81.215,4.174,81.215L69.007,81.215L69.007,72.314L10.374,72.314C9.208,72.314,8.84,71.946,8.84,70.841L8.84,10.313C8.84,9.208,9.208,8.84,10.374,8.84L118.91,8.84C120.075,8.84,120.442,9.208,120.442,10.313L120.442,18.802L129.284,18.802L129.284,4.174C129.284,1.658,127.624,-0,125.108,-0ZM4.174,-0"/>
  <path stroke-linecap="butt" fill="#4d4d4d" stroke-width="0.015625" stroke-linejoin="miter" fill-opacity="1" stroke-opacity="1" stroke="none" fill-rule="nonzero" stroke-miterlimit="4" version="1.1" xmlns:svg="http://www.w3.org/2000/svg" stroke-dasharray="none" d="M16.882,13.812C14.979,13.812,13.812,14.917,13.812,16.881L13.812,64.273C13.812,66.237,14.979,67.342,16.882,67.342L68.678,67.342L68.678,59.899C67.344,60.618,65.908,61.019,64.395,61.019C57.704,61.019,52.425,52.916,52.425,40.516C52.425,28.177,57.704,20.135,64.395,20.135C65.908,20.135,67.344,20.532,68.678,21.245L68.678,19.131L115.47,19.131L115.47,16.881C115.47,14.917,114.304,13.812,112.4,13.812ZM20.381,19.153L53.009,19.153C48.827,23.805,46.225,31.243,46.225,40.516C46.225,49.864,48.83,57.337,53.017,62.001L20.381,62.001C19.583,62.001,19.214,61.572,19.214,60.773L19.214,20.381C19.214,19.583,19.583,19.153,20.381,19.153ZM20.381,19.153"/>
</g>
  <g id="Light-M" transform="matrix(1.0,0.0,0.0,1.0,1089.7778507879068,1049.7222776939325)">  <path fill-opacity="1" stroke="none" version="1.1" stroke-linejoin="miter" stroke-width="0.015625px" fill-rule="nonzero" xmlns:svg="http://www.w3.org/2000/svg" stroke-linecap="butt" stroke-dasharray="none" fill="#000000" stroke-opacity="1" stroke-miterlimit="4" d="M82.762,51.636C89.601,51.636,93.705,46.165,93.705,37.41C93.705,28.617,89.562,23.223,82.762,23.223C76,23.223,71.858,28.656,71.858,37.41C71.858,46.204,75.961,51.636,82.762,51.636ZM82.762,46.751C79.44,46.751,77.525,43.351,77.525,37.41C77.525,31.509,79.479,28.109,82.762,28.109C86.044,28.109,88.038,31.47,88.038,37.41C88.038,43.351,86.084,46.751,82.762,46.751ZM118.092,80.791C124.892,80.791,128.996,75.281,128.996,66.526C128.996,57.733,124.853,52.379,118.092,52.379C111.331,52.379,107.188,57.772,107.188,66.526C107.188,75.32,111.292,80.791,118.092,80.791ZM118.092,75.906C114.77,75.906,112.855,72.506,112.855,66.526C112.855,60.664,114.809,57.264,118.092,57.264C121.375,57.264,123.329,60.625,123.329,66.526C123.329,72.506,121.414,75.906,118.092,75.906ZM80.456,80.909C81.745,81.651,83.66,81.534,84.794,79.932L121.062,27.327C122.313,25.568,121.57,23.771,120.241,22.989C119.03,22.324,117.31,22.481,116.06,24.239L79.791,76.649C78.502,78.486,79.166,80.127,80.456,80.909ZM80.456,80.909"/>
  <path xmlns:svg="http://www.w3.org/2000/svg" fill-rule="nonzero" fill="#212121" stroke-width="0.015625" stroke="none" stroke-linejoin="miter" fill-opacity="1" stroke-opacity="1" version="1.1" stroke-miterlimit="4" stroke-dasharray="none" stroke-linecap="butt" d="M4.174,-0C1.658,-0,0,1.657,0,4.174L0,76.98C0,79.497,1.658,81.215,4.174,81.215L69.007,81.215L69.007,72.314L10.374,72.314C9.208,72.314,8.84,71.946,8.84,70.841L8.84,10.313C8.84,9.208,9.208,8.84,10.374,8.84L118.91,8.84C120.075,8.84,120.442,9.208,120.442,10.313L120.442,18.802L129.284,18.802L129.284,4.174C129.284,1.658,127.624,-0,125.108,-0ZM4.174,-0"/>
  <path fill="#4d4d4d" stroke-width="0.015625" stroke-dasharray="none" stroke-linejoin="miter" stroke-linecap="butt" stroke="none" xmlns:svg="http://www.w3.org/2000/svg" stroke-opacity="1" fill-opacity="1" fill-rule="nonzero" version="1.1" stroke-miterlimit="4" d="M16.882,13.812C14.979,13.812,13.812,14.917,13.812,16.881L13.812,64.273C13.812,66.237,14.979,67.342,16.882,67.342L68.678,67.342L68.678,59.899C67.344,60.618,65.908,61.019,64.395,61.019C57.704,61.019,52.425,52.916,52.425,40.516C52.425,28.177,57.704,20.135,64.395,20.135C65.908,20.135,67.344,20.532,68.678,21.245L68.678,19.131L115.47,19.131L115.47,16.881C115.47,14.917,114.304,13.812,112.4,13.812ZM20.381,19.153L53.009,19.153C48.827,23.805,46.225,31.243,46.225,40.516C46.225,49.864,48.83,57.337,53.017,62.001L20.381,62.001C19.583,62.001,19.214,61.572,19.214,60.773L19.214,20.381C19.214,19.583,19.583,19.153,20.381,19.153ZM20.381,19.153"/>
</g>
  <g id="Thin-M" transform="matrix(1.0,0.0,0.0,1.0,793.0678507879067,1049.7222776939325)">  <path stroke-linejoin="miter" stroke-width="0.015625px" fill-opacity="1" fill="#000000" stroke="none" stroke-opacity="1" stroke-miterlimit="4" version="1.1" stroke-linecap="butt" stroke-dasharray="none" xmlns:svg="http://www.w3.org/2000/svg" fill-rule="nonzero" d="M82.762,51.636C89.601,51.636,93.705,46.165,93.705,37.41C93.705,28.617,89.562,23.223,82.762,23.223C76,23.223,71.858,28.656,71.858,37.41C71.858,46.204,75.961,51.636,82.762,51.636ZM82.762,46.751C79.44,46.751,77.525,43.351,77.525,37.41C77.525,31.509,79.479,28.109,82.762,28.109C86.044,28.109,88.038,31.47,88.038,37.41C88.038,43.351,86.084,46.751,82.762,46.751ZM118.092,80.791C124.892,80.791,128.996,75.281,128.996,66.526C128.996,57.733,124.853,52.379,118.092,52.379C111.331,52.379,107.188,57.772,107.188,66.526C107.188,75.32,111.292,80.791,118.092,80.791ZM118.092,75.906C114.77,75.906,112.855,72.506,112.855,66.526C112.855,60.664,114.809,57.264,118.092,57.264C121.375,57.264,123.329,60.625,123.329,66.526C123.329,72.506,121.414,75.906,118.092,75.906ZM80.456,80.909C81.745,81.651,83.66,81.534,84.794,79.932L121.062,27.327C122.313,25.568,121.57,23.771,120.241,22.989C119.03,22.324,117.31,22.481,116.06,24.239L79.791,76.649C78.502,78.486,79.166,80.127,80.456,80.909ZM80.456,80.909"/>
  <path stroke-dasharray="none" stroke-linecap="butt" fill-opacity="1" fill-rule="nonzero" stroke-opacity="1" xmlns:svg="http://www.w3.org/2000/svg" stroke-linejoin="miter" stroke-width="0.015625" stroke="none" fill="#212121" version="1.1" stroke-miterlimit="4" d="M4.174,-0C1.658,-0,0,1.657,0,4.174L0,76.98C0,79.497,1.658,81.215,4.174,81.215L69.007,81.215L69.007,72.314L10.374,72.314C9.208,72.314,8.84,71.946,8.84,70.841L8.84,10.313C8.84,9.208,9.208,8.84,10.374,8.84L118.91,8.84C120.075,8.84,120.442,9.208,120.442,10.313L120.442,18.802L129.284,18.802L129.284,4.174C129.284,1.658,127.624,-0,125.108,-0ZM4.174,-0"/>
  <path stroke-width="0.015625" stroke="none" fill-opacity="1" fill-rule="nonzero" stroke-linejoin="miter" version="1.1" fill="#4d4d4d" stroke-linecap="butt" xmlns:svg="http://www.w3.org/2000/svg" stroke-opacity="1" stroke-miterlimit="4" stroke-dasharray="none" d="M16.882,13.812C14.979,13.812,13.812,14.917,13.812,16.881L13.812,64.273C13.812,66.237,14.979,67.342,16.882,67.342L68.678,67.342L68.678,59.899C67.344,60.618,65.908,61.019,64.395,61.019C57.704,61.019,52.425,52.916,52.425,40.516C52.425,28.177,57.704,20.135,64.395,20.135C65.908,20.135,67.344,20.532,68.678,21.245L68.678,19.131L115.47,19.131L115.47,16.881C115.47,14.917,114.304,13.812,112.4,13.812ZM20.381,19.153L53.009,19.153C48.827,23.805,46.225,31.243,46.225,40.516C46.225,49.864,48.83,57.337,53.017,62.001L20.381,62.001C19.583,62.001,19.214,61.572,19.214,60.773L19.214,20.381C19.214,19.583,19.583,19.153,20.381,19.153ZM20.381,19.153"/>
</g>
  <g id="Ultralight-M" transform="matrix(1.0,0.0,0.0,1.0,496.35785078790667,1049.7222776939325)">  <path stroke-linecap="butt" stroke-opacity="1" fill-rule="nonzero" stroke-miterlimit="4" stroke-width="0.015625px" stroke-linejoin="miter" xmlns:svg="http://www.w3.org/2000/svg" version="1.1" fill="#000000" fill-opacity="1" stroke="none" stroke-dasharray="none" d="M82.762,51.636C89.601,51.636,93.705,46.165,93.705,37.41C93.705,28.617,89.562,23.223,82.762,23.223C76,23.223,71.858,28.656,71.858,37.41C71.858,46.204,75.961,51.636,82.762,51.636ZM82.762,46.751C79.44,46.751,77.525,43.351,77.525,37.41C77.525,31.509,79.479,28.109,82.762,28.109C86.044,28.109,88.038,31.47,88.038,37.41C88.038,43.351,86.084,46.751,82.762,46.751ZM118.092,80.791C124.892,80.791,128.996,75.281,128.996,66.526C128.996,57.733,124.853,52.379,118.092,52.379C111.331,52.379,107.188,57.772,107.188,66.526C107.188,75.32,111.292,80.791,118.092,80.791ZM118.092,75.906C114.77,75.906,112.855,72.506,112.855,66.526C112.855,60.664,114.809,57.264,118.092,57.264C121.375,57.264,123.329,60.625,123.329,66.526C123.329,72.506,121.414,75.906,118.092,75.906ZM80.456,80.909C81.745,81.651,83.66,81.534,84.794,79.932L121.062,27.327C122.313,25.568,121.57,23.771,120.241,22.989C119.03,22.324,117.31,22.481,116.06,24.239L79.791,76.649C78.502,78.486,79.166,80.127,80.456,80.909ZM80.456,80.909"/>
  <path fill-opacity="1" fill-rule="nonzero" stroke-dasharray="none" xmlns:svg="http://www.w3.org/2000/svg" stroke-width="0.015625" fill="#212121" stroke-linejoin="miter" stroke-miterlimit="4" version="1.1" stroke-linecap="butt" stroke-opacity="1" stroke="none" d="M4.174,-0C1.658,-0,0,1.657,0,4.174L0,76.98C0,79.497,1.658,81.215,4.174,81.215L69.007,81.215L69.007,72.314L10.374,72.314C9.208,72.314,8.84,71.946,8.84,70.841L8.84,10.313C8.84,9.208,9.208,8.84,10.374,8.84L118.91,8.84C120.075,8.84,120.442,9.208,120.442,10.313L120.442,18.802L129.284,18.802L129.284,4.174C129.284,1.658,127.624,-0,125.108,-0ZM4.174,-0"/>
  <path stroke-dasharray="none" xmlns:svg="http://www.w3.org/2000/svg" stroke-linecap="butt" fill-opacity="1" stroke-linejoin="miter" stroke="none" fill="#4d4d4d" stroke-miterlimit="4" stroke-width="0.015625" stroke-opacity="1" fill-rule="nonzero" version="1.1" d="M16.882,13.812C14.979,13.812,13.812,14.917,13.812,16.881L13.812,64.273C13.812,66.237,14.979,67.342,16.882,67.342L68.678,67.342L68.678,59.899C67.344,60.618,65.908,61.019,64.395,61.019C57.704,61.019,52.425,52.916,52.425,40.516C52.425,28.177,57.704,20.135,64.395,20.135C65.908,20.135,67.344,20.532,68.678,21.245L68.678,19.131L115.47,19.131L115.47,16.881C115.47,14.917,114.304,13.812,112.4,13.812ZM20.381,19.153L53.009,19.153C48.827,23.805,46.225,31.243,46.225,40.516C46.225,49.864,48.83,57.337,53.017,62.001L20.381,62.001C19.583,62.001,19.214,61.572,19.214,60.773L19.214,20.381C19.214,19.583,19.583,19.153,20.381,19.153ZM20.381,19.153"/>
</g>
  <g id="Black-S" transform="matrix(1.0,0.0,0.0,1.0,2884.065197166931,628.6296376726305)">  <path stroke="none" fill-opacity="1" stroke-linejoin="miter" stroke-dasharray="none" fill-rule="nonzero" stroke-miterlimit="4" stroke-width="0.015625px" xmlns:svg="http://www.w3.org/2000/svg" stroke-linecap="butt" version="1.1" fill="#000000" stroke-opacity="1" d="M64.802,40.431C70.158,40.431,73.371,36.147,73.371,29.292C73.371,22.407,70.127,18.184,64.802,18.184C59.508,18.184,56.265,22.437,56.265,29.292C56.265,36.177,59.478,40.431,64.802,40.431ZM64.802,36.606C62.201,36.606,60.702,33.944,60.702,29.292C60.702,24.671,62.232,22.009,64.802,22.009C67.373,22.009,68.934,24.641,68.934,29.292C68.934,33.944,67.403,36.606,64.802,36.606ZM92.466,63.26C97.791,63.26,101.004,58.945,101.004,52.09C101.004,45.205,97.76,41.013,92.466,41.013C87.172,41.013,83.928,45.235,83.928,52.09C83.928,58.975,87.141,63.26,92.466,63.26ZM92.466,59.434C89.865,59.434,88.365,56.772,88.365,52.09C88.365,47.5,89.895,44.838,92.466,44.838C95.036,44.838,96.567,47.469,96.567,52.09C96.567,56.772,95.067,59.434,92.466,59.434ZM62.997,63.351C64.007,63.933,65.506,63.841,66.394,62.586L94.792,21.397C95.771,20.02,95.189,18.612,94.149,18C93.2,17.48,91.854,17.602,90.875,18.98L62.477,60.016C61.467,61.454,61.987,62.739,62.997,63.351ZM62.997,63.351"/>
  <path stroke-dasharray="none" stroke-linecap="butt" fill="#212121" stroke="none" xmlns:svg="http://www.w3.org/2000/svg" version="1.1" stroke-linejoin="miter" stroke-opacity="1" stroke-width="0.015625" stroke-miterlimit="4" fill-opacity="1" fill-rule="nonzero" d="M3.269,-0C1.298,-0,0,1.298,0,3.268L0,60.275C0,62.246,1.298,63.592,3.269,63.592L54.032,63.592L54.032,56.622L8.123,56.622C7.21,56.622,6.922,56.334,6.922,55.469L6.922,8.075C6.922,7.21,7.21,6.922,8.123,6.922L93.106,6.922C94.019,6.922,94.306,7.21,94.306,8.075L94.306,14.722L101.23,14.722L101.23,3.268C101.23,1.298,99.93,-0,97.959,-0ZM3.269,-0"/>
  <path stroke-dasharray="none" xmlns:svg="http://www.w3.org/2000/svg" fill-opacity="1" stroke="none" stroke-miterlimit="4" fill="#4d4d4d" stroke-opacity="1" stroke-linecap="butt" version="1.1" stroke-width="0.015625" stroke-linejoin="miter" fill-rule="nonzero" d="M13.218,10.815C11.728,10.815,10.815,11.68,10.815,13.218L10.815,50.325C10.815,51.863,11.728,52.729,13.218,52.729L53.775,52.729L53.775,46.901C52.73,47.464,51.606,47.778,50.422,47.778C45.182,47.778,41.049,41.433,41.049,31.724C41.049,22.062,45.182,15.766,50.422,15.766C51.606,15.766,52.73,16.076,53.775,16.635L53.775,14.979L90.413,14.979L90.413,13.218C90.413,11.68,89.5,10.815,88.009,10.815ZM15.958,14.997L41.506,14.997C38.231,18.64,36.194,24.464,36.194,31.724C36.194,39.044,38.234,44.895,41.512,48.547L15.958,48.547C15.333,48.547,15.045,48.211,15.045,47.586L15.045,15.958C15.045,15.333,15.333,14.997,15.958,14.997ZM15.958,14.997"/>
</g>
  <g id="Heavy-S" transform="matrix(1.0,0.0,0.0,1.0,2587.355197166931,628.6296376726305)">  <path version="1.1" stroke-opacity="1" stroke-miterlimit="4" stroke-width="0.015625px" fill-opacity="1" stroke="none" fill="#000000" stroke-linecap="butt" fill-rule="nonzero" stroke-dasharray="none" xmlns:svg="http://www.w3.org/2000/svg" stroke-linejoin="miter" d="M64.802,40.431C70.158,40.431,73.371,36.147,73.371,29.292C73.371,22.407,70.127,18.184,64.802,18.184C59.508,18.184,56.265,22.437,56.265,29.292C56.265,36.177,59.478,40.431,64.802,40.431ZM64.802,36.606C62.201,36.606,60.702,33.944,60.702,29.292C60.702,24.671,62.232,22.009,64.802,22.009C67.373,22.009,68.934,24.641,68.934,29.292C68.934,33.944,67.403,36.606,64.802,36.606ZM92.466,63.26C97.791,63.26,101.004,58.945,101.004,52.09C101.004,45.205,97.76,41.013,92.466,41.013C87.172,41.013,83.928,45.235,83.928,52.09C83.928,58.975,87.141,63.26,92.466,63.26ZM92.466,59.434C89.865,59.434,88.365,56.772,88.365,52.09C88.365,47.5,89.895,44.838,92.466,44.838C95.036,44.838,96.567,47.469,96.567,52.09C96.567,56.772,95.067,59.434,92.466,59.434ZM62.997,63.351C64.007,63.933,65.506,63.841,66.394,62.586L94.792,21.397C95.771,20.02,95.189,18.612,94.149,18C93.2,17.48,91.854,17.602,90.875,18.98L62.477,60.016C61.467,61.454,61.987,62.739,62.997,63.351ZM62.997,63.351"/>
  <path stroke-linejoin="miter" stroke-dasharray="none" xmlns:svg="http://www.w3.org/2000/svg" stroke-opacity="1" stroke-width="0.015625" fill-rule="nonzero" stroke-linecap="butt" fill="#212121" version="1.1" fill-opacity="1" stroke="none" stroke-miterlimit="4" d="M3.269,-0C1.298,-0,0,1.298,0,3.268L0,60.275C0,62.246,1.298,63.592,3.269,63.592L54.032,63.592L54.032,56.622L8.123,56.622C7.21,56.622,6.922,56.334,6.922,55.469L6.922,8.075C6.922,7.21,7.21,6.922,8.123,6.922L93.106,6.922C94.019,6.922,94.306,7.21,94.306,8.075L94.306,14.722L101.23,14.722L101.23,3.268C101.23,1.298,99.93,-0,97.959,-0ZM3.269,-0"/>
  <path stroke="none" stroke-width="0.015625" fill-rule="nonzero" version="1.1" fill-opacity="1" stroke-dasharray="none" stroke-miterlimit="4" xmlns:svg="http://www.w3.org/2000/svg" stroke-opacity="1" stroke-linejoin="miter" fill="#4d4d4d" stroke-linecap="butt" d="M13.218,10.815C11.728,10.815,10.815,11.68,10.815,13.218L10.815,50.325C10.815,51.863,11.728,52.729,13.218,52.729L53.775,52.729L53.775,46.901C52.73,47.464,51.606,47.778,50.422,47.778C45.182,47.778,41.049,41.433,41.049,31.724C41.049,22.062,45.182,15.766,50.422,15.766C51.606,15.766,52.73,16.076,53.775,16.635L53.775,14.979L90.413,14.979L90.413,13.218C90.413,11.68,89.5,10.815,88.009,10.815ZM15.958,14.997L41.506,14.997C38.231,18.64,36.194,24.464,36.194,31.724C36.194,39.044,38.234,44.895,41.512,48.547L15.958,48.547C15.333,48.547,15.045,48.211,15.045,47.586L15.045,15.958C15.045,15.333,15.333,14.997,15.958,14.997ZM15.958,14.997"/>
</g>
  <g id="Bold-S" transform="matrix(1.0,0.0,0.0,1.0,2290.6451971669308,628.6296376726305)">  <path stroke-opacity="1" version="1.1" fill-opacity="1" stroke-dasharray="none" fill="#000000" stroke="none" stroke-width="0.015625px" fill-rule="nonzero" stroke-miterlimit="4" xmlns:svg="http://www.w3.org/2000/svg" stroke-linejoin="miter" stroke-linecap="butt" d="M64.802,40.431C70.158,40.431,73.371,36.147,73.371,29.292C73.371,22.407,70.127,18.184,64.802,18.184C59.508,18.184,56.265,22.437,56.265,29.292C56.265,36.177,59.478,40.431,64.802,40.431ZM64.802,36.606C62.201,36.606,60.702,33.944,60.702,29.292C60.702,24.671,62.232,22.009,64.802,22.009C67.373,22.009,68.934,24.641,68.934,29.292C68.934,33.944,67.403,36.606,64.802,36.606ZM92.466,63.26C97.791,63.26,101.004,58.945,101.004,52.09C101.004,45.205,97.76,41.013,92.466,41.013C87.172,41.013,83.928,45.235,83.928,52.09C83.928,58.975,87.141,63.26,92.466,63.26ZM92.466,59.434C89.865,59.434,88.365,56.772,88.365,52.09C88.365,47.5,89.895,44.838,92.466,44.838C95.036,44.838,96.567,47.469,96.567,52.09C96.567,56.772,95.067,59.434,92.466,59.434ZM62.997,63.351C64.007,63.933,65.506,63.841,66.394,62.586L94.792,21.397C95.771,20.02,95.189,18.612,94.149,18C93.2,17.48,91.854,17.602,90.875,18.98L62.477,60.016C61.467,61.454,61.987,62.739,62.997,63.351ZM62.997,63.351"/>
  <path stroke-opacity="1" stroke-linecap="butt" fill-rule="nonzero" xmlns:svg="http://www.w3.org/2000/svg" stroke-dasharray="none" stroke-width="0.015625" stroke-miterlimit="4" stroke="none" fill="#212121" stroke-linejoin="miter" version="1.1" fill-opacity="1" d="M3.269,-0C1.298,-0,0,1.298,0,3.268L0,60.275C0,62.246,1.298,63.592,3.269,63.592L54.032,63.592L54.032,56.622L8.123,56.622C7.21,56.622,6.922,56.334,6.922,55.469L6.922,8.075C6.922,7.21,7.21,6.922,8.123,6.922L93.106,6.922C94.019,6.922,94.306,7.21,94.306,8.075L94.306,14.722L101.23,14.722L101.23,3.268C101.23,1.298,99.93,-0,97.959,-0ZM3.269,-0"/>
  <path stroke-linecap="butt" fill-rule="nonzero" fill="#4d4d4d" stroke-linejoin="miter" stroke="none" version="1.1" fill-opacity="1" stroke-opacity="1" stroke-miterlimit="4" stroke-dasharray="none" stroke-width="0.015625" xmlns:svg="http://www.w3.org/2000/svg" d="M13.218,10.815C11.728,10.815,10.815,11.68,10.815,13.218L10.815,50.325C10.815,51.863,11.728,52.729,13.218,52.729L53.775,52.729L53.775,46.901C52.73,47.464,51.606,47.778,50.422,47.778C45.182,47.778,41.049,41.433,41.049,31.724C41.049,22.062,45.182,15.766,50.422,15.766C51.606,15.766,52.73,16.076,53.775,16.635L53.775,14.979L90.413,14.979L90.413,13.218C90.413,11.68,89.5,10.815,88.009,10.815ZM15.958,14.997L41.506,14.997C38.231,18.64,36.194,24.464,36.194,31.724C36.194,39.044,38.234,44.895,41.512,48.547L15.958,48.547C15.333,48.547,15.045,48.211,15.045,47.586L15.045,15.958C15.045,15.333,15.333,14.997,15.958,14.997ZM15.958,14.997"/>
</g>
  <g id="Semibold-S" transform="matrix(1.0,0.0,0.0,1.0,1993.935197166931,628.6296376726305)">  <path stroke="none" stroke-dasharray="none" stroke-linejoin="miter" xmlns:svg="http://www.w3.org/2000/svg" fill="#000000" fill-rule="nonzero" fill-opacity="1" stroke-linecap="butt" stroke-miterlimit="4" version="1.1" stroke-width="0.015625px" stroke-opacity="1" d="M64.802,40.431C70.158,40.431,73.371,36.147,73.371,29.292C73.371,22.407,70.127,18.184,64.802,18.184C59.508,18.184,56.265,22.437,56.265,29.292C56.265,36.177,59.478,40.431,64.802,40.431ZM64.802,36.606C62.201,36.606,60.702,33.944,60.702,29.292C60.702,24.671,62.232,22.009,64.802,22.009C67.373,22.009,68.934,24.641,68.934,29.292C68.934,33.944,67.403,36.606,64.802,36.606ZM92.466,63.26C97.791,63.26,101.004,58.945,101.004,52.09C101.004,45.205,97.76,41.013,92.466,41.013C87.172,41.013,83.928,45.235,83.928,52.09C83.928,58.975,87.141,63.26,92.466,63.26ZM92.466,59.434C89.865,59.434,88.365,56.772,88.365,52.09C88.365,47.5,89.895,44.838,92.466,44.838C95.036,44.838,96.567,47.469,96.567,52.09C96.567,56.772,95.067,59.434,92.466,59.434ZM62.997,63.351C64.007,63.933,65.506,63.841,66.394,62.586L94.792,21.397C95.771,20.02,95.189,18.612,94.149,18C93.2,17.48,91.854,17.602,90.875,18.98L62.477,60.016C61.467,61.454,61.987,62.739,62.997,63.351ZM62.997,63.351"/>
  <path stroke-width="0.015625" stroke="none" stroke-linecap="butt" stroke-miterlimit="4" stroke-dasharray="none" xmlns:svg="http://www.w3.org/2000/svg" version="1.1" fill="#212121" stroke-opacity="1" fill-rule="nonzero" stroke-linejoin="miter" fill-opacity="1" d="M3.269,-0C1.298,-0,0,1.298,0,3.268L0,60.275C0,62.246,1.298,63.592,3.269,63.592L54.032,63.592L54.032,56.622L8.123,56.622C7.21,56.622,6.922,56.334,6.922,55.469L6.922,8.075C6.922,7.21,7.21,6.922,8.123,6.922L93.106,6.922C94.019,6.922,94.306,7.21,94.306,8.075L94.306,14.722L101.23,14.722L101.23,3.268C101.23,1.298,99.93,-0,97.959,-0ZM3.269,-0"/>
  <path stroke-linejoin="miter" xmlns:svg="http://www.w3.org/2000/svg" fill-opacity="1" version="1.1" stroke-opacity="1" fill="#4d4d4d" fill-rule="nonzero" stroke-miterlimit="4" stroke-dasharray="none" stroke-linecap="butt" stroke-width="0.015625" stroke="none" d="M13.218,10.815C11.728,10.815,10.815,11.68,10.815,13.218L10.815,50.325C10.815,51.863,11.728,52.729,13.218,52.729L53.775,52.729L53.775,46.901C52.73,47.464,51.606,47.778,50.422,47.778C45.182,47.778,41.049,41.433,41.049,31.724C41.049,22.062,45.182,15.766,50.422,15.766C51.606,15.766,52.73,16.076,53.775,16.635L53.775,14.979L90.413,14.979L90.413,13.218C90.413,11.68,89.5,10.815,88.009,10.815ZM15.958,14.997L41.506,14.997C38.231,18.64,36.194,24.464,36.194,31.724C36.194,39.044,38.234,44.895,41.512,48.547L15.958,48.547C15.333,48.547,15.045,48.211,15.045,47.586L15.045,15.958C15.045,15.333,15.333,14.997,15.958,14.997ZM15.958,14.997"/>
</g>
  <g id="Medium-S" transform="matrix(1.0,0.0,0.0,1.0,1697.225197166931,628.6296376726305)">  <path version="1.1" xmlns:svg="http://www.w3.org/2000/svg" stroke-opacity="1" stroke-linejoin="miter" stroke-linecap="butt" stroke-miterlimit="4" stroke-dasharray="none" fill-rule="nonzero" fill-opacity="1" stroke-width="0.015625px" stroke="none" fill="#000000" d="M64.802,40.431C70.158,40.431,73.371,36.147,73.371,29.292C73.371,22.407,70.127,18.184,64.802,18.184C59.508,18.184,56.265,22.437,56.265,29.292C56.265,36.177,59.478,40.431,64.802,40.431ZM64.802,36.606C62.201,36.606,60.702,33.944,60.702,29.292C60.702,24.671,62.232,22.009,64.802,22.009C67.373,22.009,68.934,24.641,68.934,29.292C68.934,33.944,67.403,36.606,64.802,36.606ZM92.466,63.26C97.791,63.26,101.004,58.945,101.004,52.09C101.004,45.205,97.76,41.013,92.466,41.013C87.172,41.013,83.928,45.235,83.928,52.09C83.928,58.975,87.141,63.26,92.466,63.26ZM92.466,59.434C89.865,59.434,88.365,56.772,88.365,52.09C88.365,47.5,89.895,44.838,92.466,44.838C95.036,44.838,96.567,47.469,96.567,52.09C96.567,56.772,95.067,59.434,92.466,59.434ZM62.997,63.351C64.007,63.933,65.506,63.841,66.394,62.586L94.792,21.397C95.771,20.02,95.189,18.612,94.149,18C93.2,17.48,91.854,17.602,90.875,18.98L62.477,60.016C61.467,61.454,61.987,62.739,62.997,63.351ZM62.997,63.351"/>
  <path version="1.1" stroke-linejoin="miter" xmlns:svg="http://www.w3.org/2000/svg" fill="#212121" fill-rule="nonzero" fill-opacity="1" stroke-miterlimit="4" stroke-width="0.015625" stroke-dasharray="none" stroke="none" stroke-linecap="butt" stroke-opacity="1" d="M3.269,-0C1.298,-0,0,1.298,0,3.268L0,60.275C0,62.246,1.298,63.592,3.269,63.592L54.032,63.592L54.032,56.622L8.123,56.622C7.21,56.622,6.922,56.334,6.922,55.469L6.922,8.075C6.922,7.21,7.21,6.922,8.123,6.922L93.106,6.922C94.019,6.922,94.306,7.21,94.306,8.075L94.306,14.722L101.23,14.722L101.23,3.268C101.23,1.298,99.93,-0,97.959,-0ZM3.269,-0"/>
  <path version="1.1" stroke-miterlimit="4" xmlns:svg="http://www.w3.org/2000/svg" stroke="none" fill-rule="nonzero" fill-opacity="1" stroke-opacity="1" stroke-dasharray="none" stroke-linecap="butt" stroke-linejoin="miter" stroke-width="0.015625" fill="#4d4d4d" d="M13.218,10.815C11.728,10.815,10.815,11.68,10.815,13.218L10.815,50.325C10.815,51.863,11.728,52.729,13.218,52.729L53.775,52.729L53.775,46.901C52.73,47.464,51.606,47.778,50.422,47.778C45.182,47.778,41.049,41.433,41.049,31.724C41.049,22.062,45.182,15.766,50.422,15.766C51.606,15.766,52.73,16.076,53.775,16.635L53.775,14.979L90.413,14.979L90.413,13.218C90.413,11.68,89.5,10.815,88.009,10.815ZM15.958,14.997L41.506,14.997C38.231,18.64,36.194,24.464,36.194,31.724C36.194,39.044,38.234,44.895,41.512,48.547L15.958,48.547C15.333,48.547,15.045,48.211,15.045,47.586L15.045,15.958C15.045,15.333,15.333,14.997,15.958,14.997ZM15.958,14.997"/>
</g>
  <g id="Regular-S" transform="matrix(1.0,0.0,0.0,1.0,1400.5151971669309,628.6296376726305)">  <path fill-rule="nonzero" fill-opacity="1" xmlns:svg="http://www.w3.org/2000/svg" stroke-opacity="1" stroke="none" stroke-linejoin="miter" version="1.1" stroke-miterlimit="4" stroke-dasharray="none" fill="#000000" stroke-width="0.015625px" stroke-linecap="butt" d="M64.802,40.431C70.158,40.431,73.371,36.147,73.371,29.292C73.371,22.407,70.127,18.184,64.802,18.184C59.508,18.184,56.265,22.437,56.265,29.292C56.265,36.177,59.478,40.431,64.802,40.431ZM64.802,36.606C62.201,36.606,60.702,33.944,60.702,29.292C60.702,24.671,62.232,22.009,64.802,22.009C67.373,22.009,68.934,24.641,68.934,29.292C68.934,33.944,67.403,36.606,64.802,36.606ZM92.466,63.26C97.791,63.26,101.004,58.945,101.004,52.09C101.004,45.205,97.76,41.013,92.466,41.013C87.172,41.013,83.928,45.235,83.928,52.09C83.928,58.975,87.141,63.26,92.466,63.26ZM92.466,59.434C89.865,59.434,88.365,56.772,88.365,52.09C88.365,47.5,89.895,44.838,92.466,44.838C95.036,44.838,96.567,47.469,96.567,52.09C96.567,56.772,95.067,59.434,92.466,59.434ZM62.997,63.351C64.007,63.933,65.506,63.841,66.394,62.586L94.792,21.397C95.771,20.02,95.189,18.612,94.149,18C93.2,17.48,91.854,17.602,90.875,18.98L62.477,60.016C61.467,61.454,61.987,62.739,62.997,63.351ZM62.997,63.351"/>
  <path stroke="none" stroke-linecap="butt" fill="#212121" stroke-miterlimit="4" stroke-opacity="1" stroke-dasharray="none" version="1.1" fill-opacity="1" stroke-width="0.015625" stroke-linejoin="miter" xmlns:svg="http://www.w3.org/2000/svg" fill-rule="nonzero" d="M3.269,-0C1.298,-0,0,1.298,0,3.268L0,60.275C0,62.246,1.298,63.592,3.269,63.592L54.032,63.592L54.032,56.622L8.123,56.622C7.21,56.622,6.922,56.334,6.922,55.469L6.922,8.075C6.922,7.21,7.21,6.922,8.123,6.922L93.106,6.922C94.019,6.922,94.306,7.21,94.306,8.075L94.306,14.722L101.23,14.722L101.23,3.268C101.23,1.298,99.93,-0,97.959,-0ZM3.269,-0"/>
  <path stroke-linecap="butt" fill="#4d4d4d" stroke-width="0.015625" stroke-linejoin="miter" fill-opacity="1" stroke-opacity="1" stroke="none" fill-rule="nonzero" stroke-miterlimit="4" version="1.1" xmlns:svg="http://www.w3.org/2000/svg" stroke-dasharray="none" d="M13.218,10.815C11.728,10.815,10.815,11.68,10.815,13.218L10.815,50.325C10.815,51.863,11.728,52.729,13.218,52.729L53.775,52.729L53.775,46.901C52.73,47.464,51.606,47.778,50.422,47.778C45.182,47.778,41.049,41.433,41.049,31.724C41.049,22.062,45.182,15.766,50.422,15.766C51.606,15.766,52.73,16.076,53.775,16.635L53.775,14.979L90.413,14.979L90.413,13.218C90.413,11.68,89.5,10.815,88.009,10.815ZM15.958,14.997L41.506,14.997C38.231,18.64,36.194,24.464,36.194,31.724C36.194,39.044,38.234,44.895,41.512,48.547L15.958,48.547C15.333,48.547,15.045,48.211,15.045,47.586L15.045,15.958C15.045,15.333,15.333,14.997,15.958,14.997ZM15.958,14.997"/>
</g>
  <g id="Light-S" transform="matrix(1.0,0.0,0.0,1.0,1103.805197166931,628.6296376726305)">  <path fill-opacity="1" stroke="none" version="1.1" stroke-linejoin="miter" stroke-width="0.015625px" fill-rule="nonzero" xmlns:svg="http://www.w3.org/2000/svg" stroke-linecap="butt" stroke-dasharray="none" fill="#000000" stroke-opacity="1" stroke-miterlimit="4" d="M64.802,40.431C70.158,40.431,73.371,36.147,73.371,29.292C73.371,22.407,70.127,18.184,64.802,18.184C59.508,18.184,56.265,22.437,56.265,29.292C56.265,36.177,59.478,40.431,64.802,40.431ZM64.802,36.606C62.201,36.606,60.702,33.944,60.702,29.292C60.702,24.671,62.232,22.009,64.802,22.009C67.373,22.009,68.934,24.641,68.934,29.292C68.934,33.944,67.403,36.606,64.802,36.606ZM92.466,63.26C97.791,63.26,101.004,58.945,101.004,52.09C101.004,45.205,97.76,41.013,92.466,41.013C87.172,41.013,83.928,45.235,83.928,52.09C83.928,58.975,87.141,63.26,92.466,63.26ZM92.466,59.434C89.865,59.434,88.365,56.772,88.365,52.09C88.365,47.5,89.895,44.838,92.466,44.838C95.036,44.838,96.567,47.469,96.567,52.09C96.567,56.772,95.067,59.434,92.466,59.434ZM62.997,63.351C64.007,63.933,65.506,63.841,66.394,62.586L94.792,21.397C95.771,20.02,95.189,18.612,94.149,18C93.2,17.48,91.854,17.602,90.875,18.98L62.477,60.016C61.467,61.454,61.987,62.739,62.997,63.351ZM62.997,63.351"/>
  <path xmlns:svg="http://www.w3.org/2000/svg" fill-rule="nonzero" fill="#212121" stroke-width="0.015625" stroke="none" stroke-linejoin="miter" fill-opacity="1" stroke-opacity="1" version="1.1" stroke-miterlimit="4" stroke-dasharray="none" stroke-linecap="butt" d="M3.269,-0C1.298,-0,0,1.298,0,3.268L0,60.275C0,62.246,1.298,63.592,3.269,63.592L54.032,63.592L54.032,56.622L8.123,56.622C7.21,56.622,6.922,56.334,6.922,55.469L6.922,8.075C6.922,7.21,7.21,6.922,8.123,6.922L93.106,6.922C94.019,6.922,94.306,7.21,94.306,8.075L94.306,14.722L101.23,14.722L101.23,3.268C101.23,1.298,99.93,-0,97.959,-0ZM3.269,-0"/>
  <path fill="#4d4d4d" stroke-width="0.015625" stroke-dasharray="none" stroke-linejoin="miter" stroke-linecap="butt" stroke="none" xmlns:svg="http://www.w3.org/2000/svg" stroke-opacity="1" fill-opacity="1" fill-rule="nonzero" version="1.1" stroke-miterlimit="4" d="M13.218,10.815C11.728,10.815,10.815,11.68,10.815,13.218L10.815,50.325C10.815,51.863,11.728,52.729,13.218,52.729L53.775,52.729L53.775,46.901C52.73,47.464,51.606,47.778,50.422,47.778C45.182,47.778,41.049,41.433,41.049,31.724C41.049,22.062,45.182,15.766,50.422,15.766C51.606,15.766,52.73,16.076,53.775,16.635L53.775,14.979L90.413,14.979L90.413,13.218C90.413,11.68,89.5,10.815,88.009,10.815ZM15.958,14.997L41.506,14.997C38.231,18.64,36.194,24.464,36.194,31.724C36.194,39.044,38.234,44.895,41.512,48.547L15.958,48.547C15.333,48.547,15.045,48.211,15.045,47.586L15.045,15.958C15.045,15.333,15.333,14.997,15.958,14.997ZM15.958,14.997"/>
</g>
  <g id="Thin-S" transform="matrix(1.0,0.0,0.0,1.0,807.0951971669309,628.6296376726305)">  <path stroke-linejoin="miter" stroke-width="0.015625px" fill-opacity="1" fill="#000000" stroke="none" stroke-opacity="1" stroke-miterlimit="4" version="1.1" stroke-linecap="butt" stroke-dasharray="none" xmlns:svg="http://www.w3.org/2000/svg" fill-rule="nonzero" d="M64.802,40.431C70.158,40.431,73.371,36.147,73.371,29.292C73.371,22.407,70.127,18.184,64.802,18.184C59.508,18.184,56.265,22.437,56.265,29.292C56.265,36.177,59.478,40.431,64.802,40.431ZM64.802,36.606C62.201,36.606,60.702,33.944,60.702,29.292C60.702,24.671,62.232,22.009,64.802,22.009C67.373,22.009,68.934,24.641,68.934,29.292C68.934,33.944,67.403,36.606,64.802,36.606ZM92.466,63.26C97.791,63.26,101.004,58.945,101.004,52.09C101.004,45.205,97.76,41.013,92.466,41.013C87.172,41.013,83.928,45.235,83.928,52.09C83.928,58.975,87.141,63.26,92.466,63.26ZM92.466,59.434C89.865,59.434,88.365,56.772,88.365,52.09C88.365,47.5,89.895,44.838,92.466,44.838C95.036,44.838,96.567,47.469,96.567,52.09C96.567,56.772,95.067,59.434,92.466,59.434ZM62.997,63.351C64.007,63.933,65.506,63.841,66.394,62.586L94.792,21.397C95.771,20.02,95.189,18.612,94.149,18C93.2,17.48,91.854,17.602,90.875,18.98L62.477,60.016C61.467,61.454,61.987,62.739,62.997,63.351ZM62.997,63.351"/>
  <path stroke-dasharray="none" stroke-linecap="butt" fill-opacity="1" fill-rule="nonzero" stroke-opacity="1" xmlns:svg="http://www.w3.org/2000/svg" stroke-linejoin="miter" stroke-width="0.015625" stroke="none" fill="#212121" version="1.1" stroke-miterlimit="4" d="M3.269,-0C1.298,-0,0,1.298,0,3.268L0,60.275C0,62.246,1.298,63.592,3.269,63.592L54.032,63.592L54.032,56.622L8.123,56.622C7.21,56.622,6.922,56.334,6.922,55.469L6.922,8.075C6.922,7.21,7.21,6.922,8.123,6.922L93.106,6.922C94.019,6.922,94.306,7.21,94.306,8.075L94.306,14.722L101.23,14.722L101.23,3.268C101.23,1.298,99.93,-0,97.959,-0ZM3.269,-0"/>
  <path stroke-width="0.015625" stroke="none" fill-opacity="1" fill-rule="nonzero" stroke-linejoin="miter" version="1.1" fill="#4d4d4d" stroke-linecap="butt" xmlns:svg="http://www.w3.org/2000/svg" stroke-opacity="1" stroke-miterlimit="4" stroke-dasharray="none" d="M13.218,10.815C11.728,10.815,10.815,11.68,10.815,13.218L10.815,50.325C10.815,51.863,11.728,52.729,13.218,52.729L53.775,52.729L53.775,46.901C52.73,47.464,51.606,47.778,50.422,47.778C45.182,47.778,41.049,41.433,41.049,31.724C41.049,22.062,45.182,15.766,50.422,15.766C51.606,15.766,52.73,16.076,53.775,16.635L53.775,14.979L90.413,14.979L90.413,13.218C90.413,11.68,89.5,10.815,88.009,10.815ZM15.958,14.997L41.506,14.997C38.231,18.64,36.194,24.464,36.194,31.724C36.194,39.044,38.234,44.895,41.512,48.547L15.958,48.547C15.333,48.547,15.045,48.211,15.045,47.586L15.045,15.958C15.045,15.333,15.333,14.997,15.958,14.997ZM15.958,14.997"/>
</g>
  <g id="Ultralight-S" transform="matrix(1.0,0.0,0.0,1.0,510.3851971669309,628.6296376726305)">  <path stroke-linecap="butt" stroke-opacity="1" fill-rule="nonzero" stroke-miterlimit="4" stroke-width="0.015625px" stroke-linejoin="miter" xmlns:svg="http://www.w3.org/2000/svg" version="1.1" fill="#000000" fill-opacity="1" stroke="none" stroke-dasharray="none" d="M64.802,40.431C70.158,40.431,73.371,36.147,73.371,29.292C73.371,22.407,70.127,18.184,64.802,18.184C59.508,18.184,56.265,22.437,56.265,29.292C56.265,36.177,59.478,40.431,64.802,40.431ZM64.802,36.606C62.201,36.606,60.702,33.944,60.702,29.292C60.702,24.671,62.232,22.009,64.802,22.009C67.373,22.009,68.934,24.641,68.934,29.292C68.934,33.944,67.403,36.606,64.802,36.606ZM92.466,63.26C97.791,63.26,101.004,58.945,101.004,52.09C101.004,45.205,97.76,41.013,92.466,41.013C87.172,41.013,83.928,45.235,83.928,52.09C83.928,58.975,87.141,63.26,92.466,63.26ZM92.466,59.434C89.865,59.434,88.365,56.772,88.365,52.09C88.365,47.5,89.895,44.838,92.466,44.838C95.036,44.838,96.567,47.469,96.567,52.09C96.567,56.772,95.067,59.434,92.466,59.434ZM62.997,63.351C64.007,63.933,65.506,63.841,66.394,62.586L94.792,21.397C95.771,20.02,95.189,18.612,94.149,18C93.2,17.48,91.854,17.602,90.875,18.98L62.477,60.016C61.467,61.454,61.987,62.739,62.997,63.351ZM62.997,63.351"/>
  <path fill-opacity="1" fill-rule="nonzero" stroke-dasharray="none" xmlns:svg="http://www.w3.org/2000/svg" stroke-width="0.015625" fill="#212121" stroke-linejoin="miter" stroke-miterlimit="4" version="1.1" stroke-linecap="butt" stroke-opacity="1" stroke="none" d="M3.269,-0C1.298,-0,0,1.298,0,3.268L0,60.275C0,62.246,1.298,63.592,3.269,63.592L54.032,63.592L54.032,56.622L8.123,56.622C7.21,56.622,6.922,56.334,6.922,55.469L6.922,8.075C6.922,7.21,7.21,6.922,8.123,6.922L93.106,6.922C94.019,6.922,94.306,7.21,94.306,8.075L94.306,14.722L101.23,14.722L101.23,3.268C101.23,1.298,99.93,-0,97.959,-0ZM3.269,-0"/>
  <path stroke-dasharray="none" xmlns:svg="http://www.w3.org/2000/svg" stroke-linecap="butt" fill-opacity="1" stroke-linejoin="miter" stroke="none" fill="#4d4d4d" stroke-miterlimit="4" stroke-width="0.015625" stroke-opacity="1" fill-rule="nonzero" version="1.1" d="M13.218,10.815C11.728,10.815,10.815,11.68,10.815,13.218L10.815,50.325C10.815,51.863,11.728,52.729,13.218,52.729L53.775,52.729L53.775,46.901C52.73,47.464,51.606,47.778,50.422,47.778C45.182,47.778,41.049,41.433,41.049,31.724C41.049,22.062,45.182,15.766,50.422,15.766C51.606,15.766,52.73,16.076,53.775,16.635L53.775,14.979L90.413,14.979L90.413,13.218C90.413,11.68,89.5,10.815,88.009,10.815ZM15.958,14.997L41.506,14.997C38.231,18.64,36.194,24.464,36.194,31.724C36.194,39.044,38.234,44.895,41.512,48.547L15.958,48.547C15.333,48.547,15.045,48.211,15.045,47.586L15.045,15.958C15.045,15.333,15.333,14.997,15.958,14.997ZM15.958,14.997"/>
</g>
 </g>
</svg>
