<?xml version="1.0" encoding="UTF-8"?>
<!--Generator: Apple Native CoreSVG 175.5-->
<!DOCTYPE svg
PUBLIC "-//W3C//DTD SVG 1.1//EN"
       "http://www.w3.org/Graphics/SVG/1.1/DTD/svg11.dtd">
<svg version="1.1" xmlns="http://www.w3.org/2000/svg" xmlns:xlink="http://www.w3.org/1999/xlink" width="3300" height="2200">
 <!--glyph: "uni1014FA.medium", point size: 100.0, font version: "18.0d11e1", template writer version: "90"-->
 <style>.monochrome-0 {fill:#000000}

.SFSymbolsPreview000000 {fill:#000000;opacity:1.0}
</style>
 <g id="Notes">
  <rect height="2200" id="artboard" style="fill:white;opacity:1" width="3300" x="0" y="0"/>
  <line style="fill:none;stroke:black;opacity:1;stroke-width:0.5;" x1="263" x2="3036" y1="292" y2="292"/>
  <text style="stroke:none;fill:black;font-family:sans-serif;font-size:13;font-weight:bold;" transform="matrix(1 0 0 1 263 322)">Weight/Scale Variations</text>
  <text style="stroke:none;fill:black;font-family:sans-serif;font-size:13;text-anchor:middle;" transform="matrix(1 0 0 1 559.711 322)">Ultralight</text>
  <text style="stroke:none;fill:black;font-family:sans-serif;font-size:13;text-anchor:middle;" transform="matrix(1 0 0 1 856.422 322)">Thin</text>
  <text style="stroke:none;fill:black;font-family:sans-serif;font-size:13;text-anchor:middle;" transform="matrix(1 0 0 1 1153.13 322)">Light</text>
  <text style="stroke:none;fill:black;font-family:sans-serif;font-size:13;text-anchor:middle;" transform="matrix(1 0 0 1 1449.84 322)">Regular</text>
  <text style="stroke:none;fill:black;font-family:sans-serif;font-size:13;text-anchor:middle;" transform="matrix(1 0 0 1 1746.56 322)">Medium</text>
  <text style="stroke:none;fill:black;font-family:sans-serif;font-size:13;text-anchor:middle;" transform="matrix(1 0 0 1 2043.27 322)">Semibold</text>
  <text style="stroke:none;fill:black;font-family:sans-serif;font-size:13;text-anchor:middle;" transform="matrix(1 0 0 1 2339.98 322)">Bold</text>
  <text style="stroke:none;fill:black;font-family:sans-serif;font-size:13;text-anchor:middle;" transform="matrix(1 0 0 1 2636.69 322)">Heavy</text>
  <text style="stroke:none;fill:black;font-family:sans-serif;font-size:13;text-anchor:middle;" transform="matrix(1 0 0 1 2933.4 322)">Black</text>
  <line style="fill:none;stroke:black;opacity:1;stroke-width:0.5;" x1="263" x2="3036" y1="1903" y2="1903"/>
  <g transform="matrix(1 0 0 1 263 1933)">
   <path d="M9.24805 0.830078C13.5547 0.830078 17.1387-2.74414 17.1387-7.05078C17.1387-11.3574 13.5449-14.9316 9.23828-14.9316C4.94141-14.9316 1.36719-11.3574 1.36719-7.05078C1.36719-2.74414 4.95117 0.830078 9.24805 0.830078ZM9.24805-0.654297C5.70312-0.654297 2.87109-3.49609 2.87109-7.05078C2.87109-10.6055 5.69336-13.4473 9.23828-13.4473C12.793-13.4473 15.6445-10.6055 15.6445-7.05078C15.6445-3.49609 12.8027-0.654297 9.24805-0.654297ZM5.6543-7.05078C5.6543-6.62109 5.95703-6.32812 6.40625-6.32812L8.50586-6.32812L8.50586-4.20898C8.50586-3.76953 8.79883-3.4668 9.22852-3.4668C9.67773-3.4668 9.9707-3.76953 9.9707-4.20898L9.9707-6.32812L12.0898-6.32812C12.5293-6.32812 12.832-6.62109 12.832-7.05078C12.832-7.49023 12.5293-7.79297 12.0898-7.79297L9.9707-7.79297L9.9707-9.90234C9.9707-10.3516 9.67773-10.6543 9.22852-10.6543C8.79883-10.6543 8.50586-10.3516 8.50586-9.90234L8.50586-7.79297L6.40625-7.79297C5.95703-7.79297 5.6543-7.49023 5.6543-7.05078Z"/>
  </g>
  <g transform="matrix(1 0 0 1 281.867 1933)">
   <path d="M11.709 2.91016C17.1582 2.91016 21.6699-1.61133 21.6699-7.05078C21.6699-12.5 17.1484-17.0117 11.6992-17.0117C6.25977-17.0117 1.74805-12.5 1.74805-7.05078C1.74805-1.61133 6.26953 2.91016 11.709 2.91016ZM11.709 1.25C7.09961 1.25 3.41797-2.44141 3.41797-7.05078C3.41797-11.6602 7.08984-15.3516 11.6992-15.3516C16.3086-15.3516 20.0098-11.6602 20.0098-7.05078C20.0098-2.44141 16.3184 1.25 11.709 1.25ZM7.17773-7.05078C7.17773-6.57227 7.50977-6.25 8.00781-6.25L10.8789-6.25L10.8789-3.36914C10.8789-2.88086 11.2109-2.53906 11.6895-2.53906C12.1777-2.53906 12.5195-2.87109 12.5195-3.36914L12.5195-6.25L15.4004-6.25C15.8887-6.25 16.2305-6.57227 16.2305-7.05078C16.2305-7.53906 15.8887-7.88086 15.4004-7.88086L12.5195-7.88086L12.5195-10.752C12.5195-11.25 12.1777-11.5918 11.6895-11.5918C11.2109-11.5918 10.8789-11.25 10.8789-10.752L10.8789-7.88086L8.00781-7.88086C7.50977-7.88086 7.17773-7.53906 7.17773-7.05078Z"/>
  </g>
  <g transform="matrix(1 0 0 1 305.646 1933)">
   <path d="M14.9707 5.66406C21.9336 5.66406 27.6953-0.0976562 27.6953-7.05078C27.6953-14.0137 21.9238-19.7754 14.9609-19.7754C8.00781-19.7754 2.25586-14.0137 2.25586-7.05078C2.25586-0.0976562 8.01758 5.66406 14.9707 5.66406ZM14.9707 3.84766C8.93555 3.84766 4.08203-1.01562 4.08203-7.05078C4.08203-13.0957 8.92578-17.9492 14.9609-17.9492C21.0059-17.9492 25.8691-13.0957 25.8691-7.05078C25.8691-1.01562 21.0156 3.84766 14.9707 3.84766ZM9.19922-7.05078C9.19922-6.5332 9.57031-6.17188 10.1172-6.17188L14.0625-6.17188L14.0625-2.2168C14.0625-1.67969 14.4336-1.29883 14.9512-1.29883C15.4883-1.29883 15.8594-1.66992 15.8594-2.2168L15.8594-6.17188L19.8145-6.17188C20.3516-6.17188 20.7324-6.5332 20.7324-7.05078C20.7324-7.59766 20.3613-7.96875 19.8145-7.96875L15.8594-7.96875L15.8594-11.9141C15.8594-12.4609 15.4883-12.8418 14.9512-12.8418C14.4336-12.8418 14.0625-12.4609 14.0625-11.9141L14.0625-7.96875L10.1172-7.96875C9.57031-7.96875 9.19922-7.59766 9.19922-7.05078Z"/>
  </g>
  <text style="stroke:none;fill:black;font-family:sans-serif;font-size:13;font-weight:bold;" transform="matrix(1 0 0 1 263 1953)">Design Variations</text>
  <text style="stroke:none;fill:black;font-family:sans-serif;font-size:13;" transform="matrix(1 0 0 1 263 1971)">Symbols are supported in up to nine weights and three scales.</text>
  <text style="stroke:none;fill:black;font-family:sans-serif;font-size:13;" transform="matrix(1 0 0 1 263 1989)">For optimal layout with text and other symbols, vertically align</text>
  <text style="stroke:none;fill:black;font-family:sans-serif;font-size:13;" transform="matrix(1 0 0 1 263 2007)">symbols with the adjacent text.</text>
  <line style="fill:none;stroke:#00AEEF;stroke-width:0.5;opacity:1.0;" x1="776" x2="776" y1="1919" y2="1933"/>
  <g transform="matrix(1 0 0 1 776 1933)">
   <path d="M3.31055 0.15625C3.82812 0.15625 4.08203-0.0390625 4.26758-0.585938L5.52734-4.0332L11.2891-4.0332L12.5488-0.585938C12.7344-0.0390625 12.9883 0.15625 13.4961 0.15625C14.0137 0.15625 14.3457-0.15625 14.3457-0.644531C14.3457-0.810547 14.3164-0.966797 14.2383-1.17188L9.6582-13.3691C9.43359-13.9648 9.0332-14.2676 8.4082-14.2676C7.80273-14.2676 7.39258-13.9746 7.17773-13.3789L2.59766-1.16211C2.51953-0.957031 2.49023-0.800781 2.49023-0.634766C2.49023-0.146484 2.80273 0.15625 3.31055 0.15625ZM6.00586-5.51758L8.37891-12.0898L8.42773-12.0898L10.8008-5.51758Z"/>
  </g>
  <line style="fill:none;stroke:#00AEEF;stroke-width:0.5;opacity:1.0;" x1="793.197" x2="793.197" y1="1919" y2="1933"/>
  <text style="stroke:none;fill:black;font-family:sans-serif;font-size:13;font-weight:bold;" transform="matrix(1 0 0 1 776 1953)">Margins</text>
  <text style="stroke:none;fill:black;font-family:sans-serif;font-size:13;" transform="matrix(1 0 0 1 776 1971)">Leading and trailing margins on the left and right side of each symbol</text>
  <text style="stroke:none;fill:black;font-family:sans-serif;font-size:13;" transform="matrix(1 0 0 1 776 1989)">can be adjusted by modifying the x-location of the margin guidelines.</text>
  <text style="stroke:none;fill:black;font-family:sans-serif;font-size:13;" transform="matrix(1 0 0 1 776 2007)">Modifications are automatically applied proportionally to all</text>
  <text style="stroke:none;fill:black;font-family:sans-serif;font-size:13;" transform="matrix(1 0 0 1 776 2025)">scales and weights.</text>
  <g transform="matrix(1 0 0 1 1289 1933)">
   <path d="M2.8418 1.86523L4.54102 3.57422C5.40039 4.44336 6.38672 4.38477 7.31445 3.35938L18.0078-8.42773L17.041-9.4043L6.42578 2.27539C6.07422 2.67578 5.74219 2.77344 5.27344 2.30469L4.10156 1.14258C3.63281 0.683594 3.74023 0.341797 4.14062-0.0195312L15.6152-10.8203L14.6387-11.7871L3.04688-0.898438C2.06055 0.0195312 1.98242 0.996094 2.8418 1.86523ZM9.25781-16.3281C8.83789-15.918 8.80859-15.3418 9.04297-14.9512C9.27734-14.5898 9.73633-14.3555 10.3809-14.5215C11.8457-14.8633 13.3691-14.9219 14.7949-13.9844L14.209-12.5293C13.8672-11.6992 14.043-11.1133 14.5801-10.5664L16.875-8.25195C17.3633-7.76367 17.7734-7.74414 18.3398-7.8418L19.4043-8.03711L20.0684-7.36328L20.0293-6.80664C19.9902-6.30859 20.1172-5.92773 20.6055-5.44922L21.3672-4.70703C21.8457-4.22852 22.4609-4.19922 22.9297-4.66797L25.8398-7.58789C26.3086-8.05664 26.2891-8.65234 25.8105-9.13086L25.0391-9.89258C24.5605-10.3711 24.1895-10.5273 23.7109-10.4883L23.1348-10.4395L22.4902-11.0742L22.7344-12.1973C22.8613-12.7637 22.7051-13.2031 22.1191-13.7891L19.9219-15.9766C16.582-19.2969 12.1484-19.2188 9.25781-16.3281ZM10.752-15.957C13.1836-17.7344 16.4746-17.4316 18.7012-15.2051L21.1328-12.793C21.3672-12.5586 21.4062-12.373 21.3379-12.0312L21.0156-10.5469L22.5195-9.0625L23.5059-9.12109C23.7598-9.13086 23.8379-9.11133 24.0332-8.91602L24.6094-8.33984L22.168-5.89844L21.5918-6.47461C21.3965-6.66992 21.3672-6.74805 21.377-7.01172L21.4453-7.98828L19.9512-9.47266L18.4277-9.21875C18.1055-9.15039 17.959-9.17969 17.7148-9.41406L15.7129-11.416C15.459-11.6504 15.4297-11.8164 15.5859-12.1875L16.4648-14.2773C14.9023-15.7324 12.8711-16.3574 10.8398-15.7617C10.6836-15.7227 10.625-15.8496 10.752-15.957Z"/>
  </g>
  <text style="stroke:none;fill:black;font-family:sans-serif;font-size:13;font-weight:bold;" transform="matrix(1 0 0 1 1289 1953)">Exporting</text>
  <text style="stroke:none;fill:black;font-family:sans-serif;font-size:13;" transform="matrix(1 0 0 1 1289 1971)">Symbols should be outlined when exporting to ensure the</text>
  <text style="stroke:none;fill:black;font-family:sans-serif;font-size:13;" transform="matrix(1 0 0 1 1289 1989)">design is preserved when submitting to Xcode.</text>
  <text id="template-version" style="stroke:none;fill:black;font-family:sans-serif;font-size:13;text-anchor:end;" transform="matrix(1 0 0 1 3036 1933)">Template v.4.0</text>
  <text style="stroke:none;fill:black;font-family:sans-serif;font-size:13;text-anchor:end;" transform="matrix(1 0 0 1 3036 1951)">Requires Xcode 14 or greater</text>
  <text id="descriptive-name" style="stroke:none;fill:black;font-family:sans-serif;font-size:13;text-anchor:end;" transform="matrix(1 0 0 1 3036 1969)">Generated from av.remote</text>
  <text style="stroke:none;fill:black;font-family:sans-serif;font-size:13;text-anchor:end;" transform="matrix(1 0 0 1 3036 1987)">Typeset at 100 points</text>
  <text style="stroke:none;fill:black;font-family:sans-serif;font-size:13;" transform="matrix(1 0 0 1 263 726)">Small</text>
  <text style="stroke:none;fill:black;font-family:sans-serif;font-size:13;" transform="matrix(1 0 0 1 263 1156)">Medium</text>
  <text style="stroke:none;fill:black;font-family:sans-serif;font-size:13;" transform="matrix(1 0 0 1 263 1586)">Large</text>
 </g>
 <g id="Guides">
  <g id="H-reference" style="fill:#27AAE1;stroke:none;" transform="matrix(1 0 0 1 339 696)">
   <path d="M0.993654 0L3.63775 0L29.3281-67.1323L30.0303-67.1323L30.0303-70.459L28.1226-70.459ZM11.6885-24.4799L46.9815-24.4799L46.2315-26.7285L12.4385-26.7285ZM55.1196 0L57.7637 0L30.6382-70.459L29.4326-70.459L29.4326-67.1323Z"/>
  </g>
  <line id="Baseline-S" style="fill:none;stroke:#27AAE1;opacity:1;stroke-width:0.5;" x1="263" x2="3036" y1="696" y2="696"/>
  <line id="Capline-S" style="fill:none;stroke:#27AAE1;opacity:1;stroke-width:0.5;" x1="263" x2="3036" y1="625.541" y2="625.541"/>
  <g id="H-reference" style="fill:#27AAE1;stroke:none;" transform="matrix(1 0 0 1 339 1126)">
   <path d="M0.993654 0L3.63775 0L29.3281-67.1323L30.0303-67.1323L30.0303-70.459L28.1226-70.459ZM11.6885-24.4799L46.9815-24.4799L46.2315-26.7285L12.4385-26.7285ZM55.1196 0L57.7637 0L30.6382-70.459L29.4326-70.459L29.4326-67.1323Z"/>
  </g>
  <line id="Baseline-M" style="fill:none;stroke:#27AAE1;opacity:1;stroke-width:0.5;" x1="263" x2="3036" y1="1126" y2="1126"/>
  <line id="Capline-M" style="fill:none;stroke:#27AAE1;opacity:1;stroke-width:0.5;" x1="263" x2="3036" y1="1055.54" y2="1055.54"/>
  <g id="H-reference" style="fill:#27AAE1;stroke:none;" transform="matrix(1 0 0 1 339 1556)">
   <path d="M0.993654 0L3.63775 0L29.3281-67.1323L30.0303-67.1323L30.0303-70.459L28.1226-70.459ZM11.6885-24.4799L46.9815-24.4799L46.2315-26.7285L12.4385-26.7285ZM55.1196 0L57.7637 0L30.6382-70.459L29.4326-70.459L29.4326-67.1323Z"/>
  </g>
  <line id="Baseline-L" style="fill:none;stroke:#27AAE1;opacity:1;stroke-width:0.5;" x1="263" x2="3036" y1="1556" y2="1556"/>
  <line id="Capline-L" style="fill:none;stroke:#27AAE1;opacity:1;stroke-width:0.5;" x1="263" x2="3036" y1="1485.54" y2="1485.54"/>
  <line id="left-margin-Ultralight-S" style="fill:none;stroke:#00AEEF;stroke-width:0.5;opacity:1.0;" x1="530.532" x2="530.532" y1="600.785" y2="720.121"/>
  <line id="right-margin-Ultralight-S" style="fill:none;stroke:#00AEEF;stroke-width:0.5;opacity:1.0;" x1="588.89" x2="588.89" y1="600.785" y2="720.121"/>
  <line id="left-margin-Regular-S" style="fill:none;stroke:#00AEEF;stroke-width:0.5;opacity:1.0;" x1="1417.69" x2="1417.69" y1="600.785" y2="720.121"/>
  <line id="right-margin-Regular-S" style="fill:none;stroke:#00AEEF;stroke-width:0.5;opacity:1.0;" x1="1482" x2="1482" y1="600.785" y2="720.121"/>
  <line id="left-margin-Black-S" style="fill:none;stroke:#00AEEF;stroke-width:0.5;opacity:1.0;" x1="2893.95" x2="2893.95" y1="600.785" y2="720.121"/>
  <line id="right-margin-Black-S" style="fill:none;stroke:#00AEEF;stroke-width:0.5;opacity:1.0;" x1="2972.85" x2="2972.85" y1="600.785" y2="720.121"/>
 </g>
 <g id="Symbols">
  <g id="Black-S" transform="matrix(1 0 0 1 2893.95 696)">
   <path class="monochrome-0 SFSymbolsPreview000000" d="M22.7539 15.0879L56.1523 15.0879C64.6973 15.0879 69.1406 10.8398 69.1406 2.68555L69.1406-73.2422C69.1406-81.3965 64.6973-85.6445 56.1523-85.6445L22.7539-85.6445C14.209-85.6445 9.76562-81.3965 9.76562-73.2422L9.76562 2.68555C9.76562 10.8398 14.209 15.0879 22.7539 15.0879ZM25.6836 1.66016C24.3164 1.66016 23.4375 0.878906 23.4375-0.292969L23.4375-70.2637C23.4375-71.4355 24.3164-72.2168 25.6836-72.2168L53.2227-72.2168C54.5898-72.2168 55.4688-71.4355 55.4688-70.2637L55.4688-0.292969C55.4688 0.878906 54.5898 1.66016 53.2227 1.66016ZM49.4141-2.24609C51.3184-2.24609 52.832-3.80859 52.832-5.61523L52.832-17.9688C52.832-19.7754 51.3184-21.3379 49.4141-21.3379C47.6074-21.3379 46.0449-19.7754 46.0449-17.9688L46.0449-5.61523C46.0449-3.80859 47.6074-2.24609 49.4141-2.24609ZM29.541-2.24609C31.3477-2.24609 32.9102-3.80859 32.9102-5.61523L32.9102-17.9688C32.9102-19.7754 31.3477-21.3379 29.541-21.3379C27.6367-21.3379 26.123-19.7754 26.123-17.9688L26.123-5.61523C26.123-3.80859 27.6367-2.24609 29.541-2.24609ZM41.8457-61.8164L49.9512-61.8164C51.5137-61.8164 52.832-63.1348 52.832-64.6973C52.832-66.3086 51.5137-67.627 49.9512-67.627L41.8457-67.627C40.2832-67.627 38.9648-66.3086 38.9648-64.6973C38.9648-63.1348 40.2832-61.8164 41.8457-61.8164ZM37.5977-12.5977L41.3086-12.5977C42.9199-12.5977 43.7988-13.6719 43.7988-15.1367L43.7988-17.627C43.7988-19.0918 42.9199-20.1172 41.3086-20.1172L37.5977-20.1172C36.0352-20.1172 35.1074-19.0918 35.1074-17.627L35.1074-15.1367C35.1074-13.6719 36.0352-12.5977 37.5977-12.5977ZM37.5977-3.4668L41.3086-3.4668C42.9199-3.4668 43.7988-4.44336 43.7988-5.95703L43.7988-8.39844C43.7988-9.91211 42.9199-10.9375 41.3086-10.9375L37.5977-10.9375C36.0352-10.9375 35.1074-9.91211 35.1074-8.39844L35.1074-5.95703C35.1074-4.44336 36.084-3.4668 37.5977-3.4668ZM48.6328-36.0352C50.9277-36.0352 52.832-37.8906 52.832-40.2344C52.832-42.4805 50.9277-44.4336 48.6328-44.4336C46.2402-44.4336 44.4336-42.4805 44.4336-40.2344C44.4336-37.8906 46.2891-36.0352 48.6328-36.0352ZM30.3223-25.4395C32.666-25.4395 34.5703-27.3438 34.5703-29.6387C34.5703-31.9336 32.666-33.8379 30.3223-33.8379C28.0273-33.8379 26.123-31.9336 26.123-29.6387C26.123-27.3438 28.0273-25.4395 30.3223-25.4395ZM48.6328-25.4395C50.9277-25.4395 52.832-27.3438 52.832-29.6387C52.832-31.9824 50.9277-33.8379 48.6328-33.8379C46.2891-33.8379 44.4336-31.9824 44.4336-29.6387C44.4336-27.3438 46.2891-25.4395 48.6328-25.4395ZM30.3223-36.0352C32.666-36.0352 34.5703-37.8906 34.5703-40.2344C34.5703-42.4805 32.666-44.4336 30.3223-44.4336C28.0273-44.4336 26.123-42.4805 26.123-40.2344C26.123-37.8906 28.0273-36.0352 30.3223-36.0352ZM30.3223-46.582C32.666-46.582 34.5703-48.4863 34.5703-50.7812C34.5703-53.0273 32.666-54.9805 30.3223-54.9805C28.0273-54.9805 26.123-53.0273 26.123-50.7812C26.123-48.4863 28.0273-46.582 30.3223-46.582ZM48.6328-46.582C50.9277-46.582 52.832-48.4863 52.832-50.7812C52.832-53.0273 50.9277-54.9805 48.6328-54.9805C46.2402-54.9805 44.4336-53.0273 44.4336-50.7812C44.4336-48.4863 46.2891-46.582 48.6328-46.582ZM39.4531-36.0352C41.7969-36.0352 43.6523-37.8906 43.6523-40.2344C43.6523-42.4805 41.8457-44.4336 39.4531-44.4336C37.0605-44.4336 35.2539-42.4805 35.2539-40.2344C35.2539-37.8906 37.1094-36.0352 39.4531-36.0352ZM39.4531-25.4395C41.7969-25.4395 43.6523-27.3438 43.6523-29.6387C43.6523-31.9824 41.7969-33.8379 39.4531-33.8379C37.1094-33.8379 35.2539-31.9824 35.2539-29.6387C35.2539-27.3438 37.1094-25.4395 39.4531-25.4395ZM39.4531-46.582C41.7969-46.582 43.6523-48.4863 43.6523-50.7812C43.6523-53.0273 41.8457-54.9805 39.4531-54.9805C37.0605-54.9805 35.2539-53.0273 35.2539-50.7812C35.2539-48.4863 37.1094-46.582 39.4531-46.582Z"/>
  </g>
  <g id="Regular-S" transform="matrix(1 0 0 1 1417.69 696)">
   <path class="monochrome-0 SFSymbolsPreview000000" d="M20.166 10.1562L44.1406 10.1562C50.3906 10.1562 54.541 6.25 54.541 0.292969L54.541-70.752C54.541-76.709 50.3906-80.6152 44.1406-80.6152L20.166-80.6152C13.8672-80.6152 9.76562-76.709 9.76562-70.752L9.76562 0.292969C9.76562 6.25 13.8672 10.1562 20.166 10.1562ZM20.9473 3.80859C18.0664 3.80859 16.2109 2.05078 16.2109-0.683594L16.2109-69.7754C16.2109-72.5098 18.0664-74.2676 20.9473-74.2676L43.3594-74.2676C46.2402-74.2676 48.0957-72.5098 48.0957-69.7754L48.0957-0.683594C48.0957 2.05078 46.2402 3.80859 43.3594 3.80859ZM42.2852-4.49219C43.8965-4.49219 45.2148-5.81055 45.2148-7.42188L45.2148-20.8496C45.2148-22.4609 43.8965-23.7793 42.2852-23.7793C40.6738-23.7793 39.3555-22.4609 39.3555-20.8496L39.3555-7.42188C39.3555-5.81055 40.6738-4.49219 42.2852-4.49219ZM22.0703-4.49219C23.6816-4.49219 25-5.81055 25-7.42188L25-20.8496C25-22.4609 23.6816-23.7793 22.0703-23.7793C20.459-23.7793 19.1406-22.4609 19.1406-20.8496L19.1406-7.42188C19.1406-5.81055 20.459-4.49219 22.0703-4.49219ZM34.5703-65.2832L42.7246-65.2832C44.0918-65.2832 45.166-66.3086 45.166-67.6758C45.166-69.043 44.0918-70.1172 42.7246-70.1172L34.5703-70.1172C33.2031-70.1172 32.1289-69.043 32.1289-67.6758C32.1289-66.3086 33.2031-65.2832 34.5703-65.2832ZM30.2734-15.5273L33.9844-15.5273C35.3027-15.5273 36.0352-16.2598 36.0352-17.5293L36.0352-20.0195C36.0352-21.2891 35.3027-22.0703 33.9844-22.0703L30.2734-22.0703C29.0527-22.0703 28.2715-21.2891 28.2715-20.0195L28.2715-17.5293C28.2715-16.2598 29.0527-15.5273 30.2734-15.5273ZM30.2734-6.20117L33.9844-6.20117C35.3027-6.20117 36.0352-6.98242 36.0352-8.25195L36.0352-10.7422C36.0352-12.0117 35.3027-12.7441 33.9844-12.7441L30.2734-12.7441C29.0527-12.7441 28.2715-12.0117 28.2715-10.7422L28.2715-8.25195C28.2715-6.98242 29.0527-6.20117 30.2734-6.20117ZM41.4551-40.5762C43.5547-40.5762 45.2148-42.2363 45.2148-44.3359C45.2148-46.3867 43.5547-48.0469 41.4551-48.0469C39.3555-48.0469 37.6953-46.3867 37.6953-44.3359C37.6953-42.2363 39.3555-40.5762 41.4551-40.5762ZM22.9004-29.8828C25-29.8828 26.6602-31.543 26.6602-33.6426C26.6602-35.6934 25-37.3535 22.9004-37.3535C20.8008-37.3535 19.1406-35.6934 19.1406-33.6426C19.1406-31.543 20.8008-29.8828 22.9004-29.8828ZM41.4551-29.8828C43.5547-29.8828 45.2148-31.5918 45.2148-33.6426C45.2148-35.7422 43.5547-37.3535 41.4551-37.3535C39.3555-37.3535 37.6953-35.7422 37.6953-33.6426C37.6953-31.5918 39.3555-29.8828 41.4551-29.8828ZM22.9004-40.5762C25-40.5762 26.6602-42.2363 26.6602-44.3359C26.6602-46.3867 25-48.0469 22.9004-48.0469C20.8008-48.0469 19.1406-46.3867 19.1406-44.3359C19.1406-42.2363 20.8008-40.5762 22.9004-40.5762ZM22.9004-51.2695C25-51.2695 26.6602-52.9297 26.6602-55.0293C26.6602-57.0801 25-58.7402 22.9004-58.7402C20.8008-58.7402 19.1406-57.0801 19.1406-55.0293C19.1406-52.9297 20.8008-51.2695 22.9004-51.2695ZM41.4551-51.2695C43.5547-51.2695 45.2148-52.9297 45.2148-55.0293C45.2148-57.0801 43.5547-58.7402 41.4551-58.7402C39.3555-58.7402 37.6953-57.0801 37.6953-55.0293C37.6953-52.9297 39.3555-51.2695 41.4551-51.2695ZM32.1289-40.5762C34.2285-40.5762 35.8887-42.2363 35.8887-44.3359C35.8887-46.3867 34.2285-48.0469 32.1289-48.0469C30.0781-48.0469 28.418-46.3867 28.418-44.3359C28.418-42.2363 30.0781-40.5762 32.1289-40.5762ZM32.1289-29.8828C34.2285-29.8828 35.8887-31.5918 35.8887-33.6426C35.8887-35.7422 34.2285-37.3535 32.1289-37.3535C30.0781-37.3535 28.418-35.7422 28.418-33.6426C28.418-31.5918 30.0781-29.8828 32.1289-29.8828ZM32.1289-51.2695C34.2285-51.2695 35.8887-52.9297 35.8887-55.0293C35.8887-57.0801 34.2285-58.7402 32.1289-58.7402C30.0781-58.7402 28.418-57.0801 28.418-55.0293C28.418-52.9297 30.0781-51.2695 32.1289-51.2695Z"/>
  </g>
  <g id="Ultralight-S" transform="matrix(1 0 0 1 530.532 696)">
   <path class="monochrome-0 SFSymbolsPreview000000" d="M17.8047 6.93215L40.5533 6.93215C45.8042 6.93215 48.5923 4.16115 48.5923-1.06933L48.5923-69.4805C48.5923-74.711 45.8042-77.5274 40.5533-77.5274L17.8047-77.5274C12.5503-77.5274 9.76562-74.711 9.76562-69.4805L9.76562-1.06933C9.76562 4.16115 12.5503 6.93215 17.8047 6.93215ZM17.9502 4.7622C14.0249 4.7622 11.9424 2.68652 11.9424-1.1831L11.9424-69.3667C11.9424-73.2363 14.0249-75.3574 17.9502-75.3574L40.4531-75.3574C44.333-75.3574 46.4155-73.2363 46.4155-69.3667L46.4155-1.1831C46.4155 2.68652 44.333 4.7622 40.4531 4.7622ZM39.7422-3.67481C41.2627-3.67481 42.4448-4.85694 42.4448-6.33204L42.4448-20.2593C42.4448-21.7798 41.2627-22.9619 39.7422-22.9619C38.2217-22.9619 37.0396-21.7798 37.0396-20.2593L37.0396-6.33204C37.0396-4.85694 38.2217-3.67481 39.7422-3.67481ZM18.6192-3.67481C20.1397-3.67481 21.3218-4.85694 21.3218-6.33204L21.3218-20.2593C21.3218-21.7798 20.1397-22.9619 18.6192-22.9619C17.0987-22.9619 15.9165-21.7798 15.9165-20.2593L15.9165-6.33204C15.9165-4.85694 17.0987-3.67481 18.6192-3.67481ZM31.1192-65.7373L39.2735-65.7373C40.5498-65.7373 41.4878-66.6719 41.4878-67.9482C41.4878-69.2246 40.5498-70.1626 39.2735-70.1626L31.1192-70.1626C29.8428-70.1626 28.9048-69.2246 28.9048-67.9482C28.9048-66.6719 29.8428-65.7373 31.1192-65.7373ZM27.3218-15.1187L31.0327-15.1187C32.2603-15.1187 32.8111-15.7603 32.8111-16.939L32.8111-19.4292C32.8111-20.6079 32.2603-21.2529 31.0327-21.2529L27.3218-21.2529C26.1465-21.2529 25.5015-20.6079 25.5015-19.4292L25.5015-16.939C25.5015-15.7603 26.1465-15.1187 27.3218-15.1187ZM27.3218-5.3838L31.0327-5.3838C32.2603-5.3838 32.8111-6.02882 32.8111-7.16212L32.8111-9.65235C32.8111-10.8311 32.2603-11.4727 31.0327-11.4727L27.3218-11.4727C26.1465-11.4727 25.5015-10.8311 25.5015-9.65235L25.5015-7.16212C25.5015-6.02882 26.1465-5.3838 27.3218-5.3838ZM38.9121-39.7588C40.9209-39.7588 42.4448-41.2827 42.4448-43.2461C42.4448-45.2061 40.9209-46.7754 38.9121-46.7754C36.9033-46.7754 35.3794-45.2061 35.3794-43.2461C35.3794-41.2827 36.9033-39.7588 38.9121-39.7588ZM19.4492-29.0654C21.458-29.0654 22.982-30.5894 22.982-32.5527C22.982-34.5127 21.458-36.082 19.4492-36.082C17.4405-36.082 15.9165-34.5127 15.9165-32.5527C15.9165-30.5894 17.4405-29.0654 19.4492-29.0654ZM38.9121-29.0654C40.9209-29.0654 42.4448-30.6382 42.4448-32.5527C42.4448-34.5615 40.9209-36.082 38.9121-36.082C36.9033-36.082 35.3794-34.5615 35.3794-32.5527C35.3794-30.6382 36.9033-29.0654 38.9121-29.0654ZM19.4492-39.7588C21.458-39.7588 22.982-41.2827 22.982-43.2461C22.982-45.2061 21.458-46.7754 19.4492-46.7754C17.4405-46.7754 15.9165-45.2061 15.9165-43.2461C15.9165-41.2827 17.4405-39.7588 19.4492-39.7588ZM19.4492-50.4522C21.458-50.4522 22.982-51.9761 22.982-53.9395C22.982-55.8994 21.458-57.4688 19.4492-57.4688C17.4405-57.4688 15.9165-55.8994 15.9165-53.9395C15.9165-51.9761 17.4405-50.4522 19.4492-50.4522ZM38.9121-50.4522C40.9209-50.4522 42.4448-51.9761 42.4448-53.9395C42.4448-55.8994 40.9209-57.4688 38.9121-57.4688C36.9033-57.4688 35.3794-55.8994 35.3794-53.9395C35.3794-51.9761 36.9033-50.4522 38.9121-50.4522ZM29.1773-39.7588C31.1861-39.7588 32.6646-41.2827 32.6646-43.2461C32.6646-45.2061 31.1861-46.7754 29.1773-46.7754C27.1719-46.7754 25.648-45.2061 25.648-43.2461C25.648-41.2827 27.1719-39.7588 29.1773-39.7588ZM29.1773-29.0654C31.1861-29.0654 32.6646-30.6382 32.6646-32.5527C32.6646-34.5615 31.1861-36.082 29.1773-36.082C27.1719-36.082 25.648-34.5615 25.648-32.5527C25.648-30.6382 27.1719-29.0654 29.1773-29.0654ZM29.1773-50.4522C31.1861-50.4522 32.6646-51.9761 32.6646-53.9395C32.6646-55.8994 31.1861-57.4688 29.1773-57.4688C27.1719-57.4688 25.648-55.8994 25.648-53.9395C25.648-51.9761 27.1719-50.4522 29.1773-50.4522Z"/>
  </g>
 </g>
</svg>
