<?xml version="1.0" encoding="UTF-8"?>
<!-- Generator: CustomSymbols v2.6.2.41 by @serious_bret https://bretlester.com/app_content/CustomSymbols/ -->
<!-- Guides: Left/Right 0.004/0.002 Cap/Base 0.156/0.237 -->
<!-- Settings: RefScale 0.5 Min/Max Stroke Scales 2.2/5.0 -->
<!DOCTYPE svg
PUBLIC "-//W3C//DTD SVG 1.1//EN"
       "http://www.w3.org/Graphics/SVG/1.1/DTD/svg11.dtd">
<svg version="1.1" xmlns="http://www.w3.org/2000/svg" xmlns:xlink="http://www.w3.org/1999/xlink" width="3300" height="2200">
<![CDATA[<?xml version="1.0" encoding="UTF-8" standalone="no"?>
<!--Generator: Apple Native CoreSVG 175.5-->

<svg
   version="1.1"
   width="93.253174"
   height="81.25"
   id="svg5796"
   xmlns="http://www.w3.org/2000/svg"
   xmlns:svg="http://www.w3.org/2000/svg">
  <defs
     id="defs5800" />
  <!--glyph: "uni10039E.medium", point size: 100.0, font version: "18.0d11e1", template writer version: "90"-->
  <g
     id="g7079"
     transform="translate(-1403.2363,-616.60547)">
    <path
       id="path5789"
       d="m 56.420625,-79.394531 c -1.696773,0 -3.392602,0.634748 -4.90625,1.904297 l -40.380859,33.886718 c -0.927699,0.7812 -1.3671879,1.855533 -1.3671879,2.832032 0,1.806698 1.4159959,3.515625 3.8085939,3.515625 1.220699,0 2.246101,-0.683617 3.125,-1.416016 l 4.492187,-3.773437 v 35.4628901 c 0,5.5663945 3.369137,8.8378907 9.082032,8.8378907 H 57.53 V -33.300781 h -9.238281 c -1.855498,0 -3.076172,1.220673 -3.076172,3.076172 V -5.1757812 H 31.738984 c -2.197297,0 -3.466797,-1.3183636 -3.466797,-3.6132813 V -48.390625 l 26.855469,-22.556641 c 0.829999,-0.683599 1.806663,-0.634699 2.539063,0 l 23.015625,19.332032 h 11.443359 l -0.914062,-0.767578 v -15.78125 c 0,-1.855399 -1.220746,-3.027344 -3.027344,-3.027344 h -4.394531 c -1.855499,0 -3.076172,1.171945 -3.076172,3.027344 v 6.960937 L 61.328828,-77.490234 c -1.513648,-1.269549 -3.21143,-1.904297 -4.908203,-1.904297 z"
       transform="translate(1393.47,696)" />
    <path
       d="m 1475.1992,697.76103 c 0.3542,0 0.9985,-0.12885 1.707,-0.51535 14.462,-7.92347 19.5833,-11.53093 19.5833,-21.06484 v -19.38993 c 0,-2.64116 -1.2562,-3.44638 -3.2532,-4.31606 -2.6089,-1.12733 -13.2702,-4.89582 -15.8791,-5.79762 -0.6764,-0.22547 -1.4172,-0.38655 -2.158,-0.38655 -0.7408,0 -1.5139,0.22547 -2.1581,0.38655 -2.6089,0.64414 -13.2702,4.70254 -15.8791,5.79762 -1.997,0.83742 -3.2532,1.6749 -3.2532,4.31606 v 19.38993 c 0,9.53391 5.1213,13.10916 19.5833,21.06484 0.7085,0.3865 1.3528,0.51535 1.7071,0.51535 z m 0,-5.28232 c -0.3865,0 -0.7731,-0.0966 -1.6427,-0.57976 -11.6276,-6.95717 -15.0739,-9.01856 -15.0739,-16.84545 v -17.39298 c 0,-0.57977 0.1288,-0.83742 0.6442,-1.06289 4.1228,-1.61046 11.08,-3.83287 15.2027,-5.47558 0.3221,-0.12883 0.612,-0.16102 0.8697,-0.16102 0.2576,0 0.5475,0.0322 0.8696,0.16102 4.0905,1.64271 10.9511,4.0584 15.1705,5.47558 0.5476,0.19328 0.6442,0.48312 0.6442,1.06289 v 17.39298 c 0,7.82689 -3.4463,9.88828 -15.0739,16.84545 -0.8374,0.48313 -1.2239,0.57976 -1.6104,0.57976 z"
       id="path1441"
       style="stroke-width:0.659645" />
  </g>
</svg>
]]>
 <g id="Notes">
  <rect height="2200" id="artboard" style="fill:white;opacity:1" width="3300" x="0" y="0"/>
  <line id="" style="fill:none;stroke:black;opacity:1;stroke-width:0.5;" x1="263" x2="3036" y1="292" y2="292"/>
  <text id="reftext1" style="stroke:none;fill:black;font-family:-apple-system,&quot;SF Pro Display&quot;,&quot;SF Pro Text&quot;,Helvetica,sans-serif;font-weight:bold;" transform="matrix(1 0 0 1 263 322)">Weight/Scale Variations</text>
  <text id="reftext2" style="stroke:none;fill:black;font-family:-apple-system,&quot;SF Pro Display&quot;,&quot;SF Pro Text&quot;,Helvetica,sans-serif;text-anchor:middle;" transform="matrix(1 0 0 1 559.711 322)">Ultralight</text>
  <text style="stroke:none;fill:black;font-family:-apple-system,&quot;SF Pro Display&quot;,&quot;SF Pro Text&quot;,Helvetica,sans-serif;text-anchor:middle;" transform="matrix(1 0 0 1 856.422 322)">Thin</text>
  <text style="stroke:none;fill:black;font-family:-apple-system,&quot;SF Pro Display&quot;,&quot;SF Pro Text&quot;,Helvetica,sans-serif;text-anchor:middle;" transform="matrix(1 0 0 1 1153.13 322)">Light</text>
  <text style="stroke:none;fill:black;font-family:-apple-system,&quot;SF Pro Display&quot;,&quot;SF Pro Text&quot;,Helvetica,sans-serif;text-anchor:middle;" transform="matrix(1 0 0 1 1449.84 322)">Regular</text>
  <text style="stroke:none;fill:black;font-family:-apple-system,&quot;SF Pro Display&quot;,&quot;SF Pro Text&quot;,Helvetica,sans-serif;text-anchor:middle;" transform="matrix(1 0 0 1 1746.56 322)">Medium</text>
  <text style="stroke:none;fill:black;font-family:-apple-system,&quot;SF Pro Display&quot;,&quot;SF Pro Text&quot;,Helvetica,sans-serif;text-anchor:middle;" transform="matrix(1 0 0 1 2043.27 322)">Semibold</text>
  <text style="stroke:none;fill:black;font-family:-apple-system,&quot;SF Pro Display&quot;,&quot;SF Pro Text&quot;,Helvetica,sans-serif;text-anchor:middle;" transform="matrix(1 0 0 1 2339.98 322)">Bold</text>
  <text style="stroke:none;fill:black;font-family:-apple-system,&quot;SF Pro Display&quot;,&quot;SF Pro Text&quot;,Helvetica,sans-serif;text-anchor:middle;" transform="matrix(1 0 0 1 2636.69 322)">Heavy</text>
  <text style="stroke:none;fill:black;font-family:-apple-system,&quot;SF Pro Display&quot;,&quot;SF Pro Text&quot;,Helvetica,sans-serif;text-anchor:middle;" transform="matrix(1 0 0 1 2933.4 322)">Black</text>
  <line id="" style="fill:none;stroke:black;opacity:1;stroke-width:0.5;" x1="263" x2="3036" y1="1903" y2="1903"/>
  <g id="" transform="matrix(1 0 0 1 263 1933)">
   <path d="M9.24805 0.830078C13.5547 0.830078 17.1387-2.74414 17.1387-7.05078C17.1387-11.3574 13.5449-14.9316 9.23828-14.9316C4.94141-14.9316 1.36719-11.3574 1.36719-7.05078C1.36719-2.74414 4.95117 0.830078 9.24805 0.830078ZM9.24805-0.654297C5.70312-0.654297 2.87109-3.49609 2.87109-7.05078C2.87109-10.6055 5.69336-13.4473 9.23828-13.4473C12.793-13.4473 15.6348-10.6055 15.6445-7.05078C15.6543-3.49609 12.8027-0.654297 9.24805-0.654297ZM6.39648-6.31836L8.50586-6.31836L8.50586-4.19922C8.50586-3.75977 8.79883-3.45703 9.22852-3.45703C9.67773-3.45703 9.9707-3.75977 9.9707-4.19922L9.9707-6.31836L12.0996-6.31836C12.5391-6.31836 12.8418-6.61133 12.8418-7.04102C12.8418-7.48047 12.5391-7.7832 12.0996-7.7832L9.9707-7.7832L9.9707-9.89258C9.9707-10.3418 9.67773-10.6445 9.22852-10.6445C8.79883-10.6445 8.50586-10.3418 8.50586-9.89258L8.50586-7.7832L6.39648-7.7832C5.94727-7.7832 5.64453-7.48047 5.64453-7.04102C5.64453-6.61133 5.94727-6.31836 6.39648-6.31836Z"/>
  </g>
  <g id="" transform="matrix(1 0 0 1 281.506 1933)">
   <path d="M11.709 2.91016C17.1582 2.91016 21.6699-1.61133 21.6699-7.05078C21.6699-12.5 17.1484-17.0117 11.6992-17.0117C6.25977-17.0117 1.74805-12.5 1.74805-7.05078C1.74805-1.61133 6.26953 2.91016 11.709 2.91016ZM11.709 1.25C7.09961 1.25 3.41797-2.44141 3.41797-7.05078C3.41797-11.6602 7.08984-15.3516 11.6992-15.3516C16.3086-15.3516 20-11.6602 20.0098-7.05078C20.0195-2.44141 16.3184 1.25 11.709 1.25ZM7.98828-6.23047L10.8789-6.23047L10.8789-3.32031C10.8789-2.83203 11.2109-2.5 11.6895-2.5C12.1777-2.5 12.5195-2.83203 12.5195-3.32031L12.5195-6.23047L15.4297-6.23047C15.918-6.23047 16.25-6.5625 16.25-7.04102C16.25-7.5293 15.918-7.87109 15.4297-7.87109L12.5195-7.87109L12.5195-10.7617C12.5195-11.2695 12.1777-11.6016 11.6895-11.6016C11.2109-11.6016 10.8789-11.2598 10.8789-10.7617L10.8789-7.87109L7.98828-7.87109C7.48047-7.87109 7.14844-7.5293 7.14844-7.04102C7.14844-6.5625 7.49023-6.23047 7.98828-6.23047Z"/>
  </g>
  <g id="" transform="matrix(1 0 0 1 304.924 1933)">
   <path d="M14.9707 5.66406C21.9336 5.66406 27.6953-0.0976562 27.6953-7.05078C27.6953-14.0137 21.9238-19.7754 14.9609-19.7754C8.00781-19.7754 2.25586-14.0137 2.25586-7.05078C2.25586-0.0976562 8.01758 5.66406 14.9707 5.66406ZM14.9707 3.84766C8.93555 3.84766 4.08203-1.01562 4.08203-7.05078C4.08203-13.0957 8.92578-17.9492 14.9609-17.9492C21.0059-17.9492 25.8594-13.0957 25.8691-7.05078C25.8789-1.01562 21.0156 3.84766 14.9707 3.84766ZM10.0586-6.14258L14.0625-6.14258L14.0625-2.12891C14.0625-1.5918 14.4336-1.2207 14.9512-1.2207C15.4883-1.2207 15.8594-1.5918 15.8594-2.12891L15.8594-6.14258L19.8828-6.14258C20.4102-6.14258 20.791-6.51367 20.791-7.03125C20.791-7.56836 20.4199-7.94922 19.8828-7.94922L15.8594-7.94922L15.8594-11.9531C15.8594-12.5098 15.4883-12.8809 14.9512-12.8809C14.4336-12.8809 14.0625-12.5 14.0625-11.9531L14.0625-7.94922L10.0586-7.94922C9.50195-7.94922 9.13086-7.56836 9.13086-7.03125C9.13086-6.51367 9.51172-6.14258 10.0586-6.14258Z"/>
  </g>
  <text style="stroke:none;fill:black;font-family:-apple-system,&quot;SF Pro Display&quot;,&quot;SF Pro Text&quot;,Helvetica,sans-serif;font-weight:bold;" transform="matrix(1 0 0 1 263 1953)">Design Variations</text>
  <text style="stroke:none;fill:black;font-family:-apple-system,&quot;SF Pro Display&quot;,&quot;SF Pro Text&quot;,Helvetica,sans-serif;" transform="matrix(1 0 0 1 263 1971)">Symbols are supported in up to nine weights and three scales.</text>
  <text style="stroke:none;fill:black;font-family:-apple-system,&quot;SF Pro Display&quot;,&quot;SF Pro Text&quot;,Helvetica,sans-serif;" transform="matrix(1 0 0 1 263 1989)">For optimal layout with text and other symbols, vertically align</text>
  <text style="stroke:none;fill:black;font-family:-apple-system,&quot;SF Pro Display&quot;,&quot;SF Pro Text&quot;,Helvetica,sans-serif;" transform="matrix(1 0 0 1 263 2007)">symbols with the adjacent text.</text>
  <line id="" style="fill:none;stroke:#00AEEF;stroke-width:0.5;opacity:1.0;" x1="776" x2="776" y1="1919" y2="1933"/>
  <g id="" transform="matrix(1 0 0 1 776 1933)">
   <path d="M3.31055 0.126953C3.82812 0.126953 4.08203-0.0683594 4.26758-0.605469L5.52734-4.0625L11.2891-4.0625L12.5488-0.605469C12.7344-0.0683594 12.9883 0.126953 13.4961 0.126953C14.0137 0.126953 14.3457-0.185547 14.3457-0.673828C14.3457-0.839844 14.3164-0.986328 14.2383-1.20117L9.6582-13.3887C9.43359-13.9941 9.0332-14.2871 8.4082-14.2871C7.80273-14.2871 7.39258-13.9941 7.17773-13.3984L2.59766-1.19141C2.51953-0.976562 2.49023-0.830078 2.49023-0.664062C2.49023-0.175781 2.80273 0.126953 3.31055 0.126953ZM6.00586-5.53711L8.37891-12.1094L8.42773-12.1094L10.8008-5.53711Z"/>
  </g>
  <line id="" style="fill:none;stroke:#00AEEF;stroke-width:0.5;opacity:1.0;" x1="792.836" x2="792.836" y1="1919" y2="1933"/>
  <text style="stroke:none;fill:black;font-family:-apple-system,&quot;SF Pro Display&quot;,&quot;SF Pro Text&quot;,Helvetica,sans-serif;font-weight:bold;" transform="matrix(1 0 0 1 776 1953)">Margins</text>
  <text style="stroke:none;fill:black;font-family:-apple-system,&quot;SF Pro Display&quot;,&quot;SF Pro Text&quot;,Helvetica,sans-serif;" transform="matrix(1 0 0 1 776 1971)">Leading and trailing margins on the left and right side of each symbol</text>
  <text style="stroke:none;fill:black;font-family:-apple-system,&quot;SF Pro Display&quot;,&quot;SF Pro Text&quot;,Helvetica,sans-serif;" transform="matrix(1 0 0 1 776 1989)">can be adjusted by modifying the x-location of the margin guidelines.</text>
  <text style="stroke:none;fill:black;font-family:-apple-system,&quot;SF Pro Display&quot;,&quot;SF Pro Text&quot;,Helvetica,sans-serif;" transform="matrix(1 0 0 1 776 2007)">Modifications are automatically applied proportionally to all</text>
  <text style="stroke:none;fill:black;font-family:-apple-system,&quot;SF Pro Display&quot;,&quot;SF Pro Text&quot;,Helvetica,sans-serif;" transform="matrix(1 0 0 1 776 2025)">scales and weights.</text>
  <g id="" transform="matrix(1 0 0 1 1289 1933)">
   <path d="M2.8418 1.86523L4.54102 3.57422C5.40039 4.44336 6.38672 4.38477 7.31445 3.35938L17.4902-7.85156C17.7539-7.76367 18.0273-7.7832 18.3398-7.8418L19.4043-8.03711L20.0684-7.36328L20.0293-6.80664C19.9902-6.30859 20.1172-5.92773 20.6055-5.44922L21.3672-4.70703C21.8457-4.22852 22.4609-4.19922 22.9297-4.66797L25.8398-7.58789C26.3086-8.05664 26.2891-8.65234 25.8105-9.13086L25.0391-9.89258C24.5605-10.3711 24.1895-10.5273 23.7109-10.4883L23.1348-10.4395L22.4902-11.0742L22.7344-12.1973C22.8613-12.7637 22.7051-13.2031 22.1191-13.7891L19.9219-15.9766C16.582-19.2969 12.1484-19.2188 9.25781-16.3281C8.83789-15.918 8.80859-15.3418 9.04297-14.9512C9.27734-14.5898 9.73633-14.3555 10.3809-14.5215C11.8457-14.8633 13.3691-14.9219 14.7949-13.9844L14.209-12.5293C14.0137-12.0508 13.9844-11.6504 14.1113-11.2891L3.04688-0.898438C2.06055 0.0195312 1.98242 0.996094 2.8418 1.86523ZM10.752-15.957C13.1836-17.7344 16.4746-17.4316 18.7012-15.2051L21.1328-12.793C21.3672-12.5586 21.4062-12.373 21.3379-12.0312L21.0156-10.5469L22.5195-9.0625L23.5059-9.12109C23.7598-9.13086 23.8379-9.11133 24.0332-8.91602L24.6094-8.33984L22.168-5.89844L21.5918-6.47461C21.3965-6.66992 21.3672-6.74805 21.377-7.01172L21.4453-7.98828L19.9512-9.47266L18.4277-9.21875C18.1055-9.15039 17.959-9.17969 17.7148-9.41406L15.7129-11.416C15.459-11.6504 15.4297-11.8164 15.5859-12.1875L16.4648-14.2773C14.9023-15.7324 12.8711-16.3574 10.8398-15.7617C10.6836-15.7227 10.625-15.8496 10.752-15.957ZM5.27344 2.30469L4.10156 1.14258C3.63281 0.683594 3.74023 0.341797 4.14062-0.0195312L14.9512-10.1953L16.416-8.71094L6.42578 2.27539C6.07422 2.67578 5.74219 2.77344 5.27344 2.30469Z"/>
  </g>
  <text style="stroke:none;fill:black;font-family:-apple-system,&quot;SF Pro Display&quot;,&quot;SF Pro Text&quot;,Helvetica,sans-serif;font-weight:bold;" transform="matrix(1 0 0 1 1289 1953)">Exporting</text>
  <text style="stroke:none;fill:black;font-family:-apple-system,&quot;SF Pro Display&quot;,&quot;SF Pro Text&quot;,Helvetica,sans-serif;" transform="matrix(1 0 0 1 1289 1971)">Symbols should be outlined when exporting to ensure the</text>
  <text style="stroke:none;fill:black;font-family:-apple-system,&quot;SF Pro Display&quot;,&quot;SF Pro Text&quot;,Helvetica,sans-serif;" transform="matrix(1 0 0 1 1289 1989)">design is preserved when submitting to Xcode.</text>
  <text id="template-version" style="stroke:none;fill:black;font-family:-apple-system,&quot;SF Pro Display&quot;,&quot;SF Pro Text&quot;,Helvetica,sans-serif;text-anchor:end;" transform="matrix(1 0 0 1 3036 1933)">Template v.2.0</text>
  <text style="stroke:none;fill:black;font-family:-apple-system,&quot;SF Pro Display&quot;,&quot;SF Pro Text&quot;,Helvetica,sans-serif;text-anchor:end;" transform="matrix(1 0 0 1 3036 1951)">Requires Xcode 12 or greater</text>
  <text style="stroke:none;fill:black;font-family:-apple-system,&quot;SF Pro Display&quot;,&quot;SF Pro Text&quot;,Helvetica,sans-serif;" transform="matrix(1 0 0 1 263 726)">Small</text>
  <text style="stroke:none;fill:black;font-family:-apple-system,&quot;SF Pro Display&quot;,&quot;SF Pro Text&quot;,Helvetica,sans-serif;" transform="matrix(1 0 0 1 263 1156)">Medium</text>
  <text style="stroke:none;fill:black;font-family:-apple-system,&quot;SF Pro Display&quot;,&quot;SF Pro Text&quot;,Helvetica,sans-serif;" transform="matrix(1 0 0 1 263 1586)">Large</text>
 </g>
 <g id="Guides">
  <g id="H-reference" style="fill:#27AAE1;stroke:none;" transform="matrix(1 0 0 1 339 696)">
   <path d="M0.976562 0L3.66211 0L12.9883-24.4629L45.752-24.4629L55.127 0L57.7637 0L30.6152-70.459L28.125-70.459ZM29.3457-67.1387L29.4434-67.1387L44.873-26.709L13.8672-26.709Z"/>
  </g>
  <line id="Baseline-S" style="fill:none;stroke:#27AAE1;opacity:1;stroke-width:0.5;" x1="263" x2="3036" y1="696" y2="696"/>
  <line id="Capline-S" style="fill:none;stroke:#27AAE1;opacity:1;stroke-width:0.5;" x1="263" x2="3036" y1="625.541" y2="625.541"/>
  <g id="H-reference" style="fill:#27AAE1;stroke:none;" transform="matrix(1 0 0 1 339 1126)">
   <path d="M0.976562 0L3.66211 0L12.9883-24.4629L45.752-24.4629L55.127 0L57.7637 0L30.6152-70.459L28.125-70.459ZM29.3457-67.1387L29.4434-67.1387L44.873-26.709L13.8672-26.709Z"/>
  </g>
  <line id="Baseline-M" style="fill:none;stroke:#27AAE1;opacity:1;stroke-width:0.5;" x1="263" x2="3036" y1="1126" y2="1126"/>
  <line id="Capline-M" style="fill:none;stroke:#27AAE1;opacity:1;stroke-width:0.5;" x1="263" x2="3036" y1="1055.54" y2="1055.54"/>
  <g id="H-reference" style="fill:#27AAE1;stroke:none;" transform="matrix(1 0 0 1 339 1556)">
   <path d="M0.976562 0L3.66211 0L12.9883-24.4629L45.752-24.4629L55.127 0L57.7637 0L30.6152-70.459L28.125-70.459ZM29.3457-67.1387L29.4434-67.1387L44.873-26.709L13.8672-26.709Z"/>
  </g>
  <line id="Baseline-L" style="fill:none;stroke:#27AAE1;opacity:1;stroke-width:0.5;" x1="263" x2="3036" y1="1556" y2="1556"/>
  <line id="Capline-L" style="fill:none;stroke:#27AAE1;opacity:1;stroke-width:0.5;" x1="263" x2="3036" y1="1485.54" y2="1485.54"/>
  <line id="left-margin" x1="1393.554790525036" x2="1393.554790525036" y1="1030.79" y2="1150.12" style="fill:none;stroke:#00AEEF;stroke-width:0.5;opacity:1.0;"/>
  <line id="right-margin" x1="1508.9373675776856" x2="1508.9373675776856" y1="1030.79" y2="1150.12" style="fill:none;stroke:#00AEEF;stroke-width:0.5;opacity:1.0;"/>
 </g>
 <g id="Symbols">
  <g id="Black-L" transform="matrix(1.0,0.0,0.0,1.0,2859.809061450324,1451.9636043264475)">  <path stroke-miterlimit="4" xmlns:svg="http://www.w3.org/2000/svg" stroke="none" fill-rule="nonzero" version="1.1" stroke-dasharray="none" stroke-linejoin="miter" stroke-opacity="1" stroke-width="0.125px" fill-opacity="1" fill="#000000" stroke-linecap="butt" d="M74.915,0C72.191,0,69.468,1.019,67.037,3.058L2.195,57.472C0.706,58.726,-0,60.451,-0,62.019C-0,64.92,2.274,67.664,6.116,67.664C8.076,67.664,9.722,66.567,11.134,65.391L18.347,59.331L18.347,116.276C18.347,125.214,23.757,130.468,32.93,130.468L76.697,130.468L76.697,74.015L61.862,74.015C58.883,74.015,56.923,75.975,56.923,78.955L56.923,119.177L35.283,119.177C31.754,119.177,29.716,117.06,29.716,113.375L29.716,49.785L72.839,13.564C74.172,12.467,75.74,12.545,76.916,13.564L113.874,44.607L132.249,44.607L130.781,43.374L130.781,18.033C130.781,15.054,128.821,13.172,125.92,13.172L118.864,13.172C115.884,13.172,113.924,15.054,113.924,18.033L113.924,29.211L82.797,3.058C80.366,1.019,77.64,-0,74.915,-0ZM74.915,0"/>
  <path xmlns:svg="http://www.w3.org/2000/svg" stroke-linejoin="miter" stroke="none" stroke-opacity="1" stroke-miterlimit="4" stroke-linecap="butt" version="1.1" stroke-width="0.32982251048088074" fill-rule="nonzero" fill="#000000" fill-opacity="1" stroke-dasharray="none" d="M115.555,130.316C116.124,130.316,117.158,130.109,118.296,129.489C141.518,116.765,149.742,110.973,149.742,95.664L149.742,64.528C149.742,60.287,147.725,58.994,144.518,57.598C140.329,55.787,123.209,49.736,119.02,48.288C117.934,47.926,116.744,47.667,115.555,47.667C114.365,47.667,113.124,48.029,112.089,48.288C107.9,49.322,90.781,55.839,86.592,57.598C83.385,58.942,81.368,60.287,81.368,64.528L81.368,95.664C81.368,110.973,89.591,116.714,112.814,129.489C113.951,130.109,114.986,130.316,115.555,130.316ZM115.555,121.834C114.934,121.834,114.313,121.679,112.917,120.903C94.246,109.731,88.712,106.421,88.712,93.853L88.712,65.924C88.712,64.993,88.919,64.58,89.746,64.218C96.367,61.632,107.538,58.063,114.158,55.425C114.676,55.218,115.141,55.167,115.555,55.167C115.968,55.167,116.434,55.218,116.951,55.425C123.52,58.063,134.536,61.942,141.311,64.218C142.191,64.528,142.346,64.993,142.346,65.924L142.346,93.853C142.346,106.421,136.812,109.731,118.141,120.903C116.796,121.679,116.175,121.834,115.555,121.834ZM115.555,121.834"/>
</g>
  <g id="Heavy-L" transform="matrix(1.0,0.0,0.0,1.0,2563.099061450324,1451.9636043264475)">  <path stroke-linecap="butt" stroke-width="0.125px" stroke-opacity="1" stroke-miterlimit="4" stroke-linejoin="miter" fill="#000000" fill-opacity="1" xmlns:svg="http://www.w3.org/2000/svg" version="1.1" fill-rule="nonzero" stroke="none" stroke-dasharray="none" d="M74.915,0C72.191,0,69.468,1.019,67.037,3.058L2.195,57.472C0.706,58.726,-0,60.451,-0,62.019C-0,64.92,2.274,67.664,6.116,67.664C8.076,67.664,9.722,66.567,11.134,65.391L18.347,59.331L18.347,116.276C18.347,125.214,23.757,130.468,32.93,130.468L76.697,130.468L76.697,74.015L61.862,74.015C58.883,74.015,56.923,75.975,56.923,78.955L56.923,119.177L35.283,119.177C31.754,119.177,29.716,117.06,29.716,113.375L29.716,49.785L72.839,13.564C74.172,12.467,75.74,12.545,76.916,13.564L113.874,44.607L132.249,44.607L130.781,43.374L130.781,18.033C130.781,15.054,128.821,13.172,125.92,13.172L118.864,13.172C115.884,13.172,113.924,15.054,113.924,18.033L113.924,29.211L82.797,3.058C80.366,1.019,77.64,-0,74.915,-0ZM74.915,0"/>
  <path stroke-width="0.32982251048088074" xmlns:svg="http://www.w3.org/2000/svg" stroke="none" version="1.1" stroke-dasharray="none" stroke-opacity="1" stroke-miterlimit="4" stroke-linejoin="miter" fill="#000000" fill-rule="nonzero" fill-opacity="1" stroke-linecap="butt" d="M115.555,130.316C116.124,130.316,117.158,130.109,118.296,129.489C141.518,116.765,149.742,110.973,149.742,95.664L149.742,64.528C149.742,60.287,147.725,58.994,144.518,57.598C140.329,55.787,123.209,49.736,119.02,48.288C117.934,47.926,116.744,47.667,115.555,47.667C114.365,47.667,113.124,48.029,112.089,48.288C107.9,49.322,90.781,55.839,86.592,57.598C83.385,58.942,81.368,60.287,81.368,64.528L81.368,95.664C81.368,110.973,89.591,116.714,112.814,129.489C113.951,130.109,114.986,130.316,115.555,130.316ZM115.555,121.834C114.934,121.834,114.313,121.679,112.917,120.903C94.246,109.731,88.712,106.421,88.712,93.853L88.712,65.924C88.712,64.993,88.919,64.58,89.746,64.218C96.367,61.632,107.538,58.063,114.158,55.425C114.676,55.218,115.141,55.167,115.555,55.167C115.968,55.167,116.434,55.218,116.951,55.425C123.52,58.063,134.536,61.942,141.311,64.218C142.191,64.528,142.346,64.993,142.346,65.924L142.346,93.853C142.346,106.421,136.812,109.731,118.141,120.903C116.796,121.679,116.175,121.834,115.555,121.834ZM115.555,121.834"/>
</g>
  <g id="Bold-L" transform="matrix(1.0,0.0,0.0,1.0,2266.389061450324,1451.9636043264475)">  <path stroke-width="0.125px" stroke="none" stroke-linecap="butt" xmlns:svg="http://www.w3.org/2000/svg" fill-opacity="1" stroke-dasharray="none" fill="#000000" stroke-miterlimit="4" version="1.1" fill-rule="nonzero" stroke-opacity="1" stroke-linejoin="miter" d="M74.915,0C72.191,0,69.468,1.019,67.037,3.058L2.195,57.472C0.706,58.726,-0,60.451,-0,62.019C-0,64.92,2.274,67.664,6.116,67.664C8.076,67.664,9.722,66.567,11.134,65.391L18.347,59.331L18.347,116.276C18.347,125.214,23.757,130.468,32.93,130.468L76.697,130.468L76.697,74.015L61.862,74.015C58.883,74.015,56.923,75.975,56.923,78.955L56.923,119.177L35.283,119.177C31.754,119.177,29.716,117.06,29.716,113.375L29.716,49.785L72.839,13.564C74.172,12.467,75.74,12.545,76.916,13.564L113.874,44.607L132.249,44.607L130.781,43.374L130.781,18.033C130.781,15.054,128.821,13.172,125.92,13.172L118.864,13.172C115.884,13.172,113.924,15.054,113.924,18.033L113.924,29.211L82.797,3.058C80.366,1.019,77.64,-0,74.915,-0ZM74.915,0"/>
  <path stroke-opacity="1" fill="#000000" fill-opacity="1" stroke="none" version="1.1" xmlns:svg="http://www.w3.org/2000/svg" stroke-dasharray="none" stroke-linecap="butt" stroke-width="0.32982251048088074" fill-rule="nonzero" stroke-linejoin="miter" stroke-miterlimit="4" d="M115.555,130.316C116.124,130.316,117.158,130.109,118.296,129.489C141.518,116.765,149.742,110.973,149.742,95.664L149.742,64.528C149.742,60.287,147.725,58.994,144.518,57.598C140.329,55.787,123.209,49.736,119.02,48.288C117.934,47.926,116.744,47.667,115.555,47.667C114.365,47.667,113.124,48.029,112.089,48.288C107.9,49.322,90.781,55.839,86.592,57.598C83.385,58.942,81.368,60.287,81.368,64.528L81.368,95.664C81.368,110.973,89.591,116.714,112.814,129.489C113.951,130.109,114.986,130.316,115.555,130.316ZM115.555,121.834C114.934,121.834,114.313,121.679,112.917,120.903C94.246,109.731,88.712,106.421,88.712,93.853L88.712,65.924C88.712,64.993,88.919,64.58,89.746,64.218C96.367,61.632,107.538,58.063,114.158,55.425C114.676,55.218,115.141,55.167,115.555,55.167C115.968,55.167,116.434,55.218,116.951,55.425C123.52,58.063,134.536,61.942,141.311,64.218C142.191,64.528,142.346,64.993,142.346,65.924L142.346,93.853C142.346,106.421,136.812,109.731,118.141,120.903C116.796,121.679,116.175,121.834,115.555,121.834ZM115.555,121.834"/>
</g>
  <g id="Semibold-L" transform="matrix(1.0,0.0,0.0,1.0,1969.679061450324,1451.9636043264475)">  <path fill-opacity="1" stroke="none" fill-rule="nonzero" stroke-linejoin="miter" stroke-width="0.125px" xmlns:svg="http://www.w3.org/2000/svg" stroke-opacity="1" stroke-miterlimit="4" fill="#000000" version="1.1" stroke-dasharray="none" stroke-linecap="butt" d="M74.915,0C72.191,0,69.468,1.019,67.037,3.058L2.195,57.472C0.706,58.726,-0,60.451,-0,62.019C-0,64.92,2.274,67.664,6.116,67.664C8.076,67.664,9.722,66.567,11.134,65.391L18.347,59.331L18.347,116.276C18.347,125.214,23.757,130.468,32.93,130.468L76.697,130.468L76.697,74.015L61.862,74.015C58.883,74.015,56.923,75.975,56.923,78.955L56.923,119.177L35.283,119.177C31.754,119.177,29.716,117.06,29.716,113.375L29.716,49.785L72.839,13.564C74.172,12.467,75.74,12.545,76.916,13.564L113.874,44.607L132.249,44.607L130.781,43.374L130.781,18.033C130.781,15.054,128.821,13.172,125.92,13.172L118.864,13.172C115.884,13.172,113.924,15.054,113.924,18.033L113.924,29.211L82.797,3.058C80.366,1.019,77.64,-0,74.915,-0ZM74.915,0"/>
  <path stroke-dasharray="none" fill-opacity="1" xmlns:svg="http://www.w3.org/2000/svg" fill-rule="nonzero" stroke-width="0.32982251048088074" stroke="none" stroke-miterlimit="4" stroke-linejoin="miter" version="1.1" fill="#000000" stroke-opacity="1" stroke-linecap="butt" d="M115.555,130.316C116.124,130.316,117.158,130.109,118.296,129.489C141.518,116.765,149.742,110.973,149.742,95.664L149.742,64.528C149.742,60.287,147.725,58.994,144.518,57.598C140.329,55.787,123.209,49.736,119.02,48.288C117.934,47.926,116.744,47.667,115.555,47.667C114.365,47.667,113.124,48.029,112.089,48.288C107.9,49.322,90.781,55.839,86.592,57.598C83.385,58.942,81.368,60.287,81.368,64.528L81.368,95.664C81.368,110.973,89.591,116.714,112.814,129.489C113.951,130.109,114.986,130.316,115.555,130.316ZM115.555,121.834C114.934,121.834,114.313,121.679,112.917,120.903C94.246,109.731,88.712,106.421,88.712,93.853L88.712,65.924C88.712,64.993,88.919,64.58,89.746,64.218C96.367,61.632,107.538,58.063,114.158,55.425C114.676,55.218,115.141,55.167,115.555,55.167C115.968,55.167,116.434,55.218,116.951,55.425C123.52,58.063,134.536,61.942,141.311,64.218C142.191,64.528,142.346,64.993,142.346,65.924L142.346,93.853C142.346,106.421,136.812,109.731,118.141,120.903C116.796,121.679,116.175,121.834,115.555,121.834ZM115.555,121.834"/>
</g>
  <g id="Medium-L" transform="matrix(1.0,0.0,0.0,1.0,1672.969061450324,1451.9636043264475)">  <path stroke-miterlimit="4" stroke-width="0.125px" stroke-linejoin="miter" fill="#000000" stroke="none" stroke-dasharray="none" xmlns:svg="http://www.w3.org/2000/svg" stroke-opacity="1" fill-opacity="1" version="1.1" fill-rule="nonzero" stroke-linecap="butt" d="M74.915,0C72.191,0,69.468,1.019,67.037,3.058L2.195,57.472C0.706,58.726,-0,60.451,-0,62.019C-0,64.92,2.274,67.664,6.116,67.664C8.076,67.664,9.722,66.567,11.134,65.391L18.347,59.331L18.347,116.276C18.347,125.214,23.757,130.468,32.93,130.468L76.697,130.468L76.697,74.015L61.862,74.015C58.883,74.015,56.923,75.975,56.923,78.955L56.923,119.177L35.283,119.177C31.754,119.177,29.716,117.06,29.716,113.375L29.716,49.785L72.839,13.564C74.172,12.467,75.74,12.545,76.916,13.564L113.874,44.607L132.249,44.607L130.781,43.374L130.781,18.033C130.781,15.054,128.821,13.172,125.92,13.172L118.864,13.172C115.884,13.172,113.924,15.054,113.924,18.033L113.924,29.211L82.797,3.058C80.366,1.019,77.64,-0,74.915,-0ZM74.915,0"/>
  <path stroke="none" xmlns:svg="http://www.w3.org/2000/svg" stroke-miterlimit="4" fill="#000000" stroke-dasharray="none" fill-rule="nonzero" stroke-opacity="1" stroke-linejoin="miter" version="1.1" stroke-linecap="butt" fill-opacity="1" stroke-width="0.32982251048088074" d="M115.555,130.316C116.124,130.316,117.158,130.109,118.296,129.489C141.518,116.765,149.742,110.973,149.742,95.664L149.742,64.528C149.742,60.287,147.725,58.994,144.518,57.598C140.329,55.787,123.209,49.736,119.02,48.288C117.934,47.926,116.744,47.667,115.555,47.667C114.365,47.667,113.124,48.029,112.089,48.288C107.9,49.322,90.781,55.839,86.592,57.598C83.385,58.942,81.368,60.287,81.368,64.528L81.368,95.664C81.368,110.973,89.591,116.714,112.814,129.489C113.951,130.109,114.986,130.316,115.555,130.316ZM115.555,121.834C114.934,121.834,114.313,121.679,112.917,120.903C94.246,109.731,88.712,106.421,88.712,93.853L88.712,65.924C88.712,64.993,88.919,64.58,89.746,64.218C96.367,61.632,107.538,58.063,114.158,55.425C114.676,55.218,115.141,55.167,115.555,55.167C115.968,55.167,116.434,55.218,116.951,55.425C123.52,58.063,134.536,61.942,141.311,64.218C142.191,64.528,142.346,64.993,142.346,65.924L142.346,93.853C142.346,106.421,136.812,109.731,118.141,120.903C116.796,121.679,116.175,121.834,115.555,121.834ZM115.555,121.834"/>
</g>
  <g id="Regular-L" transform="matrix(1.0,0.0,0.0,1.0,1376.259061450324,1451.9636043264475)">  <path xmlns:svg="http://www.w3.org/2000/svg" fill-rule="nonzero" version="1.1" stroke-dasharray="none" stroke-linecap="butt" stroke-miterlimit="4" stroke="none" stroke-opacity="1" fill-opacity="1" stroke-linejoin="miter" fill="#000000" stroke-width="0.125px" d="M74.915,0C72.191,0,69.468,1.019,67.037,3.058L2.195,57.472C0.706,58.726,-0,60.451,-0,62.019C-0,64.92,2.274,67.664,6.116,67.664C8.076,67.664,9.722,66.567,11.134,65.391L18.347,59.331L18.347,116.276C18.347,125.214,23.757,130.468,32.93,130.468L76.697,130.468L76.697,74.015L61.862,74.015C58.883,74.015,56.923,75.975,56.923,78.955L56.923,119.177L35.283,119.177C31.754,119.177,29.716,117.06,29.716,113.375L29.716,49.785L72.839,13.564C74.172,12.467,75.74,12.545,76.916,13.564L113.874,44.607L132.249,44.607L130.781,43.374L130.781,18.033C130.781,15.054,128.821,13.172,125.92,13.172L118.864,13.172C115.884,13.172,113.924,15.054,113.924,18.033L113.924,29.211L82.797,3.058C80.366,1.019,77.64,-0,74.915,-0ZM74.915,0"/>
  <path stroke-dasharray="none" fill="#000000" stroke-miterlimit="4" stroke="none" fill-rule="nonzero" stroke-linecap="butt" version="1.1" stroke-linejoin="miter" xmlns:svg="http://www.w3.org/2000/svg" stroke-opacity="1" stroke-width="0.32982251048088074" fill-opacity="1" d="M115.555,130.316C116.124,130.316,117.158,130.109,118.296,129.489C141.518,116.765,149.742,110.973,149.742,95.664L149.742,64.528C149.742,60.287,147.725,58.994,144.518,57.598C140.329,55.787,123.209,49.736,119.02,48.288C117.934,47.926,116.744,47.667,115.555,47.667C114.365,47.667,113.124,48.029,112.089,48.288C107.9,49.322,90.781,55.839,86.592,57.598C83.385,58.942,81.368,60.287,81.368,64.528L81.368,95.664C81.368,110.973,89.591,116.714,112.814,129.489C113.951,130.109,114.986,130.316,115.555,130.316ZM115.555,121.834C114.934,121.834,114.313,121.679,112.917,120.903C94.246,109.731,88.712,106.421,88.712,93.853L88.712,65.924C88.712,64.993,88.919,64.58,89.746,64.218C96.367,61.632,107.538,58.063,114.158,55.425C114.676,55.218,115.141,55.167,115.555,55.167C115.968,55.167,116.434,55.218,116.951,55.425C123.52,58.063,134.536,61.942,141.311,64.218C142.191,64.528,142.346,64.993,142.346,65.924L142.346,93.853C142.346,106.421,136.812,109.731,118.141,120.903C116.796,121.679,116.175,121.834,115.555,121.834ZM115.555,121.834"/>
</g>
  <g id="Light-L" transform="matrix(1.0,0.0,0.0,1.0,1079.5490614503242,1451.9636043264475)">  <path xmlns:svg="http://www.w3.org/2000/svg" stroke-linecap="butt" stroke-opacity="1" stroke-dasharray="none" stroke-linejoin="miter" stroke-miterlimit="4" stroke-width="0.125px" stroke="none" fill="#000000" version="1.1" fill-opacity="1" fill-rule="nonzero" d="M74.915,0C72.191,0,69.468,1.019,67.037,3.058L2.195,57.472C0.706,58.726,-0,60.451,-0,62.019C-0,64.92,2.274,67.664,6.116,67.664C8.076,67.664,9.722,66.567,11.134,65.391L18.347,59.331L18.347,116.276C18.347,125.214,23.757,130.468,32.93,130.468L76.697,130.468L76.697,74.015L61.862,74.015C58.883,74.015,56.923,75.975,56.923,78.955L56.923,119.177L35.283,119.177C31.754,119.177,29.716,117.06,29.716,113.375L29.716,49.785L72.839,13.564C74.172,12.467,75.74,12.545,76.916,13.564L113.874,44.607L132.249,44.607L130.781,43.374L130.781,18.033C130.781,15.054,128.821,13.172,125.92,13.172L118.864,13.172C115.884,13.172,113.924,15.054,113.924,18.033L113.924,29.211L82.797,3.058C80.366,1.019,77.64,-0,74.915,-0ZM74.915,0"/>
  <path stroke-linejoin="miter" fill="#000000" stroke-dasharray="none" xmlns:svg="http://www.w3.org/2000/svg" stroke-width="0.32982251048088074" stroke-miterlimit="4" stroke-opacity="1" fill-opacity="1" stroke-linecap="butt" stroke="none" version="1.1" fill-rule="nonzero" d="M115.555,130.316C116.124,130.316,117.158,130.109,118.296,129.489C141.518,116.765,149.742,110.973,149.742,95.664L149.742,64.528C149.742,60.287,147.725,58.994,144.518,57.598C140.329,55.787,123.209,49.736,119.02,48.288C117.934,47.926,116.744,47.667,115.555,47.667C114.365,47.667,113.124,48.029,112.089,48.288C107.9,49.322,90.781,55.839,86.592,57.598C83.385,58.942,81.368,60.287,81.368,64.528L81.368,95.664C81.368,110.973,89.591,116.714,112.814,129.489C113.951,130.109,114.986,130.316,115.555,130.316ZM115.555,121.834C114.934,121.834,114.313,121.679,112.917,120.903C94.246,109.731,88.712,106.421,88.712,93.853L88.712,65.924C88.712,64.993,88.919,64.58,89.746,64.218C96.367,61.632,107.538,58.063,114.158,55.425C114.676,55.218,115.141,55.167,115.555,55.167C115.968,55.167,116.434,55.218,116.951,55.425C123.52,58.063,134.536,61.942,141.311,64.218C142.191,64.528,142.346,64.993,142.346,65.924L142.346,93.853C142.346,106.421,136.812,109.731,118.141,120.903C116.796,121.679,116.175,121.834,115.555,121.834ZM115.555,121.834"/>
</g>
  <g id="Thin-L" transform="matrix(1.0,0.0,0.0,1.0,782.8390614503244,1451.9636043264475)">  <path stroke-linecap="butt" fill-opacity="1" stroke-dasharray="none" stroke-width="0.125px" fill-rule="nonzero" stroke-linejoin="miter" xmlns:svg="http://www.w3.org/2000/svg" stroke="none" stroke-miterlimit="4" fill="#000000" stroke-opacity="1" version="1.1" d="M74.915,0C72.191,0,69.468,1.019,67.037,3.058L2.195,57.472C0.706,58.726,-0,60.451,-0,62.019C-0,64.92,2.274,67.664,6.116,67.664C8.076,67.664,9.722,66.567,11.134,65.391L18.347,59.331L18.347,116.276C18.347,125.214,23.757,130.468,32.93,130.468L76.697,130.468L76.697,74.015L61.862,74.015C58.883,74.015,56.923,75.975,56.923,78.955L56.923,119.177L35.283,119.177C31.754,119.177,29.716,117.06,29.716,113.375L29.716,49.785L72.839,13.564C74.172,12.467,75.74,12.545,76.916,13.564L113.874,44.607L132.249,44.607L130.781,43.374L130.781,18.033C130.781,15.054,128.821,13.172,125.92,13.172L118.864,13.172C115.884,13.172,113.924,15.054,113.924,18.033L113.924,29.211L82.797,3.058C80.366,1.019,77.64,-0,74.915,-0ZM74.915,0"/>
  <path fill-rule="nonzero" stroke-linecap="butt" version="1.1" stroke-dasharray="none" xmlns:svg="http://www.w3.org/2000/svg" stroke-miterlimit="4" stroke="none" stroke-width="0.32982251048088074" stroke-linejoin="miter" fill="#000000" stroke-opacity="1" fill-opacity="1" d="M115.555,130.316C116.124,130.316,117.158,130.109,118.296,129.489C141.518,116.765,149.742,110.973,149.742,95.664L149.742,64.528C149.742,60.287,147.725,58.994,144.518,57.598C140.329,55.787,123.209,49.736,119.02,48.288C117.934,47.926,116.744,47.667,115.555,47.667C114.365,47.667,113.124,48.029,112.089,48.288C107.9,49.322,90.781,55.839,86.592,57.598C83.385,58.942,81.368,60.287,81.368,64.528L81.368,95.664C81.368,110.973,89.591,116.714,112.814,129.489C113.951,130.109,114.986,130.316,115.555,130.316ZM115.555,121.834C114.934,121.834,114.313,121.679,112.917,120.903C94.246,109.731,88.712,106.421,88.712,93.853L88.712,65.924C88.712,64.993,88.919,64.58,89.746,64.218C96.367,61.632,107.538,58.063,114.158,55.425C114.676,55.218,115.141,55.167,115.555,55.167C115.968,55.167,116.434,55.218,116.951,55.425C123.52,58.063,134.536,61.942,141.311,64.218C142.191,64.528,142.346,64.993,142.346,65.924L142.346,93.853C142.346,106.421,136.812,109.731,118.141,120.903C116.796,121.679,116.175,121.834,115.555,121.834ZM115.555,121.834"/>
</g>
  <g id="Ultralight-L" transform="matrix(1.0,0.0,0.0,1.0,486.12906145032434,1451.9636043264475)">  <path fill="#000000" stroke-miterlimit="4" stroke-linejoin="miter" stroke="none" stroke-width="0.125px" stroke-opacity="1" stroke-dasharray="none" fill-opacity="1" xmlns:svg="http://www.w3.org/2000/svg" stroke-linecap="butt" version="1.1" fill-rule="nonzero" d="M74.915,0C72.191,0,69.468,1.019,67.037,3.058L2.195,57.472C0.706,58.726,-0,60.451,-0,62.019C-0,64.92,2.274,67.664,6.116,67.664C8.076,67.664,9.722,66.567,11.134,65.391L18.347,59.331L18.347,116.276C18.347,125.214,23.757,130.468,32.93,130.468L76.697,130.468L76.697,74.015L61.862,74.015C58.883,74.015,56.923,75.975,56.923,78.955L56.923,119.177L35.283,119.177C31.754,119.177,29.716,117.06,29.716,113.375L29.716,49.785L72.839,13.564C74.172,12.467,75.74,12.545,76.916,13.564L113.874,44.607L132.249,44.607L130.781,43.374L130.781,18.033C130.781,15.054,128.821,13.172,125.92,13.172L118.864,13.172C115.884,13.172,113.924,15.054,113.924,18.033L113.924,29.211L82.797,3.058C80.366,1.019,77.64,-0,74.915,-0ZM74.915,0"/>
  <path fill-opacity="1" stroke-miterlimit="4" version="1.1" fill-rule="nonzero" stroke-width="0.32982251048088074" stroke="none" fill="#000000" stroke-dasharray="none" xmlns:svg="http://www.w3.org/2000/svg" stroke-linecap="butt" stroke-opacity="1" stroke-linejoin="miter" d="M115.555,130.316C116.124,130.316,117.158,130.109,118.296,129.489C141.518,116.765,149.742,110.973,149.742,95.664L149.742,64.528C149.742,60.287,147.725,58.994,144.518,57.598C140.329,55.787,123.209,49.736,119.02,48.288C117.934,47.926,116.744,47.667,115.555,47.667C114.365,47.667,113.124,48.029,112.089,48.288C107.9,49.322,90.781,55.839,86.592,57.598C83.385,58.942,81.368,60.287,81.368,64.528L81.368,95.664C81.368,110.973,89.591,116.714,112.814,129.489C113.951,130.109,114.986,130.316,115.555,130.316ZM115.555,121.834C114.934,121.834,114.313,121.679,112.917,120.903C94.246,109.731,88.712,106.421,88.712,93.853L88.712,65.924C88.712,64.993,88.919,64.58,89.746,64.218C96.367,61.632,107.538,58.063,114.158,55.425C114.676,55.218,115.141,55.167,115.555,55.167C115.968,55.167,116.434,55.218,116.951,55.425C123.52,58.063,134.536,61.942,141.311,64.218C142.191,64.528,142.346,64.993,142.346,65.924L142.346,93.853C142.346,106.421,136.812,109.731,118.141,120.903C116.796,121.679,116.175,121.834,115.555,121.834ZM115.555,121.834"/>
</g>
  <g id="Black-M" transform="matrix(1.0,0.0,0.0,1.0,2876.6405127521894,1037.4317131709379)">  <path stroke-miterlimit="4" xmlns:svg="http://www.w3.org/2000/svg" stroke="none" fill-rule="nonzero" version="1.1" stroke-dasharray="none" stroke-linejoin="miter" stroke-opacity="1" stroke-width="0.125px" fill-opacity="1" fill="#000000" stroke-linecap="butt" d="M58.074,0C55.962,0,53.851,0.79,51.967,2.37L1.702,44.552C0.547,45.524,-0,46.861,-0,48.077C-0,50.326,1.763,52.453,4.741,52.453C6.26,52.453,7.537,51.602,8.631,50.69L14.222,45.993L14.222,90.137C14.222,97.065,18.416,101.138,25.528,101.138L59.455,101.138L59.455,57.376L47.955,57.376C45.646,57.376,44.126,58.896,44.126,61.205L44.126,92.385L27.351,92.385C24.616,92.385,23.036,90.744,23.036,87.888L23.036,38.593L56.464,10.515C57.498,9.664,58.713,9.725,59.625,10.515L88.274,34.579L102.519,34.579L101.381,33.623L101.381,13.979C101.381,11.67,99.861,10.211,97.612,10.211L92.142,10.211C89.833,10.211,88.313,11.67,88.313,13.979L88.313,22.644L64.184,2.37C62.299,0.79,60.186,-0,58.074,-0ZM58.074,0"/>
  <path xmlns:svg="http://www.w3.org/2000/svg" stroke-linejoin="miter" stroke="none" stroke-opacity="1" stroke-miterlimit="4" stroke-linecap="butt" version="1.1" stroke-width="0.32982251048088074" fill-rule="nonzero" fill="#000000" fill-opacity="1" stroke-dasharray="none" d="M89.577,101.02C90.018,101.02,90.82,100.86,91.702,100.379C109.704,90.516,116.079,86.025,116.079,74.158L116.079,50.022C116.079,46.734,114.515,45.732,112.029,44.649C108.782,43.246,95.511,38.555,92.264,37.433C91.422,37.152,90.5,36.951,89.577,36.951C88.655,36.951,87.693,37.232,86.891,37.433C83.644,38.234,70.373,43.286,67.125,44.649C64.639,45.692,63.076,46.734,63.076,50.022L63.076,74.158C63.076,86.025,69.451,90.476,87.452,100.379C88.334,100.86,89.136,101.02,89.577,101.02ZM89.577,94.445C89.096,94.445,88.615,94.325,87.533,93.723C73.059,85.063,68.769,82.497,68.769,72.755L68.769,51.104C68.769,50.383,68.929,50.062,69.571,49.781C74.703,47.776,83.363,45.01,88.495,42.965C88.896,42.805,89.257,42.765,89.577,42.765C89.898,42.765,90.259,42.805,90.66,42.965C95.752,45.01,104.291,48.017,109.544,49.781C110.225,50.022,110.346,50.383,110.346,51.104L110.346,72.755C110.346,82.497,106.056,85.063,91.582,93.723C90.54,94.325,90.059,94.445,89.577,94.445ZM89.577,94.445"/>
</g>
  <g id="Heavy-M" transform="matrix(1.0,0.0,0.0,1.0,2579.9305127521893,1037.4317131709379)">  <path stroke-linecap="butt" stroke-width="0.125px" stroke-opacity="1" stroke-miterlimit="4" stroke-linejoin="miter" fill="#000000" fill-opacity="1" xmlns:svg="http://www.w3.org/2000/svg" version="1.1" fill-rule="nonzero" stroke="none" stroke-dasharray="none" d="M58.074,0C55.962,0,53.851,0.79,51.967,2.37L1.702,44.552C0.547,45.524,-0,46.861,-0,48.077C-0,50.326,1.763,52.453,4.741,52.453C6.26,52.453,7.537,51.602,8.631,50.69L14.222,45.993L14.222,90.137C14.222,97.065,18.416,101.138,25.528,101.138L59.455,101.138L59.455,57.376L47.955,57.376C45.646,57.376,44.126,58.896,44.126,61.205L44.126,92.385L27.351,92.385C24.616,92.385,23.036,90.744,23.036,87.888L23.036,38.593L56.464,10.515C57.498,9.664,58.713,9.725,59.625,10.515L88.274,34.579L102.519,34.579L101.381,33.623L101.381,13.979C101.381,11.67,99.861,10.211,97.612,10.211L92.142,10.211C89.833,10.211,88.313,11.67,88.313,13.979L88.313,22.644L64.184,2.37C62.299,0.79,60.186,-0,58.074,-0ZM58.074,0"/>
  <path stroke-width="0.32982251048088074" xmlns:svg="http://www.w3.org/2000/svg" stroke="none" version="1.1" stroke-dasharray="none" stroke-opacity="1" stroke-miterlimit="4" stroke-linejoin="miter" fill="#000000" fill-rule="nonzero" fill-opacity="1" stroke-linecap="butt" d="M89.577,101.02C90.018,101.02,90.82,100.86,91.702,100.379C109.704,90.516,116.079,86.025,116.079,74.158L116.079,50.022C116.079,46.734,114.515,45.732,112.029,44.649C108.782,43.246,95.511,38.555,92.264,37.433C91.422,37.152,90.5,36.951,89.577,36.951C88.655,36.951,87.693,37.232,86.891,37.433C83.644,38.234,70.373,43.286,67.125,44.649C64.639,45.692,63.076,46.734,63.076,50.022L63.076,74.158C63.076,86.025,69.451,90.476,87.452,100.379C88.334,100.86,89.136,101.02,89.577,101.02ZM89.577,94.445C89.096,94.445,88.615,94.325,87.533,93.723C73.059,85.063,68.769,82.497,68.769,72.755L68.769,51.104C68.769,50.383,68.929,50.062,69.571,49.781C74.703,47.776,83.363,45.01,88.495,42.965C88.896,42.805,89.257,42.765,89.577,42.765C89.898,42.765,90.259,42.805,90.66,42.965C95.752,45.01,104.291,48.017,109.544,49.781C110.225,50.022,110.346,50.383,110.346,51.104L110.346,72.755C110.346,82.497,106.056,85.063,91.582,93.723C90.54,94.325,90.059,94.445,89.577,94.445ZM89.577,94.445"/>
</g>
  <g id="Bold-M" transform="matrix(1.0,0.0,0.0,1.0,2283.2205127521893,1037.4317131709379)">  <path stroke-width="0.125px" stroke="none" stroke-linecap="butt" xmlns:svg="http://www.w3.org/2000/svg" fill-opacity="1" stroke-dasharray="none" fill="#000000" stroke-miterlimit="4" version="1.1" fill-rule="nonzero" stroke-opacity="1" stroke-linejoin="miter" d="M58.074,0C55.962,0,53.851,0.79,51.967,2.37L1.702,44.552C0.547,45.524,-0,46.861,-0,48.077C-0,50.326,1.763,52.453,4.741,52.453C6.26,52.453,7.537,51.602,8.631,50.69L14.222,45.993L14.222,90.137C14.222,97.065,18.416,101.138,25.528,101.138L59.455,101.138L59.455,57.376L47.955,57.376C45.646,57.376,44.126,58.896,44.126,61.205L44.126,92.385L27.351,92.385C24.616,92.385,23.036,90.744,23.036,87.888L23.036,38.593L56.464,10.515C57.498,9.664,58.713,9.725,59.625,10.515L88.274,34.579L102.519,34.579L101.381,33.623L101.381,13.979C101.381,11.67,99.861,10.211,97.612,10.211L92.142,10.211C89.833,10.211,88.313,11.67,88.313,13.979L88.313,22.644L64.184,2.37C62.299,0.79,60.186,-0,58.074,-0ZM58.074,0"/>
  <path stroke-opacity="1" fill="#000000" fill-opacity="1" stroke="none" version="1.1" xmlns:svg="http://www.w3.org/2000/svg" stroke-dasharray="none" stroke-linecap="butt" stroke-width="0.32982251048088074" fill-rule="nonzero" stroke-linejoin="miter" stroke-miterlimit="4" d="M89.577,101.02C90.018,101.02,90.82,100.86,91.702,100.379C109.704,90.516,116.079,86.025,116.079,74.158L116.079,50.022C116.079,46.734,114.515,45.732,112.029,44.649C108.782,43.246,95.511,38.555,92.264,37.433C91.422,37.152,90.5,36.951,89.577,36.951C88.655,36.951,87.693,37.232,86.891,37.433C83.644,38.234,70.373,43.286,67.125,44.649C64.639,45.692,63.076,46.734,63.076,50.022L63.076,74.158C63.076,86.025,69.451,90.476,87.452,100.379C88.334,100.86,89.136,101.02,89.577,101.02ZM89.577,94.445C89.096,94.445,88.615,94.325,87.533,93.723C73.059,85.063,68.769,82.497,68.769,72.755L68.769,51.104C68.769,50.383,68.929,50.062,69.571,49.781C74.703,47.776,83.363,45.01,88.495,42.965C88.896,42.805,89.257,42.765,89.577,42.765C89.898,42.765,90.259,42.805,90.66,42.965C95.752,45.01,104.291,48.017,109.544,49.781C110.225,50.022,110.346,50.383,110.346,51.104L110.346,72.755C110.346,82.497,106.056,85.063,91.582,93.723C90.54,94.325,90.059,94.445,89.577,94.445ZM89.577,94.445"/>
</g>
  <g id="Semibold-M" transform="matrix(1.0,0.0,0.0,1.0,1986.5105127521895,1037.4317131709379)">  <path fill-opacity="1" stroke="none" fill-rule="nonzero" stroke-linejoin="miter" stroke-width="0.125px" xmlns:svg="http://www.w3.org/2000/svg" stroke-opacity="1" stroke-miterlimit="4" fill="#000000" version="1.1" stroke-dasharray="none" stroke-linecap="butt" d="M58.074,0C55.962,0,53.851,0.79,51.967,2.37L1.702,44.552C0.547,45.524,-0,46.861,-0,48.077C-0,50.326,1.763,52.453,4.741,52.453C6.26,52.453,7.537,51.602,8.631,50.69L14.222,45.993L14.222,90.137C14.222,97.065,18.416,101.138,25.528,101.138L59.455,101.138L59.455,57.376L47.955,57.376C45.646,57.376,44.126,58.896,44.126,61.205L44.126,92.385L27.351,92.385C24.616,92.385,23.036,90.744,23.036,87.888L23.036,38.593L56.464,10.515C57.498,9.664,58.713,9.725,59.625,10.515L88.274,34.579L102.519,34.579L101.381,33.623L101.381,13.979C101.381,11.67,99.861,10.211,97.612,10.211L92.142,10.211C89.833,10.211,88.313,11.67,88.313,13.979L88.313,22.644L64.184,2.37C62.299,0.79,60.186,-0,58.074,-0ZM58.074,0"/>
  <path stroke-dasharray="none" fill-opacity="1" xmlns:svg="http://www.w3.org/2000/svg" fill-rule="nonzero" stroke-width="0.32982251048088074" stroke="none" stroke-miterlimit="4" stroke-linejoin="miter" version="1.1" fill="#000000" stroke-opacity="1" stroke-linecap="butt" d="M89.577,101.02C90.018,101.02,90.82,100.86,91.702,100.379C109.704,90.516,116.079,86.025,116.079,74.158L116.079,50.022C116.079,46.734,114.515,45.732,112.029,44.649C108.782,43.246,95.511,38.555,92.264,37.433C91.422,37.152,90.5,36.951,89.577,36.951C88.655,36.951,87.693,37.232,86.891,37.433C83.644,38.234,70.373,43.286,67.125,44.649C64.639,45.692,63.076,46.734,63.076,50.022L63.076,74.158C63.076,86.025,69.451,90.476,87.452,100.379C88.334,100.86,89.136,101.02,89.577,101.02ZM89.577,94.445C89.096,94.445,88.615,94.325,87.533,93.723C73.059,85.063,68.769,82.497,68.769,72.755L68.769,51.104C68.769,50.383,68.929,50.062,69.571,49.781C74.703,47.776,83.363,45.01,88.495,42.965C88.896,42.805,89.257,42.765,89.577,42.765C89.898,42.765,90.259,42.805,90.66,42.965C95.752,45.01,104.291,48.017,109.544,49.781C110.225,50.022,110.346,50.383,110.346,51.104L110.346,72.755C110.346,82.497,106.056,85.063,91.582,93.723C90.54,94.325,90.059,94.445,89.577,94.445ZM89.577,94.445"/>
</g>
  <g id="Medium-M" transform="matrix(1.0,0.0,0.0,1.0,1689.8005127521894,1037.4317131709379)">  <path stroke-miterlimit="4" stroke-width="0.125px" stroke-linejoin="miter" fill="#000000" stroke="none" stroke-dasharray="none" xmlns:svg="http://www.w3.org/2000/svg" stroke-opacity="1" fill-opacity="1" version="1.1" fill-rule="nonzero" stroke-linecap="butt" d="M58.074,0C55.962,0,53.851,0.79,51.967,2.37L1.702,44.552C0.547,45.524,-0,46.861,-0,48.077C-0,50.326,1.763,52.453,4.741,52.453C6.26,52.453,7.537,51.602,8.631,50.69L14.222,45.993L14.222,90.137C14.222,97.065,18.416,101.138,25.528,101.138L59.455,101.138L59.455,57.376L47.955,57.376C45.646,57.376,44.126,58.896,44.126,61.205L44.126,92.385L27.351,92.385C24.616,92.385,23.036,90.744,23.036,87.888L23.036,38.593L56.464,10.515C57.498,9.664,58.713,9.725,59.625,10.515L88.274,34.579L102.519,34.579L101.381,33.623L101.381,13.979C101.381,11.67,99.861,10.211,97.612,10.211L92.142,10.211C89.833,10.211,88.313,11.67,88.313,13.979L88.313,22.644L64.184,2.37C62.299,0.79,60.186,-0,58.074,-0ZM58.074,0"/>
  <path stroke="none" xmlns:svg="http://www.w3.org/2000/svg" stroke-miterlimit="4" fill="#000000" stroke-dasharray="none" fill-rule="nonzero" stroke-opacity="1" stroke-linejoin="miter" version="1.1" stroke-linecap="butt" fill-opacity="1" stroke-width="0.32982251048088074" d="M89.577,101.02C90.018,101.02,90.82,100.86,91.702,100.379C109.704,90.516,116.079,86.025,116.079,74.158L116.079,50.022C116.079,46.734,114.515,45.732,112.029,44.649C108.782,43.246,95.511,38.555,92.264,37.433C91.422,37.152,90.5,36.951,89.577,36.951C88.655,36.951,87.693,37.232,86.891,37.433C83.644,38.234,70.373,43.286,67.125,44.649C64.639,45.692,63.076,46.734,63.076,50.022L63.076,74.158C63.076,86.025,69.451,90.476,87.452,100.379C88.334,100.86,89.136,101.02,89.577,101.02ZM89.577,94.445C89.096,94.445,88.615,94.325,87.533,93.723C73.059,85.063,68.769,82.497,68.769,72.755L68.769,51.104C68.769,50.383,68.929,50.062,69.571,49.781C74.703,47.776,83.363,45.01,88.495,42.965C88.896,42.805,89.257,42.765,89.577,42.765C89.898,42.765,90.259,42.805,90.66,42.965C95.752,45.01,104.291,48.017,109.544,49.781C110.225,50.022,110.346,50.383,110.346,51.104L110.346,72.755C110.346,82.497,106.056,85.063,91.582,93.723C90.54,94.325,90.059,94.445,89.577,94.445ZM89.577,94.445"/>
</g>
  <g id="Regular-M" transform="matrix(1.0,0.0,0.0,1.0,1393.0905127521894,1037.4317131709379)">  <path xmlns:svg="http://www.w3.org/2000/svg" fill-rule="nonzero" version="1.1" stroke-dasharray="none" stroke-linecap="butt" stroke-miterlimit="4" stroke="none" stroke-opacity="1" fill-opacity="1" stroke-linejoin="miter" fill="#000000" stroke-width="0.125px" d="M58.074,0C55.962,0,53.851,0.79,51.967,2.37L1.702,44.552C0.547,45.524,-0,46.861,-0,48.077C-0,50.326,1.763,52.453,4.741,52.453C6.26,52.453,7.537,51.602,8.631,50.69L14.222,45.993L14.222,90.137C14.222,97.065,18.416,101.138,25.528,101.138L59.455,101.138L59.455,57.376L47.955,57.376C45.646,57.376,44.126,58.896,44.126,61.205L44.126,92.385L27.351,92.385C24.616,92.385,23.036,90.744,23.036,87.888L23.036,38.593L56.464,10.515C57.498,9.664,58.713,9.725,59.625,10.515L88.274,34.579L102.519,34.579L101.381,33.623L101.381,13.979C101.381,11.67,99.861,10.211,97.612,10.211L92.142,10.211C89.833,10.211,88.313,11.67,88.313,13.979L88.313,22.644L64.184,2.37C62.299,0.79,60.186,-0,58.074,-0ZM58.074,0"/>
  <path stroke-dasharray="none" fill="#000000" stroke-miterlimit="4" stroke="none" fill-rule="nonzero" stroke-linecap="butt" version="1.1" stroke-linejoin="miter" xmlns:svg="http://www.w3.org/2000/svg" stroke-opacity="1" stroke-width="0.32982251048088074" fill-opacity="1" d="M89.577,101.02C90.018,101.02,90.82,100.86,91.702,100.379C109.704,90.516,116.079,86.025,116.079,74.158L116.079,50.022C116.079,46.734,114.515,45.732,112.029,44.649C108.782,43.246,95.511,38.555,92.264,37.433C91.422,37.152,90.5,36.951,89.577,36.951C88.655,36.951,87.693,37.232,86.891,37.433C83.644,38.234,70.373,43.286,67.125,44.649C64.639,45.692,63.076,46.734,63.076,50.022L63.076,74.158C63.076,86.025,69.451,90.476,87.452,100.379C88.334,100.86,89.136,101.02,89.577,101.02ZM89.577,94.445C89.096,94.445,88.615,94.325,87.533,93.723C73.059,85.063,68.769,82.497,68.769,72.755L68.769,51.104C68.769,50.383,68.929,50.062,69.571,49.781C74.703,47.776,83.363,45.01,88.495,42.965C88.896,42.805,89.257,42.765,89.577,42.765C89.898,42.765,90.259,42.805,90.66,42.965C95.752,45.01,104.291,48.017,109.544,49.781C110.225,50.022,110.346,50.383,110.346,51.104L110.346,72.755C110.346,82.497,106.056,85.063,91.582,93.723C90.54,94.325,90.059,94.445,89.577,94.445ZM89.577,94.445"/>
</g>
  <g id="Light-M" transform="matrix(1.0,0.0,0.0,1.0,1096.3805127521896,1037.4317131709379)">  <path xmlns:svg="http://www.w3.org/2000/svg" stroke-linecap="butt" stroke-opacity="1" stroke-dasharray="none" stroke-linejoin="miter" stroke-miterlimit="4" stroke-width="0.125px" stroke="none" fill="#000000" version="1.1" fill-opacity="1" fill-rule="nonzero" d="M58.074,0C55.962,0,53.851,0.79,51.967,2.37L1.702,44.552C0.547,45.524,-0,46.861,-0,48.077C-0,50.326,1.763,52.453,4.741,52.453C6.26,52.453,7.537,51.602,8.631,50.69L14.222,45.993L14.222,90.137C14.222,97.065,18.416,101.138,25.528,101.138L59.455,101.138L59.455,57.376L47.955,57.376C45.646,57.376,44.126,58.896,44.126,61.205L44.126,92.385L27.351,92.385C24.616,92.385,23.036,90.744,23.036,87.888L23.036,38.593L56.464,10.515C57.498,9.664,58.713,9.725,59.625,10.515L88.274,34.579L102.519,34.579L101.381,33.623L101.381,13.979C101.381,11.67,99.861,10.211,97.612,10.211L92.142,10.211C89.833,10.211,88.313,11.67,88.313,13.979L88.313,22.644L64.184,2.37C62.299,0.79,60.186,-0,58.074,-0ZM58.074,0"/>
  <path stroke-linejoin="miter" fill="#000000" stroke-dasharray="none" xmlns:svg="http://www.w3.org/2000/svg" stroke-width="0.32982251048088074" stroke-miterlimit="4" stroke-opacity="1" fill-opacity="1" stroke-linecap="butt" stroke="none" version="1.1" fill-rule="nonzero" d="M89.577,101.02C90.018,101.02,90.82,100.86,91.702,100.379C109.704,90.516,116.079,86.025,116.079,74.158L116.079,50.022C116.079,46.734,114.515,45.732,112.029,44.649C108.782,43.246,95.511,38.555,92.264,37.433C91.422,37.152,90.5,36.951,89.577,36.951C88.655,36.951,87.693,37.232,86.891,37.433C83.644,38.234,70.373,43.286,67.125,44.649C64.639,45.692,63.076,46.734,63.076,50.022L63.076,74.158C63.076,86.025,69.451,90.476,87.452,100.379C88.334,100.86,89.136,101.02,89.577,101.02ZM89.577,94.445C89.096,94.445,88.615,94.325,87.533,93.723C73.059,85.063,68.769,82.497,68.769,72.755L68.769,51.104C68.769,50.383,68.929,50.062,69.571,49.781C74.703,47.776,83.363,45.01,88.495,42.965C88.896,42.805,89.257,42.765,89.577,42.765C89.898,42.765,90.259,42.805,90.66,42.965C95.752,45.01,104.291,48.017,109.544,49.781C110.225,50.022,110.346,50.383,110.346,51.104L110.346,72.755C110.346,82.497,106.056,85.063,91.582,93.723C90.54,94.325,90.059,94.445,89.577,94.445ZM89.577,94.445"/>
</g>
  <g id="Thin-M" transform="matrix(1.0,0.0,0.0,1.0,799.6705127521894,1037.4317131709379)">  <path stroke-linecap="butt" fill-opacity="1" stroke-dasharray="none" stroke-width="0.125px" fill-rule="nonzero" stroke-linejoin="miter" xmlns:svg="http://www.w3.org/2000/svg" stroke="none" stroke-miterlimit="4" fill="#000000" stroke-opacity="1" version="1.1" d="M58.074,0C55.962,0,53.851,0.79,51.967,2.37L1.702,44.552C0.547,45.524,-0,46.861,-0,48.077C-0,50.326,1.763,52.453,4.741,52.453C6.26,52.453,7.537,51.602,8.631,50.69L14.222,45.993L14.222,90.137C14.222,97.065,18.416,101.138,25.528,101.138L59.455,101.138L59.455,57.376L47.955,57.376C45.646,57.376,44.126,58.896,44.126,61.205L44.126,92.385L27.351,92.385C24.616,92.385,23.036,90.744,23.036,87.888L23.036,38.593L56.464,10.515C57.498,9.664,58.713,9.725,59.625,10.515L88.274,34.579L102.519,34.579L101.381,33.623L101.381,13.979C101.381,11.67,99.861,10.211,97.612,10.211L92.142,10.211C89.833,10.211,88.313,11.67,88.313,13.979L88.313,22.644L64.184,2.37C62.299,0.79,60.186,-0,58.074,-0ZM58.074,0"/>
  <path fill-rule="nonzero" stroke-linecap="butt" version="1.1" stroke-dasharray="none" xmlns:svg="http://www.w3.org/2000/svg" stroke-miterlimit="4" stroke="none" stroke-width="0.32982251048088074" stroke-linejoin="miter" fill="#000000" stroke-opacity="1" fill-opacity="1" d="M89.577,101.02C90.018,101.02,90.82,100.86,91.702,100.379C109.704,90.516,116.079,86.025,116.079,74.158L116.079,50.022C116.079,46.734,114.515,45.732,112.029,44.649C108.782,43.246,95.511,38.555,92.264,37.433C91.422,37.152,90.5,36.951,89.577,36.951C88.655,36.951,87.693,37.232,86.891,37.433C83.644,38.234,70.373,43.286,67.125,44.649C64.639,45.692,63.076,46.734,63.076,50.022L63.076,74.158C63.076,86.025,69.451,90.476,87.452,100.379C88.334,100.86,89.136,101.02,89.577,101.02ZM89.577,94.445C89.096,94.445,88.615,94.325,87.533,93.723C73.059,85.063,68.769,82.497,68.769,72.755L68.769,51.104C68.769,50.383,68.929,50.062,69.571,49.781C74.703,47.776,83.363,45.01,88.495,42.965C88.896,42.805,89.257,42.765,89.577,42.765C89.898,42.765,90.259,42.805,90.66,42.965C95.752,45.01,104.291,48.017,109.544,49.781C110.225,50.022,110.346,50.383,110.346,51.104L110.346,72.755C110.346,82.497,106.056,85.063,91.582,93.723C90.54,94.325,90.059,94.445,89.577,94.445ZM89.577,94.445"/>
</g>
  <g id="Ultralight-M" transform="matrix(1.0,0.0,0.0,1.0,502.9605127521894,1037.4317131709379)">  <path fill="#000000" stroke-miterlimit="4" stroke-linejoin="miter" stroke="none" stroke-width="0.125px" stroke-opacity="1" stroke-dasharray="none" fill-opacity="1" xmlns:svg="http://www.w3.org/2000/svg" stroke-linecap="butt" version="1.1" fill-rule="nonzero" d="M58.074,0C55.962,0,53.851,0.79,51.967,2.37L1.702,44.552C0.547,45.524,-0,46.861,-0,48.077C-0,50.326,1.763,52.453,4.741,52.453C6.26,52.453,7.537,51.602,8.631,50.69L14.222,45.993L14.222,90.137C14.222,97.065,18.416,101.138,25.528,101.138L59.455,101.138L59.455,57.376L47.955,57.376C45.646,57.376,44.126,58.896,44.126,61.205L44.126,92.385L27.351,92.385C24.616,92.385,23.036,90.744,23.036,87.888L23.036,38.593L56.464,10.515C57.498,9.664,58.713,9.725,59.625,10.515L88.274,34.579L102.519,34.579L101.381,33.623L101.381,13.979C101.381,11.67,99.861,10.211,97.612,10.211L92.142,10.211C89.833,10.211,88.313,11.67,88.313,13.979L88.313,22.644L64.184,2.37C62.299,0.79,60.186,-0,58.074,-0ZM58.074,0"/>
  <path fill-opacity="1" stroke-miterlimit="4" version="1.1" fill-rule="nonzero" stroke-width="0.32982251048088074" stroke="none" fill="#000000" stroke-dasharray="none" xmlns:svg="http://www.w3.org/2000/svg" stroke-linecap="butt" stroke-opacity="1" stroke-linejoin="miter" d="M89.577,101.02C90.018,101.02,90.82,100.86,91.702,100.379C109.704,90.516,116.079,86.025,116.079,74.158L116.079,50.022C116.079,46.734,114.515,45.732,112.029,44.649C108.782,43.246,95.511,38.555,92.264,37.433C91.422,37.152,90.5,36.951,89.577,36.951C88.655,36.951,87.693,37.232,86.891,37.433C83.644,38.234,70.373,43.286,67.125,44.649C64.639,45.692,63.076,46.734,63.076,50.022L63.076,74.158C63.076,86.025,69.451,90.476,87.452,100.379C88.334,100.86,89.136,101.02,89.577,101.02ZM89.577,94.445C89.096,94.445,88.615,94.325,87.533,93.723C73.059,85.063,68.769,82.497,68.769,72.755L68.769,51.104C68.769,50.383,68.929,50.062,69.571,49.781C74.703,47.776,83.363,45.01,88.495,42.965C88.896,42.805,89.257,42.765,89.577,42.765C89.898,42.765,90.259,42.805,90.66,42.965C95.752,45.01,104.291,48.017,109.544,49.781C110.225,50.022,110.346,50.383,110.346,51.104L110.346,72.755C110.346,82.497,106.056,85.063,91.582,93.723C90.54,94.325,90.059,94.445,89.577,94.445ZM89.577,94.445"/>
</g>
  <g id="Black-S" transform="matrix(1.0,0.0,0.0,1.0,2889.235081484964,619.0061256511257)">  <path stroke-miterlimit="4" xmlns:svg="http://www.w3.org/2000/svg" stroke="none" fill-rule="nonzero" version="1.1" stroke-dasharray="none" stroke-linejoin="miter" stroke-opacity="1" stroke-width="0.125px" fill-opacity="1" fill="#000000" stroke-linecap="butt" d="M45.472,0C43.818,0,42.165,0.619,40.69,1.856L1.333,34.884C0.428,35.645,-0,36.692,-0,37.644C-0,39.405,1.38,41.071,3.712,41.071C4.902,41.071,5.901,40.404,6.758,39.691L11.136,36.013L11.136,70.577C11.136,76.002,14.42,79.191,19.988,79.191L46.553,79.191L46.553,44.926L37.549,44.926C35.741,44.926,34.551,46.115,34.551,47.924L34.551,72.338L21.416,72.338C19.274,72.338,18.037,71.053,18.037,68.816L18.037,30.218L44.212,8.233C45.021,7.567,45.973,7.615,46.686,8.233L69.119,27.075L80.272,27.075L79.381,26.327L79.381,10.946C79.381,9.137,78.191,7.995,76.431,7.995L72.147,7.995C70.339,7.995,69.149,9.137,69.149,10.946L69.149,17.73L50.256,1.856C48.78,0.619,47.126,-0,45.472,-0ZM45.472,0"/>
  <path xmlns:svg="http://www.w3.org/2000/svg" stroke-linejoin="miter" stroke="none" stroke-opacity="1" stroke-miterlimit="4" stroke-linecap="butt" version="1.1" stroke-width="0.32982251048088074" fill-rule="nonzero" fill="#000000" fill-opacity="1" stroke-dasharray="none" d="M70.139,79.099C70.484,79.099,71.112,78.973,71.803,78.597C85.898,70.874,90.89,67.358,90.89,58.066L90.89,39.167C90.89,36.593,89.665,35.808,87.719,34.96C85.176,33.862,74.785,30.189,72.242,29.31C71.583,29.09,70.861,28.933,70.139,28.933C69.417,28.933,68.664,29.153,68.036,29.31C65.493,29.937,55.102,33.893,52.559,34.96C50.613,35.777,49.388,36.593,49.388,39.167L49.388,58.066C49.388,67.358,54.38,70.842,68.475,78.597C69.166,78.973,69.794,79.099,70.139,79.099ZM70.139,73.95C69.762,73.95,69.386,73.856,68.538,73.385C57.205,66.604,53.846,64.595,53.846,56.967L53.846,40.015C53.846,39.45,53.972,39.198,54.474,38.979C58.492,37.409,65.273,35.243,69.291,33.642C69.605,33.516,69.888,33.485,70.139,33.485C70.39,33.485,70.673,33.516,70.987,33.642C74.973,35.243,81.66,37.597,85.773,38.979C86.306,39.167,86.401,39.45,86.401,40.015L86.401,56.967C86.401,64.595,83.042,66.604,71.709,73.385C70.893,73.856,70.516,73.95,70.139,73.95ZM70.139,73.95"/>
</g>
  <g id="Heavy-S" transform="matrix(1.0,0.0,0.0,1.0,2592.525081484964,619.0061256511257)">  <path stroke-linecap="butt" stroke-width="0.125px" stroke-opacity="1" stroke-miterlimit="4" stroke-linejoin="miter" fill="#000000" fill-opacity="1" xmlns:svg="http://www.w3.org/2000/svg" version="1.1" fill-rule="nonzero" stroke="none" stroke-dasharray="none" d="M45.472,0C43.818,0,42.165,0.619,40.69,1.856L1.333,34.884C0.428,35.645,-0,36.692,-0,37.644C-0,39.405,1.38,41.071,3.712,41.071C4.902,41.071,5.901,40.404,6.758,39.691L11.136,36.013L11.136,70.577C11.136,76.002,14.42,79.191,19.988,79.191L46.553,79.191L46.553,44.926L37.549,44.926C35.741,44.926,34.551,46.115,34.551,47.924L34.551,72.338L21.416,72.338C19.274,72.338,18.037,71.053,18.037,68.816L18.037,30.218L44.212,8.233C45.021,7.567,45.973,7.615,46.686,8.233L69.119,27.075L80.272,27.075L79.381,26.327L79.381,10.946C79.381,9.137,78.191,7.995,76.431,7.995L72.147,7.995C70.339,7.995,69.149,9.137,69.149,10.946L69.149,17.73L50.256,1.856C48.78,0.619,47.126,-0,45.472,-0ZM45.472,0"/>
  <path stroke-width="0.32982251048088074" xmlns:svg="http://www.w3.org/2000/svg" stroke="none" version="1.1" stroke-dasharray="none" stroke-opacity="1" stroke-miterlimit="4" stroke-linejoin="miter" fill="#000000" fill-rule="nonzero" fill-opacity="1" stroke-linecap="butt" d="M70.139,79.099C70.484,79.099,71.112,78.973,71.803,78.597C85.898,70.874,90.89,67.358,90.89,58.066L90.89,39.167C90.89,36.593,89.665,35.808,87.719,34.96C85.176,33.862,74.785,30.189,72.242,29.31C71.583,29.09,70.861,28.933,70.139,28.933C69.417,28.933,68.664,29.153,68.036,29.31C65.493,29.937,55.102,33.893,52.559,34.96C50.613,35.777,49.388,36.593,49.388,39.167L49.388,58.066C49.388,67.358,54.38,70.842,68.475,78.597C69.166,78.973,69.794,79.099,70.139,79.099ZM70.139,73.95C69.762,73.95,69.386,73.856,68.538,73.385C57.205,66.604,53.846,64.595,53.846,56.967L53.846,40.015C53.846,39.45,53.972,39.198,54.474,38.979C58.492,37.409,65.273,35.243,69.291,33.642C69.605,33.516,69.888,33.485,70.139,33.485C70.39,33.485,70.673,33.516,70.987,33.642C74.973,35.243,81.66,37.597,85.773,38.979C86.306,39.167,86.401,39.45,86.401,40.015L86.401,56.967C86.401,64.595,83.042,66.604,71.709,73.385C70.893,73.856,70.516,73.95,70.139,73.95ZM70.139,73.95"/>
</g>
  <g id="Bold-S" transform="matrix(1.0,0.0,0.0,1.0,2295.815081484964,619.0061256511257)">  <path stroke-width="0.125px" stroke="none" stroke-linecap="butt" xmlns:svg="http://www.w3.org/2000/svg" fill-opacity="1" stroke-dasharray="none" fill="#000000" stroke-miterlimit="4" version="1.1" fill-rule="nonzero" stroke-opacity="1" stroke-linejoin="miter" d="M45.472,0C43.818,0,42.165,0.619,40.69,1.856L1.333,34.884C0.428,35.645,-0,36.692,-0,37.644C-0,39.405,1.38,41.071,3.712,41.071C4.902,41.071,5.901,40.404,6.758,39.691L11.136,36.013L11.136,70.577C11.136,76.002,14.42,79.191,19.988,79.191L46.553,79.191L46.553,44.926L37.549,44.926C35.741,44.926,34.551,46.115,34.551,47.924L34.551,72.338L21.416,72.338C19.274,72.338,18.037,71.053,18.037,68.816L18.037,30.218L44.212,8.233C45.021,7.567,45.973,7.615,46.686,8.233L69.119,27.075L80.272,27.075L79.381,26.327L79.381,10.946C79.381,9.137,78.191,7.995,76.431,7.995L72.147,7.995C70.339,7.995,69.149,9.137,69.149,10.946L69.149,17.73L50.256,1.856C48.78,0.619,47.126,-0,45.472,-0ZM45.472,0"/>
  <path stroke-opacity="1" fill="#000000" fill-opacity="1" stroke="none" version="1.1" xmlns:svg="http://www.w3.org/2000/svg" stroke-dasharray="none" stroke-linecap="butt" stroke-width="0.32982251048088074" fill-rule="nonzero" stroke-linejoin="miter" stroke-miterlimit="4" d="M70.139,79.099C70.484,79.099,71.112,78.973,71.803,78.597C85.898,70.874,90.89,67.358,90.89,58.066L90.89,39.167C90.89,36.593,89.665,35.808,87.719,34.96C85.176,33.862,74.785,30.189,72.242,29.31C71.583,29.09,70.861,28.933,70.139,28.933C69.417,28.933,68.664,29.153,68.036,29.31C65.493,29.937,55.102,33.893,52.559,34.96C50.613,35.777,49.388,36.593,49.388,39.167L49.388,58.066C49.388,67.358,54.38,70.842,68.475,78.597C69.166,78.973,69.794,79.099,70.139,79.099ZM70.139,73.95C69.762,73.95,69.386,73.856,68.538,73.385C57.205,66.604,53.846,64.595,53.846,56.967L53.846,40.015C53.846,39.45,53.972,39.198,54.474,38.979C58.492,37.409,65.273,35.243,69.291,33.642C69.605,33.516,69.888,33.485,70.139,33.485C70.39,33.485,70.673,33.516,70.987,33.642C74.973,35.243,81.66,37.597,85.773,38.979C86.306,39.167,86.401,39.45,86.401,40.015L86.401,56.967C86.401,64.595,83.042,66.604,71.709,73.385C70.893,73.856,70.516,73.95,70.139,73.95ZM70.139,73.95"/>
</g>
  <g id="Semibold-S" transform="matrix(1.0,0.0,0.0,1.0,1999.105081484964,619.0061256511257)">  <path fill-opacity="1" stroke="none" fill-rule="nonzero" stroke-linejoin="miter" stroke-width="0.125px" xmlns:svg="http://www.w3.org/2000/svg" stroke-opacity="1" stroke-miterlimit="4" fill="#000000" version="1.1" stroke-dasharray="none" stroke-linecap="butt" d="M45.472,0C43.818,0,42.165,0.619,40.69,1.856L1.333,34.884C0.428,35.645,-0,36.692,-0,37.644C-0,39.405,1.38,41.071,3.712,41.071C4.902,41.071,5.901,40.404,6.758,39.691L11.136,36.013L11.136,70.577C11.136,76.002,14.42,79.191,19.988,79.191L46.553,79.191L46.553,44.926L37.549,44.926C35.741,44.926,34.551,46.115,34.551,47.924L34.551,72.338L21.416,72.338C19.274,72.338,18.037,71.053,18.037,68.816L18.037,30.218L44.212,8.233C45.021,7.567,45.973,7.615,46.686,8.233L69.119,27.075L80.272,27.075L79.381,26.327L79.381,10.946C79.381,9.137,78.191,7.995,76.431,7.995L72.147,7.995C70.339,7.995,69.149,9.137,69.149,10.946L69.149,17.73L50.256,1.856C48.78,0.619,47.126,-0,45.472,-0ZM45.472,0"/>
  <path stroke-dasharray="none" fill-opacity="1" xmlns:svg="http://www.w3.org/2000/svg" fill-rule="nonzero" stroke-width="0.32982251048088074" stroke="none" stroke-miterlimit="4" stroke-linejoin="miter" version="1.1" fill="#000000" stroke-opacity="1" stroke-linecap="butt" d="M70.139,79.099C70.484,79.099,71.112,78.973,71.803,78.597C85.898,70.874,90.89,67.358,90.89,58.066L90.89,39.167C90.89,36.593,89.665,35.808,87.719,34.96C85.176,33.862,74.785,30.189,72.242,29.31C71.583,29.09,70.861,28.933,70.139,28.933C69.417,28.933,68.664,29.153,68.036,29.31C65.493,29.937,55.102,33.893,52.559,34.96C50.613,35.777,49.388,36.593,49.388,39.167L49.388,58.066C49.388,67.358,54.38,70.842,68.475,78.597C69.166,78.973,69.794,79.099,70.139,79.099ZM70.139,73.95C69.762,73.95,69.386,73.856,68.538,73.385C57.205,66.604,53.846,64.595,53.846,56.967L53.846,40.015C53.846,39.45,53.972,39.198,54.474,38.979C58.492,37.409,65.273,35.243,69.291,33.642C69.605,33.516,69.888,33.485,70.139,33.485C70.39,33.485,70.673,33.516,70.987,33.642C74.973,35.243,81.66,37.597,85.773,38.979C86.306,39.167,86.401,39.45,86.401,40.015L86.401,56.967C86.401,64.595,83.042,66.604,71.709,73.385C70.893,73.856,70.516,73.95,70.139,73.95ZM70.139,73.95"/>
</g>
  <g id="Medium-S" transform="matrix(1.0,0.0,0.0,1.0,1702.395081484964,619.0061256511257)">  <path stroke-miterlimit="4" stroke-width="0.125px" stroke-linejoin="miter" fill="#000000" stroke="none" stroke-dasharray="none" xmlns:svg="http://www.w3.org/2000/svg" stroke-opacity="1" fill-opacity="1" version="1.1" fill-rule="nonzero" stroke-linecap="butt" d="M45.472,0C43.818,0,42.165,0.619,40.69,1.856L1.333,34.884C0.428,35.645,-0,36.692,-0,37.644C-0,39.405,1.38,41.071,3.712,41.071C4.902,41.071,5.901,40.404,6.758,39.691L11.136,36.013L11.136,70.577C11.136,76.002,14.42,79.191,19.988,79.191L46.553,79.191L46.553,44.926L37.549,44.926C35.741,44.926,34.551,46.115,34.551,47.924L34.551,72.338L21.416,72.338C19.274,72.338,18.037,71.053,18.037,68.816L18.037,30.218L44.212,8.233C45.021,7.567,45.973,7.615,46.686,8.233L69.119,27.075L80.272,27.075L79.381,26.327L79.381,10.946C79.381,9.137,78.191,7.995,76.431,7.995L72.147,7.995C70.339,7.995,69.149,9.137,69.149,10.946L69.149,17.73L50.256,1.856C48.78,0.619,47.126,-0,45.472,-0ZM45.472,0"/>
  <path stroke="none" xmlns:svg="http://www.w3.org/2000/svg" stroke-miterlimit="4" fill="#000000" stroke-dasharray="none" fill-rule="nonzero" stroke-opacity="1" stroke-linejoin="miter" version="1.1" stroke-linecap="butt" fill-opacity="1" stroke-width="0.32982251048088074" d="M70.139,79.099C70.484,79.099,71.112,78.973,71.803,78.597C85.898,70.874,90.89,67.358,90.89,58.066L90.89,39.167C90.89,36.593,89.665,35.808,87.719,34.96C85.176,33.862,74.785,30.189,72.242,29.31C71.583,29.09,70.861,28.933,70.139,28.933C69.417,28.933,68.664,29.153,68.036,29.31C65.493,29.937,55.102,33.893,52.559,34.96C50.613,35.777,49.388,36.593,49.388,39.167L49.388,58.066C49.388,67.358,54.38,70.842,68.475,78.597C69.166,78.973,69.794,79.099,70.139,79.099ZM70.139,73.95C69.762,73.95,69.386,73.856,68.538,73.385C57.205,66.604,53.846,64.595,53.846,56.967L53.846,40.015C53.846,39.45,53.972,39.198,54.474,38.979C58.492,37.409,65.273,35.243,69.291,33.642C69.605,33.516,69.888,33.485,70.139,33.485C70.39,33.485,70.673,33.516,70.987,33.642C74.973,35.243,81.66,37.597,85.773,38.979C86.306,39.167,86.401,39.45,86.401,40.015L86.401,56.967C86.401,64.595,83.042,66.604,71.709,73.385C70.893,73.856,70.516,73.95,70.139,73.95ZM70.139,73.95"/>
</g>
  <g id="Regular-S" transform="matrix(1.0,0.0,0.0,1.0,1405.685081484964,619.0061256511257)">  <path xmlns:svg="http://www.w3.org/2000/svg" fill-rule="nonzero" version="1.1" stroke-dasharray="none" stroke-linecap="butt" stroke-miterlimit="4" stroke="none" stroke-opacity="1" fill-opacity="1" stroke-linejoin="miter" fill="#000000" stroke-width="0.125px" d="M45.472,0C43.818,0,42.165,0.619,40.69,1.856L1.333,34.884C0.428,35.645,-0,36.692,-0,37.644C-0,39.405,1.38,41.071,3.712,41.071C4.902,41.071,5.901,40.404,6.758,39.691L11.136,36.013L11.136,70.577C11.136,76.002,14.42,79.191,19.988,79.191L46.553,79.191L46.553,44.926L37.549,44.926C35.741,44.926,34.551,46.115,34.551,47.924L34.551,72.338L21.416,72.338C19.274,72.338,18.037,71.053,18.037,68.816L18.037,30.218L44.212,8.233C45.021,7.567,45.973,7.615,46.686,8.233L69.119,27.075L80.272,27.075L79.381,26.327L79.381,10.946C79.381,9.137,78.191,7.995,76.431,7.995L72.147,7.995C70.339,7.995,69.149,9.137,69.149,10.946L69.149,17.73L50.256,1.856C48.78,0.619,47.126,-0,45.472,-0ZM45.472,0"/>
  <path stroke-dasharray="none" fill="#000000" stroke-miterlimit="4" stroke="none" fill-rule="nonzero" stroke-linecap="butt" version="1.1" stroke-linejoin="miter" xmlns:svg="http://www.w3.org/2000/svg" stroke-opacity="1" stroke-width="0.32982251048088074" fill-opacity="1" d="M70.139,79.099C70.484,79.099,71.112,78.973,71.803,78.597C85.898,70.874,90.89,67.358,90.89,58.066L90.89,39.167C90.89,36.593,89.665,35.808,87.719,34.96C85.176,33.862,74.785,30.189,72.242,29.31C71.583,29.09,70.861,28.933,70.139,28.933C69.417,28.933,68.664,29.153,68.036,29.31C65.493,29.937,55.102,33.893,52.559,34.96C50.613,35.777,49.388,36.593,49.388,39.167L49.388,58.066C49.388,67.358,54.38,70.842,68.475,78.597C69.166,78.973,69.794,79.099,70.139,79.099ZM70.139,73.95C69.762,73.95,69.386,73.856,68.538,73.385C57.205,66.604,53.846,64.595,53.846,56.967L53.846,40.015C53.846,39.45,53.972,39.198,54.474,38.979C58.492,37.409,65.273,35.243,69.291,33.642C69.605,33.516,69.888,33.485,70.139,33.485C70.39,33.485,70.673,33.516,70.987,33.642C74.973,35.243,81.66,37.597,85.773,38.979C86.306,39.167,86.401,39.45,86.401,40.015L86.401,56.967C86.401,64.595,83.042,66.604,71.709,73.385C70.893,73.856,70.516,73.95,70.139,73.95ZM70.139,73.95"/>
</g>
  <g id="Light-S" transform="matrix(1.0,0.0,0.0,1.0,1108.9750814849642,619.0061256511257)">  <path xmlns:svg="http://www.w3.org/2000/svg" stroke-linecap="butt" stroke-opacity="1" stroke-dasharray="none" stroke-linejoin="miter" stroke-miterlimit="4" stroke-width="0.125px" stroke="none" fill="#000000" version="1.1" fill-opacity="1" fill-rule="nonzero" d="M45.472,0C43.818,0,42.165,0.619,40.69,1.856L1.333,34.884C0.428,35.645,-0,36.692,-0,37.644C-0,39.405,1.38,41.071,3.712,41.071C4.902,41.071,5.901,40.404,6.758,39.691L11.136,36.013L11.136,70.577C11.136,76.002,14.42,79.191,19.988,79.191L46.553,79.191L46.553,44.926L37.549,44.926C35.741,44.926,34.551,46.115,34.551,47.924L34.551,72.338L21.416,72.338C19.274,72.338,18.037,71.053,18.037,68.816L18.037,30.218L44.212,8.233C45.021,7.567,45.973,7.615,46.686,8.233L69.119,27.075L80.272,27.075L79.381,26.327L79.381,10.946C79.381,9.137,78.191,7.995,76.431,7.995L72.147,7.995C70.339,7.995,69.149,9.137,69.149,10.946L69.149,17.73L50.256,1.856C48.78,0.619,47.126,-0,45.472,-0ZM45.472,0"/>
  <path stroke-linejoin="miter" fill="#000000" stroke-dasharray="none" xmlns:svg="http://www.w3.org/2000/svg" stroke-width="0.32982251048088074" stroke-miterlimit="4" stroke-opacity="1" fill-opacity="1" stroke-linecap="butt" stroke="none" version="1.1" fill-rule="nonzero" d="M70.139,79.099C70.484,79.099,71.112,78.973,71.803,78.597C85.898,70.874,90.89,67.358,90.89,58.066L90.89,39.167C90.89,36.593,89.665,35.808,87.719,34.96C85.176,33.862,74.785,30.189,72.242,29.31C71.583,29.09,70.861,28.933,70.139,28.933C69.417,28.933,68.664,29.153,68.036,29.31C65.493,29.937,55.102,33.893,52.559,34.96C50.613,35.777,49.388,36.593,49.388,39.167L49.388,58.066C49.388,67.358,54.38,70.842,68.475,78.597C69.166,78.973,69.794,79.099,70.139,79.099ZM70.139,73.95C69.762,73.95,69.386,73.856,68.538,73.385C57.205,66.604,53.846,64.595,53.846,56.967L53.846,40.015C53.846,39.45,53.972,39.198,54.474,38.979C58.492,37.409,65.273,35.243,69.291,33.642C69.605,33.516,69.888,33.485,70.139,33.485C70.39,33.485,70.673,33.516,70.987,33.642C74.973,35.243,81.66,37.597,85.773,38.979C86.306,39.167,86.401,39.45,86.401,40.015L86.401,56.967C86.401,64.595,83.042,66.604,71.709,73.385C70.893,73.856,70.516,73.95,70.139,73.95ZM70.139,73.95"/>
</g>
  <g id="Thin-S" transform="matrix(1.0,0.0,0.0,1.0,812.2650814849643,619.0061256511257)">  <path stroke-linecap="butt" fill-opacity="1" stroke-dasharray="none" stroke-width="0.125px" fill-rule="nonzero" stroke-linejoin="miter" xmlns:svg="http://www.w3.org/2000/svg" stroke="none" stroke-miterlimit="4" fill="#000000" stroke-opacity="1" version="1.1" d="M45.472,0C43.818,0,42.165,0.619,40.69,1.856L1.333,34.884C0.428,35.645,-0,36.692,-0,37.644C-0,39.405,1.38,41.071,3.712,41.071C4.902,41.071,5.901,40.404,6.758,39.691L11.136,36.013L11.136,70.577C11.136,76.002,14.42,79.191,19.988,79.191L46.553,79.191L46.553,44.926L37.549,44.926C35.741,44.926,34.551,46.115,34.551,47.924L34.551,72.338L21.416,72.338C19.274,72.338,18.037,71.053,18.037,68.816L18.037,30.218L44.212,8.233C45.021,7.567,45.973,7.615,46.686,8.233L69.119,27.075L80.272,27.075L79.381,26.327L79.381,10.946C79.381,9.137,78.191,7.995,76.431,7.995L72.147,7.995C70.339,7.995,69.149,9.137,69.149,10.946L69.149,17.73L50.256,1.856C48.78,0.619,47.126,-0,45.472,-0ZM45.472,0"/>
  <path fill-rule="nonzero" stroke-linecap="butt" version="1.1" stroke-dasharray="none" xmlns:svg="http://www.w3.org/2000/svg" stroke-miterlimit="4" stroke="none" stroke-width="0.32982251048088074" stroke-linejoin="miter" fill="#000000" stroke-opacity="1" fill-opacity="1" d="M70.139,79.099C70.484,79.099,71.112,78.973,71.803,78.597C85.898,70.874,90.89,67.358,90.89,58.066L90.89,39.167C90.89,36.593,89.665,35.808,87.719,34.96C85.176,33.862,74.785,30.189,72.242,29.31C71.583,29.09,70.861,28.933,70.139,28.933C69.417,28.933,68.664,29.153,68.036,29.31C65.493,29.937,55.102,33.893,52.559,34.96C50.613,35.777,49.388,36.593,49.388,39.167L49.388,58.066C49.388,67.358,54.38,70.842,68.475,78.597C69.166,78.973,69.794,79.099,70.139,79.099ZM70.139,73.95C69.762,73.95,69.386,73.856,68.538,73.385C57.205,66.604,53.846,64.595,53.846,56.967L53.846,40.015C53.846,39.45,53.972,39.198,54.474,38.979C58.492,37.409,65.273,35.243,69.291,33.642C69.605,33.516,69.888,33.485,70.139,33.485C70.39,33.485,70.673,33.516,70.987,33.642C74.973,35.243,81.66,37.597,85.773,38.979C86.306,39.167,86.401,39.45,86.401,40.015L86.401,56.967C86.401,64.595,83.042,66.604,71.709,73.385C70.893,73.856,70.516,73.95,70.139,73.95ZM70.139,73.95"/>
</g>
  <g id="Ultralight-S" transform="matrix(1.0,0.0,0.0,1.0,515.5550814849643,619.0061256511257)">  <path fill="#000000" stroke-miterlimit="4" stroke-linejoin="miter" stroke="none" stroke-width="0.125px" stroke-opacity="1" stroke-dasharray="none" fill-opacity="1" xmlns:svg="http://www.w3.org/2000/svg" stroke-linecap="butt" version="1.1" fill-rule="nonzero" d="M45.472,0C43.818,0,42.165,0.619,40.69,1.856L1.333,34.884C0.428,35.645,-0,36.692,-0,37.644C-0,39.405,1.38,41.071,3.712,41.071C4.902,41.071,5.901,40.404,6.758,39.691L11.136,36.013L11.136,70.577C11.136,76.002,14.42,79.191,19.988,79.191L46.553,79.191L46.553,44.926L37.549,44.926C35.741,44.926,34.551,46.115,34.551,47.924L34.551,72.338L21.416,72.338C19.274,72.338,18.037,71.053,18.037,68.816L18.037,30.218L44.212,8.233C45.021,7.567,45.973,7.615,46.686,8.233L69.119,27.075L80.272,27.075L79.381,26.327L79.381,10.946C79.381,9.137,78.191,7.995,76.431,7.995L72.147,7.995C70.339,7.995,69.149,9.137,69.149,10.946L69.149,17.73L50.256,1.856C48.78,0.619,47.126,-0,45.472,-0ZM45.472,0"/>
  <path fill-opacity="1" stroke-miterlimit="4" version="1.1" fill-rule="nonzero" stroke-width="0.32982251048088074" stroke="none" fill="#000000" stroke-dasharray="none" xmlns:svg="http://www.w3.org/2000/svg" stroke-linecap="butt" stroke-opacity="1" stroke-linejoin="miter" d="M70.139,79.099C70.484,79.099,71.112,78.973,71.803,78.597C85.898,70.874,90.89,67.358,90.89,58.066L90.89,39.167C90.89,36.593,89.665,35.808,87.719,34.96C85.176,33.862,74.785,30.189,72.242,29.31C71.583,29.09,70.861,28.933,70.139,28.933C69.417,28.933,68.664,29.153,68.036,29.31C65.493,29.937,55.102,33.893,52.559,34.96C50.613,35.777,49.388,36.593,49.388,39.167L49.388,58.066C49.388,67.358,54.38,70.842,68.475,78.597C69.166,78.973,69.794,79.099,70.139,79.099ZM70.139,73.95C69.762,73.95,69.386,73.856,68.538,73.385C57.205,66.604,53.846,64.595,53.846,56.967L53.846,40.015C53.846,39.45,53.972,39.198,54.474,38.979C58.492,37.409,65.273,35.243,69.291,33.642C69.605,33.516,69.888,33.485,70.139,33.485C70.39,33.485,70.673,33.516,70.987,33.642C74.973,35.243,81.66,37.597,85.773,38.979C86.306,39.167,86.401,39.45,86.401,40.015L86.401,56.967C86.401,64.595,83.042,66.604,71.709,73.385C70.893,73.856,70.516,73.95,70.139,73.95ZM70.139,73.95"/>
</g>
 </g>
</svg>
