<?xml version="1.0" encoding="UTF-8"?>
<!--Generator: Apple Native CoreSVG 175.5-->
<!DOCTYPE svg
PUBLIC "-//W3C//DTD SVG 1.1//EN"
       "http://www.w3.org/Graphics/SVG/1.1/DTD/svg11.dtd">
<svg version="1.1" xmlns="http://www.w3.org/2000/svg" xmlns:xlink="http://www.w3.org/1999/xlink" width="3300" height="2200">
 <!--glyph: "uni1015C7.medium", point size: 100.0, font version: "18.0d11e1", template writer version: "90"-->
 <style>.monochrome-0 {fill:#000000}

.SFSymbolsPreview000000 {fill:#000000;opacity:1.0}
</style>
 <g id="Notes">
  <rect height="2200" id="artboard" style="fill:white;opacity:1" width="3300" x="0" y="0"/>
  <line style="fill:none;stroke:black;opacity:1;stroke-width:0.5;" x1="263" x2="3036" y1="292" y2="292"/>
  <text style="stroke:none;fill:black;font-family:sans-serif;font-size:13;font-weight:bold;" transform="matrix(1 0 0 1 263 322)">Weight/Scale Variations</text>
  <text style="stroke:none;fill:black;font-family:sans-serif;font-size:13;text-anchor:middle;" transform="matrix(1 0 0 1 559.711 322)">Ultralight</text>
  <text style="stroke:none;fill:black;font-family:sans-serif;font-size:13;text-anchor:middle;" transform="matrix(1 0 0 1 856.422 322)">Thin</text>
  <text style="stroke:none;fill:black;font-family:sans-serif;font-size:13;text-anchor:middle;" transform="matrix(1 0 0 1 1153.13 322)">Light</text>
  <text style="stroke:none;fill:black;font-family:sans-serif;font-size:13;text-anchor:middle;" transform="matrix(1 0 0 1 1449.84 322)">Regular</text>
  <text style="stroke:none;fill:black;font-family:sans-serif;font-size:13;text-anchor:middle;" transform="matrix(1 0 0 1 1746.56 322)">Medium</text>
  <text style="stroke:none;fill:black;font-family:sans-serif;font-size:13;text-anchor:middle;" transform="matrix(1 0 0 1 2043.27 322)">Semibold</text>
  <text style="stroke:none;fill:black;font-family:sans-serif;font-size:13;text-anchor:middle;" transform="matrix(1 0 0 1 2339.98 322)">Bold</text>
  <text style="stroke:none;fill:black;font-family:sans-serif;font-size:13;text-anchor:middle;" transform="matrix(1 0 0 1 2636.69 322)">Heavy</text>
  <text style="stroke:none;fill:black;font-family:sans-serif;font-size:13;text-anchor:middle;" transform="matrix(1 0 0 1 2933.4 322)">Black</text>
  <line style="fill:none;stroke:black;opacity:1;stroke-width:0.5;" x1="263" x2="3036" y1="1903" y2="1903"/>
  <g transform="matrix(1 0 0 1 263 1933)">
   <path d="M9.24805 0.830078C13.5547 0.830078 17.1387-2.74414 17.1387-7.05078C17.1387-11.3574 13.5449-14.9316 9.23828-14.9316C4.94141-14.9316 1.36719-11.3574 1.36719-7.05078C1.36719-2.74414 4.95117 0.830078 9.24805 0.830078ZM9.24805-0.654297C5.70312-0.654297 2.87109-3.49609 2.87109-7.05078C2.87109-10.6055 5.69336-13.4473 9.23828-13.4473C12.793-13.4473 15.6445-10.6055 15.6445-7.05078C15.6445-3.49609 12.8027-0.654297 9.24805-0.654297ZM5.6543-7.05078C5.6543-6.62109 5.95703-6.32812 6.40625-6.32812L8.50586-6.32812L8.50586-4.20898C8.50586-3.76953 8.79883-3.4668 9.22852-3.4668C9.67773-3.4668 9.9707-3.76953 9.9707-4.20898L9.9707-6.32812L12.0898-6.32812C12.5293-6.32812 12.832-6.62109 12.832-7.05078C12.832-7.49023 12.5293-7.79297 12.0898-7.79297L9.9707-7.79297L9.9707-9.90234C9.9707-10.3516 9.67773-10.6543 9.22852-10.6543C8.79883-10.6543 8.50586-10.3516 8.50586-9.90234L8.50586-7.79297L6.40625-7.79297C5.95703-7.79297 5.6543-7.49023 5.6543-7.05078Z"/>
  </g>
  <g transform="matrix(1 0 0 1 281.867 1933)">
   <path d="M11.709 2.91016C17.1582 2.91016 21.6699-1.61133 21.6699-7.05078C21.6699-12.5 17.1484-17.0117 11.6992-17.0117C6.25977-17.0117 1.74805-12.5 1.74805-7.05078C1.74805-1.61133 6.26953 2.91016 11.709 2.91016ZM11.709 1.25C7.09961 1.25 3.41797-2.44141 3.41797-7.05078C3.41797-11.6602 7.08984-15.3516 11.6992-15.3516C16.3086-15.3516 20.0098-11.6602 20.0098-7.05078C20.0098-2.44141 16.3184 1.25 11.709 1.25ZM7.17773-7.05078C7.17773-6.57227 7.50977-6.25 8.00781-6.25L10.8789-6.25L10.8789-3.36914C10.8789-2.88086 11.2109-2.53906 11.6895-2.53906C12.1777-2.53906 12.5195-2.87109 12.5195-3.36914L12.5195-6.25L15.4004-6.25C15.8887-6.25 16.2305-6.57227 16.2305-7.05078C16.2305-7.53906 15.8887-7.88086 15.4004-7.88086L12.5195-7.88086L12.5195-10.752C12.5195-11.25 12.1777-11.5918 11.6895-11.5918C11.2109-11.5918 10.8789-11.25 10.8789-10.752L10.8789-7.88086L8.00781-7.88086C7.50977-7.88086 7.17773-7.53906 7.17773-7.05078Z"/>
  </g>
  <g transform="matrix(1 0 0 1 305.646 1933)">
   <path d="M14.9707 5.66406C21.9336 5.66406 27.6953-0.0976562 27.6953-7.05078C27.6953-14.0137 21.9238-19.7754 14.9609-19.7754C8.00781-19.7754 2.25586-14.0137 2.25586-7.05078C2.25586-0.0976562 8.01758 5.66406 14.9707 5.66406ZM14.9707 3.84766C8.93555 3.84766 4.08203-1.01562 4.08203-7.05078C4.08203-13.0957 8.92578-17.9492 14.9609-17.9492C21.0059-17.9492 25.8691-13.0957 25.8691-7.05078C25.8691-1.01562 21.0156 3.84766 14.9707 3.84766ZM9.19922-7.05078C9.19922-6.5332 9.57031-6.17188 10.1172-6.17188L14.0625-6.17188L14.0625-2.2168C14.0625-1.67969 14.4336-1.29883 14.9512-1.29883C15.4883-1.29883 15.8594-1.66992 15.8594-2.2168L15.8594-6.17188L19.8145-6.17188C20.3516-6.17188 20.7324-6.5332 20.7324-7.05078C20.7324-7.59766 20.3613-7.96875 19.8145-7.96875L15.8594-7.96875L15.8594-11.9141C15.8594-12.4609 15.4883-12.8418 14.9512-12.8418C14.4336-12.8418 14.0625-12.4609 14.0625-11.9141L14.0625-7.96875L10.1172-7.96875C9.57031-7.96875 9.19922-7.59766 9.19922-7.05078Z"/>
  </g>
  <text style="stroke:none;fill:black;font-family:sans-serif;font-size:13;font-weight:bold;" transform="matrix(1 0 0 1 263 1953)">Design Variations</text>
  <text style="stroke:none;fill:black;font-family:sans-serif;font-size:13;" transform="matrix(1 0 0 1 263 1971)">Symbols are supported in up to nine weights and three scales.</text>
  <text style="stroke:none;fill:black;font-family:sans-serif;font-size:13;" transform="matrix(1 0 0 1 263 1989)">For optimal layout with text and other symbols, vertically align</text>
  <text style="stroke:none;fill:black;font-family:sans-serif;font-size:13;" transform="matrix(1 0 0 1 263 2007)">symbols with the adjacent text.</text>
  <line style="fill:none;stroke:#00AEEF;stroke-width:0.5;opacity:1.0;" x1="776" x2="776" y1="1919" y2="1933"/>
  <g transform="matrix(1 0 0 1 776 1933)">
   <path d="M3.31055 0.15625C3.82812 0.15625 4.08203-0.0390625 4.26758-0.585938L5.52734-4.0332L11.2891-4.0332L12.5488-0.585938C12.7344-0.0390625 12.9883 0.15625 13.4961 0.15625C14.0137 0.15625 14.3457-0.15625 14.3457-0.644531C14.3457-0.810547 14.3164-0.966797 14.2383-1.17188L9.6582-13.3691C9.43359-13.9648 9.0332-14.2676 8.4082-14.2676C7.80273-14.2676 7.39258-13.9746 7.17773-13.3789L2.59766-1.16211C2.51953-0.957031 2.49023-0.800781 2.49023-0.634766C2.49023-0.146484 2.80273 0.15625 3.31055 0.15625ZM6.00586-5.51758L8.37891-12.0898L8.42773-12.0898L10.8008-5.51758Z"/>
  </g>
  <line style="fill:none;stroke:#00AEEF;stroke-width:0.5;opacity:1.0;" x1="793.197" x2="793.197" y1="1919" y2="1933"/>
  <text style="stroke:none;fill:black;font-family:sans-serif;font-size:13;font-weight:bold;" transform="matrix(1 0 0 1 776 1953)">Margins</text>
  <text style="stroke:none;fill:black;font-family:sans-serif;font-size:13;" transform="matrix(1 0 0 1 776 1971)">Leading and trailing margins on the left and right side of each symbol</text>
  <text style="stroke:none;fill:black;font-family:sans-serif;font-size:13;" transform="matrix(1 0 0 1 776 1989)">can be adjusted by modifying the x-location of the margin guidelines.</text>
  <text style="stroke:none;fill:black;font-family:sans-serif;font-size:13;" transform="matrix(1 0 0 1 776 2007)">Modifications are automatically applied proportionally to all</text>
  <text style="stroke:none;fill:black;font-family:sans-serif;font-size:13;" transform="matrix(1 0 0 1 776 2025)">scales and weights.</text>
  <g transform="matrix(1 0 0 1 1289 1933)">
   <path d="M2.8418 1.86523L4.54102 3.57422C5.40039 4.44336 6.38672 4.38477 7.31445 3.35938L18.0078-8.42773L17.041-9.4043L6.42578 2.27539C6.07422 2.67578 5.74219 2.77344 5.27344 2.30469L4.10156 1.14258C3.63281 0.683594 3.74023 0.341797 4.14062-0.0195312L15.6152-10.8203L14.6387-11.7871L3.04688-0.898438C2.06055 0.0195312 1.98242 0.996094 2.8418 1.86523ZM9.25781-16.3281C8.83789-15.918 8.80859-15.3418 9.04297-14.9512C9.27734-14.5898 9.73633-14.3555 10.3809-14.5215C11.8457-14.8633 13.3691-14.9219 14.7949-13.9844L14.209-12.5293C13.8672-11.6992 14.043-11.1133 14.5801-10.5664L16.875-8.25195C17.3633-7.76367 17.7734-7.74414 18.3398-7.8418L19.4043-8.03711L20.0684-7.36328L20.0293-6.80664C19.9902-6.30859 20.1172-5.92773 20.6055-5.44922L21.3672-4.70703C21.8457-4.22852 22.4609-4.19922 22.9297-4.66797L25.8398-7.58789C26.3086-8.05664 26.2891-8.65234 25.8105-9.13086L25.0391-9.89258C24.5605-10.3711 24.1895-10.5273 23.7109-10.4883L23.1348-10.4395L22.4902-11.0742L22.7344-12.1973C22.8613-12.7637 22.7051-13.2031 22.1191-13.7891L19.9219-15.9766C16.582-19.2969 12.1484-19.2188 9.25781-16.3281ZM10.752-15.957C13.1836-17.7344 16.4746-17.4316 18.7012-15.2051L21.1328-12.793C21.3672-12.5586 21.4062-12.373 21.3379-12.0312L21.0156-10.5469L22.5195-9.0625L23.5059-9.12109C23.7598-9.13086 23.8379-9.11133 24.0332-8.91602L24.6094-8.33984L22.168-5.89844L21.5918-6.47461C21.3965-6.66992 21.3672-6.74805 21.377-7.01172L21.4453-7.98828L19.9512-9.47266L18.4277-9.21875C18.1055-9.15039 17.959-9.17969 17.7148-9.41406L15.7129-11.416C15.459-11.6504 15.4297-11.8164 15.5859-12.1875L16.4648-14.2773C14.9023-15.7324 12.8711-16.3574 10.8398-15.7617C10.6836-15.7227 10.625-15.8496 10.752-15.957Z"/>
  </g>
  <text style="stroke:none;fill:black;font-family:sans-serif;font-size:13;font-weight:bold;" transform="matrix(1 0 0 1 1289 1953)">Exporting</text>
  <text style="stroke:none;fill:black;font-family:sans-serif;font-size:13;" transform="matrix(1 0 0 1 1289 1971)">Symbols should be outlined when exporting to ensure the</text>
  <text style="stroke:none;fill:black;font-family:sans-serif;font-size:13;" transform="matrix(1 0 0 1 1289 1989)">design is preserved when submitting to Xcode.</text>
  <text id="template-version" style="stroke:none;fill:black;font-family:sans-serif;font-size:13;text-anchor:end;" transform="matrix(1 0 0 1 3036 1933)">Template v.4.0</text>
  <text style="stroke:none;fill:black;font-family:sans-serif;font-size:13;text-anchor:end;" transform="matrix(1 0 0 1 3036 1951)">Requires Xcode 14 or greater</text>
  <text id="descriptive-name" style="stroke:none;fill:black;font-family:sans-serif;font-size:13;text-anchor:end;" transform="matrix(1 0 0 1 3036 1969)">Generated from figure.2.and.child.holdinghands</text>
  <text style="stroke:none;fill:black;font-family:sans-serif;font-size:13;text-anchor:end;" transform="matrix(1 0 0 1 3036 1987)">Typeset at 100 points</text>
  <text style="stroke:none;fill:black;font-family:sans-serif;font-size:13;" transform="matrix(1 0 0 1 263 726)">Small</text>
  <text style="stroke:none;fill:black;font-family:sans-serif;font-size:13;" transform="matrix(1 0 0 1 263 1156)">Medium</text>
  <text style="stroke:none;fill:black;font-family:sans-serif;font-size:13;" transform="matrix(1 0 0 1 263 1586)">Large</text>
 </g>
 <g id="Guides">
  <g id="H-reference" style="fill:#27AAE1;stroke:none;" transform="matrix(1 0 0 1 339 696)">
   <path d="M0.993654 0L3.63775 0L29.3281-67.1323L30.0303-67.1323L30.0303-70.459L28.1226-70.459ZM11.6885-24.4799L46.9815-24.4799L46.2315-26.7285L12.4385-26.7285ZM55.1196 0L57.7637 0L30.6382-70.459L29.4326-70.459L29.4326-67.1323Z"/>
  </g>
  <line id="Baseline-S" style="fill:none;stroke:#27AAE1;opacity:1;stroke-width:0.5;" x1="263" x2="3036" y1="696" y2="696"/>
  <line id="Capline-S" style="fill:none;stroke:#27AAE1;opacity:1;stroke-width:0.5;" x1="263" x2="3036" y1="625.541" y2="625.541"/>
  <g id="H-reference" style="fill:#27AAE1;stroke:none;" transform="matrix(1 0 0 1 339 1126)">
   <path d="M0.993654 0L3.63775 0L29.3281-67.1323L30.0303-67.1323L30.0303-70.459L28.1226-70.459ZM11.6885-24.4799L46.9815-24.4799L46.2315-26.7285L12.4385-26.7285ZM55.1196 0L57.7637 0L30.6382-70.459L29.4326-70.459L29.4326-67.1323Z"/>
  </g>
  <line id="Baseline-M" style="fill:none;stroke:#27AAE1;opacity:1;stroke-width:0.5;" x1="263" x2="3036" y1="1126" y2="1126"/>
  <line id="Capline-M" style="fill:none;stroke:#27AAE1;opacity:1;stroke-width:0.5;" x1="263" x2="3036" y1="1055.54" y2="1055.54"/>
  <g id="H-reference" style="fill:#27AAE1;stroke:none;" transform="matrix(1 0 0 1 339 1556)">
   <path d="M0.993654 0L3.63775 0L29.3281-67.1323L30.0303-67.1323L30.0303-70.459L28.1226-70.459ZM11.6885-24.4799L46.9815-24.4799L46.2315-26.7285L12.4385-26.7285ZM55.1196 0L57.7637 0L30.6382-70.459L29.4326-70.459L29.4326-67.1323Z"/>
  </g>
  <line id="Baseline-L" style="fill:none;stroke:#27AAE1;opacity:1;stroke-width:0.5;" x1="263" x2="3036" y1="1556" y2="1556"/>
  <line id="Capline-L" style="fill:none;stroke:#27AAE1;opacity:1;stroke-width:0.5;" x1="263" x2="3036" y1="1485.54" y2="1485.54"/>
  <line id="left-margin-Ultralight-S" style="fill:none;stroke:#00AEEF;stroke-width:0.5;opacity:1.0;" x1="497.391" x2="497.391" y1="600.785" y2="720.121"/>
  <line id="right-margin-Ultralight-S" style="fill:none;stroke:#00AEEF;stroke-width:0.5;opacity:1.0;" x1="622.031" x2="622.031" y1="600.785" y2="720.121"/>
  <line id="left-margin-Regular-S" style="fill:none;stroke:#00AEEF;stroke-width:0.5;opacity:1.0;" x1="1381.49" x2="1381.49" y1="600.785" y2="720.121"/>
  <line id="right-margin-Regular-S" style="fill:none;stroke:#00AEEF;stroke-width:0.5;opacity:1.0;" x1="1518.2" x2="1518.2" y1="600.785" y2="720.121"/>
  <line id="left-margin-Black-S" style="fill:none;stroke:#00AEEF;stroke-width:0.5;opacity:1.0;" x1="2861.33" x2="2861.33" y1="600.785" y2="720.121"/>
  <line id="right-margin-Black-S" style="fill:none;stroke:#00AEEF;stroke-width:0.5;opacity:1.0;" x1="3005.47" x2="3005.47" y1="600.785" y2="720.121"/>
 </g>
 <g id="Symbols">
  <g id="Black-S" transform="matrix(1 0 0 1 2861.33 696)">
   <path class="monochrome-0 SFSymbolsPreview000000" d="M23.9258 10.1562C26.123 10.1562 27.7832 8.88672 28.6133 6.00586C29.9805 1.02539 34.0332-15.9668 35.4004-20.0195C36.377-22.8516 36.7676-23.5352 37.9395-23.5352C39.1113-23.5352 39.502-22.8516 40.4785-20.0195C41.2109-17.8711 46.6309 3.71094 47.2656 6.00586C48.0957 8.88672 49.7559 10.1562 51.9531 10.1562C55.0781 10.1562 57.0312 7.32422 56.2012 4.24805C53.4668-7.03125 49.8535-22.5586 49.1699-26.4648C48.5352-30.1758 48.3887-37.3047 48.3398-42.1875C48.3398-42.627 48.8281-42.7734 49.0723-42.4316L51.9043-38.3789C51.8066-42.2363 54.9316-45.4102 58.7891-45.5078L53.6621-53.0762C50.5371-57.666 46.582-60.4492 37.9395-60.4492C29.2969-60.4492 25.3418-57.7148 22.2168-53.0762L11.4258-37.0117C11.084-36.4746 10.5957-35.8398 10.3027-35.2539C9.17969-33.3496 9.81445-30.6641 12.3047-29.2969C14.1602-28.2227 16.5039-28.5156 17.9688-30.127C19.043-31.3477 23.584-37.7441 26.8066-42.4316C27.0508-42.7734 27.5391-42.627 27.5391-42.1875C27.4902-37.3047 27.3438-30.1758 26.709-26.4648C25.8301-21.3867 19.9707 3.22266 19.6777 4.24805C18.8477 7.32422 20.8008 10.1562 23.9258 10.1562ZM92.1875 10.1562C94.3848 10.1562 96.0449 8.88672 96.875 6.00586C97.5098 3.71094 102.93-17.8711 103.662-20.0195C104.639-22.8516 105.029-23.5352 106.201-23.5352C107.373-23.5352 107.764-22.8516 108.74-20.0195C110.107-15.9668 114.16 1.02539 115.527 6.00586C116.357 8.88672 118.018 10.1562 120.215 10.1562C123.34 10.1562 125.293 7.32422 124.463 4.24805C124.17 3.22266 118.311-21.3867 117.432-26.4648C116.797-30.1758 116.65-37.3047 116.602-42.1875C116.602-42.627 117.09-42.7734 117.334-42.4316C120.557-37.7441 125.098-31.3477 126.172-30.127C127.637-28.5156 129.98-28.2227 131.836-29.2969C134.326-30.6641 134.961-33.3496 133.838-35.2539C133.545-35.8398 133.057-36.4746 132.715-37.0117L121.924-53.0762C118.799-57.7148 114.844-60.4492 106.201-60.4492C97.5586-60.4492 93.6035-57.666 90.4785-53.0762L85.3516-45.5078C89.209-45.4102 92.334-42.2363 92.2363-38.3789L95.0684-42.4316C95.3125-42.7734 95.8008-42.627 95.8008-42.1875C95.752-37.3047 95.6055-30.1758 94.9707-26.4648C94.2871-22.5586 90.6738-7.03125 87.9395 4.24805C87.1094 7.32422 89.0625 10.1562 92.1875 10.1562ZM62.8906 10.1562C64.7461 10.1562 66.3086 9.08203 66.8945 6.68945C67.8223 3.4668 70.459-7.66602 71.3867-10.3516C71.582-10.9863 71.7773-11.1816 72.0703-11.1816C72.3633-11.1816 72.5586-10.9863 72.7539-10.3516C73.6816-7.66602 76.3184 3.4668 77.2461 6.68945C77.832 9.08203 79.3945 10.1562 81.25 10.1562C83.9844 10.1562 85.7422 7.61719 85.0098 4.98047C84.9121 4.6875 81.0059-11.6699 80.4688-15.0391C80.0293-17.7246 79.9316-22.0703 79.9316-24.2676C79.9316-25.4395 80.2246-26.2695 80.8105-26.9043C83.9844-30.7129 88.1348-35.5469 88.6719-36.2793C89.7461-37.9395 89.4531-40.0391 88.1348-41.3574C86.4746-42.9688 83.8867-43.0176 82.6172-41.6504L77.7832-36.4258C75.9277-34.4238 74.5117-33.6426 72.0703-33.6426C69.6289-33.6426 68.2129-34.4238 66.3574-36.4258L61.5234-41.6504C60.2539-43.0176 57.666-42.9688 56.0059-41.3574C54.6875-40.0391 54.3945-37.9395 55.4688-36.2793C56.0059-35.5469 60.1562-30.7129 63.3301-26.9043C63.916-26.2695 64.209-25.4395 64.209-24.2676C64.209-22.0703 64.1113-17.7246 63.6719-15.0391C63.1348-11.6699 59.2285 4.6875 59.1309 4.98047C58.3984 7.61719 60.1562 10.1562 62.8906 10.1562ZM106.201-63.623C111.572-63.623 115.967-68.0176 115.967-73.3887C115.967-78.7598 111.572-83.1543 106.201-83.1543C100.83-83.1543 96.4355-78.7598 96.4355-73.3887C96.4355-68.0176 100.83-63.623 106.201-63.623ZM37.9395-63.623C43.3105-63.623 47.7051-68.0176 47.7051-73.3887C47.7051-78.7598 43.3105-83.1543 37.9395-83.1543C32.5684-83.1543 28.1738-78.7598 28.1738-73.3887C28.1738-68.0176 32.5684-63.623 37.9395-63.623ZM72.0215-37.793C76.123-37.793 79.3945-41.0645 79.3945-45.166C79.3945-49.2676 76.123-52.5879 72.0215-52.5879C67.9199-52.5879 64.5996-49.2676 64.5996-45.166C64.5996-41.0645 67.9199-37.793 72.0215-37.793Z"/>
  </g>
  <g id="Regular-S" transform="matrix(1 0 0 1 1381.49 696)">
   <path class="monochrome-0 SFSymbolsPreview000000" d="M22.5586 7.51953C24.4141 7.51953 25.6836 6.54297 26.3184 4.05273C27.6367-0.683594 31.543-16.9922 32.9102-20.8984C33.8379-23.6816 34.4238-24.7559 35.9863-24.7559C37.5488-24.7559 38.1348-23.6816 39.0625-20.8984C40.3809-16.9922 44.2871-0.683594 45.6055 4.05273C46.2891 6.54297 47.5586 7.51953 49.3652 7.51953C51.9043 7.51953 53.4668 5.22461 52.7344 2.7832C52.4414 1.75781 46.8262-21.8262 46.0449-26.709C45.3613-30.8105 45.2148-38.9648 45.2148-43.457C45.2148-44.0918 45.8984-44.3359 46.2891-43.7988L50.6348-37.6953C51.0742-40.1367 53.2715-42.7246 56.5918-42.8223L50.4883-51.8066C47.4609-56.1523 43.7988-58.5938 35.9863-58.5938C28.125-58.5938 24.4629-56.2012 21.4844-51.8066L11.1816-36.5723C10.8398-36.0352 10.4492-35.4492 10.1562-34.9121C9.32617-33.4473 9.76562-31.2988 11.8164-30.1758C13.3301-29.2969 15.1855-29.541 16.3574-30.8594C17.4316-32.0801 22.6074-39.4531 25.6348-43.7988C25.9766-44.2871 26.7578-44.0918 26.7578-43.4082C26.7578-38.916 26.6113-30.8105 25.9277-26.709C25.0977-21.8262 19.5312 1.75781 19.2383 2.7832C18.5059 5.22461 20.0684 7.51953 22.5586 7.51953ZM87.3047 7.51953C89.1602 7.51953 90.4297 6.54297 91.1133 4.05273C92.4316-0.683594 96.2891-16.9922 97.6562-20.8984C98.584-23.6816 99.1699-24.7559 100.732-24.7559C102.295-24.7559 102.881-23.6816 103.809-20.8984C105.176-16.9922 109.033-0.683594 110.352 4.05273C111.035 6.54297 112.305 7.51953 114.16 7.51953C116.65 7.51953 118.213 5.22461 117.48 2.7832C117.188 1.75781 111.572-21.8262 110.791-26.709C110.107-30.8105 109.961-38.916 109.961-43.4082C109.961-44.0918 110.693-44.2871 111.035-43.7988C114.111-39.4531 119.287-32.0801 120.361-30.8594C121.533-29.541 123.34-29.2969 124.902-30.1758C126.953-31.2988 127.393-33.4473 126.562-34.9121C126.27-35.4492 125.879-36.0352 125.488-36.5723L115.234-51.8066C112.256-56.2012 108.545-58.5938 100.732-58.5938C92.9199-58.5938 89.209-56.1523 86.2305-51.8066L80.127-42.8223C83.4473-42.7246 85.6445-40.1367 86.084-37.6953L90.4297-43.7988C90.7715-44.3359 91.5039-44.0918 91.5039-43.457C91.5039-38.9648 91.3574-30.8105 90.6738-26.709C89.8926-21.8262 84.2773 1.75781 83.9844 2.7832C83.252 5.22461 84.8145 7.51953 87.3047 7.51953ZM60.1074 7.51953C61.6211 7.51953 62.8418 6.64062 63.3301 4.6875C64.1602 1.80664 66.5527-8.25195 67.334-10.6934C67.8711-12.3047 67.9688-12.4023 68.3594-12.4023C68.75-12.4023 68.8477-12.3047 69.3848-10.6934C70.166-8.25195 72.5586 1.80664 73.3887 4.6875C73.877 6.64062 75.0977 7.51953 76.6113 7.51953C78.8574 7.51953 80.127 5.41992 79.5898 3.41797C79.3945 2.73438 76.0254-11.7188 75.4883-14.7461C75.0977-17.1387 75-22.0215 75-23.9746C75-25.0977 75.3418-25.8301 75.9766-26.5625C78.8086-30.0781 82.3242-34.082 82.7637-34.7656C83.6914-36.084 83.3496-37.7441 82.2754-38.8672C81.0547-40.2344 79.0039-40.1855 77.9297-39.0625L73.8281-34.668C72.1191-32.8125 70.7031-31.9824 68.3594-31.9824C66.0156-31.9824 64.5996-32.8125 62.8906-34.668L58.7891-39.0625C57.7148-40.1855 55.6152-40.2344 54.4434-38.8672C53.3691-37.7441 53.0273-36.084 53.9551-34.7656C54.3945-34.082 57.9102-30.0781 60.7422-26.5625C61.377-25.8301 61.7188-25.0977 61.7188-23.9746C61.7188-22.0215 61.6211-17.1387 61.2305-14.7461C60.6934-11.7188 57.2754 2.73438 57.0801 3.41797C56.543 5.41992 57.8613 7.51953 60.1074 7.51953ZM100.732-62.5C105.42-62.5 109.229-66.2598 109.229-70.9961C109.229-75.6836 105.42-79.4434 100.732-79.4434C96.0449-79.4434 92.2363-75.6836 92.2363-70.9961C92.2363-66.2598 96.0449-62.5 100.732-62.5ZM35.9863-62.5C40.6738-62.5 44.4336-66.2598 44.4336-70.9961C44.4336-75.6836 40.6738-79.4434 35.9863-79.4434C31.2988-79.4434 27.4902-75.6836 27.4902-70.9961C27.4902-66.2598 31.2988-62.5 35.9863-62.5ZM68.3594-35.7422C71.7773-35.7422 74.6582-38.5742 74.6582-42.041C74.6582-45.459 71.7773-48.291 68.3594-48.291C64.8926-48.291 62.1094-45.459 62.1094-42.041C62.1094-38.5742 64.8926-35.7422 68.3594-35.7422Z"/>
  </g>
  <g id="Ultralight-S" transform="matrix(1 0 0 1 497.391 696)">
   <path class="monochrome-0 SFSymbolsPreview000000" d="M20.9238 3.93216C22.5523 3.93216 23.5947 2.95559 24.1387 0.964868C25.3662-3.40818 29.1817-18.3545 30.1856-21.9883C30.8863-24.499 31.6538-25.6186 33.2163-25.6186C34.7788-25.6186 35.5464-24.499 36.2471-21.9883C37.2476-18.3545 41.0176-3.40818 42.2451 0.964868C42.7925 2.95559 43.835 3.93216 45.46 3.93216C47.5904 3.93216 48.8804 2.00051 48.3296-0.123024C48.0821-1.0576 42.7393-22.6435 42.1851-27.1177C41.6377-31.6279 41.355-41.5986 41.355-43.5479C41.355-44.001 41.9024-44.1997 42.2476-43.7534L46.4571-37.9224C47.2598-39.8189 49.1846-41.6348 51.7329-41.6416L46.6739-48.9004C42.7837-54.4722 37.941-54.961 33.2163-54.961C28.4429-54.961 23.6455-54.4756 19.7134-48.9004L11.4995-37.1172C10.9307-36.2622 10.4946-35.6763 10.1108-35.0029C9.37158-33.6289 9.81103-31.8892 11.4531-31.0386C12.8306-30.2959 14.5044-30.54 15.54-31.8584C16.4326-33.0337 22.1079-40.9516 24.1362-43.7534C24.478-44.1963 25.0322-44.001 25.0322-43.5444C25.0322-41.5952 24.7495-31.6279 24.2022-27.1177C23.6445-22.6435 18.3052-1.0576 18.0576-0.123024C17.5523 2.00051 18.7969 3.93216 20.9238 3.93216ZM79.1763 3.93216C80.8048 3.93216 81.8472 2.95559 82.3946 0.964868C83.6221-3.40818 87.4342-18.3545 88.4381-21.9883C89.1387-24.499 89.9063-25.6186 91.4688-25.6186C93.0313-25.6186 93.7989-24.499 94.4996-21.9883C95.4581-18.3545 99.2701-3.40818 100.498 0.964868C101.045 2.95559 102.087 3.93216 103.716 3.93216C105.843 3.93216 107.133 2.00051 106.582-0.123024C106.335-1.0576 100.992-22.6435 100.438-27.1177C99.8902-31.6279 99.6075-41.5952 99.6075-43.5444C99.6075-44.001 100.158-44.1963 100.5-43.7534C102.532-40.9516 108.253-33.0337 109.145-31.8584C110.181-30.54 111.851-30.2959 113.187-31.0386C114.829-31.8892 115.268-33.6289 114.529-35.0029C114.145-35.6763 113.709-36.2622 113.137-37.1172L104.926-48.9004C101.04-54.4756 96.1935-54.961 91.4688-54.961C86.6988-54.961 81.898-54.4722 77.9659-48.9004L72.9522-41.6416C75.4551-41.6348 77.3799-39.8189 78.1827-37.9224L82.3922-43.7534C82.734-44.1997 83.2847-44.001 83.2847-43.5479C83.2847-41.5986 83.002-31.6279 82.4547-27.1177C81.9005-22.6435 76.5577-1.0576 76.3101-0.123024C75.7593 2.00051 77.0494 3.93216 79.1763 3.93216ZM54.8399 3.93216C56.0811 3.93216 57.1202 3.23489 57.5176 1.59963C58.3023-1.05418 60.4678-10.2046 61.1583-12.4643C61.6954-13.9849 61.8384-14.1733 62.3199-14.1733C62.8013-14.1733 62.9444-13.9849 63.4815-12.4643C64.1719-10.2046 66.3375-1.05418 67.1221 1.59963C67.5196 3.23489 68.5586 3.93216 69.8453 3.93216C71.7281 3.93216 72.8614 2.24124 72.3697 0.511742C72.1744-0.126442 69.0777-13.2627 68.586-16.0176C68.2408-18.2739 68.1431-22.6572 68.1431-24.4287C68.1431-25.5063 68.5303-26.2388 69.0743-26.9258C71.6793-30.1235 74.8316-33.7642 75.2256-34.4023C76.0172-35.5391 75.7208-36.8814 74.7828-37.8682C73.8345-38.9629 72.1016-38.9595 71.209-38.0635L67.4708-34.0776C65.8526-32.3584 64.482-31.5283 62.3199-31.5283C60.1578-31.5283 58.7872-32.3584 57.169-34.0776L53.4307-38.0635C52.5835-38.9595 50.8472-38.9629 49.857-37.8682C48.919-36.8814 48.6226-35.5391 49.4141-34.4023C49.8081-33.7642 53.0513-30.1235 55.6109-26.9258C56.1548-26.2388 56.542-25.5063 56.542-24.4287C56.542-22.6572 56.4444-18.2739 56.0992-16.0176C55.6075-13.2627 52.5074-0.126442 52.312 0.511742C51.8203 2.24124 52.9571 3.93216 54.8399 3.93216ZM91.4688-59.3213C95.5206-59.3213 98.6934-62.4908 98.6934-66.5913C98.6934-70.7339 95.5206-73.858 91.4688-73.858C87.3717-73.858 84.1534-70.7339 84.1534-66.5913C84.1534-62.4908 87.3717-59.3213 91.4688-59.3213ZM33.2163-59.3213C37.2681-59.3213 40.4829-62.4908 40.4829-66.5913C40.4829-70.7339 37.2681-73.858 33.2163-73.858C29.1192-73.858 25.9463-70.7339 25.9463-66.5913C25.9463-62.4908 29.1192-59.3213 33.2163-59.3213ZM62.3199-34.4707C65.3746-34.4707 67.8467-36.9395 67.8467-39.9976C67.8467-43.0069 65.3746-45.4756 62.3199-45.4756C59.2618-45.4756 56.8872-43.0069 56.8872-39.9976C56.8872-36.9395 59.2618-34.4707 62.3199-34.4707Z"/>
  </g>
 </g>
</svg>
