<?xml version="1.0" encoding="UTF-8"?>
<!--Generator: Apple Native CoreSVG 175.5-->
<!DOCTYPE svg
PUBLIC "-//W3C//DTD SVG 1.1//EN"
       "http://www.w3.org/Graphics/SVG/1.1/DTD/svg11.dtd">
<svg version="1.1" xmlns="http://www.w3.org/2000/svg" xmlns:xlink="http://www.w3.org/1999/xlink" width="3300" height="2200">
 <!--glyph: "uni100875.medium", point size: 100.0, font version: "18.0d11e1", template writer version: "90"-->
 <style>.monochrome-0 {fill:#000000}

.SFSymbolsPreview000000 {fill:#000000;opacity:1.0}
</style>
 <g id="Notes">
  <rect height="2200" id="artboard" style="fill:white;opacity:1" width="3300" x="0" y="0"/>
  <line style="fill:none;stroke:black;opacity:1;stroke-width:0.5;" x1="263" x2="3036" y1="292" y2="292"/>
  <text style="stroke:none;fill:black;font-family:sans-serif;font-size:13;font-weight:bold;" transform="matrix(1 0 0 1 263 322)">Weight/Scale Variations</text>
  <text style="stroke:none;fill:black;font-family:sans-serif;font-size:13;text-anchor:middle;" transform="matrix(1 0 0 1 559.711 322)">Ultralight</text>
  <text style="stroke:none;fill:black;font-family:sans-serif;font-size:13;text-anchor:middle;" transform="matrix(1 0 0 1 856.422 322)">Thin</text>
  <text style="stroke:none;fill:black;font-family:sans-serif;font-size:13;text-anchor:middle;" transform="matrix(1 0 0 1 1153.13 322)">Light</text>
  <text style="stroke:none;fill:black;font-family:sans-serif;font-size:13;text-anchor:middle;" transform="matrix(1 0 0 1 1449.84 322)">Regular</text>
  <text style="stroke:none;fill:black;font-family:sans-serif;font-size:13;text-anchor:middle;" transform="matrix(1 0 0 1 1746.56 322)">Medium</text>
  <text style="stroke:none;fill:black;font-family:sans-serif;font-size:13;text-anchor:middle;" transform="matrix(1 0 0 1 2043.27 322)">Semibold</text>
  <text style="stroke:none;fill:black;font-family:sans-serif;font-size:13;text-anchor:middle;" transform="matrix(1 0 0 1 2339.98 322)">Bold</text>
  <text style="stroke:none;fill:black;font-family:sans-serif;font-size:13;text-anchor:middle;" transform="matrix(1 0 0 1 2636.69 322)">Heavy</text>
  <text style="stroke:none;fill:black;font-family:sans-serif;font-size:13;text-anchor:middle;" transform="matrix(1 0 0 1 2933.4 322)">Black</text>
  <line style="fill:none;stroke:black;opacity:1;stroke-width:0.5;" x1="263" x2="3036" y1="1903" y2="1903"/>
  <g transform="matrix(1 0 0 1 263 1933)">
   <path d="M9.24805 0.830078C13.5547 0.830078 17.1387-2.74414 17.1387-7.05078C17.1387-11.3574 13.5449-14.9316 9.23828-14.9316C4.94141-14.9316 1.36719-11.3574 1.36719-7.05078C1.36719-2.74414 4.95117 0.830078 9.24805 0.830078ZM9.24805-0.654297C5.70312-0.654297 2.87109-3.49609 2.87109-7.05078C2.87109-10.6055 5.69336-13.4473 9.23828-13.4473C12.793-13.4473 15.6445-10.6055 15.6445-7.05078C15.6445-3.49609 12.8027-0.654297 9.24805-0.654297ZM5.6543-7.05078C5.6543-6.62109 5.95703-6.32812 6.40625-6.32812L8.50586-6.32812L8.50586-4.20898C8.50586-3.76953 8.79883-3.4668 9.22852-3.4668C9.67773-3.4668 9.9707-3.76953 9.9707-4.20898L9.9707-6.32812L12.0898-6.32812C12.5293-6.32812 12.832-6.62109 12.832-7.05078C12.832-7.49023 12.5293-7.79297 12.0898-7.79297L9.9707-7.79297L9.9707-9.90234C9.9707-10.3516 9.67773-10.6543 9.22852-10.6543C8.79883-10.6543 8.50586-10.3516 8.50586-9.90234L8.50586-7.79297L6.40625-7.79297C5.95703-7.79297 5.6543-7.49023 5.6543-7.05078Z"/>
  </g>
  <g transform="matrix(1 0 0 1 281.867 1933)">
   <path d="M11.709 2.91016C17.1582 2.91016 21.6699-1.61133 21.6699-7.05078C21.6699-12.5 17.1484-17.0117 11.6992-17.0117C6.25977-17.0117 1.74805-12.5 1.74805-7.05078C1.74805-1.61133 6.26953 2.91016 11.709 2.91016ZM11.709 1.25C7.09961 1.25 3.41797-2.44141 3.41797-7.05078C3.41797-11.6602 7.08984-15.3516 11.6992-15.3516C16.3086-15.3516 20.0098-11.6602 20.0098-7.05078C20.0098-2.44141 16.3184 1.25 11.709 1.25ZM7.17773-7.05078C7.17773-6.57227 7.50977-6.25 8.00781-6.25L10.8789-6.25L10.8789-3.36914C10.8789-2.88086 11.2109-2.53906 11.6895-2.53906C12.1777-2.53906 12.5195-2.87109 12.5195-3.36914L12.5195-6.25L15.4004-6.25C15.8887-6.25 16.2305-6.57227 16.2305-7.05078C16.2305-7.53906 15.8887-7.88086 15.4004-7.88086L12.5195-7.88086L12.5195-10.752C12.5195-11.25 12.1777-11.5918 11.6895-11.5918C11.2109-11.5918 10.8789-11.25 10.8789-10.752L10.8789-7.88086L8.00781-7.88086C7.50977-7.88086 7.17773-7.53906 7.17773-7.05078Z"/>
  </g>
  <g transform="matrix(1 0 0 1 305.646 1933)">
   <path d="M14.9707 5.66406C21.9336 5.66406 27.6953-0.0976562 27.6953-7.05078C27.6953-14.0137 21.9238-19.7754 14.9609-19.7754C8.00781-19.7754 2.25586-14.0137 2.25586-7.05078C2.25586-0.0976562 8.01758 5.66406 14.9707 5.66406ZM14.9707 3.84766C8.93555 3.84766 4.08203-1.01562 4.08203-7.05078C4.08203-13.0957 8.92578-17.9492 14.9609-17.9492C21.0059-17.9492 25.8691-13.0957 25.8691-7.05078C25.8691-1.01562 21.0156 3.84766 14.9707 3.84766ZM9.19922-7.05078C9.19922-6.5332 9.57031-6.17188 10.1172-6.17188L14.0625-6.17188L14.0625-2.2168C14.0625-1.67969 14.4336-1.29883 14.9512-1.29883C15.4883-1.29883 15.8594-1.66992 15.8594-2.2168L15.8594-6.17188L19.8145-6.17188C20.3516-6.17188 20.7324-6.5332 20.7324-7.05078C20.7324-7.59766 20.3613-7.96875 19.8145-7.96875L15.8594-7.96875L15.8594-11.9141C15.8594-12.4609 15.4883-12.8418 14.9512-12.8418C14.4336-12.8418 14.0625-12.4609 14.0625-11.9141L14.0625-7.96875L10.1172-7.96875C9.57031-7.96875 9.19922-7.59766 9.19922-7.05078Z"/>
  </g>
  <text style="stroke:none;fill:black;font-family:sans-serif;font-size:13;font-weight:bold;" transform="matrix(1 0 0 1 263 1953)">Design Variations</text>
  <text style="stroke:none;fill:black;font-family:sans-serif;font-size:13;" transform="matrix(1 0 0 1 263 1971)">Symbols are supported in up to nine weights and three scales.</text>
  <text style="stroke:none;fill:black;font-family:sans-serif;font-size:13;" transform="matrix(1 0 0 1 263 1989)">For optimal layout with text and other symbols, vertically align</text>
  <text style="stroke:none;fill:black;font-family:sans-serif;font-size:13;" transform="matrix(1 0 0 1 263 2007)">symbols with the adjacent text.</text>
  <line style="fill:none;stroke:#00AEEF;stroke-width:0.5;opacity:1.0;" x1="776" x2="776" y1="1919" y2="1933"/>
  <g transform="matrix(1 0 0 1 776 1933)">
   <path d="M3.31055 0.15625C3.82812 0.15625 4.08203-0.0390625 4.26758-0.585938L5.52734-4.0332L11.2891-4.0332L12.5488-0.585938C12.7344-0.0390625 12.9883 0.15625 13.4961 0.15625C14.0137 0.15625 14.3457-0.15625 14.3457-0.644531C14.3457-0.810547 14.3164-0.966797 14.2383-1.17188L9.6582-13.3691C9.43359-13.9648 9.0332-14.2676 8.4082-14.2676C7.80273-14.2676 7.39258-13.9746 7.17773-13.3789L2.59766-1.16211C2.51953-0.957031 2.49023-0.800781 2.49023-0.634766C2.49023-0.146484 2.80273 0.15625 3.31055 0.15625ZM6.00586-5.51758L8.37891-12.0898L8.42773-12.0898L10.8008-5.51758Z"/>
  </g>
  <line style="fill:none;stroke:#00AEEF;stroke-width:0.5;opacity:1.0;" x1="793.197" x2="793.197" y1="1919" y2="1933"/>
  <text style="stroke:none;fill:black;font-family:sans-serif;font-size:13;font-weight:bold;" transform="matrix(1 0 0 1 776 1953)">Margins</text>
  <text style="stroke:none;fill:black;font-family:sans-serif;font-size:13;" transform="matrix(1 0 0 1 776 1971)">Leading and trailing margins on the left and right side of each symbol</text>
  <text style="stroke:none;fill:black;font-family:sans-serif;font-size:13;" transform="matrix(1 0 0 1 776 1989)">can be adjusted by modifying the x-location of the margin guidelines.</text>
  <text style="stroke:none;fill:black;font-family:sans-serif;font-size:13;" transform="matrix(1 0 0 1 776 2007)">Modifications are automatically applied proportionally to all</text>
  <text style="stroke:none;fill:black;font-family:sans-serif;font-size:13;" transform="matrix(1 0 0 1 776 2025)">scales and weights.</text>
  <g transform="matrix(1 0 0 1 1289 1933)">
   <path d="M2.8418 1.86523L4.54102 3.57422C5.40039 4.44336 6.38672 4.38477 7.31445 3.35938L18.0078-8.42773L17.041-9.4043L6.42578 2.27539C6.07422 2.67578 5.74219 2.77344 5.27344 2.30469L4.10156 1.14258C3.63281 0.683594 3.74023 0.341797 4.14062-0.0195312L15.6152-10.8203L14.6387-11.7871L3.04688-0.898438C2.06055 0.0195312 1.98242 0.996094 2.8418 1.86523ZM9.25781-16.3281C8.83789-15.918 8.80859-15.3418 9.04297-14.9512C9.27734-14.5898 9.73633-14.3555 10.3809-14.5215C11.8457-14.8633 13.3691-14.9219 14.7949-13.9844L14.209-12.5293C13.8672-11.6992 14.043-11.1133 14.5801-10.5664L16.875-8.25195C17.3633-7.76367 17.7734-7.74414 18.3398-7.8418L19.4043-8.03711L20.0684-7.36328L20.0293-6.80664C19.9902-6.30859 20.1172-5.92773 20.6055-5.44922L21.3672-4.70703C21.8457-4.22852 22.4609-4.19922 22.9297-4.66797L25.8398-7.58789C26.3086-8.05664 26.2891-8.65234 25.8105-9.13086L25.0391-9.89258C24.5605-10.3711 24.1895-10.5273 23.7109-10.4883L23.1348-10.4395L22.4902-11.0742L22.7344-12.1973C22.8613-12.7637 22.7051-13.2031 22.1191-13.7891L19.9219-15.9766C16.582-19.2969 12.1484-19.2188 9.25781-16.3281ZM10.752-15.957C13.1836-17.7344 16.4746-17.4316 18.7012-15.2051L21.1328-12.793C21.3672-12.5586 21.4062-12.373 21.3379-12.0312L21.0156-10.5469L22.5195-9.0625L23.5059-9.12109C23.7598-9.13086 23.8379-9.11133 24.0332-8.91602L24.6094-8.33984L22.168-5.89844L21.5918-6.47461C21.3965-6.66992 21.3672-6.74805 21.377-7.01172L21.4453-7.98828L19.9512-9.47266L18.4277-9.21875C18.1055-9.15039 17.959-9.17969 17.7148-9.41406L15.7129-11.416C15.459-11.6504 15.4297-11.8164 15.5859-12.1875L16.4648-14.2773C14.9023-15.7324 12.8711-16.3574 10.8398-15.7617C10.6836-15.7227 10.625-15.8496 10.752-15.957Z"/>
  </g>
  <text style="stroke:none;fill:black;font-family:sans-serif;font-size:13;font-weight:bold;" transform="matrix(1 0 0 1 1289 1953)">Exporting</text>
  <text style="stroke:none;fill:black;font-family:sans-serif;font-size:13;" transform="matrix(1 0 0 1 1289 1971)">Symbols should be outlined when exporting to ensure the</text>
  <text style="stroke:none;fill:black;font-family:sans-serif;font-size:13;" transform="matrix(1 0 0 1 1289 1989)">design is preserved when submitting to Xcode.</text>
  <text id="template-version" style="stroke:none;fill:black;font-family:sans-serif;font-size:13;text-anchor:end;" transform="matrix(1 0 0 1 3036 1933)">Template v.4.0</text>
  <text style="stroke:none;fill:black;font-family:sans-serif;font-size:13;text-anchor:end;" transform="matrix(1 0 0 1 3036 1951)">Requires Xcode 14 or greater</text>
  <text id="descriptive-name" style="stroke:none;fill:black;font-family:sans-serif;font-size:13;text-anchor:end;" transform="matrix(1 0 0 1 3036 1969)">Generated from baseball</text>
  <text style="stroke:none;fill:black;font-family:sans-serif;font-size:13;text-anchor:end;" transform="matrix(1 0 0 1 3036 1987)">Typeset at 100 points</text>
  <text style="stroke:none;fill:black;font-family:sans-serif;font-size:13;" transform="matrix(1 0 0 1 263 726)">Small</text>
  <text style="stroke:none;fill:black;font-family:sans-serif;font-size:13;" transform="matrix(1 0 0 1 263 1156)">Medium</text>
  <text style="stroke:none;fill:black;font-family:sans-serif;font-size:13;" transform="matrix(1 0 0 1 263 1586)">Large</text>
 </g>
 <g id="Guides">
  <g id="H-reference" style="fill:#27AAE1;stroke:none;" transform="matrix(1 0 0 1 339 696)">
   <path d="M0.993654 0L3.63775 0L29.3281-67.1323L30.0303-67.1323L30.0303-70.459L28.1226-70.459ZM11.6885-24.4799L46.9815-24.4799L46.2315-26.7285L12.4385-26.7285ZM55.1196 0L57.7637 0L30.6382-70.459L29.4326-70.459L29.4326-67.1323Z"/>
  </g>
  <line id="Baseline-S" style="fill:none;stroke:#27AAE1;opacity:1;stroke-width:0.5;" x1="263" x2="3036" y1="696" y2="696"/>
  <line id="Capline-S" style="fill:none;stroke:#27AAE1;opacity:1;stroke-width:0.5;" x1="263" x2="3036" y1="625.541" y2="625.541"/>
  <g id="H-reference" style="fill:#27AAE1;stroke:none;" transform="matrix(1 0 0 1 339 1126)">
   <path d="M0.993654 0L3.63775 0L29.3281-67.1323L30.0303-67.1323L30.0303-70.459L28.1226-70.459ZM11.6885-24.4799L46.9815-24.4799L46.2315-26.7285L12.4385-26.7285ZM55.1196 0L57.7637 0L30.6382-70.459L29.4326-70.459L29.4326-67.1323Z"/>
  </g>
  <line id="Baseline-M" style="fill:none;stroke:#27AAE1;opacity:1;stroke-width:0.5;" x1="263" x2="3036" y1="1126" y2="1126"/>
  <line id="Capline-M" style="fill:none;stroke:#27AAE1;opacity:1;stroke-width:0.5;" x1="263" x2="3036" y1="1055.54" y2="1055.54"/>
  <g id="H-reference" style="fill:#27AAE1;stroke:none;" transform="matrix(1 0 0 1 339 1556)">
   <path d="M0.993654 0L3.63775 0L29.3281-67.1323L30.0303-67.1323L30.0303-70.459L28.1226-70.459ZM11.6885-24.4799L46.9815-24.4799L46.2315-26.7285L12.4385-26.7285ZM55.1196 0L57.7637 0L30.6382-70.459L29.4326-70.459L29.4326-67.1323Z"/>
  </g>
  <line id="Baseline-L" style="fill:none;stroke:#27AAE1;opacity:1;stroke-width:0.5;" x1="263" x2="3036" y1="1556" y2="1556"/>
  <line id="Capline-L" style="fill:none;stroke:#27AAE1;opacity:1;stroke-width:0.5;" x1="263" x2="3036" y1="1485.54" y2="1485.54"/>
  <line id="left-margin-Ultralight-S" style="fill:none;stroke:#00AEEF;stroke-width:0.5;opacity:1.0;" x1="515.649" x2="515.649" y1="600.785" y2="720.121"/>
  <line id="right-margin-Ultralight-S" style="fill:none;stroke:#00AEEF;stroke-width:0.5;opacity:1.0;" x1="603.773" x2="603.773" y1="600.785" y2="720.121"/>
  <line id="left-margin-Regular-S" style="fill:none;stroke:#00AEEF;stroke-width:0.5;opacity:1.0;" x1="1403.58" x2="1403.58" y1="600.785" y2="720.121"/>
  <line id="right-margin-Regular-S" style="fill:none;stroke:#00AEEF;stroke-width:0.5;opacity:1.0;" x1="1496.11" x2="1496.11" y1="600.785" y2="720.121"/>
  <line id="left-margin-Black-S" style="fill:none;stroke:#00AEEF;stroke-width:0.5;opacity:1.0;" x1="2884.57" x2="2884.57" y1="600.785" y2="720.121"/>
  <line id="right-margin-Black-S" style="fill:none;stroke:#00AEEF;stroke-width:0.5;opacity:1.0;" x1="2982.23" x2="2982.23" y1="600.785" y2="720.121"/>
 </g>
 <g id="Symbols">
  <g id="Black-S" transform="matrix(1 0 0 1 2884.57 696)">
   <path class="monochrome-0 SFSymbolsPreview000000" d="M48.8281 6.78711C71.9727 6.78711 90.8203-12.0605 90.8203-35.2051C90.8203-58.3496 71.9727-77.1973 48.8281-77.1973C25.6836-77.1973 6.83594-58.3496 6.83594-35.2051C6.83594-12.0605 25.6836 6.78711 48.8281 6.78711ZM48.8281-3.95508C31.6406-3.95508 17.5781-18.0176 17.5781-35.2051C17.5781-52.3926 31.6406-66.4551 48.8281-66.4551C66.0156-66.4551 80.0781-52.3926 80.0781-35.2051C80.0781-18.0176 66.0156-3.95508 48.8281-3.95508ZM39.2578-2.83203L45.0195-1.36719C48.291-11.084 47.7051-22.1191 42.1875-31.543C36.7676-41.0156 27.5879-47.1191 17.5293-49.0723L15.918-43.4082C24.4141-41.7969 32.1777-36.7188 36.9141-28.5156C41.6504-20.2637 42.1875-11.1328 39.2578-2.83203ZM79.9316-21.582L81.543-27.2461C72.9492-28.8086 65.2344-33.9355 60.498-42.1387C55.7617-50.3906 55.2246-59.6191 58.1055-67.8223L52.3926-69.2383C49.1211-59.5703 49.7559-48.584 55.2246-39.1113C60.6445-29.5898 69.873-23.584 79.9316-21.582ZM40.3809-18.2129L46.9727-19.9707C48.4375-20.3125 49.3164-21.8262 48.9258-23.291C48.4375-24.9512 46.875-25.5859 45.5566-25.2441L38.9648-23.4863C37.5-23.0957 36.6211-21.582 37.0605-20.166C37.4512-18.5059 39.0625-17.7734 40.3809-18.2129ZM38.1836-26.0742L44.1895-29.541C45.6543-30.3223 45.8984-32.0801 45.166-33.252C44.3359-34.7168 42.627-35.0098 41.4551-34.2773L35.498-30.9082C34.1309-30.1758 33.7402-28.3691 34.5703-27.0996C35.2539-25.9766 36.7188-25.3418 38.1836-26.0742ZM27.7344-38.0859L31.2012-44.043C31.9824-45.3613 31.543-46.9727 30.2246-47.6562C28.7598-48.5352 27.0996-47.998 26.416-46.7773L23.0469-40.8203C22.2168-39.4043 22.7539-37.7441 24.0723-37.0605C25.3418-36.377 26.9531-36.6211 27.7344-38.0859ZM56.7871-54.8828C58.252-54.8828 59.4727-56.0059 59.4727-57.5684C59.5215-58.9844 58.3496-60.3516 56.7383-60.3516L49.9512-60.4004C48.4375-60.3516 47.2168-59.1309 47.2168-57.5684C47.168-56.2012 48.291-54.8828 49.9023-54.8828ZM33.6914-33.3496L38.5254-38.1836C39.7461-39.4043 39.502-41.0156 38.5254-41.9922C37.3535-43.1641 35.6445-43.0664 34.668-42.0898L29.7852-37.207C28.7109-36.1328 28.7109-34.3262 29.834-33.3496C30.957-32.2266 32.6172-32.2266 33.6914-33.3496ZM67.7734-33.9355C68.9453-35.2539 68.6523-36.9629 67.6758-37.8418C66.748-38.8184 65.0879-39.0137 63.8184-37.8418L58.9844-33.0078C57.959-32.0801 57.8125-30.3711 59.0332-29.1504C59.9609-28.2227 61.6699-28.0273 62.8418-29.1504ZM61.9141-39.8438C63.0371-40.4785 63.6719-41.9434 62.9395-43.5059C62.207-44.873 60.4492-45.3613 59.1797-44.5312L53.2227-41.0645C51.9531-40.3809 51.5625-38.7207 52.2949-37.3535C53.0273-36.084 54.6875-35.5469 55.957-36.377ZM40.7715-10.1562L47.6074-10.1562C49.0723-10.1562 50.3418-11.4258 50.3418-12.9395C50.3418-14.4043 49.0723-15.6738 47.6074-15.6738L40.7715-15.6738C39.2578-15.6738 38.0371-14.4043 38.0371-12.9395C38.0371-11.2793 39.4043-10.1562 40.7715-10.1562ZM57.9102-47.3633C59.5703-47.8516 60.2051-49.4141 59.8145-50.6836C59.5215-52.002 58.1055-53.0762 56.4941-52.6367L49.9023-50.8789C48.3887-50.4395 47.6074-48.9258 48.0469-47.5098C48.3398-46.1914 49.707-45.166 51.3184-45.6055ZM74.4629-29.6387C75.2441-31.0059 74.7559-32.6172 73.4375-33.3984C72.1191-34.1797 70.459-33.7402 69.7754-32.4219L66.3086-26.5137C65.5273-25.1465 66.0156-23.4863 67.2852-22.7539C68.5547-21.9727 70.3125-22.4121 71.0449-23.7305Z"/>
  </g>
  <g id="Regular-S" transform="matrix(1 0 0 1 1403.58 696)">
   <path class="monochrome-0 SFSymbolsPreview000000" d="M46.2402 4.15039C67.7734 4.15039 85.6934-13.7207 85.6934-35.2539C85.6934-56.7871 67.7246-74.6582 46.1914-74.6582C24.707-74.6582 6.83594-56.7871 6.83594-35.2539C6.83594-13.7207 24.7559 4.15039 46.2402 4.15039ZM46.2402-1.70898C27.9785-1.70898 12.7441-16.9922 12.7441-35.2539C12.7441-53.5156 27.9297-68.7988 46.1914-68.7988C64.502-68.7988 79.7852-53.5156 79.7852-35.2539C79.7852-16.9922 64.5508-1.70898 46.2402-1.70898ZM37.1582-0.0976562L41.3086 0.976562C44.5312-9.27734 43.75-20.752 38.0371-30.6152C32.3242-40.4785 22.8516-46.9727 12.4023-49.2676L11.1816-45.2148C20.459-43.1641 28.9551-37.3535 34.1309-28.3691C39.3066-19.3848 40.0879-9.17969 37.1582-0.0976562ZM79.9805-21.3867L81.1035-25.4883C71.7773-27.4902 63.3301-33.3008 58.1543-42.2363C52.9785-51.2695 52.1973-61.5234 55.0781-70.5566L50.9277-71.5332C47.7539-61.377 48.5352-49.9512 54.248-40.0391C59.9609-30.127 69.4824-23.7305 79.9805-21.3867ZM36.7188-17.4316L43.9941-19.3359C45.0195-19.6289 45.6055-20.6543 45.3613-21.6797C45.0684-22.7051 44.043-23.3398 43.0176-23.0469L35.7422-21.1426C34.7168-20.8496 34.1309-19.8242 34.4238-18.7988C34.7168-17.7734 35.6934-17.1387 36.7188-17.4316ZM34.0332-26.1719L40.5762-29.8828C41.5527-30.4199 41.8457-31.5918 41.2598-32.4219C40.7227-33.3984 39.5996-33.7402 38.6719-33.2031L32.1289-29.4922C31.2012-28.9551 30.9082-27.7344 31.4941-26.8555C32.0312-25.9277 33.1055-25.6348 34.0332-26.1719ZM21.9238-39.0137L25.6836-45.5566C26.1719-46.4844 25.8789-47.6074 25-48.0957C24.0234-48.6816 22.8516-48.4375 22.3145-47.4609L18.6523-40.918C18.1152-39.9902 18.4082-38.8184 19.3848-38.3301C20.3125-37.793 21.3867-38.0859 21.9238-39.0137ZM55.0293-58.1543C56.0547-58.1543 56.8848-58.9355 56.8848-60.0098C56.9336-61.084 56.0547-61.9629 54.9805-61.9629L47.5098-62.0605C46.4355-62.0117 45.6055-61.1328 45.6055-60.0586C45.5566-59.0332 46.4355-58.2031 47.4609-58.2031ZM28.7109-33.9844L34.0332-39.3066C34.8145-40.0879 34.8145-41.2598 34.0332-41.9434C33.3008-42.7246 32.0801-42.7734 31.3477-42.041L26.0254-36.6699C25.2441-35.9375 25.2441-34.668 26.0742-34.0332C26.8066-33.2031 27.9785-33.2031 28.7109-33.9844ZM66.3574-34.5215C67.1387-35.3027 67.1387-36.5234 66.3086-37.207C65.5762-37.9883 64.4043-37.9883 63.623-37.207L58.3496-31.8848C57.5684-31.1523 57.6172-29.9805 58.3984-29.1992C59.082-28.5156 60.2539-28.5156 61.0352-29.1992ZM60.1562-41.2598C61.0352-41.748 61.3281-42.8223 60.791-43.7988C60.3516-44.7266 59.1309-45.1172 58.252-44.5312L51.709-40.7227C50.7812-40.2344 50.4883-39.0625 51.0742-38.1348C51.5137-37.2559 52.6855-36.8652 53.6133-37.4512ZM37.4023-8.54492L44.873-8.49609C45.9473-8.49609 46.7773-9.32617 46.7773-10.4004C46.7773-11.4258 45.9473-12.3047 44.9219-12.3047L37.4023-12.3535C36.3281-12.3535 35.498-11.4746 35.498-10.4492C35.498-9.42383 36.3281-8.54492 37.4023-8.54492ZM55.957-49.7559C57.0312-50 57.6172-51.0254 57.2754-52.002C57.0801-53.0762 56.0547-53.7109 54.9805-53.418L47.7051-51.4648C46.6797-51.1719 46.1426-50.1465 46.4844-49.1699C46.6797-48.0957 47.6562-47.5098 48.7305-47.8027ZM73.7305-29.541C74.2676-30.4688 73.9258-31.5918 72.998-32.1777C72.1191-32.666 70.8984-32.3242 70.459-31.4453L66.6992-24.9023C66.1621-24.0234 66.4551-22.8516 67.3828-22.3145C68.3105-21.7773 69.5312-22.1191 69.9707-23.0469Z"/>
  </g>
  <g id="Ultralight-S" transform="matrix(1 0 0 1 515.649 696)">
   <path class="monochrome-0 SFSymbolsPreview000000" d="M44.0606 1.97072C64.5039 1.97072 81.2886-14.8105 81.2886-35.2539C81.2886-55.6973 64.5005-72.4785 44.0571-72.4785C23.5718-72.4785 6.83594-55.6973 6.83594-35.2539C6.83594-14.8105 23.5752 1.97072 44.0606 1.97072ZM44.0606-0.165051C24.709-0.165051 8.97513-15.9024 8.97513-35.2539C8.97513-54.6055 24.7056-70.3428 44.0571-70.3428C63.3667-70.3428 79.1494-54.6055 79.1494-35.2539C79.1494-15.9024 63.3701-0.165051 44.0606-0.165051ZM36.7041 0.220212L38.7202 0.613284C42.3062-9.32275 41.7066-20.752 35.9937-30.6152C30.3262-40.4331 20.8081-46.6548 10.4043-48.5864L9.81935-46.6225C19.7324-44.8442 28.8188-38.9429 34.2217-29.5952C39.6245-20.1567 40.2241-9.27051 36.7041 0.220212ZM77.6192-21.8408L78.1973-23.8081C68.2808-25.583 59.1978-31.4844 53.795-40.8286C48.3921-50.2705 47.7925-61.1602 51.3091-70.6475L49.293-71.0337C45.7105-61.1045 46.3101-49.6787 52.023-39.812C57.6904-29.9907 67.2119-23.7759 77.6192-21.8408ZM36.1738-18.1128L42.541-19.5176C43.2031-19.6743 43.4258-20.2456 43.3179-20.7715C43.1611-21.252 42.7261-21.7051 42.1094-21.5484L35.7876-20.189C35.0801-20.0322 34.8574-19.4609 34.9687-18.8896C35.1255-18.4092 35.5571-17.956 36.1738-18.1128ZM32.4893-27.625L38.3057-30.6094C38.919-30.9194 38.9849-31.5464 38.7168-32.0132C38.4522-32.4902 37.9194-32.7866 37.3096-32.4766L31.6294-29.4922C30.9741-29.1367 30.9082-28.5518 31.1763-28.0815C31.4409-27.6533 31.9248-27.3149 32.4893-27.625ZM18.6089-40.7392L21.188-46.7827C21.4493-47.3472 21.1563-47.8799 20.6407-48.0957C20.1182-48.273 19.5366-48.2105 19.3174-47.5518L16.7451-41.6445C16.4351-40.9892 16.7735-40.4985 17.2959-40.2373C17.815-40.1089 18.3897-40.1748 18.6089-40.7392ZM51.4873-59.8345C52.1949-59.7436 52.6162-60.207 52.6617-60.7363C52.7105-61.2656 52.4219-61.7813 51.8018-61.8721L45.3301-62.6963C44.6646-62.7837 44.2432-62.3589 44.1978-61.8296C44.1489-61.3037 44.4375-60.7461 45.0996-60.6553ZM26.4859-35.5737L30.9453-40.3965C31.3633-40.8144 31.2271-41.4414 30.8091-41.8071C30.44-42.1343 29.855-42.2739 29.395-41.7686L25.0264-37.0332C24.5176-36.5278 24.6538-35.9394 25.0752-35.5317C25.4443-35.2466 26.0259-35.1103 26.4859-35.5737ZM62.9971-33.3862C63.5059-33.895 63.3697-34.5254 62.9483-34.9365C62.5791-35.2183 61.9976-35.3545 61.5342-34.8911L57.0781-30.0684C56.6602-29.6084 56.7998-29.0269 57.1724-28.6543C57.5835-28.334 58.1651-28.1978 58.6284-28.6997ZM56.3872-40.9419C57.0391-41.2939 57.105-41.8687 56.8404-42.3457C56.5825-42.7739 56.0884-43.1192 55.5274-42.8057L49.711-39.8145C49.1011-39.5078 49.0352-38.8809 49.3032-38.4072C49.5611-37.937 50.0972-37.6372 50.7071-37.9507ZM36.1763-8.54492L42.6934-7.72413C43.3589-7.63331 43.7803-8.0547 43.8257-8.584C43.8711-9.10988 43.586-9.67092 42.9238-9.76174L36.5396-10.5825C35.8286-10.6734 35.4072-10.2031 35.3618-9.67725C35.3164-9.15137 35.6016-8.63574 36.1763-8.54492ZM52.188-50.2554C52.899-50.4087 53.1216-50.98 53.0069-51.5479C52.857-51.9863 52.4219-52.4395 51.8018-52.2827L45.4346-50.9199C44.7725-50.7632 44.5532-50.1919 44.668-49.6694C44.8179-49.1855 45.2495-48.7358 45.9151-48.8926ZM71.2783-28.769C71.5884-29.3789 71.2466-29.9116 70.7276-30.1797C70.2119-30.3047 69.627-30.2354 69.3691-29.6743L66.8354-23.6309C66.5254-23.0698 66.8638-22.5337 67.3828-22.3145C67.9019-22.1406 68.4414-22.21 68.6992-22.8652Z"/>
  </g>
 </g>
</svg>
