<?xml version="1.0" encoding="UTF-8"?>
<!--Generator: Apple Native CoreSVG 175.5-->
<!DOCTYPE svg
PUBLIC "-//W3C//DTD SVG 1.1//EN"
       "http://www.w3.org/Graphics/SVG/1.1/DTD/svg11.dtd">
<svg version="1.1" xmlns="http://www.w3.org/2000/svg" xmlns:xlink="http://www.w3.org/1999/xlink" width="3300" height="2200">
 <!--glyph: "uni101701.medium", point size: 100.0, font version: "18.0d11e1", template writer version: "90"-->
 <style>.monochrome-0 {fill:#000000}

.SFSymbolsPreview000000 {fill:#000000;opacity:1.0}
</style>
 <g id="Notes">
  <rect height="2200" id="artboard" style="fill:white;opacity:1" width="3300" x="0" y="0"/>
  <line style="fill:none;stroke:black;opacity:1;stroke-width:0.5;" x1="263" x2="3036" y1="292" y2="292"/>
  <text style="stroke:none;fill:black;font-family:sans-serif;font-size:13;font-weight:bold;" transform="matrix(1 0 0 1 263 322)">Weight/Scale Variations</text>
  <text style="stroke:none;fill:black;font-family:sans-serif;font-size:13;text-anchor:middle;" transform="matrix(1 0 0 1 559.711 322)">Ultralight</text>
  <text style="stroke:none;fill:black;font-family:sans-serif;font-size:13;text-anchor:middle;" transform="matrix(1 0 0 1 856.422 322)">Thin</text>
  <text style="stroke:none;fill:black;font-family:sans-serif;font-size:13;text-anchor:middle;" transform="matrix(1 0 0 1 1153.13 322)">Light</text>
  <text style="stroke:none;fill:black;font-family:sans-serif;font-size:13;text-anchor:middle;" transform="matrix(1 0 0 1 1449.84 322)">Regular</text>
  <text style="stroke:none;fill:black;font-family:sans-serif;font-size:13;text-anchor:middle;" transform="matrix(1 0 0 1 1746.56 322)">Medium</text>
  <text style="stroke:none;fill:black;font-family:sans-serif;font-size:13;text-anchor:middle;" transform="matrix(1 0 0 1 2043.27 322)">Semibold</text>
  <text style="stroke:none;fill:black;font-family:sans-serif;font-size:13;text-anchor:middle;" transform="matrix(1 0 0 1 2339.98 322)">Bold</text>
  <text style="stroke:none;fill:black;font-family:sans-serif;font-size:13;text-anchor:middle;" transform="matrix(1 0 0 1 2636.69 322)">Heavy</text>
  <text style="stroke:none;fill:black;font-family:sans-serif;font-size:13;text-anchor:middle;" transform="matrix(1 0 0 1 2933.4 322)">Black</text>
  <line style="fill:none;stroke:black;opacity:1;stroke-width:0.5;" x1="263" x2="3036" y1="1903" y2="1903"/>
  <g transform="matrix(1 0 0 1 263 1933)">
   <path d="M9.24805 0.830078C13.5547 0.830078 17.1387-2.74414 17.1387-7.05078C17.1387-11.3574 13.5449-14.9316 9.23828-14.9316C4.94141-14.9316 1.36719-11.3574 1.36719-7.05078C1.36719-2.74414 4.95117 0.830078 9.24805 0.830078ZM9.24805-0.654297C5.70312-0.654297 2.87109-3.49609 2.87109-7.05078C2.87109-10.6055 5.69336-13.4473 9.23828-13.4473C12.793-13.4473 15.6445-10.6055 15.6445-7.05078C15.6445-3.49609 12.8027-0.654297 9.24805-0.654297ZM5.6543-7.05078C5.6543-6.62109 5.95703-6.32812 6.40625-6.32812L8.50586-6.32812L8.50586-4.20898C8.50586-3.76953 8.79883-3.4668 9.22852-3.4668C9.67773-3.4668 9.9707-3.76953 9.9707-4.20898L9.9707-6.32812L12.0898-6.32812C12.5293-6.32812 12.832-6.62109 12.832-7.05078C12.832-7.49023 12.5293-7.79297 12.0898-7.79297L9.9707-7.79297L9.9707-9.90234C9.9707-10.3516 9.67773-10.6543 9.22852-10.6543C8.79883-10.6543 8.50586-10.3516 8.50586-9.90234L8.50586-7.79297L6.40625-7.79297C5.95703-7.79297 5.6543-7.49023 5.6543-7.05078Z"/>
  </g>
  <g transform="matrix(1 0 0 1 281.867 1933)">
   <path d="M11.709 2.91016C17.1582 2.91016 21.6699-1.61133 21.6699-7.05078C21.6699-12.5 17.1484-17.0117 11.6992-17.0117C6.25977-17.0117 1.74805-12.5 1.74805-7.05078C1.74805-1.61133 6.26953 2.91016 11.709 2.91016ZM11.709 1.25C7.09961 1.25 3.41797-2.44141 3.41797-7.05078C3.41797-11.6602 7.08984-15.3516 11.6992-15.3516C16.3086-15.3516 20.0098-11.6602 20.0098-7.05078C20.0098-2.44141 16.3184 1.25 11.709 1.25ZM7.17773-7.05078C7.17773-6.57227 7.50977-6.25 8.00781-6.25L10.8789-6.25L10.8789-3.36914C10.8789-2.88086 11.2109-2.53906 11.6895-2.53906C12.1777-2.53906 12.5195-2.87109 12.5195-3.36914L12.5195-6.25L15.4004-6.25C15.8887-6.25 16.2305-6.57227 16.2305-7.05078C16.2305-7.53906 15.8887-7.88086 15.4004-7.88086L12.5195-7.88086L12.5195-10.752C12.5195-11.25 12.1777-11.5918 11.6895-11.5918C11.2109-11.5918 10.8789-11.25 10.8789-10.752L10.8789-7.88086L8.00781-7.88086C7.50977-7.88086 7.17773-7.53906 7.17773-7.05078Z"/>
  </g>
  <g transform="matrix(1 0 0 1 305.646 1933)">
   <path d="M14.9707 5.66406C21.9336 5.66406 27.6953-0.0976562 27.6953-7.05078C27.6953-14.0137 21.9238-19.7754 14.9609-19.7754C8.00781-19.7754 2.25586-14.0137 2.25586-7.05078C2.25586-0.0976562 8.01758 5.66406 14.9707 5.66406ZM14.9707 3.84766C8.93555 3.84766 4.08203-1.01562 4.08203-7.05078C4.08203-13.0957 8.92578-17.9492 14.9609-17.9492C21.0059-17.9492 25.8691-13.0957 25.8691-7.05078C25.8691-1.01562 21.0156 3.84766 14.9707 3.84766ZM9.19922-7.05078C9.19922-6.5332 9.57031-6.17188 10.1172-6.17188L14.0625-6.17188L14.0625-2.2168C14.0625-1.67969 14.4336-1.29883 14.9512-1.29883C15.4883-1.29883 15.8594-1.66992 15.8594-2.2168L15.8594-6.17188L19.8145-6.17188C20.3516-6.17188 20.7324-6.5332 20.7324-7.05078C20.7324-7.59766 20.3613-7.96875 19.8145-7.96875L15.8594-7.96875L15.8594-11.9141C15.8594-12.4609 15.4883-12.8418 14.9512-12.8418C14.4336-12.8418 14.0625-12.4609 14.0625-11.9141L14.0625-7.96875L10.1172-7.96875C9.57031-7.96875 9.19922-7.59766 9.19922-7.05078Z"/>
  </g>
  <text style="stroke:none;fill:black;font-family:sans-serif;font-size:13;font-weight:bold;" transform="matrix(1 0 0 1 263 1953)">Design Variations</text>
  <text style="stroke:none;fill:black;font-family:sans-serif;font-size:13;" transform="matrix(1 0 0 1 263 1971)">Symbols are supported in up to nine weights and three scales.</text>
  <text style="stroke:none;fill:black;font-family:sans-serif;font-size:13;" transform="matrix(1 0 0 1 263 1989)">For optimal layout with text and other symbols, vertically align</text>
  <text style="stroke:none;fill:black;font-family:sans-serif;font-size:13;" transform="matrix(1 0 0 1 263 2007)">symbols with the adjacent text.</text>
  <line style="fill:none;stroke:#00AEEF;stroke-width:0.5;opacity:1.0;" x1="776" x2="776" y1="1919" y2="1933"/>
  <g transform="matrix(1 0 0 1 776 1933)">
   <path d="M3.31055 0.15625C3.82812 0.15625 4.08203-0.0390625 4.26758-0.585938L5.52734-4.0332L11.2891-4.0332L12.5488-0.585938C12.7344-0.0390625 12.9883 0.15625 13.4961 0.15625C14.0137 0.15625 14.3457-0.15625 14.3457-0.644531C14.3457-0.810547 14.3164-0.966797 14.2383-1.17188L9.6582-13.3691C9.43359-13.9648 9.0332-14.2676 8.4082-14.2676C7.80273-14.2676 7.39258-13.9746 7.17773-13.3789L2.59766-1.16211C2.51953-0.957031 2.49023-0.800781 2.49023-0.634766C2.49023-0.146484 2.80273 0.15625 3.31055 0.15625ZM6.00586-5.51758L8.37891-12.0898L8.42773-12.0898L10.8008-5.51758Z"/>
  </g>
  <line style="fill:none;stroke:#00AEEF;stroke-width:0.5;opacity:1.0;" x1="793.197" x2="793.197" y1="1919" y2="1933"/>
  <text style="stroke:none;fill:black;font-family:sans-serif;font-size:13;font-weight:bold;" transform="matrix(1 0 0 1 776 1953)">Margins</text>
  <text style="stroke:none;fill:black;font-family:sans-serif;font-size:13;" transform="matrix(1 0 0 1 776 1971)">Leading and trailing margins on the left and right side of each symbol</text>
  <text style="stroke:none;fill:black;font-family:sans-serif;font-size:13;" transform="matrix(1 0 0 1 776 1989)">can be adjusted by modifying the x-location of the margin guidelines.</text>
  <text style="stroke:none;fill:black;font-family:sans-serif;font-size:13;" transform="matrix(1 0 0 1 776 2007)">Modifications are automatically applied proportionally to all</text>
  <text style="stroke:none;fill:black;font-family:sans-serif;font-size:13;" transform="matrix(1 0 0 1 776 2025)">scales and weights.</text>
  <g transform="matrix(1 0 0 1 1289 1933)">
   <path d="M2.8418 1.86523L4.54102 3.57422C5.40039 4.44336 6.38672 4.38477 7.31445 3.35938L18.0078-8.42773L17.041-9.4043L6.42578 2.27539C6.07422 2.67578 5.74219 2.77344 5.27344 2.30469L4.10156 1.14258C3.63281 0.683594 3.74023 0.341797 4.14062-0.0195312L15.6152-10.8203L14.6387-11.7871L3.04688-0.898438C2.06055 0.0195312 1.98242 0.996094 2.8418 1.86523ZM9.25781-16.3281C8.83789-15.918 8.80859-15.3418 9.04297-14.9512C9.27734-14.5898 9.73633-14.3555 10.3809-14.5215C11.8457-14.8633 13.3691-14.9219 14.7949-13.9844L14.209-12.5293C13.8672-11.6992 14.043-11.1133 14.5801-10.5664L16.875-8.25195C17.3633-7.76367 17.7734-7.74414 18.3398-7.8418L19.4043-8.03711L20.0684-7.36328L20.0293-6.80664C19.9902-6.30859 20.1172-5.92773 20.6055-5.44922L21.3672-4.70703C21.8457-4.22852 22.4609-4.19922 22.9297-4.66797L25.8398-7.58789C26.3086-8.05664 26.2891-8.65234 25.8105-9.13086L25.0391-9.89258C24.5605-10.3711 24.1895-10.5273 23.7109-10.4883L23.1348-10.4395L22.4902-11.0742L22.7344-12.1973C22.8613-12.7637 22.7051-13.2031 22.1191-13.7891L19.9219-15.9766C16.582-19.2969 12.1484-19.2188 9.25781-16.3281ZM10.752-15.957C13.1836-17.7344 16.4746-17.4316 18.7012-15.2051L21.1328-12.793C21.3672-12.5586 21.4062-12.373 21.3379-12.0312L21.0156-10.5469L22.5195-9.0625L23.5059-9.12109C23.7598-9.13086 23.8379-9.11133 24.0332-8.91602L24.6094-8.33984L22.168-5.89844L21.5918-6.47461C21.3965-6.66992 21.3672-6.74805 21.377-7.01172L21.4453-7.98828L19.9512-9.47266L18.4277-9.21875C18.1055-9.15039 17.959-9.17969 17.7148-9.41406L15.7129-11.416C15.459-11.6504 15.4297-11.8164 15.5859-12.1875L16.4648-14.2773C14.9023-15.7324 12.8711-16.3574 10.8398-15.7617C10.6836-15.7227 10.625-15.8496 10.752-15.957Z"/>
  </g>
  <text style="stroke:none;fill:black;font-family:sans-serif;font-size:13;font-weight:bold;" transform="matrix(1 0 0 1 1289 1953)">Exporting</text>
  <text style="stroke:none;fill:black;font-family:sans-serif;font-size:13;" transform="matrix(1 0 0 1 1289 1971)">Symbols should be outlined when exporting to ensure the</text>
  <text style="stroke:none;fill:black;font-family:sans-serif;font-size:13;" transform="matrix(1 0 0 1 1289 1989)">design is preserved when submitting to Xcode.</text>
  <text id="template-version" style="stroke:none;fill:black;font-family:sans-serif;font-size:13;text-anchor:end;" transform="matrix(1 0 0 1 3036 1933)">Template v.4.0</text>
  <text style="stroke:none;fill:black;font-family:sans-serif;font-size:13;text-anchor:end;" transform="matrix(1 0 0 1 3036 1951)">Requires Xcode 14 or greater</text>
  <text id="descriptive-name" style="stroke:none;fill:black;font-family:sans-serif;font-size:13;text-anchor:end;" transform="matrix(1 0 0 1 3036 1969)">Generated from cricket.ball</text>
  <text style="stroke:none;fill:black;font-family:sans-serif;font-size:13;text-anchor:end;" transform="matrix(1 0 0 1 3036 1987)">Typeset at 100 points</text>
  <text style="stroke:none;fill:black;font-family:sans-serif;font-size:13;" transform="matrix(1 0 0 1 263 726)">Small</text>
  <text style="stroke:none;fill:black;font-family:sans-serif;font-size:13;" transform="matrix(1 0 0 1 263 1156)">Medium</text>
  <text style="stroke:none;fill:black;font-family:sans-serif;font-size:13;" transform="matrix(1 0 0 1 263 1586)">Large</text>
 </g>
 <g id="Guides">
  <g id="H-reference" style="fill:#27AAE1;stroke:none;" transform="matrix(1 0 0 1 339 696)">
   <path d="M0.993654 0L3.63775 0L29.3281-67.1323L30.0303-67.1323L30.0303-70.459L28.1226-70.459ZM11.6885-24.4799L46.9815-24.4799L46.2315-26.7285L12.4385-26.7285ZM55.1196 0L57.7637 0L30.6382-70.459L29.4326-70.459L29.4326-67.1323Z"/>
  </g>
  <line id="Baseline-S" style="fill:none;stroke:#27AAE1;opacity:1;stroke-width:0.5;" x1="263" x2="3036" y1="696" y2="696"/>
  <line id="Capline-S" style="fill:none;stroke:#27AAE1;opacity:1;stroke-width:0.5;" x1="263" x2="3036" y1="625.541" y2="625.541"/>
  <g id="H-reference" style="fill:#27AAE1;stroke:none;" transform="matrix(1 0 0 1 339 1126)">
   <path d="M0.993654 0L3.63775 0L29.3281-67.1323L30.0303-67.1323L30.0303-70.459L28.1226-70.459ZM11.6885-24.4799L46.9815-24.4799L46.2315-26.7285L12.4385-26.7285ZM55.1196 0L57.7637 0L30.6382-70.459L29.4326-70.459L29.4326-67.1323Z"/>
  </g>
  <line id="Baseline-M" style="fill:none;stroke:#27AAE1;opacity:1;stroke-width:0.5;" x1="263" x2="3036" y1="1126" y2="1126"/>
  <line id="Capline-M" style="fill:none;stroke:#27AAE1;opacity:1;stroke-width:0.5;" x1="263" x2="3036" y1="1055.54" y2="1055.54"/>
  <g id="H-reference" style="fill:#27AAE1;stroke:none;" transform="matrix(1 0 0 1 339 1556)">
   <path d="M0.993654 0L3.63775 0L29.3281-67.1323L30.0303-67.1323L30.0303-70.459L28.1226-70.459ZM11.6885-24.4799L46.9815-24.4799L46.2315-26.7285L12.4385-26.7285ZM55.1196 0L57.7637 0L30.6382-70.459L29.4326-70.459L29.4326-67.1323Z"/>
  </g>
  <line id="Baseline-L" style="fill:none;stroke:#27AAE1;opacity:1;stroke-width:0.5;" x1="263" x2="3036" y1="1556" y2="1556"/>
  <line id="Capline-L" style="fill:none;stroke:#27AAE1;opacity:1;stroke-width:0.5;" x1="263" x2="3036" y1="1485.54" y2="1485.54"/>
  <line id="left-margin-Ultralight-S" style="fill:none;stroke:#00AEEF;stroke-width:0.5;opacity:1.0;" x1="515.649" x2="515.649" y1="600.785" y2="720.121"/>
  <line id="right-margin-Ultralight-S" style="fill:none;stroke:#00AEEF;stroke-width:0.5;opacity:1.0;" x1="603.773" x2="603.773" y1="600.785" y2="720.121"/>
  <line id="left-margin-Regular-S" style="fill:none;stroke:#00AEEF;stroke-width:0.5;opacity:1.0;" x1="1403.58" x2="1403.58" y1="600.785" y2="720.121"/>
  <line id="right-margin-Regular-S" style="fill:none;stroke:#00AEEF;stroke-width:0.5;opacity:1.0;" x1="1496.11" x2="1496.11" y1="600.785" y2="720.121"/>
  <line id="left-margin-Black-S" style="fill:none;stroke:#00AEEF;stroke-width:0.5;opacity:1.0;" x1="2884.57" x2="2884.57" y1="600.785" y2="720.121"/>
  <line id="right-margin-Black-S" style="fill:none;stroke:#00AEEF;stroke-width:0.5;opacity:1.0;" x1="2982.23" x2="2982.23" y1="600.785" y2="720.121"/>
 </g>
 <g id="Symbols">
  <g id="Black-S" transform="matrix(1 0 0 1 2884.57 696)">
   <path class="monochrome-0 SFSymbolsPreview000000" d="M48.8281-77.2949C25.6836-77.2949 6.83594-58.4473 6.83594-35.3027C6.83594-12.1582 25.6836 6.68945 48.8281 6.68945C71.9727 6.68945 90.8203-12.1582 90.8203-35.3027C90.8203-58.4473 71.9727-77.2949 48.8281-77.2949ZM48.8281-66.5527C66.0156-66.5527 80.0781-52.4902 80.0781-35.3027C80.0781-18.1152 66.0156-4.05273 48.8281-4.05273C31.6406-4.05273 17.5781-18.1152 17.5781-35.3027C17.5781-52.4902 31.6406-66.5527 48.8281-66.5527ZM25.4395-6.49414L78.7109-59.8145L73.4375-65.0879L20.1172-11.7676ZM30.2734-36.2793L24.9023-30.9082C23.6328-29.6387 23.6328-27.7344 24.9023-26.5137C26.123-25.2441 28.0762-25.2441 29.2969-26.5137L34.668-31.8848C35.9375-33.1543 35.8887-35.0586 34.668-36.2793C33.4473-37.5488 31.543-37.5488 30.2734-36.2793ZM41.6992-47.7051L36.2793-42.2852C35.0586-41.0645 35.0586-39.1602 36.2793-37.8906C37.5488-36.6699 39.4531-36.6699 40.6738-37.8906L46.0938-43.2617C47.3145-44.5312 47.3145-46.4355 46.0938-47.7051C44.8242-48.9258 42.9199-48.9258 41.6992-47.7051ZM45.5566-21.2402L40.1855-15.8203C38.916-14.5996 38.916-12.6465 40.1855-11.4258C41.4062-10.2051 43.3594-10.2051 44.5801-11.4258L49.9512-16.7969C51.2207-18.0664 51.2207-19.9707 49.9512-21.2402C48.7305-22.4121 46.8262-22.4609 45.5566-21.2402ZM56.9824-32.6172L51.5625-27.2461C50.3418-25.9766 50.3418-24.0723 51.5625-22.8027C52.832-21.582 54.7363-21.582 55.957-22.8027L61.377-28.2227C62.5977-29.4434 62.5977-31.3477 61.377-32.6172C60.1074-33.8379 58.2031-33.8379 56.9824-32.6172ZM18.8965-24.9023L13.5254-19.5312C12.2559-18.2617 12.2559-16.3574 13.5254-15.0879C14.7461-13.8672 16.6504-13.8672 17.9199-15.0879L23.291-20.5078C24.5117-21.7285 24.4629-23.6328 23.291-24.9023C22.0703-26.123 20.1172-26.123 18.8965-24.9023ZM53.0762-59.082L47.7051-53.7109C46.4355-52.4414 46.4355-50.5371 47.7051-49.2676C48.9258-48.0957 50.8301-48.0469 52.0996-49.2676L57.4707-54.6875C58.7402-55.9082 58.7402-57.8613 57.4707-59.082C56.25-60.3027 54.2969-60.3027 53.0762-59.082ZM64.4531-70.459L59.082-65.0879C57.8613-63.8672 57.8613-61.9141 59.082-60.6934C60.3027-59.4727 62.2559-59.4238 63.4766-60.6934L68.8965-66.0645C70.1172-67.334 70.1172-69.2383 68.8965-70.459C67.627-71.7285 65.7227-71.7285 64.4531-70.459ZM79.7363-55.4199L74.3652-50C73.1445-48.7793 73.1934-46.875 74.3652-45.6055C75.5859-44.3848 77.5391-44.3848 78.7598-45.6055L84.1309-50.9766C85.4004-52.2461 85.4004-54.1504 84.1309-55.4199C82.9102-56.6406 81.0059-56.6406 79.7363-55.4199ZM68.3594-43.9941L62.9883-38.623C61.7188-37.3535 61.7676-35.4492 62.9883-34.2285C64.209-32.959 66.1133-32.959 67.3828-34.2285L72.7539-39.5996C74.0234-40.8691 74.0234-42.7734 72.7539-43.9941C71.5332-45.2637 69.5801-45.2637 68.3594-43.9941ZM34.1797-9.81445L28.7598-4.44336C27.5391-3.17383 27.5391-1.26953 28.7598-0.0488281C30.0293 1.2207 31.9336 1.2207 33.2031-0.0488281L38.5742-5.41992C39.7949-6.64062 39.7949-8.59375 38.5742-9.81445C37.3535-11.0352 35.4004-11.084 34.1797-9.81445Z"/>
  </g>
  <g id="Regular-S" transform="matrix(1 0 0 1 1403.58 696)">
   <path class="monochrome-0 SFSymbolsPreview000000" d="M46.2402-74.6582C24.7559-74.6582 6.83594-56.7871 6.83594-35.2539C6.83594-13.7207 24.8047 4.15039 46.2891 4.15039C67.8223 4.15039 85.6934-13.7207 85.6934-35.2539C85.6934-56.7871 67.7734-74.6582 46.2402-74.6582ZM46.2402-68.7988C64.5508-68.7988 79.7852-53.5156 79.7852-35.2539C79.7852-16.9922 64.5996-1.70898 46.2891-1.70898C28.0273-1.70898 12.7441-16.9922 12.7441-35.2539C12.7441-53.5156 27.9785-68.7988 46.2402-68.7988ZM24.0723-8.88672L73.6816-58.4473L69.5312-62.5977L19.9219-12.9883ZM29.2969-35.6934L24.2188-30.6152C23.291-29.6875 23.291-28.2227 24.2188-27.2949C25.1465-26.3184 26.6113-26.3184 27.5879-27.2949L32.666-32.373C33.5938-33.3008 33.5449-34.7656 32.666-35.6934C31.6895-36.6699 30.2246-36.6699 29.2969-35.6934ZM40.0391-46.4355L34.9609-41.3574C34.0332-40.4297 34.0332-38.9648 34.9609-38.0371C35.8887-37.0605 37.3535-37.0605 38.3301-38.0371L43.4082-43.1152C44.3359-44.043 44.3359-45.5078 43.4082-46.4355C42.4316-47.4121 40.9668-47.4121 40.0391-46.4355ZM43.457-21.7285L38.3789-16.6504C37.4512-15.7227 37.4512-14.2578 38.3789-13.3301C39.3066-12.3535 40.7715-12.3535 41.748-13.3301L46.8262-18.4082C47.7539-19.3359 47.7539-20.8008 46.8262-21.7285C45.8496-22.6562 44.3848-22.7051 43.457-21.7285ZM54.1992-32.4707L49.1211-27.3926C48.1934-26.4648 48.1934-25 49.1211-24.0723C50.0488-23.0957 51.5137-23.0957 52.4902-24.0723L57.5684-29.1504C58.4961-30.0781 58.4961-31.543 57.5684-32.4707C56.5918-33.4473 55.127-33.4473 54.1992-32.4707ZM18.5547-24.9512L13.4766-19.873C12.5488-18.9453 12.5488-17.4805 13.4766-16.5527C14.4043-15.5762 15.8691-15.5762 16.8457-16.5527L21.9238-21.6309C22.8516-22.5586 22.8027-24.0234 21.9238-24.9512C20.9473-25.9277 19.4824-25.9277 18.5547-24.9512ZM50.7812-57.1777L45.7031-52.0996C44.7754-51.1719 44.7754-49.707 45.7031-48.7793C46.6309-47.8516 48.0957-47.8027 49.0723-48.7793L54.1504-53.8574C55.0781-54.7852 55.0781-56.25 54.1504-57.1777C53.1738-58.1543 51.709-58.1543 50.7812-57.1777ZM61.5234-67.9199L56.4453-62.8418C55.5176-61.9141 55.5176-60.4492 56.4453-59.5215C57.373-58.5938 58.8379-58.5449 59.8145-59.5215L64.8926-64.5996C65.8203-65.5273 65.8203-66.9922 64.8926-67.9199C63.916-68.8965 62.4512-68.8965 61.5234-67.9199ZM75.6836-53.9551L70.6055-48.877C69.6777-47.9492 69.7266-46.4844 70.6055-45.5566C71.5332-44.5801 72.998-44.5801 73.9746-45.5566L79.0527-50.6348C79.9805-51.5625 79.9805-53.0273 79.0527-53.9551C78.0762-54.9316 76.6113-54.9316 75.6836-53.9551ZM64.9414-43.2129L59.8633-38.1348C58.9355-37.207 58.9844-35.7422 59.8633-34.8145C60.791-33.8379 62.2559-33.8379 63.2324-34.8145L68.3105-39.8926C69.2383-40.8203 69.2383-42.2852 68.3105-43.2129C67.334-44.1895 65.8691-44.1895 64.9414-43.2129ZM32.7148-10.9863L27.6367-5.9082C26.709-4.98047 26.709-3.51562 27.6367-2.58789C28.5645-1.61133 30.0293-1.61133 31.0059-2.58789L36.084-7.66602C37.0117-8.59375 37.0117-10.0586 36.084-10.9863C35.1074-11.9141 33.6426-11.9629 32.7148-10.9863Z"/>
  </g>
  <g id="Ultralight-S" transform="matrix(1 0 0 1 515.649 696)">
   <path class="monochrome-0 SFSymbolsPreview000000" d="M44.0606-72.4785C23.5752-72.4785 6.83594-55.6973 6.83594-35.2539C6.83594-14.8105 23.5786 1.97072 44.064 1.97072C64.5074 1.97072 81.2886-14.8105 81.2886-35.2539C81.2886-55.6973 64.5039-72.4785 44.0606-72.4785ZM44.0606-70.3428C63.3701-70.3428 79.1494-54.6055 79.1494-35.2539C79.1494-15.9024 63.3735-0.165051 44.064-0.165051C24.7124-0.165051 8.97513-15.9024 8.97513-35.2539C8.97513-54.6055 24.709-70.3428 44.0606-70.3428ZM19.7129-9.38623L69.958-59.6733L68.4414-61.1445L18.1963-10.8994ZM30.1597-32.7871L25.0815-27.709C24.7441-27.2808 24.7441-26.5879 25.0815-26.1597C25.5098-25.8189 26.2026-25.8189 26.6343-26.1597L31.7124-31.2378C32.0498-31.666 32.0464-32.3589 31.7124-32.7871C31.2808-33.128 30.5879-33.128 30.1597-32.7871ZM40.9018-43.4839L35.8237-38.4512C35.4409-38.023 35.4409-37.3301 35.8237-36.9019C36.252-36.5156 36.9448-36.5156 37.3765-36.9019L42.4092-41.98C42.792-42.4082 42.792-43.1011 42.4092-43.4839C42.023-43.8701 41.3301-43.8701 40.9018-43.4839ZM40.0513-22.9092L34.9732-17.831C34.6358-17.4028 34.6358-16.7099 34.9732-16.2817C35.4014-15.9409 36.0943-15.9409 36.4805-16.2817L41.5586-21.3598C41.9415-21.7881 41.9415-22.4809 41.5586-22.9092C41.1724-23.2466 40.4795-23.25 40.0513-22.9092ZM50.7935-33.6059L45.7154-28.5732C45.3325-28.145 45.3325-27.4521 45.7154-27.0239C46.1436-26.6377 46.8365-26.6377 47.2227-27.0239L52.2554-32.102C52.6836-32.5303 52.6836-33.2231 52.2554-33.6059C51.9146-33.9922 51.2217-33.9922 50.7935-33.6059ZM19.4175-21.9995L14.3393-16.9214C13.9565-16.4932 13.9565-15.8003 14.3393-15.4175C14.7222-15.0313 15.415-15.0313 15.8467-15.4175L20.9248-20.4956C21.3076-20.8784 21.3042-21.5713 20.9248-21.9995C20.4932-22.3858 19.8003-22.3858 19.4175-21.9995ZM51.644-54.2261L46.5659-49.148C46.1831-48.7652 46.1831-48.0723 46.5659-47.6441C46.9941-47.2612 47.687-47.2578 48.0733-47.6441L53.1514-52.7222C53.5342-53.1504 53.5342-53.8433 53.1514-54.2261C52.7651-54.6123 52.0723-54.6123 51.644-54.2261ZM62.3862-64.9683L57.3081-59.8902C56.9253-59.5073 56.9253-58.8145 57.3081-58.3862C57.7363-58.0034 58.4292-58 58.8154-58.3862L63.8936-63.4644C64.2764-63.8926 64.2764-64.5855 63.8936-64.9683C63.5073-65.3545 62.8145-65.3545 62.3862-64.9683ZM72.2779-55.0903L67.1997-50.0122C66.8169-49.6294 66.8203-48.9365 67.1997-48.5083C67.628-48.122 68.3208-48.122 68.6617-48.5083L73.7398-53.5864C74.168-54.0146 74.168-54.7075 73.7398-55.0903C73.399-55.4766 72.7061-55.4766 72.2779-55.0903ZM61.5357-44.3481L56.4575-39.27C56.0747-38.8872 56.0781-38.1943 56.4575-37.7661C56.8858-37.3799 57.5787-37.3799 57.9195-37.7661L62.9976-42.8442C63.4258-43.2724 63.4258-43.9653 62.9976-44.3481C62.6568-44.7344 61.9639-44.7344 61.5357-44.3481ZM29.3091-12.1216L24.231-7.04345C23.8482-6.61522 23.8482-5.92234 24.231-5.53953C24.6138-5.15329 25.3067-5.15329 25.6929-5.53953L30.771-10.6177C31.1993-11.0005 31.1993-11.6933 30.771-12.1216C30.3848-12.5044 29.6919-12.5078 29.3091-12.1216Z"/>
  </g>
 </g>
</svg>
