<?xml version="1.0" encoding="UTF-8"?>
<!--Generator: Apple Native CoreSVG 175.5-->
<!DOCTYPE svg
PUBLIC "-//W3C//DTD SVG 1.1//EN"
       "http://www.w3.org/Graphics/SVG/1.1/DTD/svg11.dtd">
<svg version="1.1" xmlns="http://www.w3.org/2000/svg" xmlns:xlink="http://www.w3.org/1999/xlink" width="3300" height="2200">
 <!--glyph: "uni101428.medium", point size: 100.0, font version: "18.0d11e1", template writer version: "90"-->
 <style>.monochrome-0 {fill:#000000}

.SFSymbolsPreview000000 {fill:#000000;opacity:1.0}
</style>
 <g id="Notes">
  <rect height="2200" id="artboard" style="fill:white;opacity:1" width="3300" x="0" y="0"/>
  <line style="fill:none;stroke:black;opacity:1;stroke-width:0.5;" x1="263" x2="3036" y1="292" y2="292"/>
  <text style="stroke:none;fill:black;font-family:sans-serif;font-size:13;font-weight:bold;" transform="matrix(1 0 0 1 263 322)">Weight/Scale Variations</text>
  <text style="stroke:none;fill:black;font-family:sans-serif;font-size:13;text-anchor:middle;" transform="matrix(1 0 0 1 559.711 322)">Ultralight</text>
  <text style="stroke:none;fill:black;font-family:sans-serif;font-size:13;text-anchor:middle;" transform="matrix(1 0 0 1 856.422 322)">Thin</text>
  <text style="stroke:none;fill:black;font-family:sans-serif;font-size:13;text-anchor:middle;" transform="matrix(1 0 0 1 1153.13 322)">Light</text>
  <text style="stroke:none;fill:black;font-family:sans-serif;font-size:13;text-anchor:middle;" transform="matrix(1 0 0 1 1449.84 322)">Regular</text>
  <text style="stroke:none;fill:black;font-family:sans-serif;font-size:13;text-anchor:middle;" transform="matrix(1 0 0 1 1746.56 322)">Medium</text>
  <text style="stroke:none;fill:black;font-family:sans-serif;font-size:13;text-anchor:middle;" transform="matrix(1 0 0 1 2043.27 322)">Semibold</text>
  <text style="stroke:none;fill:black;font-family:sans-serif;font-size:13;text-anchor:middle;" transform="matrix(1 0 0 1 2339.98 322)">Bold</text>
  <text style="stroke:none;fill:black;font-family:sans-serif;font-size:13;text-anchor:middle;" transform="matrix(1 0 0 1 2636.69 322)">Heavy</text>
  <text style="stroke:none;fill:black;font-family:sans-serif;font-size:13;text-anchor:middle;" transform="matrix(1 0 0 1 2933.4 322)">Black</text>
  <line style="fill:none;stroke:black;opacity:1;stroke-width:0.5;" x1="263" x2="3036" y1="1903" y2="1903"/>
  <g transform="matrix(1 0 0 1 263 1933)">
   <path d="M9.24805 0.830078C13.5547 0.830078 17.1387-2.74414 17.1387-7.05078C17.1387-11.3574 13.5449-14.9316 9.23828-14.9316C4.94141-14.9316 1.36719-11.3574 1.36719-7.05078C1.36719-2.74414 4.95117 0.830078 9.24805 0.830078ZM9.24805-0.654297C5.70312-0.654297 2.87109-3.49609 2.87109-7.05078C2.87109-10.6055 5.69336-13.4473 9.23828-13.4473C12.793-13.4473 15.6445-10.6055 15.6445-7.05078C15.6445-3.49609 12.8027-0.654297 9.24805-0.654297ZM5.6543-7.05078C5.6543-6.62109 5.95703-6.32812 6.40625-6.32812L8.50586-6.32812L8.50586-4.20898C8.50586-3.76953 8.79883-3.4668 9.22852-3.4668C9.67773-3.4668 9.9707-3.76953 9.9707-4.20898L9.9707-6.32812L12.0898-6.32812C12.5293-6.32812 12.832-6.62109 12.832-7.05078C12.832-7.49023 12.5293-7.79297 12.0898-7.79297L9.9707-7.79297L9.9707-9.90234C9.9707-10.3516 9.67773-10.6543 9.22852-10.6543C8.79883-10.6543 8.50586-10.3516 8.50586-9.90234L8.50586-7.79297L6.40625-7.79297C5.95703-7.79297 5.6543-7.49023 5.6543-7.05078Z"/>
  </g>
  <g transform="matrix(1 0 0 1 281.867 1933)">
   <path d="M11.709 2.91016C17.1582 2.91016 21.6699-1.61133 21.6699-7.05078C21.6699-12.5 17.1484-17.0117 11.6992-17.0117C6.25977-17.0117 1.74805-12.5 1.74805-7.05078C1.74805-1.61133 6.26953 2.91016 11.709 2.91016ZM11.709 1.25C7.09961 1.25 3.41797-2.44141 3.41797-7.05078C3.41797-11.6602 7.08984-15.3516 11.6992-15.3516C16.3086-15.3516 20.0098-11.6602 20.0098-7.05078C20.0098-2.44141 16.3184 1.25 11.709 1.25ZM7.17773-7.05078C7.17773-6.57227 7.50977-6.25 8.00781-6.25L10.8789-6.25L10.8789-3.36914C10.8789-2.88086 11.2109-2.53906 11.6895-2.53906C12.1777-2.53906 12.5195-2.87109 12.5195-3.36914L12.5195-6.25L15.4004-6.25C15.8887-6.25 16.2305-6.57227 16.2305-7.05078C16.2305-7.53906 15.8887-7.88086 15.4004-7.88086L12.5195-7.88086L12.5195-10.752C12.5195-11.25 12.1777-11.5918 11.6895-11.5918C11.2109-11.5918 10.8789-11.25 10.8789-10.752L10.8789-7.88086L8.00781-7.88086C7.50977-7.88086 7.17773-7.53906 7.17773-7.05078Z"/>
  </g>
  <g transform="matrix(1 0 0 1 305.646 1933)">
   <path d="M14.9707 5.66406C21.9336 5.66406 27.6953-0.0976562 27.6953-7.05078C27.6953-14.0137 21.9238-19.7754 14.9609-19.7754C8.00781-19.7754 2.25586-14.0137 2.25586-7.05078C2.25586-0.0976562 8.01758 5.66406 14.9707 5.66406ZM14.9707 3.84766C8.93555 3.84766 4.08203-1.01562 4.08203-7.05078C4.08203-13.0957 8.92578-17.9492 14.9609-17.9492C21.0059-17.9492 25.8691-13.0957 25.8691-7.05078C25.8691-1.01562 21.0156 3.84766 14.9707 3.84766ZM9.19922-7.05078C9.19922-6.5332 9.57031-6.17188 10.1172-6.17188L14.0625-6.17188L14.0625-2.2168C14.0625-1.67969 14.4336-1.29883 14.9512-1.29883C15.4883-1.29883 15.8594-1.66992 15.8594-2.2168L15.8594-6.17188L19.8145-6.17188C20.3516-6.17188 20.7324-6.5332 20.7324-7.05078C20.7324-7.59766 20.3613-7.96875 19.8145-7.96875L15.8594-7.96875L15.8594-11.9141C15.8594-12.4609 15.4883-12.8418 14.9512-12.8418C14.4336-12.8418 14.0625-12.4609 14.0625-11.9141L14.0625-7.96875L10.1172-7.96875C9.57031-7.96875 9.19922-7.59766 9.19922-7.05078Z"/>
  </g>
  <text style="stroke:none;fill:black;font-family:sans-serif;font-size:13;font-weight:bold;" transform="matrix(1 0 0 1 263 1953)">Design Variations</text>
  <text style="stroke:none;fill:black;font-family:sans-serif;font-size:13;" transform="matrix(1 0 0 1 263 1971)">Symbols are supported in up to nine weights and three scales.</text>
  <text style="stroke:none;fill:black;font-family:sans-serif;font-size:13;" transform="matrix(1 0 0 1 263 1989)">For optimal layout with text and other symbols, vertically align</text>
  <text style="stroke:none;fill:black;font-family:sans-serif;font-size:13;" transform="matrix(1 0 0 1 263 2007)">symbols with the adjacent text.</text>
  <line style="fill:none;stroke:#00AEEF;stroke-width:0.5;opacity:1.0;" x1="776" x2="776" y1="1919" y2="1933"/>
  <g transform="matrix(1 0 0 1 776 1933)">
   <path d="M3.31055 0.15625C3.82812 0.15625 4.08203-0.0390625 4.26758-0.585938L5.52734-4.0332L11.2891-4.0332L12.5488-0.585938C12.7344-0.0390625 12.9883 0.15625 13.4961 0.15625C14.0137 0.15625 14.3457-0.15625 14.3457-0.644531C14.3457-0.810547 14.3164-0.966797 14.2383-1.17188L9.6582-13.3691C9.43359-13.9648 9.0332-14.2676 8.4082-14.2676C7.80273-14.2676 7.39258-13.9746 7.17773-13.3789L2.59766-1.16211C2.51953-0.957031 2.49023-0.800781 2.49023-0.634766C2.49023-0.146484 2.80273 0.15625 3.31055 0.15625ZM6.00586-5.51758L8.37891-12.0898L8.42773-12.0898L10.8008-5.51758Z"/>
  </g>
  <line style="fill:none;stroke:#00AEEF;stroke-width:0.5;opacity:1.0;" x1="793.197" x2="793.197" y1="1919" y2="1933"/>
  <text style="stroke:none;fill:black;font-family:sans-serif;font-size:13;font-weight:bold;" transform="matrix(1 0 0 1 776 1953)">Margins</text>
  <text style="stroke:none;fill:black;font-family:sans-serif;font-size:13;" transform="matrix(1 0 0 1 776 1971)">Leading and trailing margins on the left and right side of each symbol</text>
  <text style="stroke:none;fill:black;font-family:sans-serif;font-size:13;" transform="matrix(1 0 0 1 776 1989)">can be adjusted by modifying the x-location of the margin guidelines.</text>
  <text style="stroke:none;fill:black;font-family:sans-serif;font-size:13;" transform="matrix(1 0 0 1 776 2007)">Modifications are automatically applied proportionally to all</text>
  <text style="stroke:none;fill:black;font-family:sans-serif;font-size:13;" transform="matrix(1 0 0 1 776 2025)">scales and weights.</text>
  <g transform="matrix(1 0 0 1 1289 1933)">
   <path d="M2.8418 1.86523L4.54102 3.57422C5.40039 4.44336 6.38672 4.38477 7.31445 3.35938L18.0078-8.42773L17.041-9.4043L6.42578 2.27539C6.07422 2.67578 5.74219 2.77344 5.27344 2.30469L4.10156 1.14258C3.63281 0.683594 3.74023 0.341797 4.14062-0.0195312L15.6152-10.8203L14.6387-11.7871L3.04688-0.898438C2.06055 0.0195312 1.98242 0.996094 2.8418 1.86523ZM9.25781-16.3281C8.83789-15.918 8.80859-15.3418 9.04297-14.9512C9.27734-14.5898 9.73633-14.3555 10.3809-14.5215C11.8457-14.8633 13.3691-14.9219 14.7949-13.9844L14.209-12.5293C13.8672-11.6992 14.043-11.1133 14.5801-10.5664L16.875-8.25195C17.3633-7.76367 17.7734-7.74414 18.3398-7.8418L19.4043-8.03711L20.0684-7.36328L20.0293-6.80664C19.9902-6.30859 20.1172-5.92773 20.6055-5.44922L21.3672-4.70703C21.8457-4.22852 22.4609-4.19922 22.9297-4.66797L25.8398-7.58789C26.3086-8.05664 26.2891-8.65234 25.8105-9.13086L25.0391-9.89258C24.5605-10.3711 24.1895-10.5273 23.7109-10.4883L23.1348-10.4395L22.4902-11.0742L22.7344-12.1973C22.8613-12.7637 22.7051-13.2031 22.1191-13.7891L19.9219-15.9766C16.582-19.2969 12.1484-19.2188 9.25781-16.3281ZM10.752-15.957C13.1836-17.7344 16.4746-17.4316 18.7012-15.2051L21.1328-12.793C21.3672-12.5586 21.4062-12.373 21.3379-12.0312L21.0156-10.5469L22.5195-9.0625L23.5059-9.12109C23.7598-9.13086 23.8379-9.11133 24.0332-8.91602L24.6094-8.33984L22.168-5.89844L21.5918-6.47461C21.3965-6.66992 21.3672-6.74805 21.377-7.01172L21.4453-7.98828L19.9512-9.47266L18.4277-9.21875C18.1055-9.15039 17.959-9.17969 17.7148-9.41406L15.7129-11.416C15.459-11.6504 15.4297-11.8164 15.5859-12.1875L16.4648-14.2773C14.9023-15.7324 12.8711-16.3574 10.8398-15.7617C10.6836-15.7227 10.625-15.8496 10.752-15.957Z"/>
  </g>
  <text style="stroke:none;fill:black;font-family:sans-serif;font-size:13;font-weight:bold;" transform="matrix(1 0 0 1 1289 1953)">Exporting</text>
  <text style="stroke:none;fill:black;font-family:sans-serif;font-size:13;" transform="matrix(1 0 0 1 1289 1971)">Symbols should be outlined when exporting to ensure the</text>
  <text style="stroke:none;fill:black;font-family:sans-serif;font-size:13;" transform="matrix(1 0 0 1 1289 1989)">design is preserved when submitting to Xcode.</text>
  <text id="template-version" style="stroke:none;fill:black;font-family:sans-serif;font-size:13;text-anchor:end;" transform="matrix(1 0 0 1 3036 1933)">Template v.4.0</text>
  <text style="stroke:none;fill:black;font-family:sans-serif;font-size:13;text-anchor:end;" transform="matrix(1 0 0 1 3036 1951)">Requires Xcode 14 or greater</text>
  <text id="descriptive-name" style="stroke:none;fill:black;font-family:sans-serif;font-size:13;text-anchor:end;" transform="matrix(1 0 0 1 3036 1969)">Generated from microwave</text>
  <text style="stroke:none;fill:black;font-family:sans-serif;font-size:13;text-anchor:end;" transform="matrix(1 0 0 1 3036 1987)">Typeset at 100 points</text>
  <text style="stroke:none;fill:black;font-family:sans-serif;font-size:13;" transform="matrix(1 0 0 1 263 726)">Small</text>
  <text style="stroke:none;fill:black;font-family:sans-serif;font-size:13;" transform="matrix(1 0 0 1 263 1156)">Medium</text>
  <text style="stroke:none;fill:black;font-family:sans-serif;font-size:13;" transform="matrix(1 0 0 1 263 1586)">Large</text>
 </g>
 <g id="Guides">
  <g id="H-reference" style="fill:#27AAE1;stroke:none;" transform="matrix(1 0 0 1 339 696)">
   <path d="M0.993654 0L3.63775 0L29.3281-67.1323L30.0303-67.1323L30.0303-70.459L28.1226-70.459ZM11.6885-24.4799L46.9815-24.4799L46.2315-26.7285L12.4385-26.7285ZM55.1196 0L57.7637 0L30.6382-70.459L29.4326-70.459L29.4326-67.1323Z"/>
  </g>
  <line id="Baseline-S" style="fill:none;stroke:#27AAE1;opacity:1;stroke-width:0.5;" x1="263" x2="3036" y1="696" y2="696"/>
  <line id="Capline-S" style="fill:none;stroke:#27AAE1;opacity:1;stroke-width:0.5;" x1="263" x2="3036" y1="625.541" y2="625.541"/>
  <g id="H-reference" style="fill:#27AAE1;stroke:none;" transform="matrix(1 0 0 1 339 1126)">
   <path d="M0.993654 0L3.63775 0L29.3281-67.1323L30.0303-67.1323L30.0303-70.459L28.1226-70.459ZM11.6885-24.4799L46.9815-24.4799L46.2315-26.7285L12.4385-26.7285ZM55.1196 0L57.7637 0L30.6382-70.459L29.4326-70.459L29.4326-67.1323Z"/>
  </g>
  <line id="Baseline-M" style="fill:none;stroke:#27AAE1;opacity:1;stroke-width:0.5;" x1="263" x2="3036" y1="1126" y2="1126"/>
  <line id="Capline-M" style="fill:none;stroke:#27AAE1;opacity:1;stroke-width:0.5;" x1="263" x2="3036" y1="1055.54" y2="1055.54"/>
  <g id="H-reference" style="fill:#27AAE1;stroke:none;" transform="matrix(1 0 0 1 339 1556)">
   <path d="M0.993654 0L3.63775 0L29.3281-67.1323L30.0303-67.1323L30.0303-70.459L28.1226-70.459ZM11.6885-24.4799L46.9815-24.4799L46.2315-26.7285L12.4385-26.7285ZM55.1196 0L57.7637 0L30.6382-70.459L29.4326-70.459L29.4326-67.1323Z"/>
  </g>
  <line id="Baseline-L" style="fill:none;stroke:#27AAE1;opacity:1;stroke-width:0.5;" x1="263" x2="3036" y1="1556" y2="1556"/>
  <line id="Capline-L" style="fill:none;stroke:#27AAE1;opacity:1;stroke-width:0.5;" x1="263" x2="3036" y1="1485.54" y2="1485.54"/>
  <line id="left-margin-Ultralight-S" style="fill:none;stroke:#00AEEF;stroke-width:0.5;opacity:1.0;" x1="508.091" x2="508.091" y1="600.785" y2="720.121"/>
  <line id="right-margin-Ultralight-S" style="fill:none;stroke:#00AEEF;stroke-width:0.5;opacity:1.0;" x1="611.332" x2="611.332" y1="600.785" y2="720.121"/>
  <line id="left-margin-Regular-S" style="fill:none;stroke:#00AEEF;stroke-width:0.5;opacity:1.0;" x1="1393.89" x2="1393.89" y1="600.785" y2="720.121"/>
  <line id="right-margin-Regular-S" style="fill:none;stroke:#00AEEF;stroke-width:0.5;opacity:1.0;" x1="1505.8" x2="1505.8" y1="600.785" y2="720.121"/>
  <line id="left-margin-Black-S" style="fill:none;stroke:#00AEEF;stroke-width:0.5;opacity:1.0;" x1="2871.8" x2="2871.8" y1="600.785" y2="720.121"/>
  <line id="right-margin-Black-S" style="fill:none;stroke:#00AEEF;stroke-width:0.5;opacity:1.0;" x1="2995" x2="2995" y1="600.785" y2="720.121"/>
 </g>
 <g id="Symbols">
  <g id="Black-S" transform="matrix(1 0 0 1 2871.8 696)">
   <path class="monochrome-0 SFSymbolsPreview000000" d="M22.2168 0.683594L100.928 0.683594C108.252 0.683594 113.428-4.58984 113.428-12.0117L113.428-58.3984C113.428-65.8203 108.252-71.0938 100.928-71.0938L22.2168-71.0938C14.8926-71.0938 9.76562-65.8203 9.76562-58.3984L9.76562-12.0117C9.76562-4.58984 14.8926 0.683594 22.2168 0.683594ZM24.0723-12.0117C23.1445-12.0117 22.5098-12.6465 22.5098-13.5742L22.5098-56.8359C22.5098-57.7637 23.1445-58.3984 24.0723-58.3984L99.5605-58.3984C100.244-58.3984 100.684-57.959 100.684-57.3242L100.684-13.0859C100.684-12.4512 100.244-12.0117 99.5605-12.0117ZM30.5176-17.8711L65.1855-17.8711C67.0898-17.8711 68.3105-19.1406 68.3105-20.9961L68.3105-49.4141C68.3105-51.2695 67.0898-52.5391 65.1855-52.5391L30.5176-52.5391C28.6133-52.5391 27.3926-51.2695 27.3926-49.4141L27.3926-20.9961C27.3926-19.1406 28.6133-17.8711 30.5176-17.8711ZM35.3516-25.2441C35.0098-25.2441 34.7168-25.5371 34.7168-25.8789L34.7168-44.5312C34.7168-44.873 35.0098-45.166 35.3516-45.166L60.3027-45.166C60.6934-45.166 60.9863-44.873 60.9863-44.5312L60.9863-25.8789C60.9863-25.5371 60.6934-25.2441 60.3027-25.2441ZM73.1934-11.1816L81.0059-11.1816L81.0059-59.2773L73.1934-59.2773ZM77.0996-18.4082L102.588-18.4082L102.588-26.2695L77.0996-26.2695ZM85.2539-45.2148L95.0195-45.2148C95.8984-45.2148 96.6797-45.9473 96.6797-46.8262L96.6797-50.8789C96.6797-51.7578 95.8984-52.5391 95.0195-52.5391L85.2539-52.5391C84.3262-52.5391 83.5938-51.7578 83.5938-50.8789L83.5938-46.8262C83.5938-45.9473 84.3262-45.2148 85.2539-45.2148ZM86.5723-37.5977L93.7012-37.5977C95.4102-37.5977 96.6797-38.8672 96.6797-40.5762C96.6797-42.2852 95.4102-43.5547 93.7012-43.5547L86.5723-43.5547C84.8145-43.5547 83.5938-42.2852 83.5938-40.5762C83.5938-38.8672 84.8145-37.5977 86.5723-37.5977ZM86.5723-29.9316L93.7012-29.9316C95.4102-29.9316 96.6797-31.1523 96.6797-32.9102C96.6797-34.6191 95.4102-35.8398 93.7012-35.8398L86.5723-35.8398C84.8145-35.8398 83.5938-34.6191 83.5938-32.9102C83.5938-31.1523 84.8145-29.9316 86.5723-29.9316Z"/>
  </g>
  <g id="Regular-S" transform="matrix(1 0 0 1 1393.89 696)">
   <path class="monochrome-0 SFSymbolsPreview000000" d="M19.2871-4.78516L92.627-4.78516C98.3398-4.78516 102.148-8.54492 102.148-14.1602L102.148-56.25C102.148-61.8652 98.3398-65.625 92.627-65.625L19.2871-65.625C13.5742-65.625 9.76562-61.8652 9.76562-56.25L9.76562-14.1602C9.76562-8.54492 13.5742-4.78516 19.2871-4.78516ZM19.3359-11.8652C17.8223-11.8652 16.7969-12.9395 16.7969-14.502L16.7969-55.9082C16.7969-57.4707 17.8223-58.5449 19.3359-58.5449L92.5293-58.5449C94.0918-58.5449 95.0684-57.4707 95.0684-55.9082L95.0684-14.502C95.0684-12.9395 94.0918-11.8652 92.5293-11.8652ZM24.5605-16.0645L62.793-16.0645C64.8926-16.0645 66.2598-17.4805 66.2598-19.5801L66.2598-50.8301C66.2598-52.9297 64.8926-54.3457 62.793-54.3457L24.5605-54.3457C22.4121-54.3457 21.0449-52.9297 21.0449-50.8301L21.0449-19.5801C21.0449-17.4805 22.4121-16.0645 24.5605-16.0645ZM26.5625-20.8008C26.123-20.8008 25.7812-21.1914 25.7812-21.6309L25.7812-48.7793C25.7812-49.2188 26.123-49.6094 26.5625-49.6094L60.7422-49.6094C61.1816-49.6094 61.5234-49.2188 61.5234-48.7793L61.5234-21.6309C61.5234-21.1914 61.1816-20.8008 60.7422-20.8008ZM71.0449-8.54492L75.7324-8.54492L75.7324-61.9141L71.0449-61.9141ZM73.6816-21.5332L98.6816-21.5332L98.6816-26.2695L73.6816-26.2695ZM79.9805-47.168L90.8691-47.168C91.2598-47.168 91.6016-47.5098 91.6016-47.9004L91.6016-53.6133C91.6016-54.0039 91.2598-54.3457 90.8691-54.3457L79.9805-54.3457C79.5898-54.3457 79.248-54.0039 79.248-53.6133L79.248-47.9004C79.248-47.5098 79.5898-47.168 79.9805-47.168ZM81.3965-40.4785L89.4531-40.4785C90.7227-40.4785 91.6016-41.3574 91.6016-42.627C91.6016-43.8965 90.7227-44.7754 89.4531-44.7754L81.3965-44.7754C80.127-44.7754 79.248-43.8965 79.248-42.627C79.248-41.3574 80.127-40.4785 81.3965-40.4785ZM81.3965-33.7402L89.4531-33.7402C90.7227-33.7402 91.6016-34.5703 91.6016-35.8398C91.6016-37.1094 90.7227-37.9883 89.4531-37.9883L81.3965-37.9883C80.127-37.9883 79.248-37.1094 79.248-35.8398C79.248-34.5703 80.127-33.7402 81.3965-33.7402Z"/>
  </g>
  <g id="Ultralight-S" transform="matrix(1 0 0 1 508.091 696)">
   <path class="monochrome-0 SFSymbolsPreview000000" d="M16.5171-9.32614L86.7237-9.32614C90.7564-9.32614 93.4752-12.2685 93.4752-16.6577L93.4752-53.7979C93.4752-58.187 90.7564-61.1294 86.7237-61.1294L16.5171-61.1294C12.439-61.1294 9.76562-58.187 9.76562-53.7979L9.76562-16.6577C9.76562-12.2685 12.439-9.32614 16.5171-9.32614ZM16.4297-11.5474C13.7354-11.5474 11.9834-13.5298 11.9834-16.5908L11.9834-53.8648C11.9834-56.9258 13.7354-58.9082 16.4297-58.9082L86.8077-58.9082C89.5054-58.9082 91.2539-56.9258 91.2539-53.8648L91.2539-16.5908C91.2539-13.5298 89.5054-11.5474 86.8077-11.5474ZM21.6997-17.3359L56.7535-17.3359C59.1709-17.3359 60.6744-18.8882 60.6744-21.3057L60.6744-49.1499C60.6744-51.5674 59.1709-53.1196 56.7535-53.1196L21.6997-53.1196C19.2334-53.1196 17.73-51.5674 17.73-49.1499L17.73-21.3057C17.73-18.8882 19.2334-17.3359 21.6997-17.3359ZM21.7945-19.3931C20.5831-19.3931 19.8326-20.1924 19.8326-21.4038L19.8326-49.0518C19.8326-50.3086 20.5831-51.0625 21.7945-51.0625L56.6553-51.0625C57.8213-51.0625 58.6172-50.3086 58.6172-49.0518L58.6172-21.4038C58.6172-20.1924 57.8213-19.3931 56.6553-19.3931ZM66.5039-10.6338L68.6031-10.6338L68.6031-59.8252L66.5039-59.8252ZM67.4605-22.1235L92.4151-22.1235L92.4151-24.2261L67.4605-24.2261ZM74.0772-44.1709L85.8287-44.1709C86.2193-44.1709 86.5157-44.4673 86.5157-44.8579L86.5157-52.4326C86.5157-52.8233 86.2193-53.1196 85.8287-53.1196L74.0772-53.1196C73.732-53.1196 73.3902-52.8233 73.3902-52.4326L73.3902-44.8579C73.3902-44.4673 73.732-44.1709 74.0772-44.1709ZM74.4488-39.1616L85.4571-39.1616C86.0454-39.1616 86.5157-39.6318 86.5157-40.2202C86.5157-40.8086 86.0454-41.2334 85.4571-41.2334L74.4488-41.2334C73.8604-41.2334 73.3902-40.8086 73.3902-40.2202C73.3902-39.6318 73.8604-39.1616 74.4488-39.1616ZM74.4488-34.1943L85.4571-34.1943C86.0454-34.1943 86.5157-34.6611 86.5157-35.2495C86.5157-35.7925 86.0454-36.2627 85.4571-36.2627L74.4488-36.2627C73.8604-36.2627 73.3902-35.7925 73.3902-35.2495C73.3902-34.6611 73.8604-34.1943 74.4488-34.1943Z"/>
  </g>
 </g>
</svg>
