<?xml version="1.0" encoding="UTF-8"?>
<!-- Generator: CustomSymbols v2.6.2.41 by @serious_bret https://bretlester.com/app_content/CustomSymbols/ -->
<!-- Guides: Left/Right 0.004/0.0019999999050050975 Cap/Base 0.076/0.148 -->
<!-- Settings: RefScale 0.5 Min/Max Stroke Scales 2.2/5.0 -->
<!DOCTYPE svg
PUBLIC "-//W3C//DTD SVG 1.1//EN"
       "http://www.w3.org/Graphics/SVG/1.1/DTD/svg11.dtd">
<svg version="1.1" xmlns="http://www.w3.org/2000/svg" xmlns:xlink="http://www.w3.org/1999/xlink" width="3300" height="2200">
<![CDATA[<?xml version="1.0" encoding="UTF-8" standalone="no"?>
<!--Generator: Apple Native CoreSVG 175.5-->

<svg
   version="1.1"
   width="76.855469"
   height="71.377174"
   id="svg122"
   xmlns="http://www.w3.org/2000/svg"
   xmlns:svg="http://www.w3.org/2000/svg">
  <defs
     id="defs126" />
  <!--glyph: "uni1002B4.medium", point size: 100.0, font version: "18.0d11e1", template writer version: "90"-->
  <g
     id="Regular-S-7"
     transform="matrix(0.58967228,0,0,0.58967228,30.073085,68.555495)">
    <g
       id="g7248">
      <path
         id="path115"
         d="m 31.836328,-69.628906 c -12.597561,0 -22.0703124,9.765698 -22.0703124,23.535156 0,16.552749 13.4766564,32.763692 35.4003904,46.63085938 0.878897,0.58593922 2.197247,1.17187502 3.027344,1.17187502 0.01239,0 0.02653,-0.00366 0.03906,-0.00391 v -7.4335937 c -0.0097,0.00134 -0.03042,0.015625 -0.03906,0.015625 -0.1465,0 -0.439481,-0.1953122 -0.830078,-0.4882813 C 31.885217,-16.455072 16.797266,-31.933592 16.797266,-46.09375 c 0,-9.91207 6.396561,-16.503906 14.990234,-16.503906 7.226579,0 11.132797,4.541024 13.525391,8.007812 1.171894,1.708897 1.904262,2.197266 2.880859,2.197266 1.025397,0 1.611365,-0.537169 2.880859,-2.197266 2.587894,-3.369188 6.34774,-8.007812 13.574219,-8.007812 8.593776,0 14.941406,6.591836 14.941406,16.503906 0,0.242522 -0.02818,0.487215 -0.03711,0.730469 h 7.042969 c 0.0063,-0.243458 0.02539,-0.486844 0.02539,-0.730469 0,-13.769458 -9.472751,-23.535156 -22.070312,-23.535156 -7.226579,0 -12.793034,3.271568 -16.357422,8.251953 -3.515688,-4.931585 -9.130843,-8.251953 -16.357421,-8.251953 z"
         transform="matrix(1.6958572,0,0,1.6958572,-67.561426,1.8203501)" />
      <path
         d="m 46.3867,4.78516 c 0.5371,0 1.5137,-0.19532 2.5879,-0.78125 C 70.8984,-8.00781 78.6621,-13.4766 78.6621,-27.9297 v -29.3945 c 0,-4.0039 -1.9043,-5.2246 -4.9316,-6.543 -3.9551,-1.709 -20.1172,-7.4219 -24.0723,-8.789 -1.0254,-0.3418 -2.1484,-0.586 -3.2715,-0.586 -1.123,0 -2.2949,0.3418 -3.2715,0.586 -3.955,0.9765 -20.1172,7.1289 -24.0722,8.789 -3.0274,1.2695 -4.9317,2.5391 -4.9317,6.543 v 29.3945 c 0,14.4531 7.7637,19.87306 29.6875,31.93361 1.0742,0.58593 2.0508,0.78125 2.5879,0.78125 z m 0,-8.00782 c -0.5859,0 -1.1719,-0.14648 -2.4902,-0.8789 C 26.2695,-14.6484 21.0449,-17.7734 21.0449,-29.6387 v -26.3672 c 0,-0.8789 0.1953,-1.2695 0.9766,-1.6113 6.25,-2.4414 16.7969,-5.8105 23.0469,-8.3008 0.4882,-0.1953 0.9277,-0.2441 1.3183,-0.2441 0.3906,0 0.8301,0.0488 1.3184,0.2441 6.2011,2.4903 16.6015,6.1524 22.998,8.3008 0.8301,0.293 0.9766,0.7324 0.9766,1.6113 v 26.3672 c 0,11.8653 -5.2246,14.9903 -22.8516,25.53714 -1.2695,0.73242 -1.8554,0.8789 -2.4414,0.8789 z"
         id="path1387" />
    </g>
  </g>
</svg>
]]>
 <g id="Notes">
  <rect height="2200" id="artboard" style="fill:white;opacity:1" width="3300" x="0" y="0"/>
  <line id="" style="fill:none;stroke:black;opacity:1;stroke-width:0.5;" x1="263" x2="3036" y1="292" y2="292"/>
  <text id="reftext1" style="stroke:none;fill:black;font-family:-apple-system,&quot;SF Pro Display&quot;,&quot;SF Pro Text&quot;,Helvetica,sans-serif;font-weight:bold;" transform="matrix(1 0 0 1 263 322)">Weight/Scale Variations</text>
  <text id="reftext2" style="stroke:none;fill:black;font-family:-apple-system,&quot;SF Pro Display&quot;,&quot;SF Pro Text&quot;,Helvetica,sans-serif;text-anchor:middle;" transform="matrix(1 0 0 1 559.711 322)">Ultralight</text>
  <text style="stroke:none;fill:black;font-family:-apple-system,&quot;SF Pro Display&quot;,&quot;SF Pro Text&quot;,Helvetica,sans-serif;text-anchor:middle;" transform="matrix(1 0 0 1 856.422 322)">Thin</text>
  <text style="stroke:none;fill:black;font-family:-apple-system,&quot;SF Pro Display&quot;,&quot;SF Pro Text&quot;,Helvetica,sans-serif;text-anchor:middle;" transform="matrix(1 0 0 1 1153.13 322)">Light</text>
  <text style="stroke:none;fill:black;font-family:-apple-system,&quot;SF Pro Display&quot;,&quot;SF Pro Text&quot;,Helvetica,sans-serif;text-anchor:middle;" transform="matrix(1 0 0 1 1449.84 322)">Regular</text>
  <text style="stroke:none;fill:black;font-family:-apple-system,&quot;SF Pro Display&quot;,&quot;SF Pro Text&quot;,Helvetica,sans-serif;text-anchor:middle;" transform="matrix(1 0 0 1 1746.56 322)">Medium</text>
  <text style="stroke:none;fill:black;font-family:-apple-system,&quot;SF Pro Display&quot;,&quot;SF Pro Text&quot;,Helvetica,sans-serif;text-anchor:middle;" transform="matrix(1 0 0 1 2043.27 322)">Semibold</text>
  <text style="stroke:none;fill:black;font-family:-apple-system,&quot;SF Pro Display&quot;,&quot;SF Pro Text&quot;,Helvetica,sans-serif;text-anchor:middle;" transform="matrix(1 0 0 1 2339.98 322)">Bold</text>
  <text style="stroke:none;fill:black;font-family:-apple-system,&quot;SF Pro Display&quot;,&quot;SF Pro Text&quot;,Helvetica,sans-serif;text-anchor:middle;" transform="matrix(1 0 0 1 2636.69 322)">Heavy</text>
  <text style="stroke:none;fill:black;font-family:-apple-system,&quot;SF Pro Display&quot;,&quot;SF Pro Text&quot;,Helvetica,sans-serif;text-anchor:middle;" transform="matrix(1 0 0 1 2933.4 322)">Black</text>
  <line id="" style="fill:none;stroke:black;opacity:1;stroke-width:0.5;" x1="263" x2="3036" y1="1903" y2="1903"/>
  <g id="" transform="matrix(1 0 0 1 263 1933)">
   <path d="M9.24805 0.830078C13.5547 0.830078 17.1387-2.74414 17.1387-7.05078C17.1387-11.3574 13.5449-14.9316 9.23828-14.9316C4.94141-14.9316 1.36719-11.3574 1.36719-7.05078C1.36719-2.74414 4.95117 0.830078 9.24805 0.830078ZM9.24805-0.654297C5.70312-0.654297 2.87109-3.49609 2.87109-7.05078C2.87109-10.6055 5.69336-13.4473 9.23828-13.4473C12.793-13.4473 15.6348-10.6055 15.6445-7.05078C15.6543-3.49609 12.8027-0.654297 9.24805-0.654297ZM6.39648-6.31836L8.50586-6.31836L8.50586-4.19922C8.50586-3.75977 8.79883-3.45703 9.22852-3.45703C9.67773-3.45703 9.9707-3.75977 9.9707-4.19922L9.9707-6.31836L12.0996-6.31836C12.5391-6.31836 12.8418-6.61133 12.8418-7.04102C12.8418-7.48047 12.5391-7.7832 12.0996-7.7832L9.9707-7.7832L9.9707-9.89258C9.9707-10.3418 9.67773-10.6445 9.22852-10.6445C8.79883-10.6445 8.50586-10.3418 8.50586-9.89258L8.50586-7.7832L6.39648-7.7832C5.94727-7.7832 5.64453-7.48047 5.64453-7.04102C5.64453-6.61133 5.94727-6.31836 6.39648-6.31836Z"/>
  </g>
  <g id="" transform="matrix(1 0 0 1 281.506 1933)">
   <path d="M11.709 2.91016C17.1582 2.91016 21.6699-1.61133 21.6699-7.05078C21.6699-12.5 17.1484-17.0117 11.6992-17.0117C6.25977-17.0117 1.74805-12.5 1.74805-7.05078C1.74805-1.61133 6.26953 2.91016 11.709 2.91016ZM11.709 1.25C7.09961 1.25 3.41797-2.44141 3.41797-7.05078C3.41797-11.6602 7.08984-15.3516 11.6992-15.3516C16.3086-15.3516 20-11.6602 20.0098-7.05078C20.0195-2.44141 16.3184 1.25 11.709 1.25ZM7.98828-6.23047L10.8789-6.23047L10.8789-3.32031C10.8789-2.83203 11.2109-2.5 11.6895-2.5C12.1777-2.5 12.5195-2.83203 12.5195-3.32031L12.5195-6.23047L15.4297-6.23047C15.918-6.23047 16.25-6.5625 16.25-7.04102C16.25-7.5293 15.918-7.87109 15.4297-7.87109L12.5195-7.87109L12.5195-10.7617C12.5195-11.2695 12.1777-11.6016 11.6895-11.6016C11.2109-11.6016 10.8789-11.2598 10.8789-10.7617L10.8789-7.87109L7.98828-7.87109C7.48047-7.87109 7.14844-7.5293 7.14844-7.04102C7.14844-6.5625 7.49023-6.23047 7.98828-6.23047Z"/>
  </g>
  <g id="" transform="matrix(1 0 0 1 304.924 1933)">
   <path d="M14.9707 5.66406C21.9336 5.66406 27.6953-0.0976562 27.6953-7.05078C27.6953-14.0137 21.9238-19.7754 14.9609-19.7754C8.00781-19.7754 2.25586-14.0137 2.25586-7.05078C2.25586-0.0976562 8.01758 5.66406 14.9707 5.66406ZM14.9707 3.84766C8.93555 3.84766 4.08203-1.01562 4.08203-7.05078C4.08203-13.0957 8.92578-17.9492 14.9609-17.9492C21.0059-17.9492 25.8594-13.0957 25.8691-7.05078C25.8789-1.01562 21.0156 3.84766 14.9707 3.84766ZM10.0586-6.14258L14.0625-6.14258L14.0625-2.12891C14.0625-1.5918 14.4336-1.2207 14.9512-1.2207C15.4883-1.2207 15.8594-1.5918 15.8594-2.12891L15.8594-6.14258L19.8828-6.14258C20.4102-6.14258 20.791-6.51367 20.791-7.03125C20.791-7.56836 20.4199-7.94922 19.8828-7.94922L15.8594-7.94922L15.8594-11.9531C15.8594-12.5098 15.4883-12.8809 14.9512-12.8809C14.4336-12.8809 14.0625-12.5 14.0625-11.9531L14.0625-7.94922L10.0586-7.94922C9.50195-7.94922 9.13086-7.56836 9.13086-7.03125C9.13086-6.51367 9.51172-6.14258 10.0586-6.14258Z"/>
  </g>
  <text style="stroke:none;fill:black;font-family:-apple-system,&quot;SF Pro Display&quot;,&quot;SF Pro Text&quot;,Helvetica,sans-serif;font-weight:bold;" transform="matrix(1 0 0 1 263 1953)">Design Variations</text>
  <text style="stroke:none;fill:black;font-family:-apple-system,&quot;SF Pro Display&quot;,&quot;SF Pro Text&quot;,Helvetica,sans-serif;" transform="matrix(1 0 0 1 263 1971)">Symbols are supported in up to nine weights and three scales.</text>
  <text style="stroke:none;fill:black;font-family:-apple-system,&quot;SF Pro Display&quot;,&quot;SF Pro Text&quot;,Helvetica,sans-serif;" transform="matrix(1 0 0 1 263 1989)">For optimal layout with text and other symbols, vertically align</text>
  <text style="stroke:none;fill:black;font-family:-apple-system,&quot;SF Pro Display&quot;,&quot;SF Pro Text&quot;,Helvetica,sans-serif;" transform="matrix(1 0 0 1 263 2007)">symbols with the adjacent text.</text>
  <line id="" style="fill:none;stroke:#00AEEF;stroke-width:0.5;opacity:1.0;" x1="776" x2="776" y1="1919" y2="1933"/>
  <g id="" transform="matrix(1 0 0 1 776 1933)">
   <path d="M3.31055 0.126953C3.82812 0.126953 4.08203-0.0683594 4.26758-0.605469L5.52734-4.0625L11.2891-4.0625L12.5488-0.605469C12.7344-0.0683594 12.9883 0.126953 13.4961 0.126953C14.0137 0.126953 14.3457-0.185547 14.3457-0.673828C14.3457-0.839844 14.3164-0.986328 14.2383-1.20117L9.6582-13.3887C9.43359-13.9941 9.0332-14.2871 8.4082-14.2871C7.80273-14.2871 7.39258-13.9941 7.17773-13.3984L2.59766-1.19141C2.51953-0.976562 2.49023-0.830078 2.49023-0.664062C2.49023-0.175781 2.80273 0.126953 3.31055 0.126953ZM6.00586-5.53711L8.37891-12.1094L8.42773-12.1094L10.8008-5.53711Z"/>
  </g>
  <line id="" style="fill:none;stroke:#00AEEF;stroke-width:0.5;opacity:1.0;" x1="792.836" x2="792.836" y1="1919" y2="1933"/>
  <text style="stroke:none;fill:black;font-family:-apple-system,&quot;SF Pro Display&quot;,&quot;SF Pro Text&quot;,Helvetica,sans-serif;font-weight:bold;" transform="matrix(1 0 0 1 776 1953)">Margins</text>
  <text style="stroke:none;fill:black;font-family:-apple-system,&quot;SF Pro Display&quot;,&quot;SF Pro Text&quot;,Helvetica,sans-serif;" transform="matrix(1 0 0 1 776 1971)">Leading and trailing margins on the left and right side of each symbol</text>
  <text style="stroke:none;fill:black;font-family:-apple-system,&quot;SF Pro Display&quot;,&quot;SF Pro Text&quot;,Helvetica,sans-serif;" transform="matrix(1 0 0 1 776 1989)">can be adjusted by modifying the x-location of the margin guidelines.</text>
  <text style="stroke:none;fill:black;font-family:-apple-system,&quot;SF Pro Display&quot;,&quot;SF Pro Text&quot;,Helvetica,sans-serif;" transform="matrix(1 0 0 1 776 2007)">Modifications are automatically applied proportionally to all</text>
  <text style="stroke:none;fill:black;font-family:-apple-system,&quot;SF Pro Display&quot;,&quot;SF Pro Text&quot;,Helvetica,sans-serif;" transform="matrix(1 0 0 1 776 2025)">scales and weights.</text>
  <g id="" transform="matrix(1 0 0 1 1289 1933)">
   <path d="M2.8418 1.86523L4.54102 3.57422C5.40039 4.44336 6.38672 4.38477 7.31445 3.35938L17.4902-7.85156C17.7539-7.76367 18.0273-7.7832 18.3398-7.8418L19.4043-8.03711L20.0684-7.36328L20.0293-6.80664C19.9902-6.30859 20.1172-5.92773 20.6055-5.44922L21.3672-4.70703C21.8457-4.22852 22.4609-4.19922 22.9297-4.66797L25.8398-7.58789C26.3086-8.05664 26.2891-8.65234 25.8105-9.13086L25.0391-9.89258C24.5605-10.3711 24.1895-10.5273 23.7109-10.4883L23.1348-10.4395L22.4902-11.0742L22.7344-12.1973C22.8613-12.7637 22.7051-13.2031 22.1191-13.7891L19.9219-15.9766C16.582-19.2969 12.1484-19.2188 9.25781-16.3281C8.83789-15.918 8.80859-15.3418 9.04297-14.9512C9.27734-14.5898 9.73633-14.3555 10.3809-14.5215C11.8457-14.8633 13.3691-14.9219 14.7949-13.9844L14.209-12.5293C14.0137-12.0508 13.9844-11.6504 14.1113-11.2891L3.04688-0.898438C2.06055 0.0195312 1.98242 0.996094 2.8418 1.86523ZM10.752-15.957C13.1836-17.7344 16.4746-17.4316 18.7012-15.2051L21.1328-12.793C21.3672-12.5586 21.4062-12.373 21.3379-12.0312L21.0156-10.5469L22.5195-9.0625L23.5059-9.12109C23.7598-9.13086 23.8379-9.11133 24.0332-8.91602L24.6094-8.33984L22.168-5.89844L21.5918-6.47461C21.3965-6.66992 21.3672-6.74805 21.377-7.01172L21.4453-7.98828L19.9512-9.47266L18.4277-9.21875C18.1055-9.15039 17.959-9.17969 17.7148-9.41406L15.7129-11.416C15.459-11.6504 15.4297-11.8164 15.5859-12.1875L16.4648-14.2773C14.9023-15.7324 12.8711-16.3574 10.8398-15.7617C10.6836-15.7227 10.625-15.8496 10.752-15.957ZM5.27344 2.30469L4.10156 1.14258C3.63281 0.683594 3.74023 0.341797 4.14062-0.0195312L14.9512-10.1953L16.416-8.71094L6.42578 2.27539C6.07422 2.67578 5.74219 2.77344 5.27344 2.30469Z"/>
  </g>
  <text style="stroke:none;fill:black;font-family:-apple-system,&quot;SF Pro Display&quot;,&quot;SF Pro Text&quot;,Helvetica,sans-serif;font-weight:bold;" transform="matrix(1 0 0 1 1289 1953)">Exporting</text>
  <text style="stroke:none;fill:black;font-family:-apple-system,&quot;SF Pro Display&quot;,&quot;SF Pro Text&quot;,Helvetica,sans-serif;" transform="matrix(1 0 0 1 1289 1971)">Symbols should be outlined when exporting to ensure the</text>
  <text style="stroke:none;fill:black;font-family:-apple-system,&quot;SF Pro Display&quot;,&quot;SF Pro Text&quot;,Helvetica,sans-serif;" transform="matrix(1 0 0 1 1289 1989)">design is preserved when submitting to Xcode.</text>
  <text id="template-version" style="stroke:none;fill:black;font-family:-apple-system,&quot;SF Pro Display&quot;,&quot;SF Pro Text&quot;,Helvetica,sans-serif;text-anchor:end;" transform="matrix(1 0 0 1 3036 1933)">Template v.2.0</text>
  <text style="stroke:none;fill:black;font-family:-apple-system,&quot;SF Pro Display&quot;,&quot;SF Pro Text&quot;,Helvetica,sans-serif;text-anchor:end;" transform="matrix(1 0 0 1 3036 1951)">Requires Xcode 12 or greater</text>
  <text style="stroke:none;fill:black;font-family:-apple-system,&quot;SF Pro Display&quot;,&quot;SF Pro Text&quot;,Helvetica,sans-serif;" transform="matrix(1 0 0 1 263 726)">Small</text>
  <text style="stroke:none;fill:black;font-family:-apple-system,&quot;SF Pro Display&quot;,&quot;SF Pro Text&quot;,Helvetica,sans-serif;" transform="matrix(1 0 0 1 263 1156)">Medium</text>
  <text style="stroke:none;fill:black;font-family:-apple-system,&quot;SF Pro Display&quot;,&quot;SF Pro Text&quot;,Helvetica,sans-serif;" transform="matrix(1 0 0 1 263 1586)">Large</text>
 </g>
 <g id="Guides">
  <g id="H-reference" style="fill:#27AAE1;stroke:none;" transform="matrix(1 0 0 1 339 696)">
   <path d="M0.976562 0L3.66211 0L12.9883-24.4629L45.752-24.4629L55.127 0L57.7637 0L30.6152-70.459L28.125-70.459ZM29.3457-67.1387L29.4434-67.1387L44.873-26.709L13.8672-26.709Z"/>
  </g>
  <line id="Baseline-S" style="fill:none;stroke:#27AAE1;opacity:1;stroke-width:0.5;" x1="263" x2="3036" y1="696" y2="696"/>
  <line id="Capline-S" style="fill:none;stroke:#27AAE1;opacity:1;stroke-width:0.5;" x1="263" x2="3036" y1="625.541" y2="625.541"/>
  <g id="H-reference" style="fill:#27AAE1;stroke:none;" transform="matrix(1 0 0 1 339 1126)">
   <path d="M0.976562 0L3.66211 0L12.9883-24.4629L45.752-24.4629L55.127 0L57.7637 0L30.6152-70.459L28.125-70.459ZM29.3457-67.1387L29.4434-67.1387L44.873-26.709L13.8672-26.709Z"/>
  </g>
  <line id="Baseline-M" style="fill:none;stroke:#27AAE1;opacity:1;stroke-width:0.5;" x1="263" x2="3036" y1="1126" y2="1126"/>
  <line id="Capline-M" style="fill:none;stroke:#27AAE1;opacity:1;stroke-width:0.5;" x1="263" x2="3036" y1="1055.54" y2="1055.54"/>
  <g id="H-reference" style="fill:#27AAE1;stroke:none;" transform="matrix(1 0 0 1 339 1556)">
   <path d="M0.976562 0L3.66211 0L12.9883-24.4629L45.752-24.4629L55.127 0L57.7637 0L30.6152-70.459L28.125-70.459ZM29.3457-67.1387L29.4434-67.1387L44.873-26.709L13.8672-26.709Z"/>
  </g>
  <line id="Baseline-L" style="fill:none;stroke:#27AAE1;opacity:1;stroke-width:0.5;" x1="263" x2="3036" y1="1556" y2="1556"/>
  <line id="Capline-L" style="fill:none;stroke:#27AAE1;opacity:1;stroke-width:0.5;" x1="263" x2="3036" y1="1485.54" y2="1485.54"/>
  <line id="left-margin" x1="1406.0937363079895" x2="1406.0937363079895" y1="1030.79" y2="1150.12" style="fill:none;stroke:#00AEEF;stroke-width:0.5;opacity:1.0;"/>
  <line id="right-margin" x1="1496.3478615381034" x2="1496.3478615381034" y1="1030.79" y2="1150.12" style="fill:none;stroke:#00AEEF;stroke-width:0.5;opacity:1.0;"/>
 </g>
 <g id="Symbols">
  <g id="Black-L" transform="matrix(1.0,0.0,0.0,1.0,2876.1146974166395,1466.4214187338919)">  <path fill-rule="nonzero" stroke-dasharray="none" stroke-width="0.0625px" stroke-linecap="butt" xmlns:svg="http://www.w3.org/2000/svg" stroke-opacity="1" stroke-linejoin="miter" fill="#000000" fill-opacity="1" stroke="none" stroke-miterlimit="4" version="1.1" d="M33.636,0C14.437,0,0,14.883,0,35.868C0,61.095,20.539,85.802,53.952,106.936C55.291,107.829,57.3,108.722,58.565,108.722C58.584,108.722,58.606,108.716,58.625,108.716L58.625,97.387C58.61,97.389,58.578,97.41,58.565,97.41C58.342,97.41,57.896,97.113,57.3,96.666C33.71,81.039,10.716,57.449,10.716,35.868C10.716,20.762,20.464,10.716,33.562,10.716C44.575,10.716,50.528,17.637,54.175,22.92C55.961,25.525,57.077,26.269,58.565,26.269C60.128,26.269,61.021,25.45,62.956,22.92C66.9,17.785,72.63,10.716,83.643,10.716C96.741,10.716,106.415,20.762,106.415,35.868C106.415,36.238,106.372,36.611,106.358,36.982L117.092,36.982C117.102,36.611,117.131,36.24,117.131,35.868C117.131,14.883,102.694,0,83.495,0C72.481,0,63.998,4.986,58.565,12.576C53.207,5.06,44.65,0,33.636,0ZM33.636,0"/>
  <path version="1.1" stroke="none" stroke-miterlimit="4" stroke-opacity="1" fill-opacity="1" stroke-linejoin="miter" stroke-width="0.0625px" xmlns:svg="http://www.w3.org/2000/svg" fill-rule="nonzero" fill="#000000" stroke-linecap="butt" stroke-dasharray="none" d="M87.519,108.781C88.002,108.781,88.88,108.606,89.845,108.079C109.548,97.285,116.525,92.37,116.525,79.381L116.525,52.965C116.525,49.367,114.813,48.27,112.093,47.085C108.538,45.549,94.014,40.415,90.459,39.186C89.538,38.879,88.529,38.66,87.519,38.66C86.51,38.66,85.457,38.967,84.579,39.186C81.025,40.064,66.5,45.593,62.946,47.085C60.225,48.226,58.514,49.367,58.514,52.965L58.514,79.381C58.514,92.37,65.491,97.241,85.194,108.079C86.159,108.606,87.037,108.781,87.519,108.781ZM87.519,101.585C86.993,101.585,86.466,101.453,85.282,100.795C69.44,91.317,64.745,88.508,64.745,77.845L64.745,54.15C64.745,53.36,64.921,53.009,65.623,52.702C71.24,50.508,80.718,47.48,86.335,45.242C86.773,45.066,87.168,45.022,87.519,45.022C87.87,45.022,88.265,45.066,88.704,45.242C94.277,47.48,103.624,50.771,109.372,52.702C110.118,52.965,110.25,53.36,110.25,54.15L110.25,77.845C110.25,88.508,105.555,91.317,89.713,100.795C88.573,101.453,88.046,101.585,87.519,101.585ZM87.519,101.585"/>
</g>
  <g id="Heavy-L" transform="matrix(1.0,0.0,0.0,1.0,2579.4046974166395,1466.4214187338919)">  <path stroke-dasharray="none" fill="#000000" stroke-width="0.0625px" xmlns:svg="http://www.w3.org/2000/svg" stroke-opacity="1" stroke-miterlimit="4" stroke-linejoin="miter" stroke="none" version="1.1" stroke-linecap="butt" fill-opacity="1" fill-rule="nonzero" d="M33.636,0C14.437,0,0,14.883,0,35.868C0,61.095,20.539,85.802,53.952,106.936C55.291,107.829,57.3,108.722,58.565,108.722C58.584,108.722,58.606,108.716,58.625,108.716L58.625,97.387C58.61,97.389,58.578,97.41,58.565,97.41C58.342,97.41,57.896,97.113,57.3,96.666C33.71,81.039,10.716,57.449,10.716,35.868C10.716,20.762,20.464,10.716,33.562,10.716C44.575,10.716,50.528,17.637,54.175,22.92C55.961,25.525,57.077,26.269,58.565,26.269C60.128,26.269,61.021,25.45,62.956,22.92C66.9,17.785,72.63,10.716,83.643,10.716C96.741,10.716,106.415,20.762,106.415,35.868C106.415,36.238,106.372,36.611,106.358,36.982L117.092,36.982C117.102,36.611,117.131,36.24,117.131,35.868C117.131,14.883,102.694,0,83.495,0C72.481,0,63.998,4.986,58.565,12.576C53.207,5.06,44.65,0,33.636,0ZM33.636,0"/>
  <path stroke-linejoin="miter" version="1.1" fill-rule="nonzero" stroke-width="0.0625px" stroke="none" stroke-miterlimit="4" fill="#000000" fill-opacity="1" stroke-dasharray="none" xmlns:svg="http://www.w3.org/2000/svg" stroke-opacity="1" stroke-linecap="butt" d="M87.519,108.781C88.002,108.781,88.88,108.606,89.845,108.079C109.548,97.285,116.525,92.37,116.525,79.381L116.525,52.965C116.525,49.367,114.813,48.27,112.093,47.085C108.538,45.549,94.014,40.415,90.459,39.186C89.538,38.879,88.529,38.66,87.519,38.66C86.51,38.66,85.457,38.967,84.579,39.186C81.025,40.064,66.5,45.593,62.946,47.085C60.225,48.226,58.514,49.367,58.514,52.965L58.514,79.381C58.514,92.37,65.491,97.241,85.194,108.079C86.159,108.606,87.037,108.781,87.519,108.781ZM87.519,101.585C86.993,101.585,86.466,101.453,85.282,100.795C69.44,91.317,64.745,88.508,64.745,77.845L64.745,54.15C64.745,53.36,64.921,53.009,65.623,52.702C71.24,50.508,80.718,47.48,86.335,45.242C86.773,45.066,87.168,45.022,87.519,45.022C87.87,45.022,88.265,45.066,88.704,45.242C94.277,47.48,103.624,50.771,109.372,52.702C110.118,52.965,110.25,53.36,110.25,54.15L110.25,77.845C110.25,88.508,105.555,91.317,89.713,100.795C88.573,101.453,88.046,101.585,87.519,101.585ZM87.519,101.585"/>
</g>
  <g id="Bold-L" transform="matrix(1.0,0.0,0.0,1.0,2282.6946974166394,1466.4214187338919)">  <path stroke-opacity="1" stroke-linejoin="miter" stroke-dasharray="none" stroke="none" fill-rule="nonzero" stroke-miterlimit="4" fill-opacity="1" stroke-linecap="butt" version="1.1" xmlns:svg="http://www.w3.org/2000/svg" stroke-width="0.0625px" fill="#000000" d="M33.636,0C14.437,0,0,14.883,0,35.868C0,61.095,20.539,85.802,53.952,106.936C55.291,107.829,57.3,108.722,58.565,108.722C58.584,108.722,58.606,108.716,58.625,108.716L58.625,97.387C58.61,97.389,58.578,97.41,58.565,97.41C58.342,97.41,57.896,97.113,57.3,96.666C33.71,81.039,10.716,57.449,10.716,35.868C10.716,20.762,20.464,10.716,33.562,10.716C44.575,10.716,50.528,17.637,54.175,22.92C55.961,25.525,57.077,26.269,58.565,26.269C60.128,26.269,61.021,25.45,62.956,22.92C66.9,17.785,72.63,10.716,83.643,10.716C96.741,10.716,106.415,20.762,106.415,35.868C106.415,36.238,106.372,36.611,106.358,36.982L117.092,36.982C117.102,36.611,117.131,36.24,117.131,35.868C117.131,14.883,102.694,0,83.495,0C72.481,0,63.998,4.986,58.565,12.576C53.207,5.06,44.65,0,33.636,0ZM33.636,0"/>
  <path stroke-linejoin="miter" stroke-width="0.0625px" stroke-dasharray="none" version="1.1" stroke="none" stroke-linecap="butt" stroke-miterlimit="4" fill="#000000" fill-opacity="1" xmlns:svg="http://www.w3.org/2000/svg" stroke-opacity="1" fill-rule="nonzero" d="M87.519,108.781C88.002,108.781,88.88,108.606,89.845,108.079C109.548,97.285,116.525,92.37,116.525,79.381L116.525,52.965C116.525,49.367,114.813,48.27,112.093,47.085C108.538,45.549,94.014,40.415,90.459,39.186C89.538,38.879,88.529,38.66,87.519,38.66C86.51,38.66,85.457,38.967,84.579,39.186C81.025,40.064,66.5,45.593,62.946,47.085C60.225,48.226,58.514,49.367,58.514,52.965L58.514,79.381C58.514,92.37,65.491,97.241,85.194,108.079C86.159,108.606,87.037,108.781,87.519,108.781ZM87.519,101.585C86.993,101.585,86.466,101.453,85.282,100.795C69.44,91.317,64.745,88.508,64.745,77.845L64.745,54.15C64.745,53.36,64.921,53.009,65.623,52.702C71.24,50.508,80.718,47.48,86.335,45.242C86.773,45.066,87.168,45.022,87.519,45.022C87.87,45.022,88.265,45.066,88.704,45.242C94.277,47.48,103.624,50.771,109.372,52.702C110.118,52.965,110.25,53.36,110.25,54.15L110.25,77.845C110.25,88.508,105.555,91.317,89.713,100.795C88.573,101.453,88.046,101.585,87.519,101.585ZM87.519,101.585"/>
</g>
  <g id="Semibold-L" transform="matrix(1.0,0.0,0.0,1.0,1985.9846974166398,1466.4214187338919)">  <path fill="#000000" stroke-width="0.0625px" stroke-linejoin="miter" fill-opacity="1" stroke-opacity="1" xmlns:svg="http://www.w3.org/2000/svg" fill-rule="nonzero" version="1.1" stroke-miterlimit="4" stroke-dasharray="none" stroke="none" stroke-linecap="butt" d="M33.636,0C14.437,0,0,14.883,0,35.868C0,61.095,20.539,85.802,53.952,106.936C55.291,107.829,57.3,108.722,58.565,108.722C58.584,108.722,58.606,108.716,58.625,108.716L58.625,97.387C58.61,97.389,58.578,97.41,58.565,97.41C58.342,97.41,57.896,97.113,57.3,96.666C33.71,81.039,10.716,57.449,10.716,35.868C10.716,20.762,20.464,10.716,33.562,10.716C44.575,10.716,50.528,17.637,54.175,22.92C55.961,25.525,57.077,26.269,58.565,26.269C60.128,26.269,61.021,25.45,62.956,22.92C66.9,17.785,72.63,10.716,83.643,10.716C96.741,10.716,106.415,20.762,106.415,35.868C106.415,36.238,106.372,36.611,106.358,36.982L117.092,36.982C117.102,36.611,117.131,36.24,117.131,35.868C117.131,14.883,102.694,0,83.495,0C72.481,0,63.998,4.986,58.565,12.576C53.207,5.06,44.65,0,33.636,0ZM33.636,0"/>
  <path fill-opacity="1" stroke-dasharray="none" version="1.1" stroke-miterlimit="4" fill="#000000" stroke-width="0.0625px" fill-rule="nonzero" stroke-linejoin="miter" stroke-linecap="butt" stroke-opacity="1" xmlns:svg="http://www.w3.org/2000/svg" stroke="none" d="M87.519,108.781C88.002,108.781,88.88,108.606,89.845,108.079C109.548,97.285,116.525,92.37,116.525,79.381L116.525,52.965C116.525,49.367,114.813,48.27,112.093,47.085C108.538,45.549,94.014,40.415,90.459,39.186C89.538,38.879,88.529,38.66,87.519,38.66C86.51,38.66,85.457,38.967,84.579,39.186C81.025,40.064,66.5,45.593,62.946,47.085C60.225,48.226,58.514,49.367,58.514,52.965L58.514,79.381C58.514,92.37,65.491,97.241,85.194,108.079C86.159,108.606,87.037,108.781,87.519,108.781ZM87.519,101.585C86.993,101.585,86.466,101.453,85.282,100.795C69.44,91.317,64.745,88.508,64.745,77.845L64.745,54.15C64.745,53.36,64.921,53.009,65.623,52.702C71.24,50.508,80.718,47.48,86.335,45.242C86.773,45.066,87.168,45.022,87.519,45.022C87.87,45.022,88.265,45.066,88.704,45.242C94.277,47.48,103.624,50.771,109.372,52.702C110.118,52.965,110.25,53.36,110.25,54.15L110.25,77.845C110.25,88.508,105.555,91.317,89.713,100.795C88.573,101.453,88.046,101.585,87.519,101.585ZM87.519,101.585"/>
</g>
  <g id="Medium-L" transform="matrix(1.0,0.0,0.0,1.0,1689.2746974166398,1466.4214187338919)">  <path stroke-linejoin="miter" xmlns:svg="http://www.w3.org/2000/svg" stroke-linecap="butt" stroke-opacity="1" stroke-miterlimit="4" fill="#000000" stroke-dasharray="none" fill-opacity="1" version="1.1" stroke="none" fill-rule="nonzero" stroke-width="0.0625px" d="M33.636,0C14.437,0,0,14.883,0,35.868C0,61.095,20.539,85.802,53.952,106.936C55.291,107.829,57.3,108.722,58.565,108.722C58.584,108.722,58.606,108.716,58.625,108.716L58.625,97.387C58.61,97.389,58.578,97.41,58.565,97.41C58.342,97.41,57.896,97.113,57.3,96.666C33.71,81.039,10.716,57.449,10.716,35.868C10.716,20.762,20.464,10.716,33.562,10.716C44.575,10.716,50.528,17.637,54.175,22.92C55.961,25.525,57.077,26.269,58.565,26.269C60.128,26.269,61.021,25.45,62.956,22.92C66.9,17.785,72.63,10.716,83.643,10.716C96.741,10.716,106.415,20.762,106.415,35.868C106.415,36.238,106.372,36.611,106.358,36.982L117.092,36.982C117.102,36.611,117.131,36.24,117.131,35.868C117.131,14.883,102.694,0,83.495,0C72.481,0,63.998,4.986,58.565,12.576C53.207,5.06,44.65,0,33.636,0ZM33.636,0"/>
  <path stroke-linejoin="miter" stroke-opacity="1" version="1.1" stroke-miterlimit="4" stroke-linecap="butt" fill-opacity="1" fill="#000000" xmlns:svg="http://www.w3.org/2000/svg" stroke-dasharray="none" fill-rule="nonzero" stroke="none" stroke-width="0.0625px" d="M87.519,108.781C88.002,108.781,88.88,108.606,89.845,108.079C109.548,97.285,116.525,92.37,116.525,79.381L116.525,52.965C116.525,49.367,114.813,48.27,112.093,47.085C108.538,45.549,94.014,40.415,90.459,39.186C89.538,38.879,88.529,38.66,87.519,38.66C86.51,38.66,85.457,38.967,84.579,39.186C81.025,40.064,66.5,45.593,62.946,47.085C60.225,48.226,58.514,49.367,58.514,52.965L58.514,79.381C58.514,92.37,65.491,97.241,85.194,108.079C86.159,108.606,87.037,108.781,87.519,108.781ZM87.519,101.585C86.993,101.585,86.466,101.453,85.282,100.795C69.44,91.317,64.745,88.508,64.745,77.845L64.745,54.15C64.745,53.36,64.921,53.009,65.623,52.702C71.24,50.508,80.718,47.48,86.335,45.242C86.773,45.066,87.168,45.022,87.519,45.022C87.87,45.022,88.265,45.066,88.704,45.242C94.277,47.48,103.624,50.771,109.372,52.702C110.118,52.965,110.25,53.36,110.25,54.15L110.25,77.845C110.25,88.508,105.555,91.317,89.713,100.795C88.573,101.453,88.046,101.585,87.519,101.585ZM87.519,101.585"/>
</g>
  <g id="Regular-L" transform="matrix(1.0,0.0,0.0,1.0,1392.5646974166398,1466.4214187338919)">  <path stroke-opacity="1" stroke-dasharray="none" stroke-linecap="butt" stroke-width="0.0625px" fill-rule="nonzero" xmlns:svg="http://www.w3.org/2000/svg" stroke-miterlimit="4" fill="#000000" version="1.1" stroke="none" fill-opacity="1" stroke-linejoin="miter" d="M33.636,0C14.437,0,0,14.883,0,35.868C0,61.095,20.539,85.802,53.952,106.936C55.291,107.829,57.3,108.722,58.565,108.722C58.584,108.722,58.606,108.716,58.625,108.716L58.625,97.387C58.61,97.389,58.578,97.41,58.565,97.41C58.342,97.41,57.896,97.113,57.3,96.666C33.71,81.039,10.716,57.449,10.716,35.868C10.716,20.762,20.464,10.716,33.562,10.716C44.575,10.716,50.528,17.637,54.175,22.92C55.961,25.525,57.077,26.269,58.565,26.269C60.128,26.269,61.021,25.45,62.956,22.92C66.9,17.785,72.63,10.716,83.643,10.716C96.741,10.716,106.415,20.762,106.415,35.868C106.415,36.238,106.372,36.611,106.358,36.982L117.092,36.982C117.102,36.611,117.131,36.24,117.131,35.868C117.131,14.883,102.694,0,83.495,0C72.481,0,63.998,4.986,58.565,12.576C53.207,5.06,44.65,0,33.636,0ZM33.636,0"/>
  <path fill="#000000" version="1.1" stroke-miterlimit="4" stroke-dasharray="none" stroke-linejoin="miter" stroke-width="0.0625px" fill-rule="nonzero" xmlns:svg="http://www.w3.org/2000/svg" stroke-opacity="1" fill-opacity="1" stroke-linecap="butt" stroke="none" d="M87.519,108.781C88.002,108.781,88.88,108.606,89.845,108.079C109.548,97.285,116.525,92.37,116.525,79.381L116.525,52.965C116.525,49.367,114.813,48.27,112.093,47.085C108.538,45.549,94.014,40.415,90.459,39.186C89.538,38.879,88.529,38.66,87.519,38.66C86.51,38.66,85.457,38.967,84.579,39.186C81.025,40.064,66.5,45.593,62.946,47.085C60.225,48.226,58.514,49.367,58.514,52.965L58.514,79.381C58.514,92.37,65.491,97.241,85.194,108.079C86.159,108.606,87.037,108.781,87.519,108.781ZM87.519,101.585C86.993,101.585,86.466,101.453,85.282,100.795C69.44,91.317,64.745,88.508,64.745,77.845L64.745,54.15C64.745,53.36,64.921,53.009,65.623,52.702C71.24,50.508,80.718,47.48,86.335,45.242C86.773,45.066,87.168,45.022,87.519,45.022C87.87,45.022,88.265,45.066,88.704,45.242C94.277,47.48,103.624,50.771,109.372,52.702C110.118,52.965,110.25,53.36,110.25,54.15L110.25,77.845C110.25,88.508,105.555,91.317,89.713,100.795C88.573,101.453,88.046,101.585,87.519,101.585ZM87.519,101.585"/>
</g>
  <g id="Light-L" transform="matrix(1.0,0.0,0.0,1.0,1095.85469741664,1466.4214187338919)">  <path xmlns:svg="http://www.w3.org/2000/svg" fill="#000000" fill-opacity="1" stroke-miterlimit="4" stroke="none" stroke-opacity="1" version="1.1" stroke-width="0.0625px" stroke-linecap="butt" fill-rule="nonzero" stroke-dasharray="none" stroke-linejoin="miter" d="M33.636,0C14.437,0,0,14.883,0,35.868C0,61.095,20.539,85.802,53.952,106.936C55.291,107.829,57.3,108.722,58.565,108.722C58.584,108.722,58.606,108.716,58.625,108.716L58.625,97.387C58.61,97.389,58.578,97.41,58.565,97.41C58.342,97.41,57.896,97.113,57.3,96.666C33.71,81.039,10.716,57.449,10.716,35.868C10.716,20.762,20.464,10.716,33.562,10.716C44.575,10.716,50.528,17.637,54.175,22.92C55.961,25.525,57.077,26.269,58.565,26.269C60.128,26.269,61.021,25.45,62.956,22.92C66.9,17.785,72.63,10.716,83.643,10.716C96.741,10.716,106.415,20.762,106.415,35.868C106.415,36.238,106.372,36.611,106.358,36.982L117.092,36.982C117.102,36.611,117.131,36.24,117.131,35.868C117.131,14.883,102.694,0,83.495,0C72.481,0,63.998,4.986,58.565,12.576C53.207,5.06,44.65,0,33.636,0ZM33.636,0"/>
  <path stroke-opacity="1" fill-opacity="1" fill="#000000" stroke="none" stroke-linecap="butt" stroke-dasharray="none" stroke-width="0.0625px" stroke-linejoin="miter" fill-rule="nonzero" stroke-miterlimit="4" version="1.1" xmlns:svg="http://www.w3.org/2000/svg" d="M87.519,108.781C88.002,108.781,88.88,108.606,89.845,108.079C109.548,97.285,116.525,92.37,116.525,79.381L116.525,52.965C116.525,49.367,114.813,48.27,112.093,47.085C108.538,45.549,94.014,40.415,90.459,39.186C89.538,38.879,88.529,38.66,87.519,38.66C86.51,38.66,85.457,38.967,84.579,39.186C81.025,40.064,66.5,45.593,62.946,47.085C60.225,48.226,58.514,49.367,58.514,52.965L58.514,79.381C58.514,92.37,65.491,97.241,85.194,108.079C86.159,108.606,87.037,108.781,87.519,108.781ZM87.519,101.585C86.993,101.585,86.466,101.453,85.282,100.795C69.44,91.317,64.745,88.508,64.745,77.845L64.745,54.15C64.745,53.36,64.921,53.009,65.623,52.702C71.24,50.508,80.718,47.48,86.335,45.242C86.773,45.066,87.168,45.022,87.519,45.022C87.87,45.022,88.265,45.066,88.704,45.242C94.277,47.48,103.624,50.771,109.372,52.702C110.118,52.965,110.25,53.36,110.25,54.15L110.25,77.845C110.25,88.508,105.555,91.317,89.713,100.795C88.573,101.453,88.046,101.585,87.519,101.585ZM87.519,101.585"/>
</g>
  <g id="Thin-L" transform="matrix(1.0,0.0,0.0,1.0,799.1446974166399,1466.4214187338919)">  <path fill="#000000" stroke-opacity="1" version="1.1" stroke="none" fill-opacity="1" stroke-dasharray="none" stroke-miterlimit="4" stroke-width="0.0625px" stroke-linejoin="miter" xmlns:svg="http://www.w3.org/2000/svg" stroke-linecap="butt" fill-rule="nonzero" d="M33.636,0C14.437,0,0,14.883,0,35.868C0,61.095,20.539,85.802,53.952,106.936C55.291,107.829,57.3,108.722,58.565,108.722C58.584,108.722,58.606,108.716,58.625,108.716L58.625,97.387C58.61,97.389,58.578,97.41,58.565,97.41C58.342,97.41,57.896,97.113,57.3,96.666C33.71,81.039,10.716,57.449,10.716,35.868C10.716,20.762,20.464,10.716,33.562,10.716C44.575,10.716,50.528,17.637,54.175,22.92C55.961,25.525,57.077,26.269,58.565,26.269C60.128,26.269,61.021,25.45,62.956,22.92C66.9,17.785,72.63,10.716,83.643,10.716C96.741,10.716,106.415,20.762,106.415,35.868C106.415,36.238,106.372,36.611,106.358,36.982L117.092,36.982C117.102,36.611,117.131,36.24,117.131,35.868C117.131,14.883,102.694,0,83.495,0C72.481,0,63.998,4.986,58.565,12.576C53.207,5.06,44.65,0,33.636,0ZM33.636,0"/>
  <path stroke-linejoin="miter" stroke-miterlimit="4" fill-opacity="1" xmlns:svg="http://www.w3.org/2000/svg" stroke-opacity="1" stroke-dasharray="none" fill="#000000" fill-rule="nonzero" stroke-linecap="butt" version="1.1" stroke-width="0.0625px" stroke="none" d="M87.519,108.781C88.002,108.781,88.88,108.606,89.845,108.079C109.548,97.285,116.525,92.37,116.525,79.381L116.525,52.965C116.525,49.367,114.813,48.27,112.093,47.085C108.538,45.549,94.014,40.415,90.459,39.186C89.538,38.879,88.529,38.66,87.519,38.66C86.51,38.66,85.457,38.967,84.579,39.186C81.025,40.064,66.5,45.593,62.946,47.085C60.225,48.226,58.514,49.367,58.514,52.965L58.514,79.381C58.514,92.37,65.491,97.241,85.194,108.079C86.159,108.606,87.037,108.781,87.519,108.781ZM87.519,101.585C86.993,101.585,86.466,101.453,85.282,100.795C69.44,91.317,64.745,88.508,64.745,77.845L64.745,54.15C64.745,53.36,64.921,53.009,65.623,52.702C71.24,50.508,80.718,47.48,86.335,45.242C86.773,45.066,87.168,45.022,87.519,45.022C87.87,45.022,88.265,45.066,88.704,45.242C94.277,47.48,103.624,50.771,109.372,52.702C110.118,52.965,110.25,53.36,110.25,54.15L110.25,77.845C110.25,88.508,105.555,91.317,89.713,100.795C88.573,101.453,88.046,101.585,87.519,101.585ZM87.519,101.585"/>
</g>
  <g id="Ultralight-L" transform="matrix(1.0,0.0,0.0,1.0,502.43469741663984,1466.4214187338919)">  <path stroke-linecap="butt" fill-opacity="1" stroke-opacity="1" stroke-width="0.0625px" fill="#000000" version="1.1" xmlns:svg="http://www.w3.org/2000/svg" stroke-miterlimit="4" stroke="none" stroke-linejoin="miter" stroke-dasharray="none" fill-rule="nonzero" d="M33.636,0C14.437,0,0,14.883,0,35.868C0,61.095,20.539,85.802,53.952,106.936C55.291,107.829,57.3,108.722,58.565,108.722C58.584,108.722,58.606,108.716,58.625,108.716L58.625,97.387C58.61,97.389,58.578,97.41,58.565,97.41C58.342,97.41,57.896,97.113,57.3,96.666C33.71,81.039,10.716,57.449,10.716,35.868C10.716,20.762,20.464,10.716,33.562,10.716C44.575,10.716,50.528,17.637,54.175,22.92C55.961,25.525,57.077,26.269,58.565,26.269C60.128,26.269,61.021,25.45,62.956,22.92C66.9,17.785,72.63,10.716,83.643,10.716C96.741,10.716,106.415,20.762,106.415,35.868C106.415,36.238,106.372,36.611,106.358,36.982L117.092,36.982C117.102,36.611,117.131,36.24,117.131,35.868C117.131,14.883,102.694,0,83.495,0C72.481,0,63.998,4.986,58.565,12.576C53.207,5.06,44.65,0,33.636,0ZM33.636,0"/>
  <path stroke-opacity="1" fill="#000000" fill-opacity="1" version="1.1" stroke-width="0.0625px" xmlns:svg="http://www.w3.org/2000/svg" stroke-linejoin="miter" stroke-dasharray="none" stroke="none" fill-rule="nonzero" stroke-miterlimit="4" stroke-linecap="butt" d="M87.519,108.781C88.002,108.781,88.88,108.606,89.845,108.079C109.548,97.285,116.525,92.37,116.525,79.381L116.525,52.965C116.525,49.367,114.813,48.27,112.093,47.085C108.538,45.549,94.014,40.415,90.459,39.186C89.538,38.879,88.529,38.66,87.519,38.66C86.51,38.66,85.457,38.967,84.579,39.186C81.025,40.064,66.5,45.593,62.946,47.085C60.225,48.226,58.514,49.367,58.514,52.965L58.514,79.381C58.514,92.37,65.491,97.241,85.194,108.079C86.159,108.606,87.037,108.781,87.519,108.781ZM87.519,101.585C86.993,101.585,86.466,101.453,85.282,100.795C69.44,91.317,64.745,88.508,64.745,77.845L64.745,54.15C64.745,53.36,64.921,53.009,65.623,52.702C71.24,50.508,80.718,47.48,86.335,45.242C86.773,45.066,87.168,45.022,87.519,45.022C87.87,45.022,88.265,45.066,88.704,45.242C94.277,47.48,103.624,50.771,109.372,52.702C110.118,52.965,110.25,53.36,110.25,54.15L110.25,77.845C110.25,88.508,105.555,91.317,89.713,100.795C88.573,101.453,88.046,101.585,87.519,101.585ZM87.519,101.585"/>
</g>
  <g id="Black-M" transform="matrix(1.0,0.0,0.0,1.0,2889.280540633054,1048.6393212387243)">  <path fill-rule="nonzero" stroke-dasharray="none" stroke-width="0.0625px" stroke-linecap="butt" xmlns:svg="http://www.w3.org/2000/svg" stroke-opacity="1" stroke-linejoin="miter" fill="#000000" fill-opacity="1" stroke="none" stroke-miterlimit="4" version="1.1" d="M26.074,0C11.191,0,0,11.537,0,27.805C0,47.361,15.922,66.513,41.823,82.896C42.861,83.588,44.419,84.28,45.399,84.28C45.414,84.28,45.431,84.276,45.446,84.276L45.446,75.493C45.434,75.495,45.41,75.512,45.399,75.512C45.226,75.512,44.88,75.281,44.419,74.935C26.132,62.821,8.307,44.534,8.307,27.805C8.307,16.095,15.864,8.307,26.017,8.307C34.554,8.307,39.169,13.672,41.996,17.768C43.38,19.786,44.246,20.363,45.399,20.363C46.611,20.363,47.303,19.729,48.803,17.768C51.86,13.787,56.302,8.307,64.84,8.307C74.993,8.307,82.492,16.095,82.492,27.805C82.492,28.092,82.459,28.381,82.448,28.668L90.769,28.668C90.776,28.38,90.799,28.093,90.799,27.805C90.799,11.537,79.608,0,64.725,0C56.187,0,49.611,3.865,45.399,9.749C41.246,3.923,34.612,0,26.074,0ZM26.074,0"/>
  <path version="1.1" stroke="none" stroke-miterlimit="4" stroke-opacity="1" fill-opacity="1" stroke-linejoin="miter" stroke-width="0.0625px" xmlns:svg="http://www.w3.org/2000/svg" fill-rule="nonzero" fill="#000000" stroke-linecap="butt" stroke-dasharray="none" d="M67.845,84.327C68.219,84.327,68.899,84.191,69.647,83.782C84.921,75.414,90.329,71.605,90.329,61.536L90.329,41.058C90.329,38.269,89.003,37.418,86.894,36.5C84.138,35.309,72.879,31.329,70.124,30.377C69.409,30.139,68.627,29.969,67.845,29.969C67.062,29.969,66.246,30.207,65.565,30.377C62.81,31.057,51.551,35.343,48.795,36.5C46.686,37.384,45.36,38.269,45.36,41.058L45.36,61.536C45.36,71.605,50.768,75.38,66.042,83.782C66.79,84.191,67.47,84.327,67.845,84.327ZM67.845,78.748C67.436,78.748,67.028,78.646,66.11,78.136C53.83,70.788,50.19,68.611,50.19,60.345L50.19,41.976C50.19,41.364,50.326,41.092,50.87,40.854C55.225,39.153,62.572,36.806,66.926,35.071C67.266,34.935,67.572,34.901,67.845,34.901C68.117,34.901,68.423,34.935,68.763,35.071C73.083,36.806,80.328,39.357,84.785,40.854C85.363,41.058,85.465,41.364,85.465,41.976L85.465,60.345C85.465,68.611,81.825,70.788,69.545,78.136C68.661,78.646,68.253,78.748,67.845,78.748ZM67.845,78.748"/>
</g>
  <g id="Heavy-M" transform="matrix(1.0,0.0,0.0,1.0,2592.570540633054,1048.6393212387243)">  <path stroke-dasharray="none" fill="#000000" stroke-width="0.0625px" xmlns:svg="http://www.w3.org/2000/svg" stroke-opacity="1" stroke-miterlimit="4" stroke-linejoin="miter" stroke="none" version="1.1" stroke-linecap="butt" fill-opacity="1" fill-rule="nonzero" d="M26.074,0C11.191,0,0,11.537,0,27.805C0,47.361,15.922,66.513,41.823,82.896C42.861,83.588,44.419,84.28,45.399,84.28C45.414,84.28,45.431,84.276,45.446,84.276L45.446,75.493C45.434,75.495,45.41,75.512,45.399,75.512C45.226,75.512,44.88,75.281,44.419,74.935C26.132,62.821,8.307,44.534,8.307,27.805C8.307,16.095,15.864,8.307,26.017,8.307C34.554,8.307,39.169,13.672,41.996,17.768C43.38,19.786,44.246,20.363,45.399,20.363C46.611,20.363,47.303,19.729,48.803,17.768C51.86,13.787,56.302,8.307,64.84,8.307C74.993,8.307,82.492,16.095,82.492,27.805C82.492,28.092,82.459,28.381,82.448,28.668L90.769,28.668C90.776,28.38,90.799,28.093,90.799,27.805C90.799,11.537,79.608,0,64.725,0C56.187,0,49.611,3.865,45.399,9.749C41.246,3.923,34.612,0,26.074,0ZM26.074,0"/>
  <path stroke-linejoin="miter" version="1.1" fill-rule="nonzero" stroke-width="0.0625px" stroke="none" stroke-miterlimit="4" fill="#000000" fill-opacity="1" stroke-dasharray="none" xmlns:svg="http://www.w3.org/2000/svg" stroke-opacity="1" stroke-linecap="butt" d="M67.845,84.327C68.219,84.327,68.899,84.191,69.647,83.782C84.921,75.414,90.329,71.605,90.329,61.536L90.329,41.058C90.329,38.269,89.003,37.418,86.894,36.5C84.138,35.309,72.879,31.329,70.124,30.377C69.409,30.139,68.627,29.969,67.845,29.969C67.062,29.969,66.246,30.207,65.565,30.377C62.81,31.057,51.551,35.343,48.795,36.5C46.686,37.384,45.36,38.269,45.36,41.058L45.36,61.536C45.36,71.605,50.768,75.38,66.042,83.782C66.79,84.191,67.47,84.327,67.845,84.327ZM67.845,78.748C67.436,78.748,67.028,78.646,66.11,78.136C53.83,70.788,50.19,68.611,50.19,60.345L50.19,41.976C50.19,41.364,50.326,41.092,50.87,40.854C55.225,39.153,62.572,36.806,66.926,35.071C67.266,34.935,67.572,34.901,67.845,34.901C68.117,34.901,68.423,34.935,68.763,35.071C73.083,36.806,80.328,39.357,84.785,40.854C85.363,41.058,85.465,41.364,85.465,41.976L85.465,60.345C85.465,68.611,81.825,70.788,69.545,78.136C68.661,78.646,68.253,78.748,67.845,78.748ZM67.845,78.748"/>
</g>
  <g id="Bold-M" transform="matrix(1.0,0.0,0.0,1.0,2295.860540633054,1048.6393212387243)">  <path stroke-opacity="1" stroke-linejoin="miter" stroke-dasharray="none" stroke="none" fill-rule="nonzero" stroke-miterlimit="4" fill-opacity="1" stroke-linecap="butt" version="1.1" xmlns:svg="http://www.w3.org/2000/svg" stroke-width="0.0625px" fill="#000000" d="M26.074,0C11.191,0,0,11.537,0,27.805C0,47.361,15.922,66.513,41.823,82.896C42.861,83.588,44.419,84.28,45.399,84.28C45.414,84.28,45.431,84.276,45.446,84.276L45.446,75.493C45.434,75.495,45.41,75.512,45.399,75.512C45.226,75.512,44.88,75.281,44.419,74.935C26.132,62.821,8.307,44.534,8.307,27.805C8.307,16.095,15.864,8.307,26.017,8.307C34.554,8.307,39.169,13.672,41.996,17.768C43.38,19.786,44.246,20.363,45.399,20.363C46.611,20.363,47.303,19.729,48.803,17.768C51.86,13.787,56.302,8.307,64.84,8.307C74.993,8.307,82.492,16.095,82.492,27.805C82.492,28.092,82.459,28.381,82.448,28.668L90.769,28.668C90.776,28.38,90.799,28.093,90.799,27.805C90.799,11.537,79.608,0,64.725,0C56.187,0,49.611,3.865,45.399,9.749C41.246,3.923,34.612,0,26.074,0ZM26.074,0"/>
  <path stroke-linejoin="miter" stroke-width="0.0625px" stroke-dasharray="none" version="1.1" stroke="none" stroke-linecap="butt" stroke-miterlimit="4" fill="#000000" fill-opacity="1" xmlns:svg="http://www.w3.org/2000/svg" stroke-opacity="1" fill-rule="nonzero" d="M67.845,84.327C68.219,84.327,68.899,84.191,69.647,83.782C84.921,75.414,90.329,71.605,90.329,61.536L90.329,41.058C90.329,38.269,89.003,37.418,86.894,36.5C84.138,35.309,72.879,31.329,70.124,30.377C69.409,30.139,68.627,29.969,67.845,29.969C67.062,29.969,66.246,30.207,65.565,30.377C62.81,31.057,51.551,35.343,48.795,36.5C46.686,37.384,45.36,38.269,45.36,41.058L45.36,61.536C45.36,71.605,50.768,75.38,66.042,83.782C66.79,84.191,67.47,84.327,67.845,84.327ZM67.845,78.748C67.436,78.748,67.028,78.646,66.11,78.136C53.83,70.788,50.19,68.611,50.19,60.345L50.19,41.976C50.19,41.364,50.326,41.092,50.87,40.854C55.225,39.153,62.572,36.806,66.926,35.071C67.266,34.935,67.572,34.901,67.845,34.901C68.117,34.901,68.423,34.935,68.763,35.071C73.083,36.806,80.328,39.357,84.785,40.854C85.363,41.058,85.465,41.364,85.465,41.976L85.465,60.345C85.465,68.611,81.825,70.788,69.545,78.136C68.661,78.646,68.253,78.748,67.845,78.748ZM67.845,78.748"/>
</g>
  <g id="Semibold-M" transform="matrix(1.0,0.0,0.0,1.0,1999.150540633054,1048.6393212387243)">  <path fill="#000000" stroke-width="0.0625px" stroke-linejoin="miter" fill-opacity="1" stroke-opacity="1" xmlns:svg="http://www.w3.org/2000/svg" fill-rule="nonzero" version="1.1" stroke-miterlimit="4" stroke-dasharray="none" stroke="none" stroke-linecap="butt" d="M26.074,0C11.191,0,0,11.537,0,27.805C0,47.361,15.922,66.513,41.823,82.896C42.861,83.588,44.419,84.28,45.399,84.28C45.414,84.28,45.431,84.276,45.446,84.276L45.446,75.493C45.434,75.495,45.41,75.512,45.399,75.512C45.226,75.512,44.88,75.281,44.419,74.935C26.132,62.821,8.307,44.534,8.307,27.805C8.307,16.095,15.864,8.307,26.017,8.307C34.554,8.307,39.169,13.672,41.996,17.768C43.38,19.786,44.246,20.363,45.399,20.363C46.611,20.363,47.303,19.729,48.803,17.768C51.86,13.787,56.302,8.307,64.84,8.307C74.993,8.307,82.492,16.095,82.492,27.805C82.492,28.092,82.459,28.381,82.448,28.668L90.769,28.668C90.776,28.38,90.799,28.093,90.799,27.805C90.799,11.537,79.608,0,64.725,0C56.187,0,49.611,3.865,45.399,9.749C41.246,3.923,34.612,0,26.074,0ZM26.074,0"/>
  <path fill-opacity="1" stroke-dasharray="none" version="1.1" stroke-miterlimit="4" fill="#000000" stroke-width="0.0625px" fill-rule="nonzero" stroke-linejoin="miter" stroke-linecap="butt" stroke-opacity="1" xmlns:svg="http://www.w3.org/2000/svg" stroke="none" d="M67.845,84.327C68.219,84.327,68.899,84.191,69.647,83.782C84.921,75.414,90.329,71.605,90.329,61.536L90.329,41.058C90.329,38.269,89.003,37.418,86.894,36.5C84.138,35.309,72.879,31.329,70.124,30.377C69.409,30.139,68.627,29.969,67.845,29.969C67.062,29.969,66.246,30.207,65.565,30.377C62.81,31.057,51.551,35.343,48.795,36.5C46.686,37.384,45.36,38.269,45.36,41.058L45.36,61.536C45.36,71.605,50.768,75.38,66.042,83.782C66.79,84.191,67.47,84.327,67.845,84.327ZM67.845,78.748C67.436,78.748,67.028,78.646,66.11,78.136C53.83,70.788,50.19,68.611,50.19,60.345L50.19,41.976C50.19,41.364,50.326,41.092,50.87,40.854C55.225,39.153,62.572,36.806,66.926,35.071C67.266,34.935,67.572,34.901,67.845,34.901C68.117,34.901,68.423,34.935,68.763,35.071C73.083,36.806,80.328,39.357,84.785,40.854C85.363,41.058,85.465,41.364,85.465,41.976L85.465,60.345C85.465,68.611,81.825,70.788,69.545,78.136C68.661,78.646,68.253,78.748,67.845,78.748ZM67.845,78.748"/>
</g>
  <g id="Medium-M" transform="matrix(1.0,0.0,0.0,1.0,1702.440540633054,1048.6393212387243)">  <path stroke-linejoin="miter" xmlns:svg="http://www.w3.org/2000/svg" stroke-linecap="butt" stroke-opacity="1" stroke-miterlimit="4" fill="#000000" stroke-dasharray="none" fill-opacity="1" version="1.1" stroke="none" fill-rule="nonzero" stroke-width="0.0625px" d="M26.074,0C11.191,0,0,11.537,0,27.805C0,47.361,15.922,66.513,41.823,82.896C42.861,83.588,44.419,84.28,45.399,84.28C45.414,84.28,45.431,84.276,45.446,84.276L45.446,75.493C45.434,75.495,45.41,75.512,45.399,75.512C45.226,75.512,44.88,75.281,44.419,74.935C26.132,62.821,8.307,44.534,8.307,27.805C8.307,16.095,15.864,8.307,26.017,8.307C34.554,8.307,39.169,13.672,41.996,17.768C43.38,19.786,44.246,20.363,45.399,20.363C46.611,20.363,47.303,19.729,48.803,17.768C51.86,13.787,56.302,8.307,64.84,8.307C74.993,8.307,82.492,16.095,82.492,27.805C82.492,28.092,82.459,28.381,82.448,28.668L90.769,28.668C90.776,28.38,90.799,28.093,90.799,27.805C90.799,11.537,79.608,0,64.725,0C56.187,0,49.611,3.865,45.399,9.749C41.246,3.923,34.612,0,26.074,0ZM26.074,0"/>
  <path stroke-linejoin="miter" stroke-opacity="1" version="1.1" stroke-miterlimit="4" stroke-linecap="butt" fill-opacity="1" fill="#000000" xmlns:svg="http://www.w3.org/2000/svg" stroke-dasharray="none" fill-rule="nonzero" stroke="none" stroke-width="0.0625px" d="M67.845,84.327C68.219,84.327,68.899,84.191,69.647,83.782C84.921,75.414,90.329,71.605,90.329,61.536L90.329,41.058C90.329,38.269,89.003,37.418,86.894,36.5C84.138,35.309,72.879,31.329,70.124,30.377C69.409,30.139,68.627,29.969,67.845,29.969C67.062,29.969,66.246,30.207,65.565,30.377C62.81,31.057,51.551,35.343,48.795,36.5C46.686,37.384,45.36,38.269,45.36,41.058L45.36,61.536C45.36,71.605,50.768,75.38,66.042,83.782C66.79,84.191,67.47,84.327,67.845,84.327ZM67.845,78.748C67.436,78.748,67.028,78.646,66.11,78.136C53.83,70.788,50.19,68.611,50.19,60.345L50.19,41.976C50.19,41.364,50.326,41.092,50.87,40.854C55.225,39.153,62.572,36.806,66.926,35.071C67.266,34.935,67.572,34.901,67.845,34.901C68.117,34.901,68.423,34.935,68.763,35.071C73.083,36.806,80.328,39.357,84.785,40.854C85.363,41.058,85.465,41.364,85.465,41.976L85.465,60.345C85.465,68.611,81.825,70.788,69.545,78.136C68.661,78.646,68.253,78.748,67.845,78.748ZM67.845,78.748"/>
</g>
  <g id="Regular-M" transform="matrix(1.0,0.0,0.0,1.0,1405.730540633054,1048.6393212387243)">  <path stroke-opacity="1" stroke-dasharray="none" stroke-linecap="butt" stroke-width="0.0625px" fill-rule="nonzero" xmlns:svg="http://www.w3.org/2000/svg" stroke-miterlimit="4" fill="#000000" version="1.1" stroke="none" fill-opacity="1" stroke-linejoin="miter" d="M26.074,0C11.191,0,0,11.537,0,27.805C0,47.361,15.922,66.513,41.823,82.896C42.861,83.588,44.419,84.28,45.399,84.28C45.414,84.28,45.431,84.276,45.446,84.276L45.446,75.493C45.434,75.495,45.41,75.512,45.399,75.512C45.226,75.512,44.88,75.281,44.419,74.935C26.132,62.821,8.307,44.534,8.307,27.805C8.307,16.095,15.864,8.307,26.017,8.307C34.554,8.307,39.169,13.672,41.996,17.768C43.38,19.786,44.246,20.363,45.399,20.363C46.611,20.363,47.303,19.729,48.803,17.768C51.86,13.787,56.302,8.307,64.84,8.307C74.993,8.307,82.492,16.095,82.492,27.805C82.492,28.092,82.459,28.381,82.448,28.668L90.769,28.668C90.776,28.38,90.799,28.093,90.799,27.805C90.799,11.537,79.608,0,64.725,0C56.187,0,49.611,3.865,45.399,9.749C41.246,3.923,34.612,0,26.074,0ZM26.074,0"/>
  <path fill="#000000" version="1.1" stroke-miterlimit="4" stroke-dasharray="none" stroke-linejoin="miter" stroke-width="0.0625px" fill-rule="nonzero" xmlns:svg="http://www.w3.org/2000/svg" stroke-opacity="1" fill-opacity="1" stroke-linecap="butt" stroke="none" d="M67.845,84.327C68.219,84.327,68.899,84.191,69.647,83.782C84.921,75.414,90.329,71.605,90.329,61.536L90.329,41.058C90.329,38.269,89.003,37.418,86.894,36.5C84.138,35.309,72.879,31.329,70.124,30.377C69.409,30.139,68.627,29.969,67.845,29.969C67.062,29.969,66.246,30.207,65.565,30.377C62.81,31.057,51.551,35.343,48.795,36.5C46.686,37.384,45.36,38.269,45.36,41.058L45.36,61.536C45.36,71.605,50.768,75.38,66.042,83.782C66.79,84.191,67.47,84.327,67.845,84.327ZM67.845,78.748C67.436,78.748,67.028,78.646,66.11,78.136C53.83,70.788,50.19,68.611,50.19,60.345L50.19,41.976C50.19,41.364,50.326,41.092,50.87,40.854C55.225,39.153,62.572,36.806,66.926,35.071C67.266,34.935,67.572,34.901,67.845,34.901C68.117,34.901,68.423,34.935,68.763,35.071C73.083,36.806,80.328,39.357,84.785,40.854C85.363,41.058,85.465,41.364,85.465,41.976L85.465,60.345C85.465,68.611,81.825,70.788,69.545,78.136C68.661,78.646,68.253,78.748,67.845,78.748ZM67.845,78.748"/>
</g>
  <g id="Light-M" transform="matrix(1.0,0.0,0.0,1.0,1109.0205406330542,1048.6393212387243)">  <path xmlns:svg="http://www.w3.org/2000/svg" fill="#000000" fill-opacity="1" stroke-miterlimit="4" stroke="none" stroke-opacity="1" version="1.1" stroke-width="0.0625px" stroke-linecap="butt" fill-rule="nonzero" stroke-dasharray="none" stroke-linejoin="miter" d="M26.074,0C11.191,0,0,11.537,0,27.805C0,47.361,15.922,66.513,41.823,82.896C42.861,83.588,44.419,84.28,45.399,84.28C45.414,84.28,45.431,84.276,45.446,84.276L45.446,75.493C45.434,75.495,45.41,75.512,45.399,75.512C45.226,75.512,44.88,75.281,44.419,74.935C26.132,62.821,8.307,44.534,8.307,27.805C8.307,16.095,15.864,8.307,26.017,8.307C34.554,8.307,39.169,13.672,41.996,17.768C43.38,19.786,44.246,20.363,45.399,20.363C46.611,20.363,47.303,19.729,48.803,17.768C51.86,13.787,56.302,8.307,64.84,8.307C74.993,8.307,82.492,16.095,82.492,27.805C82.492,28.092,82.459,28.381,82.448,28.668L90.769,28.668C90.776,28.38,90.799,28.093,90.799,27.805C90.799,11.537,79.608,0,64.725,0C56.187,0,49.611,3.865,45.399,9.749C41.246,3.923,34.612,0,26.074,0ZM26.074,0"/>
  <path stroke-opacity="1" fill-opacity="1" fill="#000000" stroke="none" stroke-linecap="butt" stroke-dasharray="none" stroke-width="0.0625px" stroke-linejoin="miter" fill-rule="nonzero" stroke-miterlimit="4" version="1.1" xmlns:svg="http://www.w3.org/2000/svg" d="M67.845,84.327C68.219,84.327,68.899,84.191,69.647,83.782C84.921,75.414,90.329,71.605,90.329,61.536L90.329,41.058C90.329,38.269,89.003,37.418,86.894,36.5C84.138,35.309,72.879,31.329,70.124,30.377C69.409,30.139,68.627,29.969,67.845,29.969C67.062,29.969,66.246,30.207,65.565,30.377C62.81,31.057,51.551,35.343,48.795,36.5C46.686,37.384,45.36,38.269,45.36,41.058L45.36,61.536C45.36,71.605,50.768,75.38,66.042,83.782C66.79,84.191,67.47,84.327,67.845,84.327ZM67.845,78.748C67.436,78.748,67.028,78.646,66.11,78.136C53.83,70.788,50.19,68.611,50.19,60.345L50.19,41.976C50.19,41.364,50.326,41.092,50.87,40.854C55.225,39.153,62.572,36.806,66.926,35.071C67.266,34.935,67.572,34.901,67.845,34.901C68.117,34.901,68.423,34.935,68.763,35.071C73.083,36.806,80.328,39.357,84.785,40.854C85.363,41.058,85.465,41.364,85.465,41.976L85.465,60.345C85.465,68.611,81.825,70.788,69.545,78.136C68.661,78.646,68.253,78.748,67.845,78.748ZM67.845,78.748"/>
</g>
  <g id="Thin-M" transform="matrix(1.0,0.0,0.0,1.0,812.3105406330542,1048.6393212387243)">  <path fill="#000000" stroke-opacity="1" version="1.1" stroke="none" fill-opacity="1" stroke-dasharray="none" stroke-miterlimit="4" stroke-width="0.0625px" stroke-linejoin="miter" xmlns:svg="http://www.w3.org/2000/svg" stroke-linecap="butt" fill-rule="nonzero" d="M26.074,0C11.191,0,0,11.537,0,27.805C0,47.361,15.922,66.513,41.823,82.896C42.861,83.588,44.419,84.28,45.399,84.28C45.414,84.28,45.431,84.276,45.446,84.276L45.446,75.493C45.434,75.495,45.41,75.512,45.399,75.512C45.226,75.512,44.88,75.281,44.419,74.935C26.132,62.821,8.307,44.534,8.307,27.805C8.307,16.095,15.864,8.307,26.017,8.307C34.554,8.307,39.169,13.672,41.996,17.768C43.38,19.786,44.246,20.363,45.399,20.363C46.611,20.363,47.303,19.729,48.803,17.768C51.86,13.787,56.302,8.307,64.84,8.307C74.993,8.307,82.492,16.095,82.492,27.805C82.492,28.092,82.459,28.381,82.448,28.668L90.769,28.668C90.776,28.38,90.799,28.093,90.799,27.805C90.799,11.537,79.608,0,64.725,0C56.187,0,49.611,3.865,45.399,9.749C41.246,3.923,34.612,0,26.074,0ZM26.074,0"/>
  <path stroke-linejoin="miter" stroke-miterlimit="4" fill-opacity="1" xmlns:svg="http://www.w3.org/2000/svg" stroke-opacity="1" stroke-dasharray="none" fill="#000000" fill-rule="nonzero" stroke-linecap="butt" version="1.1" stroke-width="0.0625px" stroke="none" d="M67.845,84.327C68.219,84.327,68.899,84.191,69.647,83.782C84.921,75.414,90.329,71.605,90.329,61.536L90.329,41.058C90.329,38.269,89.003,37.418,86.894,36.5C84.138,35.309,72.879,31.329,70.124,30.377C69.409,30.139,68.627,29.969,67.845,29.969C67.062,29.969,66.246,30.207,65.565,30.377C62.81,31.057,51.551,35.343,48.795,36.5C46.686,37.384,45.36,38.269,45.36,41.058L45.36,61.536C45.36,71.605,50.768,75.38,66.042,83.782C66.79,84.191,67.47,84.327,67.845,84.327ZM67.845,78.748C67.436,78.748,67.028,78.646,66.11,78.136C53.83,70.788,50.19,68.611,50.19,60.345L50.19,41.976C50.19,41.364,50.326,41.092,50.87,40.854C55.225,39.153,62.572,36.806,66.926,35.071C67.266,34.935,67.572,34.901,67.845,34.901C68.117,34.901,68.423,34.935,68.763,35.071C73.083,36.806,80.328,39.357,84.785,40.854C85.363,41.058,85.465,41.364,85.465,41.976L85.465,60.345C85.465,68.611,81.825,70.788,69.545,78.136C68.661,78.646,68.253,78.748,67.845,78.748ZM67.845,78.748"/>
</g>
  <g id="Ultralight-M" transform="matrix(1.0,0.0,0.0,1.0,515.6005406330542,1048.6393212387243)">  <path stroke-linecap="butt" fill-opacity="1" stroke-opacity="1" stroke-width="0.0625px" fill="#000000" version="1.1" xmlns:svg="http://www.w3.org/2000/svg" stroke-miterlimit="4" stroke="none" stroke-linejoin="miter" stroke-dasharray="none" fill-rule="nonzero" d="M26.074,0C11.191,0,0,11.537,0,27.805C0,47.361,15.922,66.513,41.823,82.896C42.861,83.588,44.419,84.28,45.399,84.28C45.414,84.28,45.431,84.276,45.446,84.276L45.446,75.493C45.434,75.495,45.41,75.512,45.399,75.512C45.226,75.512,44.88,75.281,44.419,74.935C26.132,62.821,8.307,44.534,8.307,27.805C8.307,16.095,15.864,8.307,26.017,8.307C34.554,8.307,39.169,13.672,41.996,17.768C43.38,19.786,44.246,20.363,45.399,20.363C46.611,20.363,47.303,19.729,48.803,17.768C51.86,13.787,56.302,8.307,64.84,8.307C74.993,8.307,82.492,16.095,82.492,27.805C82.492,28.092,82.459,28.381,82.448,28.668L90.769,28.668C90.776,28.38,90.799,28.093,90.799,27.805C90.799,11.537,79.608,0,64.725,0C56.187,0,49.611,3.865,45.399,9.749C41.246,3.923,34.612,0,26.074,0ZM26.074,0"/>
  <path stroke-opacity="1" fill="#000000" fill-opacity="1" version="1.1" stroke-width="0.0625px" xmlns:svg="http://www.w3.org/2000/svg" stroke-linejoin="miter" stroke-dasharray="none" stroke="none" fill-rule="nonzero" stroke-miterlimit="4" stroke-linecap="butt" d="M67.845,84.327C68.219,84.327,68.899,84.191,69.647,83.782C84.921,75.414,90.329,71.605,90.329,61.536L90.329,41.058C90.329,38.269,89.003,37.418,86.894,36.5C84.138,35.309,72.879,31.329,70.124,30.377C69.409,30.139,68.627,29.969,67.845,29.969C67.062,29.969,66.246,30.207,65.565,30.377C62.81,31.057,51.551,35.343,48.795,36.5C46.686,37.384,45.36,38.269,45.36,41.058L45.36,61.536C45.36,71.605,50.768,75.38,66.042,83.782C66.79,84.191,67.47,84.327,67.845,84.327ZM67.845,78.748C67.436,78.748,67.028,78.646,66.11,78.136C53.83,70.788,50.19,68.611,50.19,60.345L50.19,41.976C50.19,41.364,50.326,41.092,50.87,40.854C55.225,39.153,62.572,36.806,66.926,35.071C67.266,34.935,67.572,34.901,67.845,34.901C68.117,34.901,68.423,34.935,68.763,35.071C73.083,36.806,80.328,39.357,84.785,40.854C85.363,41.058,85.465,41.364,85.465,41.976L85.465,60.345C85.465,68.611,81.825,70.788,69.545,78.136C68.661,78.646,68.253,78.748,67.845,78.748ZM67.845,78.748"/>
</g>
  <g id="Black-S" transform="matrix(1.0,0.0,0.0,1.0,2899.132223315681,627.7816827682024)">  <path fill-rule="nonzero" stroke-dasharray="none" stroke-width="0.0625px" stroke-linecap="butt" xmlns:svg="http://www.w3.org/2000/svg" stroke-opacity="1" stroke-linejoin="miter" fill="#000000" fill-opacity="1" stroke="none" stroke-miterlimit="4" version="1.1" d="M20.416,0C8.763,0,0,9.034,0,21.771C0,37.084,12.467,52.08,32.747,64.907C33.56,65.449,34.78,65.991,35.548,65.991C35.559,65.991,35.572,65.988,35.584,65.988L35.584,59.111C35.575,59.113,35.556,59.126,35.548,59.126C35.412,59.126,35.141,58.945,34.78,58.674C20.461,49.189,6.504,34.87,6.504,21.771C6.504,12.602,12.421,6.504,20.371,6.504C27.056,6.504,30.67,10.705,32.883,13.912C33.967,15.493,34.644,15.945,35.548,15.945C36.496,15.945,37.038,15.448,38.213,13.912C40.607,10.795,44.085,6.504,50.77,6.504C58.719,6.504,64.591,12.602,64.591,21.771C64.591,21.996,64.565,22.222,64.557,22.447L71.072,22.447C71.078,22.222,71.096,21.997,71.096,21.771C71.096,9.034,62.333,0,50.679,0C43.994,0,38.845,3.026,35.548,7.634C32.296,3.072,27.101,0,20.416,0ZM20.416,0"/>
  <path version="1.1" stroke="none" stroke-miterlimit="4" stroke-opacity="1" fill-opacity="1" stroke-linejoin="miter" stroke-width="0.0625px" xmlns:svg="http://www.w3.org/2000/svg" fill-rule="nonzero" fill="#000000" stroke-linecap="butt" stroke-dasharray="none" d="M53.122,66.028C53.415,66.028,53.948,65.921,54.534,65.602C66.493,59.05,70.728,56.066,70.728,48.183L70.728,32.148C70.728,29.964,69.689,29.299,68.038,28.579C65.88,27.647,57.064,24.531,54.907,23.785C54.347,23.599,53.735,23.466,53.122,23.466C52.51,23.466,51.87,23.652,51.338,23.785C49.18,24.318,40.364,27.674,38.207,28.579C36.555,29.272,35.517,29.964,35.517,32.148L35.517,48.183C35.517,56.066,39.752,59.023,51.711,65.602C52.297,65.921,52.829,66.028,53.122,66.028ZM53.122,61.66C52.803,61.66,52.483,61.58,51.764,61.18C42.149,55.427,39.299,53.723,39.299,47.25L39.299,32.868C39.299,32.388,39.405,32.175,39.832,31.989C43.241,30.657,48.994,28.819,52.403,27.461C52.669,27.354,52.909,27.328,53.122,27.328C53.335,27.328,53.575,27.354,53.841,27.461C57.224,28.819,62.897,30.817,66.386,31.989C66.839,32.148,66.919,32.388,66.919,32.868L66.919,47.25C66.919,53.723,64.069,55.427,54.454,61.18C53.762,61.58,53.442,61.66,53.122,61.66ZM53.122,61.66"/>
</g>
  <g id="Heavy-S" transform="matrix(1.0,0.0,0.0,1.0,2602.422223315681,627.7816827682024)">  <path stroke-dasharray="none" fill="#000000" stroke-width="0.0625px" xmlns:svg="http://www.w3.org/2000/svg" stroke-opacity="1" stroke-miterlimit="4" stroke-linejoin="miter" stroke="none" version="1.1" stroke-linecap="butt" fill-opacity="1" fill-rule="nonzero" d="M20.416,0C8.763,0,0,9.034,0,21.771C0,37.084,12.467,52.08,32.747,64.907C33.56,65.449,34.78,65.991,35.548,65.991C35.559,65.991,35.572,65.988,35.584,65.988L35.584,59.111C35.575,59.113,35.556,59.126,35.548,59.126C35.412,59.126,35.141,58.945,34.78,58.674C20.461,49.189,6.504,34.87,6.504,21.771C6.504,12.602,12.421,6.504,20.371,6.504C27.056,6.504,30.67,10.705,32.883,13.912C33.967,15.493,34.644,15.945,35.548,15.945C36.496,15.945,37.038,15.448,38.213,13.912C40.607,10.795,44.085,6.504,50.77,6.504C58.719,6.504,64.591,12.602,64.591,21.771C64.591,21.996,64.565,22.222,64.557,22.447L71.072,22.447C71.078,22.222,71.096,21.997,71.096,21.771C71.096,9.034,62.333,0,50.679,0C43.994,0,38.845,3.026,35.548,7.634C32.296,3.072,27.101,0,20.416,0ZM20.416,0"/>
  <path stroke-linejoin="miter" version="1.1" fill-rule="nonzero" stroke-width="0.0625px" stroke="none" stroke-miterlimit="4" fill="#000000" fill-opacity="1" stroke-dasharray="none" xmlns:svg="http://www.w3.org/2000/svg" stroke-opacity="1" stroke-linecap="butt" d="M53.122,66.028C53.415,66.028,53.948,65.921,54.534,65.602C66.493,59.05,70.728,56.066,70.728,48.183L70.728,32.148C70.728,29.964,69.689,29.299,68.038,28.579C65.88,27.647,57.064,24.531,54.907,23.785C54.347,23.599,53.735,23.466,53.122,23.466C52.51,23.466,51.87,23.652,51.338,23.785C49.18,24.318,40.364,27.674,38.207,28.579C36.555,29.272,35.517,29.964,35.517,32.148L35.517,48.183C35.517,56.066,39.752,59.023,51.711,65.602C52.297,65.921,52.829,66.028,53.122,66.028ZM53.122,61.66C52.803,61.66,52.483,61.58,51.764,61.18C42.149,55.427,39.299,53.723,39.299,47.25L39.299,32.868C39.299,32.388,39.405,32.175,39.832,31.989C43.241,30.657,48.994,28.819,52.403,27.461C52.669,27.354,52.909,27.328,53.122,27.328C53.335,27.328,53.575,27.354,53.841,27.461C57.224,28.819,62.897,30.817,66.386,31.989C66.839,32.148,66.919,32.388,66.919,32.868L66.919,47.25C66.919,53.723,64.069,55.427,54.454,61.18C53.762,61.58,53.442,61.66,53.122,61.66ZM53.122,61.66"/>
</g>
  <g id="Bold-S" transform="matrix(1.0,0.0,0.0,1.0,2305.712223315681,627.7816827682024)">  <path stroke-opacity="1" stroke-linejoin="miter" stroke-dasharray="none" stroke="none" fill-rule="nonzero" stroke-miterlimit="4" fill-opacity="1" stroke-linecap="butt" version="1.1" xmlns:svg="http://www.w3.org/2000/svg" stroke-width="0.0625px" fill="#000000" d="M20.416,0C8.763,0,0,9.034,0,21.771C0,37.084,12.467,52.08,32.747,64.907C33.56,65.449,34.78,65.991,35.548,65.991C35.559,65.991,35.572,65.988,35.584,65.988L35.584,59.111C35.575,59.113,35.556,59.126,35.548,59.126C35.412,59.126,35.141,58.945,34.78,58.674C20.461,49.189,6.504,34.87,6.504,21.771C6.504,12.602,12.421,6.504,20.371,6.504C27.056,6.504,30.67,10.705,32.883,13.912C33.967,15.493,34.644,15.945,35.548,15.945C36.496,15.945,37.038,15.448,38.213,13.912C40.607,10.795,44.085,6.504,50.77,6.504C58.719,6.504,64.591,12.602,64.591,21.771C64.591,21.996,64.565,22.222,64.557,22.447L71.072,22.447C71.078,22.222,71.096,21.997,71.096,21.771C71.096,9.034,62.333,0,50.679,0C43.994,0,38.845,3.026,35.548,7.634C32.296,3.072,27.101,0,20.416,0ZM20.416,0"/>
  <path stroke-linejoin="miter" stroke-width="0.0625px" stroke-dasharray="none" version="1.1" stroke="none" stroke-linecap="butt" stroke-miterlimit="4" fill="#000000" fill-opacity="1" xmlns:svg="http://www.w3.org/2000/svg" stroke-opacity="1" fill-rule="nonzero" d="M53.122,66.028C53.415,66.028,53.948,65.921,54.534,65.602C66.493,59.05,70.728,56.066,70.728,48.183L70.728,32.148C70.728,29.964,69.689,29.299,68.038,28.579C65.88,27.647,57.064,24.531,54.907,23.785C54.347,23.599,53.735,23.466,53.122,23.466C52.51,23.466,51.87,23.652,51.338,23.785C49.18,24.318,40.364,27.674,38.207,28.579C36.555,29.272,35.517,29.964,35.517,32.148L35.517,48.183C35.517,56.066,39.752,59.023,51.711,65.602C52.297,65.921,52.829,66.028,53.122,66.028ZM53.122,61.66C52.803,61.66,52.483,61.58,51.764,61.18C42.149,55.427,39.299,53.723,39.299,47.25L39.299,32.868C39.299,32.388,39.405,32.175,39.832,31.989C43.241,30.657,48.994,28.819,52.403,27.461C52.669,27.354,52.909,27.328,53.122,27.328C53.335,27.328,53.575,27.354,53.841,27.461C57.224,28.819,62.897,30.817,66.386,31.989C66.839,32.148,66.919,32.388,66.919,32.868L66.919,47.25C66.919,53.723,64.069,55.427,54.454,61.18C53.762,61.58,53.442,61.66,53.122,61.66ZM53.122,61.66"/>
</g>
  <g id="Semibold-S" transform="matrix(1.0,0.0,0.0,1.0,2009.0022233156812,627.7816827682024)">  <path fill="#000000" stroke-width="0.0625px" stroke-linejoin="miter" fill-opacity="1" stroke-opacity="1" xmlns:svg="http://www.w3.org/2000/svg" fill-rule="nonzero" version="1.1" stroke-miterlimit="4" stroke-dasharray="none" stroke="none" stroke-linecap="butt" d="M20.416,0C8.763,0,0,9.034,0,21.771C0,37.084,12.467,52.08,32.747,64.907C33.56,65.449,34.78,65.991,35.548,65.991C35.559,65.991,35.572,65.988,35.584,65.988L35.584,59.111C35.575,59.113,35.556,59.126,35.548,59.126C35.412,59.126,35.141,58.945,34.78,58.674C20.461,49.189,6.504,34.87,6.504,21.771C6.504,12.602,12.421,6.504,20.371,6.504C27.056,6.504,30.67,10.705,32.883,13.912C33.967,15.493,34.644,15.945,35.548,15.945C36.496,15.945,37.038,15.448,38.213,13.912C40.607,10.795,44.085,6.504,50.77,6.504C58.719,6.504,64.591,12.602,64.591,21.771C64.591,21.996,64.565,22.222,64.557,22.447L71.072,22.447C71.078,22.222,71.096,21.997,71.096,21.771C71.096,9.034,62.333,0,50.679,0C43.994,0,38.845,3.026,35.548,7.634C32.296,3.072,27.101,0,20.416,0ZM20.416,0"/>
  <path fill-opacity="1" stroke-dasharray="none" version="1.1" stroke-miterlimit="4" fill="#000000" stroke-width="0.0625px" fill-rule="nonzero" stroke-linejoin="miter" stroke-linecap="butt" stroke-opacity="1" xmlns:svg="http://www.w3.org/2000/svg" stroke="none" d="M53.122,66.028C53.415,66.028,53.948,65.921,54.534,65.602C66.493,59.05,70.728,56.066,70.728,48.183L70.728,32.148C70.728,29.964,69.689,29.299,68.038,28.579C65.88,27.647,57.064,24.531,54.907,23.785C54.347,23.599,53.735,23.466,53.122,23.466C52.51,23.466,51.87,23.652,51.338,23.785C49.18,24.318,40.364,27.674,38.207,28.579C36.555,29.272,35.517,29.964,35.517,32.148L35.517,48.183C35.517,56.066,39.752,59.023,51.711,65.602C52.297,65.921,52.829,66.028,53.122,66.028ZM53.122,61.66C52.803,61.66,52.483,61.58,51.764,61.18C42.149,55.427,39.299,53.723,39.299,47.25L39.299,32.868C39.299,32.388,39.405,32.175,39.832,31.989C43.241,30.657,48.994,28.819,52.403,27.461C52.669,27.354,52.909,27.328,53.122,27.328C53.335,27.328,53.575,27.354,53.841,27.461C57.224,28.819,62.897,30.817,66.386,31.989C66.839,32.148,66.919,32.388,66.919,32.868L66.919,47.25C66.919,53.723,64.069,55.427,54.454,61.18C53.762,61.58,53.442,61.66,53.122,61.66ZM53.122,61.66"/>
</g>
  <g id="Medium-S" transform="matrix(1.0,0.0,0.0,1.0,1712.2922233156812,627.7816827682024)">  <path stroke-linejoin="miter" xmlns:svg="http://www.w3.org/2000/svg" stroke-linecap="butt" stroke-opacity="1" stroke-miterlimit="4" fill="#000000" stroke-dasharray="none" fill-opacity="1" version="1.1" stroke="none" fill-rule="nonzero" stroke-width="0.0625px" d="M20.416,0C8.763,0,0,9.034,0,21.771C0,37.084,12.467,52.08,32.747,64.907C33.56,65.449,34.78,65.991,35.548,65.991C35.559,65.991,35.572,65.988,35.584,65.988L35.584,59.111C35.575,59.113,35.556,59.126,35.548,59.126C35.412,59.126,35.141,58.945,34.78,58.674C20.461,49.189,6.504,34.87,6.504,21.771C6.504,12.602,12.421,6.504,20.371,6.504C27.056,6.504,30.67,10.705,32.883,13.912C33.967,15.493,34.644,15.945,35.548,15.945C36.496,15.945,37.038,15.448,38.213,13.912C40.607,10.795,44.085,6.504,50.77,6.504C58.719,6.504,64.591,12.602,64.591,21.771C64.591,21.996,64.565,22.222,64.557,22.447L71.072,22.447C71.078,22.222,71.096,21.997,71.096,21.771C71.096,9.034,62.333,0,50.679,0C43.994,0,38.845,3.026,35.548,7.634C32.296,3.072,27.101,0,20.416,0ZM20.416,0"/>
  <path stroke-linejoin="miter" stroke-opacity="1" version="1.1" stroke-miterlimit="4" stroke-linecap="butt" fill-opacity="1" fill="#000000" xmlns:svg="http://www.w3.org/2000/svg" stroke-dasharray="none" fill-rule="nonzero" stroke="none" stroke-width="0.0625px" d="M53.122,66.028C53.415,66.028,53.948,65.921,54.534,65.602C66.493,59.05,70.728,56.066,70.728,48.183L70.728,32.148C70.728,29.964,69.689,29.299,68.038,28.579C65.88,27.647,57.064,24.531,54.907,23.785C54.347,23.599,53.735,23.466,53.122,23.466C52.51,23.466,51.87,23.652,51.338,23.785C49.18,24.318,40.364,27.674,38.207,28.579C36.555,29.272,35.517,29.964,35.517,32.148L35.517,48.183C35.517,56.066,39.752,59.023,51.711,65.602C52.297,65.921,52.829,66.028,53.122,66.028ZM53.122,61.66C52.803,61.66,52.483,61.58,51.764,61.18C42.149,55.427,39.299,53.723,39.299,47.25L39.299,32.868C39.299,32.388,39.405,32.175,39.832,31.989C43.241,30.657,48.994,28.819,52.403,27.461C52.669,27.354,52.909,27.328,53.122,27.328C53.335,27.328,53.575,27.354,53.841,27.461C57.224,28.819,62.897,30.817,66.386,31.989C66.839,32.148,66.919,32.388,66.919,32.868L66.919,47.25C66.919,53.723,64.069,55.427,54.454,61.18C53.762,61.58,53.442,61.66,53.122,61.66ZM53.122,61.66"/>
</g>
  <g id="Regular-S" transform="matrix(1.0,0.0,0.0,1.0,1415.5822233156812,627.7816827682024)">  <path stroke-opacity="1" stroke-dasharray="none" stroke-linecap="butt" stroke-width="0.0625px" fill-rule="nonzero" xmlns:svg="http://www.w3.org/2000/svg" stroke-miterlimit="4" fill="#000000" version="1.1" stroke="none" fill-opacity="1" stroke-linejoin="miter" d="M20.416,0C8.763,0,0,9.034,0,21.771C0,37.084,12.467,52.08,32.747,64.907C33.56,65.449,34.78,65.991,35.548,65.991C35.559,65.991,35.572,65.988,35.584,65.988L35.584,59.111C35.575,59.113,35.556,59.126,35.548,59.126C35.412,59.126,35.141,58.945,34.78,58.674C20.461,49.189,6.504,34.87,6.504,21.771C6.504,12.602,12.421,6.504,20.371,6.504C27.056,6.504,30.67,10.705,32.883,13.912C33.967,15.493,34.644,15.945,35.548,15.945C36.496,15.945,37.038,15.448,38.213,13.912C40.607,10.795,44.085,6.504,50.77,6.504C58.719,6.504,64.591,12.602,64.591,21.771C64.591,21.996,64.565,22.222,64.557,22.447L71.072,22.447C71.078,22.222,71.096,21.997,71.096,21.771C71.096,9.034,62.333,0,50.679,0C43.994,0,38.845,3.026,35.548,7.634C32.296,3.072,27.101,0,20.416,0ZM20.416,0"/>
  <path fill="#000000" version="1.1" stroke-miterlimit="4" stroke-dasharray="none" stroke-linejoin="miter" stroke-width="0.0625px" fill-rule="nonzero" xmlns:svg="http://www.w3.org/2000/svg" stroke-opacity="1" fill-opacity="1" stroke-linecap="butt" stroke="none" d="M53.122,66.028C53.415,66.028,53.948,65.921,54.534,65.602C66.493,59.05,70.728,56.066,70.728,48.183L70.728,32.148C70.728,29.964,69.689,29.299,68.038,28.579C65.88,27.647,57.064,24.531,54.907,23.785C54.347,23.599,53.735,23.466,53.122,23.466C52.51,23.466,51.87,23.652,51.338,23.785C49.18,24.318,40.364,27.674,38.207,28.579C36.555,29.272,35.517,29.964,35.517,32.148L35.517,48.183C35.517,56.066,39.752,59.023,51.711,65.602C52.297,65.921,52.829,66.028,53.122,66.028ZM53.122,61.66C52.803,61.66,52.483,61.58,51.764,61.18C42.149,55.427,39.299,53.723,39.299,47.25L39.299,32.868C39.299,32.388,39.405,32.175,39.832,31.989C43.241,30.657,48.994,28.819,52.403,27.461C52.669,27.354,52.909,27.328,53.122,27.328C53.335,27.328,53.575,27.354,53.841,27.461C57.224,28.819,62.897,30.817,66.386,31.989C66.839,32.148,66.919,32.388,66.919,32.868L66.919,47.25C66.919,53.723,64.069,55.427,54.454,61.18C53.762,61.58,53.442,61.66,53.122,61.66ZM53.122,61.66"/>
</g>
  <g id="Light-S" transform="matrix(1.0,0.0,0.0,1.0,1118.8722233156814,627.7816827682024)">  <path xmlns:svg="http://www.w3.org/2000/svg" fill="#000000" fill-opacity="1" stroke-miterlimit="4" stroke="none" stroke-opacity="1" version="1.1" stroke-width="0.0625px" stroke-linecap="butt" fill-rule="nonzero" stroke-dasharray="none" stroke-linejoin="miter" d="M20.416,0C8.763,0,0,9.034,0,21.771C0,37.084,12.467,52.08,32.747,64.907C33.56,65.449,34.78,65.991,35.548,65.991C35.559,65.991,35.572,65.988,35.584,65.988L35.584,59.111C35.575,59.113,35.556,59.126,35.548,59.126C35.412,59.126,35.141,58.945,34.78,58.674C20.461,49.189,6.504,34.87,6.504,21.771C6.504,12.602,12.421,6.504,20.371,6.504C27.056,6.504,30.67,10.705,32.883,13.912C33.967,15.493,34.644,15.945,35.548,15.945C36.496,15.945,37.038,15.448,38.213,13.912C40.607,10.795,44.085,6.504,50.77,6.504C58.719,6.504,64.591,12.602,64.591,21.771C64.591,21.996,64.565,22.222,64.557,22.447L71.072,22.447C71.078,22.222,71.096,21.997,71.096,21.771C71.096,9.034,62.333,0,50.679,0C43.994,0,38.845,3.026,35.548,7.634C32.296,3.072,27.101,0,20.416,0ZM20.416,0"/>
  <path stroke-opacity="1" fill-opacity="1" fill="#000000" stroke="none" stroke-linecap="butt" stroke-dasharray="none" stroke-width="0.0625px" stroke-linejoin="miter" fill-rule="nonzero" stroke-miterlimit="4" version="1.1" xmlns:svg="http://www.w3.org/2000/svg" d="M53.122,66.028C53.415,66.028,53.948,65.921,54.534,65.602C66.493,59.05,70.728,56.066,70.728,48.183L70.728,32.148C70.728,29.964,69.689,29.299,68.038,28.579C65.88,27.647,57.064,24.531,54.907,23.785C54.347,23.599,53.735,23.466,53.122,23.466C52.51,23.466,51.87,23.652,51.338,23.785C49.18,24.318,40.364,27.674,38.207,28.579C36.555,29.272,35.517,29.964,35.517,32.148L35.517,48.183C35.517,56.066,39.752,59.023,51.711,65.602C52.297,65.921,52.829,66.028,53.122,66.028ZM53.122,61.66C52.803,61.66,52.483,61.58,51.764,61.18C42.149,55.427,39.299,53.723,39.299,47.25L39.299,32.868C39.299,32.388,39.405,32.175,39.832,31.989C43.241,30.657,48.994,28.819,52.403,27.461C52.669,27.354,52.909,27.328,53.122,27.328C53.335,27.328,53.575,27.354,53.841,27.461C57.224,28.819,62.897,30.817,66.386,31.989C66.839,32.148,66.919,32.388,66.919,32.868L66.919,47.25C66.919,53.723,64.069,55.427,54.454,61.18C53.762,61.58,53.442,61.66,53.122,61.66ZM53.122,61.66"/>
</g>
  <g id="Thin-S" transform="matrix(1.0,0.0,0.0,1.0,822.1622233156814,627.7816827682024)">  <path fill="#000000" stroke-opacity="1" version="1.1" stroke="none" fill-opacity="1" stroke-dasharray="none" stroke-miterlimit="4" stroke-width="0.0625px" stroke-linejoin="miter" xmlns:svg="http://www.w3.org/2000/svg" stroke-linecap="butt" fill-rule="nonzero" d="M20.416,0C8.763,0,0,9.034,0,21.771C0,37.084,12.467,52.08,32.747,64.907C33.56,65.449,34.78,65.991,35.548,65.991C35.559,65.991,35.572,65.988,35.584,65.988L35.584,59.111C35.575,59.113,35.556,59.126,35.548,59.126C35.412,59.126,35.141,58.945,34.78,58.674C20.461,49.189,6.504,34.87,6.504,21.771C6.504,12.602,12.421,6.504,20.371,6.504C27.056,6.504,30.67,10.705,32.883,13.912C33.967,15.493,34.644,15.945,35.548,15.945C36.496,15.945,37.038,15.448,38.213,13.912C40.607,10.795,44.085,6.504,50.77,6.504C58.719,6.504,64.591,12.602,64.591,21.771C64.591,21.996,64.565,22.222,64.557,22.447L71.072,22.447C71.078,22.222,71.096,21.997,71.096,21.771C71.096,9.034,62.333,0,50.679,0C43.994,0,38.845,3.026,35.548,7.634C32.296,3.072,27.101,0,20.416,0ZM20.416,0"/>
  <path stroke-linejoin="miter" stroke-miterlimit="4" fill-opacity="1" xmlns:svg="http://www.w3.org/2000/svg" stroke-opacity="1" stroke-dasharray="none" fill="#000000" fill-rule="nonzero" stroke-linecap="butt" version="1.1" stroke-width="0.0625px" stroke="none" d="M53.122,66.028C53.415,66.028,53.948,65.921,54.534,65.602C66.493,59.05,70.728,56.066,70.728,48.183L70.728,32.148C70.728,29.964,69.689,29.299,68.038,28.579C65.88,27.647,57.064,24.531,54.907,23.785C54.347,23.599,53.735,23.466,53.122,23.466C52.51,23.466,51.87,23.652,51.338,23.785C49.18,24.318,40.364,27.674,38.207,28.579C36.555,29.272,35.517,29.964,35.517,32.148L35.517,48.183C35.517,56.066,39.752,59.023,51.711,65.602C52.297,65.921,52.829,66.028,53.122,66.028ZM53.122,61.66C52.803,61.66,52.483,61.58,51.764,61.18C42.149,55.427,39.299,53.723,39.299,47.25L39.299,32.868C39.299,32.388,39.405,32.175,39.832,31.989C43.241,30.657,48.994,28.819,52.403,27.461C52.669,27.354,52.909,27.328,53.122,27.328C53.335,27.328,53.575,27.354,53.841,27.461C57.224,28.819,62.897,30.817,66.386,31.989C66.839,32.148,66.919,32.388,66.919,32.868L66.919,47.25C66.919,53.723,64.069,55.427,54.454,61.18C53.762,61.58,53.442,61.66,53.122,61.66ZM53.122,61.66"/>
</g>
  <g id="Ultralight-S" transform="matrix(1.0,0.0,0.0,1.0,525.4522233156814,627.7816827682024)">  <path stroke-linecap="butt" fill-opacity="1" stroke-opacity="1" stroke-width="0.0625px" fill="#000000" version="1.1" xmlns:svg="http://www.w3.org/2000/svg" stroke-miterlimit="4" stroke="none" stroke-linejoin="miter" stroke-dasharray="none" fill-rule="nonzero" d="M20.416,0C8.763,0,0,9.034,0,21.771C0,37.084,12.467,52.08,32.747,64.907C33.56,65.449,34.78,65.991,35.548,65.991C35.559,65.991,35.572,65.988,35.584,65.988L35.584,59.111C35.575,59.113,35.556,59.126,35.548,59.126C35.412,59.126,35.141,58.945,34.78,58.674C20.461,49.189,6.504,34.87,6.504,21.771C6.504,12.602,12.421,6.504,20.371,6.504C27.056,6.504,30.67,10.705,32.883,13.912C33.967,15.493,34.644,15.945,35.548,15.945C36.496,15.945,37.038,15.448,38.213,13.912C40.607,10.795,44.085,6.504,50.77,6.504C58.719,6.504,64.591,12.602,64.591,21.771C64.591,21.996,64.565,22.222,64.557,22.447L71.072,22.447C71.078,22.222,71.096,21.997,71.096,21.771C71.096,9.034,62.333,0,50.679,0C43.994,0,38.845,3.026,35.548,7.634C32.296,3.072,27.101,0,20.416,0ZM20.416,0"/>
  <path stroke-opacity="1" fill="#000000" fill-opacity="1" version="1.1" stroke-width="0.0625px" xmlns:svg="http://www.w3.org/2000/svg" stroke-linejoin="miter" stroke-dasharray="none" stroke="none" fill-rule="nonzero" stroke-miterlimit="4" stroke-linecap="butt" d="M53.122,66.028C53.415,66.028,53.948,65.921,54.534,65.602C66.493,59.05,70.728,56.066,70.728,48.183L70.728,32.148C70.728,29.964,69.689,29.299,68.038,28.579C65.88,27.647,57.064,24.531,54.907,23.785C54.347,23.599,53.735,23.466,53.122,23.466C52.51,23.466,51.87,23.652,51.338,23.785C49.18,24.318,40.364,27.674,38.207,28.579C36.555,29.272,35.517,29.964,35.517,32.148L35.517,48.183C35.517,56.066,39.752,59.023,51.711,65.602C52.297,65.921,52.829,66.028,53.122,66.028ZM53.122,61.66C52.803,61.66,52.483,61.58,51.764,61.18C42.149,55.427,39.299,53.723,39.299,47.25L39.299,32.868C39.299,32.388,39.405,32.175,39.832,31.989C43.241,30.657,48.994,28.819,52.403,27.461C52.669,27.354,52.909,27.328,53.122,27.328C53.335,27.328,53.575,27.354,53.841,27.461C57.224,28.819,62.897,30.817,66.386,31.989C66.839,32.148,66.919,32.388,66.919,32.868L66.919,47.25C66.919,53.723,64.069,55.427,54.454,61.18C53.762,61.58,53.442,61.66,53.122,61.66ZM53.122,61.66"/>
</g>
 </g>
</svg>
