<?xml version="1.0" encoding="UTF-8"?>
<!--Generator: Apple Native CoreSVG 175.5-->
<!DOCTYPE svg
PUBLIC "-//W3C//DTD SVG 1.1//EN"
       "http://www.w3.org/Graphics/SVG/1.1/DTD/svg11.dtd">
<svg version="1.1" xmlns="http://www.w3.org/2000/svg" xmlns:xlink="http://www.w3.org/1999/xlink" width="3300" height="2200">
 <!--glyph: "uni101420.medium", point size: 100.0, font version: "18.0d11e1", template writer version: "90"-->
 <style>.monochrome-0 {fill:#000000}
.monochrome-1 {fill:#000000}

.hierarchical-0:secondary {fill:#4D4D4D}
.hierarchical-1:primary {fill:#212121}

.SFSymbolsPreview212121 {fill:#212121;opacity:1.0}
.SFSymbolsPreview4D4D4D {fill:#4D4D4D;opacity:1.0}
</style>
 <g id="Notes">
  <rect height="2200" id="artboard" style="fill:white;opacity:1" width="3300" x="0" y="0"/>
  <line style="fill:none;stroke:black;opacity:1;stroke-width:0.5;" x1="263" x2="3036" y1="292" y2="292"/>
  <text style="stroke:none;fill:black;font-family:sans-serif;font-size:13;font-weight:bold;" transform="matrix(1 0 0 1 263 322)">Weight/Scale Variations</text>
  <text style="stroke:none;fill:black;font-family:sans-serif;font-size:13;text-anchor:middle;" transform="matrix(1 0 0 1 559.711 322)">Ultralight</text>
  <text style="stroke:none;fill:black;font-family:sans-serif;font-size:13;text-anchor:middle;" transform="matrix(1 0 0 1 856.422 322)">Thin</text>
  <text style="stroke:none;fill:black;font-family:sans-serif;font-size:13;text-anchor:middle;" transform="matrix(1 0 0 1 1153.13 322)">Light</text>
  <text style="stroke:none;fill:black;font-family:sans-serif;font-size:13;text-anchor:middle;" transform="matrix(1 0 0 1 1449.84 322)">Regular</text>
  <text style="stroke:none;fill:black;font-family:sans-serif;font-size:13;text-anchor:middle;" transform="matrix(1 0 0 1 1746.56 322)">Medium</text>
  <text style="stroke:none;fill:black;font-family:sans-serif;font-size:13;text-anchor:middle;" transform="matrix(1 0 0 1 2043.27 322)">Semibold</text>
  <text style="stroke:none;fill:black;font-family:sans-serif;font-size:13;text-anchor:middle;" transform="matrix(1 0 0 1 2339.98 322)">Bold</text>
  <text style="stroke:none;fill:black;font-family:sans-serif;font-size:13;text-anchor:middle;" transform="matrix(1 0 0 1 2636.69 322)">Heavy</text>
  <text style="stroke:none;fill:black;font-family:sans-serif;font-size:13;text-anchor:middle;" transform="matrix(1 0 0 1 2933.4 322)">Black</text>
  <line style="fill:none;stroke:black;opacity:1;stroke-width:0.5;" x1="263" x2="3036" y1="1903" y2="1903"/>
  <g transform="matrix(1 0 0 1 263 1933)">
   <path d="M9.24805 0.830078C13.5547 0.830078 17.1387-2.74414 17.1387-7.05078C17.1387-11.3574 13.5449-14.9316 9.23828-14.9316C4.94141-14.9316 1.36719-11.3574 1.36719-7.05078C1.36719-2.74414 4.95117 0.830078 9.24805 0.830078ZM9.24805-0.654297C5.70312-0.654297 2.87109-3.49609 2.87109-7.05078C2.87109-10.6055 5.69336-13.4473 9.23828-13.4473C12.793-13.4473 15.6445-10.6055 15.6445-7.05078C15.6445-3.49609 12.8027-0.654297 9.24805-0.654297ZM5.6543-7.05078C5.6543-6.62109 5.95703-6.32812 6.40625-6.32812L8.50586-6.32812L8.50586-4.20898C8.50586-3.76953 8.79883-3.4668 9.22852-3.4668C9.67773-3.4668 9.9707-3.76953 9.9707-4.20898L9.9707-6.32812L12.0898-6.32812C12.5293-6.32812 12.832-6.62109 12.832-7.05078C12.832-7.49023 12.5293-7.79297 12.0898-7.79297L9.9707-7.79297L9.9707-9.90234C9.9707-10.3516 9.67773-10.6543 9.22852-10.6543C8.79883-10.6543 8.50586-10.3516 8.50586-9.90234L8.50586-7.79297L6.40625-7.79297C5.95703-7.79297 5.6543-7.49023 5.6543-7.05078Z"/>
  </g>
  <g transform="matrix(1 0 0 1 281.867 1933)">
   <path d="M11.709 2.91016C17.1582 2.91016 21.6699-1.61133 21.6699-7.05078C21.6699-12.5 17.1484-17.0117 11.6992-17.0117C6.25977-17.0117 1.74805-12.5 1.74805-7.05078C1.74805-1.61133 6.26953 2.91016 11.709 2.91016ZM11.709 1.25C7.09961 1.25 3.41797-2.44141 3.41797-7.05078C3.41797-11.6602 7.08984-15.3516 11.6992-15.3516C16.3086-15.3516 20.0098-11.6602 20.0098-7.05078C20.0098-2.44141 16.3184 1.25 11.709 1.25ZM7.17773-7.05078C7.17773-6.57227 7.50977-6.25 8.00781-6.25L10.8789-6.25L10.8789-3.36914C10.8789-2.88086 11.2109-2.53906 11.6895-2.53906C12.1777-2.53906 12.5195-2.87109 12.5195-3.36914L12.5195-6.25L15.4004-6.25C15.8887-6.25 16.2305-6.57227 16.2305-7.05078C16.2305-7.53906 15.8887-7.88086 15.4004-7.88086L12.5195-7.88086L12.5195-10.752C12.5195-11.25 12.1777-11.5918 11.6895-11.5918C11.2109-11.5918 10.8789-11.25 10.8789-10.752L10.8789-7.88086L8.00781-7.88086C7.50977-7.88086 7.17773-7.53906 7.17773-7.05078Z"/>
  </g>
  <g transform="matrix(1 0 0 1 305.646 1933)">
   <path d="M14.9707 5.66406C21.9336 5.66406 27.6953-0.0976562 27.6953-7.05078C27.6953-14.0137 21.9238-19.7754 14.9609-19.7754C8.00781-19.7754 2.25586-14.0137 2.25586-7.05078C2.25586-0.0976562 8.01758 5.66406 14.9707 5.66406ZM14.9707 3.84766C8.93555 3.84766 4.08203-1.01562 4.08203-7.05078C4.08203-13.0957 8.92578-17.9492 14.9609-17.9492C21.0059-17.9492 25.8691-13.0957 25.8691-7.05078C25.8691-1.01562 21.0156 3.84766 14.9707 3.84766ZM9.19922-7.05078C9.19922-6.5332 9.57031-6.17188 10.1172-6.17188L14.0625-6.17188L14.0625-2.2168C14.0625-1.67969 14.4336-1.29883 14.9512-1.29883C15.4883-1.29883 15.8594-1.66992 15.8594-2.2168L15.8594-6.17188L19.8145-6.17188C20.3516-6.17188 20.7324-6.5332 20.7324-7.05078C20.7324-7.59766 20.3613-7.96875 19.8145-7.96875L15.8594-7.96875L15.8594-11.9141C15.8594-12.4609 15.4883-12.8418 14.9512-12.8418C14.4336-12.8418 14.0625-12.4609 14.0625-11.9141L14.0625-7.96875L10.1172-7.96875C9.57031-7.96875 9.19922-7.59766 9.19922-7.05078Z"/>
  </g>
  <text style="stroke:none;fill:black;font-family:sans-serif;font-size:13;font-weight:bold;" transform="matrix(1 0 0 1 263 1953)">Design Variations</text>
  <text style="stroke:none;fill:black;font-family:sans-serif;font-size:13;" transform="matrix(1 0 0 1 263 1971)">Symbols are supported in up to nine weights and three scales.</text>
  <text style="stroke:none;fill:black;font-family:sans-serif;font-size:13;" transform="matrix(1 0 0 1 263 1989)">For optimal layout with text and other symbols, vertically align</text>
  <text style="stroke:none;fill:black;font-family:sans-serif;font-size:13;" transform="matrix(1 0 0 1 263 2007)">symbols with the adjacent text.</text>
  <line style="fill:none;stroke:#00AEEF;stroke-width:0.5;opacity:1.0;" x1="776" x2="776" y1="1919" y2="1933"/>
  <g transform="matrix(1 0 0 1 776 1933)">
   <path d="M3.31055 0.15625C3.82812 0.15625 4.08203-0.0390625 4.26758-0.585938L5.52734-4.0332L11.2891-4.0332L12.5488-0.585938C12.7344-0.0390625 12.9883 0.15625 13.4961 0.15625C14.0137 0.15625 14.3457-0.15625 14.3457-0.644531C14.3457-0.810547 14.3164-0.966797 14.2383-1.17188L9.6582-13.3691C9.43359-13.9648 9.0332-14.2676 8.4082-14.2676C7.80273-14.2676 7.39258-13.9746 7.17773-13.3789L2.59766-1.16211C2.51953-0.957031 2.49023-0.800781 2.49023-0.634766C2.49023-0.146484 2.80273 0.15625 3.31055 0.15625ZM6.00586-5.51758L8.37891-12.0898L8.42773-12.0898L10.8008-5.51758Z"/>
  </g>
  <line style="fill:none;stroke:#00AEEF;stroke-width:0.5;opacity:1.0;" x1="793.197" x2="793.197" y1="1919" y2="1933"/>
  <text style="stroke:none;fill:black;font-family:sans-serif;font-size:13;font-weight:bold;" transform="matrix(1 0 0 1 776 1953)">Margins</text>
  <text style="stroke:none;fill:black;font-family:sans-serif;font-size:13;" transform="matrix(1 0 0 1 776 1971)">Leading and trailing margins on the left and right side of each symbol</text>
  <text style="stroke:none;fill:black;font-family:sans-serif;font-size:13;" transform="matrix(1 0 0 1 776 1989)">can be adjusted by modifying the x-location of the margin guidelines.</text>
  <text style="stroke:none;fill:black;font-family:sans-serif;font-size:13;" transform="matrix(1 0 0 1 776 2007)">Modifications are automatically applied proportionally to all</text>
  <text style="stroke:none;fill:black;font-family:sans-serif;font-size:13;" transform="matrix(1 0 0 1 776 2025)">scales and weights.</text>
  <g transform="matrix(1 0 0 1 1289 1933)">
   <path d="M2.8418 1.86523L4.54102 3.57422C5.40039 4.44336 6.38672 4.38477 7.31445 3.35938L18.0078-8.42773L17.041-9.4043L6.42578 2.27539C6.07422 2.67578 5.74219 2.77344 5.27344 2.30469L4.10156 1.14258C3.63281 0.683594 3.74023 0.341797 4.14062-0.0195312L15.6152-10.8203L14.6387-11.7871L3.04688-0.898438C2.06055 0.0195312 1.98242 0.996094 2.8418 1.86523ZM9.25781-16.3281C8.83789-15.918 8.80859-15.3418 9.04297-14.9512C9.27734-14.5898 9.73633-14.3555 10.3809-14.5215C11.8457-14.8633 13.3691-14.9219 14.7949-13.9844L14.209-12.5293C13.8672-11.6992 14.043-11.1133 14.5801-10.5664L16.875-8.25195C17.3633-7.76367 17.7734-7.74414 18.3398-7.8418L19.4043-8.03711L20.0684-7.36328L20.0293-6.80664C19.9902-6.30859 20.1172-5.92773 20.6055-5.44922L21.3672-4.70703C21.8457-4.22852 22.4609-4.19922 22.9297-4.66797L25.8398-7.58789C26.3086-8.05664 26.2891-8.65234 25.8105-9.13086L25.0391-9.89258C24.5605-10.3711 24.1895-10.5273 23.7109-10.4883L23.1348-10.4395L22.4902-11.0742L22.7344-12.1973C22.8613-12.7637 22.7051-13.2031 22.1191-13.7891L19.9219-15.9766C16.582-19.2969 12.1484-19.2188 9.25781-16.3281ZM10.752-15.957C13.1836-17.7344 16.4746-17.4316 18.7012-15.2051L21.1328-12.793C21.3672-12.5586 21.4062-12.373 21.3379-12.0312L21.0156-10.5469L22.5195-9.0625L23.5059-9.12109C23.7598-9.13086 23.8379-9.11133 24.0332-8.91602L24.6094-8.33984L22.168-5.89844L21.5918-6.47461C21.3965-6.66992 21.3672-6.74805 21.377-7.01172L21.4453-7.98828L19.9512-9.47266L18.4277-9.21875C18.1055-9.15039 17.959-9.17969 17.7148-9.41406L15.7129-11.416C15.459-11.6504 15.4297-11.8164 15.5859-12.1875L16.4648-14.2773C14.9023-15.7324 12.8711-16.3574 10.8398-15.7617C10.6836-15.7227 10.625-15.8496 10.752-15.957Z"/>
  </g>
  <text style="stroke:none;fill:black;font-family:sans-serif;font-size:13;font-weight:bold;" transform="matrix(1 0 0 1 1289 1953)">Exporting</text>
  <text style="stroke:none;fill:black;font-family:sans-serif;font-size:13;" transform="matrix(1 0 0 1 1289 1971)">Symbols should be outlined when exporting to ensure the</text>
  <text style="stroke:none;fill:black;font-family:sans-serif;font-size:13;" transform="matrix(1 0 0 1 1289 1989)">design is preserved when submitting to Xcode.</text>
  <text id="template-version" style="stroke:none;fill:black;font-family:sans-serif;font-size:13;text-anchor:end;" transform="matrix(1 0 0 1 3036 1933)">Template v.4.0</text>
  <text style="stroke:none;fill:black;font-family:sans-serif;font-size:13;text-anchor:end;" transform="matrix(1 0 0 1 3036 1951)">Requires Xcode 14 or greater</text>
  <text id="descriptive-name" style="stroke:none;fill:black;font-family:sans-serif;font-size:13;text-anchor:end;" transform="matrix(1 0 0 1 3036 1969)">Generated from washer</text>
  <text style="stroke:none;fill:black;font-family:sans-serif;font-size:13;text-anchor:end;" transform="matrix(1 0 0 1 3036 1987)">Typeset at 100 points</text>
  <text style="stroke:none;fill:black;font-family:sans-serif;font-size:13;" transform="matrix(1 0 0 1 263 726)">Small</text>
  <text style="stroke:none;fill:black;font-family:sans-serif;font-size:13;" transform="matrix(1 0 0 1 263 1156)">Medium</text>
  <text style="stroke:none;fill:black;font-family:sans-serif;font-size:13;" transform="matrix(1 0 0 1 263 1586)">Large</text>
 </g>
 <g id="Guides">
  <g id="H-reference" style="fill:#27AAE1;stroke:none;" transform="matrix(1 0 0 1 339 696)">
   <path d="M0.993654 0L3.63775 0L29.3281-67.1323L30.0303-67.1323L30.0303-70.459L28.1226-70.459ZM11.6885-24.4799L46.9815-24.4799L46.2315-26.7285L12.4385-26.7285ZM55.1196 0L57.7637 0L30.6382-70.459L29.4326-70.459L29.4326-67.1323Z"/>
  </g>
  <line id="Baseline-S" style="fill:none;stroke:#27AAE1;opacity:1;stroke-width:0.5;" x1="263" x2="3036" y1="696" y2="696"/>
  <line id="Capline-S" style="fill:none;stroke:#27AAE1;opacity:1;stroke-width:0.5;" x1="263" x2="3036" y1="625.541" y2="625.541"/>
  <g id="H-reference" style="fill:#27AAE1;stroke:none;" transform="matrix(1 0 0 1 339 1126)">
   <path d="M0.993654 0L3.63775 0L29.3281-67.1323L30.0303-67.1323L30.0303-70.459L28.1226-70.459ZM11.6885-24.4799L46.9815-24.4799L46.2315-26.7285L12.4385-26.7285ZM55.1196 0L57.7637 0L30.6382-70.459L29.4326-70.459L29.4326-67.1323Z"/>
  </g>
  <line id="Baseline-M" style="fill:none;stroke:#27AAE1;opacity:1;stroke-width:0.5;" x1="263" x2="3036" y1="1126" y2="1126"/>
  <line id="Capline-M" style="fill:none;stroke:#27AAE1;opacity:1;stroke-width:0.5;" x1="263" x2="3036" y1="1055.54" y2="1055.54"/>
  <g id="H-reference" style="fill:#27AAE1;stroke:none;" transform="matrix(1 0 0 1 339 1556)">
   <path d="M0.993654 0L3.63775 0L29.3281-67.1323L30.0303-67.1323L30.0303-70.459L28.1226-70.459ZM11.6885-24.4799L46.9815-24.4799L46.2315-26.7285L12.4385-26.7285ZM55.1196 0L57.7637 0L30.6382-70.459L29.4326-70.459L29.4326-67.1323Z"/>
  </g>
  <line id="Baseline-L" style="fill:none;stroke:#27AAE1;opacity:1;stroke-width:0.5;" x1="263" x2="3036" y1="1556" y2="1556"/>
  <line id="Capline-L" style="fill:none;stroke:#27AAE1;opacity:1;stroke-width:0.5;" x1="263" x2="3036" y1="1485.54" y2="1485.54"/>
  <line id="left-margin-Ultralight-S" style="fill:none;stroke:#00AEEF;stroke-width:0.5;opacity:1.0;" x1="519.829" x2="519.829" y1="600.785" y2="720.121"/>
  <line id="right-margin-Ultralight-S" style="fill:none;stroke:#00AEEF;stroke-width:0.5;opacity:1.0;" x1="599.593" x2="599.593" y1="600.785" y2="720.121"/>
  <line id="left-margin-Regular-S" style="fill:none;stroke:#00AEEF;stroke-width:0.5;opacity:1.0;" x1="1406.22" x2="1406.22" y1="600.785" y2="720.121"/>
  <line id="right-margin-Regular-S" style="fill:none;stroke:#00AEEF;stroke-width:0.5;opacity:1.0;" x1="1493.47" x2="1493.47" y1="600.785" y2="720.121"/>
  <line id="left-margin-Black-S" style="fill:none;stroke:#00AEEF;stroke-width:0.5;opacity:1.0;" x1="2884.13" x2="2884.13" y1="600.785" y2="720.121"/>
  <line id="right-margin-Black-S" style="fill:none;stroke:#FF3B30;stroke-width:0.5;opacity:1.0;" x1="2982.67" x2="2982.67" y1="600.785" y2="720.121"/>
 </g>
 <g id="Symbols">
  <g id="Black-S" transform="matrix(1 0 0 1 2884.13 696)">
   <path class="monochrome-0 hierarchical-0:secondary SFSymbolsPreview4D4D4D" d="M22.2168 11.3281L55.0781 11.3281C54.4922 10.498 54.0039 9.57031 53.6133 8.54492L49.9023-1.36719L24.0723-1.36719C23.1445-1.36719 22.5098-2.00195 22.5098-2.92969L22.5098-67.5781C22.5098-68.5059 23.1445-69.1406 24.0723-69.1406L74.4629-69.1406C75.3906-69.1406 76.0254-68.5059 76.0254-67.5781L76.0254-25.1953C80.127-27.4414 84.2773-29.0039 88.7695-27.6855L88.7695-69.1406C88.7695-76.5625 83.6426-81.8359 76.3184-81.8359L22.2168-81.8359C14.8926-81.8359 9.76562-76.5625 9.76562-69.1406L9.76562-1.36719C9.76562 6.05469 14.8926 11.3281 22.2168 11.3281ZM29.834-24.1211C29.834-13.2812 38.8672-4.6875 48.6328-4.6875C48.6328-4.6875 48.6328-4.6875 48.6816-4.6875C47.7539-7.27539 46.8262-9.91211 45.8984-12.5C45.752-12.5488 45.5566-12.5977 45.4102-12.6465C40.4785-14.209 37.1582-18.75 37.1582-24.1211C37.1582-30.9082 42.4805-36.2305 49.2676-36.2305C54.6875-36.2305 59.2285-32.8125 60.791-27.9297C60.8398-27.7832 60.8887-27.5879 60.9375-27.4414C63.5254-28.2715 65.8203-28.418 68.3594-27.7344C68.3105-27.9785 68.2617-28.1738 68.2129-28.418C66.2598-37.0605 58.4961-43.5547 49.2676-43.5547C38.5742-43.5547 29.834-34.8145 29.834-24.1211ZM17.7246-46.1914L80.7617-46.1914L80.7617-54.0039L17.7246-54.0039ZM59.5215-58.5938L67.4316-58.5938C69.3359-58.5938 70.752-59.9609 70.752-61.8652C70.752-63.7695 69.3359-65.1367 67.4316-65.1367L59.5215-65.1367C57.6172-65.1367 56.2012-63.7695 56.2012-61.8652C56.2012-59.9609 57.6172-58.5938 59.5215-58.5938ZM31.8359-56.9824C34.4727-56.9824 36.6699-59.1797 36.6699-61.8164C36.6699-64.4531 34.4727-66.6504 31.8359-66.6504C29.1992-66.6504 27.002-64.4531 27.002-61.8164C27.002-59.1797 29.1992-56.9824 31.8359-56.9824ZM44.5312-56.9824C47.168-56.9824 49.3652-59.1797 49.3652-61.8164C49.3652-64.4531 47.168-66.6504 44.5312-66.6504C41.8945-66.6504 39.6973-64.4531 39.6973-61.8164C39.6973-59.1797 41.8945-56.9824 44.5312-56.9824Z"/>
   <path class="monochrome-1 hierarchical-1:primary SFSymbolsPreview212121" d="M64.6484 11.377L85.9375 11.377C88.8184 11.377 91.3086 9.66797 92.3828 6.83594L102.051-19.1406C103.271-22.4121 101.562-25.0488 99.2188-25.8789C96.9238-26.709 93.8965-25.9277 92.6758-22.7051L83.8867 0.732422C83.6914 1.2207 83.5449 1.31836 82.959 1.31836L67.627 1.31836C67.041 1.31836 66.8945 1.2207 66.6992 0.732422L57.9102-22.7051C56.6895-25.9277 53.6621-26.709 51.3672-25.8789C49.0234-25.0488 47.3145-22.4121 48.5352-19.1406L58.2031 6.83594C59.2773 9.66797 61.7676 11.377 64.6484 11.377ZM75.293-12.1094C80.8594-12.1094 82.373-15.4297 85.5469-15.4297C87.3047-15.4297 88.4766-14.4531 90.1855-13.5254L92.7246-20.9961C90.8691-21.9727 88.7695-23.291 85.5469-23.291C80.5176-23.291 78.125-19.9707 75.293-19.9707C72.4609-19.9707 70.0684-23.291 65.0391-23.291C61.8164-23.291 59.7168-21.9727 57.8613-20.9961L60.4004-13.5254C62.1094-14.4531 63.2812-15.4297 65.0391-15.4297C68.2129-15.4297 69.7266-12.1094 75.293-12.1094Z"/>
  </g>
  <g id="Regular-S" transform="matrix(1 0 0 1 1406.22 696)">
   <path class="monochrome-0 hierarchical-0:secondary SFSymbolsPreview4D4D4D" d="M19.0918 5.51758L48.3398 5.51758C48.1445 5.12695 47.9492 4.73633 47.7539 4.29688L45.6055-1.51367L19.4336-1.51367C17.8711-1.51367 16.7969-2.53906 16.7969-4.10156L16.7969-66.748C16.7969-68.3105 17.8711-69.3359 19.4336-69.3359L67.8223-69.3359C69.3848-69.3359 70.459-68.3105 70.459-66.748L70.459-25.9277C72.9004-26.5625 75.3418-26.5137 77.4902-25.7812L77.4902-66.8457C77.4902-72.5586 73.7305-76.3672 68.1641-76.3672L19.0918-76.3672C13.5254-76.3672 9.76562-72.5586 9.76562-66.8457L9.76562-4.00391C9.76562 1.70898 13.5254 5.51758 19.0918 5.51758ZM23.2422-25.9277C23.2422-14.6484 32.373-5.56641 43.6523-5.56641C43.7988-5.56641 43.9453-5.56641 44.0918-5.56641C43.5547-7.08008 43.0176-8.64258 42.4805-10.1562C42.4805-10.1562 42.3828-10.1562 42.3828-10.1562C36.377-10.1562 27.832-16.4062 27.832-25.9277C27.832-34.668 34.9121-41.748 43.6523-41.748C52.2949-41.748 59.4238-34.668 59.4238-26.123C59.4238-26.0742 59.4238-25.9766 59.4238-25.9277C61.2305-25.5371 62.8906-24.8047 63.9648-24.2188C64.0137-24.8047 64.0137-25.3906 64.0137-25.9277C64.0137-37.207 54.8828-46.3379 43.6523-46.3379C32.373-46.3379 23.2422-37.207 23.2422-25.9277ZM13.6719-50.3418L73.6328-50.3418L73.6328-56.0059L13.6719-56.0059ZM54.9316-60.5469L63.7695-60.5469C65.0391-60.5469 65.8691-61.377 65.8691-62.6953C65.8691-63.9648 65.0391-64.7949 63.7695-64.7949L54.9316-64.7949C53.6621-64.7949 52.832-63.9648 52.832-62.6953C52.832-61.377 53.6621-60.5469 54.9316-60.5469ZM24.7559-59.3262C26.6113-59.3262 28.125-60.8398 28.125-62.6953C28.125-64.5508 26.6113-66.0645 24.7559-66.0645C22.9004-66.0645 21.3867-64.5508 21.3867-62.6953C21.3867-60.8398 22.9004-59.3262 24.7559-59.3262ZM34.5215-59.3262C36.377-59.3262 37.8906-60.8398 37.8906-62.6953C37.8906-64.5508 36.377-66.0645 34.5215-66.0645C32.666-66.0645 31.1523-64.5508 31.1523-62.6953C31.1523-60.8398 32.666-59.3262 34.5215-59.3262Z"/>
   <path class="monochrome-1 hierarchical-1:primary SFSymbolsPreview212121" d="M56.4941 5.56641L73.7793 5.56641C75.6836 5.56641 77.2949 4.44336 78.0273 2.58789L85.9375-18.7012C86.6211-20.6543 85.6934-22.1191 84.375-22.5586C83.0566-23.0469 81.3477-22.5586 80.6641-20.7031L73.1934-0.78125C72.998-0.341797 72.7051-0.0976562 72.2168-0.0976562L58.0078-0.0976562C57.5684-0.0976562 57.2266-0.341797 57.0801-0.78125L49.6094-20.7031C48.9258-22.5586 47.2168-23.0469 45.8984-22.5586C44.5801-22.1191 43.6523-20.6543 44.3359-18.7012L52.2461 2.58789C52.9297 4.44336 54.5898 5.56641 56.4941 5.56641ZM65.1367-14.8926C69.3848-14.8926 70.3613-17.6758 73.6328-17.6758C76.8555-17.6758 77.832-15.0391 81.9824-14.9414L82.0801-18.8477C79.1992-18.9941 77.6367-21.6309 73.6328-21.6309C69.5312-21.6309 68.0664-18.8477 65.1367-18.8477C62.207-18.8477 60.7422-21.6309 56.5918-21.6309C52.6367-21.6309 51.0742-18.9941 48.1934-18.8477L48.2422-14.9414C52.4414-15.0391 53.418-17.6758 56.5918-17.6758C59.9121-17.6758 60.8398-14.8926 65.1367-14.8926Z"/>
  </g>
  <g id="Ultralight-S" transform="matrix(1 0 0 1 519.829 696)">
   <path class="monochrome-0 hierarchical-0:secondary SFSymbolsPreview4D4D4D" d="M16.5034-0.0678271L45.7969-0.0678271C45.3745-0.594682 45.043-1.21236 44.7114-1.87886L44.5156-2.24023L16.4365-2.24023C13.7388-2.24023 11.9834-4.26463 11.9834-7.32566L11.9834-66.0669C11.9834-69.0825 13.7388-71.1069 16.4365-71.1069L63.3721-71.1069C66.0244-71.1069 67.8252-69.0825 67.8252-66.0669L67.8252-27.6533C68.3594-27.7432 69.4839-27.7397 69.9976-27.6431L69.9976-65.9829C69.9976-70.3789 67.3277-73.3247 63.3052-73.3247L16.5034-73.3247C12.4356-73.3247 9.76562-70.3789 9.76562-65.9829L9.76562-7.40964C9.76562-2.96822 12.4356-0.0678271 16.5034-0.0678271ZM21.4712-27.7441C21.4712-17.5547 29.7393-9.33542 39.8833-9.33542C40.5293-9.33542 41.2207-9.38083 41.8667-9.42624C41.6021-10.0771 41.3828-10.7768 41.1182-11.4731C40.7095-11.4277 40.2486-11.4277 39.8399-11.4277C30.7007-11.4277 23.5635-18.4497 23.5635-27.7441C23.5635-36.9839 30.6436-44.0639 39.8833-44.0639C49.1162-44.0639 56.1997-36.9839 56.1997-27.7578C56.1997-26.8462 56.1543-26.022 56.0181-25.2012C56.6441-24.9014 57.3052-24.6685 58.0162-24.4912C58.2012-25.5312 58.292-26.6621 58.292-27.7441C58.292-37.8882 50.0694-46.1563 39.8833-46.1563C29.7393-46.1563 21.4712-37.8882 21.4712-27.7441ZM10.7656-53.1572L68.5923-53.1572L68.5923-55.3247L10.7656-55.3247ZM49.4371-62.1816L60.0459-62.1816C60.6343-62.1816 61.1011-62.6484 61.1011-63.1948C61.1011-63.7832 60.6343-64.25 60.0459-64.25L49.4371-64.25C48.8941-64.25 48.4273-63.7832 48.4273-63.1948C48.4273-62.6484 48.8941-62.1816 49.4371-62.1816ZM21.5772-59.8257C23.4326-59.8257 24.9463-61.3394 24.9463-63.1948C24.9463-65.0503 23.4326-66.564 21.5772-66.564C19.7217-66.564 18.208-65.0503 18.208-63.1948C18.208-61.3394 19.7217-59.8257 21.5772-59.8257ZM31.2974-59.8257C33.1529-59.8257 34.6665-61.3394 34.6665-63.1948C34.6665-65.0503 33.1529-66.564 31.2974-66.564C29.4419-66.564 27.9737-65.0503 27.9737-63.1948C27.9737-61.3394 29.4419-59.8257 31.2974-59.8257Z"/>
   <path class="monochrome-1 hierarchical-1:primary SFSymbolsPreview212121" d="M52.1802 0.11723L66.0142 0.11723C68.0093 0.11723 70.0294-1.05123 70.9888-3.63325L78.0816-23.0151C78.3111-23.6513 78.0191-24.208 77.5635-24.4204C77.0171-24.6362 76.3526-24.5112 76.0777-23.7456L68.9702-4.45944C68.3208-2.61229 67.3013-2.00487 65.9502-2.00487L52.2408-2.00487C50.8931-2.00487 49.8702-2.61229 49.2242-4.45944L42.1168-23.7456C41.8873-24.5112 41.1773-24.6362 40.6309-24.4204C40.1753-24.208 39.8833-23.6513 40.1128-23.0151L47.251-3.63325C48.2071-1.05123 50.1851 0.11723 52.1802 0.11723ZM59.0972-19.2973C63.8902-19.2973 65.1846-22.6254 69.0464-22.6254C71.043-22.6254 72.7915-21.7597 75.4434-19.7548L76.6309-21.3452C73.7955-23.5805 71.5064-24.6733 69.0464-24.6733C63.7188-24.6733 62.6172-21.3452 59.0972-21.3452C55.5772-21.3452 54.4756-24.6733 49.1446-24.6733C46.688-24.6733 44.399-23.5805 41.5635-21.3452L42.7476-19.7548C45.4483-21.7597 47.1514-22.6254 49.1446-22.6254C53.0552-22.6254 54.3008-19.2973 59.0972-19.2973Z"/>
  </g>
 </g>
</svg>
