<?xml version="1.0" encoding="UTF-8"?>
<!--Generator: Apple Native CoreSVG 175.5-->
<!DOCTYPE svg
PUBLIC "-//W3C//DTD SVG 1.1//EN"
       "http://www.w3.org/Graphics/SVG/1.1/DTD/svg11.dtd">
<svg version="1.1" xmlns="http://www.w3.org/2000/svg" xmlns:xlink="http://www.w3.org/1999/xlink" width="3300" height="2200">
 <!--glyph: "uni1014C2.medium", point size: 100.0, font version: "18.0d11e1", template writer version: "90"-->
 <style>.monochrome-0 {fill:#000000}
.monochrome-1 {fill:#000000;-sfsymbols-variable-threshold:0.0}
.monochrome-2 {fill:#000000;-sfsymbols-variable-threshold:0.34}
.monochrome-3 {fill:#000000;-sfsymbols-variable-threshold:0.68}

.multicolor-0:tintColor {fill:#007AFF}
.multicolor-1:tintColor {fill:#007AFF;-sfsymbols-variable-threshold:0.0}
.multicolor-2:tintColor {fill:#007AFF;-sfsymbols-variable-threshold:0.34}
.multicolor-3:tintColor {fill:#007AFF;-sfsymbols-variable-threshold:0.68}

.hierarchical-0:primary {fill:#212121}
.hierarchical-1:secondary {fill:#4D4D4D;-sfsymbols-variable-threshold:0.0}
.hierarchical-2:secondary {fill:#4D4D4D;-sfsymbols-variable-threshold:0.34}
.hierarchical-3:secondary {fill:#4D4D4D;-sfsymbols-variable-threshold:0.68}

.SFSymbolsPreview007AFF {fill:#007AFF;opacity:1.0}
</style>
 <g id="Notes">
  <rect height="2200" id="artboard" style="fill:white;opacity:1" width="3300" x="0" y="0"/>
  <line style="fill:none;stroke:black;opacity:1;stroke-width:0.5;" x1="263" x2="3036" y1="292" y2="292"/>
  <text style="stroke:none;fill:black;font-family:sans-serif;font-size:13;font-weight:bold;" transform="matrix(1 0 0 1 263 322)">Weight/Scale Variations</text>
  <text style="stroke:none;fill:black;font-family:sans-serif;font-size:13;text-anchor:middle;" transform="matrix(1 0 0 1 559.711 322)">Ultralight</text>
  <text style="stroke:none;fill:black;font-family:sans-serif;font-size:13;text-anchor:middle;" transform="matrix(1 0 0 1 856.422 322)">Thin</text>
  <text style="stroke:none;fill:black;font-family:sans-serif;font-size:13;text-anchor:middle;" transform="matrix(1 0 0 1 1153.13 322)">Light</text>
  <text style="stroke:none;fill:black;font-family:sans-serif;font-size:13;text-anchor:middle;" transform="matrix(1 0 0 1 1449.84 322)">Regular</text>
  <text style="stroke:none;fill:black;font-family:sans-serif;font-size:13;text-anchor:middle;" transform="matrix(1 0 0 1 1746.56 322)">Medium</text>
  <text style="stroke:none;fill:black;font-family:sans-serif;font-size:13;text-anchor:middle;" transform="matrix(1 0 0 1 2043.27 322)">Semibold</text>
  <text style="stroke:none;fill:black;font-family:sans-serif;font-size:13;text-anchor:middle;" transform="matrix(1 0 0 1 2339.98 322)">Bold</text>
  <text style="stroke:none;fill:black;font-family:sans-serif;font-size:13;text-anchor:middle;" transform="matrix(1 0 0 1 2636.69 322)">Heavy</text>
  <text style="stroke:none;fill:black;font-family:sans-serif;font-size:13;text-anchor:middle;" transform="matrix(1 0 0 1 2933.4 322)">Black</text>
  <line style="fill:none;stroke:black;opacity:1;stroke-width:0.5;" x1="263" x2="3036" y1="1903" y2="1903"/>
  <g transform="matrix(1 0 0 1 263 1933)">
   <path d="M9.24805 0.830078C13.5547 0.830078 17.1387-2.74414 17.1387-7.05078C17.1387-11.3574 13.5449-14.9316 9.23828-14.9316C4.94141-14.9316 1.36719-11.3574 1.36719-7.05078C1.36719-2.74414 4.95117 0.830078 9.24805 0.830078ZM9.24805-0.654297C5.70312-0.654297 2.87109-3.49609 2.87109-7.05078C2.87109-10.6055 5.69336-13.4473 9.23828-13.4473C12.793-13.4473 15.6445-10.6055 15.6445-7.05078C15.6445-3.49609 12.8027-0.654297 9.24805-0.654297ZM5.6543-7.05078C5.6543-6.62109 5.95703-6.32812 6.40625-6.32812L8.50586-6.32812L8.50586-4.20898C8.50586-3.76953 8.79883-3.4668 9.22852-3.4668C9.67773-3.4668 9.9707-3.76953 9.9707-4.20898L9.9707-6.32812L12.0898-6.32812C12.5293-6.32812 12.832-6.62109 12.832-7.05078C12.832-7.49023 12.5293-7.79297 12.0898-7.79297L9.9707-7.79297L9.9707-9.90234C9.9707-10.3516 9.67773-10.6543 9.22852-10.6543C8.79883-10.6543 8.50586-10.3516 8.50586-9.90234L8.50586-7.79297L6.40625-7.79297C5.95703-7.79297 5.6543-7.49023 5.6543-7.05078Z"/>
  </g>
  <g transform="matrix(1 0 0 1 281.867 1933)">
   <path d="M11.709 2.91016C17.1582 2.91016 21.6699-1.61133 21.6699-7.05078C21.6699-12.5 17.1484-17.0117 11.6992-17.0117C6.25977-17.0117 1.74805-12.5 1.74805-7.05078C1.74805-1.61133 6.26953 2.91016 11.709 2.91016ZM11.709 1.25C7.09961 1.25 3.41797-2.44141 3.41797-7.05078C3.41797-11.6602 7.08984-15.3516 11.6992-15.3516C16.3086-15.3516 20.0098-11.6602 20.0098-7.05078C20.0098-2.44141 16.3184 1.25 11.709 1.25ZM7.17773-7.05078C7.17773-6.57227 7.50977-6.25 8.00781-6.25L10.8789-6.25L10.8789-3.36914C10.8789-2.88086 11.2109-2.53906 11.6895-2.53906C12.1777-2.53906 12.5195-2.87109 12.5195-3.36914L12.5195-6.25L15.4004-6.25C15.8887-6.25 16.2305-6.57227 16.2305-7.05078C16.2305-7.53906 15.8887-7.88086 15.4004-7.88086L12.5195-7.88086L12.5195-10.752C12.5195-11.25 12.1777-11.5918 11.6895-11.5918C11.2109-11.5918 10.8789-11.25 10.8789-10.752L10.8789-7.88086L8.00781-7.88086C7.50977-7.88086 7.17773-7.53906 7.17773-7.05078Z"/>
  </g>
  <g transform="matrix(1 0 0 1 305.646 1933)">
   <path d="M14.9707 5.66406C21.9336 5.66406 27.6953-0.0976562 27.6953-7.05078C27.6953-14.0137 21.9238-19.7754 14.9609-19.7754C8.00781-19.7754 2.25586-14.0137 2.25586-7.05078C2.25586-0.0976562 8.01758 5.66406 14.9707 5.66406ZM14.9707 3.84766C8.93555 3.84766 4.08203-1.01562 4.08203-7.05078C4.08203-13.0957 8.92578-17.9492 14.9609-17.9492C21.0059-17.9492 25.8691-13.0957 25.8691-7.05078C25.8691-1.01562 21.0156 3.84766 14.9707 3.84766ZM9.19922-7.05078C9.19922-6.5332 9.57031-6.17188 10.1172-6.17188L14.0625-6.17188L14.0625-2.2168C14.0625-1.67969 14.4336-1.29883 14.9512-1.29883C15.4883-1.29883 15.8594-1.66992 15.8594-2.2168L15.8594-6.17188L19.8145-6.17188C20.3516-6.17188 20.7324-6.5332 20.7324-7.05078C20.7324-7.59766 20.3613-7.96875 19.8145-7.96875L15.8594-7.96875L15.8594-11.9141C15.8594-12.4609 15.4883-12.8418 14.9512-12.8418C14.4336-12.8418 14.0625-12.4609 14.0625-11.9141L14.0625-7.96875L10.1172-7.96875C9.57031-7.96875 9.19922-7.59766 9.19922-7.05078Z"/>
  </g>
  <text style="stroke:none;fill:black;font-family:sans-serif;font-size:13;font-weight:bold;" transform="matrix(1 0 0 1 263 1953)">Design Variations</text>
  <text style="stroke:none;fill:black;font-family:sans-serif;font-size:13;" transform="matrix(1 0 0 1 263 1971)">Symbols are supported in up to nine weights and three scales.</text>
  <text style="stroke:none;fill:black;font-family:sans-serif;font-size:13;" transform="matrix(1 0 0 1 263 1989)">For optimal layout with text and other symbols, vertically align</text>
  <text style="stroke:none;fill:black;font-family:sans-serif;font-size:13;" transform="matrix(1 0 0 1 263 2007)">symbols with the adjacent text.</text>
  <line style="fill:none;stroke:#00AEEF;stroke-width:0.5;opacity:1.0;" x1="776" x2="776" y1="1919" y2="1933"/>
  <g transform="matrix(1 0 0 1 776 1933)">
   <path d="M3.31055 0.15625C3.82812 0.15625 4.08203-0.0390625 4.26758-0.585938L5.52734-4.0332L11.2891-4.0332L12.5488-0.585938C12.7344-0.0390625 12.9883 0.15625 13.4961 0.15625C14.0137 0.15625 14.3457-0.15625 14.3457-0.644531C14.3457-0.810547 14.3164-0.966797 14.2383-1.17188L9.6582-13.3691C9.43359-13.9648 9.0332-14.2676 8.4082-14.2676C7.80273-14.2676 7.39258-13.9746 7.17773-13.3789L2.59766-1.16211C2.51953-0.957031 2.49023-0.800781 2.49023-0.634766C2.49023-0.146484 2.80273 0.15625 3.31055 0.15625ZM6.00586-5.51758L8.37891-12.0898L8.42773-12.0898L10.8008-5.51758Z"/>
  </g>
  <line style="fill:none;stroke:#00AEEF;stroke-width:0.5;opacity:1.0;" x1="793.197" x2="793.197" y1="1919" y2="1933"/>
  <text style="stroke:none;fill:black;font-family:sans-serif;font-size:13;font-weight:bold;" transform="matrix(1 0 0 1 776 1953)">Margins</text>
  <text style="stroke:none;fill:black;font-family:sans-serif;font-size:13;" transform="matrix(1 0 0 1 776 1971)">Leading and trailing margins on the left and right side of each symbol</text>
  <text style="stroke:none;fill:black;font-family:sans-serif;font-size:13;" transform="matrix(1 0 0 1 776 1989)">can be adjusted by modifying the x-location of the margin guidelines.</text>
  <text style="stroke:none;fill:black;font-family:sans-serif;font-size:13;" transform="matrix(1 0 0 1 776 2007)">Modifications are automatically applied proportionally to all</text>
  <text style="stroke:none;fill:black;font-family:sans-serif;font-size:13;" transform="matrix(1 0 0 1 776 2025)">scales and weights.</text>
  <g transform="matrix(1 0 0 1 1289 1933)">
   <path d="M2.8418 1.86523L4.54102 3.57422C5.40039 4.44336 6.38672 4.38477 7.31445 3.35938L18.0078-8.42773L17.041-9.4043L6.42578 2.27539C6.07422 2.67578 5.74219 2.77344 5.27344 2.30469L4.10156 1.14258C3.63281 0.683594 3.74023 0.341797 4.14062-0.0195312L15.6152-10.8203L14.6387-11.7871L3.04688-0.898438C2.06055 0.0195312 1.98242 0.996094 2.8418 1.86523ZM9.25781-16.3281C8.83789-15.918 8.80859-15.3418 9.04297-14.9512C9.27734-14.5898 9.73633-14.3555 10.3809-14.5215C11.8457-14.8633 13.3691-14.9219 14.7949-13.9844L14.209-12.5293C13.8672-11.6992 14.043-11.1133 14.5801-10.5664L16.875-8.25195C17.3633-7.76367 17.7734-7.74414 18.3398-7.8418L19.4043-8.03711L20.0684-7.36328L20.0293-6.80664C19.9902-6.30859 20.1172-5.92773 20.6055-5.44922L21.3672-4.70703C21.8457-4.22852 22.4609-4.19922 22.9297-4.66797L25.8398-7.58789C26.3086-8.05664 26.2891-8.65234 25.8105-9.13086L25.0391-9.89258C24.5605-10.3711 24.1895-10.5273 23.7109-10.4883L23.1348-10.4395L22.4902-11.0742L22.7344-12.1973C22.8613-12.7637 22.7051-13.2031 22.1191-13.7891L19.9219-15.9766C16.582-19.2969 12.1484-19.2188 9.25781-16.3281ZM10.752-15.957C13.1836-17.7344 16.4746-17.4316 18.7012-15.2051L21.1328-12.793C21.3672-12.5586 21.4062-12.373 21.3379-12.0312L21.0156-10.5469L22.5195-9.0625L23.5059-9.12109C23.7598-9.13086 23.8379-9.11133 24.0332-8.91602L24.6094-8.33984L22.168-5.89844L21.5918-6.47461C21.3965-6.66992 21.3672-6.74805 21.377-7.01172L21.4453-7.98828L19.9512-9.47266L18.4277-9.21875C18.1055-9.15039 17.959-9.17969 17.7148-9.41406L15.7129-11.416C15.459-11.6504 15.4297-11.8164 15.5859-12.1875L16.4648-14.2773C14.9023-15.7324 12.8711-16.3574 10.8398-15.7617C10.6836-15.7227 10.625-15.8496 10.752-15.957Z"/>
  </g>
  <text style="stroke:none;fill:black;font-family:sans-serif;font-size:13;font-weight:bold;" transform="matrix(1 0 0 1 1289 1953)">Exporting</text>
  <text style="stroke:none;fill:black;font-family:sans-serif;font-size:13;" transform="matrix(1 0 0 1 1289 1971)">Symbols should be outlined when exporting to ensure the</text>
  <text style="stroke:none;fill:black;font-family:sans-serif;font-size:13;" transform="matrix(1 0 0 1 1289 1989)">design is preserved when submitting to Xcode.</text>
  <text id="template-version" style="stroke:none;fill:black;font-family:sans-serif;font-size:13;text-anchor:end;" transform="matrix(1 0 0 1 3036 1933)">Template v.4.0</text>
  <text style="stroke:none;fill:black;font-family:sans-serif;font-size:13;text-anchor:end;" transform="matrix(1 0 0 1 3036 1951)">Requires Xcode 14 or greater</text>
  <text id="descriptive-name" style="stroke:none;fill:black;font-family:sans-serif;font-size:13;text-anchor:end;" transform="matrix(1 0 0 1 3036 1969)">Generated from shower</text>
  <text style="stroke:none;fill:black;font-family:sans-serif;font-size:13;text-anchor:end;" transform="matrix(1 0 0 1 3036 1987)">Typeset at 100 points</text>
  <text style="stroke:none;fill:black;font-family:sans-serif;font-size:13;" transform="matrix(1 0 0 1 263 726)">Small</text>
  <text style="stroke:none;fill:black;font-family:sans-serif;font-size:13;" transform="matrix(1 0 0 1 263 1156)">Medium</text>
  <text style="stroke:none;fill:black;font-family:sans-serif;font-size:13;" transform="matrix(1 0 0 1 263 1586)">Large</text>
 </g>
 <g id="Guides">
  <g id="H-reference" style="fill:#27AAE1;stroke:none;" transform="matrix(1 0 0 1 339 696)">
   <path d="M0.993654 0L3.63775 0L29.3281-67.1323L30.0303-67.1323L30.0303-70.459L28.1226-70.459ZM11.6885-24.4799L46.9815-24.4799L46.2315-26.7285L12.4385-26.7285ZM55.1196 0L57.7637 0L30.6382-70.459L29.4326-70.459L29.4326-67.1323Z"/>
  </g>
  <line id="Baseline-S" style="fill:none;stroke:#27AAE1;opacity:1;stroke-width:0.5;" x1="263" x2="3036" y1="696" y2="696"/>
  <line id="Capline-S" style="fill:none;stroke:#27AAE1;opacity:1;stroke-width:0.5;" x1="263" x2="3036" y1="625.541" y2="625.541"/>
  <g id="H-reference" style="fill:#27AAE1;stroke:none;" transform="matrix(1 0 0 1 339 1126)">
   <path d="M0.993654 0L3.63775 0L29.3281-67.1323L30.0303-67.1323L30.0303-70.459L28.1226-70.459ZM11.6885-24.4799L46.9815-24.4799L46.2315-26.7285L12.4385-26.7285ZM55.1196 0L57.7637 0L30.6382-70.459L29.4326-70.459L29.4326-67.1323Z"/>
  </g>
  <line id="Baseline-M" style="fill:none;stroke:#27AAE1;opacity:1;stroke-width:0.5;" x1="263" x2="3036" y1="1126" y2="1126"/>
  <line id="Capline-M" style="fill:none;stroke:#27AAE1;opacity:1;stroke-width:0.5;" x1="263" x2="3036" y1="1055.54" y2="1055.54"/>
  <g id="H-reference" style="fill:#27AAE1;stroke:none;" transform="matrix(1 0 0 1 339 1556)">
   <path d="M0.993654 0L3.63775 0L29.3281-67.1323L30.0303-67.1323L30.0303-70.459L28.1226-70.459ZM11.6885-24.4799L46.9815-24.4799L46.2315-26.7285L12.4385-26.7285ZM55.1196 0L57.7637 0L30.6382-70.459L29.4326-70.459L29.4326-67.1323Z"/>
  </g>
  <line id="Baseline-L" style="fill:none;stroke:#27AAE1;opacity:1;stroke-width:0.5;" x1="263" x2="3036" y1="1556" y2="1556"/>
  <line id="Capline-L" style="fill:none;stroke:#27AAE1;opacity:1;stroke-width:0.5;" x1="263" x2="3036" y1="1485.54" y2="1485.54"/>
  <line id="left-margin-Ultralight-S" style="fill:none;stroke:#00AEEF;stroke-width:0.5;opacity:1.0;" x1="524.26" x2="524.26" y1="600.785" y2="720.121"/>
  <line id="right-margin-Ultralight-S" style="fill:none;stroke:#00AEEF;stroke-width:0.5;opacity:1.0;" x1="595.163" x2="595.163" y1="600.785" y2="720.121"/>
  <line id="left-margin-Regular-S" style="fill:none;stroke:#00AEEF;stroke-width:0.5;opacity:1.0;" x1="1407.88" x2="1407.88" y1="600.785" y2="720.121"/>
  <line id="right-margin-Regular-S" style="fill:none;stroke:#00AEEF;stroke-width:0.5;opacity:1.0;" x1="1491.81" x2="1491.81" y1="600.785" y2="720.121"/>
  <line id="left-margin-Black-S" style="fill:none;stroke:#00AEEF;stroke-width:0.5;opacity:1.0;" x1="2886.5" x2="2886.5" y1="600.785" y2="720.121"/>
  <line id="right-margin-Black-S" style="fill:none;stroke:#00AEEF;stroke-width:0.5;opacity:1.0;" x1="2980.3" x2="2980.3" y1="600.785" y2="720.121"/>
 </g>
 <g id="Symbols">
  <g id="Black-S" transform="matrix(1 0 0 1 2886.5 696)">
   <path class="monochrome-0 multicolor-0:tintColor hierarchical-0:primary SFSymbolsPreview007AFF" d="M60.4004-82.0801L47.5586-82.0801C38.9648-82.0801 33.4473-76.6113 33.4473-68.2129L33.4473-59.0332L44.5312-59.0332L44.5312-68.2129C44.5312-70.3125 45.2637-70.9961 47.5586-70.9961L60.4004-70.9961C68.457-70.9961 72.9492-66.1133 72.9492-57.3242L72.9492 5.95703C72.9492 9.13086 75.293 11.5723 78.5156 11.5723C81.7383 11.5723 84.0332 9.08203 84.0332 5.95703L84.0332-57.3242C84.0332-72.3633 74.8535-82.0801 60.4004-82.0801ZM38.9648-57.5684C40.2832-57.5684 41.2109-56.6406 41.2109-55.3711L41.2109-46.3867C50.0977-44.6777 54.834-39.1113 54.834-29.248L64.9902-29.248C64.9902-39.8438 59.9121-48.9746 51.2695-53.6133L51.2695-55.3711C51.2695-62.4023 46.1426-67.627 38.9648-67.627C31.7871-67.627 26.6602-62.4023 26.6602-55.3711L26.6602-53.6133C18.0176-48.9746 12.9395-39.8438 12.9395-29.248L23.0957-29.248C23.0957-39.1113 27.832-44.6777 36.7188-46.3867L36.7188-55.3711C36.7188-56.6406 37.6465-57.5684 38.9648-57.5684ZM14.7949-33.9844C12.0117-33.9844 9.76562-31.7383 9.76562-28.9551C9.76562-26.1719 12.0117-23.9258 14.7949-23.9258L63.1836-23.9258C65.918-23.9258 68.2129-26.1719 68.2129-28.9551C68.2129-31.7383 65.918-33.9844 63.1836-33.9844Z"/>
   <path class="monochrome-1 multicolor-1:tintColor hierarchical-1:secondary SFSymbolsPreview007AFF" d="M52.832-11.9629C55.3223-11.9629 57.373-14.0137 57.373-16.5527C57.373-19.043 55.3223-21.0938 52.832-21.0938C50.293-21.0938 48.2422-19.043 48.2422-16.5527C48.2422-14.0137 50.293-11.9629 52.832-11.9629ZM25.0977-11.9629C27.6367-11.9629 29.6875-14.0137 29.6875-16.5527C29.6875-19.043 27.6367-21.0938 25.0977-21.0938C22.6074-21.0938 20.5566-19.043 20.5566-16.5527C20.5566-14.0137 22.6074-11.9629 25.0977-11.9629ZM38.9648-11.9629C41.5039-11.9629 43.5547-14.0137 43.5547-16.5527C43.5547-19.043 41.5039-21.0938 38.9648-21.0938C36.4746-21.0938 34.4238-19.043 34.4238-16.5527C34.4238-14.0137 36.4746-11.9629 38.9648-11.9629Z"/>
   <path class="monochrome-2 multicolor-2:tintColor hierarchical-2:secondary SFSymbolsPreview007AFF" d="M52.832-0.439453C55.3711-0.439453 57.4219-2.49023 57.4219-5.0293C57.4219-7.51953 55.3711-9.57031 52.832-9.57031C50.3418-9.57031 48.291-7.51953 48.291-5.0293C48.291-2.49023 50.3418-0.439453 52.832-0.439453ZM25.0977-0.439453C27.5879-0.439453 29.6387-2.49023 29.6387-5.0293C29.6387-7.51953 27.5879-9.57031 25.0977-9.57031C22.5586-9.57031 20.5078-7.51953 20.5078-5.0293C20.5078-2.49023 22.5586-0.439453 25.0977-0.439453ZM39.0137-0.439453C41.5039-0.439453 43.5547-2.49023 43.5547-5.0293C43.5547-7.51953 41.5039-9.57031 39.0137-9.57031C36.4746-9.57031 34.4238-7.51953 34.4238-5.0293C34.4238-2.49023 36.4746-0.439453 39.0137-0.439453Z"/>
   <path class="monochrome-3 multicolor-3:tintColor hierarchical-3:secondary SFSymbolsPreview007AFF" d="M52.832 11.084C55.3711 11.084 57.4219 9.0332 57.4219 6.49414C57.4219 4.00391 55.3711 1.95312 52.832 1.95312C50.3418 1.95312 48.291 4.00391 48.291 6.49414C48.291 9.0332 50.3418 11.084 52.832 11.084ZM25.0977 11.084C27.5879 11.084 29.6387 9.0332 29.6387 6.49414C29.6387 4.00391 27.5879 1.95312 25.0977 1.95312C22.5586 1.95312 20.5078 4.00391 20.5078 6.49414C20.5078 9.0332 22.5586 11.084 25.0977 11.084ZM39.0137 11.084C41.5039 11.084 43.5547 9.0332 43.5547 6.49414C43.5547 4.00391 41.5039 1.95312 39.0137 1.95312C36.4746 1.95312 34.4238 4.00391 34.4238 6.49414C34.4238 9.0332 36.4746 11.084 39.0137 11.084Z"/>
  </g>
  <g id="Regular-S" transform="matrix(1 0 0 1 1407.88 696)">
   <path class="monochrome-0 multicolor-0:tintColor hierarchical-0:primary SFSymbolsPreview007AFF" d="M53.8574-77.6367L43.457-77.6367C36.4746-77.6367 32.1289-73.3887 32.1289-66.5527L32.1289-59.7168L38.7207-59.7168L38.7207-66.5527C38.7207-69.3359 40.5273-71.0449 43.457-71.0449L53.8574-71.0449C62.3047-71.0449 67.627-65.332 67.627-56.25L67.627 3.80859C67.627 5.71289 68.9941 7.12891 70.8984 7.12891C72.8027 7.12891 74.1699 5.71289 74.1699 3.80859L74.1699-56.25C74.1699-69.3359 66.3086-77.6367 53.8574-77.6367ZM35.4004-58.3008C37.8418-58.3008 39.4531-56.6895 39.4531-54.2969L39.4531-47.4121C46.9727-45.5078 52.4414-39.8926 52.4414-31.4941L58.2031-31.4941C58.2031-40.332 52.7344-47.8516 45.1172-51.4648L45.1172-54.2969C45.1172-59.9121 41.1133-63.9648 35.4004-63.9648C29.6875-63.9648 25.7324-59.9121 25.7324-54.2969L25.7324-51.4648C18.1152-47.8516 12.6465-40.332 12.6465-31.4941L18.3594-31.4941C18.3594-39.8926 23.8281-45.5078 31.3477-47.4121L31.3477-54.2969C31.3477-56.6895 33.0078-58.3008 35.4004-58.3008ZM12.5977-32.2266C11.0352-32.2266 9.76562-30.957 9.76562-29.3945C9.76562-27.832 11.0352-26.5625 12.5977-26.5625L58.252-26.5625C59.8145-26.5625 61.084-27.832 61.084-29.3945C61.084-30.957 59.8145-32.2266 58.252-32.2266Z"/>
   <path class="monochrome-1 multicolor-1:tintColor hierarchical-1:secondary SFSymbolsPreview007AFF" d="M48.4375-15.8203C50.1465-15.8203 51.416-17.1875 51.416-18.8477C51.416-20.5566 50.1465-21.8262 48.4375-21.8262C46.7773-21.8262 45.4102-20.5566 45.4102-18.8477C45.4102-17.1875 46.7773-15.8203 48.4375-15.8203ZM22.2656-15.8203C23.9746-15.8203 25.2441-17.1875 25.2441-18.8477C25.2441-20.5566 23.9746-21.8262 22.2656-21.8262C20.6055-21.8262 19.2871-20.5566 19.2871-18.8477C19.2871-17.1875 20.6055-15.8203 22.2656-15.8203ZM35.3516-15.8203C37.0605-15.8203 38.3301-17.1875 38.3301-18.8477C38.3301-20.5566 37.0605-21.8262 35.3516-21.8262C33.6914-21.8262 32.373-20.5566 32.373-18.8477C32.373-17.1875 33.6914-15.8203 35.3516-15.8203Z"/>
   <path class="monochrome-2 multicolor-2:tintColor hierarchical-2:secondary SFSymbolsPreview007AFF" d="M48.4375-5.37109C50.1465-5.37109 51.416-6.68945 51.416-8.34961C51.416-10.0586 50.1465-11.3281 48.4375-11.3281C46.7773-11.3281 45.4102-10.0586 45.4102-8.34961C45.4102-6.68945 46.7773-5.37109 48.4375-5.37109ZM22.2656-5.37109C23.9746-5.37109 25.2441-6.68945 25.2441-8.34961C25.2441-10.0586 23.9746-11.3281 22.2656-11.3281C20.6055-11.3281 19.2871-10.0586 19.2871-8.34961C19.2871-6.68945 20.6055-5.37109 22.2656-5.37109ZM35.3516-5.37109C37.0605-5.37109 38.3301-6.68945 38.3301-8.34961C38.3301-10.0586 37.0605-11.3281 35.3516-11.3281C33.6914-11.3281 32.373-10.0586 32.373-8.34961C32.373-6.68945 33.6914-5.37109 35.3516-5.37109Z"/>
   <path class="monochrome-3 multicolor-3:tintColor hierarchical-3:secondary SFSymbolsPreview007AFF" d="M48.4375 5.12695C50.1465 5.12695 51.416 3.80859 51.416 2.09961C51.416 0.439453 50.1465-0.830078 48.4375-0.830078C46.7773-0.830078 45.4102 0.439453 45.4102 2.09961C45.4102 3.80859 46.7773 5.12695 48.4375 5.12695ZM22.2656 5.12695C23.9746 5.12695 25.2441 3.80859 25.2441 2.09961C25.2441 0.439453 23.9746-0.830078 22.2656-0.830078C20.6055-0.830078 19.2871 0.439453 19.2871 2.09961C19.2871 3.80859 20.6055 5.12695 22.2656 5.12695ZM35.3516 5.12695C37.0605 5.12695 38.3301 3.80859 38.3301 2.09961C38.3301 0.439453 37.0605-0.830078 35.3516-0.830078C33.6914-0.830078 32.373 0.439453 32.373 2.09961C32.373 3.80859 33.6914 5.12695 35.3516 5.12695Z"/>
  </g>
  <g id="Ultralight-S" transform="matrix(1 0 0 1 524.26 696)">
   <path class="monochrome-0 multicolor-0:tintColor hierarchical-0:primary SFSymbolsPreview007AFF" d="M46.2286-72.0059L35.8736-72.0059C31.5249-72.0059 28.7686-69.3472 28.7686-65.0996L28.7686-59.0356L30.9556-59.0356L30.9556-65.0996C30.9556-67.9736 32.8531-69.7734 35.8736-69.7734L46.2286-69.7734C53.7222-69.7734 58.9537-64.1514 58.9537-56.1592L58.9537 0.357449C58.9537 0.990272 59.4127 1.45268 60.0455 1.45268C60.6329 1.45268 61.1373 0.990272 61.1373 0.357449L61.1373-56.1592C61.1373-65.4761 55.047-72.0059 46.2286-72.0059ZM29.8604-57.8467C32.6651-57.8467 34.8213-55.7358 34.8213-52.9346L34.8213-48.0024C41.4327-46.0527 46.084-39.8018 46.084-32.811L48.2584-32.811C48.2584-40.0142 43.607-46.9434 36.9434-49.5576L36.9434-52.9346C36.9434-56.8697 33.8477-59.9688 29.8604-59.9688C25.9185-59.9688 22.8262-56.8697 22.8262-52.9346L22.8262-49.5576C16.1626-46.9434 11.4658-40.0142 11.4658-32.811L13.6822-32.811C13.6822-39.8018 18.3335-46.0981 24.9449-48.0024L24.9449-52.9346C24.9449-55.7358 27.1045-57.8467 29.8604-57.8467ZM10.8267-33.1802C10.3086-33.1802 9.76562-32.6826 9.76562-32.1191C9.76562-31.5556 10.3086-31.0581 10.8267-31.0581L48.9429-31.0581C49.461-31.0581 50.004-31.5556 50.004-32.1191C50.004-32.6826 49.461-33.1802 48.9429-33.1802Z"/>
   <path class="monochrome-1 multicolor-1:tintColor hierarchical-1:secondary SFSymbolsPreview007AFF" d="M41.1719-22.0869C42.2452-22.0869 43.1514-23 43.1514-24.1152C43.1514-25.1884 42.2452-26.0947 41.1719-26.0947C40.0567-26.0947 39.1436-25.1884 39.1436-24.1152C39.1436-23 40.0567-22.0869 41.1719-22.0869ZM18.4966-22.0869C19.6153-22.0869 20.5215-23 20.5215-24.1152C20.5215-25.1884 19.6153-26.0947 18.4966-26.0947C17.3814-26.0947 16.5171-25.1884 16.5171-24.1152C16.5171-23 17.3814-22.0869 18.4966-22.0869ZM29.8116-22.0869C30.9302-22.0869 31.8365-23 31.8365-24.1152C31.8365-25.1884 30.9302-26.0947 29.8116-26.0947C28.7417-26.0947 27.8321-25.1884 27.8321-24.1152C27.8321-23 28.7417-22.0869 29.8116-22.0869Z"/>
   <path class="monochrome-2 multicolor-2:tintColor hierarchical-2:secondary SFSymbolsPreview007AFF" d="M41.1719-11.7285C42.2452-11.7285 43.1514-12.6381 43.1514-13.7534C43.1514-14.8266 42.2452-15.7329 41.1719-15.7329C40.0567-15.7329 39.1436-14.8266 39.1436-13.7534C39.1436-12.6381 40.0567-11.7285 41.1719-11.7285ZM18.4966-11.7285C19.6153-11.7285 20.5215-12.6381 20.5215-13.7534C20.5215-14.8266 19.6153-15.7329 18.4966-15.7329C17.3814-15.7329 16.5171-14.8266 16.5171-13.7534C16.5171-12.6381 17.3814-11.7285 18.4966-11.7285ZM29.8116-11.7285C30.9302-11.7285 31.8365-12.6381 31.8365-13.7534C31.8365-14.8266 30.9302-15.7329 29.8116-15.7329C28.7417-15.7329 27.8321-14.8266 27.8321-13.7534C27.8321-12.6381 28.7417-11.7285 29.8116-11.7285Z"/>
   <path class="monochrome-3 multicolor-3:tintColor hierarchical-3:secondary SFSymbolsPreview007AFF" d="M41.1719-1.36665C42.2452-1.36665 43.1514-2.27632 43.1514-3.39498C43.1514-4.46481 42.2452-5.37106 41.1719-5.37106C40.0567-5.37106 39.1436-4.46481 39.1436-3.39498C39.1436-2.27632 40.0567-1.36665 41.1719-1.36665ZM18.4966-1.36665C19.6153-1.36665 20.5215-2.27632 20.5215-3.39498C20.5215-4.46481 19.6153-5.37106 18.4966-5.37106C17.3814-5.37106 16.5171-4.46481 16.5171-3.39498C16.5171-2.27632 17.3814-1.36665 18.4966-1.36665ZM29.8116-1.36665C30.9302-1.36665 31.8365-2.27632 31.8365-3.39498C31.8365-4.46481 30.9302-5.37106 29.8116-5.37106C28.7417-5.37106 27.8321-4.46481 27.8321-3.39498C27.8321-2.27632 28.7417-1.36665 29.8116-1.36665Z"/>
  </g>
 </g>
</svg>
