<?xml version="1.0" encoding="UTF-8"?>
<!--Generator: Apple Native CoreSVG 175.5-->
<!DOCTYPE svg
PUBLIC "-//W3C//DTD SVG 1.1//EN"
       "http://www.w3.org/Graphics/SVG/1.1/DTD/svg11.dtd">
<svg version="1.1" xmlns="http://www.w3.org/2000/svg" xmlns:xlink="http://www.w3.org/1999/xlink" width="3300" height="2200">
 <!--glyph: "uni1015CB.medium", point size: 100.0, font version: "18.0d11e1", template writer version: "90"-->
 <style>.monochrome-0 {fill:#000000}

.SFSymbolsPreview000000 {fill:#000000;opacity:1.0}
</style>
 <g id="Notes">
  <rect height="2200" id="artboard" style="fill:white;opacity:1" width="3300" x="0" y="0"/>
  <line style="fill:none;stroke:black;opacity:1;stroke-width:0.5;" x1="263" x2="3036" y1="292" y2="292"/>
  <text style="stroke:none;fill:black;font-family:sans-serif;font-size:13;font-weight:bold;" transform="matrix(1 0 0 1 263 322)">Weight/Scale Variations</text>
  <text style="stroke:none;fill:black;font-family:sans-serif;font-size:13;text-anchor:middle;" transform="matrix(1 0 0 1 559.711 322)">Ultralight</text>
  <text style="stroke:none;fill:black;font-family:sans-serif;font-size:13;text-anchor:middle;" transform="matrix(1 0 0 1 856.422 322)">Thin</text>
  <text style="stroke:none;fill:black;font-family:sans-serif;font-size:13;text-anchor:middle;" transform="matrix(1 0 0 1 1153.13 322)">Light</text>
  <text style="stroke:none;fill:black;font-family:sans-serif;font-size:13;text-anchor:middle;" transform="matrix(1 0 0 1 1449.84 322)">Regular</text>
  <text style="stroke:none;fill:black;font-family:sans-serif;font-size:13;text-anchor:middle;" transform="matrix(1 0 0 1 1746.56 322)">Medium</text>
  <text style="stroke:none;fill:black;font-family:sans-serif;font-size:13;text-anchor:middle;" transform="matrix(1 0 0 1 2043.27 322)">Semibold</text>
  <text style="stroke:none;fill:black;font-family:sans-serif;font-size:13;text-anchor:middle;" transform="matrix(1 0 0 1 2339.98 322)">Bold</text>
  <text style="stroke:none;fill:black;font-family:sans-serif;font-size:13;text-anchor:middle;" transform="matrix(1 0 0 1 2636.69 322)">Heavy</text>
  <text style="stroke:none;fill:black;font-family:sans-serif;font-size:13;text-anchor:middle;" transform="matrix(1 0 0 1 2933.4 322)">Black</text>
  <line style="fill:none;stroke:black;opacity:1;stroke-width:0.5;" x1="263" x2="3036" y1="1903" y2="1903"/>
  <g transform="matrix(1 0 0 1 263 1933)">
   <path d="M9.24805 0.830078C13.5547 0.830078 17.1387-2.74414 17.1387-7.05078C17.1387-11.3574 13.5449-14.9316 9.23828-14.9316C4.94141-14.9316 1.36719-11.3574 1.36719-7.05078C1.36719-2.74414 4.95117 0.830078 9.24805 0.830078ZM9.24805-0.654297C5.70312-0.654297 2.87109-3.49609 2.87109-7.05078C2.87109-10.6055 5.69336-13.4473 9.23828-13.4473C12.793-13.4473 15.6445-10.6055 15.6445-7.05078C15.6445-3.49609 12.8027-0.654297 9.24805-0.654297ZM5.6543-7.05078C5.6543-6.62109 5.95703-6.32812 6.40625-6.32812L8.50586-6.32812L8.50586-4.20898C8.50586-3.76953 8.79883-3.4668 9.22852-3.4668C9.67773-3.4668 9.9707-3.76953 9.9707-4.20898L9.9707-6.32812L12.0898-6.32812C12.5293-6.32812 12.832-6.62109 12.832-7.05078C12.832-7.49023 12.5293-7.79297 12.0898-7.79297L9.9707-7.79297L9.9707-9.90234C9.9707-10.3516 9.67773-10.6543 9.22852-10.6543C8.79883-10.6543 8.50586-10.3516 8.50586-9.90234L8.50586-7.79297L6.40625-7.79297C5.95703-7.79297 5.6543-7.49023 5.6543-7.05078Z"/>
  </g>
  <g transform="matrix(1 0 0 1 281.867 1933)">
   <path d="M11.709 2.91016C17.1582 2.91016 21.6699-1.61133 21.6699-7.05078C21.6699-12.5 17.1484-17.0117 11.6992-17.0117C6.25977-17.0117 1.74805-12.5 1.74805-7.05078C1.74805-1.61133 6.26953 2.91016 11.709 2.91016ZM11.709 1.25C7.09961 1.25 3.41797-2.44141 3.41797-7.05078C3.41797-11.6602 7.08984-15.3516 11.6992-15.3516C16.3086-15.3516 20.0098-11.6602 20.0098-7.05078C20.0098-2.44141 16.3184 1.25 11.709 1.25ZM7.17773-7.05078C7.17773-6.57227 7.50977-6.25 8.00781-6.25L10.8789-6.25L10.8789-3.36914C10.8789-2.88086 11.2109-2.53906 11.6895-2.53906C12.1777-2.53906 12.5195-2.87109 12.5195-3.36914L12.5195-6.25L15.4004-6.25C15.8887-6.25 16.2305-6.57227 16.2305-7.05078C16.2305-7.53906 15.8887-7.88086 15.4004-7.88086L12.5195-7.88086L12.5195-10.752C12.5195-11.25 12.1777-11.5918 11.6895-11.5918C11.2109-11.5918 10.8789-11.25 10.8789-10.752L10.8789-7.88086L8.00781-7.88086C7.50977-7.88086 7.17773-7.53906 7.17773-7.05078Z"/>
  </g>
  <g transform="matrix(1 0 0 1 305.646 1933)">
   <path d="M14.9707 5.66406C21.9336 5.66406 27.6953-0.0976562 27.6953-7.05078C27.6953-14.0137 21.9238-19.7754 14.9609-19.7754C8.00781-19.7754 2.25586-14.0137 2.25586-7.05078C2.25586-0.0976562 8.01758 5.66406 14.9707 5.66406ZM14.9707 3.84766C8.93555 3.84766 4.08203-1.01562 4.08203-7.05078C4.08203-13.0957 8.92578-17.9492 14.9609-17.9492C21.0059-17.9492 25.8691-13.0957 25.8691-7.05078C25.8691-1.01562 21.0156 3.84766 14.9707 3.84766ZM9.19922-7.05078C9.19922-6.5332 9.57031-6.17188 10.1172-6.17188L14.0625-6.17188L14.0625-2.2168C14.0625-1.67969 14.4336-1.29883 14.9512-1.29883C15.4883-1.29883 15.8594-1.66992 15.8594-2.2168L15.8594-6.17188L19.8145-6.17188C20.3516-6.17188 20.7324-6.5332 20.7324-7.05078C20.7324-7.59766 20.3613-7.96875 19.8145-7.96875L15.8594-7.96875L15.8594-11.9141C15.8594-12.4609 15.4883-12.8418 14.9512-12.8418C14.4336-12.8418 14.0625-12.4609 14.0625-11.9141L14.0625-7.96875L10.1172-7.96875C9.57031-7.96875 9.19922-7.59766 9.19922-7.05078Z"/>
  </g>
  <text style="stroke:none;fill:black;font-family:sans-serif;font-size:13;font-weight:bold;" transform="matrix(1 0 0 1 263 1953)">Design Variations</text>
  <text style="stroke:none;fill:black;font-family:sans-serif;font-size:13;" transform="matrix(1 0 0 1 263 1971)">Symbols are supported in up to nine weights and three scales.</text>
  <text style="stroke:none;fill:black;font-family:sans-serif;font-size:13;" transform="matrix(1 0 0 1 263 1989)">For optimal layout with text and other symbols, vertically align</text>
  <text style="stroke:none;fill:black;font-family:sans-serif;font-size:13;" transform="matrix(1 0 0 1 263 2007)">symbols with the adjacent text.</text>
  <line style="fill:none;stroke:#00AEEF;stroke-width:0.5;opacity:1.0;" x1="776" x2="776" y1="1919" y2="1933"/>
  <g transform="matrix(1 0 0 1 776 1933)">
   <path d="M3.31055 0.15625C3.82812 0.15625 4.08203-0.0390625 4.26758-0.585938L5.52734-4.0332L11.2891-4.0332L12.5488-0.585938C12.7344-0.0390625 12.9883 0.15625 13.4961 0.15625C14.0137 0.15625 14.3457-0.15625 14.3457-0.644531C14.3457-0.810547 14.3164-0.966797 14.2383-1.17188L9.6582-13.3691C9.43359-13.9648 9.0332-14.2676 8.4082-14.2676C7.80273-14.2676 7.39258-13.9746 7.17773-13.3789L2.59766-1.16211C2.51953-0.957031 2.49023-0.800781 2.49023-0.634766C2.49023-0.146484 2.80273 0.15625 3.31055 0.15625ZM6.00586-5.51758L8.37891-12.0898L8.42773-12.0898L10.8008-5.51758Z"/>
  </g>
  <line style="fill:none;stroke:#00AEEF;stroke-width:0.5;opacity:1.0;" x1="793.197" x2="793.197" y1="1919" y2="1933"/>
  <text style="stroke:none;fill:black;font-family:sans-serif;font-size:13;font-weight:bold;" transform="matrix(1 0 0 1 776 1953)">Margins</text>
  <text style="stroke:none;fill:black;font-family:sans-serif;font-size:13;" transform="matrix(1 0 0 1 776 1971)">Leading and trailing margins on the left and right side of each symbol</text>
  <text style="stroke:none;fill:black;font-family:sans-serif;font-size:13;" transform="matrix(1 0 0 1 776 1989)">can be adjusted by modifying the x-location of the margin guidelines.</text>
  <text style="stroke:none;fill:black;font-family:sans-serif;font-size:13;" transform="matrix(1 0 0 1 776 2007)">Modifications are automatically applied proportionally to all</text>
  <text style="stroke:none;fill:black;font-family:sans-serif;font-size:13;" transform="matrix(1 0 0 1 776 2025)">scales and weights.</text>
  <g transform="matrix(1 0 0 1 1289 1933)">
   <path d="M2.8418 1.86523L4.54102 3.57422C5.40039 4.44336 6.38672 4.38477 7.31445 3.35938L18.0078-8.42773L17.041-9.4043L6.42578 2.27539C6.07422 2.67578 5.74219 2.77344 5.27344 2.30469L4.10156 1.14258C3.63281 0.683594 3.74023 0.341797 4.14062-0.0195312L15.6152-10.8203L14.6387-11.7871L3.04688-0.898438C2.06055 0.0195312 1.98242 0.996094 2.8418 1.86523ZM9.25781-16.3281C8.83789-15.918 8.80859-15.3418 9.04297-14.9512C9.27734-14.5898 9.73633-14.3555 10.3809-14.5215C11.8457-14.8633 13.3691-14.9219 14.7949-13.9844L14.209-12.5293C13.8672-11.6992 14.043-11.1133 14.5801-10.5664L16.875-8.25195C17.3633-7.76367 17.7734-7.74414 18.3398-7.8418L19.4043-8.03711L20.0684-7.36328L20.0293-6.80664C19.9902-6.30859 20.1172-5.92773 20.6055-5.44922L21.3672-4.70703C21.8457-4.22852 22.4609-4.19922 22.9297-4.66797L25.8398-7.58789C26.3086-8.05664 26.2891-8.65234 25.8105-9.13086L25.0391-9.89258C24.5605-10.3711 24.1895-10.5273 23.7109-10.4883L23.1348-10.4395L22.4902-11.0742L22.7344-12.1973C22.8613-12.7637 22.7051-13.2031 22.1191-13.7891L19.9219-15.9766C16.582-19.2969 12.1484-19.2188 9.25781-16.3281ZM10.752-15.957C13.1836-17.7344 16.4746-17.4316 18.7012-15.2051L21.1328-12.793C21.3672-12.5586 21.4062-12.373 21.3379-12.0312L21.0156-10.5469L22.5195-9.0625L23.5059-9.12109C23.7598-9.13086 23.8379-9.11133 24.0332-8.91602L24.6094-8.33984L22.168-5.89844L21.5918-6.47461C21.3965-6.66992 21.3672-6.74805 21.377-7.01172L21.4453-7.98828L19.9512-9.47266L18.4277-9.21875C18.1055-9.15039 17.959-9.17969 17.7148-9.41406L15.7129-11.416C15.459-11.6504 15.4297-11.8164 15.5859-12.1875L16.4648-14.2773C14.9023-15.7324 12.8711-16.3574 10.8398-15.7617C10.6836-15.7227 10.625-15.8496 10.752-15.957Z"/>
  </g>
  <text style="stroke:none;fill:black;font-family:sans-serif;font-size:13;font-weight:bold;" transform="matrix(1 0 0 1 1289 1953)">Exporting</text>
  <text style="stroke:none;fill:black;font-family:sans-serif;font-size:13;" transform="matrix(1 0 0 1 1289 1971)">Symbols should be outlined when exporting to ensure the</text>
  <text style="stroke:none;fill:black;font-family:sans-serif;font-size:13;" transform="matrix(1 0 0 1 1289 1989)">design is preserved when submitting to Xcode.</text>
  <text id="template-version" style="stroke:none;fill:black;font-family:sans-serif;font-size:13;text-anchor:end;" transform="matrix(1 0 0 1 3036 1933)">Template v.4.0</text>
  <text style="stroke:none;fill:black;font-family:sans-serif;font-size:13;text-anchor:end;" transform="matrix(1 0 0 1 3036 1951)">Requires Xcode 14 or greater</text>
  <text id="descriptive-name" style="stroke:none;fill:black;font-family:sans-serif;font-size:13;text-anchor:end;" transform="matrix(1 0 0 1 3036 1969)">Generated from football</text>
  <text style="stroke:none;fill:black;font-family:sans-serif;font-size:13;text-anchor:end;" transform="matrix(1 0 0 1 3036 1987)">Typeset at 100 points</text>
  <text style="stroke:none;fill:black;font-family:sans-serif;font-size:13;" transform="matrix(1 0 0 1 263 726)">Small</text>
  <text style="stroke:none;fill:black;font-family:sans-serif;font-size:13;" transform="matrix(1 0 0 1 263 1156)">Medium</text>
  <text style="stroke:none;fill:black;font-family:sans-serif;font-size:13;" transform="matrix(1 0 0 1 263 1586)">Large</text>
 </g>
 <g id="Guides">
  <g id="H-reference" style="fill:#27AAE1;stroke:none;" transform="matrix(1 0 0 1 339 696)">
   <path d="M0.993654 0L3.63775 0L29.3281-67.1323L30.0303-67.1323L30.0303-70.459L28.1226-70.459ZM11.6885-24.4799L46.9815-24.4799L46.2315-26.7285L12.4385-26.7285ZM55.1196 0L57.7637 0L30.6382-70.459L29.4326-70.459L29.4326-67.1323Z"/>
  </g>
  <line id="Baseline-S" style="fill:none;stroke:#27AAE1;opacity:1;stroke-width:0.5;" x1="263" x2="3036" y1="696" y2="696"/>
  <line id="Capline-S" style="fill:none;stroke:#27AAE1;opacity:1;stroke-width:0.5;" x1="263" x2="3036" y1="625.541" y2="625.541"/>
  <g id="H-reference" style="fill:#27AAE1;stroke:none;" transform="matrix(1 0 0 1 339 1126)">
   <path d="M0.993654 0L3.63775 0L29.3281-67.1323L30.0303-67.1323L30.0303-70.459L28.1226-70.459ZM11.6885-24.4799L46.9815-24.4799L46.2315-26.7285L12.4385-26.7285ZM55.1196 0L57.7637 0L30.6382-70.459L29.4326-70.459L29.4326-67.1323Z"/>
  </g>
  <line id="Baseline-M" style="fill:none;stroke:#27AAE1;opacity:1;stroke-width:0.5;" x1="263" x2="3036" y1="1126" y2="1126"/>
  <line id="Capline-M" style="fill:none;stroke:#27AAE1;opacity:1;stroke-width:0.5;" x1="263" x2="3036" y1="1055.54" y2="1055.54"/>
  <g id="H-reference" style="fill:#27AAE1;stroke:none;" transform="matrix(1 0 0 1 339 1556)">
   <path d="M0.993654 0L3.63775 0L29.3281-67.1323L30.0303-67.1323L30.0303-70.459L28.1226-70.459ZM11.6885-24.4799L46.9815-24.4799L46.2315-26.7285L12.4385-26.7285ZM55.1196 0L57.7637 0L30.6382-70.459L29.4326-70.459L29.4326-67.1323Z"/>
  </g>
  <line id="Baseline-L" style="fill:none;stroke:#27AAE1;opacity:1;stroke-width:0.5;" x1="263" x2="3036" y1="1556" y2="1556"/>
  <line id="Capline-L" style="fill:none;stroke:#27AAE1;opacity:1;stroke-width:0.5;" x1="263" x2="3036" y1="1485.54" y2="1485.54"/>
  <line id="left-margin-Ultralight-S" style="fill:none;stroke:#00AEEF;stroke-width:0.5;opacity:1.0;" x1="514.02" x2="514.02" y1="600.785" y2="720.121"/>
  <line id="right-margin-Ultralight-S" style="fill:none;stroke:#00AEEF;stroke-width:0.5;opacity:1.0;" x1="605.402" x2="605.402" y1="600.785" y2="720.121"/>
  <line id="left-margin-Regular-S" style="fill:none;stroke:#00AEEF;stroke-width:0.5;opacity:1.0;" x1="1401.72" x2="1401.72" y1="600.785" y2="720.121"/>
  <line id="right-margin-Regular-S" style="fill:none;stroke:#00AEEF;stroke-width:0.5;opacity:1.0;" x1="1497.96" x2="1497.96" y1="600.785" y2="720.121"/>
  <line id="left-margin-Black-S" style="fill:none;stroke:#00AEEF;stroke-width:0.5;opacity:1.0;" x1="2882.67" x2="2882.67" y1="600.785" y2="720.121"/>
  <line id="right-margin-Black-S" style="fill:none;stroke:#00AEEF;stroke-width:0.5;opacity:1.0;" x1="2984.13" x2="2984.13" y1="600.785" y2="720.121"/>
 </g>
 <g id="Symbols">
  <g id="Black-S" transform="matrix(1 0 0 1 2882.67 696)">
   <path class="monochrome-0 SFSymbolsPreview000000" d="M74.707-11.2793C90.3809-26.9531 95.8984-49.3652 90.8691-66.5039C89.3066-71.7285 87.207-73.8281 81.9824-75.3906C64.8438-80.4199 42.4316-74.9023 26.7578-59.2285C11.084-43.5547 5.56641-21.1426 10.5957-4.00391C12.1582 1.2207 14.2578 3.32031 19.4824 4.88281C36.6211 9.91211 59.0332 4.39453 74.707-11.2793ZM66.9434-19.043C54.3945-6.49414 38.4766-1.75781 22.998-5.71289C21.5332-6.00586 21.5332-6.00586 21.0938-7.71484C17.334-23.1445 22.0215-38.9648 34.5215-51.4648C47.0215-63.9648 62.8418-68.6523 78.2715-64.8926C79.9805-64.4531 79.9805-64.4531 80.2734-62.9883C84.2285-47.5098 79.4922-31.5918 66.9434-19.043ZM11.4258-27.1484L42.8223 4.19922L50.5859-3.56445L19.2383-34.9609ZM58.8379-74.5605L51.0254-66.748L82.4219-35.4004L90.1855-43.1641ZM40.5762-21.0449L64.9414-45.4102L60.8887-49.4629L36.5234-25.0977ZM49.4629-43.457L58.9355-33.9844C60.0586-32.8613 61.8652-32.8613 62.9883-33.9844C64.1113-35.1074 64.1113-36.9141 62.9883-38.0371L53.5156-47.5098C52.3926-48.6328 50.5859-48.6328 49.4629-47.5098C48.3398-46.3867 48.3398-44.5801 49.4629-43.457ZM38.5742-32.5684L48.0469-23.0957C49.1211-21.9727 50.9766-21.9727 52.0996-23.0957C53.2227-24.1699 53.2227-26.0254 52.0996-27.1484L42.627-36.6211C41.5039-37.7441 39.6484-37.7441 38.5742-36.6211C37.4512-35.498 37.4512-33.6426 38.5742-32.5684ZM33.1543-27.1484L42.627-17.6758C43.75-16.5527 45.5566-16.5527 46.6797-17.6758C47.8027-18.7988 47.8027-20.6055 46.6797-21.7285L37.207-31.2012C36.084-32.3242 34.2773-32.3242 33.1543-31.2012C32.0312-30.0781 32.0312-28.2715 33.1543-27.1484ZM54.8828-48.877L64.3555-39.4043C65.4297-38.2812 67.2852-38.2812 68.4082-39.4043C69.5312-40.4785 69.5312-42.334 68.4082-43.457L58.9355-52.9297C57.8125-54.0527 55.957-54.0527 54.8828-52.9297C53.7598-51.8066 53.7598-49.9512 54.8828-48.877ZM43.9453-37.9395L53.418-28.4668C54.541-27.3926 56.3965-27.3926 57.5195-28.4668C58.5938-29.5898 58.5938-31.4453 57.5195-32.5684L48.0469-42.041C46.9238-43.1152 45.0684-43.1152 43.9453-42.041C42.8711-40.918 42.8711-39.0625 43.9453-37.9395Z"/>
  </g>
  <g id="Regular-S" transform="matrix(1 0 0 1 1401.72 696)">
   <path class="monochrome-0 SFSymbolsPreview000000" d="M70.3613-12.9883C85.3027-27.9297 90.5273-49.2188 85.6934-65.3809C84.3262-69.9219 82.8125-71.4355 78.2227-72.8516C62.0605-77.6367 40.8203-72.4121 25.8301-57.5195C10.9375-42.5781 5.71289-21.2891 10.498-5.12695C11.9141-0.585938 13.4277 0.927734 17.9688 2.34375C34.1797 7.12891 55.4199 1.9043 70.3613-12.9883ZM65.2344-18.1641C52.5879-5.41992 36.084-0.537109 20.4102-4.58984C18.457-5.07812 17.9199-5.61523 17.3828-7.76367C13.5254-23.3398 18.3105-39.7461 31.0059-52.3438C43.6523-65.0879 60.0098-69.873 75.6348-66.0156C77.7344-65.4297 78.3203-64.8926 78.7598-62.9395C82.8125-47.2656 77.9297-30.7617 65.2344-18.1641ZM12.3047-28.7109L41.6992 0.732422L47.168-4.73633L17.7246-34.1309ZM54.6387-71.0449L49.2188-65.625L78.6133-36.1816L84.082-41.6504ZM38.7695-23.3398L60.0098-44.5801L57.4219-47.168L36.2305-25.9277ZM48.2422-42.7246L55.5664-35.3516C56.2988-34.668 57.4707-34.668 58.2031-35.3516C58.9355-36.084 58.9355-37.2559 58.2031-37.9395L50.8301-45.3613C50.0977-46.0449 48.9258-46.0449 48.2422-45.3613C47.5098-44.6289 47.5098-43.457 48.2422-42.7246ZM38.1836-32.7637L45.6055-25.3418C46.3379-24.6094 47.4609-24.6094 48.1934-25.3418C48.877-26.0742 48.877-27.2461 48.1934-27.9785L40.8203-35.3027C40.0879-36.0352 38.916-36.0352 38.1836-35.3027C37.5-34.6191 37.5-33.4473 38.1836-32.7637ZM33.2031-27.7344L40.5762-20.3125C41.3086-19.6289 42.4316-19.6289 43.1641-20.3125C43.8477-21.0449 43.8477-22.2168 43.1641-22.9492L35.791-30.3223C35.1074-31.0059 33.8867-31.0059 33.2031-30.3223C32.4707-29.5898 32.4707-28.418 33.2031-27.7344ZM53.2715-47.7539L60.5957-40.3809C61.3281-39.6973 62.5-39.6973 63.2324-40.3809C63.916-41.1133 63.916-42.2363 63.2324-42.9688L55.8105-50.3906C55.127-51.0742 53.9551-51.0742 53.2715-50.3906C52.5391-49.6582 52.5391-48.4863 53.2715-47.7539ZM43.2129-37.7441L50.6348-30.3711C51.3184-29.6387 52.4902-29.6387 53.1738-30.3711C53.9062-31.0547 53.9062-32.2754 53.1738-32.9102L45.8008-40.332C45.1172-41.0645 43.9453-41.0645 43.2129-40.332C42.4805-39.5996 42.4805-38.4766 43.2129-37.7441Z"/>
  </g>
  <g id="Ultralight-S" transform="matrix(1 0 0 1 514.02 696)">
   <path class="monochrome-0 SFSymbolsPreview000000" d="M66.229-14.7139C80.5801-29.1103 85.7139-49.0371 80.6529-65.3809C79.649-68.5596 79.0435-69.2105 75.8613-70.2178C59.563-75.3208 39.5488-70.187 25.1035-55.7485C10.7559-41.3521 5.62207-21.3345 10.7251-5.03613C11.687-1.90282 12.3379-1.20653 15.5166-0.244609C31.9092 4.81301 51.7871-0.275373 66.229-14.7139ZM64.644-16.2569C50.6807-2.33206 32.0425 2.45994 16.187-2.36476C13.5982-3.1255 13.606-3.16311 12.8418-5.72023C7.93999-21.478 12.7706-40.2456 26.6919-54.2056C40.6553-68.1303 59.374-72.9609 75.1353-68.1045C77.7344-67.2915 77.73-67.2539 78.5781-64.7104C83.4028-48.9004 78.5654-30.2168 64.644-16.2569ZM10.3975-29.5737L39.8374-0.0849545L42.0821-2.37502L12.6387-31.815ZM51.3238-70.5454L49.0825-68.2588L78.5225-38.8154L80.7671-41.0601ZM35.4092-23.4761L57.4214-45.4883L55.9688-46.9863L33.96-24.9287ZM46.1987-44.4956L54.8853-35.7603C55.3452-35.3945 55.9722-35.3945 56.4321-35.7603C56.8467-36.2202 56.8467-36.8472 56.4321-37.3037L47.6968-45.9971C47.2368-46.4082 46.6553-46.4082 46.1987-45.9971C45.8296-45.5825 45.8296-44.9556 46.1987-44.4956ZM34.8687-33.2178L43.6074-24.479C44.0674-24.1099 44.6909-24.1099 45.1055-24.479C45.5166-24.8936 45.5166-25.5659 45.1055-25.9805L36.4156-34.7124C35.9556-35.127 35.3286-35.127 34.8687-34.7124C34.503-34.3013 34.503-33.6289 34.8687-33.2178ZM29.2525-27.5527L37.9424-18.814C38.4024-18.4028 39.0259-18.4028 39.4859-18.814C39.8516-19.2739 39.8516-19.9009 39.4859-20.3609L30.7505-29.0508C30.294-29.4619 29.6636-29.4619 29.2525-29.0508C28.8379-28.6362 28.8379-28.0093 29.2525-27.5527ZM51.8638-50.1606L60.5957-41.4707C61.0103-41.0596 61.6372-41.0596 62.0518-41.4707C62.4629-41.8398 62.4629-42.5088 62.0518-42.9233L53.3584-51.7075C52.9473-52.0278 52.2749-52.0278 51.8638-51.7075C51.4492-51.2475 51.4492-50.6206 51.8638-50.1606ZM40.5337-38.8794L49.2725-30.144C49.6836-29.7295 50.356-29.7295 50.8125-30.144C51.1363-30.6006 51.1363-31.1856 50.8125-31.6387L42.0318-40.3774C41.6206-40.7466 40.9483-40.7466 40.5337-40.3774C40.1646-39.9175 40.1646-39.2939 40.5337-38.8794Z"/>
  </g>
 </g>
</svg>
