<?xml version="1.0" encoding="UTF-8"?>
<!--Generator: Apple Native CoreSVG 175.5-->
<!DOCTYPE svg
PUBLIC "-//W3C//DTD SVG 1.1//EN"
       "http://www.w3.org/Graphics/SVG/1.1/DTD/svg11.dtd">
<svg version="1.1" xmlns="http://www.w3.org/2000/svg" xmlns:xlink="http://www.w3.org/1999/xlink" width="3300" height="2200">
 <!--glyph: "uni1013B6.medium", point size: 100.0, font version: "18.0d11e1", template writer version: "90"-->
 <style>.monochrome-0 {fill:#000000}

.SFSymbolsPreview000000 {fill:#000000;opacity:1.0}
</style>
 <g id="Notes">
  <rect height="2200" id="artboard" style="fill:white;opacity:1" width="3300" x="0" y="0"/>
  <line style="fill:none;stroke:black;opacity:1;stroke-width:0.5;" x1="263" x2="3036" y1="292" y2="292"/>
  <text style="stroke:none;fill:black;font-family:sans-serif;font-size:13;font-weight:bold;" transform="matrix(1 0 0 1 263 322)">Weight/Scale Variations</text>
  <text style="stroke:none;fill:black;font-family:sans-serif;font-size:13;text-anchor:middle;" transform="matrix(1 0 0 1 559.711 322)">Ultralight</text>
  <text style="stroke:none;fill:black;font-family:sans-serif;font-size:13;text-anchor:middle;" transform="matrix(1 0 0 1 856.422 322)">Thin</text>
  <text style="stroke:none;fill:black;font-family:sans-serif;font-size:13;text-anchor:middle;" transform="matrix(1 0 0 1 1153.13 322)">Light</text>
  <text style="stroke:none;fill:black;font-family:sans-serif;font-size:13;text-anchor:middle;" transform="matrix(1 0 0 1 1449.84 322)">Regular</text>
  <text style="stroke:none;fill:black;font-family:sans-serif;font-size:13;text-anchor:middle;" transform="matrix(1 0 0 1 1746.56 322)">Medium</text>
  <text style="stroke:none;fill:black;font-family:sans-serif;font-size:13;text-anchor:middle;" transform="matrix(1 0 0 1 2043.27 322)">Semibold</text>
  <text style="stroke:none;fill:black;font-family:sans-serif;font-size:13;text-anchor:middle;" transform="matrix(1 0 0 1 2339.98 322)">Bold</text>
  <text style="stroke:none;fill:black;font-family:sans-serif;font-size:13;text-anchor:middle;" transform="matrix(1 0 0 1 2636.69 322)">Heavy</text>
  <text style="stroke:none;fill:black;font-family:sans-serif;font-size:13;text-anchor:middle;" transform="matrix(1 0 0 1 2933.4 322)">Black</text>
  <line style="fill:none;stroke:black;opacity:1;stroke-width:0.5;" x1="263" x2="3036" y1="1903" y2="1903"/>
  <g transform="matrix(1 0 0 1 263 1933)">
   <path d="M9.24805 0.830078C13.5547 0.830078 17.1387-2.74414 17.1387-7.05078C17.1387-11.3574 13.5449-14.9316 9.23828-14.9316C4.94141-14.9316 1.36719-11.3574 1.36719-7.05078C1.36719-2.74414 4.95117 0.830078 9.24805 0.830078ZM9.24805-0.654297C5.70312-0.654297 2.87109-3.49609 2.87109-7.05078C2.87109-10.6055 5.69336-13.4473 9.23828-13.4473C12.793-13.4473 15.6445-10.6055 15.6445-7.05078C15.6445-3.49609 12.8027-0.654297 9.24805-0.654297ZM5.6543-7.05078C5.6543-6.62109 5.95703-6.32812 6.40625-6.32812L8.50586-6.32812L8.50586-4.20898C8.50586-3.76953 8.79883-3.4668 9.22852-3.4668C9.67773-3.4668 9.9707-3.76953 9.9707-4.20898L9.9707-6.32812L12.0898-6.32812C12.5293-6.32812 12.832-6.62109 12.832-7.05078C12.832-7.49023 12.5293-7.79297 12.0898-7.79297L9.9707-7.79297L9.9707-9.90234C9.9707-10.3516 9.67773-10.6543 9.22852-10.6543C8.79883-10.6543 8.50586-10.3516 8.50586-9.90234L8.50586-7.79297L6.40625-7.79297C5.95703-7.79297 5.6543-7.49023 5.6543-7.05078Z"/>
  </g>
  <g transform="matrix(1 0 0 1 281.867 1933)">
   <path d="M11.709 2.91016C17.1582 2.91016 21.6699-1.61133 21.6699-7.05078C21.6699-12.5 17.1484-17.0117 11.6992-17.0117C6.25977-17.0117 1.74805-12.5 1.74805-7.05078C1.74805-1.61133 6.26953 2.91016 11.709 2.91016ZM11.709 1.25C7.09961 1.25 3.41797-2.44141 3.41797-7.05078C3.41797-11.6602 7.08984-15.3516 11.6992-15.3516C16.3086-15.3516 20.0098-11.6602 20.0098-7.05078C20.0098-2.44141 16.3184 1.25 11.709 1.25ZM7.17773-7.05078C7.17773-6.57227 7.50977-6.25 8.00781-6.25L10.8789-6.25L10.8789-3.36914C10.8789-2.88086 11.2109-2.53906 11.6895-2.53906C12.1777-2.53906 12.5195-2.87109 12.5195-3.36914L12.5195-6.25L15.4004-6.25C15.8887-6.25 16.2305-6.57227 16.2305-7.05078C16.2305-7.53906 15.8887-7.88086 15.4004-7.88086L12.5195-7.88086L12.5195-10.752C12.5195-11.25 12.1777-11.5918 11.6895-11.5918C11.2109-11.5918 10.8789-11.25 10.8789-10.752L10.8789-7.88086L8.00781-7.88086C7.50977-7.88086 7.17773-7.53906 7.17773-7.05078Z"/>
  </g>
  <g transform="matrix(1 0 0 1 305.646 1933)">
   <path d="M14.9707 5.66406C21.9336 5.66406 27.6953-0.0976562 27.6953-7.05078C27.6953-14.0137 21.9238-19.7754 14.9609-19.7754C8.00781-19.7754 2.25586-14.0137 2.25586-7.05078C2.25586-0.0976562 8.01758 5.66406 14.9707 5.66406ZM14.9707 3.84766C8.93555 3.84766 4.08203-1.01562 4.08203-7.05078C4.08203-13.0957 8.92578-17.9492 14.9609-17.9492C21.0059-17.9492 25.8691-13.0957 25.8691-7.05078C25.8691-1.01562 21.0156 3.84766 14.9707 3.84766ZM9.19922-7.05078C9.19922-6.5332 9.57031-6.17188 10.1172-6.17188L14.0625-6.17188L14.0625-2.2168C14.0625-1.67969 14.4336-1.29883 14.9512-1.29883C15.4883-1.29883 15.8594-1.66992 15.8594-2.2168L15.8594-6.17188L19.8145-6.17188C20.3516-6.17188 20.7324-6.5332 20.7324-7.05078C20.7324-7.59766 20.3613-7.96875 19.8145-7.96875L15.8594-7.96875L15.8594-11.9141C15.8594-12.4609 15.4883-12.8418 14.9512-12.8418C14.4336-12.8418 14.0625-12.4609 14.0625-11.9141L14.0625-7.96875L10.1172-7.96875C9.57031-7.96875 9.19922-7.59766 9.19922-7.05078Z"/>
  </g>
  <text style="stroke:none;fill:black;font-family:sans-serif;font-size:13;font-weight:bold;" transform="matrix(1 0 0 1 263 1953)">Design Variations</text>
  <text style="stroke:none;fill:black;font-family:sans-serif;font-size:13;" transform="matrix(1 0 0 1 263 1971)">Symbols are supported in up to nine weights and three scales.</text>
  <text style="stroke:none;fill:black;font-family:sans-serif;font-size:13;" transform="matrix(1 0 0 1 263 1989)">For optimal layout with text and other symbols, vertically align</text>
  <text style="stroke:none;fill:black;font-family:sans-serif;font-size:13;" transform="matrix(1 0 0 1 263 2007)">symbols with the adjacent text.</text>
  <line style="fill:none;stroke:#00AEEF;stroke-width:0.5;opacity:1.0;" x1="776" x2="776" y1="1919" y2="1933"/>
  <g transform="matrix(1 0 0 1 776 1933)">
   <path d="M3.31055 0.15625C3.82812 0.15625 4.08203-0.0390625 4.26758-0.585938L5.52734-4.0332L11.2891-4.0332L12.5488-0.585938C12.7344-0.0390625 12.9883 0.15625 13.4961 0.15625C14.0137 0.15625 14.3457-0.15625 14.3457-0.644531C14.3457-0.810547 14.3164-0.966797 14.2383-1.17188L9.6582-13.3691C9.43359-13.9648 9.0332-14.2676 8.4082-14.2676C7.80273-14.2676 7.39258-13.9746 7.17773-13.3789L2.59766-1.16211C2.51953-0.957031 2.49023-0.800781 2.49023-0.634766C2.49023-0.146484 2.80273 0.15625 3.31055 0.15625ZM6.00586-5.51758L8.37891-12.0898L8.42773-12.0898L10.8008-5.51758Z"/>
  </g>
  <line style="fill:none;stroke:#00AEEF;stroke-width:0.5;opacity:1.0;" x1="793.197" x2="793.197" y1="1919" y2="1933"/>
  <text style="stroke:none;fill:black;font-family:sans-serif;font-size:13;font-weight:bold;" transform="matrix(1 0 0 1 776 1953)">Margins</text>
  <text style="stroke:none;fill:black;font-family:sans-serif;font-size:13;" transform="matrix(1 0 0 1 776 1971)">Leading and trailing margins on the left and right side of each symbol</text>
  <text style="stroke:none;fill:black;font-family:sans-serif;font-size:13;" transform="matrix(1 0 0 1 776 1989)">can be adjusted by modifying the x-location of the margin guidelines.</text>
  <text style="stroke:none;fill:black;font-family:sans-serif;font-size:13;" transform="matrix(1 0 0 1 776 2007)">Modifications are automatically applied proportionally to all</text>
  <text style="stroke:none;fill:black;font-family:sans-serif;font-size:13;" transform="matrix(1 0 0 1 776 2025)">scales and weights.</text>
  <g transform="matrix(1 0 0 1 1289 1933)">
   <path d="M2.8418 1.86523L4.54102 3.57422C5.40039 4.44336 6.38672 4.38477 7.31445 3.35938L18.0078-8.42773L17.041-9.4043L6.42578 2.27539C6.07422 2.67578 5.74219 2.77344 5.27344 2.30469L4.10156 1.14258C3.63281 0.683594 3.74023 0.341797 4.14062-0.0195312L15.6152-10.8203L14.6387-11.7871L3.04688-0.898438C2.06055 0.0195312 1.98242 0.996094 2.8418 1.86523ZM9.25781-16.3281C8.83789-15.918 8.80859-15.3418 9.04297-14.9512C9.27734-14.5898 9.73633-14.3555 10.3809-14.5215C11.8457-14.8633 13.3691-14.9219 14.7949-13.9844L14.209-12.5293C13.8672-11.6992 14.043-11.1133 14.5801-10.5664L16.875-8.25195C17.3633-7.76367 17.7734-7.74414 18.3398-7.8418L19.4043-8.03711L20.0684-7.36328L20.0293-6.80664C19.9902-6.30859 20.1172-5.92773 20.6055-5.44922L21.3672-4.70703C21.8457-4.22852 22.4609-4.19922 22.9297-4.66797L25.8398-7.58789C26.3086-8.05664 26.2891-8.65234 25.8105-9.13086L25.0391-9.89258C24.5605-10.3711 24.1895-10.5273 23.7109-10.4883L23.1348-10.4395L22.4902-11.0742L22.7344-12.1973C22.8613-12.7637 22.7051-13.2031 22.1191-13.7891L19.9219-15.9766C16.582-19.2969 12.1484-19.2188 9.25781-16.3281ZM10.752-15.957C13.1836-17.7344 16.4746-17.4316 18.7012-15.2051L21.1328-12.793C21.3672-12.5586 21.4062-12.373 21.3379-12.0312L21.0156-10.5469L22.5195-9.0625L23.5059-9.12109C23.7598-9.13086 23.8379-9.11133 24.0332-8.91602L24.6094-8.33984L22.168-5.89844L21.5918-6.47461C21.3965-6.66992 21.3672-6.74805 21.377-7.01172L21.4453-7.98828L19.9512-9.47266L18.4277-9.21875C18.1055-9.15039 17.959-9.17969 17.7148-9.41406L15.7129-11.416C15.459-11.6504 15.4297-11.8164 15.5859-12.1875L16.4648-14.2773C14.9023-15.7324 12.8711-16.3574 10.8398-15.7617C10.6836-15.7227 10.625-15.8496 10.752-15.957Z"/>
  </g>
  <text style="stroke:none;fill:black;font-family:sans-serif;font-size:13;font-weight:bold;" transform="matrix(1 0 0 1 1289 1953)">Exporting</text>
  <text style="stroke:none;fill:black;font-family:sans-serif;font-size:13;" transform="matrix(1 0 0 1 1289 1971)">Symbols should be outlined when exporting to ensure the</text>
  <text style="stroke:none;fill:black;font-family:sans-serif;font-size:13;" transform="matrix(1 0 0 1 1289 1989)">design is preserved when submitting to Xcode.</text>
  <text id="template-version" style="stroke:none;fill:black;font-family:sans-serif;font-size:13;text-anchor:end;" transform="matrix(1 0 0 1 3036 1933)">Template v.4.0</text>
  <text style="stroke:none;fill:black;font-family:sans-serif;font-size:13;text-anchor:end;" transform="matrix(1 0 0 1 3036 1951)">Requires Xcode 14 or greater</text>
  <text id="descriptive-name" style="stroke:none;fill:black;font-family:sans-serif;font-size:13;text-anchor:end;" transform="matrix(1 0 0 1 3036 1969)">Generated from lamp.desk</text>
  <text style="stroke:none;fill:black;font-family:sans-serif;font-size:13;text-anchor:end;" transform="matrix(1 0 0 1 3036 1987)">Typeset at 100 points</text>
  <text style="stroke:none;fill:black;font-family:sans-serif;font-size:13;" transform="matrix(1 0 0 1 263 726)">Small</text>
  <text style="stroke:none;fill:black;font-family:sans-serif;font-size:13;" transform="matrix(1 0 0 1 263 1156)">Medium</text>
  <text style="stroke:none;fill:black;font-family:sans-serif;font-size:13;" transform="matrix(1 0 0 1 263 1586)">Large</text>
 </g>
 <g id="Guides">
  <g id="H-reference" style="fill:#27AAE1;stroke:none;" transform="matrix(1 0 0 1 339 696)">
   <path d="M0.993654 0L3.63775 0L29.3281-67.1323L30.0303-67.1323L30.0303-70.459L28.1226-70.459ZM11.6885-24.4799L46.9815-24.4799L46.2315-26.7285L12.4385-26.7285ZM55.1196 0L57.7637 0L30.6382-70.459L29.4326-70.459L29.4326-67.1323Z"/>
  </g>
  <line id="Baseline-S" style="fill:none;stroke:#27AAE1;opacity:1;stroke-width:0.5;" x1="263" x2="3036" y1="696" y2="696"/>
  <line id="Capline-S" style="fill:none;stroke:#27AAE1;opacity:1;stroke-width:0.5;" x1="263" x2="3036" y1="625.541" y2="625.541"/>
  <g id="H-reference" style="fill:#27AAE1;stroke:none;" transform="matrix(1 0 0 1 339 1126)">
   <path d="M0.993654 0L3.63775 0L29.3281-67.1323L30.0303-67.1323L30.0303-70.459L28.1226-70.459ZM11.6885-24.4799L46.9815-24.4799L46.2315-26.7285L12.4385-26.7285ZM55.1196 0L57.7637 0L30.6382-70.459L29.4326-70.459L29.4326-67.1323Z"/>
  </g>
  <line id="Baseline-M" style="fill:none;stroke:#27AAE1;opacity:1;stroke-width:0.5;" x1="263" x2="3036" y1="1126" y2="1126"/>
  <line id="Capline-M" style="fill:none;stroke:#27AAE1;opacity:1;stroke-width:0.5;" x1="263" x2="3036" y1="1055.54" y2="1055.54"/>
  <g id="H-reference" style="fill:#27AAE1;stroke:none;" transform="matrix(1 0 0 1 339 1556)">
   <path d="M0.993654 0L3.63775 0L29.3281-67.1323L30.0303-67.1323L30.0303-70.459L28.1226-70.459ZM11.6885-24.4799L46.9815-24.4799L46.2315-26.7285L12.4385-26.7285ZM55.1196 0L57.7637 0L30.6382-70.459L29.4326-70.459L29.4326-67.1323Z"/>
  </g>
  <line id="Baseline-L" style="fill:none;stroke:#27AAE1;opacity:1;stroke-width:0.5;" x1="263" x2="3036" y1="1556" y2="1556"/>
  <line id="Capline-L" style="fill:none;stroke:#27AAE1;opacity:1;stroke-width:0.5;" x1="263" x2="3036" y1="1485.54" y2="1485.54"/>
  <line id="left-margin-Ultralight-S" style="fill:none;stroke:#00AEEF;stroke-width:0.5;opacity:1.0;" x1="517.692" x2="517.692" y1="600.785" y2="720.121"/>
  <line id="right-margin-Ultralight-S" style="fill:none;stroke:#00AEEF;stroke-width:0.5;opacity:1.0;" x1="601.73" x2="601.73" y1="600.785" y2="720.121"/>
  <line id="left-margin-Regular-S" style="fill:none;stroke:#00AEEF;stroke-width:0.5;opacity:1.0;" x1="1402.6" x2="1402.6" y1="600.785" y2="720.121"/>
  <line id="right-margin-Regular-S" style="fill:none;stroke:#00AEEF;stroke-width:0.5;opacity:1.0;" x1="1497.09" x2="1497.09" y1="600.785" y2="720.121"/>
  <line id="left-margin-Black-S" style="fill:none;stroke:#00AEEF;stroke-width:0.5;opacity:1.0;" x1="2882.5" x2="2882.5" y1="600.785" y2="720.121"/>
  <line id="right-margin-Black-S" style="fill:none;stroke:#00AEEF;stroke-width:0.5;opacity:1.0;" x1="2984.3" x2="2984.3" y1="600.785" y2="720.121"/>
 </g>
 <g id="Symbols">
  <g id="Black-S" transform="matrix(1 0 0 1 2882.5 696)">
   <path class="monochrome-0 SFSymbolsPreview000000" d="M58.0078-29.2969L89.2578-60.5469C94.3848-65.6738 92.1387-73.1445 84.8145-75.4883C77.5391-77.7832 68.75-78.6621 58.9844-78.1738L58.252-78.9062C52.8809-84.2773 45.0684-84.4727 39.5508-79.0039C34.082-73.4375 34.2285-65.2344 39.6973-60.1562L40.3809-59.5215C39.9414-49.5605 40.7715-40.9668 43.0176-33.8379C45.459-26.0254 53.3691-24.6582 58.0078-29.2969ZM52.6855-37.5977C52.4414-37.3535 52.0508-37.3047 51.8555-37.8418C49.9512-43.9941 49.4141-51.4648 50.0977-60.4004C50.1953-62.3047 49.4141-64.2578 47.9004-65.625L46.1426-67.2363C44.6289-68.6035 44.5801-70.5566 46.3379-72.2656C48.0957-73.9746 49.9023-73.9746 51.3184-72.4121L52.9297-70.6543C54.3457-69.0918 56.4941-68.2617 58.4473-68.5059C67.041-69.5801 74.4629-68.5059 80.6152-66.6504C81.1523-66.4551 81.2012-66.0645 80.9082-65.7715ZM14.8926 15.2344L62.5488 15.2344C65.5273 15.2344 67.041 12.6953 67.041 9.7168C67.041 5.46875 63.2324 2.68555 58.7891 2.68555L18.6523 2.68555C14.209 2.68555 10.4004 5.46875 10.4004 9.7168C10.4004 12.6953 11.9141 15.2344 14.8926 15.2344ZM19.7754-23.877L47.2168-49.0723L44.5801-60.9863L12.5488-31.5918ZM35.1074-6.44531L42.5781-13.916L19.2383-37.207L11.7676-29.6875ZM71.6309-31.6895C79.9805-31.6895 87.3047-38.8184 87.3047-47.2656C87.3047-51.8066 85.2539-56.2988 81.4453-59.4238L76.8066-50.2441C77.4414-49.2188 77.7344-48.1934 77.7344-47.168C77.7344-43.9941 74.9023-41.2598 71.7285-41.2598C70.6543-41.2598 69.5801-41.5527 68.5547-42.0898L60.2051-36.7676C63.4766-33.3008 67.5781-31.6895 71.6309-31.6895ZM31.0547 9.52148L41.6992 9.52148L41.6992-12.5L31.0547-12.5ZM18.4082-21.3867C23.2422-21.3867 27.0508-25.1953 27.0508-30.0293C27.0508-34.8145 23.1934-38.6719 18.4082-38.6719C13.5742-38.6719 9.76562-34.8633 9.76562-30.0293C9.76562-25.1953 13.5742-21.3867 18.4082-21.3867ZM36.377-2.39258C41.2109-2.39258 45.0195-6.20117 45.0195-11.0352C45.0195-15.8203 41.1621-19.6777 36.377-19.6777C31.543-19.6777 27.7344-15.8691 27.7344-11.0352C27.7344-6.20117 31.543-2.39258 36.377-2.39258ZM40.9668-70.4102L47.9492-77.7344L41.8457-83.7891C39.8926-85.7422 36.7676-85.7422 34.7656-83.7891C32.8125-81.8359 32.8125-78.7109 34.7656-76.709Z"/>
  </g>
  <g id="Regular-S" transform="matrix(1 0 0 1 1402.6 696)">
   <path class="monochrome-0 SFSymbolsPreview000000" d="M52.7832-31.1523L82.5684-60.9375C86.5723-64.9414 84.668-70.6543 79.7852-72.168C72.0215-74.6582 63.6719-75.4883 54.1992-74.9512L53.0762-76.123C48.6328-80.7129 42.1387-80.8105 37.4512-76.2695C32.8613-71.5332 32.959-64.7949 37.5488-60.5469L38.7695-59.4238C38.2324-50 39.0137-41.748 41.4062-33.9844C43.0176-29.0039 48.6816-27.0508 52.7832-31.1523ZM48.4375-35.4492C47.9004-34.9121 47.5098-34.9121 46.9727-36.6699C44.9707-43.1641 44.2871-50.6348 44.9219-59.8145C45.0195-61.2305 44.3848-62.5977 43.3594-63.5254L41.6992-65.0391C39.6484-66.9434 39.6484-69.6289 41.748-71.9238C44.043-74.1211 46.7285-74.1211 48.6328-71.9727L50.1465-70.3125C51.1719-69.2383 52.6367-68.6523 54.1504-68.75C63.0859-69.3359 70.6055-68.7012 77.0508-66.6016C78.7109-66.0645 78.7598-65.7715 78.2227-65.2344ZM14.0625 11.4746L57.3242 11.4746C58.8867 11.4746 59.9609 10.3516 59.9609 8.64258C59.9609 5.37109 57.1289 3.125 52.7832 3.125L18.6523 3.125C14.3066 3.125 11.4258 5.37109 11.4258 8.64258C11.4258 10.3516 12.5488 11.4746 14.0625 11.4746ZM17.7246-27.0996L42.1875-49.5605L40.3809-57.4707L12.9395-32.2266ZM32.1777-10.5469L37.1582-15.5273L17.1875-35.4004L12.207-30.4199ZM65.5273-34.8633C72.8027-34.8633 78.8574-40.8203 78.8574-48.0469C78.8574-51.416 77.5879-54.7363 75.0488-57.3242L71.9238-51.123C72.4609-50.1953 72.7051-49.1211 72.7051-48.0469C72.7051-44.1406 69.3848-40.9668 65.5273-40.9668C64.4531-40.9668 63.3789-41.2109 62.4023-41.6504L56.8359-38.0371C59.2773-35.8887 62.4023-34.8633 65.5273-34.8633ZM29.834 5.37109L36.9141 5.37109L36.9141-12.8418L29.834-12.8418ZM16.4062-24.1699C20.0684-24.1699 22.998-27.0508 22.998-30.8105C22.998-34.5215 20.0684-37.4512 16.4062-37.4512C12.6465-37.4512 9.76562-34.5215 9.76562-30.8105C9.76562-27.0508 12.6465-24.1699 16.4062-24.1699ZM33.3984-6.25C37.1094-6.25 39.9902-8.93555 39.9902-12.8906C39.9902-16.5527 37.0605-19.4824 33.3984-19.4824C29.6387-19.4824 26.7578-16.5527 26.7578-12.8906C26.7578-9.13086 29.6387-6.25 33.3984-6.25ZM37.793-71.2402L42.334-75.9766L37.5488-80.7617C36.2305-82.0801 34.1797-82.0312 32.9102-80.7617C31.6406-79.4922 31.5918-77.4902 32.9102-76.1719Z"/>
  </g>
  <g id="Ultralight-S" transform="matrix(1 0 0 1 517.692 696)">
   <path class="monochrome-0 SFSymbolsPreview000000" d="M43.565-32.5146L73.2594-62.209C75.2198-64.1694 74.3145-67.2032 71.2481-68.1719C63.0758-70.753 55.3165-71.0381 46.1163-70.4556L44.6299-72.0816C41.3672-75.7178 36.7803-76.1333 33.1372-72.5913C29.5918-68.9448 30.0528-64.3862 33.6436-61.0918L35.273-59.6055C34.6905-50.4087 34.9722-42.6562 37.5464-34.4839C38.522-31.4106 41.5977-30.5473 43.565-32.5146ZM42.0347-33.9961C41.2252-33.1865 40.0626-33.5044 39.5254-35.2168C37.024-43.0732 36.8853-50.6348 37.4747-59.542C37.4815-60.2769 37.3008-60.6904 36.8204-61.1187L35.1148-62.6778C32.4283-65.127 31.9288-68.2666 34.6641-71.1065C37.4585-73.8032 40.5982-73.3491 43.0474-70.6104L44.6065-68.9048C45.0416-68.4663 45.5074-68.2437 46.2037-68.2505C55.0938-68.8364 62.6588-68.7012 70.5118-66.1929C72.2173-65.6558 72.5386-64.5 71.7291-63.6904ZM14.4258 6.66117L43.9737 6.66117C44.5826 6.66117 45.0211 6.21927 45.0211 5.64553C45.0211 4.50831 44.1871 3.44287 42.4298 3.44287L15.9732 3.44287C14.2158 3.44287 13.3784 4.50831 13.3784 5.64553C13.3784 6.21927 13.8203 6.66117 14.4258 6.66117ZM13.7285-31.5952L36.8746-53.0117L35.522-54.7007L12.2129-33.1348ZM27.1827-15.3149L28.712-16.8896L14.0996-31.4497L12.5249-29.9204ZM58.0347-36.9975C63.9024-37.043 68.6402-41.7739 68.6402-47.6382C68.6402-50.7803 67.2799-53.6011 65.1041-55.5532L63.6592-53.9385C65.4224-52.4204 66.4839-50.1201 66.4839-47.6382C66.4839-42.96 62.7095-39.1958 58.0347-39.1504C55.5074-39.1504 53.2071-40.3027 51.6856-42.0591L50.0699-40.5801C52.0572-38.3408 54.8643-36.9975 58.0347-36.9975ZM26.9278 4.64454L29.1036 4.64454L29.1036-15.1577L26.9278-15.1577ZM12.7735-28.6201C14.483-28.6201 15.8233-29.9116 15.8233-31.6279C15.8233-33.2954 14.4375-34.6812 12.7735-34.6812C11.1026-34.6812 9.76562-33.2954 9.76562-31.6279C9.76562-29.9116 11.0571-28.6201 12.7735-28.6201ZM27.9947-12.8344C29.7076-12.8344 31.0445-14.1123 31.0445-15.8423C31.0445-17.5063 29.6587-18.8921 27.9947-18.8921C26.3238-18.8921 24.9868-17.5063 24.9868-15.8423C24.9868-14.1259 26.2783-12.8344 27.9947-12.8344ZM33.1158-71.0132L34.5689-72.6162L30.5103-76.6748C30.0547-77.085 29.4117-77.127 28.9595-76.6748C28.5528-76.2681 28.5493-75.583 28.9595-75.1729Z"/>
  </g>
 </g>
</svg>
