<?xml version="1.0" encoding="UTF-8"?>
<!--Generator: Apple Native CoreSVG 175.5-->
<!DOCTYPE svg
PUBLIC "-//W3C//DTD SVG 1.1//EN"
       "http://www.w3.org/Graphics/SVG/1.1/DTD/svg11.dtd">
<svg version="1.1" xmlns="http://www.w3.org/2000/svg" xmlns:xlink="http://www.w3.org/1999/xlink" width="3300" height="2200">
 <!--glyph: "uni1014F7.medium", point size: 100.0, font version: "18.0d11e1", template writer version: "90"-->
 <style>.monochrome-0 {fill:#000000}
.monochrome-1 {fill:#000000;-sfsymbols-clear-behind:true}

.multicolor-0:tintColor {fill:#007AFF}
.multicolor-1:tintColor {fill:#007AFF;-sfsymbols-clear-behind:true}

.hierarchical-0:secondary {fill:#4D4D4D}
.hierarchical-1:primary {fill:#212121;-sfsymbols-clear-behind:true}

.SFSymbolsPreview007AFF {fill:#007AFF;opacity:1.0}
</style>
 <g id="Notes">
  <rect height="2200" id="artboard" style="fill:white;opacity:1" width="3300" x="0" y="0"/>
  <line style="fill:none;stroke:black;opacity:1;stroke-width:0.5;" x1="263" x2="3036" y1="292" y2="292"/>
  <text style="stroke:none;fill:black;font-family:sans-serif;font-size:13;font-weight:bold;" transform="matrix(1 0 0 1 263 322)">Weight/Scale Variations</text>
  <text style="stroke:none;fill:black;font-family:sans-serif;font-size:13;text-anchor:middle;" transform="matrix(1 0 0 1 559.711 322)">Ultralight</text>
  <text style="stroke:none;fill:black;font-family:sans-serif;font-size:13;text-anchor:middle;" transform="matrix(1 0 0 1 856.422 322)">Thin</text>
  <text style="stroke:none;fill:black;font-family:sans-serif;font-size:13;text-anchor:middle;" transform="matrix(1 0 0 1 1153.13 322)">Light</text>
  <text style="stroke:none;fill:black;font-family:sans-serif;font-size:13;text-anchor:middle;" transform="matrix(1 0 0 1 1449.84 322)">Regular</text>
  <text style="stroke:none;fill:black;font-family:sans-serif;font-size:13;text-anchor:middle;" transform="matrix(1 0 0 1 1746.56 322)">Medium</text>
  <text style="stroke:none;fill:black;font-family:sans-serif;font-size:13;text-anchor:middle;" transform="matrix(1 0 0 1 2043.27 322)">Semibold</text>
  <text style="stroke:none;fill:black;font-family:sans-serif;font-size:13;text-anchor:middle;" transform="matrix(1 0 0 1 2339.98 322)">Bold</text>
  <text style="stroke:none;fill:black;font-family:sans-serif;font-size:13;text-anchor:middle;" transform="matrix(1 0 0 1 2636.69 322)">Heavy</text>
  <text style="stroke:none;fill:black;font-family:sans-serif;font-size:13;text-anchor:middle;" transform="matrix(1 0 0 1 2933.4 322)">Black</text>
  <line style="fill:none;stroke:black;opacity:1;stroke-width:0.5;" x1="263" x2="3036" y1="1903" y2="1903"/>
  <g transform="matrix(1 0 0 1 263 1933)">
   <path d="M9.24805 0.830078C13.5547 0.830078 17.1387-2.74414 17.1387-7.05078C17.1387-11.3574 13.5449-14.9316 9.23828-14.9316C4.94141-14.9316 1.36719-11.3574 1.36719-7.05078C1.36719-2.74414 4.95117 0.830078 9.24805 0.830078ZM9.24805-0.654297C5.70312-0.654297 2.87109-3.49609 2.87109-7.05078C2.87109-10.6055 5.69336-13.4473 9.23828-13.4473C12.793-13.4473 15.6445-10.6055 15.6445-7.05078C15.6445-3.49609 12.8027-0.654297 9.24805-0.654297ZM5.6543-7.05078C5.6543-6.62109 5.95703-6.32812 6.40625-6.32812L8.50586-6.32812L8.50586-4.20898C8.50586-3.76953 8.79883-3.4668 9.22852-3.4668C9.67773-3.4668 9.9707-3.76953 9.9707-4.20898L9.9707-6.32812L12.0898-6.32812C12.5293-6.32812 12.832-6.62109 12.832-7.05078C12.832-7.49023 12.5293-7.79297 12.0898-7.79297L9.9707-7.79297L9.9707-9.90234C9.9707-10.3516 9.67773-10.6543 9.22852-10.6543C8.79883-10.6543 8.50586-10.3516 8.50586-9.90234L8.50586-7.79297L6.40625-7.79297C5.95703-7.79297 5.6543-7.49023 5.6543-7.05078Z"/>
  </g>
  <g transform="matrix(1 0 0 1 281.867 1933)">
   <path d="M11.709 2.91016C17.1582 2.91016 21.6699-1.61133 21.6699-7.05078C21.6699-12.5 17.1484-17.0117 11.6992-17.0117C6.25977-17.0117 1.74805-12.5 1.74805-7.05078C1.74805-1.61133 6.26953 2.91016 11.709 2.91016ZM11.709 1.25C7.09961 1.25 3.41797-2.44141 3.41797-7.05078C3.41797-11.6602 7.08984-15.3516 11.6992-15.3516C16.3086-15.3516 20.0098-11.6602 20.0098-7.05078C20.0098-2.44141 16.3184 1.25 11.709 1.25ZM7.17773-7.05078C7.17773-6.57227 7.50977-6.25 8.00781-6.25L10.8789-6.25L10.8789-3.36914C10.8789-2.88086 11.2109-2.53906 11.6895-2.53906C12.1777-2.53906 12.5195-2.87109 12.5195-3.36914L12.5195-6.25L15.4004-6.25C15.8887-6.25 16.2305-6.57227 16.2305-7.05078C16.2305-7.53906 15.8887-7.88086 15.4004-7.88086L12.5195-7.88086L12.5195-10.752C12.5195-11.25 12.1777-11.5918 11.6895-11.5918C11.2109-11.5918 10.8789-11.25 10.8789-10.752L10.8789-7.88086L8.00781-7.88086C7.50977-7.88086 7.17773-7.53906 7.17773-7.05078Z"/>
  </g>
  <g transform="matrix(1 0 0 1 305.646 1933)">
   <path d="M14.9707 5.66406C21.9336 5.66406 27.6953-0.0976562 27.6953-7.05078C27.6953-14.0137 21.9238-19.7754 14.9609-19.7754C8.00781-19.7754 2.25586-14.0137 2.25586-7.05078C2.25586-0.0976562 8.01758 5.66406 14.9707 5.66406ZM14.9707 3.84766C8.93555 3.84766 4.08203-1.01562 4.08203-7.05078C4.08203-13.0957 8.92578-17.9492 14.9609-17.9492C21.0059-17.9492 25.8691-13.0957 25.8691-7.05078C25.8691-1.01562 21.0156 3.84766 14.9707 3.84766ZM9.19922-7.05078C9.19922-6.5332 9.57031-6.17188 10.1172-6.17188L14.0625-6.17188L14.0625-2.2168C14.0625-1.67969 14.4336-1.29883 14.9512-1.29883C15.4883-1.29883 15.8594-1.66992 15.8594-2.2168L15.8594-6.17188L19.8145-6.17188C20.3516-6.17188 20.7324-6.5332 20.7324-7.05078C20.7324-7.59766 20.3613-7.96875 19.8145-7.96875L15.8594-7.96875L15.8594-11.9141C15.8594-12.4609 15.4883-12.8418 14.9512-12.8418C14.4336-12.8418 14.0625-12.4609 14.0625-11.9141L14.0625-7.96875L10.1172-7.96875C9.57031-7.96875 9.19922-7.59766 9.19922-7.05078Z"/>
  </g>
  <text style="stroke:none;fill:black;font-family:sans-serif;font-size:13;font-weight:bold;" transform="matrix(1 0 0 1 263 1953)">Design Variations</text>
  <text style="stroke:none;fill:black;font-family:sans-serif;font-size:13;" transform="matrix(1 0 0 1 263 1971)">Symbols are supported in up to nine weights and three scales.</text>
  <text style="stroke:none;fill:black;font-family:sans-serif;font-size:13;" transform="matrix(1 0 0 1 263 1989)">For optimal layout with text and other symbols, vertically align</text>
  <text style="stroke:none;fill:black;font-family:sans-serif;font-size:13;" transform="matrix(1 0 0 1 263 2007)">symbols with the adjacent text.</text>
  <line style="fill:none;stroke:#00AEEF;stroke-width:0.5;opacity:1.0;" x1="776" x2="776" y1="1919" y2="1933"/>
  <g transform="matrix(1 0 0 1 776 1933)">
   <path d="M3.31055 0.15625C3.82812 0.15625 4.08203-0.0390625 4.26758-0.585938L5.52734-4.0332L11.2891-4.0332L12.5488-0.585938C12.7344-0.0390625 12.9883 0.15625 13.4961 0.15625C14.0137 0.15625 14.3457-0.15625 14.3457-0.644531C14.3457-0.810547 14.3164-0.966797 14.2383-1.17188L9.6582-13.3691C9.43359-13.9648 9.0332-14.2676 8.4082-14.2676C7.80273-14.2676 7.39258-13.9746 7.17773-13.3789L2.59766-1.16211C2.51953-0.957031 2.49023-0.800781 2.49023-0.634766C2.49023-0.146484 2.80273 0.15625 3.31055 0.15625ZM6.00586-5.51758L8.37891-12.0898L8.42773-12.0898L10.8008-5.51758Z"/>
  </g>
  <line style="fill:none;stroke:#00AEEF;stroke-width:0.5;opacity:1.0;" x1="793.197" x2="793.197" y1="1919" y2="1933"/>
  <text style="stroke:none;fill:black;font-family:sans-serif;font-size:13;font-weight:bold;" transform="matrix(1 0 0 1 776 1953)">Margins</text>
  <text style="stroke:none;fill:black;font-family:sans-serif;font-size:13;" transform="matrix(1 0 0 1 776 1971)">Leading and trailing margins on the left and right side of each symbol</text>
  <text style="stroke:none;fill:black;font-family:sans-serif;font-size:13;" transform="matrix(1 0 0 1 776 1989)">can be adjusted by modifying the x-location of the margin guidelines.</text>
  <text style="stroke:none;fill:black;font-family:sans-serif;font-size:13;" transform="matrix(1 0 0 1 776 2007)">Modifications are automatically applied proportionally to all</text>
  <text style="stroke:none;fill:black;font-family:sans-serif;font-size:13;" transform="matrix(1 0 0 1 776 2025)">scales and weights.</text>
  <g transform="matrix(1 0 0 1 1289 1933)">
   <path d="M2.8418 1.86523L4.54102 3.57422C5.40039 4.44336 6.38672 4.38477 7.31445 3.35938L18.0078-8.42773L17.041-9.4043L6.42578 2.27539C6.07422 2.67578 5.74219 2.77344 5.27344 2.30469L4.10156 1.14258C3.63281 0.683594 3.74023 0.341797 4.14062-0.0195312L15.6152-10.8203L14.6387-11.7871L3.04688-0.898438C2.06055 0.0195312 1.98242 0.996094 2.8418 1.86523ZM9.25781-16.3281C8.83789-15.918 8.80859-15.3418 9.04297-14.9512C9.27734-14.5898 9.73633-14.3555 10.3809-14.5215C11.8457-14.8633 13.3691-14.9219 14.7949-13.9844L14.209-12.5293C13.8672-11.6992 14.043-11.1133 14.5801-10.5664L16.875-8.25195C17.3633-7.76367 17.7734-7.74414 18.3398-7.8418L19.4043-8.03711L20.0684-7.36328L20.0293-6.80664C19.9902-6.30859 20.1172-5.92773 20.6055-5.44922L21.3672-4.70703C21.8457-4.22852 22.4609-4.19922 22.9297-4.66797L25.8398-7.58789C26.3086-8.05664 26.2891-8.65234 25.8105-9.13086L25.0391-9.89258C24.5605-10.3711 24.1895-10.5273 23.7109-10.4883L23.1348-10.4395L22.4902-11.0742L22.7344-12.1973C22.8613-12.7637 22.7051-13.2031 22.1191-13.7891L19.9219-15.9766C16.582-19.2969 12.1484-19.2188 9.25781-16.3281ZM10.752-15.957C13.1836-17.7344 16.4746-17.4316 18.7012-15.2051L21.1328-12.793C21.3672-12.5586 21.4062-12.373 21.3379-12.0312L21.0156-10.5469L22.5195-9.0625L23.5059-9.12109C23.7598-9.13086 23.8379-9.11133 24.0332-8.91602L24.6094-8.33984L22.168-5.89844L21.5918-6.47461C21.3965-6.66992 21.3672-6.74805 21.377-7.01172L21.4453-7.98828L19.9512-9.47266L18.4277-9.21875C18.1055-9.15039 17.959-9.17969 17.7148-9.41406L15.7129-11.416C15.459-11.6504 15.4297-11.8164 15.5859-12.1875L16.4648-14.2773C14.9023-15.7324 12.8711-16.3574 10.8398-15.7617C10.6836-15.7227 10.625-15.8496 10.752-15.957Z"/>
  </g>
  <text style="stroke:none;fill:black;font-family:sans-serif;font-size:13;font-weight:bold;" transform="matrix(1 0 0 1 1289 1953)">Exporting</text>
  <text style="stroke:none;fill:black;font-family:sans-serif;font-size:13;" transform="matrix(1 0 0 1 1289 1971)">Symbols should be outlined when exporting to ensure the</text>
  <text style="stroke:none;fill:black;font-family:sans-serif;font-size:13;" transform="matrix(1 0 0 1 1289 1989)">design is preserved when submitting to Xcode.</text>
  <text id="template-version" style="stroke:none;fill:black;font-family:sans-serif;font-size:13;text-anchor:end;" transform="matrix(1 0 0 1 3036 1933)">Template v.4.0</text>
  <text style="stroke:none;fill:black;font-family:sans-serif;font-size:13;text-anchor:end;" transform="matrix(1 0 0 1 3036 1951)">Requires Xcode 14 or greater</text>
  <text id="descriptive-name" style="stroke:none;fill:black;font-family:sans-serif;font-size:13;text-anchor:end;" transform="matrix(1 0 0 1 3036 1969)">Generated from balloon.2</text>
  <text style="stroke:none;fill:black;font-family:sans-serif;font-size:13;text-anchor:end;" transform="matrix(1 0 0 1 3036 1987)">Typeset at 100 points</text>
  <text style="stroke:none;fill:black;font-family:sans-serif;font-size:13;" transform="matrix(1 0 0 1 263 726)">Small</text>
  <text style="stroke:none;fill:black;font-family:sans-serif;font-size:13;" transform="matrix(1 0 0 1 263 1156)">Medium</text>
  <text style="stroke:none;fill:black;font-family:sans-serif;font-size:13;" transform="matrix(1 0 0 1 263 1586)">Large</text>
 </g>
 <g id="Guides">
  <g id="H-reference" style="fill:#27AAE1;stroke:none;" transform="matrix(1 0 0 1 339 696)">
   <path d="M0.993654 0L3.63775 0L29.3281-67.1323L30.0303-67.1323L30.0303-70.459L28.1226-70.459ZM11.6885-24.4799L46.9815-24.4799L46.2315-26.7285L12.4385-26.7285ZM55.1196 0L57.7637 0L30.6382-70.459L29.4326-70.459L29.4326-67.1323Z"/>
  </g>
  <line id="Baseline-S" style="fill:none;stroke:#27AAE1;opacity:1;stroke-width:0.5;" x1="263" x2="3036" y1="696" y2="696"/>
  <line id="Capline-S" style="fill:none;stroke:#27AAE1;opacity:1;stroke-width:0.5;" x1="263" x2="3036" y1="625.541" y2="625.541"/>
  <g id="H-reference" style="fill:#27AAE1;stroke:none;" transform="matrix(1 0 0 1 339 1126)">
   <path d="M0.993654 0L3.63775 0L29.3281-67.1323L30.0303-67.1323L30.0303-70.459L28.1226-70.459ZM11.6885-24.4799L46.9815-24.4799L46.2315-26.7285L12.4385-26.7285ZM55.1196 0L57.7637 0L30.6382-70.459L29.4326-70.459L29.4326-67.1323Z"/>
  </g>
  <line id="Baseline-M" style="fill:none;stroke:#27AAE1;opacity:1;stroke-width:0.5;" x1="263" x2="3036" y1="1126" y2="1126"/>
  <line id="Capline-M" style="fill:none;stroke:#27AAE1;opacity:1;stroke-width:0.5;" x1="263" x2="3036" y1="1055.54" y2="1055.54"/>
  <g id="H-reference" style="fill:#27AAE1;stroke:none;" transform="matrix(1 0 0 1 339 1556)">
   <path d="M0.993654 0L3.63775 0L29.3281-67.1323L30.0303-67.1323L30.0303-70.459L28.1226-70.459ZM11.6885-24.4799L46.9815-24.4799L46.2315-26.7285L12.4385-26.7285ZM55.1196 0L57.7637 0L30.6382-70.459L29.4326-70.459L29.4326-67.1323Z"/>
  </g>
  <line id="Baseline-L" style="fill:none;stroke:#27AAE1;opacity:1;stroke-width:0.5;" x1="263" x2="3036" y1="1556" y2="1556"/>
  <line id="Capline-L" style="fill:none;stroke:#27AAE1;opacity:1;stroke-width:0.5;" x1="263" x2="3036" y1="1485.54" y2="1485.54"/>
  <line id="left-margin-Ultralight-S" style="fill:none;stroke:#00AEEF;stroke-width:0.5;opacity:1.0;" x1="516.954" x2="516.954" y1="600.785" y2="720.121"/>
  <line id="right-margin-Ultralight-S" style="fill:none;stroke:#00AEEF;stroke-width:0.5;opacity:1.0;" x1="602.469" x2="602.469" y1="600.785" y2="720.121"/>
  <line id="left-margin-Regular-S" style="fill:none;stroke:#00AEEF;stroke-width:0.5;opacity:1.0;" x1="1402.43" x2="1402.43" y1="600.785" y2="720.121"/>
  <line id="right-margin-Regular-S" style="fill:none;stroke:#00AEEF;stroke-width:0.5;opacity:1.0;" x1="1497.26" x2="1497.26" y1="600.785" y2="720.121"/>
  <line id="left-margin-Black-S" style="fill:none;stroke:#00AEEF;stroke-width:0.5;opacity:1.0;" x1="2883.18" x2="2883.18" y1="600.785" y2="720.121"/>
  <line id="right-margin-Black-S" style="fill:none;stroke:#00AEEF;stroke-width:0.5;opacity:1.0;" x1="2983.62" x2="2983.62" y1="600.785" y2="720.121"/>
 </g>
 <g id="Symbols">
  <g id="Black-S" transform="matrix(1 0 0 1 2883.18 696)">
   <path class="monochrome-0 multicolor-0:tintColor hierarchical-0:secondary SFSymbolsPreview007AFF" d="M55.4688-37.9395L45.752-42.627C43.7988-34.0332 39.209-28.8086 33.3496-28.8086C25.9277-28.8086 20.3125-37.3535 20.3125-49.0234C20.3125-57.0801 25.3418-62.9395 33.3496-62.9395C35.9863-62.9395 37.9883-62.207 40.3809-61.1816L41.4551-72.1191C39.2578-72.9004 36.2793-73.4375 33.3496-73.4375C19.5312-73.4375 9.76562-62.6465 9.76562-49.0234C9.76562-32.3242 19.9219-18.2617 33.3496-18.2617C43.7012-18.2617 52.0996-26.6113 55.4688-37.9395ZM32.666 21.7285C34.9609 21.7285 36.8652 19.8242 36.8652 17.5293C36.8652 10.8887 43.3105 9.27734 43.3105 1.5625C43.3105-7.42188 36.4746-7.22656 36.9141-13.916L28.5156-13.916C28.2715-1.75781 35.0098-2.34375 35.0098 1.5625C35.0098 5.41992 28.5156 5.41992 28.5156 17.5293C28.5156 19.8242 30.3711 21.7285 32.666 21.7285ZM25.6348-25.0977L23.4863-16.7969C22.7539-13.916 24.6582-11.2793 27.7344-11.2793L37.0117-11.2793C40.1367-11.2793 41.9922-13.916 41.2598-16.7969L39.1113-25.0977Z"/>
   <path class="monochrome-1 multicolor-1:tintColor hierarchical-1:primary SFSymbolsPreview007AFF" d="M62.7441-26.8555C78.5156-26.8555 90.6738-43.457 90.6738-63.623C90.6738-79.7852 79.1016-92.2363 62.7441-92.2363C46.3867-92.2363 34.8633-79.7852 34.8633-63.623C34.8633-43.457 46.9727-26.8555 62.7441-26.8555ZM62.7441-37.3535C52.9297-37.3535 45.3613-48.7793 45.3613-63.623C45.3613-74.0723 52.2949-81.7383 62.7441-81.7383C73.1934-81.7383 80.1758-74.0723 80.1758-63.623C80.1758-48.7793 72.5586-37.3535 62.7441-37.3535ZM62.7441 20.6543C65.0391 20.6543 66.9434 18.75 66.9434 16.4551C66.9434 8.05664 74.5117 6.20117 74.5117-2.29492C74.5117-11.8164 66.9922-11.9629 66.9922-19.7266L58.5938-19.7266C58.5938-7.17773 66.2109-7.27539 66.2109-2.29492C66.2109 2.68555 58.5938 3.17383 58.5938 16.4551C58.5938 18.75 60.4492 20.6543 62.7441 20.6543ZM55.3711-33.6426L52.9785-24.5605C52.1973-21.5332 54.1016-18.5547 57.5195-18.5547L67.9688-18.5547C71.3867-18.5547 73.291-21.5332 72.5098-24.5605L70.1172-33.6426Z"/>
  </g>
  <g id="Regular-S" transform="matrix(1 0 0 1 1402.43 696)">
   <path class="monochrome-0 multicolor-0:tintColor hierarchical-0:secondary SFSymbolsPreview007AFF" d="M50.3418-36.7188L44.2871-39.6484C41.9434-32.0801 36.9629-26.9043 30.957-26.9043C22.7051-26.9043 16.4062-36.5234 16.4062-48.4375C16.4062-57.0312 22.3145-63.916 30.957-63.916C32.959-63.916 34.7168-63.4766 36.377-62.8418L37.0605-69.6289C35.2051-70.1172 33.1543-70.459 30.957-70.459C18.5059-70.459 9.76562-60.791 9.76562-48.4375C9.76562-33.0566 18.9941-20.2637 30.957-20.2637C39.6484-20.2148 46.9727-27.0508 50.3418-36.7188ZM29.834 18.3594C31.3965 18.3594 32.6172 17.1387 32.6172 15.625C32.6172 8.34961 39.2578 7.61719 39.2578 0C39.2578-7.95898 32.6172-8.05664 32.666-14.8438L27.2461-14.8438C27.1973-5.41992 33.8867-4.93164 33.8867 0C33.8867 5.0293 27.1973 4.93164 27.1973 15.625C27.1973 17.1387 28.3203 18.3594 29.834 18.3594ZM24.8535-23.4375L23.1445-16.6992C22.7051-15.1855 23.5352-13.5254 25.5371-13.5254L34.5215-13.5254C36.5723-13.5254 37.3535-15.1855 36.9141-16.6992L35.2051-23.4375Z"/>
   <path class="monochrome-1 multicolor-1:tintColor hierarchical-1:primary SFSymbolsPreview007AFF" d="M59.6191-28.7109C73.877-28.7109 85.0586-43.9453 85.0586-62.6953C85.0586-77.5391 74.6094-88.8184 59.6191-88.8184C44.6777-88.8184 34.2773-77.5391 34.2773-62.6953C34.2773-43.9453 45.4102-28.7109 59.6191-28.7109ZM59.6191-35.2539C49.0723-35.2539 40.8691-47.7051 40.8691-62.6953C40.8691-73.6328 48.584-82.2266 59.6191-82.2266C70.6543-82.2266 78.4668-73.6328 78.4668-62.6953C78.4668-47.7051 70.166-35.2539 59.6191-35.2539ZM59.4238 17.7246C61.084 17.7246 62.5 16.3086 62.5 14.6484C62.5 6.39648 70.1172 4.49219 70.1172-4.15039C70.1172-13.1348 62.5-14.4531 62.5977-22.0703L56.4453-22.0215C56.3965-11.4258 63.9648-9.76562 63.9648-4.15039C63.9648 1.61133 56.3477 2.53906 56.3477 14.6484C56.3477 16.3086 57.7148 17.7246 59.4238 17.7246ZM53.8574-31.7383L51.9043-24.3164C51.3672-22.6074 52.3926-20.7031 54.5898-20.7031L64.6973-20.7031C66.8945-20.7031 67.8223-22.6074 67.3828-24.3164L65.3809-31.7383Z"/>
  </g>
  <g id="Ultralight-S" transform="matrix(1 0 0 1 516.954 696)">
   <path class="monochrome-0 multicolor-0:tintColor hierarchical-0:secondary SFSymbolsPreview007AFF" d="M43.3941-35.4019L41.4717-36.6514C38.9917-29.4463 33.875-24.3613 27.4605-24.3613C18.482-24.3613 11.9561-34.4346 11.9561-46.3486C11.9561-55.3057 18.2276-62.6445 27.4605-62.6445C29.5987-62.6445 31.5381-62.2505 33.3799-61.5249L33.6094-63.8165C31.7539-64.441 29.7032-64.7828 27.4605-64.7828C16.7803-64.7828 9.76562-57.022 9.76562-46.3486C9.76562-32.648 17.3594-22.1709 27.4605-22.1709C34.6534-22.1675 40.5699-27.4595 43.3941-35.4019ZM26.3828 11.4571C26.9463 11.4571 27.4859 10.9175 27.4859 10.3575C27.4859 2.80961 33.1275 0.851128 33.1275-4.94967C33.1275-11.4101 28.5303-13.0517 28.6245-19.5664L26.5195-19.5664C26.4707-11.4594 31.0259-11.1982 31.0259-4.94967C31.0259 0.488317 25.3355 1.29886 25.3355 10.3575C25.3355 10.9175 25.8682 11.4571 26.3828 11.4571ZM23.9907-23.0288L22.7813-18.6518C22.5688-17.8647 23.0356-17.2944 23.7661-17.2944L31.0703-17.2944C31.8496-17.2944 32.313-17.8647 32.1006-18.6518L30.8911-23.0288Z"/>
   <path class="monochrome-1 multicolor-1:tintColor hierarchical-1:primary SFSymbolsPreview007AFF" d="M54.0791-29.9824C66.2935-29.9824 75.7496-42.7192 75.7496-59.6074C75.7496-72.5894 67.0713-81.8707 54.0791-81.8707C41.0904-81.8707 32.5064-72.5894 32.5064-59.6074C32.5064-42.7192 41.8682-29.9824 54.0791-29.9824ZM54.0791-32.0752C42.9419-32.0752 34.648-44.7989 34.648-59.6074C34.648-70.772 42.6807-79.6836 54.0791-79.6836C65.4776-79.6836 73.6079-70.772 73.6079-59.6074C73.6079-44.7989 65.2163-32.0752 54.0791-32.0752ZM52.5669 11.1856C53.1373 11.1856 53.6451 10.6778 53.6451 10.1075C53.6451 1.12895 61.3985-1.27486 61.3985-9.00924C61.3985-16.4497 55.0074-19.539 55.0142-27.1562L52.8579-27.1528C52.8545-17.9648 59.2422-16.4409 59.2422-9.00924C59.2422-1.43113 51.4888-0.367165 51.4888 10.1075C51.4888 10.6778 51.9478 11.1856 52.5669 11.1856ZM50.6333-30.8301L49.4522-26.4053C49.2329-25.6045 49.7134-25.0171 50.4576-25.0171L57.8404-25.0171C58.5845-25.0171 59.0582-25.6045 58.8458-26.4053L57.6158-30.8301Z"/>
  </g>
 </g>
</svg>
