<?xml version="1.0" encoding="UTF-8"?>
<!--Generator: Apple Native CoreSVG 175.5-->
<!DOCTYPE svg
PUBLIC "-//W3C//DTD SVG 1.1//EN"
       "http://www.w3.org/Graphics/SVG/1.1/DTD/svg11.dtd">
<svg version="1.1" xmlns="http://www.w3.org/2000/svg" xmlns:xlink="http://www.w3.org/1999/xlink" width="3300" height="2200">
 <!--glyph: "uni101518.medium", point size: 100.0, font version: "18.0d11e1", template writer version: "90"-->
 <style>.monochrome-0 {fill:#000000}
.monochrome-1 {fill:#000000}

.hierarchical-0:primary {fill:#212121}
.hierarchical-1:secondary {fill:#4D4D4D}

.SFSymbolsPreview212121 {fill:#212121;opacity:1.0}
.SFSymbolsPreview4D4D4D {fill:#4D4D4D;opacity:1.0}
</style>
 <g id="Notes">
  <rect height="2200" id="artboard" style="fill:white;opacity:1" width="3300" x="0" y="0"/>
  <line style="fill:none;stroke:black;opacity:1;stroke-width:0.5;" x1="263" x2="3036" y1="292" y2="292"/>
  <text style="stroke:none;fill:black;font-family:sans-serif;font-size:13;font-weight:bold;" transform="matrix(1 0 0 1 263 322)">Weight/Scale Variations</text>
  <text style="stroke:none;fill:black;font-family:sans-serif;font-size:13;text-anchor:middle;" transform="matrix(1 0 0 1 559.711 322)">Ultralight</text>
  <text style="stroke:none;fill:black;font-family:sans-serif;font-size:13;text-anchor:middle;" transform="matrix(1 0 0 1 856.422 322)">Thin</text>
  <text style="stroke:none;fill:black;font-family:sans-serif;font-size:13;text-anchor:middle;" transform="matrix(1 0 0 1 1153.13 322)">Light</text>
  <text style="stroke:none;fill:black;font-family:sans-serif;font-size:13;text-anchor:middle;" transform="matrix(1 0 0 1 1449.84 322)">Regular</text>
  <text style="stroke:none;fill:black;font-family:sans-serif;font-size:13;text-anchor:middle;" transform="matrix(1 0 0 1 1746.56 322)">Medium</text>
  <text style="stroke:none;fill:black;font-family:sans-serif;font-size:13;text-anchor:middle;" transform="matrix(1 0 0 1 2043.27 322)">Semibold</text>
  <text style="stroke:none;fill:black;font-family:sans-serif;font-size:13;text-anchor:middle;" transform="matrix(1 0 0 1 2339.98 322)">Bold</text>
  <text style="stroke:none;fill:black;font-family:sans-serif;font-size:13;text-anchor:middle;" transform="matrix(1 0 0 1 2636.69 322)">Heavy</text>
  <text style="stroke:none;fill:black;font-family:sans-serif;font-size:13;text-anchor:middle;" transform="matrix(1 0 0 1 2933.4 322)">Black</text>
  <line style="fill:none;stroke:black;opacity:1;stroke-width:0.5;" x1="263" x2="3036" y1="1903" y2="1903"/>
  <g transform="matrix(1 0 0 1 263 1933)">
   <path d="M9.24805 0.830078C13.5547 0.830078 17.1387-2.74414 17.1387-7.05078C17.1387-11.3574 13.5449-14.9316 9.23828-14.9316C4.94141-14.9316 1.36719-11.3574 1.36719-7.05078C1.36719-2.74414 4.95117 0.830078 9.24805 0.830078ZM9.24805-0.654297C5.70312-0.654297 2.87109-3.49609 2.87109-7.05078C2.87109-10.6055 5.69336-13.4473 9.23828-13.4473C12.793-13.4473 15.6445-10.6055 15.6445-7.05078C15.6445-3.49609 12.8027-0.654297 9.24805-0.654297ZM5.6543-7.05078C5.6543-6.62109 5.95703-6.32812 6.40625-6.32812L8.50586-6.32812L8.50586-4.20898C8.50586-3.76953 8.79883-3.4668 9.22852-3.4668C9.67773-3.4668 9.9707-3.76953 9.9707-4.20898L9.9707-6.32812L12.0898-6.32812C12.5293-6.32812 12.832-6.62109 12.832-7.05078C12.832-7.49023 12.5293-7.79297 12.0898-7.79297L9.9707-7.79297L9.9707-9.90234C9.9707-10.3516 9.67773-10.6543 9.22852-10.6543C8.79883-10.6543 8.50586-10.3516 8.50586-9.90234L8.50586-7.79297L6.40625-7.79297C5.95703-7.79297 5.6543-7.49023 5.6543-7.05078Z"/>
  </g>
  <g transform="matrix(1 0 0 1 281.867 1933)">
   <path d="M11.709 2.91016C17.1582 2.91016 21.6699-1.61133 21.6699-7.05078C21.6699-12.5 17.1484-17.0117 11.6992-17.0117C6.25977-17.0117 1.74805-12.5 1.74805-7.05078C1.74805-1.61133 6.26953 2.91016 11.709 2.91016ZM11.709 1.25C7.09961 1.25 3.41797-2.44141 3.41797-7.05078C3.41797-11.6602 7.08984-15.3516 11.6992-15.3516C16.3086-15.3516 20.0098-11.6602 20.0098-7.05078C20.0098-2.44141 16.3184 1.25 11.709 1.25ZM7.17773-7.05078C7.17773-6.57227 7.50977-6.25 8.00781-6.25L10.8789-6.25L10.8789-3.36914C10.8789-2.88086 11.2109-2.53906 11.6895-2.53906C12.1777-2.53906 12.5195-2.87109 12.5195-3.36914L12.5195-6.25L15.4004-6.25C15.8887-6.25 16.2305-6.57227 16.2305-7.05078C16.2305-7.53906 15.8887-7.88086 15.4004-7.88086L12.5195-7.88086L12.5195-10.752C12.5195-11.25 12.1777-11.5918 11.6895-11.5918C11.2109-11.5918 10.8789-11.25 10.8789-10.752L10.8789-7.88086L8.00781-7.88086C7.50977-7.88086 7.17773-7.53906 7.17773-7.05078Z"/>
  </g>
  <g transform="matrix(1 0 0 1 305.646 1933)">
   <path d="M14.9707 5.66406C21.9336 5.66406 27.6953-0.0976562 27.6953-7.05078C27.6953-14.0137 21.9238-19.7754 14.9609-19.7754C8.00781-19.7754 2.25586-14.0137 2.25586-7.05078C2.25586-0.0976562 8.01758 5.66406 14.9707 5.66406ZM14.9707 3.84766C8.93555 3.84766 4.08203-1.01562 4.08203-7.05078C4.08203-13.0957 8.92578-17.9492 14.9609-17.9492C21.0059-17.9492 25.8691-13.0957 25.8691-7.05078C25.8691-1.01562 21.0156 3.84766 14.9707 3.84766ZM9.19922-7.05078C9.19922-6.5332 9.57031-6.17188 10.1172-6.17188L14.0625-6.17188L14.0625-2.2168C14.0625-1.67969 14.4336-1.29883 14.9512-1.29883C15.4883-1.29883 15.8594-1.66992 15.8594-2.2168L15.8594-6.17188L19.8145-6.17188C20.3516-6.17188 20.7324-6.5332 20.7324-7.05078C20.7324-7.59766 20.3613-7.96875 19.8145-7.96875L15.8594-7.96875L15.8594-11.9141C15.8594-12.4609 15.4883-12.8418 14.9512-12.8418C14.4336-12.8418 14.0625-12.4609 14.0625-11.9141L14.0625-7.96875L10.1172-7.96875C9.57031-7.96875 9.19922-7.59766 9.19922-7.05078Z"/>
  </g>
  <text style="stroke:none;fill:black;font-family:sans-serif;font-size:13;font-weight:bold;" transform="matrix(1 0 0 1 263 1953)">Design Variations</text>
  <text style="stroke:none;fill:black;font-family:sans-serif;font-size:13;" transform="matrix(1 0 0 1 263 1971)">Symbols are supported in up to nine weights and three scales.</text>
  <text style="stroke:none;fill:black;font-family:sans-serif;font-size:13;" transform="matrix(1 0 0 1 263 1989)">For optimal layout with text and other symbols, vertically align</text>
  <text style="stroke:none;fill:black;font-family:sans-serif;font-size:13;" transform="matrix(1 0 0 1 263 2007)">symbols with the adjacent text.</text>
  <line style="fill:none;stroke:#00AEEF;stroke-width:0.5;opacity:1.0;" x1="776" x2="776" y1="1919" y2="1933"/>
  <g transform="matrix(1 0 0 1 776 1933)">
   <path d="M3.31055 0.15625C3.82812 0.15625 4.08203-0.0390625 4.26758-0.585938L5.52734-4.0332L11.2891-4.0332L12.5488-0.585938C12.7344-0.0390625 12.9883 0.15625 13.4961 0.15625C14.0137 0.15625 14.3457-0.15625 14.3457-0.644531C14.3457-0.810547 14.3164-0.966797 14.2383-1.17188L9.6582-13.3691C9.43359-13.9648 9.0332-14.2676 8.4082-14.2676C7.80273-14.2676 7.39258-13.9746 7.17773-13.3789L2.59766-1.16211C2.51953-0.957031 2.49023-0.800781 2.49023-0.634766C2.49023-0.146484 2.80273 0.15625 3.31055 0.15625ZM6.00586-5.51758L8.37891-12.0898L8.42773-12.0898L10.8008-5.51758Z"/>
  </g>
  <line style="fill:none;stroke:#00AEEF;stroke-width:0.5;opacity:1.0;" x1="793.197" x2="793.197" y1="1919" y2="1933"/>
  <text style="stroke:none;fill:black;font-family:sans-serif;font-size:13;font-weight:bold;" transform="matrix(1 0 0 1 776 1953)">Margins</text>
  <text style="stroke:none;fill:black;font-family:sans-serif;font-size:13;" transform="matrix(1 0 0 1 776 1971)">Leading and trailing margins on the left and right side of each symbol</text>
  <text style="stroke:none;fill:black;font-family:sans-serif;font-size:13;" transform="matrix(1 0 0 1 776 1989)">can be adjusted by modifying the x-location of the margin guidelines.</text>
  <text style="stroke:none;fill:black;font-family:sans-serif;font-size:13;" transform="matrix(1 0 0 1 776 2007)">Modifications are automatically applied proportionally to all</text>
  <text style="stroke:none;fill:black;font-family:sans-serif;font-size:13;" transform="matrix(1 0 0 1 776 2025)">scales and weights.</text>
  <g transform="matrix(1 0 0 1 1289 1933)">
   <path d="M2.8418 1.86523L4.54102 3.57422C5.40039 4.44336 6.38672 4.38477 7.31445 3.35938L18.0078-8.42773L17.041-9.4043L6.42578 2.27539C6.07422 2.67578 5.74219 2.77344 5.27344 2.30469L4.10156 1.14258C3.63281 0.683594 3.74023 0.341797 4.14062-0.0195312L15.6152-10.8203L14.6387-11.7871L3.04688-0.898438C2.06055 0.0195312 1.98242 0.996094 2.8418 1.86523ZM9.25781-16.3281C8.83789-15.918 8.80859-15.3418 9.04297-14.9512C9.27734-14.5898 9.73633-14.3555 10.3809-14.5215C11.8457-14.8633 13.3691-14.9219 14.7949-13.9844L14.209-12.5293C13.8672-11.6992 14.043-11.1133 14.5801-10.5664L16.875-8.25195C17.3633-7.76367 17.7734-7.74414 18.3398-7.8418L19.4043-8.03711L20.0684-7.36328L20.0293-6.80664C19.9902-6.30859 20.1172-5.92773 20.6055-5.44922L21.3672-4.70703C21.8457-4.22852 22.4609-4.19922 22.9297-4.66797L25.8398-7.58789C26.3086-8.05664 26.2891-8.65234 25.8105-9.13086L25.0391-9.89258C24.5605-10.3711 24.1895-10.5273 23.7109-10.4883L23.1348-10.4395L22.4902-11.0742L22.7344-12.1973C22.8613-12.7637 22.7051-13.2031 22.1191-13.7891L19.9219-15.9766C16.582-19.2969 12.1484-19.2188 9.25781-16.3281ZM10.752-15.957C13.1836-17.7344 16.4746-17.4316 18.7012-15.2051L21.1328-12.793C21.3672-12.5586 21.4062-12.373 21.3379-12.0312L21.0156-10.5469L22.5195-9.0625L23.5059-9.12109C23.7598-9.13086 23.8379-9.11133 24.0332-8.91602L24.6094-8.33984L22.168-5.89844L21.5918-6.47461C21.3965-6.66992 21.3672-6.74805 21.377-7.01172L21.4453-7.98828L19.9512-9.47266L18.4277-9.21875C18.1055-9.15039 17.959-9.17969 17.7148-9.41406L15.7129-11.416C15.459-11.6504 15.4297-11.8164 15.5859-12.1875L16.4648-14.2773C14.9023-15.7324 12.8711-16.3574 10.8398-15.7617C10.6836-15.7227 10.625-15.8496 10.752-15.957Z"/>
  </g>
  <text style="stroke:none;fill:black;font-family:sans-serif;font-size:13;font-weight:bold;" transform="matrix(1 0 0 1 1289 1953)">Exporting</text>
  <text style="stroke:none;fill:black;font-family:sans-serif;font-size:13;" transform="matrix(1 0 0 1 1289 1971)">Symbols should be outlined when exporting to ensure the</text>
  <text style="stroke:none;fill:black;font-family:sans-serif;font-size:13;" transform="matrix(1 0 0 1 1289 1989)">design is preserved when submitting to Xcode.</text>
  <text id="template-version" style="stroke:none;fill:black;font-family:sans-serif;font-size:13;text-anchor:end;" transform="matrix(1 0 0 1 3036 1933)">Template v.4.0</text>
  <text style="stroke:none;fill:black;font-family:sans-serif;font-size:13;text-anchor:end;" transform="matrix(1 0 0 1 3036 1951)">Requires Xcode 14 or greater</text>
  <text id="descriptive-name" style="stroke:none;fill:black;font-family:sans-serif;font-size:13;text-anchor:end;" transform="matrix(1 0 0 1 3036 1969)">Generated from theatermask.and.paintbrush</text>
  <text style="stroke:none;fill:black;font-family:sans-serif;font-size:13;text-anchor:end;" transform="matrix(1 0 0 1 3036 1987)">Typeset at 100 points</text>
  <text style="stroke:none;fill:black;font-family:sans-serif;font-size:13;" transform="matrix(1 0 0 1 263 726)">Small</text>
  <text style="stroke:none;fill:black;font-family:sans-serif;font-size:13;" transform="matrix(1 0 0 1 263 1156)">Medium</text>
  <text style="stroke:none;fill:black;font-family:sans-serif;font-size:13;" transform="matrix(1 0 0 1 263 1586)">Large</text>
 </g>
 <g id="Guides">
  <g id="H-reference" style="fill:#27AAE1;stroke:none;" transform="matrix(1 0 0 1 339 696)">
   <path d="M0.993654 0L3.63775 0L29.3281-67.1323L30.0303-67.1323L30.0303-70.459L28.1226-70.459ZM11.6885-24.4799L46.9815-24.4799L46.2315-26.7285L12.4385-26.7285ZM55.1196 0L57.7637 0L30.6382-70.459L29.4326-70.459L29.4326-67.1323Z"/>
  </g>
  <line id="Baseline-S" style="fill:none;stroke:#27AAE1;opacity:1;stroke-width:0.5;" x1="263" x2="3036" y1="696" y2="696"/>
  <line id="Capline-S" style="fill:none;stroke:#27AAE1;opacity:1;stroke-width:0.5;" x1="263" x2="3036" y1="625.541" y2="625.541"/>
  <g id="H-reference" style="fill:#27AAE1;stroke:none;" transform="matrix(1 0 0 1 339 1126)">
   <path d="M0.993654 0L3.63775 0L29.3281-67.1323L30.0303-67.1323L30.0303-70.459L28.1226-70.459ZM11.6885-24.4799L46.9815-24.4799L46.2315-26.7285L12.4385-26.7285ZM55.1196 0L57.7637 0L30.6382-70.459L29.4326-70.459L29.4326-67.1323Z"/>
  </g>
  <line id="Baseline-M" style="fill:none;stroke:#27AAE1;opacity:1;stroke-width:0.5;" x1="263" x2="3036" y1="1126" y2="1126"/>
  <line id="Capline-M" style="fill:none;stroke:#27AAE1;opacity:1;stroke-width:0.5;" x1="263" x2="3036" y1="1055.54" y2="1055.54"/>
  <g id="H-reference" style="fill:#27AAE1;stroke:none;" transform="matrix(1 0 0 1 339 1556)">
   <path d="M0.993654 0L3.63775 0L29.3281-67.1323L30.0303-67.1323L30.0303-70.459L28.1226-70.459ZM11.6885-24.4799L46.9815-24.4799L46.2315-26.7285L12.4385-26.7285ZM55.1196 0L57.7637 0L30.6382-70.459L29.4326-70.459L29.4326-67.1323Z"/>
  </g>
  <line id="Baseline-L" style="fill:none;stroke:#27AAE1;opacity:1;stroke-width:0.5;" x1="263" x2="3036" y1="1556" y2="1556"/>
  <line id="Capline-L" style="fill:none;stroke:#27AAE1;opacity:1;stroke-width:0.5;" x1="263" x2="3036" y1="1485.54" y2="1485.54"/>
  <line id="left-margin-Ultralight-S" style="fill:none;stroke:#00AEEF;stroke-width:0.5;opacity:1.0;" x1="506.142" x2="506.142" y1="600.785" y2="720.121"/>
  <line id="right-margin-Ultralight-S" style="fill:none;stroke:#00AEEF;stroke-width:0.5;opacity:1.0;" x1="613.281" x2="613.281" y1="600.785" y2="720.121"/>
  <line id="left-margin-Regular-S" style="fill:none;stroke:#00AEEF;stroke-width:0.5;opacity:1.0;" x1="1393.94" x2="1393.94" y1="600.785" y2="720.121"/>
  <line id="right-margin-Regular-S" style="fill:none;stroke:#00AEEF;stroke-width:0.5;opacity:1.0;" x1="1505.75" x2="1505.75" y1="600.785" y2="720.121"/>
  <line id="left-margin-Black-S" style="fill:none;stroke:#00AEEF;stroke-width:0.5;opacity:1.0;" x1="2874.46" x2="2874.46" y1="600.785" y2="720.121"/>
  <line id="right-margin-Black-S" style="fill:none;stroke:#00AEEF;stroke-width:0.5;opacity:1.0;" x1="2992.34" x2="2992.34" y1="600.785" y2="720.121"/>
 </g>
 <g id="Symbols">
  <g id="Black-S" transform="matrix(1 0 0 1 2874.46 696)">
   <path class="monochrome-0 hierarchical-0:primary SFSymbolsPreview212121" d="M39.3066 6.15234C45.9961 14.5996 65.4785 16.2598 74.8535 6.88477C83.1055-1.26953 83.252-12.2559 75.4883-20.0195C67.8711-27.6855 58.0078-28.3203 51.3672-21.5332C44.6777-14.8438 48.1934-8.34961 46.2402-6.39648C43.75-3.90625 41.0645-4.78516 38.7207-2.39258C36.6699-0.195312 36.7188 2.92969 39.3066 6.15234ZM76.3672-8.25195C81.5918-9.32617 85.791-12.6465 89.6973-18.1641C95.2148-25.9766 100.977-38.0371 107.422-57.7148C110.889-68.3594 100.781-76.416 91.6016-68.7988C89.5508-67.041 73.1934-51.7578 62.8906-36.9141C59.1797-31.543 57.4219-26.5137 58.0078-21.4355L69.9219-20.166C68.5059-23.5352 68.7012-25.7324 72.1191-30.4688C78.9062-40.0391 88.5254-49.9512 94.1895-55.5664C94.5312-55.9082 94.8242-55.6641 94.7266-55.3223C92.1387-47.6562 87.2559-34.2773 80.4688-24.6094C77.5879-20.4102 75.6836-19.3848 72.5098-18.7988ZM52.6855 2.44141C52.2461 2.24609 52.0508 1.85547 52.3438 1.46484C52.7344 0.976562 53.4668 0.732422 53.9062 0.146484C58.7891-5.66406 55.957-9.91211 58.8867-13.0371C61.377-15.6738 64.6973-15.4785 68.1152-12.5977C71.582-9.61914 71.2402-4.98047 67.1387-0.78125C62.6953 3.80859 56.6406 4.15039 52.6855 2.44141ZM80.127-19.0918L89.3066-23.3398C88.1836-32.666 77.4414-40.3809 68.4082-38.4766L66.6504-28.125C73.0957-29.7852 79.3457-25.4395 80.127-19.0918Z"/>
   <path class="monochrome-1 hierarchical-1:secondary SFSymbolsPreview4D4D4D" d="M16.8457-35.3516C21.7773-16.7969 35.4004-7.91016 53.125-11.9141C54.541-12.2559 55.9082-12.6465 57.3242-12.9883L56.8848-25.2441C52.7832-23.4863 52.6367-23.4375 51.9531-23.2422C39.6973-20.0684 31.3477-25.2441 27.8809-38.2324L21.5332-61.9629C21.1914-63.2324 21.7285-64.209 22.9004-64.502L56.4941-73.5352C57.7637-73.877 58.6914-73.2422 59.0332-71.9727L65.3809-48.3398C66.748-43.2617 66.7969-39.3066 65.6738-35.2051L77.5879-45.2148C77.3438-47.1191 76.9043-49.2676 76.3672-51.2695L69.9707-75.2441C67.7734-83.3984 61.9141-86.6699 53.6621-84.4727L19.873-75.4883C11.5723-73.291 8.25195-67.5781 10.4492-59.3262ZM50.4883-29.2969C56.9336-31.0547 61.1328-35.8887 61.377-41.8457C61.4258-43.5547 60.0098-44.1406 58.4961-43.0176C54.6387-40.2832 50.1465-39.1113 48.0957-38.5742C45.9473-37.9883 41.5527-36.7676 36.7188-37.207C34.9609-37.4512 33.8867-36.1328 34.8633-34.7656C38.0859-29.7363 44.1406-27.5879 50.4883-29.2969ZM34.1309-49.4141C36.6699-50.0488 37.8418-48.9258 38.8672-49.1699C39.7461-49.3652 39.9902-50.3418 39.6484-51.6113C38.8672-54.7363 35.5469-56.5918 32.5195-55.6641C29.3457-54.8828 27.4414-51.6602 28.3203-48.6328C28.7109-47.3145 29.3945-46.582 30.1758-46.8262C31.25-47.1191 31.6406-48.7305 34.1309-49.4141ZM54.3457-54.8828C56.8848-55.6152 58.0566-54.3945 59.082-54.6387C59.9609-54.8828 60.2051-55.8594 59.8633-57.0801C59.082-60.2051 55.8594-61.9629 52.7344-61.1328C49.6094-60.3027 47.6562-57.1289 48.5352-54.1016C48.9258-52.7832 49.6094-52.0996 50.3906-52.2949C51.4648-52.5879 51.8555-54.248 54.3457-54.8828Z"/>
  </g>
  <g id="Regular-S" transform="matrix(1 0 0 1 1393.94 696)">
   <path class="monochrome-0 hierarchical-0:primary SFSymbolsPreview212121" d="M36.6211 4.83398C45.5078 13.3301 60.7422 13.9648 69.1895 5.37109C76.5137-1.95312 76.6113-11.6211 69.6289-18.5059C62.7441-25.293 54.248-25.7812 48.4863-19.873C42.9199-14.2578 46.3867-7.91016 43.457-4.88281C40.625-2.09961 37.8906-2.83203 36.0352-0.927734C34.7168 0.537109 34.4727 2.73438 36.6211 4.83398ZM73.1445-10.498C77.0996-11.7676 80.3711-14.5508 83.5938-19.0918C93.75-33.6426 100.537-56.1035 101.367-58.5449C104.395-67.1875 96.3379-73.5352 88.916-67.334C86.8652-65.5762 70.3613-50.0488 60.2539-35.4492C57.1289-30.957 55.6152-27.002 55.6641-22.9492L62.793-22.168C62.3535-24.9023 63.4277-27.7344 66.0156-31.3965C75.9766-45.4102 92.041-60.4492 93.2617-61.7188C94.043-62.5 95.1172-61.8652 94.5801-60.6934C93.9453-59.375 87.6953-37.2559 77.832-23.1445C75.3906-19.6289 73.2422-17.9199 70.752-17.0898ZM45.5566 2.83203C45.166 2.58789 45.1172 2.19727 45.3613 1.9043C45.6543 1.46484 47.6074 0.732422 48.8281-1.07422C51.8555-5.41992 49.6582-10.6934 53.5156-14.7949C56.543-18.0176 61.3281-17.7246 65.1855-14.0137C69.3848-9.91211 68.9941-4.05273 64.4531 0.683594C59.5703 5.81055 51.6602 7.17773 45.5566 2.83203ZM77.5391-21.7285L82.7148-24.1211C80.957-31.25 72.8027-37.1094 65.625-36.4258L64.6973-30.6152C69.1406-31.7383 76.8555-26.3672 77.5391-21.7285Z"/>
   <path class="monochrome-1 hierarchical-1:secondary SFSymbolsPreview4D4D4D" d="M16.748-36.5234C21.3379-19.3359 33.4473-11.2305 49.5605-14.4043C50.5859-14.5996 51.6113-14.7949 52.6367-14.9902L51.9531-22.4121C51.0254-22.0703 50.7324-22.0215 50.3906-21.875C37.207-18.457 27.3926-24.5117 23.7305-38.3301L17.334-62.1094C16.6504-64.7461 17.5781-66.4551 20.2148-67.1387L53.8574-76.2207C56.4941-76.9043 58.2031-75.8789 58.9355-73.1445L65.2832-49.5117C66.1133-46.2891 66.5039-43.3594 66.4062-40.625L73.2422-46.3867C72.998-47.998 72.6562-49.6582 72.168-51.3672L65.7715-75.3418C63.916-82.3242 59.1797-84.9121 52.0996-83.0566L18.2617-74.0234C11.1328-72.168 8.44727-67.5781 10.3516-60.498ZM48.3887-29.834C54.8828-31.5918 59.1309-36.4746 59.375-42.5293C59.375-44.1895 58.0078-44.7754 56.4941-43.7012C52.6855-40.9668 48.1934-39.7461 45.9961-39.1602C43.7012-38.5254 39.2578-37.3535 34.4238-37.793C32.666-38.0371 31.6406-36.7188 32.6172-35.4004C35.8398-30.2734 41.9434-28.0762 48.3887-29.834ZM31.9824-50.0488C34.4727-50.6836 35.6934-49.5605 36.7188-49.8047C37.5488-50 37.793-50.9766 37.4512-52.2461C36.6699-55.3711 33.3984-57.2266 30.3711-56.2988C27.1973-55.5176 25.293-52.2949 26.1719-49.2676C26.5625-47.9492 27.2949-47.2656 28.0273-47.4609C29.1016-47.7539 29.4922-49.3652 31.9824-50.0488ZM52.1973-55.5176C54.7363-56.25 55.9082-55.0293 56.9336-55.2734C57.8125-55.5176 58.0566-56.4941 57.7148-57.7148C56.9336-60.8398 53.7109-62.5977 50.6348-61.7676C47.5098-60.9375 45.5566-57.7637 46.4355-54.7363C46.8262-53.418 47.5098-52.7832 48.291-52.9785C49.3652-53.2715 49.7559-54.8828 52.1973-55.5176Z"/>
  </g>
  <g id="Ultralight-S" transform="matrix(1 0 0 1 506.142 696)">
   <path class="monochrome-0 hierarchical-0:primary SFSymbolsPreview212121" d="M34.8501 6.78661C43.0103 13.6479 57.5181 11.0586 63.0591 3.28224C67.4771-2.86132 67.3023-10.9399 59.8658-16.2354C54.1163-20.3887 46.71-20.0142 42.9009-14.6963C39.5596-10.0347 41.6641-5.91213 39.3701-2.70314C38.0821-0.918955 34.7573-1.33351 33.3106 0.707018C32.2193 2.26268 32.3838 4.687 34.8501 6.78661ZM64.6983-9.04493C68.6988-9.86037 71.0167-11.8716 74.0577-16.1856C83.1241-29.1016 95.8145-59.1006 96.917-61.9961C99.127-67.7778 92.9322-72.2183 88.3711-67.9697C86.0479-65.8032 63.9585-42.5108 54.8956-29.5459C51.8614-25.2354 50.8926-22.4156 51.3955-18.3628L53.7564-18.399C53.1353-21.4058 54.255-24.8281 56.6612-28.354C66.1226-41.7774 87.5-64.3091 89.6743-66.5322C92.499-69.4477 96.6157-66.4516 95.0796-62.7822C93.9453-59.9653 81.1563-30.1719 72.2012-17.3775C69.2603-13.1353 66.9302-11.7442 63.9405-11.2774ZM36.6109 5.19334C34.9942 3.95018 34.9 2.51513 35.5074 1.76807C36.4361 0.465828 39.4337 1.00488 41.1993-1.48291C43.9996-5.37451 41.9839-9.55811 44.7061-13.3418C47.7335-17.6543 53.8809-17.8608 58.6011-14.5132C64.8438-10.0937 64.9527-3.23536 61.229 2.04589C56.3916 9.03464 43.6226 11.083 36.6109 5.19334ZM72.5894-17.1421L74.5411-17.8545C72.5108-24.7564 63.4483-31.0699 56.2706-30.6133L56.3419-28.5264C62.4654-28.9683 70.8614-23.0977 72.5894-17.1421Z"/>
   <path class="monochrome-1 hierarchical-1:secondary SFSymbolsPreview4D4D4D" d="M16.5664-39.4751C20.9292-23.0141 32.9478-15.726 48.7432-19.9443C49.9502-20.2758 51.1118-20.6528 52.228-21.0297L52.1802-23.3657C50.9346-22.8423 49.6426-22.4302 48.3018-22.0566C33.7559-18.2754 22.8516-24.9658 18.7808-40.1011L12.2027-64.3799C11.292-67.834 12.9009-70.6328 16.355-71.5434L51.1782-80.8525C54.6777-81.7631 57.4312-80.1474 58.3452-76.6865L64.8291-52.4179C65.7954-48.832 66.186-45.4482 65.9976-42.3506L68.3833-44.3887C68.3208-47.1353 67.8882-50.0215 67.0367-53.0474L60.4131-77.3398C59.148-82.0972 55.4107-84.1856 50.6011-82.875L15.8096-73.5693C11.042-72.3042 8.85595-68.5317 10.1245-63.813ZM46.1182-30.3335C53.7476-32.4546 58.5405-38.291 58.5576-45.7988C58.5122-47.0957 57.5083-47.6816 56.4033-46.9253C52.9126-44.3725 48.4658-42.2436 43.9527-40.9311C38.9786-39.3882 33.5816-38.7612 28.8838-39.4277C27.5801-39.6265 27.0088-38.6714 27.7129-37.4892C31.3897-31.0454 38.4468-28.3486 46.1182-30.3335ZM28.94-52.8188C31.1123-53.3174 32.4693-52.2397 33.4038-52.5293C33.916-52.6792 34.4326-53.5195 34.0908-54.789C33.2642-57.8232 30.3106-59.4062 27.4649-58.6147C24.4273-57.7881 22.6592-54.9741 23.4927-51.9468C23.8379-50.6738 24.7974-50.1719 25.3482-50.3218C26.2862-50.5693 26.7222-52.1806 28.94-52.8188ZM49.6997-58.4238C51.8755-58.9292 53.229-57.8447 54.1636-58.1343C54.6338-58.2876 55.1958-59.1279 54.854-60.394C54.0274-63.4282 51.0772-65.0044 48.1826-64.2197C45.1485-63.3896 43.377-60.5791 44.2105-57.5517C44.5557-56.2788 45.5117-55.7802 46.0659-55.9302C47.0039-56.1777 47.44-57.789 49.6997-58.4238Z"/>
  </g>
 </g>
</svg>
