<?xml version="1.0" encoding="UTF-8"?>
<!--Generator: Apple Native CoreSVG 175.5-->
<!DOCTYPE svg
PUBLIC "-//W3C//DTD SVG 1.1//EN"
       "http://www.w3.org/Graphics/SVG/1.1/DTD/svg11.dtd">
<svg version="1.1" xmlns="http://www.w3.org/2000/svg" xmlns:xlink="http://www.w3.org/1999/xlink" width="3300" height="2200">
 <!--glyph: "uni1014E5.medium", point size: 100.0, font version: "18.0d11e1", template writer version: "90"-->
 <style>.monochrome-0 {fill:#000000}
.monochrome-1 {fill:#000000}

.hierarchical-0:secondary {fill:#4D4D4D}
.hierarchical-1:primary {fill:#212121}

.SFSymbolsPreview212121 {fill:#212121;opacity:1.0}
.SFSymbolsPreview4D4D4D {fill:#4D4D4D;opacity:1.0}
</style>
 <g id="Notes">
  <rect height="2200" id="artboard" style="fill:white;opacity:1" width="3300" x="0" y="0"/>
  <line style="fill:none;stroke:black;opacity:1;stroke-width:0.5;" x1="263" x2="3036" y1="292" y2="292"/>
  <text style="stroke:none;fill:black;font-family:sans-serif;font-size:13;font-weight:bold;" transform="matrix(1 0 0 1 263 322)">Weight/Scale Variations</text>
  <text style="stroke:none;fill:black;font-family:sans-serif;font-size:13;text-anchor:middle;" transform="matrix(1 0 0 1 559.711 322)">Ultralight</text>
  <text style="stroke:none;fill:black;font-family:sans-serif;font-size:13;text-anchor:middle;" transform="matrix(1 0 0 1 856.422 322)">Thin</text>
  <text style="stroke:none;fill:black;font-family:sans-serif;font-size:13;text-anchor:middle;" transform="matrix(1 0 0 1 1153.13 322)">Light</text>
  <text style="stroke:none;fill:black;font-family:sans-serif;font-size:13;text-anchor:middle;" transform="matrix(1 0 0 1 1449.84 322)">Regular</text>
  <text style="stroke:none;fill:black;font-family:sans-serif;font-size:13;text-anchor:middle;" transform="matrix(1 0 0 1 1746.56 322)">Medium</text>
  <text style="stroke:none;fill:black;font-family:sans-serif;font-size:13;text-anchor:middle;" transform="matrix(1 0 0 1 2043.27 322)">Semibold</text>
  <text style="stroke:none;fill:black;font-family:sans-serif;font-size:13;text-anchor:middle;" transform="matrix(1 0 0 1 2339.98 322)">Bold</text>
  <text style="stroke:none;fill:black;font-family:sans-serif;font-size:13;text-anchor:middle;" transform="matrix(1 0 0 1 2636.69 322)">Heavy</text>
  <text style="stroke:none;fill:black;font-family:sans-serif;font-size:13;text-anchor:middle;" transform="matrix(1 0 0 1 2933.4 322)">Black</text>
  <line style="fill:none;stroke:black;opacity:1;stroke-width:0.5;" x1="263" x2="3036" y1="1903" y2="1903"/>
  <g transform="matrix(1 0 0 1 263 1933)">
   <path d="M9.24805 0.830078C13.5547 0.830078 17.1387-2.74414 17.1387-7.05078C17.1387-11.3574 13.5449-14.9316 9.23828-14.9316C4.94141-14.9316 1.36719-11.3574 1.36719-7.05078C1.36719-2.74414 4.95117 0.830078 9.24805 0.830078ZM9.24805-0.654297C5.70312-0.654297 2.87109-3.49609 2.87109-7.05078C2.87109-10.6055 5.69336-13.4473 9.23828-13.4473C12.793-13.4473 15.6445-10.6055 15.6445-7.05078C15.6445-3.49609 12.8027-0.654297 9.24805-0.654297ZM5.6543-7.05078C5.6543-6.62109 5.95703-6.32812 6.40625-6.32812L8.50586-6.32812L8.50586-4.20898C8.50586-3.76953 8.79883-3.4668 9.22852-3.4668C9.67773-3.4668 9.9707-3.76953 9.9707-4.20898L9.9707-6.32812L12.0898-6.32812C12.5293-6.32812 12.832-6.62109 12.832-7.05078C12.832-7.49023 12.5293-7.79297 12.0898-7.79297L9.9707-7.79297L9.9707-9.90234C9.9707-10.3516 9.67773-10.6543 9.22852-10.6543C8.79883-10.6543 8.50586-10.3516 8.50586-9.90234L8.50586-7.79297L6.40625-7.79297C5.95703-7.79297 5.6543-7.49023 5.6543-7.05078Z"/>
  </g>
  <g transform="matrix(1 0 0 1 281.867 1933)">
   <path d="M11.709 2.91016C17.1582 2.91016 21.6699-1.61133 21.6699-7.05078C21.6699-12.5 17.1484-17.0117 11.6992-17.0117C6.25977-17.0117 1.74805-12.5 1.74805-7.05078C1.74805-1.61133 6.26953 2.91016 11.709 2.91016ZM11.709 1.25C7.09961 1.25 3.41797-2.44141 3.41797-7.05078C3.41797-11.6602 7.08984-15.3516 11.6992-15.3516C16.3086-15.3516 20.0098-11.6602 20.0098-7.05078C20.0098-2.44141 16.3184 1.25 11.709 1.25ZM7.17773-7.05078C7.17773-6.57227 7.50977-6.25 8.00781-6.25L10.8789-6.25L10.8789-3.36914C10.8789-2.88086 11.2109-2.53906 11.6895-2.53906C12.1777-2.53906 12.5195-2.87109 12.5195-3.36914L12.5195-6.25L15.4004-6.25C15.8887-6.25 16.2305-6.57227 16.2305-7.05078C16.2305-7.53906 15.8887-7.88086 15.4004-7.88086L12.5195-7.88086L12.5195-10.752C12.5195-11.25 12.1777-11.5918 11.6895-11.5918C11.2109-11.5918 10.8789-11.25 10.8789-10.752L10.8789-7.88086L8.00781-7.88086C7.50977-7.88086 7.17773-7.53906 7.17773-7.05078Z"/>
  </g>
  <g transform="matrix(1 0 0 1 305.646 1933)">
   <path d="M14.9707 5.66406C21.9336 5.66406 27.6953-0.0976562 27.6953-7.05078C27.6953-14.0137 21.9238-19.7754 14.9609-19.7754C8.00781-19.7754 2.25586-14.0137 2.25586-7.05078C2.25586-0.0976562 8.01758 5.66406 14.9707 5.66406ZM14.9707 3.84766C8.93555 3.84766 4.08203-1.01562 4.08203-7.05078C4.08203-13.0957 8.92578-17.9492 14.9609-17.9492C21.0059-17.9492 25.8691-13.0957 25.8691-7.05078C25.8691-1.01562 21.0156 3.84766 14.9707 3.84766ZM9.19922-7.05078C9.19922-6.5332 9.57031-6.17188 10.1172-6.17188L14.0625-6.17188L14.0625-2.2168C14.0625-1.67969 14.4336-1.29883 14.9512-1.29883C15.4883-1.29883 15.8594-1.66992 15.8594-2.2168L15.8594-6.17188L19.8145-6.17188C20.3516-6.17188 20.7324-6.5332 20.7324-7.05078C20.7324-7.59766 20.3613-7.96875 19.8145-7.96875L15.8594-7.96875L15.8594-11.9141C15.8594-12.4609 15.4883-12.8418 14.9512-12.8418C14.4336-12.8418 14.0625-12.4609 14.0625-11.9141L14.0625-7.96875L10.1172-7.96875C9.57031-7.96875 9.19922-7.59766 9.19922-7.05078Z"/>
  </g>
  <text style="stroke:none;fill:black;font-family:sans-serif;font-size:13;font-weight:bold;" transform="matrix(1 0 0 1 263 1953)">Design Variations</text>
  <text style="stroke:none;fill:black;font-family:sans-serif;font-size:13;" transform="matrix(1 0 0 1 263 1971)">Symbols are supported in up to nine weights and three scales.</text>
  <text style="stroke:none;fill:black;font-family:sans-serif;font-size:13;" transform="matrix(1 0 0 1 263 1989)">For optimal layout with text and other symbols, vertically align</text>
  <text style="stroke:none;fill:black;font-family:sans-serif;font-size:13;" transform="matrix(1 0 0 1 263 2007)">symbols with the adjacent text.</text>
  <line style="fill:none;stroke:#00AEEF;stroke-width:0.5;opacity:1.0;" x1="776" x2="776" y1="1919" y2="1933"/>
  <g transform="matrix(1 0 0 1 776 1933)">
   <path d="M3.31055 0.15625C3.82812 0.15625 4.08203-0.0390625 4.26758-0.585938L5.52734-4.0332L11.2891-4.0332L12.5488-0.585938C12.7344-0.0390625 12.9883 0.15625 13.4961 0.15625C14.0137 0.15625 14.3457-0.15625 14.3457-0.644531C14.3457-0.810547 14.3164-0.966797 14.2383-1.17188L9.6582-13.3691C9.43359-13.9648 9.0332-14.2676 8.4082-14.2676C7.80273-14.2676 7.39258-13.9746 7.17773-13.3789L2.59766-1.16211C2.51953-0.957031 2.49023-0.800781 2.49023-0.634766C2.49023-0.146484 2.80273 0.15625 3.31055 0.15625ZM6.00586-5.51758L8.37891-12.0898L8.42773-12.0898L10.8008-5.51758Z"/>
  </g>
  <line style="fill:none;stroke:#00AEEF;stroke-width:0.5;opacity:1.0;" x1="793.197" x2="793.197" y1="1919" y2="1933"/>
  <text style="stroke:none;fill:black;font-family:sans-serif;font-size:13;font-weight:bold;" transform="matrix(1 0 0 1 776 1953)">Margins</text>
  <text style="stroke:none;fill:black;font-family:sans-serif;font-size:13;" transform="matrix(1 0 0 1 776 1971)">Leading and trailing margins on the left and right side of each symbol</text>
  <text style="stroke:none;fill:black;font-family:sans-serif;font-size:13;" transform="matrix(1 0 0 1 776 1989)">can be adjusted by modifying the x-location of the margin guidelines.</text>
  <text style="stroke:none;fill:black;font-family:sans-serif;font-size:13;" transform="matrix(1 0 0 1 776 2007)">Modifications are automatically applied proportionally to all</text>
  <text style="stroke:none;fill:black;font-family:sans-serif;font-size:13;" transform="matrix(1 0 0 1 776 2025)">scales and weights.</text>
  <g transform="matrix(1 0 0 1 1289 1933)">
   <path d="M2.8418 1.86523L4.54102 3.57422C5.40039 4.44336 6.38672 4.38477 7.31445 3.35938L18.0078-8.42773L17.041-9.4043L6.42578 2.27539C6.07422 2.67578 5.74219 2.77344 5.27344 2.30469L4.10156 1.14258C3.63281 0.683594 3.74023 0.341797 4.14062-0.0195312L15.6152-10.8203L14.6387-11.7871L3.04688-0.898438C2.06055 0.0195312 1.98242 0.996094 2.8418 1.86523ZM9.25781-16.3281C8.83789-15.918 8.80859-15.3418 9.04297-14.9512C9.27734-14.5898 9.73633-14.3555 10.3809-14.5215C11.8457-14.8633 13.3691-14.9219 14.7949-13.9844L14.209-12.5293C13.8672-11.6992 14.043-11.1133 14.5801-10.5664L16.875-8.25195C17.3633-7.76367 17.7734-7.74414 18.3398-7.8418L19.4043-8.03711L20.0684-7.36328L20.0293-6.80664C19.9902-6.30859 20.1172-5.92773 20.6055-5.44922L21.3672-4.70703C21.8457-4.22852 22.4609-4.19922 22.9297-4.66797L25.8398-7.58789C26.3086-8.05664 26.2891-8.65234 25.8105-9.13086L25.0391-9.89258C24.5605-10.3711 24.1895-10.5273 23.7109-10.4883L23.1348-10.4395L22.4902-11.0742L22.7344-12.1973C22.8613-12.7637 22.7051-13.2031 22.1191-13.7891L19.9219-15.9766C16.582-19.2969 12.1484-19.2188 9.25781-16.3281ZM10.752-15.957C13.1836-17.7344 16.4746-17.4316 18.7012-15.2051L21.1328-12.793C21.3672-12.5586 21.4062-12.373 21.3379-12.0312L21.0156-10.5469L22.5195-9.0625L23.5059-9.12109C23.7598-9.13086 23.8379-9.11133 24.0332-8.91602L24.6094-8.33984L22.168-5.89844L21.5918-6.47461C21.3965-6.66992 21.3672-6.74805 21.377-7.01172L21.4453-7.98828L19.9512-9.47266L18.4277-9.21875C18.1055-9.15039 17.959-9.17969 17.7148-9.41406L15.7129-11.416C15.459-11.6504 15.4297-11.8164 15.5859-12.1875L16.4648-14.2773C14.9023-15.7324 12.8711-16.3574 10.8398-15.7617C10.6836-15.7227 10.625-15.8496 10.752-15.957Z"/>
  </g>
  <text style="stroke:none;fill:black;font-family:sans-serif;font-size:13;font-weight:bold;" transform="matrix(1 0 0 1 1289 1953)">Exporting</text>
  <text style="stroke:none;fill:black;font-family:sans-serif;font-size:13;" transform="matrix(1 0 0 1 1289 1971)">Symbols should be outlined when exporting to ensure the</text>
  <text style="stroke:none;fill:black;font-family:sans-serif;font-size:13;" transform="matrix(1 0 0 1 1289 1989)">design is preserved when submitting to Xcode.</text>
  <text id="template-version" style="stroke:none;fill:black;font-family:sans-serif;font-size:13;text-anchor:end;" transform="matrix(1 0 0 1 3036 1933)">Template v.4.0</text>
  <text style="stroke:none;fill:black;font-family:sans-serif;font-size:13;text-anchor:end;" transform="matrix(1 0 0 1 3036 1951)">Requires Xcode 14 or greater</text>
  <text id="descriptive-name" style="stroke:none;fill:black;font-family:sans-serif;font-size:13;text-anchor:end;" transform="matrix(1 0 0 1 3036 1969)">Generated from air.purifier</text>
  <text style="stroke:none;fill:black;font-family:sans-serif;font-size:13;text-anchor:end;" transform="matrix(1 0 0 1 3036 1987)">Typeset at 100 points</text>
  <text style="stroke:none;fill:black;font-family:sans-serif;font-size:13;" transform="matrix(1 0 0 1 263 726)">Small</text>
  <text style="stroke:none;fill:black;font-family:sans-serif;font-size:13;" transform="matrix(1 0 0 1 263 1156)">Medium</text>
  <text style="stroke:none;fill:black;font-family:sans-serif;font-size:13;" transform="matrix(1 0 0 1 263 1586)">Large</text>
 </g>
 <g id="Guides">
  <g id="H-reference" style="fill:#27AAE1;stroke:none;" transform="matrix(1 0 0 1 339 696)">
   <path d="M0.993654 0L3.63775 0L29.3281-67.1323L30.0303-67.1323L30.0303-70.459L28.1226-70.459ZM11.6885-24.4799L46.9815-24.4799L46.2315-26.7285L12.4385-26.7285ZM55.1196 0L57.7637 0L30.6382-70.459L29.4326-70.459L29.4326-67.1323Z"/>
  </g>
  <line id="Baseline-S" style="fill:none;stroke:#27AAE1;opacity:1;stroke-width:0.5;" x1="263" x2="3036" y1="696" y2="696"/>
  <line id="Capline-S" style="fill:none;stroke:#27AAE1;opacity:1;stroke-width:0.5;" x1="263" x2="3036" y1="625.541" y2="625.541"/>
  <g id="H-reference" style="fill:#27AAE1;stroke:none;" transform="matrix(1 0 0 1 339 1126)">
   <path d="M0.993654 0L3.63775 0L29.3281-67.1323L30.0303-67.1323L30.0303-70.459L28.1226-70.459ZM11.6885-24.4799L46.9815-24.4799L46.2315-26.7285L12.4385-26.7285ZM55.1196 0L57.7637 0L30.6382-70.459L29.4326-70.459L29.4326-67.1323Z"/>
  </g>
  <line id="Baseline-M" style="fill:none;stroke:#27AAE1;opacity:1;stroke-width:0.5;" x1="263" x2="3036" y1="1126" y2="1126"/>
  <line id="Capline-M" style="fill:none;stroke:#27AAE1;opacity:1;stroke-width:0.5;" x1="263" x2="3036" y1="1055.54" y2="1055.54"/>
  <g id="H-reference" style="fill:#27AAE1;stroke:none;" transform="matrix(1 0 0 1 339 1556)">
   <path d="M0.993654 0L3.63775 0L29.3281-67.1323L30.0303-67.1323L30.0303-70.459L28.1226-70.459ZM11.6885-24.4799L46.9815-24.4799L46.2315-26.7285L12.4385-26.7285ZM55.1196 0L57.7637 0L30.6382-70.459L29.4326-70.459L29.4326-67.1323Z"/>
  </g>
  <line id="Baseline-L" style="fill:none;stroke:#27AAE1;opacity:1;stroke-width:0.5;" x1="263" x2="3036" y1="1556" y2="1556"/>
  <line id="Capline-L" style="fill:none;stroke:#27AAE1;opacity:1;stroke-width:0.5;" x1="263" x2="3036" y1="1485.54" y2="1485.54"/>
  <line id="left-margin-Ultralight-S" style="fill:none;stroke:#00AEEF;stroke-width:0.5;opacity:1.0;" x1="525.386" x2="525.386" y1="600.785" y2="720.121"/>
  <line id="right-margin-Ultralight-S" style="fill:none;stroke:#FF3B30;stroke-width:0.5;opacity:1.0;" x1="594.036" x2="594.036" y1="600.785" y2="720.121"/>
  <line id="left-margin-Regular-S" style="fill:none;stroke:#00AEEF;stroke-width:0.5;opacity:1.0;" x1="1410.03" x2="1410.03" y1="600.785" y2="720.121"/>
  <line id="right-margin-Regular-S" style="fill:none;stroke:#FF3B30;stroke-width:0.5;opacity:1.0;" x1="1489.66" x2="1489.66" y1="600.785" y2="720.121"/>
  <line id="left-margin-Black-S" style="fill:none;stroke:#00AEEF;stroke-width:0.5;opacity:1.0;" x1="2887.7" x2="2887.7" y1="600.785" y2="720.121"/>
  <line id="right-margin-Black-S" style="fill:none;stroke:#FF3B30;stroke-width:0.5;opacity:1.0;" x1="2979.1" x2="2979.1" y1="600.785" y2="720.121"/>
 </g>
 <g id="Symbols">
  <g id="Black-S" transform="matrix(1 0 0 1 2887.7 696)">
   <path class="monochrome-0 hierarchical-0:secondary SFSymbolsPreview4D4D4D" d="M25 7.66602L66.4062 7.66602C75.9766 7.66602 81.6406 2.00195 81.6406-7.56836L81.6406-40.332C78.7109-39.9414 75.1465-35.5957 67.4805-33.5938L67.4805-9.81445C67.4805-7.37305 66.4062-6.49414 64.1602-6.49414L27.2461-6.49414C25-6.49414 23.9258-7.37305 23.9258-9.81445L23.9258-70.3613C23.9258-72.8027 25-73.6816 27.2461-73.6816L64.1602-73.6816C70.7031-78.7598 75.0488-80.0293 80.127-80.1758C77.832-85.1074 73.0957-87.8418 66.4062-87.8418L25-87.8418C15.4297-87.8418 9.76562-82.1777 9.76562-72.6074L9.76562-7.56836C9.76562 2.00195 15.4297 7.66602 25 7.66602ZM34.375-56.8848C37.7441-56.8848 40.5273-59.668 40.5273-63.0859C40.5273-66.4062 37.7441-69.1895 34.375-69.1895C30.957-69.1895 28.2227-66.4062 28.2227-63.0859C28.2227-59.668 30.957-56.8848 34.375-56.8848ZM51.0254-29.541L59.8145-29.541C61.7188-29.541 63.1836-31.0547 63.1836-32.9102C63.1836-34.8145 61.7188-36.3281 59.8145-36.3281L51.0254-36.3281C49.1211-36.3281 47.6562-34.8145 47.6562-32.9102C47.6562-31.0547 49.1211-29.541 51.0254-29.541ZM31.5918-29.541L40.3809-29.541C42.2852-29.541 43.75-31.0547 43.75-32.9102C43.75-34.8145 42.2852-36.3281 40.3809-36.3281L31.5918-36.3281C29.6875-36.3281 28.2227-34.8145 28.2227-32.9102C28.2227-31.0547 29.6875-29.541 31.5918-29.541ZM51.0254-10.9863L59.8145-10.9863C61.7188-10.9863 63.1836-12.5 63.1836-14.3555C63.1836-16.2598 61.7188-17.7734 59.8145-17.7734L51.0254-17.7734C49.1211-17.7734 47.6562-16.2598 47.6562-14.3555C47.6562-12.5 49.1211-10.9863 51.0254-10.9863ZM51.0254-20.2637L59.8145-20.2637C61.7188-20.2637 63.1836-21.7773 63.1836-23.6328C63.1836-25.5371 61.7188-27.0508 59.8145-27.0508L51.0254-27.0508C49.1211-27.0508 47.6562-25.5371 47.6562-23.6328C47.6562-21.7773 49.1211-20.2637 51.0254-20.2637ZM31.5918-10.9863L40.3809-10.9863C42.2852-10.9863 43.75-12.5 43.75-14.3555C43.75-16.2598 42.2852-17.7734 40.3809-17.7734L31.5918-17.7734C29.6875-17.7734 28.2227-16.2598 28.2227-14.3555C28.2227-12.5 29.6875-10.9863 31.5918-10.9863ZM31.5918-20.2637L40.3809-20.2637C42.2852-20.2637 43.75-21.7773 43.75-23.6328C43.75-25.5371 42.2852-27.0508 40.3809-27.0508L31.5918-27.0508C29.6875-27.0508 28.2227-25.5371 28.2227-23.6328C28.2227-21.7773 29.6875-20.2637 31.5918-20.2637ZM69.0918 17.334C72.3633 17.334 74.707 14.9902 74.707 11.7188L74.707 1.61133L63.4766 1.61133L63.4766 11.7188C63.4766 14.9902 65.8203 17.334 69.0918 17.334ZM22.3145 17.334C25.5859 17.334 27.9297 14.9902 27.9297 11.7188L27.9297 1.61133L16.6992 1.61133L16.6992 11.7188C16.6992 14.9902 19.043 17.334 22.3145 17.334Z"/>
   <path class="monochrome-1 hierarchical-1:primary SFSymbolsPreview212121" d="M59.5215-49.707C69.5312-49.707 74.2676-58.1543 82.0801-58.1543C83.8867-58.1543 85.3027-57.7148 87.1582-56.9336C88.6719-56.2988 90.332-56.4941 91.3086-57.8613C92.4805-59.5215 91.8945-61.6211 90.0879-62.6953C87.5977-64.1113 84.9121-64.8438 82.0801-64.8438C72.0703-64.8438 67.3828-56.25 59.5215-56.25C57.7148-56.25 56.2988-56.8848 54.4922-57.6172C52.8809-58.252 51.2207-58.0566 50.3418-56.6406C49.1699-54.9805 49.7559-52.8809 51.5625-51.8555C54.0039-50.4395 56.6895-49.707 59.5215-49.707ZM59.5215-59.6191C69.5312-59.6191 74.2676-68.0664 82.0801-68.0664C83.8867-68.0664 85.3027-67.627 87.1582-66.8457C88.6719-66.2109 90.332-66.4062 91.3086-67.7734C92.4805-69.4336 91.8945-71.5332 90.0879-72.6074C87.5977-74.0234 84.9121-74.7559 82.0801-74.7559C72.0703-74.7559 67.3828-66.2109 59.5215-66.2109C57.7148-66.2109 56.2988-66.7969 54.4922-67.5293C52.8809-68.1641 51.2207-67.9688 50.3418-66.5527C49.1699-64.8926 49.7559-62.8418 51.5137-61.7676C54.0039-60.3516 56.6895-59.6191 59.5215-59.6191ZM59.5215-39.7949C69.5312-39.7949 74.2676-48.1934 82.0801-48.1934C83.8867-48.1934 85.3027-47.8027 87.1582-47.0215C88.6719-46.3867 90.332-46.582 91.3086-47.9492C92.4805-49.6094 91.8945-51.709 90.0879-52.7832C87.5977-54.1992 84.9121-54.9316 82.0801-54.9316C72.0703-54.9316 67.3828-46.3379 59.5215-46.3379C57.7148-46.3379 56.2988-46.9727 54.4922-47.7051C52.9297-48.3398 51.2207-48.1445 50.3418-46.7285C49.1699-45.0684 49.7559-42.9688 51.5625-41.9434C54.0039-40.5273 56.6895-39.7949 59.5215-39.7949Z"/>
  </g>
  <g id="Regular-S" transform="matrix(1 0 0 1 1410.03 696)">
   <path class="monochrome-0 hierarchical-0:secondary SFSymbolsPreview4D4D4D" d="M22.168 3.95508L57.4707 3.95508C65.7715 3.95508 69.873-0.0976562 69.873-8.25195L69.873-36.4258C67.5293-35.0098 65.1855-33.7891 62.8418-32.8613L62.8418-8.64258C62.8418-4.98047 60.8398-3.07617 57.373-3.07617L22.2656-3.07617C18.7988-3.07617 16.7969-4.98047 16.7969-8.64258L16.7969-68.9941C16.7969-72.6562 18.7988-74.5605 22.2656-74.5605L58.5449-74.5605C61.084-76.1719 63.7695-77.4902 66.4551-78.6621C64.502-80.6152 61.4258-81.5918 57.4219-81.5918L22.168-81.5918C13.916-81.5918 9.76562-77.5391 9.76562-69.3848L9.76562-8.25195C9.76562-0.0976562 13.916 3.95508 22.168 3.95508ZM26.9043-58.2031C29.9805-58.2031 32.4707-60.6934 32.4707-63.8184C32.4707-66.8457 29.9805-69.3848 26.9043-69.3848C23.8281-69.3848 21.3379-66.8457 21.3379-63.8184C21.3379-60.6934 23.8281-58.2031 26.9043-58.2031ZM44.8242-27.6367L55.7617-27.6367C57.2266-27.6367 58.3496-28.8086 58.3496-30.2734C58.3496-31.7383 57.2266-32.9102 55.7617-32.9102L44.8242-32.9102C43.3594-32.9102 42.1875-31.7383 42.1875-30.2734C42.1875-28.8086 43.3594-27.6367 44.8242-27.6367ZM23.877-27.6367L34.8145-27.6367C36.2793-27.6367 37.4023-28.8086 37.4023-30.2734C37.4023-31.7383 36.2793-32.9102 34.8145-32.9102L23.877-32.9102C22.4121-32.9102 21.2891-31.7383 21.2891-30.2734C21.2891-28.8086 22.4121-27.6367 23.877-27.6367ZM44.8242-8.25195L55.7617-8.25195C57.2266-8.25195 58.3496-9.375 58.3496-10.8398C58.3496-12.3535 57.2266-13.4766 55.7617-13.4766L44.8242-13.4766C43.3594-13.4766 42.1875-12.3535 42.1875-10.8398C42.1875-9.375 43.3594-8.25195 44.8242-8.25195ZM44.8242-17.9688L55.7617-17.9688C57.2266-17.9688 58.3496-19.0918 58.3496-20.5566C58.3496-22.0215 57.2266-23.1934 55.7617-23.1934L44.8242-23.1934C43.3594-23.1934 42.1875-22.0215 42.1875-20.5566C42.1875-19.0918 43.3594-17.9688 44.8242-17.9688ZM23.877-8.25195L34.8145-8.25195C36.2793-8.25195 37.4023-9.375 37.4023-10.8398C37.4023-12.3535 36.2793-13.4766 34.8145-13.4766L23.877-13.4766C22.4121-13.4766 21.2891-12.3535 21.2891-10.8398C21.2891-9.375 22.4121-8.25195 23.877-8.25195ZM23.877-17.9688L34.8145-17.9688C36.2793-17.9688 37.4023-19.0918 37.4023-20.5566C37.4023-22.0215 36.2793-23.1934 34.8145-23.1934L23.877-23.1934C22.4121-23.1934 21.2891-22.0215 21.2891-20.5566C21.2891-19.0918 22.4121-17.9688 23.877-17.9688ZM58.2031 11.0352C60.3027 11.0352 61.7188 9.61914 61.7188 7.51953L61.7188-0.488281L54.6875-0.488281L54.6875 7.51953C54.6875 9.61914 56.1035 11.0352 58.2031 11.0352ZM21.4355 11.0352C23.5352 11.0352 24.9512 9.61914 24.9512 7.51953L24.9512-0.488281L17.9199-0.488281L17.9199 7.51953C17.9199 9.61914 19.3359 11.0352 21.4355 11.0352Z"/>
   <path class="monochrome-1 hierarchical-1:primary SFSymbolsPreview212121" d="M52.1484-49.5117C62.6953-49.5117 68.0176-57.959 77.0508-57.959C79.1016-57.959 80.8105-57.5684 83.0566-56.2988C84.5215-55.4199 85.9375-56.0547 86.6211-57.0312C87.4023-58.252 87.4023-60.2051 85.5469-61.2793C82.9102-62.793 80.0293-63.5742 77.0508-63.5742C66.5039-63.5742 61.1816-55.0781 52.1484-55.0781C50.1465-55.0781 48.4375-55.5176 46.1914-56.7871C44.7266-57.6172 43.2617-57.0312 42.5781-55.9082C41.7969-54.7363 41.8457-52.832 43.75-51.7578C46.2891-50.1953 49.2188-49.5117 52.1484-49.5117ZM52.0996-60.498C62.6953-60.498 67.9688-68.9453 77.0508-68.9453C79.0527-68.9453 80.7617-68.5547 83.0078-67.2852C84.5215-66.4551 85.8887-67.0898 86.5723-68.0664C87.4023-69.2871 87.3535-71.2402 85.4492-72.3145C82.8613-73.8281 80.0293-74.5605 77.0508-74.5605C66.4551-74.5605 61.1328-66.0645 52.0996-66.0645C50.1465-66.0645 48.4375-66.5039 46.1426-67.7734C44.6777-68.6523 43.2617-68.0176 42.5781-66.9434C41.7969-65.7715 41.8457-63.8184 43.7012-62.793C46.2402-61.2305 49.1699-60.498 52.0996-60.498ZM52.0996-38.4766C62.6953-38.4766 67.9688-46.9238 77.0508-46.9238C79.0527-46.9238 80.7617-46.5332 83.0078-45.2637C84.5215-44.4336 85.8887-45.0195 86.5723-46.0449C87.4023-47.2656 87.3535-49.1699 85.4492-50.2441C82.8613-51.7578 80.0293-52.5391 77.0508-52.5391C66.4551-52.5391 61.1328-44.043 52.0996-44.043C50.1465-44.043 48.4375-44.4824 46.1426-45.752C44.6777-46.582 43.2617-45.9961 42.5781-44.9219C41.7969-43.7012 41.8457-41.7969 43.7012-40.7715C46.2402-39.209 49.1699-38.4766 52.0996-38.4766Z"/>
  </g>
  <g id="Ultralight-S" transform="matrix(1 0 0 1 525.386 696)">
   <path class="monochrome-0 hierarchical-0:secondary SFSymbolsPreview4D4D4D" d="M18.8076-1.63033L49.7964-1.63033C55.4181-1.63033 58.8839-5.04732 58.8839-10.6587L58.8839-42.4653C58.0841-42.0483 57.3297-41.645 56.6661-41.2167L56.6661-10.7768C56.6661-6.5244 53.983-3.80273 49.6988-3.80273L18.9053-3.80273C14.6665-3.80273 11.9834-6.5244 11.9834-10.7768L11.9834-64.9981C11.9834-69.2505 14.6665-71.9722 18.9053-71.9722L49.0543-71.9722C49.9586-72.4029 50.8731-72.813 51.7423-73.2129C51.0607-73.8492 50.0733-74.1446 48.8848-74.1446L18.8076-74.1446C13.2349-74.1446 9.76562-70.7276 9.76562-65.1162L9.76562-10.6587C9.76562-5.04732 13.2349-1.63033 18.8076-1.63033ZM22.1817-57.3857C24.6675-57.3857 26.7491-59.4219 26.7491-61.9566C26.7491-64.439 24.6675-66.5239 22.1817-66.5239C19.6958-66.5239 17.6143-64.439 17.6143-61.9566C17.6143-59.4219 19.6958-57.3857 22.1817-57.3857ZM38.2852-28.0454L50.4034-28.0454C51.2779-28.0454 51.9468-28.7178 51.9468-29.5923C51.9468-30.4214 51.2779-31.0938 50.4034-31.0938L38.2852-31.0938C37.4107-31.0938 36.7383-30.4214 36.7383-29.5923C36.7383-28.7178 37.4107-28.0454 38.2852-28.0454ZM18.2007-28.0454L30.3643-28.0454C31.2388-28.0454 31.8623-28.7178 31.8623-29.5923C31.8623-30.4214 31.2388-31.0938 30.3643-31.0938L18.2007-31.0938C17.3716-31.0938 16.7027-30.4214 16.7027-29.5923C16.7027-28.7178 17.3716-28.0454 18.2007-28.0454ZM38.2852-10.3862L50.4034-10.3862C51.2779-10.3862 51.9468-11.0552 51.9468-11.9297C51.9468-12.7622 51.2779-13.4312 50.4034-13.4312L38.2852-13.4312C37.4107-13.4312 36.7383-12.7622 36.7383-11.9297C36.7383-11.0552 37.4107-10.3862 38.2852-10.3862ZM38.2852-19.2402L50.4034-19.2402C51.2779-19.2402 51.9468-19.8638 51.9468-20.7383C51.9468-21.6128 51.2779-22.2852 50.4034-22.2852L38.2852-22.2852C37.4107-22.2852 36.7383-21.6128 36.7383-20.7383C36.7383-19.8638 37.4107-19.2402 38.2852-19.2402ZM18.2007-10.3862L30.3643-10.3862C31.2388-10.3862 31.8623-11.0552 31.8623-11.9297C31.8623-12.7622 31.2388-13.4312 30.3643-13.4312L18.2007-13.4312C17.3716-13.4312 16.7027-12.7622 16.7027-11.9297C16.7027-11.0552 17.3716-10.3862 18.2007-10.3862ZM18.2007-19.2402L30.3643-19.2402C31.2388-19.2402 31.8623-19.8638 31.8623-20.7383C31.8623-21.6128 31.2388-22.2852 30.3643-22.2852L18.2007-22.2852C17.3716-22.2852 16.7027-21.6128 16.7027-20.7383C16.7027-19.8638 17.3716-19.2402 18.2007-19.2402ZM50.4835 3.63336C51.13 3.63336 51.5924 3.17095 51.5924 2.56986L51.5924-2.80418L49.3746-2.80418L49.3746 2.56986C49.3746 3.17095 49.8824 3.63336 50.4835 3.63336ZM18.1206 3.63336C18.7671 3.63336 19.2295 3.17095 19.2295 2.56986L19.2295-2.80418L17.0571-2.80418L17.0571 2.56986C17.0571 3.17095 17.5195 3.63336 18.1206 3.63336Z"/>
   <path class="monochrome-1 hierarchical-1:primary SFSymbolsPreview212121" d="M43.2935-50.102C51.8878-50.102 57.3009-57.8228 65.4713-57.8228C67.9308-57.8228 69.7306-57.2505 71.795-56.1172C72.4879-55.7378 73.0865-55.9639 73.3614-56.4409C73.5978-56.8897 73.5069-57.6167 72.8775-57.9644C70.5133-59.3418 68.1773-59.9414 65.4713-59.9414C56.1505-59.9414 50.9644-52.2627 43.2935-52.2627C40.8829-52.2627 38.9923-52.8384 37.0186-53.9717C36.4166-54.2569 35.7691-54.1704 35.4942-53.6377C35.167-53.0562 35.3067-52.4233 35.8941-52.0303C38.1607-50.5586 40.5909-50.102 43.2935-50.102ZM43.2901-59.1358C51.8878-59.1358 57.2974-66.8565 65.4713-66.8565C67.9273-66.8565 69.7271-66.2842 71.7916-65.1509C72.4879-64.7749 73.0831-65.001 73.358-65.478C73.5978-65.9268 73.5035-66.6538 72.8707-67.0015C70.5099-68.3789 68.1773-68.9751 65.4713-68.9751C56.1471-68.9751 50.961-61.2964 43.2901-61.2964C40.8829-61.2964 38.9923-61.8721 37.0152-63.0054C36.4132-63.294 35.7691-63.2041 35.4942-62.6748C35.167-62.0933 35.3067-61.457 35.8907-61.0674C38.1573-59.5957 40.5875-59.1358 43.2901-59.1358ZM43.2901-41.0649C51.8878-41.0649 57.2974-48.7856 65.4713-48.7856C67.9273-48.7856 69.7271-48.2134 71.7916-47.0801C72.4879-46.7041 73.0831-46.9267 73.358-47.4072C73.5978-47.856 73.5035-48.5796 72.8707-48.9273C70.5099-50.3047 68.1773-50.9043 65.4713-50.9043C56.1471-50.9043 50.961-43.2256 43.2901-43.2256C40.8829-43.2256 38.9923-43.8013 37.0152-44.9346C36.4132-45.2197 35.7691-45.1333 35.4942-44.604C35.167-44.019 35.3067-43.3862 35.8907-42.9966C38.1573-41.5249 40.5875-41.0649 43.2901-41.0649Z"/>
  </g>
 </g>
</svg>
