<?xml version="1.0" encoding="UTF-8"?>
<!--Generator: Apple Native CoreSVG 175.5-->
<!DOCTYPE svg
PUBLIC "-//W3C//DTD SVG 1.1//EN"
       "http://www.w3.org/Graphics/SVG/1.1/DTD/svg11.dtd">
<svg version="1.1" xmlns="http://www.w3.org/2000/svg" xmlns:xlink="http://www.w3.org/1999/xlink" width="3300" height="2200">
 <!--glyph: "uni100837.medium", point size: 100.0, font version: "18.0d11e1", template writer version: "90"-->
 <style>.monochrome-0 {fill:#000000}

.SFSymbolsPreview000000 {fill:#000000;opacity:1.0}
</style>
 <g id="Notes">
  <rect height="2200" id="artboard" style="fill:white;opacity:1" width="3300" x="0" y="0"/>
  <line style="fill:none;stroke:black;opacity:1;stroke-width:0.5;" x1="263" x2="3036" y1="292" y2="292"/>
  <text style="stroke:none;fill:black;font-family:sans-serif;font-size:13;font-weight:bold;" transform="matrix(1 0 0 1 263 322)">Weight/Scale Variations</text>
  <text style="stroke:none;fill:black;font-family:sans-serif;font-size:13;text-anchor:middle;" transform="matrix(1 0 0 1 559.711 322)">Ultralight</text>
  <text style="stroke:none;fill:black;font-family:sans-serif;font-size:13;text-anchor:middle;" transform="matrix(1 0 0 1 856.422 322)">Thin</text>
  <text style="stroke:none;fill:black;font-family:sans-serif;font-size:13;text-anchor:middle;" transform="matrix(1 0 0 1 1153.13 322)">Light</text>
  <text style="stroke:none;fill:black;font-family:sans-serif;font-size:13;text-anchor:middle;" transform="matrix(1 0 0 1 1449.84 322)">Regular</text>
  <text style="stroke:none;fill:black;font-family:sans-serif;font-size:13;text-anchor:middle;" transform="matrix(1 0 0 1 1746.56 322)">Medium</text>
  <text style="stroke:none;fill:black;font-family:sans-serif;font-size:13;text-anchor:middle;" transform="matrix(1 0 0 1 2043.27 322)">Semibold</text>
  <text style="stroke:none;fill:black;font-family:sans-serif;font-size:13;text-anchor:middle;" transform="matrix(1 0 0 1 2339.98 322)">Bold</text>
  <text style="stroke:none;fill:black;font-family:sans-serif;font-size:13;text-anchor:middle;" transform="matrix(1 0 0 1 2636.69 322)">Heavy</text>
  <text style="stroke:none;fill:black;font-family:sans-serif;font-size:13;text-anchor:middle;" transform="matrix(1 0 0 1 2933.4 322)">Black</text>
  <line style="fill:none;stroke:black;opacity:1;stroke-width:0.5;" x1="263" x2="3036" y1="1903" y2="1903"/>
  <g transform="matrix(1 0 0 1 263 1933)">
   <path d="M9.24805 0.830078C13.5547 0.830078 17.1387-2.74414 17.1387-7.05078C17.1387-11.3574 13.5449-14.9316 9.23828-14.9316C4.94141-14.9316 1.36719-11.3574 1.36719-7.05078C1.36719-2.74414 4.95117 0.830078 9.24805 0.830078ZM9.24805-0.654297C5.70312-0.654297 2.87109-3.49609 2.87109-7.05078C2.87109-10.6055 5.69336-13.4473 9.23828-13.4473C12.793-13.4473 15.6445-10.6055 15.6445-7.05078C15.6445-3.49609 12.8027-0.654297 9.24805-0.654297ZM5.6543-7.05078C5.6543-6.62109 5.95703-6.32812 6.40625-6.32812L8.50586-6.32812L8.50586-4.20898C8.50586-3.76953 8.79883-3.4668 9.22852-3.4668C9.67773-3.4668 9.9707-3.76953 9.9707-4.20898L9.9707-6.32812L12.0898-6.32812C12.5293-6.32812 12.832-6.62109 12.832-7.05078C12.832-7.49023 12.5293-7.79297 12.0898-7.79297L9.9707-7.79297L9.9707-9.90234C9.9707-10.3516 9.67773-10.6543 9.22852-10.6543C8.79883-10.6543 8.50586-10.3516 8.50586-9.90234L8.50586-7.79297L6.40625-7.79297C5.95703-7.79297 5.6543-7.49023 5.6543-7.05078Z"/>
  </g>
  <g transform="matrix(1 0 0 1 281.867 1933)">
   <path d="M11.709 2.91016C17.1582 2.91016 21.6699-1.61133 21.6699-7.05078C21.6699-12.5 17.1484-17.0117 11.6992-17.0117C6.25977-17.0117 1.74805-12.5 1.74805-7.05078C1.74805-1.61133 6.26953 2.91016 11.709 2.91016ZM11.709 1.25C7.09961 1.25 3.41797-2.44141 3.41797-7.05078C3.41797-11.6602 7.08984-15.3516 11.6992-15.3516C16.3086-15.3516 20.0098-11.6602 20.0098-7.05078C20.0098-2.44141 16.3184 1.25 11.709 1.25ZM7.17773-7.05078C7.17773-6.57227 7.50977-6.25 8.00781-6.25L10.8789-6.25L10.8789-3.36914C10.8789-2.88086 11.2109-2.53906 11.6895-2.53906C12.1777-2.53906 12.5195-2.87109 12.5195-3.36914L12.5195-6.25L15.4004-6.25C15.8887-6.25 16.2305-6.57227 16.2305-7.05078C16.2305-7.53906 15.8887-7.88086 15.4004-7.88086L12.5195-7.88086L12.5195-10.752C12.5195-11.25 12.1777-11.5918 11.6895-11.5918C11.2109-11.5918 10.8789-11.25 10.8789-10.752L10.8789-7.88086L8.00781-7.88086C7.50977-7.88086 7.17773-7.53906 7.17773-7.05078Z"/>
  </g>
  <g transform="matrix(1 0 0 1 305.646 1933)">
   <path d="M14.9707 5.66406C21.9336 5.66406 27.6953-0.0976562 27.6953-7.05078C27.6953-14.0137 21.9238-19.7754 14.9609-19.7754C8.00781-19.7754 2.25586-14.0137 2.25586-7.05078C2.25586-0.0976562 8.01758 5.66406 14.9707 5.66406ZM14.9707 3.84766C8.93555 3.84766 4.08203-1.01562 4.08203-7.05078C4.08203-13.0957 8.92578-17.9492 14.9609-17.9492C21.0059-17.9492 25.8691-13.0957 25.8691-7.05078C25.8691-1.01562 21.0156 3.84766 14.9707 3.84766ZM9.19922-7.05078C9.19922-6.5332 9.57031-6.17188 10.1172-6.17188L14.0625-6.17188L14.0625-2.2168C14.0625-1.67969 14.4336-1.29883 14.9512-1.29883C15.4883-1.29883 15.8594-1.66992 15.8594-2.2168L15.8594-6.17188L19.8145-6.17188C20.3516-6.17188 20.7324-6.5332 20.7324-7.05078C20.7324-7.59766 20.3613-7.96875 19.8145-7.96875L15.8594-7.96875L15.8594-11.9141C15.8594-12.4609 15.4883-12.8418 14.9512-12.8418C14.4336-12.8418 14.0625-12.4609 14.0625-11.9141L14.0625-7.96875L10.1172-7.96875C9.57031-7.96875 9.19922-7.59766 9.19922-7.05078Z"/>
  </g>
  <text style="stroke:none;fill:black;font-family:sans-serif;font-size:13;font-weight:bold;" transform="matrix(1 0 0 1 263 1953)">Design Variations</text>
  <text style="stroke:none;fill:black;font-family:sans-serif;font-size:13;" transform="matrix(1 0 0 1 263 1971)">Symbols are supported in up to nine weights and three scales.</text>
  <text style="stroke:none;fill:black;font-family:sans-serif;font-size:13;" transform="matrix(1 0 0 1 263 1989)">For optimal layout with text and other symbols, vertically align</text>
  <text style="stroke:none;fill:black;font-family:sans-serif;font-size:13;" transform="matrix(1 0 0 1 263 2007)">symbols with the adjacent text.</text>
  <line style="fill:none;stroke:#00AEEF;stroke-width:0.5;opacity:1.0;" x1="776" x2="776" y1="1919" y2="1933"/>
  <g transform="matrix(1 0 0 1 776 1933)">
   <path d="M3.31055 0.15625C3.82812 0.15625 4.08203-0.0390625 4.26758-0.585938L5.52734-4.0332L11.2891-4.0332L12.5488-0.585938C12.7344-0.0390625 12.9883 0.15625 13.4961 0.15625C14.0137 0.15625 14.3457-0.15625 14.3457-0.644531C14.3457-0.810547 14.3164-0.966797 14.2383-1.17188L9.6582-13.3691C9.43359-13.9648 9.0332-14.2676 8.4082-14.2676C7.80273-14.2676 7.39258-13.9746 7.17773-13.3789L2.59766-1.16211C2.51953-0.957031 2.49023-0.800781 2.49023-0.634766C2.49023-0.146484 2.80273 0.15625 3.31055 0.15625ZM6.00586-5.51758L8.37891-12.0898L8.42773-12.0898L10.8008-5.51758Z"/>
  </g>
  <line style="fill:none;stroke:#00AEEF;stroke-width:0.5;opacity:1.0;" x1="793.197" x2="793.197" y1="1919" y2="1933"/>
  <text style="stroke:none;fill:black;font-family:sans-serif;font-size:13;font-weight:bold;" transform="matrix(1 0 0 1 776 1953)">Margins</text>
  <text style="stroke:none;fill:black;font-family:sans-serif;font-size:13;" transform="matrix(1 0 0 1 776 1971)">Leading and trailing margins on the left and right side of each symbol</text>
  <text style="stroke:none;fill:black;font-family:sans-serif;font-size:13;" transform="matrix(1 0 0 1 776 1989)">can be adjusted by modifying the x-location of the margin guidelines.</text>
  <text style="stroke:none;fill:black;font-family:sans-serif;font-size:13;" transform="matrix(1 0 0 1 776 2007)">Modifications are automatically applied proportionally to all</text>
  <text style="stroke:none;fill:black;font-family:sans-serif;font-size:13;" transform="matrix(1 0 0 1 776 2025)">scales and weights.</text>
  <g transform="matrix(1 0 0 1 1289 1933)">
   <path d="M2.8418 1.86523L4.54102 3.57422C5.40039 4.44336 6.38672 4.38477 7.31445 3.35938L18.0078-8.42773L17.041-9.4043L6.42578 2.27539C6.07422 2.67578 5.74219 2.77344 5.27344 2.30469L4.10156 1.14258C3.63281 0.683594 3.74023 0.341797 4.14062-0.0195312L15.6152-10.8203L14.6387-11.7871L3.04688-0.898438C2.06055 0.0195312 1.98242 0.996094 2.8418 1.86523ZM9.25781-16.3281C8.83789-15.918 8.80859-15.3418 9.04297-14.9512C9.27734-14.5898 9.73633-14.3555 10.3809-14.5215C11.8457-14.8633 13.3691-14.9219 14.7949-13.9844L14.209-12.5293C13.8672-11.6992 14.043-11.1133 14.5801-10.5664L16.875-8.25195C17.3633-7.76367 17.7734-7.74414 18.3398-7.8418L19.4043-8.03711L20.0684-7.36328L20.0293-6.80664C19.9902-6.30859 20.1172-5.92773 20.6055-5.44922L21.3672-4.70703C21.8457-4.22852 22.4609-4.19922 22.9297-4.66797L25.8398-7.58789C26.3086-8.05664 26.2891-8.65234 25.8105-9.13086L25.0391-9.89258C24.5605-10.3711 24.1895-10.5273 23.7109-10.4883L23.1348-10.4395L22.4902-11.0742L22.7344-12.1973C22.8613-12.7637 22.7051-13.2031 22.1191-13.7891L19.9219-15.9766C16.582-19.2969 12.1484-19.2188 9.25781-16.3281ZM10.752-15.957C13.1836-17.7344 16.4746-17.4316 18.7012-15.2051L21.1328-12.793C21.3672-12.5586 21.4062-12.373 21.3379-12.0312L21.0156-10.5469L22.5195-9.0625L23.5059-9.12109C23.7598-9.13086 23.8379-9.11133 24.0332-8.91602L24.6094-8.33984L22.168-5.89844L21.5918-6.47461C21.3965-6.66992 21.3672-6.74805 21.377-7.01172L21.4453-7.98828L19.9512-9.47266L18.4277-9.21875C18.1055-9.15039 17.959-9.17969 17.7148-9.41406L15.7129-11.416C15.459-11.6504 15.4297-11.8164 15.5859-12.1875L16.4648-14.2773C14.9023-15.7324 12.8711-16.3574 10.8398-15.7617C10.6836-15.7227 10.625-15.8496 10.752-15.957Z"/>
  </g>
  <text style="stroke:none;fill:black;font-family:sans-serif;font-size:13;font-weight:bold;" transform="matrix(1 0 0 1 1289 1953)">Exporting</text>
  <text style="stroke:none;fill:black;font-family:sans-serif;font-size:13;" transform="matrix(1 0 0 1 1289 1971)">Symbols should be outlined when exporting to ensure the</text>
  <text style="stroke:none;fill:black;font-family:sans-serif;font-size:13;" transform="matrix(1 0 0 1 1289 1989)">design is preserved when submitting to Xcode.</text>
  <text id="template-version" style="stroke:none;fill:black;font-family:sans-serif;font-size:13;text-anchor:end;" transform="matrix(1 0 0 1 3036 1933)">Template v.4.0</text>
  <text style="stroke:none;fill:black;font-family:sans-serif;font-size:13;text-anchor:end;" transform="matrix(1 0 0 1 3036 1951)">Requires Xcode 14 or greater</text>
  <text id="descriptive-name" style="stroke:none;fill:black;font-family:sans-serif;font-size:13;text-anchor:end;" transform="matrix(1 0 0 1 3036 1969)">Generated from syringe</text>
  <text style="stroke:none;fill:black;font-family:sans-serif;font-size:13;text-anchor:end;" transform="matrix(1 0 0 1 3036 1987)">Typeset at 100 points</text>
  <text style="stroke:none;fill:black;font-family:sans-serif;font-size:13;" transform="matrix(1 0 0 1 263 726)">Small</text>
  <text style="stroke:none;fill:black;font-family:sans-serif;font-size:13;" transform="matrix(1 0 0 1 263 1156)">Medium</text>
  <text style="stroke:none;fill:black;font-family:sans-serif;font-size:13;" transform="matrix(1 0 0 1 263 1586)">Large</text>
 </g>
 <g id="Guides">
  <g id="H-reference" style="fill:#27AAE1;stroke:none;" transform="matrix(1 0 0 1 339 696)">
   <path d="M0.993654 0L3.63775 0L29.3281-67.1323L30.0303-67.1323L30.0303-70.459L28.1226-70.459ZM11.6885-24.4799L46.9815-24.4799L46.2315-26.7285L12.4385-26.7285ZM55.1196 0L57.7637 0L30.6382-70.459L29.4326-70.459L29.4326-67.1323Z"/>
  </g>
  <line id="Baseline-S" style="fill:none;stroke:#27AAE1;opacity:1;stroke-width:0.5;" x1="263" x2="3036" y1="696" y2="696"/>
  <line id="Capline-S" style="fill:none;stroke:#27AAE1;opacity:1;stroke-width:0.5;" x1="263" x2="3036" y1="625.541" y2="625.541"/>
  <g id="H-reference" style="fill:#27AAE1;stroke:none;" transform="matrix(1 0 0 1 339 1126)">
   <path d="M0.993654 0L3.63775 0L29.3281-67.1323L30.0303-67.1323L30.0303-70.459L28.1226-70.459ZM11.6885-24.4799L46.9815-24.4799L46.2315-26.7285L12.4385-26.7285ZM55.1196 0L57.7637 0L30.6382-70.459L29.4326-70.459L29.4326-67.1323Z"/>
  </g>
  <line id="Baseline-M" style="fill:none;stroke:#27AAE1;opacity:1;stroke-width:0.5;" x1="263" x2="3036" y1="1126" y2="1126"/>
  <line id="Capline-M" style="fill:none;stroke:#27AAE1;opacity:1;stroke-width:0.5;" x1="263" x2="3036" y1="1055.54" y2="1055.54"/>
  <g id="H-reference" style="fill:#27AAE1;stroke:none;" transform="matrix(1 0 0 1 339 1556)">
   <path d="M0.993654 0L3.63775 0L29.3281-67.1323L30.0303-67.1323L30.0303-70.459L28.1226-70.459ZM11.6885-24.4799L46.9815-24.4799L46.2315-26.7285L12.4385-26.7285ZM55.1196 0L57.7637 0L30.6382-70.459L29.4326-70.459L29.4326-67.1323Z"/>
  </g>
  <line id="Baseline-L" style="fill:none;stroke:#27AAE1;opacity:1;stroke-width:0.5;" x1="263" x2="3036" y1="1556" y2="1556"/>
  <line id="Capline-L" style="fill:none;stroke:#27AAE1;opacity:1;stroke-width:0.5;" x1="263" x2="3036" y1="1485.54" y2="1485.54"/>
  <line id="left-margin-Ultralight-S" style="fill:none;stroke:#00AEEF;stroke-width:0.5;opacity:1.0;" x1="510.12" x2="510.12" y1="600.785" y2="720.121"/>
  <line id="right-margin-Ultralight-S" style="fill:none;stroke:#00AEEF;stroke-width:0.5;opacity:1.0;" x1="609.303" x2="609.303" y1="600.785" y2="720.121"/>
  <line id="left-margin-Regular-S" style="fill:none;stroke:#00AEEF;stroke-width:0.5;opacity:1.0;" x1="1396.6" x2="1396.6" y1="600.785" y2="720.121"/>
  <line id="right-margin-Regular-S" style="fill:none;stroke:#00AEEF;stroke-width:0.5;opacity:1.0;" x1="1503.09" x2="1503.09" y1="600.785" y2="720.121"/>
  <line id="left-margin-Black-S" style="fill:none;stroke:#00AEEF;stroke-width:0.5;opacity:1.0;" x1="2872.54" x2="2872.54" y1="600.785" y2="720.121"/>
  <line id="right-margin-Black-S" style="fill:none;stroke:#00AEEF;stroke-width:0.5;opacity:1.0;" x1="2994.26" x2="2994.26" y1="600.785" y2="720.121"/>
 </g>
 <g id="Symbols">
  <g id="Black-S" transform="matrix(1 0 0 1 2872.54 696)">
   <path class="monochrome-0 SFSymbolsPreview000000" d="M21.9238-7.56836L31.4453 1.95312C36.6211 7.12891 43.7012 6.93359 49.1699 1.46484L87.6953-37.0605L79.6387-45.166L41.8457-7.37305C40.7715-6.29883 39.3066-6.34766 38.1836-7.4707L31.2988-14.3066C30.1758-15.3809 30.1758-16.8945 31.2988-18.0176L68.9941-55.7617L60.9375-63.8184L22.3145-25.2441C16.8945-19.8242 16.6992-12.793 21.9238-7.56836ZM62.793-65.7715L89.5508-38.9648L98.584-48.0469C101.514-50.9766 101.514-55.6152 98.584-58.5449L96.0449-61.084L98.4375-63.5742L100.244-61.7188C103.125-58.7891 107.861-58.8379 110.742-61.7188C113.672-64.6484 113.672-69.2871 110.742-72.2168L97.3145-85.6445C94.3848-88.5742 89.7461-88.5742 86.8164-85.6445C83.9355-82.7637 83.8867-78.0273 86.8164-75.1465L88.6719-73.3398L86.2305-70.8984L82.3242-74.8047C79.3945-77.7344 74.7559-77.7344 71.8262-74.8047ZM54.6387-66.3574L90.1855-30.8105C93.1152-27.8809 97.7539-27.8809 100.684-30.8105C103.564-33.6914 103.613-38.3789 100.684-41.3086L65.1367-76.8555C62.1582-79.834 57.5684-79.7852 54.6387-76.8555C51.709-73.9258 51.709-69.2871 54.6387-66.3574ZM10.5469 13.4277C12.793 15.625 16.2109 15.4785 18.457 13.2812L33.3008-1.51367L25.293-9.47266L10.498 5.32227C8.25195 7.56836 8.20312 11.1816 10.5469 13.4277ZM47.2168-42.1875L55.7129-33.7402C56.6895-32.8125 58.1543-32.7637 59.1309-33.7402C60.1074-34.7168 60.0586-36.1816 59.1309-37.1582L50.6836-45.6543ZM30.6641-25.6348L39.1113-17.1387C40.0391-16.1621 41.6016-16.2109 42.5781-17.1387C43.6035-18.1152 43.5547-19.6289 42.5781-20.6055L34.1309-29.0527ZM55.5176-50.4883L63.9648-41.9922C64.8926-41.0156 66.4551-41.0645 67.4316-41.9922C68.457-42.9688 68.4082-44.4824 67.4316-45.459L58.9844-53.9062ZM38.9648-33.8867L47.4121-25.4395C48.3887-24.4629 49.9023-24.4629 50.8789-25.4395C51.8555-26.416 51.8555-27.9785 50.8789-28.9062L42.3828-37.3535Z"/>
  </g>
  <g id="Regular-S" transform="matrix(1 0 0 1 1396.6 696)">
   <path class="monochrome-0 SFSymbolsPreview000000" d="M22.9492-12.8906L30.3711-5.51758C34.4238-1.51367 40.0391-1.66016 44.2871-5.95703L84.5215-46.1426L79.541-51.123L39.4043-10.9863C38.0371-9.61914 36.2305-9.7168 34.7656-11.1328L28.5156-17.334C27.0996-18.75 27.0996-20.6055 28.5156-21.9727L68.6035-62.0605L63.5742-67.0898L23.3887-26.8555C18.9941-22.4121 18.8477-16.8945 22.9492-12.8906ZM64.5996-68.0176L85.4492-47.0703L88.0859-49.7559C89.4531-51.0742 89.502-53.3691 88.0859-54.6875L82.9102-59.8633L87.207-64.1113L91.6992-59.668C93.0664-58.3008 95.3125-58.3008 96.6797-59.668C97.998-61.0352 97.998-63.2812 96.6797-64.6484L83.3496-77.9297C81.9824-79.2969 79.7363-79.2969 78.3691-77.9297C77.002-76.5625 77.002-74.3164 78.3691-72.9492L82.8613-68.457L78.6133-64.209L72.168-70.6055C70.8008-71.9727 68.5547-71.9727 67.1875-70.6055ZM56.8359-68.457L85.9375-39.3066C87.3047-37.9395 89.5508-37.9395 90.918-39.3066C92.2852-40.6738 92.2852-42.9199 90.918-44.2871L61.8164-73.4375C60.3516-74.8535 58.2031-74.8047 56.8359-73.4375C55.4688-72.0703 55.3711-69.9219 56.8359-68.457ZM9.7168 7.61719C10.8887 8.74023 12.6953 8.69141 13.916 7.51953L30.3711-8.93555L26.1719-13.0859L9.7168 3.36914C8.54492 4.54102 8.44727 6.44531 9.7168 7.61719ZM45.1172-46.4844L54.6387-36.8652C55.4199-36.1328 56.6406-36.1328 57.4219-36.8652C58.1543-37.6465 58.1543-38.8672 57.373-39.6973L47.8027-49.2188ZM29.1992-30.5664L38.7207-20.9961C39.5508-20.2148 40.7227-20.2148 41.5039-21.0449C42.2363-21.8262 42.1875-22.998 41.4551-23.7793L31.8848-33.3008ZM53.0762-54.3945L62.5977-44.8242C63.3789-44.0918 64.5508-44.0918 65.332-44.8242C66.1133-45.5078 66.0645-46.8262 65.332-47.6074L55.7617-57.1289ZM37.1582-38.4766L46.6797-28.9062C47.4609-28.1738 48.6816-28.1738 49.4629-28.9062C50.1953-29.6875 50.1465-30.9082 49.4141-31.6895L39.8438-41.2109Z"/>
  </g>
  <g id="Ultralight-S" transform="matrix(1 0 0 1 510.12 696)">
   <path class="monochrome-0 SFSymbolsPreview000000" d="M22.5405-15.1157L29.4175-8.24217C32.562-5.10105 36.815-5.1113 40.0186-8.27293L79.9351-48.1406L78.315-49.7153L38.2236-9.57862C36.1299-7.48488 33.3242-7.49172 31.1328-9.63429L23.9292-16.8799C21.7413-19.0225 21.7413-21.8769 23.8838-23.9707L64.0171-64.0586L62.3936-65.6367L22.5713-25.7202C19.3574-22.5483 19.3472-18.3022 22.5405-15.1157ZM63.0103-66.2012L80.4541-48.7051L83.6358-51.8901C84.0494-52.3457 84.0528-53.0059 83.6812-53.3706L76.462-60.5898L83.4834-67.6987L88.4751-62.665C88.9341-62.2514 89.6363-62.2968 90.0499-62.665C90.46-63.124 90.46-63.8262 90.0499-64.2852L78.627-75.7046C78.168-76.1182 77.4658-76.1182 77.0068-75.7046C76.6387-75.291 76.5933-74.5889 77.0068-74.1753L81.9985-69.1836L74.9351-62.1655L67.7178-69.334C67.3042-69.7476 66.6021-69.793 66.1885-69.334ZM57.9712-69.0474L83.3491-43.666C83.7627-43.2524 84.4649-43.2524 84.8785-43.666C85.3375-44.125 85.3375-44.8271 84.8785-45.2407L59.5459-70.6221C59.0801-71.0391 58.3848-71.0357 57.9712-70.6221C57.5122-70.1631 57.5054-69.5132 57.9712-69.0474ZM9.12647 5.16506C9.48097 5.51614 10.1978 5.60354 10.6011 5.15822L27.147-11.4331L25.6724-12.9497L9.12647 3.59619C8.68115 4.04151 8.67431 4.71974 9.12647 5.16506ZM44.3906-46.7568L53.231-37.9551C53.6489-37.5859 54.2793-37.5405 54.6973-37.9551C55.1118-38.3276 55.1118-38.958 54.6939-39.3794L45.8501-48.2197ZM28.5181-30.8843L37.313-21.9951C37.689-21.6225 38.4068-21.668 38.8247-21.9985C39.2393-22.3711 39.2359-23.1343 38.8213-23.5068L29.9321-32.3472ZM52.3496-54.7124L61.1445-45.8232C61.5625-45.4541 62.2349-45.4541 62.6074-45.8232C63.0254-46.2798 63.022-46.917 62.6074-47.335L53.7637-56.1753ZM36.4771-38.7944L45.272-29.9961C45.69-29.5815 46.3203-29.5815 46.7383-29.9961C47.1529-30.3686 47.104-30.999 46.7349-31.417L37.8911-40.3027Z"/>
  </g>
 </g>
</svg>
