<?xml version="1.0" encoding="UTF-8"?>
<!--Generator: Apple Native CoreSVG 175.5-->
<!DOCTYPE svg
PUBLIC "-//W3C//DTD SVG 1.1//EN"
       "http://www.w3.org/Graphics/SVG/1.1/DTD/svg11.dtd">
<svg version="1.1" xmlns="http://www.w3.org/2000/svg" xmlns:xlink="http://www.w3.org/1999/xlink" width="3300" height="2200">
 <!--glyph: "uni101332.medium", point size: 100.0, font version: "18.0d11e1", template writer version: "90"-->
 <style>.monochrome-0 {fill:#000000}
.monochrome-1 {fill:#000000}

.hierarchical-0:secondary {fill:#4D4D4D}
.hierarchical-1:primary {fill:#212121}

.SFSymbolsPreview212121 {fill:#212121;opacity:1.0}
.SFSymbolsPreview4D4D4D {fill:#4D4D4D;opacity:1.0}
</style>
 <g id="Notes">
  <rect height="2200" id="artboard" style="fill:white;opacity:1" width="3300" x="0" y="0"/>
  <line style="fill:none;stroke:black;opacity:1;stroke-width:0.5;" x1="263" x2="3036" y1="292" y2="292"/>
  <text style="stroke:none;fill:black;font-family:sans-serif;font-size:13;font-weight:bold;" transform="matrix(1 0 0 1 263 322)">Weight/Scale Variations</text>
  <text style="stroke:none;fill:black;font-family:sans-serif;font-size:13;text-anchor:middle;" transform="matrix(1 0 0 1 559.711 322)">Ultralight</text>
  <text style="stroke:none;fill:black;font-family:sans-serif;font-size:13;text-anchor:middle;" transform="matrix(1 0 0 1 856.422 322)">Thin</text>
  <text style="stroke:none;fill:black;font-family:sans-serif;font-size:13;text-anchor:middle;" transform="matrix(1 0 0 1 1153.13 322)">Light</text>
  <text style="stroke:none;fill:black;font-family:sans-serif;font-size:13;text-anchor:middle;" transform="matrix(1 0 0 1 1449.84 322)">Regular</text>
  <text style="stroke:none;fill:black;font-family:sans-serif;font-size:13;text-anchor:middle;" transform="matrix(1 0 0 1 1746.56 322)">Medium</text>
  <text style="stroke:none;fill:black;font-family:sans-serif;font-size:13;text-anchor:middle;" transform="matrix(1 0 0 1 2043.27 322)">Semibold</text>
  <text style="stroke:none;fill:black;font-family:sans-serif;font-size:13;text-anchor:middle;" transform="matrix(1 0 0 1 2339.98 322)">Bold</text>
  <text style="stroke:none;fill:black;font-family:sans-serif;font-size:13;text-anchor:middle;" transform="matrix(1 0 0 1 2636.69 322)">Heavy</text>
  <text style="stroke:none;fill:black;font-family:sans-serif;font-size:13;text-anchor:middle;" transform="matrix(1 0 0 1 2933.4 322)">Black</text>
  <line style="fill:none;stroke:black;opacity:1;stroke-width:0.5;" x1="263" x2="3036" y1="1903" y2="1903"/>
  <g transform="matrix(1 0 0 1 263 1933)">
   <path d="M9.24805 0.830078C13.5547 0.830078 17.1387-2.74414 17.1387-7.05078C17.1387-11.3574 13.5449-14.9316 9.23828-14.9316C4.94141-14.9316 1.36719-11.3574 1.36719-7.05078C1.36719-2.74414 4.95117 0.830078 9.24805 0.830078ZM9.24805-0.654297C5.70312-0.654297 2.87109-3.49609 2.87109-7.05078C2.87109-10.6055 5.69336-13.4473 9.23828-13.4473C12.793-13.4473 15.6445-10.6055 15.6445-7.05078C15.6445-3.49609 12.8027-0.654297 9.24805-0.654297ZM5.6543-7.05078C5.6543-6.62109 5.95703-6.32812 6.40625-6.32812L8.50586-6.32812L8.50586-4.20898C8.50586-3.76953 8.79883-3.4668 9.22852-3.4668C9.67773-3.4668 9.9707-3.76953 9.9707-4.20898L9.9707-6.32812L12.0898-6.32812C12.5293-6.32812 12.832-6.62109 12.832-7.05078C12.832-7.49023 12.5293-7.79297 12.0898-7.79297L9.9707-7.79297L9.9707-9.90234C9.9707-10.3516 9.67773-10.6543 9.22852-10.6543C8.79883-10.6543 8.50586-10.3516 8.50586-9.90234L8.50586-7.79297L6.40625-7.79297C5.95703-7.79297 5.6543-7.49023 5.6543-7.05078Z"/>
  </g>
  <g transform="matrix(1 0 0 1 281.867 1933)">
   <path d="M11.709 2.91016C17.1582 2.91016 21.6699-1.61133 21.6699-7.05078C21.6699-12.5 17.1484-17.0117 11.6992-17.0117C6.25977-17.0117 1.74805-12.5 1.74805-7.05078C1.74805-1.61133 6.26953 2.91016 11.709 2.91016ZM11.709 1.25C7.09961 1.25 3.41797-2.44141 3.41797-7.05078C3.41797-11.6602 7.08984-15.3516 11.6992-15.3516C16.3086-15.3516 20.0098-11.6602 20.0098-7.05078C20.0098-2.44141 16.3184 1.25 11.709 1.25ZM7.17773-7.05078C7.17773-6.57227 7.50977-6.25 8.00781-6.25L10.8789-6.25L10.8789-3.36914C10.8789-2.88086 11.2109-2.53906 11.6895-2.53906C12.1777-2.53906 12.5195-2.87109 12.5195-3.36914L12.5195-6.25L15.4004-6.25C15.8887-6.25 16.2305-6.57227 16.2305-7.05078C16.2305-7.53906 15.8887-7.88086 15.4004-7.88086L12.5195-7.88086L12.5195-10.752C12.5195-11.25 12.1777-11.5918 11.6895-11.5918C11.2109-11.5918 10.8789-11.25 10.8789-10.752L10.8789-7.88086L8.00781-7.88086C7.50977-7.88086 7.17773-7.53906 7.17773-7.05078Z"/>
  </g>
  <g transform="matrix(1 0 0 1 305.646 1933)">
   <path d="M14.9707 5.66406C21.9336 5.66406 27.6953-0.0976562 27.6953-7.05078C27.6953-14.0137 21.9238-19.7754 14.9609-19.7754C8.00781-19.7754 2.25586-14.0137 2.25586-7.05078C2.25586-0.0976562 8.01758 5.66406 14.9707 5.66406ZM14.9707 3.84766C8.93555 3.84766 4.08203-1.01562 4.08203-7.05078C4.08203-13.0957 8.92578-17.9492 14.9609-17.9492C21.0059-17.9492 25.8691-13.0957 25.8691-7.05078C25.8691-1.01562 21.0156 3.84766 14.9707 3.84766ZM9.19922-7.05078C9.19922-6.5332 9.57031-6.17188 10.1172-6.17188L14.0625-6.17188L14.0625-2.2168C14.0625-1.67969 14.4336-1.29883 14.9512-1.29883C15.4883-1.29883 15.8594-1.66992 15.8594-2.2168L15.8594-6.17188L19.8145-6.17188C20.3516-6.17188 20.7324-6.5332 20.7324-7.05078C20.7324-7.59766 20.3613-7.96875 19.8145-7.96875L15.8594-7.96875L15.8594-11.9141C15.8594-12.4609 15.4883-12.8418 14.9512-12.8418C14.4336-12.8418 14.0625-12.4609 14.0625-11.9141L14.0625-7.96875L10.1172-7.96875C9.57031-7.96875 9.19922-7.59766 9.19922-7.05078Z"/>
  </g>
  <text style="stroke:none;fill:black;font-family:sans-serif;font-size:13;font-weight:bold;" transform="matrix(1 0 0 1 263 1953)">Design Variations</text>
  <text style="stroke:none;fill:black;font-family:sans-serif;font-size:13;" transform="matrix(1 0 0 1 263 1971)">Symbols are supported in up to nine weights and three scales.</text>
  <text style="stroke:none;fill:black;font-family:sans-serif;font-size:13;" transform="matrix(1 0 0 1 263 1989)">For optimal layout with text and other symbols, vertically align</text>
  <text style="stroke:none;fill:black;font-family:sans-serif;font-size:13;" transform="matrix(1 0 0 1 263 2007)">symbols with the adjacent text.</text>
  <line style="fill:none;stroke:#00AEEF;stroke-width:0.5;opacity:1.0;" x1="776" x2="776" y1="1919" y2="1933"/>
  <g transform="matrix(1 0 0 1 776 1933)">
   <path d="M3.31055 0.15625C3.82812 0.15625 4.08203-0.0390625 4.26758-0.585938L5.52734-4.0332L11.2891-4.0332L12.5488-0.585938C12.7344-0.0390625 12.9883 0.15625 13.4961 0.15625C14.0137 0.15625 14.3457-0.15625 14.3457-0.644531C14.3457-0.810547 14.3164-0.966797 14.2383-1.17188L9.6582-13.3691C9.43359-13.9648 9.0332-14.2676 8.4082-14.2676C7.80273-14.2676 7.39258-13.9746 7.17773-13.3789L2.59766-1.16211C2.51953-0.957031 2.49023-0.800781 2.49023-0.634766C2.49023-0.146484 2.80273 0.15625 3.31055 0.15625ZM6.00586-5.51758L8.37891-12.0898L8.42773-12.0898L10.8008-5.51758Z"/>
  </g>
  <line style="fill:none;stroke:#00AEEF;stroke-width:0.5;opacity:1.0;" x1="793.197" x2="793.197" y1="1919" y2="1933"/>
  <text style="stroke:none;fill:black;font-family:sans-serif;font-size:13;font-weight:bold;" transform="matrix(1 0 0 1 776 1953)">Margins</text>
  <text style="stroke:none;fill:black;font-family:sans-serif;font-size:13;" transform="matrix(1 0 0 1 776 1971)">Leading and trailing margins on the left and right side of each symbol</text>
  <text style="stroke:none;fill:black;font-family:sans-serif;font-size:13;" transform="matrix(1 0 0 1 776 1989)">can be adjusted by modifying the x-location of the margin guidelines.</text>
  <text style="stroke:none;fill:black;font-family:sans-serif;font-size:13;" transform="matrix(1 0 0 1 776 2007)">Modifications are automatically applied proportionally to all</text>
  <text style="stroke:none;fill:black;font-family:sans-serif;font-size:13;" transform="matrix(1 0 0 1 776 2025)">scales and weights.</text>
  <g transform="matrix(1 0 0 1 1289 1933)">
   <path d="M2.8418 1.86523L4.54102 3.57422C5.40039 4.44336 6.38672 4.38477 7.31445 3.35938L18.0078-8.42773L17.041-9.4043L6.42578 2.27539C6.07422 2.67578 5.74219 2.77344 5.27344 2.30469L4.10156 1.14258C3.63281 0.683594 3.74023 0.341797 4.14062-0.0195312L15.6152-10.8203L14.6387-11.7871L3.04688-0.898438C2.06055 0.0195312 1.98242 0.996094 2.8418 1.86523ZM9.25781-16.3281C8.83789-15.918 8.80859-15.3418 9.04297-14.9512C9.27734-14.5898 9.73633-14.3555 10.3809-14.5215C11.8457-14.8633 13.3691-14.9219 14.7949-13.9844L14.209-12.5293C13.8672-11.6992 14.043-11.1133 14.5801-10.5664L16.875-8.25195C17.3633-7.76367 17.7734-7.74414 18.3398-7.8418L19.4043-8.03711L20.0684-7.36328L20.0293-6.80664C19.9902-6.30859 20.1172-5.92773 20.6055-5.44922L21.3672-4.70703C21.8457-4.22852 22.4609-4.19922 22.9297-4.66797L25.8398-7.58789C26.3086-8.05664 26.2891-8.65234 25.8105-9.13086L25.0391-9.89258C24.5605-10.3711 24.1895-10.5273 23.7109-10.4883L23.1348-10.4395L22.4902-11.0742L22.7344-12.1973C22.8613-12.7637 22.7051-13.2031 22.1191-13.7891L19.9219-15.9766C16.582-19.2969 12.1484-19.2188 9.25781-16.3281ZM10.752-15.957C13.1836-17.7344 16.4746-17.4316 18.7012-15.2051L21.1328-12.793C21.3672-12.5586 21.4062-12.373 21.3379-12.0312L21.0156-10.5469L22.5195-9.0625L23.5059-9.12109C23.7598-9.13086 23.8379-9.11133 24.0332-8.91602L24.6094-8.33984L22.168-5.89844L21.5918-6.47461C21.3965-6.66992 21.3672-6.74805 21.377-7.01172L21.4453-7.98828L19.9512-9.47266L18.4277-9.21875C18.1055-9.15039 17.959-9.17969 17.7148-9.41406L15.7129-11.416C15.459-11.6504 15.4297-11.8164 15.5859-12.1875L16.4648-14.2773C14.9023-15.7324 12.8711-16.3574 10.8398-15.7617C10.6836-15.7227 10.625-15.8496 10.752-15.957Z"/>
  </g>
  <text style="stroke:none;fill:black;font-family:sans-serif;font-size:13;font-weight:bold;" transform="matrix(1 0 0 1 1289 1953)">Exporting</text>
  <text style="stroke:none;fill:black;font-family:sans-serif;font-size:13;" transform="matrix(1 0 0 1 1289 1971)">Symbols should be outlined when exporting to ensure the</text>
  <text style="stroke:none;fill:black;font-family:sans-serif;font-size:13;" transform="matrix(1 0 0 1 1289 1989)">design is preserved when submitting to Xcode.</text>
  <text id="template-version" style="stroke:none;fill:black;font-family:sans-serif;font-size:13;text-anchor:end;" transform="matrix(1 0 0 1 3036 1933)">Template v.4.0</text>
  <text style="stroke:none;fill:black;font-family:sans-serif;font-size:13;text-anchor:end;" transform="matrix(1 0 0 1 3036 1951)">Requires Xcode 14 or greater</text>
  <text id="descriptive-name" style="stroke:none;fill:black;font-family:sans-serif;font-size:13;text-anchor:end;" transform="matrix(1 0 0 1 3036 1969)">Generated from poweroutlet.strip</text>
  <text style="stroke:none;fill:black;font-family:sans-serif;font-size:13;text-anchor:end;" transform="matrix(1 0 0 1 3036 1987)">Typeset at 100 points</text>
  <text style="stroke:none;fill:black;font-family:sans-serif;font-size:13;" transform="matrix(1 0 0 1 263 726)">Small</text>
  <text style="stroke:none;fill:black;font-family:sans-serif;font-size:13;" transform="matrix(1 0 0 1 263 1156)">Medium</text>
  <text style="stroke:none;fill:black;font-family:sans-serif;font-size:13;" transform="matrix(1 0 0 1 263 1586)">Large</text>
 </g>
 <g id="Guides">
  <g id="H-reference" style="fill:#27AAE1;stroke:none;" transform="matrix(1 0 0 1 339 696)">
   <path d="M0.993654 0L3.63775 0L29.3281-67.1323L30.0303-67.1323L30.0303-70.459L28.1226-70.459ZM11.6885-24.4799L46.9815-24.4799L46.2315-26.7285L12.4385-26.7285ZM55.1196 0L57.7637 0L30.6382-70.459L29.4326-70.459L29.4326-67.1323Z"/>
  </g>
  <line id="Baseline-S" style="fill:none;stroke:#27AAE1;opacity:1;stroke-width:0.5;" x1="263" x2="3036" y1="696" y2="696"/>
  <line id="Capline-S" style="fill:none;stroke:#27AAE1;opacity:1;stroke-width:0.5;" x1="263" x2="3036" y1="625.541" y2="625.541"/>
  <g id="H-reference" style="fill:#27AAE1;stroke:none;" transform="matrix(1 0 0 1 339 1126)">
   <path d="M0.993654 0L3.63775 0L29.3281-67.1323L30.0303-67.1323L30.0303-70.459L28.1226-70.459ZM11.6885-24.4799L46.9815-24.4799L46.2315-26.7285L12.4385-26.7285ZM55.1196 0L57.7637 0L30.6382-70.459L29.4326-70.459L29.4326-67.1323Z"/>
  </g>
  <line id="Baseline-M" style="fill:none;stroke:#27AAE1;opacity:1;stroke-width:0.5;" x1="263" x2="3036" y1="1126" y2="1126"/>
  <line id="Capline-M" style="fill:none;stroke:#27AAE1;opacity:1;stroke-width:0.5;" x1="263" x2="3036" y1="1055.54" y2="1055.54"/>
  <g id="H-reference" style="fill:#27AAE1;stroke:none;" transform="matrix(1 0 0 1 339 1556)">
   <path d="M0.993654 0L3.63775 0L29.3281-67.1323L30.0303-67.1323L30.0303-70.459L28.1226-70.459ZM11.6885-24.4799L46.9815-24.4799L46.2315-26.7285L12.4385-26.7285ZM55.1196 0L57.7637 0L30.6382-70.459L29.4326-70.459L29.4326-67.1323Z"/>
  </g>
  <line id="Baseline-L" style="fill:none;stroke:#27AAE1;opacity:1;stroke-width:0.5;" x1="263" x2="3036" y1="1556" y2="1556"/>
  <line id="Capline-L" style="fill:none;stroke:#27AAE1;opacity:1;stroke-width:0.5;" x1="263" x2="3036" y1="1485.54" y2="1485.54"/>
  <line id="left-margin-Ultralight-S" style="fill:none;stroke:#00AEEF;stroke-width:0.5;opacity:1.0;" x1="480.437" x2="480.437" y1="600.785" y2="720.121"/>
  <line id="right-margin-Ultralight-S" style="fill:none;stroke:#00AEEF;stroke-width:0.5;opacity:1.0;" x1="638.985" x2="638.985" y1="600.785" y2="720.121"/>
  <line id="left-margin-Regular-S" style="fill:none;stroke:#00AEEF;stroke-width:0.5;opacity:1.0;" x1="1364.71" x2="1364.71" y1="600.785" y2="720.121"/>
  <line id="right-margin-Regular-S" style="fill:none;stroke:#00AEEF;stroke-width:0.5;opacity:1.0;" x1="1534.98" x2="1534.98" y1="600.785" y2="720.121"/>
  <line id="left-margin-Black-S" style="fill:none;stroke:#00AEEF;stroke-width:0.5;opacity:1.0;" x1="2838.65" x2="2838.65" y1="600.785" y2="720.121"/>
  <line id="right-margin-Black-S" style="fill:none;stroke:#00AEEF;stroke-width:0.5;opacity:1.0;" x1="3028.15" x2="3028.15" y1="600.785" y2="720.121"/>
 </g>
 <g id="Symbols">
  <g id="Black-S" transform="matrix(1 0 0 1 2838.65 696)">
   <path class="monochrome-0 hierarchical-0:secondary SFSymbolsPreview4D4D4D" d="M21.9727-10.4004L128.906-10.4004C136.572-10.4004 141.113-14.9414 141.113-22.6074L141.113-52.1484C141.113-59.8145 136.572-64.3555 128.906-64.3555L21.9727-64.3555C14.3066-64.3555 9.76562-59.8145 9.76562-52.1484L9.76562-22.6074C9.76562-14.9414 14.3066-10.4004 21.9727-10.4004ZM23.7793-21.7773C21.9727-21.7773 21.0938-22.4609 21.0938-24.4141L21.0938-50.3418C21.0938-52.2949 21.9727-52.9785 23.7793-52.9785L127.1-52.9785C128.906-52.9785 129.785-52.2949 129.785-50.3418L129.785-24.4141C129.785-22.4609 128.906-21.7773 127.1-21.7773ZM136.914-20.9473L145.801-20.9473C149.756-20.9473 152.881-24.0723 152.881-28.0273L152.881-46.7285C152.881-50.6836 149.756-53.8086 145.801-53.8086L136.914-53.8086L136.914-44.043L142.139-44.043C142.676-44.043 143.115-43.6035 143.115-43.0664L143.115-31.6895C143.115-31.1523 142.676-30.7129 142.139-30.7129L136.914-30.7129ZM151.514-31.543L179.736-31.543L179.736-41.7969L151.514-41.7969Z"/>
   <path class="monochrome-1 hierarchical-1:primary SFSymbolsPreview212121" d="M54.3457-24.5117C61.4746-24.5117 67.2363-30.2246 67.2363-37.3535C67.2363-44.4336 61.4746-50.2441 54.3457-50.2441C47.2656-50.2441 41.5039-44.4336 41.5039-37.3535C41.5039-30.2246 47.2656-24.5117 54.3457-24.5117ZM49.9023-31.2012C48.9746-31.2012 48.1445-31.9824 48.1445-32.8613L48.1445-41.7969C48.1445-42.7246 48.9746-43.5547 49.9023-43.5547C50.8301-43.5547 51.5625-42.7734 51.5625-41.7969L51.5625-32.8613C51.5625-31.9336 50.8301-31.2012 49.9023-31.2012ZM58.8379-31.2012C57.9102-31.2012 57.0801-31.9336 57.0801-32.8613L57.0801-41.7969C57.0801-42.7734 57.8613-43.5547 58.8379-43.5547C59.7656-43.5547 60.498-42.7734 60.498-41.7969L60.498-32.8613C60.498-31.9336 59.7656-31.2012 58.8379-31.2012ZM83.0078-24.5117C90.0879-24.5117 95.8984-30.2246 95.8984-37.3535C95.8984-44.4336 90.0879-50.2441 83.0078-50.2441C75.9277-50.2441 70.166-44.4336 70.166-37.3535C70.166-30.2246 75.9277-24.5117 83.0078-24.5117ZM87.4512-31.2012C86.5234-31.2012 85.7422-31.9336 85.7422-32.8613L85.7422-41.7969C85.7422-42.7734 86.5234-43.5547 87.4512-43.5547C88.4277-43.5547 89.1602-42.7734 89.1602-41.7969L89.1602-32.8613C89.1602-31.9336 88.3789-31.2012 87.4512-31.2012ZM78.5156-31.2012C77.5879-31.2012 76.8066-31.9336 76.8066-32.8613L76.8066-41.7969C76.8066-42.7246 77.5879-43.5547 78.5156-43.5547C79.4922-43.5547 80.2246-42.7734 80.2246-41.7969L80.2246-32.8613C80.2246-31.9336 79.4922-31.2012 78.5156-31.2012ZM111.621-24.5117C118.75-24.5117 124.512-30.2246 124.512-37.3535C124.512-44.4336 118.75-50.2441 111.621-50.2441C104.541-50.2441 98.8281-44.4336 98.8281-37.3535C98.8281-30.2246 104.541-24.5117 111.621-24.5117ZM107.178-31.2012C106.25-31.2012 105.469-31.9336 105.469-32.8613L105.469-41.7969C105.469-42.7246 106.25-43.5547 107.178-43.5547C108.154-43.5547 108.887-42.7734 108.887-41.7969L108.887-32.8613C108.887-31.9336 108.105-31.2012 107.178-31.2012ZM116.113-31.2012C115.186-31.2012 114.355-31.9336 114.355-32.8613L114.355-41.7969C114.355-42.7734 115.137-43.5547 116.113-43.5547C117.041-43.5547 117.773-42.7734 117.773-41.7969L117.773-32.8613C117.773-31.9336 117.041-31.2012 116.113-31.2012ZM30.3223-26.6602L32.7148-26.6602C34.4238-26.6602 35.6445-27.8809 35.6445-29.6387L35.6445-45.166C35.6445-46.9238 34.4238-48.1445 32.7148-48.1445L30.3223-48.1445C28.5645-48.1445 27.3438-46.9238 27.3438-45.166L27.3438-29.6387C27.3438-27.8809 28.5645-26.6602 30.3223-26.6602Z"/>
  </g>
  <g id="Regular-S" transform="matrix(1 0 0 1 1364.71 696)">
   <path class="monochrome-0 hierarchical-0:secondary SFSymbolsPreview4D4D4D" d="M20.752-15.9668L117.09-15.9668C123.291-15.9668 128.076-20.752 128.076-26.9531L128.076-49.6582C128.076-55.8594 123.291-60.6934 117.09-60.6934L20.752-60.6934C14.502-60.6934 9.76562-55.8594 9.76562-49.6582L9.76562-26.9531C9.76562-20.752 14.502-15.9668 20.752-15.9668ZM20.752-22.0703C17.9688-22.0703 15.8691-24.1699 15.8691-26.9531L15.8691-49.6582C15.8691-52.4414 17.9688-54.541 20.752-54.541L117.09-54.541C119.873-54.541 121.973-52.4414 121.973-49.6582L121.973-26.9531C121.973-24.1699 119.873-22.0703 117.09-22.0703ZM124.805-24.9512L131.494-24.9512C134.033-24.9512 135.986-26.8555 135.986-29.3945L135.986-46.2402C135.986-48.7793 134.033-50.6836 131.494-50.6836L124.805-50.6836L124.805-45.9961L129.932-45.9961C130.713-45.9961 131.25-45.4102 131.25-44.6289L131.25-31.0059C131.25-30.2246 130.713-29.6387 129.932-29.6387L124.805-29.6387ZM134.766-34.8145L160.498-34.8145L160.498-40.4297L134.766-40.4297Z"/>
   <path class="monochrome-1 hierarchical-1:primary SFSymbolsPreview212121" d="M47.8516-26.4648C54.4434-26.4648 59.7168-31.7383 59.7168-38.2812C59.7168-44.8242 54.4434-50.1953 47.8516-50.1953C41.3086-50.1953 35.9863-44.8242 35.9863-38.2812C35.9863-31.7383 41.3086-26.4648 47.8516-26.4648ZM43.457-32.1289C42.5293-32.1289 41.6992-32.9102 41.6992-33.7891L41.6992-42.7734C41.6992-43.7012 42.5293-44.4824 43.457-44.4824C44.3848-44.4824 45.0684-43.75 45.0684-42.7734L45.0684-33.7891C45.0684-32.8613 44.3848-32.1289 43.457-32.1289ZM52.2949-32.1289C51.3672-32.1289 50.5859-32.8613 50.5859-33.7891L50.5859-42.7734C50.5859-43.75 51.3184-44.4824 52.2949-44.4824C53.2227-44.4824 53.9551-43.75 53.9551-42.7734L53.9551-33.7891C53.9551-32.8613 53.2227-32.1289 52.2949-32.1289ZM76.4648-26.4648C82.959-26.4648 88.3301-31.7383 88.3301-38.2812C88.3301-44.8242 82.959-50.1953 76.4648-50.1953C69.9219-50.1953 64.5996-44.8242 64.5996-38.2812C64.5996-31.7383 69.9219-26.4648 76.4648-26.4648ZM80.8594-32.1289C79.9316-32.1289 79.1504-32.8613 79.1504-33.7891L79.1504-42.7734C79.1504-43.75 79.9316-44.4824 80.8594-44.4824C81.8359-44.4824 82.5684-43.75 82.5684-42.7734L82.5684-33.7891C82.5684-32.8613 81.7871-32.1289 80.8594-32.1289ZM71.9727-32.1289C71.0938-32.1289 70.3125-32.8613 70.3125-33.7891L70.3125-42.7734C70.3125-43.7012 71.0938-44.4824 71.9727-44.4824C72.9492-44.4824 73.6816-43.75 73.6816-42.7734L73.6816-33.7891C73.6816-32.8613 72.9492-32.1289 71.9727-32.1289ZM104.98-26.4648C111.572-26.4648 116.895-31.7383 116.895-38.2812C116.895-44.8242 111.572-50.1953 104.98-50.1953C98.4863-50.1953 93.2129-44.8242 93.2129-38.2812C93.2129-31.7383 98.4863-26.4648 104.98-26.4648ZM100.586-32.1289C99.6582-32.1289 98.877-32.8613 98.877-33.7891L98.877-42.7734C98.877-43.7012 99.6582-44.4824 100.586-44.4824C101.562-44.4824 102.295-43.75 102.295-42.7734L102.295-33.7891C102.295-32.8613 101.514-32.1289 100.586-32.1289ZM109.473-32.1289C108.545-32.1289 107.715-32.8613 107.715-33.7891L107.715-42.7734C107.715-43.75 108.496-44.4824 109.473-44.4824C110.4-44.4824 111.133-43.75 111.133-42.7734L111.133-33.7891C111.133-32.8613 110.4-32.1289 109.473-32.1289ZM24.8047-29.5898L27.2461-29.5898C28.418-29.5898 29.1992-30.3711 29.1992-31.543L29.1992-45.166C29.1992-46.3379 28.418-47.1191 27.2461-47.1191L24.8047-47.1191C23.6328-47.1191 22.8516-46.3379 22.8516-45.166L22.8516-31.543C22.8516-30.3711 23.6328-29.5898 24.8047-29.5898Z"/>
  </g>
  <g id="Ultralight-S" transform="matrix(1 0 0 1 480.437 696)">
   <path class="monochrome-0 hierarchical-0:secondary SFSymbolsPreview4D4D4D" d="M19.6621-16.9658L112.231-16.9658C118.659-16.9658 122.127-20.5703 122.127-26.9077L122.127-47.1153C122.127-53.4527 118.659-57.0152 112.231-57.0152L19.6621-57.0152C13.2305-57.0152 9.76562-53.5435 9.76562-47.1153L9.76562-26.9077C9.76562-20.4795 13.2305-16.9658 19.6621-16.9658ZM19.7983-19.1641C14.6084-19.1641 11.9185-21.854 11.9185-26.9985L11.9185-47.0244C11.9185-52.1689 14.6084-54.8589 19.7983-54.8589L112.14-54.8589C117.103-54.8589 119.975-52.1689 119.975-47.0244L119.975-26.9985C119.975-21.854 117.103-19.1641 112.14-19.1641ZM120.899-24.6333L123.502-24.6333C126.631-24.6333 128.448-26.4468 128.448-29.5762L128.448-44.3784C128.448-47.5078 126.631-49.3213 123.502-49.3213L120.899-49.3213L120.899-47.2676L123.347-47.2676C125.264-47.2676 126.391-46.1367 126.391-44.2202L126.391-29.7344C126.391-27.8179 125.264-26.7324 123.347-26.7324L120.899-26.7324ZM127.909-35.2686L148.782-35.2686L148.782-37.4326L127.909-37.4326Z"/>
   <path class="monochrome-1 hierarchical-1:primary SFSymbolsPreview212121" d="M45.354-25.6021C51.6734-25.6021 56.7652-30.603 56.7652-36.9644C56.7652-43.2803 51.6734-48.4243 45.354-48.4243C38.9927-48.4243 33.8975-43.2803 33.8975-36.9644C33.8975-30.603 38.9927-25.6021 45.354-25.6021ZM41.459-30.7666C40.6221-30.7666 39.9736-31.4116 39.9736-32.2451L39.9736-41.7744C39.9736-42.5659 40.6221-43.2109 41.459-43.2109C42.2959-43.2109 42.9341-42.5693 42.9341-41.7744L42.9341-32.2451C42.9341-31.4082 42.2959-30.7666 41.459-30.7666ZM49.2071-30.7666C48.3701-30.7666 47.7251-31.4082 47.7251-32.2451L47.7251-41.7744C47.7251-42.5693 48.3667-43.2109 49.2071-43.2109C49.9986-43.2109 50.6402-42.5693 50.6402-41.7744L50.6402-32.2451C50.6402-31.4082 49.9986-30.7666 49.2071-30.7666ZM72.8775-25.6021C79.19-25.6021 84.2886-30.603 84.2886-36.9644C84.2886-43.2803 79.19-48.4243 72.8775-48.4243C66.5161-48.4243 61.4209-43.2803 61.4209-36.9644C61.4209-30.603 66.5161-25.6021 72.8775-25.6021ZM76.7271-30.7666C75.8902-30.7666 75.2451-31.4082 75.2451-32.2451L75.2451-41.7744C75.2451-42.5693 75.8902-43.2109 76.7271-43.2109C77.5674-43.2109 78.209-42.5693 78.209-41.7744L78.209-32.2451C78.209-31.4082 77.564-30.7666 76.7271-30.7666ZM69.021-30.7666C68.1875-30.7666 67.5425-31.4082 67.5425-32.2451L67.5425-41.7744C67.5425-42.5659 68.1875-43.2109 69.021-43.2109C69.8614-43.2109 70.4575-42.5693 70.4575-41.7744L70.4575-32.2451C70.4575-31.4082 69.8614-30.7666 69.021-30.7666ZM100.394-25.6021C106.713-25.6021 111.809-30.603 111.809-36.9644C111.809-43.2803 106.713-48.4243 100.394-48.4243C94.0362-48.4243 88.9444-43.2803 88.9444-36.9644C88.9444-30.603 94.0362-25.6021 100.394-25.6021ZM96.4991-30.7666C95.6621-30.7666 95.0171-31.4082 95.0171-32.2451L95.0171-41.7744C95.0171-42.5659 95.6621-43.2109 96.4991-43.2109C97.3394-43.2109 97.981-42.5693 97.981-41.7744L97.981-32.2451C97.981-31.4082 97.336-30.7666 96.4991-30.7666ZM104.205-30.7666C103.414-30.7666 102.765-31.4082 102.765-32.2451L102.765-41.7744C102.765-42.5693 103.41-43.2109 104.205-43.2109C105.042-43.2109 105.684-42.5693 105.684-41.7744L105.684-32.2451C105.684-31.4082 105.042-30.7666 104.205-30.7666ZM22.6704-28.5908L25.8838-28.5908C26.6924-28.5908 27.292-29.1904 27.292-29.999L27.292-43.9854C27.292-44.9302 26.6924-45.4844 25.8838-45.4844L22.6704-45.4844C21.771-45.4844 21.1714-44.9302 21.1714-43.9854L21.1714-29.999C21.1714-29.1904 21.771-28.5908 22.6704-28.5908Z"/>
  </g>
 </g>
</svg>
