<?xml version="1.0" encoding="UTF-8"?>
<!--Generator: Apple Native CoreSVG 175.5-->
<!DOCTYPE svg
PUBLIC "-//W3C//DTD SVG 1.1//EN"
       "http://www.w3.org/Graphics/SVG/1.1/DTD/svg11.dtd">
<svg version="1.1" xmlns="http://www.w3.org/2000/svg" xmlns:xlink="http://www.w3.org/1999/xlink" width="3300" height="2200">
 <!--glyph: "uni1014B0.medium", point size: 100.0, font version: "18.0d11e1", template writer version: "90"-->
 <style>.monochrome-0 {fill:#000000}
.monochrome-1 {fill:#000000}

.multicolor-0:systemRedColor {fill:#FF3B30}
.multicolor-1:systemRedColor {fill:#FF3B30}

.hierarchical-0:primary {fill:#212121}
.hierarchical-1:secondary {fill:#4D4D4D}

.SFSymbolsPreviewFF3B30 {fill:#FF3B30;opacity:1.0}
</style>
 <g id="Notes">
  <rect height="2200" id="artboard" style="fill:white;opacity:1" width="3300" x="0" y="0"/>
  <line style="fill:none;stroke:black;opacity:1;stroke-width:0.5;" x1="263" x2="3036" y1="292" y2="292"/>
  <text style="stroke:none;fill:black;font-family:sans-serif;font-size:13;font-weight:bold;" transform="matrix(1 0 0 1 263 322)">Weight/Scale Variations</text>
  <text style="stroke:none;fill:black;font-family:sans-serif;font-size:13;text-anchor:middle;" transform="matrix(1 0 0 1 559.711 322)">Ultralight</text>
  <text style="stroke:none;fill:black;font-family:sans-serif;font-size:13;text-anchor:middle;" transform="matrix(1 0 0 1 856.422 322)">Thin</text>
  <text style="stroke:none;fill:black;font-family:sans-serif;font-size:13;text-anchor:middle;" transform="matrix(1 0 0 1 1153.13 322)">Light</text>
  <text style="stroke:none;fill:black;font-family:sans-serif;font-size:13;text-anchor:middle;" transform="matrix(1 0 0 1 1449.84 322)">Regular</text>
  <text style="stroke:none;fill:black;font-family:sans-serif;font-size:13;text-anchor:middle;" transform="matrix(1 0 0 1 1746.56 322)">Medium</text>
  <text style="stroke:none;fill:black;font-family:sans-serif;font-size:13;text-anchor:middle;" transform="matrix(1 0 0 1 2043.27 322)">Semibold</text>
  <text style="stroke:none;fill:black;font-family:sans-serif;font-size:13;text-anchor:middle;" transform="matrix(1 0 0 1 2339.98 322)">Bold</text>
  <text style="stroke:none;fill:black;font-family:sans-serif;font-size:13;text-anchor:middle;" transform="matrix(1 0 0 1 2636.69 322)">Heavy</text>
  <text style="stroke:none;fill:black;font-family:sans-serif;font-size:13;text-anchor:middle;" transform="matrix(1 0 0 1 2933.4 322)">Black</text>
  <line style="fill:none;stroke:black;opacity:1;stroke-width:0.5;" x1="263" x2="3036" y1="1903" y2="1903"/>
  <g transform="matrix(1 0 0 1 263 1933)">
   <path d="M9.24805 0.830078C13.5547 0.830078 17.1387-2.74414 17.1387-7.05078C17.1387-11.3574 13.5449-14.9316 9.23828-14.9316C4.94141-14.9316 1.36719-11.3574 1.36719-7.05078C1.36719-2.74414 4.95117 0.830078 9.24805 0.830078ZM9.24805-0.654297C5.70312-0.654297 2.87109-3.49609 2.87109-7.05078C2.87109-10.6055 5.69336-13.4473 9.23828-13.4473C12.793-13.4473 15.6445-10.6055 15.6445-7.05078C15.6445-3.49609 12.8027-0.654297 9.24805-0.654297ZM5.6543-7.05078C5.6543-6.62109 5.95703-6.32812 6.40625-6.32812L8.50586-6.32812L8.50586-4.20898C8.50586-3.76953 8.79883-3.4668 9.22852-3.4668C9.67773-3.4668 9.9707-3.76953 9.9707-4.20898L9.9707-6.32812L12.0898-6.32812C12.5293-6.32812 12.832-6.62109 12.832-7.05078C12.832-7.49023 12.5293-7.79297 12.0898-7.79297L9.9707-7.79297L9.9707-9.90234C9.9707-10.3516 9.67773-10.6543 9.22852-10.6543C8.79883-10.6543 8.50586-10.3516 8.50586-9.90234L8.50586-7.79297L6.40625-7.79297C5.95703-7.79297 5.6543-7.49023 5.6543-7.05078Z"/>
  </g>
  <g transform="matrix(1 0 0 1 281.867 1933)">
   <path d="M11.709 2.91016C17.1582 2.91016 21.6699-1.61133 21.6699-7.05078C21.6699-12.5 17.1484-17.0117 11.6992-17.0117C6.25977-17.0117 1.74805-12.5 1.74805-7.05078C1.74805-1.61133 6.26953 2.91016 11.709 2.91016ZM11.709 1.25C7.09961 1.25 3.41797-2.44141 3.41797-7.05078C3.41797-11.6602 7.08984-15.3516 11.6992-15.3516C16.3086-15.3516 20.0098-11.6602 20.0098-7.05078C20.0098-2.44141 16.3184 1.25 11.709 1.25ZM7.17773-7.05078C7.17773-6.57227 7.50977-6.25 8.00781-6.25L10.8789-6.25L10.8789-3.36914C10.8789-2.88086 11.2109-2.53906 11.6895-2.53906C12.1777-2.53906 12.5195-2.87109 12.5195-3.36914L12.5195-6.25L15.4004-6.25C15.8887-6.25 16.2305-6.57227 16.2305-7.05078C16.2305-7.53906 15.8887-7.88086 15.4004-7.88086L12.5195-7.88086L12.5195-10.752C12.5195-11.25 12.1777-11.5918 11.6895-11.5918C11.2109-11.5918 10.8789-11.25 10.8789-10.752L10.8789-7.88086L8.00781-7.88086C7.50977-7.88086 7.17773-7.53906 7.17773-7.05078Z"/>
  </g>
  <g transform="matrix(1 0 0 1 305.646 1933)">
   <path d="M14.9707 5.66406C21.9336 5.66406 27.6953-0.0976562 27.6953-7.05078C27.6953-14.0137 21.9238-19.7754 14.9609-19.7754C8.00781-19.7754 2.25586-14.0137 2.25586-7.05078C2.25586-0.0976562 8.01758 5.66406 14.9707 5.66406ZM14.9707 3.84766C8.93555 3.84766 4.08203-1.01562 4.08203-7.05078C4.08203-13.0957 8.92578-17.9492 14.9609-17.9492C21.0059-17.9492 25.8691-13.0957 25.8691-7.05078C25.8691-1.01562 21.0156 3.84766 14.9707 3.84766ZM9.19922-7.05078C9.19922-6.5332 9.57031-6.17188 10.1172-6.17188L14.0625-6.17188L14.0625-2.2168C14.0625-1.67969 14.4336-1.29883 14.9512-1.29883C15.4883-1.29883 15.8594-1.66992 15.8594-2.2168L15.8594-6.17188L19.8145-6.17188C20.3516-6.17188 20.7324-6.5332 20.7324-7.05078C20.7324-7.59766 20.3613-7.96875 19.8145-7.96875L15.8594-7.96875L15.8594-11.9141C15.8594-12.4609 15.4883-12.8418 14.9512-12.8418C14.4336-12.8418 14.0625-12.4609 14.0625-11.9141L14.0625-7.96875L10.1172-7.96875C9.57031-7.96875 9.19922-7.59766 9.19922-7.05078Z"/>
  </g>
  <text style="stroke:none;fill:black;font-family:sans-serif;font-size:13;font-weight:bold;" transform="matrix(1 0 0 1 263 1953)">Design Variations</text>
  <text style="stroke:none;fill:black;font-family:sans-serif;font-size:13;" transform="matrix(1 0 0 1 263 1971)">Symbols are supported in up to nine weights and three scales.</text>
  <text style="stroke:none;fill:black;font-family:sans-serif;font-size:13;" transform="matrix(1 0 0 1 263 1989)">For optimal layout with text and other symbols, vertically align</text>
  <text style="stroke:none;fill:black;font-family:sans-serif;font-size:13;" transform="matrix(1 0 0 1 263 2007)">symbols with the adjacent text.</text>
  <line style="fill:none;stroke:#00AEEF;stroke-width:0.5;opacity:1.0;" x1="776" x2="776" y1="1919" y2="1933"/>
  <g transform="matrix(1 0 0 1 776 1933)">
   <path d="M3.31055 0.15625C3.82812 0.15625 4.08203-0.0390625 4.26758-0.585938L5.52734-4.0332L11.2891-4.0332L12.5488-0.585938C12.7344-0.0390625 12.9883 0.15625 13.4961 0.15625C14.0137 0.15625 14.3457-0.15625 14.3457-0.644531C14.3457-0.810547 14.3164-0.966797 14.2383-1.17188L9.6582-13.3691C9.43359-13.9648 9.0332-14.2676 8.4082-14.2676C7.80273-14.2676 7.39258-13.9746 7.17773-13.3789L2.59766-1.16211C2.51953-0.957031 2.49023-0.800781 2.49023-0.634766C2.49023-0.146484 2.80273 0.15625 3.31055 0.15625ZM6.00586-5.51758L8.37891-12.0898L8.42773-12.0898L10.8008-5.51758Z"/>
  </g>
  <line style="fill:none;stroke:#00AEEF;stroke-width:0.5;opacity:1.0;" x1="793.197" x2="793.197" y1="1919" y2="1933"/>
  <text style="stroke:none;fill:black;font-family:sans-serif;font-size:13;font-weight:bold;" transform="matrix(1 0 0 1 776 1953)">Margins</text>
  <text style="stroke:none;fill:black;font-family:sans-serif;font-size:13;" transform="matrix(1 0 0 1 776 1971)">Leading and trailing margins on the left and right side of each symbol</text>
  <text style="stroke:none;fill:black;font-family:sans-serif;font-size:13;" transform="matrix(1 0 0 1 776 1989)">can be adjusted by modifying the x-location of the margin guidelines.</text>
  <text style="stroke:none;fill:black;font-family:sans-serif;font-size:13;" transform="matrix(1 0 0 1 776 2007)">Modifications are automatically applied proportionally to all</text>
  <text style="stroke:none;fill:black;font-family:sans-serif;font-size:13;" transform="matrix(1 0 0 1 776 2025)">scales and weights.</text>
  <g transform="matrix(1 0 0 1 1289 1933)">
   <path d="M2.8418 1.86523L4.54102 3.57422C5.40039 4.44336 6.38672 4.38477 7.31445 3.35938L18.0078-8.42773L17.041-9.4043L6.42578 2.27539C6.07422 2.67578 5.74219 2.77344 5.27344 2.30469L4.10156 1.14258C3.63281 0.683594 3.74023 0.341797 4.14062-0.0195312L15.6152-10.8203L14.6387-11.7871L3.04688-0.898438C2.06055 0.0195312 1.98242 0.996094 2.8418 1.86523ZM9.25781-16.3281C8.83789-15.918 8.80859-15.3418 9.04297-14.9512C9.27734-14.5898 9.73633-14.3555 10.3809-14.5215C11.8457-14.8633 13.3691-14.9219 14.7949-13.9844L14.209-12.5293C13.8672-11.6992 14.043-11.1133 14.5801-10.5664L16.875-8.25195C17.3633-7.76367 17.7734-7.74414 18.3398-7.8418L19.4043-8.03711L20.0684-7.36328L20.0293-6.80664C19.9902-6.30859 20.1172-5.92773 20.6055-5.44922L21.3672-4.70703C21.8457-4.22852 22.4609-4.19922 22.9297-4.66797L25.8398-7.58789C26.3086-8.05664 26.2891-8.65234 25.8105-9.13086L25.0391-9.89258C24.5605-10.3711 24.1895-10.5273 23.7109-10.4883L23.1348-10.4395L22.4902-11.0742L22.7344-12.1973C22.8613-12.7637 22.7051-13.2031 22.1191-13.7891L19.9219-15.9766C16.582-19.2969 12.1484-19.2188 9.25781-16.3281ZM10.752-15.957C13.1836-17.7344 16.4746-17.4316 18.7012-15.2051L21.1328-12.793C21.3672-12.5586 21.4062-12.373 21.3379-12.0312L21.0156-10.5469L22.5195-9.0625L23.5059-9.12109C23.7598-9.13086 23.8379-9.11133 24.0332-8.91602L24.6094-8.33984L22.168-5.89844L21.5918-6.47461C21.3965-6.66992 21.3672-6.74805 21.377-7.01172L21.4453-7.98828L19.9512-9.47266L18.4277-9.21875C18.1055-9.15039 17.959-9.17969 17.7148-9.41406L15.7129-11.416C15.459-11.6504 15.4297-11.8164 15.5859-12.1875L16.4648-14.2773C14.9023-15.7324 12.8711-16.3574 10.8398-15.7617C10.6836-15.7227 10.625-15.8496 10.752-15.957Z"/>
  </g>
  <text style="stroke:none;fill:black;font-family:sans-serif;font-size:13;font-weight:bold;" transform="matrix(1 0 0 1 1289 1953)">Exporting</text>
  <text style="stroke:none;fill:black;font-family:sans-serif;font-size:13;" transform="matrix(1 0 0 1 1289 1971)">Symbols should be outlined when exporting to ensure the</text>
  <text style="stroke:none;fill:black;font-family:sans-serif;font-size:13;" transform="matrix(1 0 0 1 1289 1989)">design is preserved when submitting to Xcode.</text>
  <text id="template-version" style="stroke:none;fill:black;font-family:sans-serif;font-size:13;text-anchor:end;" transform="matrix(1 0 0 1 3036 1933)">Template v.4.0</text>
  <text style="stroke:none;fill:black;font-family:sans-serif;font-size:13;text-anchor:end;" transform="matrix(1 0 0 1 3036 1951)">Requires Xcode 14 or greater</text>
  <text id="descriptive-name" style="stroke:none;fill:black;font-family:sans-serif;font-size:13;text-anchor:end;" transform="matrix(1 0 0 1 3036 1969)">Generated from light.beacon.max</text>
  <text style="stroke:none;fill:black;font-family:sans-serif;font-size:13;text-anchor:end;" transform="matrix(1 0 0 1 3036 1987)">Typeset at 100 points</text>
  <text style="stroke:none;fill:black;font-family:sans-serif;font-size:13;" transform="matrix(1 0 0 1 263 726)">Small</text>
  <text style="stroke:none;fill:black;font-family:sans-serif;font-size:13;" transform="matrix(1 0 0 1 263 1156)">Medium</text>
  <text style="stroke:none;fill:black;font-family:sans-serif;font-size:13;" transform="matrix(1 0 0 1 263 1586)">Large</text>
 </g>
 <g id="Guides">
  <g id="H-reference" style="fill:#27AAE1;stroke:none;" transform="matrix(1 0 0 1 339 696)">
   <path d="M0.993654 0L3.63775 0L29.3281-67.1323L30.0303-67.1323L30.0303-70.459L28.1226-70.459ZM11.6885-24.4799L46.9815-24.4799L46.2315-26.7285L12.4385-26.7285ZM55.1196 0L57.7637 0L30.6382-70.459L29.4326-70.459L29.4326-67.1323Z"/>
  </g>
  <line id="Baseline-S" style="fill:none;stroke:#27AAE1;opacity:1;stroke-width:0.5;" x1="263" x2="3036" y1="696" y2="696"/>
  <line id="Capline-S" style="fill:none;stroke:#27AAE1;opacity:1;stroke-width:0.5;" x1="263" x2="3036" y1="625.541" y2="625.541"/>
  <g id="H-reference" style="fill:#27AAE1;stroke:none;" transform="matrix(1 0 0 1 339 1126)">
   <path d="M0.993654 0L3.63775 0L29.3281-67.1323L30.0303-67.1323L30.0303-70.459L28.1226-70.459ZM11.6885-24.4799L46.9815-24.4799L46.2315-26.7285L12.4385-26.7285ZM55.1196 0L57.7637 0L30.6382-70.459L29.4326-70.459L29.4326-67.1323Z"/>
  </g>
  <line id="Baseline-M" style="fill:none;stroke:#27AAE1;opacity:1;stroke-width:0.5;" x1="263" x2="3036" y1="1126" y2="1126"/>
  <line id="Capline-M" style="fill:none;stroke:#27AAE1;opacity:1;stroke-width:0.5;" x1="263" x2="3036" y1="1055.54" y2="1055.54"/>
  <g id="H-reference" style="fill:#27AAE1;stroke:none;" transform="matrix(1 0 0 1 339 1556)">
   <path d="M0.993654 0L3.63775 0L29.3281-67.1323L30.0303-67.1323L30.0303-70.459L28.1226-70.459ZM11.6885-24.4799L46.9815-24.4799L46.2315-26.7285L12.4385-26.7285ZM55.1196 0L57.7637 0L30.6382-70.459L29.4326-70.459L29.4326-67.1323Z"/>
  </g>
  <line id="Baseline-L" style="fill:none;stroke:#27AAE1;opacity:1;stroke-width:0.5;" x1="263" x2="3036" y1="1556" y2="1556"/>
  <line id="Capline-L" style="fill:none;stroke:#27AAE1;opacity:1;stroke-width:0.5;" x1="263" x2="3036" y1="1485.54" y2="1485.54"/>
  <line id="left-margin-Ultralight-S" style="fill:none;stroke:#00AEEF;stroke-width:0.5;opacity:1.0;" x1="510.337" x2="510.337" y1="600.785" y2="720.121"/>
  <line id="right-margin-Ultralight-S" style="fill:none;stroke:#00AEEF;stroke-width:0.5;opacity:1.0;" x1="609.085" x2="609.085" y1="600.785" y2="720.121"/>
  <line id="left-margin-Regular-S" style="fill:none;stroke:#00AEEF;stroke-width:0.5;opacity:1.0;" x1="1393.55" x2="1393.55" y1="600.785" y2="720.121"/>
  <line id="right-margin-Regular-S" style="fill:none;stroke:#00AEEF;stroke-width:0.5;opacity:1.0;" x1="1506.14" x2="1506.14" y1="600.785" y2="720.121"/>
  <line id="left-margin-Black-S" style="fill:none;stroke:#00AEEF;stroke-width:0.5;opacity:1.0;" x1="2869.44" x2="2869.44" y1="600.785" y2="720.121"/>
  <line id="right-margin-Black-S" style="fill:none;stroke:#00AEEF;stroke-width:0.5;opacity:1.0;" x1="2997.36" x2="2997.36" y1="600.785" y2="720.121"/>
 </g>
 <g id="Symbols">
  <g id="Black-S" transform="matrix(1 0 0 1 2869.44 696)">
   <path class="monochrome-0 multicolor-0:systemRedColor hierarchical-0:primary SFSymbolsPreviewFF3B30" d="M80.0781-1.80664L92.2852-1.80664L92.2852-33.7402C92.2852-49.6094 79.834-62.0605 63.9648-62.0605C48.0957-62.0605 35.6445-49.6094 35.6445-33.7402L35.6445-1.80664L47.8516-1.80664L47.8516-33.7402C47.8516-42.7734 54.9316-49.8535 63.9648-49.8535C72.998-49.8535 80.0781-42.7734 80.0781-33.7402ZM97.168 4.19922C100.488 4.19922 103.271 1.41602 103.271-1.9043C103.271-5.22461 100.488-8.00781 97.168-8.00781L30.7617-8.00781C27.4414-8.00781 24.6582-5.22461 24.6582-1.9043C24.6582 1.41602 27.4414 4.19922 30.7617 4.19922ZM70.0684-30.3223C70.0684-33.6426 67.2852-36.4258 63.9648-36.4258C60.6445-36.4258 57.8613-33.6426 57.8613-30.3223L57.8613-1.80664L70.0684-1.80664Z"/>
   <path class="monochrome-1 multicolor-1:systemRedColor hierarchical-1:secondary SFSymbolsPreviewFF3B30" d="M57.5684-72.9004C57.5684-69.4336 60.4492-66.4551 63.9648-66.4551C67.4805-66.4551 70.3613-69.4336 70.3613-72.9004L70.3613-80.6152C70.3613-84.082 67.4316-87.0117 63.9648-87.0117C60.498-87.0117 57.5684-84.082 57.5684-80.6152ZM23.877-26.416C27.3438-26.416 30.3223-29.2969 30.3223-32.8125C30.3223-36.3281 27.3438-39.209 23.877-39.209L16.1621-39.209C12.6953-39.209 9.76562-36.2793 9.76562-32.8125C9.76562-29.3457 12.6953-26.416 16.1621-26.416ZM111.768-26.416C115.234-26.416 118.164-29.3457 118.164-32.8125C118.164-36.2793 115.234-39.209 111.768-39.209L104.053-39.209C100.586-39.209 97.6074-36.3281 97.6074-32.8125C97.6074-29.2969 100.586-26.416 104.053-26.416ZM88.2812-66.1621C85.791-63.6719 85.7422-59.6191 88.2812-57.1289C90.7715-54.5898 94.8242-54.6387 97.3145-57.1289L102.783-62.5977C105.273-65.0879 105.273-69.1406 102.783-71.6309C100.293-74.1211 96.2402-74.1211 93.75-71.6309ZM30.6152-57.1289C33.1055-54.6387 37.1582-54.5898 39.6484-57.1289C42.1875-59.6191 42.1387-63.6719 39.6484-66.1621L34.1797-71.6309C31.6895-74.1211 27.6367-74.1211 25.1465-71.6309C22.6562-69.1406 22.6562-65.0879 25.1465-62.5977Z"/>
  </g>
  <g id="Regular-S" transform="matrix(1 0 0 1 1393.55 696)">
   <path class="monochrome-0 multicolor-0:systemRedColor hierarchical-0:primary SFSymbolsPreviewFF3B30" d="M74.5117-4.19922L81.543-4.19922L81.543-32.8125C81.543-46.9727 70.4102-58.1055 56.2988-58.1055C42.1387-58.1055 31.0547-46.9727 31.0547-32.8125L31.0547-4.19922L38.0859-4.19922L38.0859-32.8125C38.0859-43.1152 46.0449-51.0742 56.2988-51.0742C66.5527-51.0742 74.5117-43.1152 74.5117-32.8125ZM86.0352-0.683594C87.9883-0.683594 89.5996-2.29492 89.5996-4.19922C89.5996-6.15234 87.9883-7.76367 86.0352-7.76367L26.5137-7.76367C24.6094-7.76367 23.0469-6.15234 23.0469-4.19922C23.0469-2.29492 24.6094-0.683594 26.5137-0.683594ZM59.8633-31.6406C59.8633-33.5449 58.2031-35.2051 56.2988-35.2051C54.3457-35.2051 52.832-33.5449 52.832-31.6406L52.832-4.19922L59.8633-4.19922Z"/>
   <path class="monochrome-1 multicolor-1:systemRedColor hierarchical-1:secondary SFSymbolsPreviewFF3B30" d="M52.5391-69.043C52.5391-66.9922 54.1992-65.2344 56.2988-65.2344C58.3984-65.2344 60.1074-66.9922 60.1074-69.043L60.1074-76.0742C60.1074-78.1738 58.3496-79.8828 56.2988-79.8828C54.1992-79.8828 52.5391-78.1738 52.5391-76.0742ZM20.5566-29.5898C22.6074-29.5898 24.4141-31.25 24.4141-33.3008C24.4141-35.4492 22.6074-37.1094 20.5566-37.1094L13.5254-37.1094C11.4746-37.1094 9.76562-35.4004 9.76562-33.3008C9.76562-31.2988 11.4746-29.5898 13.5254-29.5898ZM99.0723-29.5898C101.123-29.5898 102.832-31.2988 102.832-33.3008C102.832-35.4004 101.123-37.1094 99.0723-37.1094L92.041-37.1094C89.9414-37.1094 88.2324-35.4492 88.2324-33.3008C88.2324-31.25 89.9414-29.5898 92.041-29.5898ZM78.9062-61.2305C77.4414-59.7656 77.3926-57.4219 78.9062-55.957C80.4199-54.4434 82.7637-54.4922 84.1797-55.957L89.209-60.9375C90.6738-62.4023 90.6738-64.7461 89.209-66.2598C87.6953-67.6758 85.3516-67.6758 83.8867-66.2598ZM28.3691-55.957C29.834-54.4922 32.2266-54.4434 33.6914-55.957C35.1562-57.4219 35.1074-59.7656 33.6914-61.2305L28.7109-66.2598C27.2949-67.6758 24.8535-67.6758 23.3887-66.2598C21.9238-64.7461 21.9238-62.4023 23.3887-60.9375Z"/>
  </g>
  <g id="Ultralight-S" transform="matrix(1 0 0 1 510.337 696)">
   <path class="monochrome-0 multicolor-0:systemRedColor hierarchical-0:primary SFSymbolsPreviewFF3B30" d="M69.4712-5.33446L71.6436-5.33446L71.6436-33.1304C71.6436-46.2461 62.418-55.4717 49.3511-55.4717C36.3262-55.4717 27.104-46.2461 27.104-33.1304L27.104-5.33446L29.3218-5.33446L29.3218-33.1304C29.3218-44.9316 37.5987-53.2539 49.3511-53.2539C61.1036-53.2539 69.4712-44.9316 69.4712-33.1304ZM77.0894-4.18015C77.7257-4.18015 78.2472-4.61082 78.2472-5.19823C78.2472-5.87988 77.7257-6.35597 77.0894-6.35597L21.6094-6.35597C20.9766-6.35597 20.5039-5.87988 20.5039-5.19823C20.5039-4.61082 20.9766-4.18015 21.6094-4.18015ZM50.418-33.8657C50.418-34.4531 49.9385-34.978 49.3511-34.978C48.7149-34.978 48.2911-34.4531 48.2911-33.8657L48.2911-5.33446L50.418-5.33446Z"/>
   <path class="monochrome-1 multicolor-1:systemRedColor hierarchical-1:secondary SFSymbolsPreviewFF3B30" d="M48.2251-63.4122C48.2251-62.8599 48.7046-62.3281 49.3511-62.3281C49.9522-62.3281 50.526-62.8599 50.526-63.4122L50.526-72.1236C50.526-72.7247 49.9488-73.3438 49.3511-73.3438C48.7046-73.3438 48.2251-72.7247 48.2251-72.1236ZM19.603-32.5415C20.1553-32.5415 20.7813-33.1118 20.7813-33.6641C20.7813-34.2686 20.1553-34.8843 19.603-34.8843L10.8916-34.8843C10.294-34.8843 9.76562-34.2651 9.76562-33.6641C9.76562-33.1152 10.294-32.5415 10.8916-32.5415ZM87.8106-32.5415C88.3629-32.5415 88.982-33.1152 88.982-33.6641C88.982-34.2651 88.3629-34.8843 87.8106-34.8843L79.0992-34.8843C78.5435-34.8843 77.9698-34.2686 77.9698-33.6641C77.9698-33.1118 78.5435-32.5415 79.0992-32.5415ZM69.5518-55.5088C69.0406-55.043 69.0372-54.334 69.5518-53.8682C69.9757-53.4443 70.7301-53.4024 71.1471-53.8682L77.2662-60.0747C77.7774-60.5405 77.7774-61.2041 77.2662-61.6734C76.8424-62.1358 76.1788-62.1358 75.6675-61.6734ZM27.5064-53.8682C27.8814-53.4932 28.5938-53.4898 29.105-53.8682C29.5708-54.334 29.5674-55.043 29.105-55.5088L22.9893-61.6734C22.5723-62.1358 21.8565-62.1358 21.3906-61.6734C20.9702-61.2041 20.9702-60.5405 21.3906-60.0747Z"/>
  </g>
 </g>
</svg>
