<?xml version="1.0" encoding="UTF-8"?>
<!--Generator: Apple Native CoreSVG 175.5-->
<!DOCTYPE svg
PUBLIC "-//W3C//DTD SVG 1.1//EN"
       "http://www.w3.org/Graphics/SVG/1.1/DTD/svg11.dtd">
<svg version="1.1" xmlns="http://www.w3.org/2000/svg" xmlns:xlink="http://www.w3.org/1999/xlink" width="3300" height="2200">
 <!--glyph: "uni1014FC.medium", point size: 100.0, font version: "18.0d11e1", template writer version: "90"-->
 <style>.monochrome-0 {fill:#000000}
.monochrome-1 {fill:#000000;-sfsymbols-clear-behind:true}

.multicolor-0:tintColor {fill:#007AFF}
.multicolor-1:tintColor {fill:#007AFF;-sfsymbols-clear-behind:true}

.hierarchical-0:secondary {fill:#4D4D4D}
.hierarchical-1:primary {fill:#212121;-sfsymbols-clear-behind:true}

.SFSymbolsPreview007AFF {fill:#007AFF;opacity:1.0}
</style>
 <g id="Notes">
  <rect height="2200" id="artboard" style="fill:white;opacity:1" width="3300" x="0" y="0"/>
  <line style="fill:none;stroke:black;opacity:1;stroke-width:0.5;" x1="263" x2="3036" y1="292" y2="292"/>
  <text style="stroke:none;fill:black;font-family:sans-serif;font-size:13;font-weight:bold;" transform="matrix(1 0 0 1 263 322)">Weight/Scale Variations</text>
  <text style="stroke:none;fill:black;font-family:sans-serif;font-size:13;text-anchor:middle;" transform="matrix(1 0 0 1 559.711 322)">Ultralight</text>
  <text style="stroke:none;fill:black;font-family:sans-serif;font-size:13;text-anchor:middle;" transform="matrix(1 0 0 1 856.422 322)">Thin</text>
  <text style="stroke:none;fill:black;font-family:sans-serif;font-size:13;text-anchor:middle;" transform="matrix(1 0 0 1 1153.13 322)">Light</text>
  <text style="stroke:none;fill:black;font-family:sans-serif;font-size:13;text-anchor:middle;" transform="matrix(1 0 0 1 1449.84 322)">Regular</text>
  <text style="stroke:none;fill:black;font-family:sans-serif;font-size:13;text-anchor:middle;" transform="matrix(1 0 0 1 1746.56 322)">Medium</text>
  <text style="stroke:none;fill:black;font-family:sans-serif;font-size:13;text-anchor:middle;" transform="matrix(1 0 0 1 2043.27 322)">Semibold</text>
  <text style="stroke:none;fill:black;font-family:sans-serif;font-size:13;text-anchor:middle;" transform="matrix(1 0 0 1 2339.98 322)">Bold</text>
  <text style="stroke:none;fill:black;font-family:sans-serif;font-size:13;text-anchor:middle;" transform="matrix(1 0 0 1 2636.69 322)">Heavy</text>
  <text style="stroke:none;fill:black;font-family:sans-serif;font-size:13;text-anchor:middle;" transform="matrix(1 0 0 1 2933.4 322)">Black</text>
  <line style="fill:none;stroke:black;opacity:1;stroke-width:0.5;" x1="263" x2="3036" y1="1903" y2="1903"/>
  <g transform="matrix(1 0 0 1 263 1933)">
   <path d="M9.24805 0.830078C13.5547 0.830078 17.1387-2.74414 17.1387-7.05078C17.1387-11.3574 13.5449-14.9316 9.23828-14.9316C4.94141-14.9316 1.36719-11.3574 1.36719-7.05078C1.36719-2.74414 4.95117 0.830078 9.24805 0.830078ZM9.24805-0.654297C5.70312-0.654297 2.87109-3.49609 2.87109-7.05078C2.87109-10.6055 5.69336-13.4473 9.23828-13.4473C12.793-13.4473 15.6445-10.6055 15.6445-7.05078C15.6445-3.49609 12.8027-0.654297 9.24805-0.654297ZM5.6543-7.05078C5.6543-6.62109 5.95703-6.32812 6.40625-6.32812L8.50586-6.32812L8.50586-4.20898C8.50586-3.76953 8.79883-3.4668 9.22852-3.4668C9.67773-3.4668 9.9707-3.76953 9.9707-4.20898L9.9707-6.32812L12.0898-6.32812C12.5293-6.32812 12.832-6.62109 12.832-7.05078C12.832-7.49023 12.5293-7.79297 12.0898-7.79297L9.9707-7.79297L9.9707-9.90234C9.9707-10.3516 9.67773-10.6543 9.22852-10.6543C8.79883-10.6543 8.50586-10.3516 8.50586-9.90234L8.50586-7.79297L6.40625-7.79297C5.95703-7.79297 5.6543-7.49023 5.6543-7.05078Z"/>
  </g>
  <g transform="matrix(1 0 0 1 281.867 1933)">
   <path d="M11.709 2.91016C17.1582 2.91016 21.6699-1.61133 21.6699-7.05078C21.6699-12.5 17.1484-17.0117 11.6992-17.0117C6.25977-17.0117 1.74805-12.5 1.74805-7.05078C1.74805-1.61133 6.26953 2.91016 11.709 2.91016ZM11.709 1.25C7.09961 1.25 3.41797-2.44141 3.41797-7.05078C3.41797-11.6602 7.08984-15.3516 11.6992-15.3516C16.3086-15.3516 20.0098-11.6602 20.0098-7.05078C20.0098-2.44141 16.3184 1.25 11.709 1.25ZM7.17773-7.05078C7.17773-6.57227 7.50977-6.25 8.00781-6.25L10.8789-6.25L10.8789-3.36914C10.8789-2.88086 11.2109-2.53906 11.6895-2.53906C12.1777-2.53906 12.5195-2.87109 12.5195-3.36914L12.5195-6.25L15.4004-6.25C15.8887-6.25 16.2305-6.57227 16.2305-7.05078C16.2305-7.53906 15.8887-7.88086 15.4004-7.88086L12.5195-7.88086L12.5195-10.752C12.5195-11.25 12.1777-11.5918 11.6895-11.5918C11.2109-11.5918 10.8789-11.25 10.8789-10.752L10.8789-7.88086L8.00781-7.88086C7.50977-7.88086 7.17773-7.53906 7.17773-7.05078Z"/>
  </g>
  <g transform="matrix(1 0 0 1 305.646 1933)">
   <path d="M14.9707 5.66406C21.9336 5.66406 27.6953-0.0976562 27.6953-7.05078C27.6953-14.0137 21.9238-19.7754 14.9609-19.7754C8.00781-19.7754 2.25586-14.0137 2.25586-7.05078C2.25586-0.0976562 8.01758 5.66406 14.9707 5.66406ZM14.9707 3.84766C8.93555 3.84766 4.08203-1.01562 4.08203-7.05078C4.08203-13.0957 8.92578-17.9492 14.9609-17.9492C21.0059-17.9492 25.8691-13.0957 25.8691-7.05078C25.8691-1.01562 21.0156 3.84766 14.9707 3.84766ZM9.19922-7.05078C9.19922-6.5332 9.57031-6.17188 10.1172-6.17188L14.0625-6.17188L14.0625-2.2168C14.0625-1.67969 14.4336-1.29883 14.9512-1.29883C15.4883-1.29883 15.8594-1.66992 15.8594-2.2168L15.8594-6.17188L19.8145-6.17188C20.3516-6.17188 20.7324-6.5332 20.7324-7.05078C20.7324-7.59766 20.3613-7.96875 19.8145-7.96875L15.8594-7.96875L15.8594-11.9141C15.8594-12.4609 15.4883-12.8418 14.9512-12.8418C14.4336-12.8418 14.0625-12.4609 14.0625-11.9141L14.0625-7.96875L10.1172-7.96875C9.57031-7.96875 9.19922-7.59766 9.19922-7.05078Z"/>
  </g>
  <text style="stroke:none;fill:black;font-family:sans-serif;font-size:13;font-weight:bold;" transform="matrix(1 0 0 1 263 1953)">Design Variations</text>
  <text style="stroke:none;fill:black;font-family:sans-serif;font-size:13;" transform="matrix(1 0 0 1 263 1971)">Symbols are supported in up to nine weights and three scales.</text>
  <text style="stroke:none;fill:black;font-family:sans-serif;font-size:13;" transform="matrix(1 0 0 1 263 1989)">For optimal layout with text and other symbols, vertically align</text>
  <text style="stroke:none;fill:black;font-family:sans-serif;font-size:13;" transform="matrix(1 0 0 1 263 2007)">symbols with the adjacent text.</text>
  <line style="fill:none;stroke:#00AEEF;stroke-width:0.5;opacity:1.0;" x1="776" x2="776" y1="1919" y2="1933"/>
  <g transform="matrix(1 0 0 1 776 1933)">
   <path d="M3.31055 0.15625C3.82812 0.15625 4.08203-0.0390625 4.26758-0.585938L5.52734-4.0332L11.2891-4.0332L12.5488-0.585938C12.7344-0.0390625 12.9883 0.15625 13.4961 0.15625C14.0137 0.15625 14.3457-0.15625 14.3457-0.644531C14.3457-0.810547 14.3164-0.966797 14.2383-1.17188L9.6582-13.3691C9.43359-13.9648 9.0332-14.2676 8.4082-14.2676C7.80273-14.2676 7.39258-13.9746 7.17773-13.3789L2.59766-1.16211C2.51953-0.957031 2.49023-0.800781 2.49023-0.634766C2.49023-0.146484 2.80273 0.15625 3.31055 0.15625ZM6.00586-5.51758L8.37891-12.0898L8.42773-12.0898L10.8008-5.51758Z"/>
  </g>
  <line style="fill:none;stroke:#00AEEF;stroke-width:0.5;opacity:1.0;" x1="793.197" x2="793.197" y1="1919" y2="1933"/>
  <text style="stroke:none;fill:black;font-family:sans-serif;font-size:13;font-weight:bold;" transform="matrix(1 0 0 1 776 1953)">Margins</text>
  <text style="stroke:none;fill:black;font-family:sans-serif;font-size:13;" transform="matrix(1 0 0 1 776 1971)">Leading and trailing margins on the left and right side of each symbol</text>
  <text style="stroke:none;fill:black;font-family:sans-serif;font-size:13;" transform="matrix(1 0 0 1 776 1989)">can be adjusted by modifying the x-location of the margin guidelines.</text>
  <text style="stroke:none;fill:black;font-family:sans-serif;font-size:13;" transform="matrix(1 0 0 1 776 2007)">Modifications are automatically applied proportionally to all</text>
  <text style="stroke:none;fill:black;font-family:sans-serif;font-size:13;" transform="matrix(1 0 0 1 776 2025)">scales and weights.</text>
  <g transform="matrix(1 0 0 1 1289 1933)">
   <path d="M2.8418 1.86523L4.54102 3.57422C5.40039 4.44336 6.38672 4.38477 7.31445 3.35938L18.0078-8.42773L17.041-9.4043L6.42578 2.27539C6.07422 2.67578 5.74219 2.77344 5.27344 2.30469L4.10156 1.14258C3.63281 0.683594 3.74023 0.341797 4.14062-0.0195312L15.6152-10.8203L14.6387-11.7871L3.04688-0.898438C2.06055 0.0195312 1.98242 0.996094 2.8418 1.86523ZM9.25781-16.3281C8.83789-15.918 8.80859-15.3418 9.04297-14.9512C9.27734-14.5898 9.73633-14.3555 10.3809-14.5215C11.8457-14.8633 13.3691-14.9219 14.7949-13.9844L14.209-12.5293C13.8672-11.6992 14.043-11.1133 14.5801-10.5664L16.875-8.25195C17.3633-7.76367 17.7734-7.74414 18.3398-7.8418L19.4043-8.03711L20.0684-7.36328L20.0293-6.80664C19.9902-6.30859 20.1172-5.92773 20.6055-5.44922L21.3672-4.70703C21.8457-4.22852 22.4609-4.19922 22.9297-4.66797L25.8398-7.58789C26.3086-8.05664 26.2891-8.65234 25.8105-9.13086L25.0391-9.89258C24.5605-10.3711 24.1895-10.5273 23.7109-10.4883L23.1348-10.4395L22.4902-11.0742L22.7344-12.1973C22.8613-12.7637 22.7051-13.2031 22.1191-13.7891L19.9219-15.9766C16.582-19.2969 12.1484-19.2188 9.25781-16.3281ZM10.752-15.957C13.1836-17.7344 16.4746-17.4316 18.7012-15.2051L21.1328-12.793C21.3672-12.5586 21.4062-12.373 21.3379-12.0312L21.0156-10.5469L22.5195-9.0625L23.5059-9.12109C23.7598-9.13086 23.8379-9.11133 24.0332-8.91602L24.6094-8.33984L22.168-5.89844L21.5918-6.47461C21.3965-6.66992 21.3672-6.74805 21.377-7.01172L21.4453-7.98828L19.9512-9.47266L18.4277-9.21875C18.1055-9.15039 17.959-9.17969 17.7148-9.41406L15.7129-11.416C15.459-11.6504 15.4297-11.8164 15.5859-12.1875L16.4648-14.2773C14.9023-15.7324 12.8711-16.3574 10.8398-15.7617C10.6836-15.7227 10.625-15.8496 10.752-15.957Z"/>
  </g>
  <text style="stroke:none;fill:black;font-family:sans-serif;font-size:13;font-weight:bold;" transform="matrix(1 0 0 1 1289 1953)">Exporting</text>
  <text style="stroke:none;fill:black;font-family:sans-serif;font-size:13;" transform="matrix(1 0 0 1 1289 1971)">Symbols should be outlined when exporting to ensure the</text>
  <text style="stroke:none;fill:black;font-family:sans-serif;font-size:13;" transform="matrix(1 0 0 1 1289 1989)">design is preserved when submitting to Xcode.</text>
  <text id="template-version" style="stroke:none;fill:black;font-family:sans-serif;font-size:13;text-anchor:end;" transform="matrix(1 0 0 1 3036 1933)">Template v.4.0</text>
  <text style="stroke:none;fill:black;font-family:sans-serif;font-size:13;text-anchor:end;" transform="matrix(1 0 0 1 3036 1951)">Requires Xcode 14 or greater</text>
  <text id="descriptive-name" style="stroke:none;fill:black;font-family:sans-serif;font-size:13;text-anchor:end;" transform="matrix(1 0 0 1 3036 1969)">Generated from lightbulb.2</text>
  <text style="stroke:none;fill:black;font-family:sans-serif;font-size:13;text-anchor:end;" transform="matrix(1 0 0 1 3036 1987)">Typeset at 100 points</text>
  <text style="stroke:none;fill:black;font-family:sans-serif;font-size:13;" transform="matrix(1 0 0 1 263 726)">Small</text>
  <text style="stroke:none;fill:black;font-family:sans-serif;font-size:13;" transform="matrix(1 0 0 1 263 1156)">Medium</text>
  <text style="stroke:none;fill:black;font-family:sans-serif;font-size:13;" transform="matrix(1 0 0 1 263 1586)">Large</text>
 </g>
 <g id="Guides">
  <g id="H-reference" style="fill:#27AAE1;stroke:none;" transform="matrix(1 0 0 1 339 696)">
   <path d="M0.993654 0L3.63775 0L29.3281-67.1323L30.0303-67.1323L30.0303-70.459L28.1226-70.459ZM11.6885-24.4799L46.9815-24.4799L46.2315-26.7285L12.4385-26.7285ZM55.1196 0L57.7637 0L30.6382-70.459L29.4326-70.459L29.4326-67.1323Z"/>
  </g>
  <line id="Baseline-S" style="fill:none;stroke:#27AAE1;opacity:1;stroke-width:0.5;" x1="263" x2="3036" y1="696" y2="696"/>
  <line id="Capline-S" style="fill:none;stroke:#27AAE1;opacity:1;stroke-width:0.5;" x1="263" x2="3036" y1="625.541" y2="625.541"/>
  <g id="H-reference" style="fill:#27AAE1;stroke:none;" transform="matrix(1 0 0 1 339 1126)">
   <path d="M0.993654 0L3.63775 0L29.3281-67.1323L30.0303-67.1323L30.0303-70.459L28.1226-70.459ZM11.6885-24.4799L46.9815-24.4799L46.2315-26.7285L12.4385-26.7285ZM55.1196 0L57.7637 0L30.6382-70.459L29.4326-70.459L29.4326-67.1323Z"/>
  </g>
  <line id="Baseline-M" style="fill:none;stroke:#27AAE1;opacity:1;stroke-width:0.5;" x1="263" x2="3036" y1="1126" y2="1126"/>
  <line id="Capline-M" style="fill:none;stroke:#27AAE1;opacity:1;stroke-width:0.5;" x1="263" x2="3036" y1="1055.54" y2="1055.54"/>
  <g id="H-reference" style="fill:#27AAE1;stroke:none;" transform="matrix(1 0 0 1 339 1556)">
   <path d="M0.993654 0L3.63775 0L29.3281-67.1323L30.0303-67.1323L30.0303-70.459L28.1226-70.459ZM11.6885-24.4799L46.9815-24.4799L46.2315-26.7285L12.4385-26.7285ZM55.1196 0L57.7637 0L30.6382-70.459L29.4326-70.459L29.4326-67.1323Z"/>
  </g>
  <line id="Baseline-L" style="fill:none;stroke:#27AAE1;opacity:1;stroke-width:0.5;" x1="263" x2="3036" y1="1556" y2="1556"/>
  <line id="Capline-L" style="fill:none;stroke:#27AAE1;opacity:1;stroke-width:0.5;" x1="263" x2="3036" y1="1485.54" y2="1485.54"/>
  <line id="left-margin-Ultralight-S" style="fill:none;stroke:#00AEEF;stroke-width:0.5;opacity:1.0;" x1="515.088" x2="515.088" y1="600.785" y2="720.121"/>
  <line id="right-margin-Ultralight-S" style="fill:none;stroke:#00AEEF;stroke-width:0.5;opacity:1.0;" x1="604.334" x2="604.334" y1="600.785" y2="720.121"/>
  <line id="left-margin-Regular-S" style="fill:none;stroke:#00AEEF;stroke-width:0.5;opacity:1.0;" x1="1400.11" x2="1400.11" y1="600.785" y2="720.121"/>
  <line id="right-margin-Regular-S" style="fill:none;stroke:#00AEEF;stroke-width:0.5;opacity:1.0;" x1="1499.58" x2="1499.58" y1="600.785" y2="720.121"/>
  <line id="left-margin-Black-S" style="fill:none;stroke:#00AEEF;stroke-width:0.5;opacity:1.0;" x1="2878.88" x2="2878.88" y1="600.785" y2="720.121"/>
  <line id="right-margin-Black-S" style="fill:none;stroke:#00AEEF;stroke-width:0.5;opacity:1.0;" x1="2987.92" x2="2987.92" y1="600.785" y2="720.121"/>
 </g>
 <g id="Symbols">
  <g id="Black-S" transform="matrix(1 0 0 1 2878.88 696)">
   <path class="monochrome-0 multicolor-0:tintColor hierarchical-0:secondary SFSymbolsPreview007AFF" d="M23.4375-14.4531L42.9688-14.4531C46.3867-14.4531 48.7793-16.5039 48.9746-19.9707C49.9512-33.3984 53.8086-39.7461 55.6641-46.9238L47.4609-53.9062C47.0703-48.0957 41.6992-45.0684 39.6973-24.5117L26.709-24.5117C24.6094-45.9473 19.873-48.3398 19.873-54.6387C19.873-61.7188 25.9277-66.3574 33.2031-66.3574C40.1855-66.3574 46.9238-62.1094 47.4609-55.5176L55.127-62.5977C51.709-70.9961 43.0664-76.4648 33.2031-76.4648C20.459-76.4648 9.76562-67.334 9.76562-54.6387C9.76562-43.1641 16.1133-37.8418 17.4316-19.9707C17.627-16.5039 20.0195-14.4531 23.4375-14.4531ZM22.5586-4.19922L43.8477-4.19922C45.6543-4.19922 47.0703-5.71289 47.0703-7.37305C47.0703-9.0332 45.6543-10.5469 43.8477-10.5469L22.5586-10.5469C20.752-10.5469 19.3359-9.0332 19.3359-7.37305C19.3359-5.71289 20.752-4.19922 22.5586-4.19922ZM33.2031 6.73828C38.9648 6.73828 42.9688 3.95508 43.1641-0.292969L23.0469-0.292969C23.3398 3.95508 27.4414 6.73828 33.2031 6.73828Z"/>
   <path class="monochrome-1 multicolor-1:tintColor hierarchical-1:primary SFSymbolsPreview007AFF" d="M73.2422-80.9082C59.1309-80.9082 47.2656-70.8008 47.2656-56.7383C47.2656-44.043 54.2969-38.1348 55.7617-18.3105C56.0059-14.502 58.6426-12.207 62.4023-12.207L84.082-12.207C87.793-12.207 90.4297-14.502 90.7715-18.3105C92.1875-38.1348 99.2676-44.043 99.2676-56.6895C99.2676-70.752 87.3535-80.9082 73.2422-80.9082ZM73.2422-69.7266C81.2988-69.6777 88.0859-64.5996 88.0859-56.7383C88.0859-49.7559 82.8125-47.1191 80.4199-23.3398L66.0645-23.3398C63.7207-47.1191 58.4473-49.7559 58.4473-56.7383C58.4473-64.5996 65.1855-69.7266 73.2422-69.7266ZM73.2422 10.4004C79.6387 10.4004 84.0332 7.32422 84.2773 2.63672L62.0117 2.63672C62.3047 7.32422 66.8457 10.4004 73.2422 10.4004ZM61.4258-1.26953L85.0586-1.26953C87.0605-1.26953 88.623-2.97852 88.623-4.78516C88.623-6.64062 87.0605-8.30078 85.0586-8.30078L61.4258-8.30078C59.4238-8.30078 57.8613-6.64062 57.8613-4.78516C57.8613-2.97852 59.4238-1.26953 61.4258-1.26953Z"/>
  </g>
  <g id="Regular-S" transform="matrix(1 0 0 1 1400.11 696)">
   <path class="monochrome-0 multicolor-0:tintColor hierarchical-0:secondary SFSymbolsPreview007AFF" d="M21.3379-14.5996L40.9668-14.5996C42.4316-14.5996 43.2129-15.5762 43.3105-16.8457C44.2871-26.8555 46.6309-32.5684 48.6816-37.3535L44.7754-44.7266C42.9199-40.1855 39.8438-34.8145 37.793-20.6543L24.5605-20.6543C21.4355-42.2852 15.8691-43.5547 15.8691-52.3438C15.8691-60.4492 22.8027-66.1133 31.1523-66.1133C36.1328-66.1133 40.625-64.0625 43.3594-60.7422L46.1426-66.6504C42.334-70.1172 37.0117-72.2168 31.1523-72.2168C19.2383-72.2168 9.76562-63.5742 9.76562-52.3438C9.76562-39.8438 16.9922-36.9629 19.043-16.8457C19.1406-15.5762 19.873-14.5996 21.3379-14.5996ZM21.1426-6.93359L41.2109-6.93359C42.4805-6.93359 43.6035-7.91016 43.6035-9.22852C43.6035-10.5469 42.4805-11.5723 41.2109-11.5723L21.1426-11.5723C19.8242-11.5723 18.8477-10.498 18.8477-9.22852C18.8477-7.91016 19.8242-6.93359 21.1426-6.93359ZM31.2012 2.92969C36.3281 2.92969 40.8691 0.195312 40.918-3.90625L21.4844-3.90625C21.5332 0.195312 26.0254 2.92969 31.2012 2.92969Z"/>
   <path class="monochrome-1 multicolor-1:tintColor hierarchical-1:primary SFSymbolsPreview007AFF" d="M65.0391-77.9297C51.2695-77.9297 40.4297-68.0664 40.4297-55.1758C40.4297-40.8203 48.8281-37.5488 51.2207-13.8672C51.3672-12.4512 52.0996-11.5234 53.5645-11.5234L76.5137-11.5234C77.9785-11.5234 78.7109-12.4512 78.8574-13.8672C81.25-37.5488 89.6973-40.8203 89.6973-55.1758C89.6973-68.0664 78.8086-77.9297 65.0391-77.9297ZM65.0391-71.5332C74.9023-71.5332 83.3008-64.8438 83.3008-55.1758C83.3008-44.9219 76.6113-42.9688 73.0957-17.9199L56.9824-17.9199C53.4668-42.9688 46.8262-44.9219 46.8262-55.1758C46.8262-64.8438 55.1758-71.5332 65.0391-71.5332ZM65.0391 7.4707C70.752 7.4707 75.6836 4.54102 75.9766 0.244141L54.1016 0.244141C54.3457 4.54102 59.2773 7.4707 65.0391 7.4707ZM53.3691-3.32031L76.709-3.32031C78.0762-3.32031 79.1016-4.29688 79.1016-5.66406C79.1016-6.98242 78.0762-8.00781 76.709-8.00781L53.3691-8.00781C52.002-8.00781 51.0254-6.98242 51.0254-5.66406C51.0254-4.29688 52.002-3.32031 53.3691-3.32031Z"/>
  </g>
  <g id="Ultralight-S" transform="matrix(1 0 0 1 515.088 696)">
   <path class="monochrome-0 multicolor-0:tintColor hierarchical-0:secondary SFSymbolsPreview007AFF" d="M19.8394-14.7358L37.7881-14.7358C39.0259-14.7358 39.4893-15.3037 39.5869-16.2554C40.1548-23.4497 41.3179-28.6177 42.5967-32.7217L41.3697-36.1895C39.8775-31.7847 38.3452-25.9595 37.5205-16.8853L20.1558-16.8853C18.166-38.9248 11.9185-42.147 11.9185-51.0723C11.9185-59.541 19.5786-66.5674 28.8364-66.5674C32.6817-66.5674 36.3111-65.334 39.1363-63.2397L40.2847-65.061C37.1573-67.3472 33.1519-68.7202 28.8364-68.7202C18.2393-68.7202 9.76562-60.3955 9.76562-51.0723C9.76562-40.9336 16.4019-37.3716 18.0894-16.2554C18.187-15.3037 18.6016-14.7358 19.8394-14.7358ZM20.189-9.34031L37.5782-9.34031C38.3482-9.34031 39.0171-9.99901 39.0171-10.8179C39.0171-11.6367 38.3482-12.2534 37.5782-12.2534L20.189-12.2534C19.4155-12.2534 18.7568-11.6333 18.7568-10.8179C18.7568-9.99901 19.4155-9.34031 20.189-9.34031ZM28.8853-1.15719C33.6035-1.15719 37.0093-3.52829 37.1035-6.85789L20.667-6.85789C20.7612-3.52829 24.1182-1.15719 28.8853-1.15719Z"/>
   <path class="monochrome-1 multicolor-1:tintColor hierarchical-1:primary SFSymbolsPreview007AFF" d="M57.4102-74.1153C45.0938-74.1153 35.3438-64.5244 35.3438-53.7227C35.3438-42.001 43.0611-37.8667 45.045-13.0952C45.146-12.0425 45.6514-11.5234 46.9346-11.5234L67.9312-11.5234C69.2144-11.5234 69.7198-12.0425 69.8209-13.0952C71.7594-37.8667 79.4801-42.001 79.4801-53.7227C79.4801-64.5244 69.772-74.1153 57.4102-74.1153ZM57.4102-71.9419C68.2725-71.9419 77.3975-63.6177 77.3975-53.7227C77.3975-43.3325 69.9815-39.336 67.6919-13.6968L47.1285-13.6968C44.8843-39.336 37.5172-43.3325 37.5172-53.7227C37.5172-63.6177 46.5933-71.9419 57.4102-71.9419ZM57.4556 3.70169C62.8052 3.70169 66.6925 1.13528 66.8946-2.57127L48.0621-2.57127C48.2608 1.13528 52.148 3.70169 57.4556 3.70169ZM47.3296-5.54539L67.627-5.54539C68.4493-5.54539 69.1114-6.20409 69.1114-7.07177C69.1114-7.89062 68.4493-8.55273 67.627-8.55273L47.3296-8.55273C46.462-8.55273 45.8487-7.89062 45.8487-7.07177C45.8487-6.20409 46.462-5.54539 47.3296-5.54539Z"/>
  </g>
 </g>
</svg>
