<?xml version="1.0" encoding="UTF-8"?>
<!--Generator: Apple Native CoreSVG 175.5-->
<!DOCTYPE svg
PUBLIC "-//W3C//DTD SVG 1.1//EN"
       "http://www.w3.org/Graphics/SVG/1.1/DTD/svg11.dtd">
<svg version="1.1" xmlns="http://www.w3.org/2000/svg" xmlns:xlink="http://www.w3.org/1999/xlink" width="3300" height="2200">
 <!--glyph: "uni101540.medium", point size: 100.0, font version: "18.0d11e1", template writer version: "90"-->
 <style>.monochrome-0 {fill:#000000}

.SFSymbolsPreview000000 {fill:#000000;opacity:1.0}
</style>
 <g id="Notes">
  <rect height="2200" id="artboard" style="fill:white;opacity:1" width="3300" x="0" y="0"/>
  <line style="fill:none;stroke:black;opacity:1;stroke-width:0.5;" x1="263" x2="3036" y1="292" y2="292"/>
  <text style="stroke:none;fill:black;font-family:sans-serif;font-size:13;font-weight:bold;" transform="matrix(1 0 0 1 263 322)">Weight/Scale Variations</text>
  <text style="stroke:none;fill:black;font-family:sans-serif;font-size:13;text-anchor:middle;" transform="matrix(1 0 0 1 559.711 322)">Ultralight</text>
  <text style="stroke:none;fill:black;font-family:sans-serif;font-size:13;text-anchor:middle;" transform="matrix(1 0 0 1 856.422 322)">Thin</text>
  <text style="stroke:none;fill:black;font-family:sans-serif;font-size:13;text-anchor:middle;" transform="matrix(1 0 0 1 1153.13 322)">Light</text>
  <text style="stroke:none;fill:black;font-family:sans-serif;font-size:13;text-anchor:middle;" transform="matrix(1 0 0 1 1449.84 322)">Regular</text>
  <text style="stroke:none;fill:black;font-family:sans-serif;font-size:13;text-anchor:middle;" transform="matrix(1 0 0 1 1746.56 322)">Medium</text>
  <text style="stroke:none;fill:black;font-family:sans-serif;font-size:13;text-anchor:middle;" transform="matrix(1 0 0 1 2043.27 322)">Semibold</text>
  <text style="stroke:none;fill:black;font-family:sans-serif;font-size:13;text-anchor:middle;" transform="matrix(1 0 0 1 2339.98 322)">Bold</text>
  <text style="stroke:none;fill:black;font-family:sans-serif;font-size:13;text-anchor:middle;" transform="matrix(1 0 0 1 2636.69 322)">Heavy</text>
  <text style="stroke:none;fill:black;font-family:sans-serif;font-size:13;text-anchor:middle;" transform="matrix(1 0 0 1 2933.4 322)">Black</text>
  <line style="fill:none;stroke:black;opacity:1;stroke-width:0.5;" x1="263" x2="3036" y1="1903" y2="1903"/>
  <g transform="matrix(1 0 0 1 263 1933)">
   <path d="M9.24805 0.830078C13.5547 0.830078 17.1387-2.74414 17.1387-7.05078C17.1387-11.3574 13.5449-14.9316 9.23828-14.9316C4.94141-14.9316 1.36719-11.3574 1.36719-7.05078C1.36719-2.74414 4.95117 0.830078 9.24805 0.830078ZM9.24805-0.654297C5.70312-0.654297 2.87109-3.49609 2.87109-7.05078C2.87109-10.6055 5.69336-13.4473 9.23828-13.4473C12.793-13.4473 15.6445-10.6055 15.6445-7.05078C15.6445-3.49609 12.8027-0.654297 9.24805-0.654297ZM5.6543-7.05078C5.6543-6.62109 5.95703-6.32812 6.40625-6.32812L8.50586-6.32812L8.50586-4.20898C8.50586-3.76953 8.79883-3.4668 9.22852-3.4668C9.67773-3.4668 9.9707-3.76953 9.9707-4.20898L9.9707-6.32812L12.0898-6.32812C12.5293-6.32812 12.832-6.62109 12.832-7.05078C12.832-7.49023 12.5293-7.79297 12.0898-7.79297L9.9707-7.79297L9.9707-9.90234C9.9707-10.3516 9.67773-10.6543 9.22852-10.6543C8.79883-10.6543 8.50586-10.3516 8.50586-9.90234L8.50586-7.79297L6.40625-7.79297C5.95703-7.79297 5.6543-7.49023 5.6543-7.05078Z"/>
  </g>
  <g transform="matrix(1 0 0 1 281.867 1933)">
   <path d="M11.709 2.91016C17.1582 2.91016 21.6699-1.61133 21.6699-7.05078C21.6699-12.5 17.1484-17.0117 11.6992-17.0117C6.25977-17.0117 1.74805-12.5 1.74805-7.05078C1.74805-1.61133 6.26953 2.91016 11.709 2.91016ZM11.709 1.25C7.09961 1.25 3.41797-2.44141 3.41797-7.05078C3.41797-11.6602 7.08984-15.3516 11.6992-15.3516C16.3086-15.3516 20.0098-11.6602 20.0098-7.05078C20.0098-2.44141 16.3184 1.25 11.709 1.25ZM7.17773-7.05078C7.17773-6.57227 7.50977-6.25 8.00781-6.25L10.8789-6.25L10.8789-3.36914C10.8789-2.88086 11.2109-2.53906 11.6895-2.53906C12.1777-2.53906 12.5195-2.87109 12.5195-3.36914L12.5195-6.25L15.4004-6.25C15.8887-6.25 16.2305-6.57227 16.2305-7.05078C16.2305-7.53906 15.8887-7.88086 15.4004-7.88086L12.5195-7.88086L12.5195-10.752C12.5195-11.25 12.1777-11.5918 11.6895-11.5918C11.2109-11.5918 10.8789-11.25 10.8789-10.752L10.8789-7.88086L8.00781-7.88086C7.50977-7.88086 7.17773-7.53906 7.17773-7.05078Z"/>
  </g>
  <g transform="matrix(1 0 0 1 305.646 1933)">
   <path d="M14.9707 5.66406C21.9336 5.66406 27.6953-0.0976562 27.6953-7.05078C27.6953-14.0137 21.9238-19.7754 14.9609-19.7754C8.00781-19.7754 2.25586-14.0137 2.25586-7.05078C2.25586-0.0976562 8.01758 5.66406 14.9707 5.66406ZM14.9707 3.84766C8.93555 3.84766 4.08203-1.01562 4.08203-7.05078C4.08203-13.0957 8.92578-17.9492 14.9609-17.9492C21.0059-17.9492 25.8691-13.0957 25.8691-7.05078C25.8691-1.01562 21.0156 3.84766 14.9707 3.84766ZM9.19922-7.05078C9.19922-6.5332 9.57031-6.17188 10.1172-6.17188L14.0625-6.17188L14.0625-2.2168C14.0625-1.67969 14.4336-1.29883 14.9512-1.29883C15.4883-1.29883 15.8594-1.66992 15.8594-2.2168L15.8594-6.17188L19.8145-6.17188C20.3516-6.17188 20.7324-6.5332 20.7324-7.05078C20.7324-7.59766 20.3613-7.96875 19.8145-7.96875L15.8594-7.96875L15.8594-11.9141C15.8594-12.4609 15.4883-12.8418 14.9512-12.8418C14.4336-12.8418 14.0625-12.4609 14.0625-11.9141L14.0625-7.96875L10.1172-7.96875C9.57031-7.96875 9.19922-7.59766 9.19922-7.05078Z"/>
  </g>
  <text style="stroke:none;fill:black;font-family:sans-serif;font-size:13;font-weight:bold;" transform="matrix(1 0 0 1 263 1953)">Design Variations</text>
  <text style="stroke:none;fill:black;font-family:sans-serif;font-size:13;" transform="matrix(1 0 0 1 263 1971)">Symbols are supported in up to nine weights and three scales.</text>
  <text style="stroke:none;fill:black;font-family:sans-serif;font-size:13;" transform="matrix(1 0 0 1 263 1989)">For optimal layout with text and other symbols, vertically align</text>
  <text style="stroke:none;fill:black;font-family:sans-serif;font-size:13;" transform="matrix(1 0 0 1 263 2007)">symbols with the adjacent text.</text>
  <line style="fill:none;stroke:#00AEEF;stroke-width:0.5;opacity:1.0;" x1="776" x2="776" y1="1919" y2="1933"/>
  <g transform="matrix(1 0 0 1 776 1933)">
   <path d="M3.31055 0.15625C3.82812 0.15625 4.08203-0.0390625 4.26758-0.585938L5.52734-4.0332L11.2891-4.0332L12.5488-0.585938C12.7344-0.0390625 12.9883 0.15625 13.4961 0.15625C14.0137 0.15625 14.3457-0.15625 14.3457-0.644531C14.3457-0.810547 14.3164-0.966797 14.2383-1.17188L9.6582-13.3691C9.43359-13.9648 9.0332-14.2676 8.4082-14.2676C7.80273-14.2676 7.39258-13.9746 7.17773-13.3789L2.59766-1.16211C2.51953-0.957031 2.49023-0.800781 2.49023-0.634766C2.49023-0.146484 2.80273 0.15625 3.31055 0.15625ZM6.00586-5.51758L8.37891-12.0898L8.42773-12.0898L10.8008-5.51758Z"/>
  </g>
  <line style="fill:none;stroke:#00AEEF;stroke-width:0.5;opacity:1.0;" x1="793.197" x2="793.197" y1="1919" y2="1933"/>
  <text style="stroke:none;fill:black;font-family:sans-serif;font-size:13;font-weight:bold;" transform="matrix(1 0 0 1 776 1953)">Margins</text>
  <text style="stroke:none;fill:black;font-family:sans-serif;font-size:13;" transform="matrix(1 0 0 1 776 1971)">Leading and trailing margins on the left and right side of each symbol</text>
  <text style="stroke:none;fill:black;font-family:sans-serif;font-size:13;" transform="matrix(1 0 0 1 776 1989)">can be adjusted by modifying the x-location of the margin guidelines.</text>
  <text style="stroke:none;fill:black;font-family:sans-serif;font-size:13;" transform="matrix(1 0 0 1 776 2007)">Modifications are automatically applied proportionally to all</text>
  <text style="stroke:none;fill:black;font-family:sans-serif;font-size:13;" transform="matrix(1 0 0 1 776 2025)">scales and weights.</text>
  <g transform="matrix(1 0 0 1 1289 1933)">
   <path d="M2.8418 1.86523L4.54102 3.57422C5.40039 4.44336 6.38672 4.38477 7.31445 3.35938L18.0078-8.42773L17.041-9.4043L6.42578 2.27539C6.07422 2.67578 5.74219 2.77344 5.27344 2.30469L4.10156 1.14258C3.63281 0.683594 3.74023 0.341797 4.14062-0.0195312L15.6152-10.8203L14.6387-11.7871L3.04688-0.898438C2.06055 0.0195312 1.98242 0.996094 2.8418 1.86523ZM9.25781-16.3281C8.83789-15.918 8.80859-15.3418 9.04297-14.9512C9.27734-14.5898 9.73633-14.3555 10.3809-14.5215C11.8457-14.8633 13.3691-14.9219 14.7949-13.9844L14.209-12.5293C13.8672-11.6992 14.043-11.1133 14.5801-10.5664L16.875-8.25195C17.3633-7.76367 17.7734-7.74414 18.3398-7.8418L19.4043-8.03711L20.0684-7.36328L20.0293-6.80664C19.9902-6.30859 20.1172-5.92773 20.6055-5.44922L21.3672-4.70703C21.8457-4.22852 22.4609-4.19922 22.9297-4.66797L25.8398-7.58789C26.3086-8.05664 26.2891-8.65234 25.8105-9.13086L25.0391-9.89258C24.5605-10.3711 24.1895-10.5273 23.7109-10.4883L23.1348-10.4395L22.4902-11.0742L22.7344-12.1973C22.8613-12.7637 22.7051-13.2031 22.1191-13.7891L19.9219-15.9766C16.582-19.2969 12.1484-19.2188 9.25781-16.3281ZM10.752-15.957C13.1836-17.7344 16.4746-17.4316 18.7012-15.2051L21.1328-12.793C21.3672-12.5586 21.4062-12.373 21.3379-12.0312L21.0156-10.5469L22.5195-9.0625L23.5059-9.12109C23.7598-9.13086 23.8379-9.11133 24.0332-8.91602L24.6094-8.33984L22.168-5.89844L21.5918-6.47461C21.3965-6.66992 21.3672-6.74805 21.377-7.01172L21.4453-7.98828L19.9512-9.47266L18.4277-9.21875C18.1055-9.15039 17.959-9.17969 17.7148-9.41406L15.7129-11.416C15.459-11.6504 15.4297-11.8164 15.5859-12.1875L16.4648-14.2773C14.9023-15.7324 12.8711-16.3574 10.8398-15.7617C10.6836-15.7227 10.625-15.8496 10.752-15.957Z"/>
  </g>
  <text style="stroke:none;fill:black;font-family:sans-serif;font-size:13;font-weight:bold;" transform="matrix(1 0 0 1 1289 1953)">Exporting</text>
  <text style="stroke:none;fill:black;font-family:sans-serif;font-size:13;" transform="matrix(1 0 0 1 1289 1971)">Symbols should be outlined when exporting to ensure the</text>
  <text style="stroke:none;fill:black;font-family:sans-serif;font-size:13;" transform="matrix(1 0 0 1 1289 1989)">design is preserved when submitting to Xcode.</text>
  <text id="template-version" style="stroke:none;fill:black;font-family:sans-serif;font-size:13;text-anchor:end;" transform="matrix(1 0 0 1 3036 1933)">Template v.4.0</text>
  <text style="stroke:none;fill:black;font-family:sans-serif;font-size:13;text-anchor:end;" transform="matrix(1 0 0 1 3036 1951)">Requires Xcode 14 or greater</text>
  <text id="descriptive-name" style="stroke:none;fill:black;font-family:sans-serif;font-size:13;text-anchor:end;" transform="matrix(1 0 0 1 3036 1969)">Generated from figure.socialdance</text>
  <text style="stroke:none;fill:black;font-family:sans-serif;font-size:13;text-anchor:end;" transform="matrix(1 0 0 1 3036 1987)">Typeset at 100 points</text>
  <text style="stroke:none;fill:black;font-family:sans-serif;font-size:13;" transform="matrix(1 0 0 1 263 726)">Small</text>
  <text style="stroke:none;fill:black;font-family:sans-serif;font-size:13;" transform="matrix(1 0 0 1 263 1156)">Medium</text>
  <text style="stroke:none;fill:black;font-family:sans-serif;font-size:13;" transform="matrix(1 0 0 1 263 1586)">Large</text>
 </g>
 <g id="Guides">
  <g id="H-reference" style="fill:#27AAE1;stroke:none;" transform="matrix(1 0 0 1 339 696)">
   <path d="M0.993654 0L3.63775 0L29.3281-67.1323L30.0303-67.1323L30.0303-70.459L28.1226-70.459ZM11.6885-24.4799L46.9815-24.4799L46.2315-26.7285L12.4385-26.7285ZM55.1196 0L57.7637 0L30.6382-70.459L29.4326-70.459L29.4326-67.1323Z"/>
  </g>
  <line id="Baseline-S" style="fill:none;stroke:#27AAE1;opacity:1;stroke-width:0.5;" x1="263" x2="3036" y1="696" y2="696"/>
  <line id="Capline-S" style="fill:none;stroke:#27AAE1;opacity:1;stroke-width:0.5;" x1="263" x2="3036" y1="625.541" y2="625.541"/>
  <g id="H-reference" style="fill:#27AAE1;stroke:none;" transform="matrix(1 0 0 1 339 1126)">
   <path d="M0.993654 0L3.63775 0L29.3281-67.1323L30.0303-67.1323L30.0303-70.459L28.1226-70.459ZM11.6885-24.4799L46.9815-24.4799L46.2315-26.7285L12.4385-26.7285ZM55.1196 0L57.7637 0L30.6382-70.459L29.4326-70.459L29.4326-67.1323Z"/>
  </g>
  <line id="Baseline-M" style="fill:none;stroke:#27AAE1;opacity:1;stroke-width:0.5;" x1="263" x2="3036" y1="1126" y2="1126"/>
  <line id="Capline-M" style="fill:none;stroke:#27AAE1;opacity:1;stroke-width:0.5;" x1="263" x2="3036" y1="1055.54" y2="1055.54"/>
  <g id="H-reference" style="fill:#27AAE1;stroke:none;" transform="matrix(1 0 0 1 339 1556)">
   <path d="M0.993654 0L3.63775 0L29.3281-67.1323L30.0303-67.1323L30.0303-70.459L28.1226-70.459ZM11.6885-24.4799L46.9815-24.4799L46.2315-26.7285L12.4385-26.7285ZM55.1196 0L57.7637 0L30.6382-70.459L29.4326-70.459L29.4326-67.1323Z"/>
  </g>
  <line id="Baseline-L" style="fill:none;stroke:#27AAE1;opacity:1;stroke-width:0.5;" x1="263" x2="3036" y1="1556" y2="1556"/>
  <line id="Capline-L" style="fill:none;stroke:#27AAE1;opacity:1;stroke-width:0.5;" x1="263" x2="3036" y1="1485.54" y2="1485.54"/>
  <line id="left-margin-Ultralight-S" style="fill:none;stroke:#00AEEF;stroke-width:0.5;opacity:1.0;" x1="506.284" x2="506.284" y1="600.785" y2="720.121"/>
  <line id="right-margin-Ultralight-S" style="fill:none;stroke:#00AEEF;stroke-width:0.5;opacity:1.0;" x1="613.138" x2="613.138" y1="600.785" y2="720.121"/>
  <line id="left-margin-Regular-S" style="fill:none;stroke:#00AEEF;stroke-width:0.5;opacity:1.0;" x1="1392.08" x2="1392.08" y1="600.785" y2="720.121"/>
  <line id="right-margin-Regular-S" style="fill:none;stroke:#00AEEF;stroke-width:0.5;opacity:1.0;" x1="1507.61" x2="1507.61" y1="600.785" y2="720.121"/>
  <line id="left-margin-Black-S" style="fill:none;stroke:#00AEEF;stroke-width:0.5;opacity:1.0;" x1="2871.24" x2="2871.24" y1="600.785" y2="720.121"/>
  <line id="right-margin-Black-S" style="fill:none;stroke:#00AEEF;stroke-width:0.5;opacity:1.0;" x1="2995.56" x2="2995.56" y1="600.785" y2="720.121"/>
 </g>
 <g id="Symbols">
  <g id="Black-S" transform="matrix(1 0 0 1 2871.24 696)">
   <path class="monochrome-0 SFSymbolsPreview000000" d="M14.5996-50.0488L22.7051-49.4141C23.0469-49.3652 23.1934-49.1699 23.1934-48.7793L23.1934-33.6426C23.1934-30.3711 24.2676-27.002 26.2695-24.4629L36.0352-11.9629L31.0547 4.58984C30.2246 7.37305 31.8359 10.3027 34.5215 11.0352C37.1094 11.8164 40.0879 10.5469 40.9668 7.56836L46.2402-10.2051C46.2891-10.3516 46.3379-10.5469 46.3867-10.6934L60.6445 7.42188C62.4023 9.61914 65.7715 10.0098 67.9199 8.20312C70.1172 6.39648 70.5566 3.22266 68.7988 1.02539L41.3086-33.7891L42.5293-45.6543C42.5781-45.9961 42.8223-46.0449 43.0664-45.8984L52.4414-41.2109C53.1738-40.8203 54.541-40.4785 55.6641-40.4785L72.9492-40.4785C74.0723-40.4785 75.3906-40.918 76.2695-41.6992L83.0078-47.6074C83.252-47.8516 83.5449-47.7539 83.6426-47.4609L87.207-37.6953L71.582-33.3496C69.4824-32.7637 67.9688-31.0547 67.7246-28.8574L66.0645-12.6953C65.7227-9.27734 68.6523-7.08008 71.1914-7.08008C73.8281-7.08008 76.0254-9.0332 76.3184-11.7188L77.6367-23.9258L86.7188-25.293L81.9336-15.7715C81.25-14.4043 80.8594-12.7441 81.4941-11.1816L89.1602 8.00781C90.2832 10.8887 93.457 11.8652 95.8984 10.8887C98.4863 9.86328 99.8535 6.83594 98.7793 4.15039L92.1387-12.4023L101.221-25.3418C103.76-28.9551 104.736-33.5449 103.955-37.793L102.539-45.6543C102.49-45.9961 102.734-46.2402 103.125-46.0938L107.715-44.5312C111.67-43.1641 114.893-45.8008 114.502-49.8047L112.549-69.1406C112.256-71.9727 109.668-74.0723 106.885-73.7793C104.102-73.4863 101.953-70.8496 102.246-68.0664L103.369-56.8359L93.2617-60.2051C88.2812-61.8652 82.8613-60.9375 78.7109-57.373L71.0449-50.7812L56.3477-50.7812L44.1406-56.8848C42.1875-57.8613 40.1855-58.4473 37.9883-58.5938L21.875-59.8145L25.5371-70.752C26.4648-73.4863 25-76.4648 22.2656-77.3438C19.6289-78.1738 16.6504-76.7578 15.7715-74.0723L10.0098-56.8359C8.93555-53.6133 11.2305-50.293 14.5996-50.0488ZM88.1348-63.7695C93.2617-63.7695 97.4121-67.9688 97.4121-73.0469C97.4121-78.1738 93.2617-82.3242 88.1348-82.3242C83.0566-82.3242 78.8574-78.1738 78.8574-73.0469C78.8574-67.9688 83.0566-63.7695 88.1348-63.7695ZM38.916-62.1582C44.043-62.1582 48.1934-66.3574 48.1934-71.4355C48.1934-76.5625 44.043-80.7129 38.916-80.7129C33.8379-80.7129 29.6387-76.5625 29.6387-71.4355C29.6387-66.3574 33.8379-62.1582 38.916-62.1582Z"/>
  </g>
  <g id="Regular-S" transform="matrix(1 0 0 1 1392.08 696)">
   <path class="monochrome-0 SFSymbolsPreview000000" d="M13.5254-51.0742L21.7773-50.4395C22.2656-50.3906 22.6562-50 22.6562-49.4629L22.6562-34.4727C22.6562-31.4941 23.6328-28.5645 25.4395-26.2695L35.0586-13.916L30.127 2.39258C29.4922 4.54102 30.7129 6.83594 32.8125 7.42188C34.8633 8.00781 37.1094 7.03125 37.793 4.6875L43.3105-13.623C43.4082-13.9648 43.457-14.2578 43.457-14.5996L58.3008 4.19922C59.668 5.9082 62.2559 6.25 63.8672 4.88281C65.625 3.41797 65.918 0.976562 64.5508-0.732422L38.0371-34.3262L39.2578-46.2402C39.3555-47.0703 40.1367-47.5098 40.8691-47.1191L50.0977-42.5293C50.7324-42.1875 51.8555-41.9434 52.7832-41.9434L66.9434-41.9434C67.8711-41.9434 68.8477-42.2852 69.5312-42.8711L76.2207-48.6328C76.9043-49.2188 77.7344-48.9258 78.0273-48.1445L81.7871-37.6465L65.8691-33.3008C64.2578-32.8613 63.0371-31.4941 62.8906-29.7852L61.1328-11.4746C60.8887-8.88672 63.1348-7.12891 65.0879-7.12891C67.1387-7.12891 68.8965-8.64258 69.0918-10.6934L70.6055-25.9766L81.7383-27.6855L76.416-16.9434C75.8301-15.7715 75.5371-14.502 76.0254-13.2812L83.3496 5.0293C84.2773 7.27539 86.6699 8.05664 88.5742 7.27539C90.5762 6.44531 91.6016 4.10156 90.7715 2.05078L84.2285-14.2578L93.2617-27.0996C95.5566-30.2734 96.3867-34.4238 95.7031-38.2324L94.2871-45.9961C94.0918-46.9727 94.9219-47.6562 95.8984-47.3145L100.488-45.8008C103.662-44.7266 106.055-46.6309 105.762-49.8047L103.906-68.3105C103.711-70.5078 101.66-72.168 99.5605-71.9238C97.3633-71.6797 95.752-69.6777 95.9473-67.4805L97.168-55.3223L86.1328-58.9844C81.5918-60.498 76.8066-59.668 73.0469-56.4453L65.4785-49.9023L53.2227-49.9023L41.3574-55.8105C39.5508-56.7383 37.793-57.2266 35.791-57.373L19.1895-58.6426L23.0957-70.2637C23.8281-72.4121 22.6562-74.6582 20.5566-75.3418C18.457-76.0254 16.2109-74.9023 15.5273-72.8516L9.96094-56.3477C9.13086-53.9062 10.8887-51.2695 13.5254-51.0742ZM82.959-62.5488C87.3535-62.5488 90.9668-66.1621 90.9668-70.5566C90.9668-75 87.3535-78.6133 82.959-78.6133C78.5156-78.6133 74.9512-75 74.9512-70.5566C74.9512-66.1621 78.5156-62.5488 82.959-62.5488ZM35.8398-60.8398C40.2832-60.8398 43.8477-64.4531 43.8477-68.8477C43.8477-73.291 40.2832-76.8555 35.8398-76.8555C31.3965-76.8555 27.832-73.291 27.832-68.8477C27.832-64.4531 31.3965-60.8398 35.8398-60.8398Z"/>
  </g>
  <g id="Ultralight-S" transform="matrix(1 0 0 1 506.284 696)">
   <path class="monochrome-0 SFSymbolsPreview000000" d="M13.1621-49.3941L20.3696-48.8047C21.1304-48.7559 21.4756-48.4107 21.4756-47.6011L21.4756-34.291C21.4756-31.585 22.3613-28.9277 24.0317-26.8144L32.7881-15.5962L28.3106-0.786108C27.7212 1.18069 28.8511 3.24856 30.7236 3.78909C32.5928 4.28421 34.6118 3.39847 35.25 1.28177L40.2681-15.3486C40.3657-15.645 40.4146-15.938 40.4146-16.2344L53.9414 0.838894C55.127 2.41165 57.4878 2.70804 58.9629 1.47708C60.5845 0.148463 60.8775-2.06589 59.6011-3.63865L35.4942-34.1445L36.5786-44.9688C36.6763-45.7534 37.3667-46.1475 38.0537-45.8023L46.4649-41.6665C47.0542-41.3701 48.041-41.126 48.878-41.126L61.7666-41.126C62.6036-41.126 63.4893-41.4224 64.1275-41.9629L70.2266-47.1797C70.8648-47.7202 71.6041-47.4273 71.8516-46.7368L75.3389-37.2378L60.7832-33.2554C59.3536-32.8613 58.2237-31.585 58.0772-30.0576L56.4556-13.3818C56.2115-11.021 58.3213-9.3994 60.0928-9.3994C61.962-9.3994 63.5381-10.7768 63.7334-12.6914L65.1109-26.5669L75.2901-28.0942L70.4219-18.3511C69.8814-17.3154 69.5884-16.1367 70.0313-15.0522L76.6744 1.62356C77.4659 3.64261 79.7222 4.33304 81.4449 3.64261C83.2652 2.90335 84.1998 0.741237 83.4605-1.03709L77.5079-15.938L85.7237-27.5537C87.7916-30.5005 88.5762-34.2422 87.938-37.7329L86.6583-44.7246C86.5084-45.6558 87.2476-46.294 88.1334-45.9976L92.3145-44.5747C95.2159-43.5913 97.336-45.3594 97.043-48.2608L95.4146-65.041C95.1739-67.5108 93.3048-68.5806 91.4776-68.4273C89.5982-68.274 87.8961-66.8169 88.1368-64.3018L89.2667-53.2334L79.2305-56.6231C75.1436-58.0005 70.7671-57.2158 67.3707-54.3111L60.438-48.313L49.272-48.313L38.4966-53.7217C36.8716-54.5586 35.25-55.0015 33.4751-55.148L18.3267-56.2813L21.8696-66.8125C22.5112-68.7793 21.4756-70.8438 19.603-71.482C17.6851-72.1201 15.6206-71.0879 14.9824-69.1734L9.96094-54.2134C9.22168-51.9536 10.8433-49.5894 13.1621-49.3941ZM75.8751-60.2783C79.9517-60.2783 83.2471-63.6192 83.2471-67.6504C83.2471-71.6851 79.9517-74.9805 75.8751-74.9805C71.795-74.9805 68.5484-71.6851 68.5484-67.6504C68.5484-63.6192 71.795-60.2783 75.8751-60.2783ZM33.9326-59.0235C38.0127-59.0235 41.2593-62.3643 41.2593-66.3955C41.2593-70.4756 38.0127-73.7676 33.9326-73.7676C29.8526-73.7676 26.5606-70.4756 26.5606-66.3955C26.5606-62.3643 29.8526-59.0235 33.9326-59.0235Z"/>
  </g>
 </g>
</svg>
