<?xml version="1.0" encoding="UTF-8"?>
<!--Generator: Apple Native CoreSVG 175.5-->
<!DOCTYPE svg
PUBLIC "-//W3C//DTD SVG 1.1//EN"
       "http://www.w3.org/Graphics/SVG/1.1/DTD/svg11.dtd">
<svg version="1.1" xmlns="http://www.w3.org/2000/svg" xmlns:xlink="http://www.w3.org/1999/xlink" width="3300" height="2200">
 <!--glyph: "uni101592.medium", point size: 100.0, font version: "18.0d11e1", template writer version: "90"-->
 <style>.monochrome-0 {fill:#000000}
.monochrome-1 {fill:#000000}

.hierarchical-0:secondary {fill:#4D4D4D}
.hierarchical-1:primary {fill:#212121}

.SFSymbolsPreview212121 {fill:#212121;opacity:1.0}
.SFSymbolsPreview4D4D4D {fill:#4D4D4D;opacity:1.0}
</style>
 <g id="Notes">
  <rect height="2200" id="artboard" style="fill:white;opacity:1" width="3300" x="0" y="0"/>
  <line style="fill:none;stroke:black;opacity:1;stroke-width:0.5;" x1="263" x2="3036" y1="292" y2="292"/>
  <text style="stroke:none;fill:black;font-family:sans-serif;font-size:13;font-weight:bold;" transform="matrix(1 0 0 1 263 322)">Weight/Scale Variations</text>
  <text style="stroke:none;fill:black;font-family:sans-serif;font-size:13;text-anchor:middle;" transform="matrix(1 0 0 1 559.711 322)">Ultralight</text>
  <text style="stroke:none;fill:black;font-family:sans-serif;font-size:13;text-anchor:middle;" transform="matrix(1 0 0 1 856.422 322)">Thin</text>
  <text style="stroke:none;fill:black;font-family:sans-serif;font-size:13;text-anchor:middle;" transform="matrix(1 0 0 1 1153.13 322)">Light</text>
  <text style="stroke:none;fill:black;font-family:sans-serif;font-size:13;text-anchor:middle;" transform="matrix(1 0 0 1 1449.84 322)">Regular</text>
  <text style="stroke:none;fill:black;font-family:sans-serif;font-size:13;text-anchor:middle;" transform="matrix(1 0 0 1 1746.56 322)">Medium</text>
  <text style="stroke:none;fill:black;font-family:sans-serif;font-size:13;text-anchor:middle;" transform="matrix(1 0 0 1 2043.27 322)">Semibold</text>
  <text style="stroke:none;fill:black;font-family:sans-serif;font-size:13;text-anchor:middle;" transform="matrix(1 0 0 1 2339.98 322)">Bold</text>
  <text style="stroke:none;fill:black;font-family:sans-serif;font-size:13;text-anchor:middle;" transform="matrix(1 0 0 1 2636.69 322)">Heavy</text>
  <text style="stroke:none;fill:black;font-family:sans-serif;font-size:13;text-anchor:middle;" transform="matrix(1 0 0 1 2933.4 322)">Black</text>
  <line style="fill:none;stroke:black;opacity:1;stroke-width:0.5;" x1="263" x2="3036" y1="1903" y2="1903"/>
  <g transform="matrix(1 0 0 1 263 1933)">
   <path d="M9.24805 0.830078C13.5547 0.830078 17.1387-2.74414 17.1387-7.05078C17.1387-11.3574 13.5449-14.9316 9.23828-14.9316C4.94141-14.9316 1.36719-11.3574 1.36719-7.05078C1.36719-2.74414 4.95117 0.830078 9.24805 0.830078ZM9.24805-0.654297C5.70312-0.654297 2.87109-3.49609 2.87109-7.05078C2.87109-10.6055 5.69336-13.4473 9.23828-13.4473C12.793-13.4473 15.6445-10.6055 15.6445-7.05078C15.6445-3.49609 12.8027-0.654297 9.24805-0.654297ZM5.6543-7.05078C5.6543-6.62109 5.95703-6.32812 6.40625-6.32812L8.50586-6.32812L8.50586-4.20898C8.50586-3.76953 8.79883-3.4668 9.22852-3.4668C9.67773-3.4668 9.9707-3.76953 9.9707-4.20898L9.9707-6.32812L12.0898-6.32812C12.5293-6.32812 12.832-6.62109 12.832-7.05078C12.832-7.49023 12.5293-7.79297 12.0898-7.79297L9.9707-7.79297L9.9707-9.90234C9.9707-10.3516 9.67773-10.6543 9.22852-10.6543C8.79883-10.6543 8.50586-10.3516 8.50586-9.90234L8.50586-7.79297L6.40625-7.79297C5.95703-7.79297 5.6543-7.49023 5.6543-7.05078Z"/>
  </g>
  <g transform="matrix(1 0 0 1 281.867 1933)">
   <path d="M11.709 2.91016C17.1582 2.91016 21.6699-1.61133 21.6699-7.05078C21.6699-12.5 17.1484-17.0117 11.6992-17.0117C6.25977-17.0117 1.74805-12.5 1.74805-7.05078C1.74805-1.61133 6.26953 2.91016 11.709 2.91016ZM11.709 1.25C7.09961 1.25 3.41797-2.44141 3.41797-7.05078C3.41797-11.6602 7.08984-15.3516 11.6992-15.3516C16.3086-15.3516 20.0098-11.6602 20.0098-7.05078C20.0098-2.44141 16.3184 1.25 11.709 1.25ZM7.17773-7.05078C7.17773-6.57227 7.50977-6.25 8.00781-6.25L10.8789-6.25L10.8789-3.36914C10.8789-2.88086 11.2109-2.53906 11.6895-2.53906C12.1777-2.53906 12.5195-2.87109 12.5195-3.36914L12.5195-6.25L15.4004-6.25C15.8887-6.25 16.2305-6.57227 16.2305-7.05078C16.2305-7.53906 15.8887-7.88086 15.4004-7.88086L12.5195-7.88086L12.5195-10.752C12.5195-11.25 12.1777-11.5918 11.6895-11.5918C11.2109-11.5918 10.8789-11.25 10.8789-10.752L10.8789-7.88086L8.00781-7.88086C7.50977-7.88086 7.17773-7.53906 7.17773-7.05078Z"/>
  </g>
  <g transform="matrix(1 0 0 1 305.646 1933)">
   <path d="M14.9707 5.66406C21.9336 5.66406 27.6953-0.0976562 27.6953-7.05078C27.6953-14.0137 21.9238-19.7754 14.9609-19.7754C8.00781-19.7754 2.25586-14.0137 2.25586-7.05078C2.25586-0.0976562 8.01758 5.66406 14.9707 5.66406ZM14.9707 3.84766C8.93555 3.84766 4.08203-1.01562 4.08203-7.05078C4.08203-13.0957 8.92578-17.9492 14.9609-17.9492C21.0059-17.9492 25.8691-13.0957 25.8691-7.05078C25.8691-1.01562 21.0156 3.84766 14.9707 3.84766ZM9.19922-7.05078C9.19922-6.5332 9.57031-6.17188 10.1172-6.17188L14.0625-6.17188L14.0625-2.2168C14.0625-1.67969 14.4336-1.29883 14.9512-1.29883C15.4883-1.29883 15.8594-1.66992 15.8594-2.2168L15.8594-6.17188L19.8145-6.17188C20.3516-6.17188 20.7324-6.5332 20.7324-7.05078C20.7324-7.59766 20.3613-7.96875 19.8145-7.96875L15.8594-7.96875L15.8594-11.9141C15.8594-12.4609 15.4883-12.8418 14.9512-12.8418C14.4336-12.8418 14.0625-12.4609 14.0625-11.9141L14.0625-7.96875L10.1172-7.96875C9.57031-7.96875 9.19922-7.59766 9.19922-7.05078Z"/>
  </g>
  <text style="stroke:none;fill:black;font-family:sans-serif;font-size:13;font-weight:bold;" transform="matrix(1 0 0 1 263 1953)">Design Variations</text>
  <text style="stroke:none;fill:black;font-family:sans-serif;font-size:13;" transform="matrix(1 0 0 1 263 1971)">Symbols are supported in up to nine weights and three scales.</text>
  <text style="stroke:none;fill:black;font-family:sans-serif;font-size:13;" transform="matrix(1 0 0 1 263 1989)">For optimal layout with text and other symbols, vertically align</text>
  <text style="stroke:none;fill:black;font-family:sans-serif;font-size:13;" transform="matrix(1 0 0 1 263 2007)">symbols with the adjacent text.</text>
  <line style="fill:none;stroke:#00AEEF;stroke-width:0.5;opacity:1.0;" x1="776" x2="776" y1="1919" y2="1933"/>
  <g transform="matrix(1 0 0 1 776 1933)">
   <path d="M3.31055 0.15625C3.82812 0.15625 4.08203-0.0390625 4.26758-0.585938L5.52734-4.0332L11.2891-4.0332L12.5488-0.585938C12.7344-0.0390625 12.9883 0.15625 13.4961 0.15625C14.0137 0.15625 14.3457-0.15625 14.3457-0.644531C14.3457-0.810547 14.3164-0.966797 14.2383-1.17188L9.6582-13.3691C9.43359-13.9648 9.0332-14.2676 8.4082-14.2676C7.80273-14.2676 7.39258-13.9746 7.17773-13.3789L2.59766-1.16211C2.51953-0.957031 2.49023-0.800781 2.49023-0.634766C2.49023-0.146484 2.80273 0.15625 3.31055 0.15625ZM6.00586-5.51758L8.37891-12.0898L8.42773-12.0898L10.8008-5.51758Z"/>
  </g>
  <line style="fill:none;stroke:#00AEEF;stroke-width:0.5;opacity:1.0;" x1="793.197" x2="793.197" y1="1919" y2="1933"/>
  <text style="stroke:none;fill:black;font-family:sans-serif;font-size:13;font-weight:bold;" transform="matrix(1 0 0 1 776 1953)">Margins</text>
  <text style="stroke:none;fill:black;font-family:sans-serif;font-size:13;" transform="matrix(1 0 0 1 776 1971)">Leading and trailing margins on the left and right side of each symbol</text>
  <text style="stroke:none;fill:black;font-family:sans-serif;font-size:13;" transform="matrix(1 0 0 1 776 1989)">can be adjusted by modifying the x-location of the margin guidelines.</text>
  <text style="stroke:none;fill:black;font-family:sans-serif;font-size:13;" transform="matrix(1 0 0 1 776 2007)">Modifications are automatically applied proportionally to all</text>
  <text style="stroke:none;fill:black;font-family:sans-serif;font-size:13;" transform="matrix(1 0 0 1 776 2025)">scales and weights.</text>
  <g transform="matrix(1 0 0 1 1289 1933)">
   <path d="M2.8418 1.86523L4.54102 3.57422C5.40039 4.44336 6.38672 4.38477 7.31445 3.35938L18.0078-8.42773L17.041-9.4043L6.42578 2.27539C6.07422 2.67578 5.74219 2.77344 5.27344 2.30469L4.10156 1.14258C3.63281 0.683594 3.74023 0.341797 4.14062-0.0195312L15.6152-10.8203L14.6387-11.7871L3.04688-0.898438C2.06055 0.0195312 1.98242 0.996094 2.8418 1.86523ZM9.25781-16.3281C8.83789-15.918 8.80859-15.3418 9.04297-14.9512C9.27734-14.5898 9.73633-14.3555 10.3809-14.5215C11.8457-14.8633 13.3691-14.9219 14.7949-13.9844L14.209-12.5293C13.8672-11.6992 14.043-11.1133 14.5801-10.5664L16.875-8.25195C17.3633-7.76367 17.7734-7.74414 18.3398-7.8418L19.4043-8.03711L20.0684-7.36328L20.0293-6.80664C19.9902-6.30859 20.1172-5.92773 20.6055-5.44922L21.3672-4.70703C21.8457-4.22852 22.4609-4.19922 22.9297-4.66797L25.8398-7.58789C26.3086-8.05664 26.2891-8.65234 25.8105-9.13086L25.0391-9.89258C24.5605-10.3711 24.1895-10.5273 23.7109-10.4883L23.1348-10.4395L22.4902-11.0742L22.7344-12.1973C22.8613-12.7637 22.7051-13.2031 22.1191-13.7891L19.9219-15.9766C16.582-19.2969 12.1484-19.2188 9.25781-16.3281ZM10.752-15.957C13.1836-17.7344 16.4746-17.4316 18.7012-15.2051L21.1328-12.793C21.3672-12.5586 21.4062-12.373 21.3379-12.0312L21.0156-10.5469L22.5195-9.0625L23.5059-9.12109C23.7598-9.13086 23.8379-9.11133 24.0332-8.91602L24.6094-8.33984L22.168-5.89844L21.5918-6.47461C21.3965-6.66992 21.3672-6.74805 21.377-7.01172L21.4453-7.98828L19.9512-9.47266L18.4277-9.21875C18.1055-9.15039 17.959-9.17969 17.7148-9.41406L15.7129-11.416C15.459-11.6504 15.4297-11.8164 15.5859-12.1875L16.4648-14.2773C14.9023-15.7324 12.8711-16.3574 10.8398-15.7617C10.6836-15.7227 10.625-15.8496 10.752-15.957Z"/>
  </g>
  <text style="stroke:none;fill:black;font-family:sans-serif;font-size:13;font-weight:bold;" transform="matrix(1 0 0 1 1289 1953)">Exporting</text>
  <text style="stroke:none;fill:black;font-family:sans-serif;font-size:13;" transform="matrix(1 0 0 1 1289 1971)">Symbols should be outlined when exporting to ensure the</text>
  <text style="stroke:none;fill:black;font-family:sans-serif;font-size:13;" transform="matrix(1 0 0 1 1289 1989)">design is preserved when submitting to Xcode.</text>
  <text id="template-version" style="stroke:none;fill:black;font-family:sans-serif;font-size:13;text-anchor:end;" transform="matrix(1 0 0 1 3036 1933)">Template v.4.0</text>
  <text style="stroke:none;fill:black;font-family:sans-serif;font-size:13;text-anchor:end;" transform="matrix(1 0 0 1 3036 1951)">Requires Xcode 14 or greater</text>
  <text id="descriptive-name" style="stroke:none;fill:black;font-family:sans-serif;font-size:13;text-anchor:end;" transform="matrix(1 0 0 1 3036 1969)">Generated from dryer</text>
  <text style="stroke:none;fill:black;font-family:sans-serif;font-size:13;text-anchor:end;" transform="matrix(1 0 0 1 3036 1987)">Typeset at 100 points</text>
  <text style="stroke:none;fill:black;font-family:sans-serif;font-size:13;" transform="matrix(1 0 0 1 263 726)">Small</text>
  <text style="stroke:none;fill:black;font-family:sans-serif;font-size:13;" transform="matrix(1 0 0 1 263 1156)">Medium</text>
  <text style="stroke:none;fill:black;font-family:sans-serif;font-size:13;" transform="matrix(1 0 0 1 263 1586)">Large</text>
 </g>
 <g id="Guides">
  <g id="H-reference" style="fill:#27AAE1;stroke:none;" transform="matrix(1 0 0 1 339 696)">
   <path d="M0.993654 0L3.63775 0L29.3281-67.1323L30.0303-67.1323L30.0303-70.459L28.1226-70.459ZM11.6885-24.4799L46.9815-24.4799L46.2315-26.7285L12.4385-26.7285ZM55.1196 0L57.7637 0L30.6382-70.459L29.4326-70.459L29.4326-67.1323Z"/>
  </g>
  <line id="Baseline-S" style="fill:none;stroke:#27AAE1;opacity:1;stroke-width:0.5;" x1="263" x2="3036" y1="696" y2="696"/>
  <line id="Capline-S" style="fill:none;stroke:#27AAE1;opacity:1;stroke-width:0.5;" x1="263" x2="3036" y1="625.541" y2="625.541"/>
  <g id="H-reference" style="fill:#27AAE1;stroke:none;" transform="matrix(1 0 0 1 339 1126)">
   <path d="M0.993654 0L3.63775 0L29.3281-67.1323L30.0303-67.1323L30.0303-70.459L28.1226-70.459ZM11.6885-24.4799L46.9815-24.4799L46.2315-26.7285L12.4385-26.7285ZM55.1196 0L57.7637 0L30.6382-70.459L29.4326-70.459L29.4326-67.1323Z"/>
  </g>
  <line id="Baseline-M" style="fill:none;stroke:#27AAE1;opacity:1;stroke-width:0.5;" x1="263" x2="3036" y1="1126" y2="1126"/>
  <line id="Capline-M" style="fill:none;stroke:#27AAE1;opacity:1;stroke-width:0.5;" x1="263" x2="3036" y1="1055.54" y2="1055.54"/>
  <g id="H-reference" style="fill:#27AAE1;stroke:none;" transform="matrix(1 0 0 1 339 1556)">
   <path d="M0.993654 0L3.63775 0L29.3281-67.1323L30.0303-67.1323L30.0303-70.459L28.1226-70.459ZM11.6885-24.4799L46.9815-24.4799L46.2315-26.7285L12.4385-26.7285ZM55.1196 0L57.7637 0L30.6382-70.459L29.4326-70.459L29.4326-67.1323Z"/>
  </g>
  <line id="Baseline-L" style="fill:none;stroke:#27AAE1;opacity:1;stroke-width:0.5;" x1="263" x2="3036" y1="1556" y2="1556"/>
  <line id="Capline-L" style="fill:none;stroke:#27AAE1;opacity:1;stroke-width:0.5;" x1="263" x2="3036" y1="1485.54" y2="1485.54"/>
  <line id="left-margin-Ultralight-S" style="fill:none;stroke:#00AEEF;stroke-width:0.5;opacity:1.0;" x1="519.829" x2="519.829" y1="600.785" y2="720.121"/>
  <line id="right-margin-Ultralight-S" style="fill:none;stroke:#00AEEF;stroke-width:0.5;opacity:1.0;" x1="599.593" x2="599.593" y1="600.785" y2="720.121"/>
  <line id="left-margin-Regular-S" style="fill:none;stroke:#00AEEF;stroke-width:0.5;opacity:1.0;" x1="1406.22" x2="1406.22" y1="600.785" y2="720.121"/>
  <line id="right-margin-Regular-S" style="fill:none;stroke:#00AEEF;stroke-width:0.5;opacity:1.0;" x1="1493.47" x2="1493.47" y1="600.785" y2="720.121"/>
  <line id="left-margin-Black-S" style="fill:none;stroke:#00AEEF;stroke-width:0.5;opacity:1.0;" x1="2884.13" x2="2884.13" y1="600.785" y2="720.121"/>
  <line id="right-margin-Black-S" style="fill:none;stroke:#00AEEF;stroke-width:0.5;opacity:1.0;" x1="2982.67" x2="2982.67" y1="600.785" y2="720.121"/>
 </g>
 <g id="Symbols">
  <g id="Black-S" transform="matrix(1 0 0 1 2884.13 696)">
   <path class="monochrome-0 hierarchical-0:secondary SFSymbolsPreview4D4D4D" d="M22.2168 11.3281L50.1465 11.3281C50.1465 7.56836 52.002 6.78711 52.002 4.73633C52.002 3.36914 51.5137 1.9043 49.1211-1.36719L24.0723-1.36719C23.1445-1.36719 22.5098-2.00195 22.5098-2.92969L22.5098-67.5781C22.5098-68.5059 23.1445-69.1406 24.0723-69.1406L74.4629-69.1406C75.3906-69.1406 76.0254-68.5059 76.0254-67.5781L76.0254-28.1738C78.9551-33.2031 84.4727-34.375 88.7695-32.1777L88.7695-69.1406C88.7695-76.5625 83.6426-81.8359 76.3184-81.8359L22.2168-81.8359C14.8926-81.8359 9.76562-76.5625 9.76562-69.1406L9.76562-1.36719C9.76562 6.05469 14.8926 11.3281 22.2168 11.3281ZM34.668-6.25L46.582-6.25C45.752-8.30078 45.0195-10.6934 44.6777-13.5742L37.9883-13.5742C37.4512-13.5742 37.0117-14.0137 37.0117-14.5508L37.0117-33.0078C37.0117-33.5449 37.4512-33.9844 37.9883-33.9844L60.5469-33.9844C61.084-33.9844 61.5234-33.5449 61.5234-33.0078L61.5234-27.9785C63.3789-31.3477 66.0645-32.8613 68.8477-33.2031L68.8477-36.3281C68.8477-39.209 66.748-41.3086 63.8672-41.3086L34.668-41.3086C31.7871-41.3086 29.6875-39.209 29.6875-36.3281L29.6875-11.2305C29.6875-8.34961 31.7871-6.25 34.668-6.25ZM17.7246-46.1914L80.7617-46.1914L80.7617-54.0039L17.7246-54.0039ZM59.5215-58.5938L67.4316-58.5938C69.3359-58.5938 70.752-59.9609 70.752-61.8652C70.752-63.7695 69.3359-65.1367 67.4316-65.1367L59.5215-65.1367C57.6172-65.1367 56.2012-63.7695 56.2012-61.8652C56.2012-59.9609 57.6172-58.5938 59.5215-58.5938ZM31.8359-56.9824C34.4727-56.9824 36.6699-59.1797 36.6699-61.8164C36.6699-64.4531 34.4727-66.6504 31.8359-66.6504C29.1992-66.6504 27.002-64.4531 27.002-61.8164C27.002-59.1797 29.1992-56.9824 31.8359-56.9824ZM44.5312-56.9824C47.168-56.9824 49.3652-59.1797 49.3652-61.8164C49.3652-64.4531 47.168-66.6504 44.5312-66.6504C41.8945-66.6504 39.6973-64.4531 39.6973-61.8164C39.6973-59.1797 41.8945-56.9824 44.5312-56.9824Z"/>
   <path class="monochrome-1 hierarchical-1:primary SFSymbolsPreview212121" d="M71.875 14.0625C73.4863 15.2344 75.9277 15.1367 77.2461 12.7441C78.7109 10.3516 79.4922 7.51953 79.4922 4.73633C79.4922-5.37109 71.9238-10.0098 71.9238-17.3828C71.9238-18.9941 72.2168-20.3125 73.2422-22.1191C74.4141-24.1211 73.5352-25.8789 72.0703-26.7578C70.459-27.7832 68.1152-27.6855 66.8457-25.4395C65.3809-22.998 64.6484-20.2148 64.6484-17.3828C64.6484-7.32422 72.168-2.73438 72.168 4.73633C72.168 6.34766 71.875 7.56836 70.8496 9.42383C69.7266 11.4258 70.5078 13.1348 71.875 14.0625ZM57.5684 14.0625C59.1797 15.2344 61.6211 15.1367 62.9395 12.7441C64.4043 10.3516 65.1855 7.51953 65.1855 4.73633C65.1855-5.37109 57.6172-10.0098 57.6172-17.3828C57.6172-18.9941 57.9102-20.3125 58.9355-22.1191C60.1074-24.1211 59.2285-25.8789 57.7637-26.7578C56.1523-27.7832 53.8086-27.6855 52.5391-25.4395C51.0742-22.998 50.3418-20.2148 50.3418-17.3828C50.3418-7.32422 57.8613-2.73438 57.8613 4.73633C57.8613 6.34766 57.5684 7.56836 56.543 9.42383C55.4199 11.4258 56.2012 13.1348 57.5684 14.0625ZM86.2793 14.0625C87.8906 15.2344 90.332 15.1367 91.6504 12.7441C93.1152 10.3516 93.8965 7.51953 93.8965 4.73633C93.8965-5.37109 86.3281-10.0098 86.3281-17.3828C86.3281-18.9941 86.6211-20.3125 87.6465-22.1191C88.8184-24.1211 87.9395-25.8789 86.4746-26.7578C84.8633-27.7832 82.5195-27.6855 81.25-25.4395C79.7852-22.998 79.0527-20.2148 79.0527-17.3828C79.0527-7.32422 86.5723-2.73438 86.5723 4.73633C86.5723 6.34766 86.2793 7.56836 85.2539 9.42383C84.1309 11.4258 84.9121 13.1348 86.2793 14.0625Z"/>
  </g>
  <g id="Regular-S" transform="matrix(1 0 0 1 1406.22 696)">
   <path class="monochrome-0 hierarchical-0:secondary SFSymbolsPreview4D4D4D" d="M19.0918 5.71289L46.9727 5.71289C47.1191 3.75977 48.4375 2.68555 48.4375 1.02539C48.4375 0.341797 48.0469-0.390625 47.4121-1.31836L19.4336-1.31836C17.8711-1.31836 16.7969-2.39258 16.7969-3.90625L16.7969-66.6016C16.7969-68.1152 17.8711-69.1895 19.4336-69.1895L67.8223-69.1895C69.3848-69.1895 70.459-68.1152 70.459-66.6016L70.459-29.9316C72.5586-31.25 75.1465-31.5918 77.4902-30.957L77.4902-66.6504C77.4902-72.4121 73.7305-76.2207 68.1641-76.2207L19.0918-76.2207C13.5254-76.2207 9.76562-72.4121 9.76562-66.6504L9.76562-3.85742C9.76562 1.9043 13.5254 5.71289 19.0918 5.71289ZM28.4668-7.56836L44.0918-7.56836C43.5547-8.93555 43.0664-10.498 42.7734-12.3047L29.2969-12.3047C28.6621-12.3047 28.1738-12.7441 28.1738-13.3789L28.1738-38.1348C28.1738-38.7695 28.6621-39.2578 29.2969-39.2578L57.959-39.2578C58.5938-39.2578 59.082-38.7695 59.082-38.1348L59.082-29.834C60.498-30.7617 62.1582-31.25 63.8184-31.2012L63.8184-38.9648C63.8184-41.8945 61.7188-43.9941 58.7891-43.9941L28.4668-43.9941C25.5371-43.9941 23.4375-41.8945 23.4375-38.9648L23.4375-12.5488C23.4375-9.66797 25.5371-7.56836 28.4668-7.56836ZM13.6719-50.1953L73.6328-50.1953L73.6328-55.8594L13.6719-55.8594ZM54.9316-60.3516L63.7695-60.3516C65.0391-60.3516 65.8691-61.2305 65.8691-62.5C65.8691-63.7695 65.0391-64.6484 63.7695-64.6484L54.9316-64.6484C53.6621-64.6484 52.832-63.7695 52.832-62.5C52.832-61.2305 53.6621-60.3516 54.9316-60.3516ZM24.7559-59.1309C26.6113-59.1309 28.125-60.6445 28.125-62.5C28.125-64.3555 26.6113-65.8691 24.7559-65.8691C22.9004-65.8691 21.3867-64.3555 21.3867-62.5C21.3867-60.6445 22.9004-59.1309 24.7559-59.1309ZM34.5215-59.1309C36.377-59.1309 37.8906-60.6445 37.8906-62.5C37.8906-64.3555 36.377-65.8691 34.5215-65.8691C32.666-65.8691 31.1523-64.3555 31.1523-62.5C31.1523-60.6445 32.666-59.1309 34.5215-59.1309Z"/>
   <path class="monochrome-1 hierarchical-1:primary SFSymbolsPreview212121" d="M65.2344 8.88672C66.6016 9.76562 68.7012 9.66797 69.7266 7.76367C70.8496 5.76172 71.5332 3.36914 71.5332 1.12305C71.5332-7.27539 65.2344-11.2305 65.2344-17.2363C65.2344-18.6035 65.4785-19.6289 66.3574-21.1914C67.334-22.7539 66.5527-24.4141 65.3809-25.0488C64.1602-25.8789 62.1094-25.7324 61.0352-23.9258C59.9121-21.9238 59.3262-19.5801 59.3262-17.2363C59.3262-8.88672 65.5273-5.0293 65.5273 1.12305C65.5273 2.49023 65.332 3.4668 64.4043 5.0293C63.4766 6.5918 64.209 8.1543 65.2344 8.88672ZM53.9062 8.88672C55.1758 9.76562 57.2266 9.76562 58.3984 7.8125C59.4727 5.81055 60.1562 3.36914 60.1562 1.12305C60.1562-7.22656 53.9062-11.1816 53.9062-17.1875C53.9062-18.6035 54.1504-19.6289 55.0781-21.1914C55.957-22.7051 55.2734-24.3652 54.1016-25.0488C52.8809-25.8789 50.7812-25.7324 49.7559-23.877C48.584-21.9238 47.9492-19.5312 47.9492-17.1875C47.9492-8.88672 54.1992-4.98047 54.1992 1.12305C54.1992 2.53906 53.9551 3.51562 53.0273 5.07812C52.1484 6.5918 52.8809 8.20312 53.9062 8.88672ZM76.6113 8.83789C77.9297 9.7168 80.0293 9.61914 81.0547 7.71484C82.1777 5.71289 82.8613 3.36914 82.8613 1.07422C82.8613-7.32422 76.5625-11.2305 76.5625-17.2852C76.5625-18.6523 76.8555-19.6777 77.7344-21.2402C78.6621-22.8027 77.9297-24.4629 76.7578-25.0977C75.4883-25.9277 73.4375-25.7812 72.4121-23.9746C71.2891-21.9727 70.6543-19.5801 70.6543-17.2852C70.6543-8.93555 76.9043-5.07812 76.9043 1.07422C76.9043 2.44141 76.6602 3.41797 75.7324 4.98047C74.8535 6.54297 75.5371 8.10547 76.6113 8.83789Z"/>
  </g>
  <g id="Ultralight-S" transform="matrix(1 0 0 1 519.829 696)">
   <path class="monochrome-0 hierarchical-0:secondary SFSymbolsPreview4D4D4D" d="M16.5034 1.39896L48.1533 1.39896C48.2998 0.989768 48.4829 0.687516 48.6191 0.344244C48.8008-0.0668913 48.9097-0.436035 49.0015-0.818852L16.4365-0.818852C13.7388-0.818852 11.9834-2.80127 11.9834-5.85887L11.9834-64.6489C11.9834-67.7065 13.7388-69.689 16.4365-69.689L63.3721-69.689C66.0244-69.689 67.8252-67.7065 67.8252-64.6489L67.8252-32.8379C68.5625-32.9756 69.2886-32.8633 69.9976-32.5464L69.9976-64.5615C69.9976-68.961 67.3277-71.9068 63.3052-71.9068L16.5034-71.9068C12.4356-71.9068 9.76562-68.961 9.76562-64.5615L9.76562-5.94627C9.76562-1.54685 12.4356 1.39896 16.5034 1.39896ZM26.605-8.97606L47.3159-8.97606C46.9604-9.61669 46.563-10.3164 46.1792-11.0332L26.6631-11.0332C24.439-11.0332 23.2242-12.3355 23.2242-14.6504L23.2242-37.9531C23.2242-40.2681 24.439-41.5283 26.6631-41.5283L53.1455-41.5283C55.3242-41.5283 56.5845-40.2681 56.5845-37.9531L56.5845-32.5586C57.2285-32.8506 57.9351-32.9756 58.6871-32.9267L58.6871-38.0112C58.6871-41.5767 56.6783-43.6309 53.1582-43.6309L26.605-43.6309C23.1304-43.6309 21.1216-41.5767 21.1216-38.0112L21.1216-14.5923C21.1216-11.0303 23.1304-8.97606 26.605-8.97606ZM10.7656-51.7847L68.5923-51.7847L68.5923-53.9068L10.7656-53.9068ZM49.4371-60.7603L60.0459-60.7603C60.6343-60.7603 61.1011-61.2305 61.1011-61.8189C61.1011-62.3618 60.6343-62.832 60.0459-62.832L49.4371-62.832C48.8941-62.832 48.4273-62.3618 48.4273-61.8189C48.4273-61.2305 48.8941-60.7603 49.4371-60.7603ZM21.5772-58.4497C23.4326-58.4497 24.9463-59.9634 24.9463-61.8189C24.9463-63.6743 23.4326-65.188 21.5772-65.188C19.7217-65.188 18.208-63.6743 18.208-61.8189C18.208-59.9634 19.7217-58.4497 21.5772-58.4497ZM31.2974-58.4497C33.1529-58.4497 34.6665-59.9634 34.6665-61.8189C34.6665-63.6743 33.1529-65.188 31.2974-65.188C29.4419-65.188 27.9737-63.6743 27.9737-61.8189C27.9737-59.9634 29.4419-58.4497 31.2974-58.4497Z"/>
   <path class="monochrome-1 hierarchical-1:primary SFSymbolsPreview212121" d="M61.2383 4.30033C61.7427 4.58891 62.4346 4.49125 62.8243 3.81302C64.0381 1.72025 64.5855-0.399873 64.5855-2.82761C64.5855-11.226 57.6963-15.8169 57.6963-22.6401C57.6963-24.7792 58.2129-26.3496 59.2735-28.2753C59.4781-28.748 59.4688-29.3637 58.8873-29.6806C58.3477-30.0112 57.7046-29.9101 57.2661-29.2841C55.9615-27.2368 55.5572-25.0293 55.5572-22.6401C55.5572-14.8808 62.4395-10.0244 62.4395-2.82761C62.4395-0.688452 61.8355 0.833029 60.8623 2.7134C60.5249 3.41311 60.7578 4.02201 61.2383 4.30033ZM51.2725 4.30033C51.7246 4.58891 52.4585 4.45268 52.813 3.81644C54.0235 1.72366 54.5708-0.399873 54.5708-2.82761C54.5708-11.2226 47.7305-15.8134 47.7305-22.6367C47.7305-24.7792 48.2017-26.3496 49.2657-28.2753C49.5088-28.7446 49.461-29.3603 48.9248-29.6806C48.3853-30.0112 47.7388-29.9101 47.3037-29.2807C45.9956-27.2368 45.5879-25.0258 45.5879-22.6367C45.5879-14.8808 52.4282-10.021 52.4282-2.82761C52.4282-0.685033 51.8662 0.836447 50.8931 2.71682C50.5137 3.41311 50.792 4.02542 51.2725 4.30033ZM71.1622 4.29691C71.6631 4.58549 72.355 4.48783 72.7447 3.8096C73.9586 1.71683 74.5059-0.399873 74.5059-2.83102C74.5059-11.2295 67.6622-15.8169 67.6622-22.6435C67.6622-24.7827 68.1368-26.353 69.1973-28.2788C69.4439-28.7514 69.3926-29.3671 68.8111-29.684C68.3135-30.0146 67.625-29.9135 67.2354-29.2876C65.8853-27.2402 65.523-25.0293 65.523-22.6435C65.523-14.8842 72.3633-10.0278 72.3633-2.83102C72.3633-0.64646 71.8013 0.82961 70.8282 2.70998C70.4488 3.4551 70.7237 4.01859 71.1622 4.29691Z"/>
  </g>
 </g>
</svg>
