<?xml version="1.0" encoding="UTF-8"?>
<!-- Generator: CustomSymbols v2.6.2.41 by @serious_bret https://bretlester.com/app_content/CustomSymbols/ -->
<!-- Guides: Left/Right -0.005/0.0 Cap/Base 0.077/0.393 -->
<!-- Settings: RefScale 0.5 Min/Max Stroke Scales 0.5/2.21 -->
<!DOCTYPE svg
PUBLIC "-//W3C//DTD SVG 1.1//EN"
       "http://www.w3.org/Graphics/SVG/1.1/DTD/svg11.dtd">
<svg version="1.1" xmlns="http://www.w3.org/2000/svg" xmlns:xlink="http://www.w3.org/1999/xlink" width="3300" height="2200">
<![CDATA[<?xml version="1.0" encoding="UTF-8" standalone="no"?>
<!--Generator: Apple Native CoreSVG 175.5-->

<svg
   version="1.1"
   width="118.56052"
   height="80.58744"
   id="svg130"
   xmlns="http://www.w3.org/2000/svg"
   xmlns:svg="http://www.w3.org/2000/svg">
  <defs
     id="defs134" />
  <!--glyph: "uni100B7F.medium", point size: 100.0, font version: "18.0d11e1", template writer version: "90"-->
  <style
     id="style2">.monochrome-0 {fill:#000000}
.monochrome-1 {fill:#000000}

.hierarchical-0:secondary {fill:#4D4D4D}
.hierarchical-1:primary {fill:#212121}

.SFSymbolsPreview212121 {fill:#212121;opacity:1.0}
.SFSymbolsPreview4D4D4D {fill:#4D4D4D;opacity:1.0}
</style>
  <g
     id="Symbols"
     transform="translate(-1398.949,-630.19197)">
    <g
       id="Regular-S"
       transform="translate(1388.66,696)">
      <path
         id="path121-1"
         style="fill:#212121"
         class="monochrome-1 hierarchical-1:primary SFSymbolsPreview212121"
         d="m 13.609358,-65.808034 c -2.001898,0 -3.320312,1.318415 -3.320312,3.320313 v 57.9101557 c 0,2.001948 1.318414,3.3691406 3.320312,3.3691406 H 31.652327 V -8.2885031 H 18.540999 c -0.927799,0 -1.220703,-0.292975 -1.220703,-1.171875 V -57.604909 c 0,-0.878899 0.292904,-1.171875 1.220703,-1.171875 h 86.328121 c 0.927,0 1.21875,0.292976 1.21875,1.171875 v 12.761719 h 7.0332 v -17.644531 c 0,-2.001898 -1.32027,-3.320313 -3.32226,-3.320313 z" />
      <path
         class="monochrome-0 hierarchical-0:secondary SFSymbolsPreview4D4D4D"
         d="m 37.003561,1.302898 c 0,1.5624 0.9277,2.4414 2.4414,2.4414 h 75.976499 c 1.5141,0 2.4411,-0.879 2.4411,-2.4414 v -37.6954 c 0,-1.5625 -0.927,-2.4414 -2.4411,-2.4414 H 39.444961 c -1.5137,0 -2.4414,0.8789 -2.4414,2.4414 z m 4.2968,-2.7833 v -32.1289 c 0,-0.6347 0.293,-0.9765 0.9278,-0.9765 h 70.410099 c 0.6348,0 0.9278,0.3418 0.9278,0.9765 v 32.1289 c 0,0.63479996 -0.293,0.97659996 -0.9278,0.97659996 H 42.228161 c -0.6348,0 -0.9278,-0.3418 -0.9278,-0.97659996 z m 35.9375,5.2247 c 8.4961,0 14.8926,-8.4473 14.8926,-21.3379 0,-12.793 -6.3965,-21.2403 -14.8926,-21.2403 -8.2519,0 -14.4531,8.4473 -14.4531,21.2403 0,12.8906 6.2012,21.3379 14.4531,21.3379 z m 0,-5.0293 c -5.3222,0 -9.5215,-6.4454 -9.5215,-16.3086 0,-9.8145 4.1993,-16.211 9.5215,-16.211 5.5664,0 9.961,6.3965 9.961,16.211 0,9.8632 -4.3946,16.3086 -9.961,16.3086 z"
         id="path119"
         style="fill:#4d4d4d" />
      <path
         class="monochrome-1 hierarchical-1:primary SFSymbolsPreview212121"
         d="m 26.017181,11.410268 c 0,2.00195 1.31838,3.36914 3.32028,3.36914 h 96.191099 c 2.002,0 3.321,-1.36719 3.321,-3.36914 v -57.91017 c 0,-2.0019 -1.319,-3.3203 -3.321,-3.3203 H 29.337461 c -2.0019,0 -3.32028,1.3184 -3.32028,3.3203 z m 7.03128,-4.88277 v -48.1446 c 0,-0.8789 0.2929,-1.1718 1.2207,-1.1718 h 86.328399 c 0.927,0 1.22,0.2929 1.22,1.1718 v 48.1446 c 0,0.8789 -0.293,1.1718 -1.22,1.1718 H 34.269161 c -0.9278,0 -1.2207,-0.2929 -1.2207,-1.1718 z"
         id="path121-1-8"
         style="fill:#212121" />
    </g>
  </g>
</svg>
]]>
 <g id="Notes">
  <rect height="2200" id="artboard" style="fill:white;opacity:1" width="3300" x="0" y="0"/>
  <line id="" style="fill:none;stroke:black;opacity:1;stroke-width:0.5;" x1="263" x2="3036" y1="292" y2="292"/>
  <text id="reftext1" style="stroke:none;fill:black;font-family:-apple-system,&quot;SF Pro Display&quot;,&quot;SF Pro Text&quot;,Helvetica,sans-serif;font-weight:bold;" transform="matrix(1 0 0 1 263 322)">Weight/Scale Variations</text>
  <text id="reftext2" style="stroke:none;fill:black;font-family:-apple-system,&quot;SF Pro Display&quot;,&quot;SF Pro Text&quot;,Helvetica,sans-serif;text-anchor:middle;" transform="matrix(1 0 0 1 559.711 322)">Ultralight</text>
  <text style="stroke:none;fill:black;font-family:-apple-system,&quot;SF Pro Display&quot;,&quot;SF Pro Text&quot;,Helvetica,sans-serif;text-anchor:middle;" transform="matrix(1 0 0 1 856.422 322)">Thin</text>
  <text style="stroke:none;fill:black;font-family:-apple-system,&quot;SF Pro Display&quot;,&quot;SF Pro Text&quot;,Helvetica,sans-serif;text-anchor:middle;" transform="matrix(1 0 0 1 1153.13 322)">Light</text>
  <text style="stroke:none;fill:black;font-family:-apple-system,&quot;SF Pro Display&quot;,&quot;SF Pro Text&quot;,Helvetica,sans-serif;text-anchor:middle;" transform="matrix(1 0 0 1 1449.84 322)">Regular</text>
  <text style="stroke:none;fill:black;font-family:-apple-system,&quot;SF Pro Display&quot;,&quot;SF Pro Text&quot;,Helvetica,sans-serif;text-anchor:middle;" transform="matrix(1 0 0 1 1746.56 322)">Medium</text>
  <text style="stroke:none;fill:black;font-family:-apple-system,&quot;SF Pro Display&quot;,&quot;SF Pro Text&quot;,Helvetica,sans-serif;text-anchor:middle;" transform="matrix(1 0 0 1 2043.27 322)">Semibold</text>
  <text style="stroke:none;fill:black;font-family:-apple-system,&quot;SF Pro Display&quot;,&quot;SF Pro Text&quot;,Helvetica,sans-serif;text-anchor:middle;" transform="matrix(1 0 0 1 2339.98 322)">Bold</text>
  <text style="stroke:none;fill:black;font-family:-apple-system,&quot;SF Pro Display&quot;,&quot;SF Pro Text&quot;,Helvetica,sans-serif;text-anchor:middle;" transform="matrix(1 0 0 1 2636.69 322)">Heavy</text>
  <text style="stroke:none;fill:black;font-family:-apple-system,&quot;SF Pro Display&quot;,&quot;SF Pro Text&quot;,Helvetica,sans-serif;text-anchor:middle;" transform="matrix(1 0 0 1 2933.4 322)">Black</text>
  <line id="" style="fill:none;stroke:black;opacity:1;stroke-width:0.5;" x1="263" x2="3036" y1="1903" y2="1903"/>
  <g id="" transform="matrix(1 0 0 1 263 1933)">
   <path d="M9.24805 0.830078C13.5547 0.830078 17.1387-2.74414 17.1387-7.05078C17.1387-11.3574 13.5449-14.9316 9.23828-14.9316C4.94141-14.9316 1.36719-11.3574 1.36719-7.05078C1.36719-2.74414 4.95117 0.830078 9.24805 0.830078ZM9.24805-0.654297C5.70312-0.654297 2.87109-3.49609 2.87109-7.05078C2.87109-10.6055 5.69336-13.4473 9.23828-13.4473C12.793-13.4473 15.6348-10.6055 15.6445-7.05078C15.6543-3.49609 12.8027-0.654297 9.24805-0.654297ZM6.39648-6.31836L8.50586-6.31836L8.50586-4.19922C8.50586-3.75977 8.79883-3.45703 9.22852-3.45703C9.67773-3.45703 9.9707-3.75977 9.9707-4.19922L9.9707-6.31836L12.0996-6.31836C12.5391-6.31836 12.8418-6.61133 12.8418-7.04102C12.8418-7.48047 12.5391-7.7832 12.0996-7.7832L9.9707-7.7832L9.9707-9.89258C9.9707-10.3418 9.67773-10.6445 9.22852-10.6445C8.79883-10.6445 8.50586-10.3418 8.50586-9.89258L8.50586-7.7832L6.39648-7.7832C5.94727-7.7832 5.64453-7.48047 5.64453-7.04102C5.64453-6.61133 5.94727-6.31836 6.39648-6.31836Z"/>
  </g>
  <g id="" transform="matrix(1 0 0 1 281.506 1933)">
   <path d="M11.709 2.91016C17.1582 2.91016 21.6699-1.61133 21.6699-7.05078C21.6699-12.5 17.1484-17.0117 11.6992-17.0117C6.25977-17.0117 1.74805-12.5 1.74805-7.05078C1.74805-1.61133 6.26953 2.91016 11.709 2.91016ZM11.709 1.25C7.09961 1.25 3.41797-2.44141 3.41797-7.05078C3.41797-11.6602 7.08984-15.3516 11.6992-15.3516C16.3086-15.3516 20-11.6602 20.0098-7.05078C20.0195-2.44141 16.3184 1.25 11.709 1.25ZM7.98828-6.23047L10.8789-6.23047L10.8789-3.32031C10.8789-2.83203 11.2109-2.5 11.6895-2.5C12.1777-2.5 12.5195-2.83203 12.5195-3.32031L12.5195-6.23047L15.4297-6.23047C15.918-6.23047 16.25-6.5625 16.25-7.04102C16.25-7.5293 15.918-7.87109 15.4297-7.87109L12.5195-7.87109L12.5195-10.7617C12.5195-11.2695 12.1777-11.6016 11.6895-11.6016C11.2109-11.6016 10.8789-11.2598 10.8789-10.7617L10.8789-7.87109L7.98828-7.87109C7.48047-7.87109 7.14844-7.5293 7.14844-7.04102C7.14844-6.5625 7.49023-6.23047 7.98828-6.23047Z"/>
  </g>
  <g id="" transform="matrix(1 0 0 1 304.924 1933)">
   <path d="M14.9707 5.66406C21.9336 5.66406 27.6953-0.0976562 27.6953-7.05078C27.6953-14.0137 21.9238-19.7754 14.9609-19.7754C8.00781-19.7754 2.25586-14.0137 2.25586-7.05078C2.25586-0.0976562 8.01758 5.66406 14.9707 5.66406ZM14.9707 3.84766C8.93555 3.84766 4.08203-1.01562 4.08203-7.05078C4.08203-13.0957 8.92578-17.9492 14.9609-17.9492C21.0059-17.9492 25.8594-13.0957 25.8691-7.05078C25.8789-1.01562 21.0156 3.84766 14.9707 3.84766ZM10.0586-6.14258L14.0625-6.14258L14.0625-2.12891C14.0625-1.5918 14.4336-1.2207 14.9512-1.2207C15.4883-1.2207 15.8594-1.5918 15.8594-2.12891L15.8594-6.14258L19.8828-6.14258C20.4102-6.14258 20.791-6.51367 20.791-7.03125C20.791-7.56836 20.4199-7.94922 19.8828-7.94922L15.8594-7.94922L15.8594-11.9531C15.8594-12.5098 15.4883-12.8809 14.9512-12.8809C14.4336-12.8809 14.0625-12.5 14.0625-11.9531L14.0625-7.94922L10.0586-7.94922C9.50195-7.94922 9.13086-7.56836 9.13086-7.03125C9.13086-6.51367 9.51172-6.14258 10.0586-6.14258Z"/>
  </g>
  <text style="stroke:none;fill:black;font-family:-apple-system,&quot;SF Pro Display&quot;,&quot;SF Pro Text&quot;,Helvetica,sans-serif;font-weight:bold;" transform="matrix(1 0 0 1 263 1953)">Design Variations</text>
  <text style="stroke:none;fill:black;font-family:-apple-system,&quot;SF Pro Display&quot;,&quot;SF Pro Text&quot;,Helvetica,sans-serif;" transform="matrix(1 0 0 1 263 1971)">Symbols are supported in up to nine weights and three scales.</text>
  <text style="stroke:none;fill:black;font-family:-apple-system,&quot;SF Pro Display&quot;,&quot;SF Pro Text&quot;,Helvetica,sans-serif;" transform="matrix(1 0 0 1 263 1989)">For optimal layout with text and other symbols, vertically align</text>
  <text style="stroke:none;fill:black;font-family:-apple-system,&quot;SF Pro Display&quot;,&quot;SF Pro Text&quot;,Helvetica,sans-serif;" transform="matrix(1 0 0 1 263 2007)">symbols with the adjacent text.</text>
  <line id="" style="fill:none;stroke:#00AEEF;stroke-width:0.5;opacity:1.0;" x1="776" x2="776" y1="1919" y2="1933"/>
  <g id="" transform="matrix(1 0 0 1 776 1933)">
   <path d="M3.31055 0.126953C3.82812 0.126953 4.08203-0.0683594 4.26758-0.605469L5.52734-4.0625L11.2891-4.0625L12.5488-0.605469C12.7344-0.0683594 12.9883 0.126953 13.4961 0.126953C14.0137 0.126953 14.3457-0.185547 14.3457-0.673828C14.3457-0.839844 14.3164-0.986328 14.2383-1.20117L9.6582-13.3887C9.43359-13.9941 9.0332-14.2871 8.4082-14.2871C7.80273-14.2871 7.39258-13.9941 7.17773-13.3984L2.59766-1.19141C2.51953-0.976562 2.49023-0.830078 2.49023-0.664062C2.49023-0.175781 2.80273 0.126953 3.31055 0.126953ZM6.00586-5.53711L8.37891-12.1094L8.42773-12.1094L10.8008-5.53711Z"/>
  </g>
  <line id="" style="fill:none;stroke:#00AEEF;stroke-width:0.5;opacity:1.0;" x1="792.836" x2="792.836" y1="1919" y2="1933"/>
  <text style="stroke:none;fill:black;font-family:-apple-system,&quot;SF Pro Display&quot;,&quot;SF Pro Text&quot;,Helvetica,sans-serif;font-weight:bold;" transform="matrix(1 0 0 1 776 1953)">Margins</text>
  <text style="stroke:none;fill:black;font-family:-apple-system,&quot;SF Pro Display&quot;,&quot;SF Pro Text&quot;,Helvetica,sans-serif;" transform="matrix(1 0 0 1 776 1971)">Leading and trailing margins on the left and right side of each symbol</text>
  <text style="stroke:none;fill:black;font-family:-apple-system,&quot;SF Pro Display&quot;,&quot;SF Pro Text&quot;,Helvetica,sans-serif;" transform="matrix(1 0 0 1 776 1989)">can be adjusted by modifying the x-location of the margin guidelines.</text>
  <text style="stroke:none;fill:black;font-family:-apple-system,&quot;SF Pro Display&quot;,&quot;SF Pro Text&quot;,Helvetica,sans-serif;" transform="matrix(1 0 0 1 776 2007)">Modifications are automatically applied proportionally to all</text>
  <text style="stroke:none;fill:black;font-family:-apple-system,&quot;SF Pro Display&quot;,&quot;SF Pro Text&quot;,Helvetica,sans-serif;" transform="matrix(1 0 0 1 776 2025)">scales and weights.</text>
  <g id="" transform="matrix(1 0 0 1 1289 1933)">
   <path d="M2.8418 1.86523L4.54102 3.57422C5.40039 4.44336 6.38672 4.38477 7.31445 3.35938L17.4902-7.85156C17.7539-7.76367 18.0273-7.7832 18.3398-7.8418L19.4043-8.03711L20.0684-7.36328L20.0293-6.80664C19.9902-6.30859 20.1172-5.92773 20.6055-5.44922L21.3672-4.70703C21.8457-4.22852 22.4609-4.19922 22.9297-4.66797L25.8398-7.58789C26.3086-8.05664 26.2891-8.65234 25.8105-9.13086L25.0391-9.89258C24.5605-10.3711 24.1895-10.5273 23.7109-10.4883L23.1348-10.4395L22.4902-11.0742L22.7344-12.1973C22.8613-12.7637 22.7051-13.2031 22.1191-13.7891L19.9219-15.9766C16.582-19.2969 12.1484-19.2188 9.25781-16.3281C8.83789-15.918 8.80859-15.3418 9.04297-14.9512C9.27734-14.5898 9.73633-14.3555 10.3809-14.5215C11.8457-14.8633 13.3691-14.9219 14.7949-13.9844L14.209-12.5293C14.0137-12.0508 13.9844-11.6504 14.1113-11.2891L3.04688-0.898438C2.06055 0.0195312 1.98242 0.996094 2.8418 1.86523ZM10.752-15.957C13.1836-17.7344 16.4746-17.4316 18.7012-15.2051L21.1328-12.793C21.3672-12.5586 21.4062-12.373 21.3379-12.0312L21.0156-10.5469L22.5195-9.0625L23.5059-9.12109C23.7598-9.13086 23.8379-9.11133 24.0332-8.91602L24.6094-8.33984L22.168-5.89844L21.5918-6.47461C21.3965-6.66992 21.3672-6.74805 21.377-7.01172L21.4453-7.98828L19.9512-9.47266L18.4277-9.21875C18.1055-9.15039 17.959-9.17969 17.7148-9.41406L15.7129-11.416C15.459-11.6504 15.4297-11.8164 15.5859-12.1875L16.4648-14.2773C14.9023-15.7324 12.8711-16.3574 10.8398-15.7617C10.6836-15.7227 10.625-15.8496 10.752-15.957ZM5.27344 2.30469L4.10156 1.14258C3.63281 0.683594 3.74023 0.341797 4.14062-0.0195312L14.9512-10.1953L16.416-8.71094L6.42578 2.27539C6.07422 2.67578 5.74219 2.77344 5.27344 2.30469Z"/>
  </g>
  <text style="stroke:none;fill:black;font-family:-apple-system,&quot;SF Pro Display&quot;,&quot;SF Pro Text&quot;,Helvetica,sans-serif;font-weight:bold;" transform="matrix(1 0 0 1 1289 1953)">Exporting</text>
  <text style="stroke:none;fill:black;font-family:-apple-system,&quot;SF Pro Display&quot;,&quot;SF Pro Text&quot;,Helvetica,sans-serif;" transform="matrix(1 0 0 1 1289 1971)">Symbols should be outlined when exporting to ensure the</text>
  <text style="stroke:none;fill:black;font-family:-apple-system,&quot;SF Pro Display&quot;,&quot;SF Pro Text&quot;,Helvetica,sans-serif;" transform="matrix(1 0 0 1 1289 1989)">design is preserved when submitting to Xcode.</text>
  <text id="template-version" style="stroke:none;fill:black;font-family:-apple-system,&quot;SF Pro Display&quot;,&quot;SF Pro Text&quot;,Helvetica,sans-serif;text-anchor:end;" transform="matrix(1 0 0 1 3036 1933)">Template v.2.0</text>
  <text style="stroke:none;fill:black;font-family:-apple-system,&quot;SF Pro Display&quot;,&quot;SF Pro Text&quot;,Helvetica,sans-serif;text-anchor:end;" transform="matrix(1 0 0 1 3036 1951)">Requires Xcode 12 or greater</text>
  <text style="stroke:none;fill:black;font-family:-apple-system,&quot;SF Pro Display&quot;,&quot;SF Pro Text&quot;,Helvetica,sans-serif;" transform="matrix(1 0 0 1 263 726)">Small</text>
  <text style="stroke:none;fill:black;font-family:-apple-system,&quot;SF Pro Display&quot;,&quot;SF Pro Text&quot;,Helvetica,sans-serif;" transform="matrix(1 0 0 1 263 1156)">Medium</text>
  <text style="stroke:none;fill:black;font-family:-apple-system,&quot;SF Pro Display&quot;,&quot;SF Pro Text&quot;,Helvetica,sans-serif;" transform="matrix(1 0 0 1 263 1586)">Large</text>
 </g>
 <g id="Guides">
  <g id="H-reference" style="fill:#27AAE1;stroke:none;" transform="matrix(1 0 0 1 339 696)">
   <path d="M0.976562 0L3.66211 0L12.9883-24.4629L45.752-24.4629L55.127 0L57.7637 0L30.6152-70.459L28.125-70.459ZM29.3457-67.1387L29.4434-67.1387L44.873-26.709L13.8672-26.709Z"/>
  </g>
  <line id="Baseline-S" style="fill:none;stroke:#27AAE1;opacity:1;stroke-width:0.5;" x1="263" x2="3036" y1="696" y2="696"/>
  <line id="Capline-S" style="fill:none;stroke:#27AAE1;opacity:1;stroke-width:0.5;" x1="263" x2="3036" y1="625.541" y2="625.541"/>
  <g id="H-reference" style="fill:#27AAE1;stroke:none;" transform="matrix(1 0 0 1 339 1126)">
   <path d="M0.976562 0L3.66211 0L12.9883-24.4629L45.752-24.4629L55.127 0L57.7637 0L30.6152-70.459L28.125-70.459ZM29.3457-67.1387L29.4434-67.1387L44.873-26.709L13.8672-26.709Z"/>
  </g>
  <line id="Baseline-M" style="fill:none;stroke:#27AAE1;opacity:1;stroke-width:0.5;" x1="263" x2="3036" y1="1126" y2="1126"/>
  <line id="Capline-M" style="fill:none;stroke:#27AAE1;opacity:1;stroke-width:0.5;" x1="263" x2="3036" y1="1055.54" y2="1055.54"/>
  <g id="H-reference" style="fill:#27AAE1;stroke:none;" transform="matrix(1 0 0 1 339 1556)">
   <path d="M0.976562 0L3.66211 0L12.9883-24.4629L45.752-24.4629L55.127 0L57.7637 0L30.6152-70.459L28.125-70.459ZM29.3457-67.1387L29.4434-67.1387L44.873-26.709L13.8672-26.709Z"/>
  </g>
  <line id="Baseline-L" style="fill:none;stroke:#27AAE1;opacity:1;stroke-width:0.5;" x1="263" x2="3036" y1="1556" y2="1556"/>
  <line id="Capline-L" style="fill:none;stroke:#27AAE1;opacity:1;stroke-width:0.5;" x1="263" x2="3036" y1="1485.54" y2="1485.54"/>
  <line id="left-margin" x1="1383.9936221255896" x2="1383.9936221255896" y1="1030.79" y2="1150.12" style="fill:none;stroke:#00AEEF;stroke-width:0.5;opacity:1.0;"/>
  <line id="right-margin" x1="1517.6016612617923" x2="1517.6016612617923" y1="1030.79" y2="1150.12" style="fill:none;stroke:#00AEEF;stroke-width:0.5;opacity:1.0;"/>
 </g>
 <g id="Symbols">
  <g id="Black-L" transform="matrix(1.0,0.0,0.0,1.0,2848.9315569722876,1462.1180845002948)">  <path stroke-miterlimit="4" stroke-linejoin="miter" stroke-opacity="1" xmlns:svg="http://www.w3.org/2000/svg" fill-opacity="1" stroke-linecap="butt" fill="#212121" stroke="none" stroke-width="0.0625" stroke-dasharray="none" version="1.1" fill-rule="nonzero" d="M4.803,0C1.907,0,0,1.907,0,4.803L0,88.569C0,91.465,1.907,93.443,4.803,93.443L30.902,93.443L30.902,83.202L11.937,83.202C10.594,83.202,10.171,82.778,10.171,81.506L10.171,11.866C10.171,10.594,10.594,10.171,11.937,10.171L136.809,10.171C138.15,10.171,138.572,10.594,138.572,11.866L138.572,30.325L148.746,30.325L148.746,4.803C148.746,1.907,146.836,0,143.94,0ZM4.803,0"/>
  <path fill-rule="nonzero" fill="#4d4d4d" stroke="none" stroke-dasharray="none" fill-opacity="1" stroke-miterlimit="4" xmlns:svg="http://www.w3.org/2000/svg" version="1.1" stroke-linejoin="miter" stroke-linecap="butt" stroke-opacity="1" stroke-width="0.0625" d="M38.642,97.075C38.642,99.335,39.984,100.607,42.174,100.607L152.073,100.607C154.263,100.607,155.604,99.335,155.604,97.075L155.604,42.549C155.604,40.289,154.263,39.018,152.073,39.018L42.174,39.018C39.984,39.018,38.642,40.289,38.642,42.549ZM44.858,93.049L44.858,46.575C44.858,45.657,45.282,45.163,46.2,45.163L148.047,45.163C148.966,45.163,149.389,45.657,149.389,46.575L149.389,93.049C149.389,93.968,148.966,94.462,148.047,94.462L46.2,94.462C45.282,94.462,44.858,93.968,44.858,93.049ZM96.841,100.607C109.131,100.607,118.383,88.388,118.383,69.742C118.383,51.237,109.131,39.018,96.841,39.018C84.905,39.018,75.935,51.237,75.935,69.742C75.935,88.388,84.905,100.607,96.841,100.607ZM96.841,93.332C89.143,93.332,83.068,84.009,83.068,69.742C83.068,55.545,89.143,46.293,96.841,46.293C104.893,46.293,111.25,55.545,111.25,69.742C111.25,84.009,104.893,93.332,96.841,93.332ZM96.841,93.332"/>
  <path stroke-miterlimit="4" fill-opacity="1" stroke-opacity="1" stroke-linejoin="miter" stroke-dasharray="none" xmlns:svg="http://www.w3.org/2000/svg" fill="#212121" stroke-width="0.0625" stroke-linecap="butt" stroke="none" fill-rule="nonzero" version="1.1" d="M22.751,111.696C22.751,114.591,24.658,116.569,27.554,116.569L166.693,116.569C169.589,116.569,171.497,114.591,171.497,111.696L171.497,27.929C171.497,25.033,169.589,23.126,166.693,23.126L27.554,23.126C24.658,23.126,22.751,25.033,22.751,27.929ZM32.921,104.633L32.921,34.992C32.921,33.721,33.345,33.297,34.687,33.297L159.56,33.297C160.901,33.297,161.325,33.721,161.325,34.992L161.325,104.633C161.325,105.904,160.901,106.328,159.56,106.328L34.687,106.328C33.345,106.328,32.921,105.904,32.921,104.633ZM32.921,104.633"/>
</g>
  <g id="Heavy-L" transform="matrix(1.0,0.0,0.0,1.0,2552.2215569722875,1462.1180845002948)">  <path fill-rule="nonzero" fill-opacity="1" version="1.1" stroke-width="0.0625" stroke-dasharray="none" stroke-miterlimit="4" stroke-linejoin="miter" stroke="none" stroke-linecap="butt" fill="#212121" stroke-opacity="1" xmlns:svg="http://www.w3.org/2000/svg" d="M4.803,0C1.907,0,0,1.907,0,4.803L0,88.569C0,91.465,1.907,93.443,4.803,93.443L30.902,93.443L30.902,83.202L11.937,83.202C10.594,83.202,10.171,82.778,10.171,81.506L10.171,11.866C10.171,10.594,10.594,10.171,11.937,10.171L136.809,10.171C138.15,10.171,138.572,10.594,138.572,11.866L138.572,30.325L148.746,30.325L148.746,4.803C148.746,1.907,146.836,0,143.94,0ZM4.803,0"/>
  <path fill-opacity="1" stroke-width="0.0625" fill="#4d4d4d" stroke-dasharray="none" stroke-opacity="1" version="1.1" stroke-linecap="butt" stroke="none" stroke-miterlimit="4" xmlns:svg="http://www.w3.org/2000/svg" fill-rule="nonzero" stroke-linejoin="miter" d="M38.642,97.075C38.642,99.335,39.984,100.607,42.174,100.607L152.073,100.607C154.263,100.607,155.604,99.335,155.604,97.075L155.604,42.549C155.604,40.289,154.263,39.018,152.073,39.018L42.174,39.018C39.984,39.018,38.642,40.289,38.642,42.549ZM44.858,93.049L44.858,46.575C44.858,45.657,45.282,45.163,46.2,45.163L148.047,45.163C148.966,45.163,149.389,45.657,149.389,46.575L149.389,93.049C149.389,93.968,148.966,94.462,148.047,94.462L46.2,94.462C45.282,94.462,44.858,93.968,44.858,93.049ZM96.841,100.607C109.131,100.607,118.383,88.388,118.383,69.742C118.383,51.237,109.131,39.018,96.841,39.018C84.905,39.018,75.935,51.237,75.935,69.742C75.935,88.388,84.905,100.607,96.841,100.607ZM96.841,93.332C89.143,93.332,83.068,84.009,83.068,69.742C83.068,55.545,89.143,46.293,96.841,46.293C104.893,46.293,111.25,55.545,111.25,69.742C111.25,84.009,104.893,93.332,96.841,93.332ZM96.841,93.332"/>
  <path fill-opacity="1" version="1.1" stroke-linecap="butt" stroke-opacity="1" stroke-miterlimit="4" fill="#212121" stroke-width="0.0625" stroke-dasharray="none" xmlns:svg="http://www.w3.org/2000/svg" stroke="none" fill-rule="nonzero" stroke-linejoin="miter" d="M22.751,111.696C22.751,114.591,24.658,116.569,27.554,116.569L166.693,116.569C169.589,116.569,171.497,114.591,171.497,111.696L171.497,27.929C171.497,25.033,169.589,23.126,166.693,23.126L27.554,23.126C24.658,23.126,22.751,25.033,22.751,27.929ZM32.921,104.633L32.921,34.992C32.921,33.721,33.345,33.297,34.687,33.297L159.56,33.297C160.901,33.297,161.325,33.721,161.325,34.992L161.325,104.633C161.325,105.904,160.901,106.328,159.56,106.328L34.687,106.328C33.345,106.328,32.921,105.904,32.921,104.633ZM32.921,104.633"/>
</g>
  <g id="Bold-L" transform="matrix(1.0,0.0,0.0,1.0,2255.5115569722875,1462.1180845002948)">  <path stroke-width="0.0625" version="1.1" stroke="none" stroke-dasharray="none" stroke-linecap="butt" stroke-linejoin="miter" xmlns:svg="http://www.w3.org/2000/svg" fill="#212121" fill-rule="nonzero" fill-opacity="1" stroke-opacity="1" stroke-miterlimit="4" d="M4.803,0C1.907,0,0,1.907,0,4.803L0,88.569C0,91.465,1.907,93.443,4.803,93.443L30.902,93.443L30.902,83.202L11.937,83.202C10.594,83.202,10.171,82.778,10.171,81.506L10.171,11.866C10.171,10.594,10.594,10.171,11.937,10.171L136.809,10.171C138.15,10.171,138.572,10.594,138.572,11.866L138.572,30.325L148.746,30.325L148.746,4.803C148.746,1.907,146.836,0,143.94,0ZM4.803,0"/>
  <path version="1.1" stroke-width="0.0625" stroke-miterlimit="4" stroke-linecap="butt" stroke-linejoin="miter" fill-opacity="1" stroke-dasharray="none" fill="#4d4d4d" stroke="none" stroke-opacity="1" xmlns:svg="http://www.w3.org/2000/svg" fill-rule="nonzero" d="M38.642,97.075C38.642,99.335,39.984,100.607,42.174,100.607L152.073,100.607C154.263,100.607,155.604,99.335,155.604,97.075L155.604,42.549C155.604,40.289,154.263,39.018,152.073,39.018L42.174,39.018C39.984,39.018,38.642,40.289,38.642,42.549ZM44.858,93.049L44.858,46.575C44.858,45.657,45.282,45.163,46.2,45.163L148.047,45.163C148.966,45.163,149.389,45.657,149.389,46.575L149.389,93.049C149.389,93.968,148.966,94.462,148.047,94.462L46.2,94.462C45.282,94.462,44.858,93.968,44.858,93.049ZM96.841,100.607C109.131,100.607,118.383,88.388,118.383,69.742C118.383,51.237,109.131,39.018,96.841,39.018C84.905,39.018,75.935,51.237,75.935,69.742C75.935,88.388,84.905,100.607,96.841,100.607ZM96.841,93.332C89.143,93.332,83.068,84.009,83.068,69.742C83.068,55.545,89.143,46.293,96.841,46.293C104.893,46.293,111.25,55.545,111.25,69.742C111.25,84.009,104.893,93.332,96.841,93.332ZM96.841,93.332"/>
  <path stroke-linejoin="miter" stroke-miterlimit="4" version="1.1" stroke-dasharray="none" stroke-linecap="butt" stroke-width="0.0625" stroke-opacity="1" fill-opacity="1" stroke="none" fill="#212121" fill-rule="nonzero" xmlns:svg="http://www.w3.org/2000/svg" d="M22.751,111.696C22.751,114.591,24.658,116.569,27.554,116.569L166.693,116.569C169.589,116.569,171.497,114.591,171.497,111.696L171.497,27.929C171.497,25.033,169.589,23.126,166.693,23.126L27.554,23.126C24.658,23.126,22.751,25.033,22.751,27.929ZM32.921,104.633L32.921,34.992C32.921,33.721,33.345,33.297,34.687,33.297L159.56,33.297C160.901,33.297,161.325,33.721,161.325,34.992L161.325,104.633C161.325,105.904,160.901,106.328,159.56,106.328L34.687,106.328C33.345,106.328,32.921,105.904,32.921,104.633ZM32.921,104.633"/>
</g>
  <g id="Semibold-L" transform="matrix(1.0,0.0,0.0,1.0,1958.8015569722877,1462.1180845002948)">  <path version="1.1" xmlns:svg="http://www.w3.org/2000/svg" stroke-miterlimit="4" stroke-dasharray="none" stroke-linecap="butt" fill-opacity="1" fill="#212121" stroke-linejoin="miter" stroke="none" fill-rule="nonzero" stroke-opacity="1" stroke-width="0.0625" d="M4.803,0C1.907,0,0,1.907,0,4.803L0,88.569C0,91.465,1.907,93.443,4.803,93.443L30.902,93.443L30.902,83.202L11.937,83.202C10.594,83.202,10.171,82.778,10.171,81.506L10.171,11.866C10.171,10.594,10.594,10.171,11.937,10.171L136.809,10.171C138.15,10.171,138.572,10.594,138.572,11.866L138.572,30.325L148.746,30.325L148.746,4.803C148.746,1.907,146.836,0,143.94,0ZM4.803,0"/>
  <path fill-rule="nonzero" version="1.1" xmlns:svg="http://www.w3.org/2000/svg" stroke-dasharray="none" stroke="none" stroke-opacity="1" stroke-linecap="butt" stroke-width="0.0625" fill-opacity="1" stroke-miterlimit="4" fill="#4d4d4d" stroke-linejoin="miter" d="M38.642,97.075C38.642,99.335,39.984,100.607,42.174,100.607L152.073,100.607C154.263,100.607,155.604,99.335,155.604,97.075L155.604,42.549C155.604,40.289,154.263,39.018,152.073,39.018L42.174,39.018C39.984,39.018,38.642,40.289,38.642,42.549ZM44.858,93.049L44.858,46.575C44.858,45.657,45.282,45.163,46.2,45.163L148.047,45.163C148.966,45.163,149.389,45.657,149.389,46.575L149.389,93.049C149.389,93.968,148.966,94.462,148.047,94.462L46.2,94.462C45.282,94.462,44.858,93.968,44.858,93.049ZM96.841,100.607C109.131,100.607,118.383,88.388,118.383,69.742C118.383,51.237,109.131,39.018,96.841,39.018C84.905,39.018,75.935,51.237,75.935,69.742C75.935,88.388,84.905,100.607,96.841,100.607ZM96.841,93.332C89.143,93.332,83.068,84.009,83.068,69.742C83.068,55.545,89.143,46.293,96.841,46.293C104.893,46.293,111.25,55.545,111.25,69.742C111.25,84.009,104.893,93.332,96.841,93.332ZM96.841,93.332"/>
  <path stroke-dasharray="none" fill-rule="nonzero" stroke-opacity="1" stroke-linecap="butt" stroke-width="0.0625" xmlns:svg="http://www.w3.org/2000/svg" stroke="none" version="1.1" fill-opacity="1" stroke-miterlimit="4" stroke-linejoin="miter" fill="#212121" d="M22.751,111.696C22.751,114.591,24.658,116.569,27.554,116.569L166.693,116.569C169.589,116.569,171.497,114.591,171.497,111.696L171.497,27.929C171.497,25.033,169.589,23.126,166.693,23.126L27.554,23.126C24.658,23.126,22.751,25.033,22.751,27.929ZM32.921,104.633L32.921,34.992C32.921,33.721,33.345,33.297,34.687,33.297L159.56,33.297C160.901,33.297,161.325,33.721,161.325,34.992L161.325,104.633C161.325,105.904,160.901,106.328,159.56,106.328L34.687,106.328C33.345,106.328,32.921,105.904,32.921,104.633ZM32.921,104.633"/>
</g>
  <g id="Medium-L" transform="matrix(1.0,0.0,0.0,1.0,1662.0915569722877,1462.1180845002948)">  <path fill="#212121" stroke="none" fill-opacity="1" stroke-linecap="butt" stroke-dasharray="none" fill-rule="nonzero" stroke-linejoin="miter" xmlns:svg="http://www.w3.org/2000/svg" stroke-miterlimit="4" version="1.1" stroke-opacity="1" stroke-width="0.0625" d="M4.803,0C1.907,0,0,1.907,0,4.803L0,88.569C0,91.465,1.907,93.443,4.803,93.443L30.902,93.443L30.902,83.202L11.937,83.202C10.594,83.202,10.171,82.778,10.171,81.506L10.171,11.866C10.171,10.594,10.594,10.171,11.937,10.171L136.809,10.171C138.15,10.171,138.572,10.594,138.572,11.866L138.572,30.325L148.746,30.325L148.746,4.803C148.746,1.907,146.836,0,143.94,0ZM4.803,0"/>
  <path stroke-linecap="butt" fill-rule="nonzero" stroke-miterlimit="4" stroke="none" fill-opacity="1" xmlns:svg="http://www.w3.org/2000/svg" stroke-width="0.0625" version="1.1" fill="#4d4d4d" stroke-opacity="1" stroke-linejoin="miter" stroke-dasharray="none" d="M38.642,97.075C38.642,99.335,39.984,100.607,42.174,100.607L152.073,100.607C154.263,100.607,155.604,99.335,155.604,97.075L155.604,42.549C155.604,40.289,154.263,39.018,152.073,39.018L42.174,39.018C39.984,39.018,38.642,40.289,38.642,42.549ZM44.858,93.049L44.858,46.575C44.858,45.657,45.282,45.163,46.2,45.163L148.047,45.163C148.966,45.163,149.389,45.657,149.389,46.575L149.389,93.049C149.389,93.968,148.966,94.462,148.047,94.462L46.2,94.462C45.282,94.462,44.858,93.968,44.858,93.049ZM96.841,100.607C109.131,100.607,118.383,88.388,118.383,69.742C118.383,51.237,109.131,39.018,96.841,39.018C84.905,39.018,75.935,51.237,75.935,69.742C75.935,88.388,84.905,100.607,96.841,100.607ZM96.841,93.332C89.143,93.332,83.068,84.009,83.068,69.742C83.068,55.545,89.143,46.293,96.841,46.293C104.893,46.293,111.25,55.545,111.25,69.742C111.25,84.009,104.893,93.332,96.841,93.332ZM96.841,93.332"/>
  <path stroke="none" fill-rule="nonzero" stroke-miterlimit="4" stroke-linecap="butt" stroke-width="0.0625" stroke-linejoin="miter" fill-opacity="1" stroke-dasharray="none" stroke-opacity="1" fill="#212121" version="1.1" xmlns:svg="http://www.w3.org/2000/svg" d="M22.751,111.696C22.751,114.591,24.658,116.569,27.554,116.569L166.693,116.569C169.589,116.569,171.497,114.591,171.497,111.696L171.497,27.929C171.497,25.033,169.589,23.126,166.693,23.126L27.554,23.126C24.658,23.126,22.751,25.033,22.751,27.929ZM32.921,104.633L32.921,34.992C32.921,33.721,33.345,33.297,34.687,33.297L159.56,33.297C160.901,33.297,161.325,33.721,161.325,34.992L161.325,104.633C161.325,105.904,160.901,106.328,159.56,106.328L34.687,106.328C33.345,106.328,32.921,105.904,32.921,104.633ZM32.921,104.633"/>
</g>
  <g id="Regular-L" transform="matrix(1.0,0.0,0.0,1.0,1365.3815569722876,1462.1180845002948)">  <path fill="#212121" version="1.1" xmlns:svg="http://www.w3.org/2000/svg" stroke-miterlimit="4" fill-rule="nonzero" fill-opacity="1" stroke-width="0.0625" stroke-opacity="1" stroke="none" stroke-linecap="butt" stroke-linejoin="miter" stroke-dasharray="none" d="M4.803,0C1.907,0,0,1.907,0,4.803L0,88.569C0,91.465,1.907,93.443,4.803,93.443L30.902,93.443L30.902,83.202L11.937,83.202C10.594,83.202,10.171,82.778,10.171,81.506L10.171,11.866C10.171,10.594,10.594,10.171,11.937,10.171L136.809,10.171C138.15,10.171,138.572,10.594,138.572,11.866L138.572,30.325L148.746,30.325L148.746,4.803C148.746,1.907,146.836,0,143.94,0ZM4.803,0"/>
  <path stroke-opacity="1" version="1.1" stroke-miterlimit="4" stroke-dasharray="none" xmlns:svg="http://www.w3.org/2000/svg" stroke="none" stroke-linejoin="miter" stroke-linecap="butt" stroke-width="0.0625" fill-rule="nonzero" fill-opacity="1" fill="#4d4d4d" d="M38.642,97.075C38.642,99.335,39.984,100.607,42.174,100.607L152.073,100.607C154.263,100.607,155.604,99.335,155.604,97.075L155.604,42.549C155.604,40.289,154.263,39.018,152.073,39.018L42.174,39.018C39.984,39.018,38.642,40.289,38.642,42.549ZM44.858,93.049L44.858,46.575C44.858,45.657,45.282,45.163,46.2,45.163L148.047,45.163C148.966,45.163,149.389,45.657,149.389,46.575L149.389,93.049C149.389,93.968,148.966,94.462,148.047,94.462L46.2,94.462C45.282,94.462,44.858,93.968,44.858,93.049ZM96.841,100.607C109.131,100.607,118.383,88.388,118.383,69.742C118.383,51.237,109.131,39.018,96.841,39.018C84.905,39.018,75.935,51.237,75.935,69.742C75.935,88.388,84.905,100.607,96.841,100.607ZM96.841,93.332C89.143,93.332,83.068,84.009,83.068,69.742C83.068,55.545,89.143,46.293,96.841,46.293C104.893,46.293,111.25,55.545,111.25,69.742C111.25,84.009,104.893,93.332,96.841,93.332ZM96.841,93.332"/>
  <path stroke-linejoin="miter" fill-opacity="1" stroke-width="0.0625" stroke="none" fill-rule="nonzero" fill="#212121" xmlns:svg="http://www.w3.org/2000/svg" stroke-dasharray="none" stroke-linecap="butt" stroke-miterlimit="4" version="1.1" stroke-opacity="1" d="M22.751,111.696C22.751,114.591,24.658,116.569,27.554,116.569L166.693,116.569C169.589,116.569,171.497,114.591,171.497,111.696L171.497,27.929C171.497,25.033,169.589,23.126,166.693,23.126L27.554,23.126C24.658,23.126,22.751,25.033,22.751,27.929ZM32.921,104.633L32.921,34.992C32.921,33.721,33.345,33.297,34.687,33.297L159.56,33.297C160.901,33.297,161.325,33.721,161.325,34.992L161.325,104.633C161.325,105.904,160.901,106.328,159.56,106.328L34.687,106.328C33.345,106.328,32.921,105.904,32.921,104.633ZM32.921,104.633"/>
</g>
  <g id="Light-L" transform="matrix(1.0,0.0,0.0,1.0,1068.6715569722878,1462.1180845002948)">  <path fill-opacity="1" version="1.1" stroke="none" fill-rule="nonzero" stroke-linecap="butt" stroke-opacity="1" xmlns:svg="http://www.w3.org/2000/svg" stroke-dasharray="none" stroke-width="0.0625" stroke-miterlimit="4" fill="#212121" stroke-linejoin="miter" d="M4.803,0C1.907,0,0,1.907,0,4.803L0,88.569C0,91.465,1.907,93.443,4.803,93.443L30.902,93.443L30.902,83.202L11.937,83.202C10.594,83.202,10.171,82.778,10.171,81.506L10.171,11.866C10.171,10.594,10.594,10.171,11.937,10.171L136.809,10.171C138.15,10.171,138.572,10.594,138.572,11.866L138.572,30.325L148.746,30.325L148.746,4.803C148.746,1.907,146.836,0,143.94,0ZM4.803,0"/>
  <path fill-rule="nonzero" xmlns:svg="http://www.w3.org/2000/svg" fill-opacity="1" fill="#4d4d4d" stroke-linecap="butt" stroke-opacity="1" stroke-miterlimit="4" stroke="none" version="1.1" stroke-dasharray="none" stroke-linejoin="miter" stroke-width="0.0625" d="M38.642,97.075C38.642,99.335,39.984,100.607,42.174,100.607L152.073,100.607C154.263,100.607,155.604,99.335,155.604,97.075L155.604,42.549C155.604,40.289,154.263,39.018,152.073,39.018L42.174,39.018C39.984,39.018,38.642,40.289,38.642,42.549ZM44.858,93.049L44.858,46.575C44.858,45.657,45.282,45.163,46.2,45.163L148.047,45.163C148.966,45.163,149.389,45.657,149.389,46.575L149.389,93.049C149.389,93.968,148.966,94.462,148.047,94.462L46.2,94.462C45.282,94.462,44.858,93.968,44.858,93.049ZM96.841,100.607C109.131,100.607,118.383,88.388,118.383,69.742C118.383,51.237,109.131,39.018,96.841,39.018C84.905,39.018,75.935,51.237,75.935,69.742C75.935,88.388,84.905,100.607,96.841,100.607ZM96.841,93.332C89.143,93.332,83.068,84.009,83.068,69.742C83.068,55.545,89.143,46.293,96.841,46.293C104.893,46.293,111.25,55.545,111.25,69.742C111.25,84.009,104.893,93.332,96.841,93.332ZM96.841,93.332"/>
  <path fill-rule="nonzero" stroke-opacity="1" fill="#212121" stroke="none" stroke-linejoin="miter" version="1.1" xmlns:svg="http://www.w3.org/2000/svg" fill-opacity="1" stroke-dasharray="none" stroke-linecap="butt" stroke-width="0.0625" stroke-miterlimit="4" d="M22.751,111.696C22.751,114.591,24.658,116.569,27.554,116.569L166.693,116.569C169.589,116.569,171.497,114.591,171.497,111.696L171.497,27.929C171.497,25.033,169.589,23.126,166.693,23.126L27.554,23.126C24.658,23.126,22.751,25.033,22.751,27.929ZM32.921,104.633L32.921,34.992C32.921,33.721,33.345,33.297,34.687,33.297L159.56,33.297C160.901,33.297,161.325,33.721,161.325,34.992L161.325,104.633C161.325,105.904,160.901,106.328,159.56,106.328L34.687,106.328C33.345,106.328,32.921,105.904,32.921,104.633ZM32.921,104.633"/>
</g>
  <g id="Thin-L" transform="matrix(1.0,0.0,0.0,1.0,771.9615569722878,1462.1180845002948)">  <path stroke-miterlimit="4" fill-opacity="1" stroke-linejoin="miter" fill="#212121" version="1.1" stroke-opacity="1" stroke-dasharray="none" xmlns:svg="http://www.w3.org/2000/svg" stroke-width="0.0625" stroke="none" fill-rule="nonzero" stroke-linecap="butt" d="M4.803,0C1.907,0,0,1.907,0,4.803L0,88.569C0,91.465,1.907,93.443,4.803,93.443L30.902,93.443L30.902,83.202L11.937,83.202C10.594,83.202,10.171,82.778,10.171,81.506L10.171,11.866C10.171,10.594,10.594,10.171,11.937,10.171L136.809,10.171C138.15,10.171,138.572,10.594,138.572,11.866L138.572,30.325L148.746,30.325L148.746,4.803C148.746,1.907,146.836,0,143.94,0ZM4.803,0"/>
  <path stroke-opacity="1" stroke-linejoin="miter" fill-opacity="1" stroke-miterlimit="4" stroke-linecap="butt" stroke="none" fill-rule="nonzero" fill="#4d4d4d" version="1.1" xmlns:svg="http://www.w3.org/2000/svg" stroke-width="0.0625" stroke-dasharray="none" d="M38.642,97.075C38.642,99.335,39.984,100.607,42.174,100.607L152.073,100.607C154.263,100.607,155.604,99.335,155.604,97.075L155.604,42.549C155.604,40.289,154.263,39.018,152.073,39.018L42.174,39.018C39.984,39.018,38.642,40.289,38.642,42.549ZM44.858,93.049L44.858,46.575C44.858,45.657,45.282,45.163,46.2,45.163L148.047,45.163C148.966,45.163,149.389,45.657,149.389,46.575L149.389,93.049C149.389,93.968,148.966,94.462,148.047,94.462L46.2,94.462C45.282,94.462,44.858,93.968,44.858,93.049ZM96.841,100.607C109.131,100.607,118.383,88.388,118.383,69.742C118.383,51.237,109.131,39.018,96.841,39.018C84.905,39.018,75.935,51.237,75.935,69.742C75.935,88.388,84.905,100.607,96.841,100.607ZM96.841,93.332C89.143,93.332,83.068,84.009,83.068,69.742C83.068,55.545,89.143,46.293,96.841,46.293C104.893,46.293,111.25,55.545,111.25,69.742C111.25,84.009,104.893,93.332,96.841,93.332ZM96.841,93.332"/>
  <path stroke-dasharray="none" stroke-linejoin="miter" fill-opacity="1" xmlns:svg="http://www.w3.org/2000/svg" stroke-linecap="butt" stroke-opacity="1" stroke-miterlimit="4" version="1.1" fill-rule="nonzero" stroke="none" fill="#212121" stroke-width="0.0625" d="M22.751,111.696C22.751,114.591,24.658,116.569,27.554,116.569L166.693,116.569C169.589,116.569,171.497,114.591,171.497,111.696L171.497,27.929C171.497,25.033,169.589,23.126,166.693,23.126L27.554,23.126C24.658,23.126,22.751,25.033,22.751,27.929ZM32.921,104.633L32.921,34.992C32.921,33.721,33.345,33.297,34.687,33.297L159.56,33.297C160.901,33.297,161.325,33.721,161.325,34.992L161.325,104.633C161.325,105.904,160.901,106.328,159.56,106.328L34.687,106.328C33.345,106.328,32.921,105.904,32.921,104.633ZM32.921,104.633"/>
</g>
  <g id="Ultralight-L" transform="matrix(1.0,0.0,0.0,1.0,475.25155697228774,1462.1180845002948)">  <path stroke-linecap="butt" stroke-opacity="1" stroke-dasharray="none" fill="#212121" xmlns:svg="http://www.w3.org/2000/svg" stroke-miterlimit="4" stroke-width="0.0625" fill-rule="nonzero" fill-opacity="1" version="1.1" stroke-linejoin="miter" stroke="none" d="M4.803,0C1.907,0,0,1.907,0,4.803L0,88.569C0,91.465,1.907,93.443,4.803,93.443L30.902,93.443L30.902,83.202L11.937,83.202C10.594,83.202,10.171,82.778,10.171,81.506L10.171,11.866C10.171,10.594,10.594,10.171,11.937,10.171L136.809,10.171C138.15,10.171,138.572,10.594,138.572,11.866L138.572,30.325L148.746,30.325L148.746,4.803C148.746,1.907,146.836,0,143.94,0ZM4.803,0"/>
  <path version="1.1" stroke-linejoin="miter" stroke-miterlimit="4" fill-rule="nonzero" xmlns:svg="http://www.w3.org/2000/svg" stroke-dasharray="none" fill="#4d4d4d" stroke="none" stroke-linecap="butt" stroke-opacity="1" fill-opacity="1" stroke-width="0.0625" d="M38.642,97.075C38.642,99.335,39.984,100.607,42.174,100.607L152.073,100.607C154.263,100.607,155.604,99.335,155.604,97.075L155.604,42.549C155.604,40.289,154.263,39.018,152.073,39.018L42.174,39.018C39.984,39.018,38.642,40.289,38.642,42.549ZM44.858,93.049L44.858,46.575C44.858,45.657,45.282,45.163,46.2,45.163L148.047,45.163C148.966,45.163,149.389,45.657,149.389,46.575L149.389,93.049C149.389,93.968,148.966,94.462,148.047,94.462L46.2,94.462C45.282,94.462,44.858,93.968,44.858,93.049ZM96.841,100.607C109.131,100.607,118.383,88.388,118.383,69.742C118.383,51.237,109.131,39.018,96.841,39.018C84.905,39.018,75.935,51.237,75.935,69.742C75.935,88.388,84.905,100.607,96.841,100.607ZM96.841,93.332C89.143,93.332,83.068,84.009,83.068,69.742C83.068,55.545,89.143,46.293,96.841,46.293C104.893,46.293,111.25,55.545,111.25,69.742C111.25,84.009,104.893,93.332,96.841,93.332ZM96.841,93.332"/>
  <path xmlns:svg="http://www.w3.org/2000/svg" stroke="none" stroke-miterlimit="4" stroke-width="0.0625" fill="#212121" stroke-opacity="1" version="1.1" fill-rule="nonzero" stroke-linecap="butt" stroke-linejoin="miter" stroke-dasharray="none" fill-opacity="1" d="M22.751,111.696C22.751,114.591,24.658,116.569,27.554,116.569L166.693,116.569C169.589,116.569,171.497,114.591,171.497,111.696L171.497,27.929C171.497,25.033,169.589,23.126,166.693,23.126L27.554,23.126C24.658,23.126,22.751,25.033,22.751,27.929ZM32.921,104.633L32.921,34.992C32.921,33.721,33.345,33.297,34.687,33.297L159.56,33.297C160.901,33.297,161.325,33.721,161.325,34.992L161.325,104.633C161.325,105.904,160.901,106.328,159.56,106.328L34.687,106.328C33.345,106.328,32.921,105.904,32.921,104.633ZM32.921,104.633"/>
</g>
  <g id="Black-M" transform="matrix(1.0,0.0,0.0,1.0,2868.208338738207,1045.303403228184)">  <path stroke-miterlimit="4" stroke-linejoin="miter" stroke-opacity="1" xmlns:svg="http://www.w3.org/2000/svg" fill-opacity="1" stroke-linecap="butt" fill="#212121" stroke="none" stroke-width="0.0625" stroke-dasharray="none" version="1.1" fill-rule="nonzero" d="M3.723,0C1.478,0,0,1.478,0,3.723L0,68.658C0,70.903,1.478,72.436,3.723,72.436L23.955,72.436L23.955,64.497L9.253,64.497C8.213,64.497,7.884,64.169,7.884,63.183L7.884,9.198C7.884,8.213,8.213,7.884,9.253,7.884L106.054,7.884C107.093,7.884,107.42,8.213,107.42,9.198L107.42,23.508L115.307,23.508L115.307,3.723C115.307,1.478,113.826,0,111.582,0ZM3.723,0"/>
  <path fill-rule="nonzero" fill="#4d4d4d" stroke="none" stroke-dasharray="none" fill-opacity="1" stroke-miterlimit="4" xmlns:svg="http://www.w3.org/2000/svg" version="1.1" stroke-linejoin="miter" stroke-linecap="butt" stroke-opacity="1" stroke-width="0.0625" d="M29.955,75.252C29.955,77.004,30.996,77.99,32.693,77.99L117.886,77.99C119.584,77.99,120.623,77.004,120.623,75.252L120.623,32.984C120.623,31.232,119.584,30.246,117.886,30.246L32.693,30.246C30.996,30.246,29.955,31.232,29.955,32.984ZM34.773,72.131L34.773,36.105C34.773,35.393,35.102,35.01,35.814,35.01L114.765,35.01C115.477,35.01,115.806,35.393,115.806,36.105L115.806,72.131C115.806,72.843,115.477,73.226,114.765,73.226L35.814,73.226C35.102,73.226,34.773,72.843,34.773,72.131ZM75.071,77.99C84.597,77.99,91.77,68.518,91.77,54.063C91.77,39.718,84.597,30.246,75.071,30.246C65.818,30.246,58.864,39.718,58.864,54.063C58.864,68.518,65.818,77.99,75.071,77.99ZM75.071,72.35C69.103,72.35,64.394,65.123,64.394,54.063C64.394,43.058,69.103,35.886,75.071,35.886C81.312,35.886,86.24,43.058,86.24,54.063C86.24,65.123,81.312,72.35,75.071,72.35ZM75.071,72.35"/>
  <path stroke-miterlimit="4" fill-opacity="1" stroke-opacity="1" stroke-linejoin="miter" stroke-dasharray="none" xmlns:svg="http://www.w3.org/2000/svg" fill="#212121" stroke-width="0.0625" stroke-linecap="butt" stroke="none" fill-rule="nonzero" version="1.1" d="M17.636,86.586C17.636,88.831,19.115,90.364,21.359,90.364L129.219,90.364C131.464,90.364,132.943,88.831,132.943,86.586L132.943,21.65C132.943,19.406,131.464,17.927,129.219,17.927L21.359,17.927C19.115,17.927,17.636,19.406,17.636,21.65ZM25.52,81.111L25.52,27.126C25.52,26.14,25.849,25.812,26.889,25.812L123.69,25.812C124.73,25.812,125.058,26.14,125.058,27.126L125.058,81.111C125.058,82.096,124.73,82.425,123.69,82.425L26.889,82.425C25.849,82.425,25.52,82.096,25.52,81.111ZM25.52,81.111"/>
</g>
  <g id="Heavy-M" transform="matrix(1.0,0.0,0.0,1.0,2571.498338738207,1045.303403228184)">  <path fill-rule="nonzero" fill-opacity="1" version="1.1" stroke-width="0.0625" stroke-dasharray="none" stroke-miterlimit="4" stroke-linejoin="miter" stroke="none" stroke-linecap="butt" fill="#212121" stroke-opacity="1" xmlns:svg="http://www.w3.org/2000/svg" d="M3.723,0C1.478,0,0,1.478,0,3.723L0,68.658C0,70.903,1.478,72.436,3.723,72.436L23.955,72.436L23.955,64.497L9.253,64.497C8.213,64.497,7.884,64.169,7.884,63.183L7.884,9.198C7.884,8.213,8.213,7.884,9.253,7.884L106.054,7.884C107.093,7.884,107.42,8.213,107.42,9.198L107.42,23.508L115.307,23.508L115.307,3.723C115.307,1.478,113.826,0,111.582,0ZM3.723,0"/>
  <path fill-opacity="1" stroke-width="0.0625" fill="#4d4d4d" stroke-dasharray="none" stroke-opacity="1" version="1.1" stroke-linecap="butt" stroke="none" stroke-miterlimit="4" xmlns:svg="http://www.w3.org/2000/svg" fill-rule="nonzero" stroke-linejoin="miter" d="M29.955,75.252C29.955,77.004,30.996,77.99,32.693,77.99L117.886,77.99C119.584,77.99,120.623,77.004,120.623,75.252L120.623,32.984C120.623,31.232,119.584,30.246,117.886,30.246L32.693,30.246C30.996,30.246,29.955,31.232,29.955,32.984ZM34.773,72.131L34.773,36.105C34.773,35.393,35.102,35.01,35.814,35.01L114.765,35.01C115.477,35.01,115.806,35.393,115.806,36.105L115.806,72.131C115.806,72.843,115.477,73.226,114.765,73.226L35.814,73.226C35.102,73.226,34.773,72.843,34.773,72.131ZM75.071,77.99C84.597,77.99,91.77,68.518,91.77,54.063C91.77,39.718,84.597,30.246,75.071,30.246C65.818,30.246,58.864,39.718,58.864,54.063C58.864,68.518,65.818,77.99,75.071,77.99ZM75.071,72.35C69.103,72.35,64.394,65.123,64.394,54.063C64.394,43.058,69.103,35.886,75.071,35.886C81.312,35.886,86.24,43.058,86.24,54.063C86.24,65.123,81.312,72.35,75.071,72.35ZM75.071,72.35"/>
  <path fill-opacity="1" version="1.1" stroke-linecap="butt" stroke-opacity="1" stroke-miterlimit="4" fill="#212121" stroke-width="0.0625" stroke-dasharray="none" xmlns:svg="http://www.w3.org/2000/svg" stroke="none" fill-rule="nonzero" stroke-linejoin="miter" d="M17.636,86.586C17.636,88.831,19.115,90.364,21.359,90.364L129.219,90.364C131.464,90.364,132.943,88.831,132.943,86.586L132.943,21.65C132.943,19.406,131.464,17.927,129.219,17.927L21.359,17.927C19.115,17.927,17.636,19.406,17.636,21.65ZM25.52,81.111L25.52,27.126C25.52,26.14,25.849,25.812,26.889,25.812L123.69,25.812C124.73,25.812,125.058,26.14,125.058,27.126L125.058,81.111C125.058,82.096,124.73,82.425,123.69,82.425L26.889,82.425C25.849,82.425,25.52,82.096,25.52,81.111ZM25.52,81.111"/>
</g>
  <g id="Bold-M" transform="matrix(1.0,0.0,0.0,1.0,2274.788338738207,1045.303403228184)">  <path stroke-width="0.0625" version="1.1" stroke="none" stroke-dasharray="none" stroke-linecap="butt" stroke-linejoin="miter" xmlns:svg="http://www.w3.org/2000/svg" fill="#212121" fill-rule="nonzero" fill-opacity="1" stroke-opacity="1" stroke-miterlimit="4" d="M3.723,0C1.478,0,0,1.478,0,3.723L0,68.658C0,70.903,1.478,72.436,3.723,72.436L23.955,72.436L23.955,64.497L9.253,64.497C8.213,64.497,7.884,64.169,7.884,63.183L7.884,9.198C7.884,8.213,8.213,7.884,9.253,7.884L106.054,7.884C107.093,7.884,107.42,8.213,107.42,9.198L107.42,23.508L115.307,23.508L115.307,3.723C115.307,1.478,113.826,0,111.582,0ZM3.723,0"/>
  <path version="1.1" stroke-width="0.0625" stroke-miterlimit="4" stroke-linecap="butt" stroke-linejoin="miter" fill-opacity="1" stroke-dasharray="none" fill="#4d4d4d" stroke="none" stroke-opacity="1" xmlns:svg="http://www.w3.org/2000/svg" fill-rule="nonzero" d="M29.955,75.252C29.955,77.004,30.996,77.99,32.693,77.99L117.886,77.99C119.584,77.99,120.623,77.004,120.623,75.252L120.623,32.984C120.623,31.232,119.584,30.246,117.886,30.246L32.693,30.246C30.996,30.246,29.955,31.232,29.955,32.984ZM34.773,72.131L34.773,36.105C34.773,35.393,35.102,35.01,35.814,35.01L114.765,35.01C115.477,35.01,115.806,35.393,115.806,36.105L115.806,72.131C115.806,72.843,115.477,73.226,114.765,73.226L35.814,73.226C35.102,73.226,34.773,72.843,34.773,72.131ZM75.071,77.99C84.597,77.99,91.77,68.518,91.77,54.063C91.77,39.718,84.597,30.246,75.071,30.246C65.818,30.246,58.864,39.718,58.864,54.063C58.864,68.518,65.818,77.99,75.071,77.99ZM75.071,72.35C69.103,72.35,64.394,65.123,64.394,54.063C64.394,43.058,69.103,35.886,75.071,35.886C81.312,35.886,86.24,43.058,86.24,54.063C86.24,65.123,81.312,72.35,75.071,72.35ZM75.071,72.35"/>
  <path stroke-linejoin="miter" stroke-miterlimit="4" version="1.1" stroke-dasharray="none" stroke-linecap="butt" stroke-width="0.0625" stroke-opacity="1" fill-opacity="1" stroke="none" fill="#212121" fill-rule="nonzero" xmlns:svg="http://www.w3.org/2000/svg" d="M17.636,86.586C17.636,88.831,19.115,90.364,21.359,90.364L129.219,90.364C131.464,90.364,132.943,88.831,132.943,86.586L132.943,21.65C132.943,19.406,131.464,17.927,129.219,17.927L21.359,17.927C19.115,17.927,17.636,19.406,17.636,21.65ZM25.52,81.111L25.52,27.126C25.52,26.14,25.849,25.812,26.889,25.812L123.69,25.812C124.73,25.812,125.058,26.14,125.058,27.126L125.058,81.111C125.058,82.096,124.73,82.425,123.69,82.425L26.889,82.425C25.849,82.425,25.52,82.096,25.52,81.111ZM25.52,81.111"/>
</g>
  <g id="Semibold-M" transform="matrix(1.0,0.0,0.0,1.0,1978.0783387382075,1045.303403228184)">  <path version="1.1" xmlns:svg="http://www.w3.org/2000/svg" stroke-miterlimit="4" stroke-dasharray="none" stroke-linecap="butt" fill-opacity="1" fill="#212121" stroke-linejoin="miter" stroke="none" fill-rule="nonzero" stroke-opacity="1" stroke-width="0.0625" d="M3.723,0C1.478,0,0,1.478,0,3.723L0,68.658C0,70.903,1.478,72.436,3.723,72.436L23.955,72.436L23.955,64.497L9.253,64.497C8.213,64.497,7.884,64.169,7.884,63.183L7.884,9.198C7.884,8.213,8.213,7.884,9.253,7.884L106.054,7.884C107.093,7.884,107.42,8.213,107.42,9.198L107.42,23.508L115.307,23.508L115.307,3.723C115.307,1.478,113.826,0,111.582,0ZM3.723,0"/>
  <path fill-rule="nonzero" version="1.1" xmlns:svg="http://www.w3.org/2000/svg" stroke-dasharray="none" stroke="none" stroke-opacity="1" stroke-linecap="butt" stroke-width="0.0625" fill-opacity="1" stroke-miterlimit="4" fill="#4d4d4d" stroke-linejoin="miter" d="M29.955,75.252C29.955,77.004,30.996,77.99,32.693,77.99L117.886,77.99C119.584,77.99,120.623,77.004,120.623,75.252L120.623,32.984C120.623,31.232,119.584,30.246,117.886,30.246L32.693,30.246C30.996,30.246,29.955,31.232,29.955,32.984ZM34.773,72.131L34.773,36.105C34.773,35.393,35.102,35.01,35.814,35.01L114.765,35.01C115.477,35.01,115.806,35.393,115.806,36.105L115.806,72.131C115.806,72.843,115.477,73.226,114.765,73.226L35.814,73.226C35.102,73.226,34.773,72.843,34.773,72.131ZM75.071,77.99C84.597,77.99,91.77,68.518,91.77,54.063C91.77,39.718,84.597,30.246,75.071,30.246C65.818,30.246,58.864,39.718,58.864,54.063C58.864,68.518,65.818,77.99,75.071,77.99ZM75.071,72.35C69.103,72.35,64.394,65.123,64.394,54.063C64.394,43.058,69.103,35.886,75.071,35.886C81.312,35.886,86.24,43.058,86.24,54.063C86.24,65.123,81.312,72.35,75.071,72.35ZM75.071,72.35"/>
  <path stroke-dasharray="none" fill-rule="nonzero" stroke-opacity="1" stroke-linecap="butt" stroke-width="0.0625" xmlns:svg="http://www.w3.org/2000/svg" stroke="none" version="1.1" fill-opacity="1" stroke-miterlimit="4" stroke-linejoin="miter" fill="#212121" d="M17.636,86.586C17.636,88.831,19.115,90.364,21.359,90.364L129.219,90.364C131.464,90.364,132.943,88.831,132.943,86.586L132.943,21.65C132.943,19.406,131.464,17.927,129.219,17.927L21.359,17.927C19.115,17.927,17.636,19.406,17.636,21.65ZM25.52,81.111L25.52,27.126C25.52,26.14,25.849,25.812,26.889,25.812L123.69,25.812C124.73,25.812,125.058,26.14,125.058,27.126L125.058,81.111C125.058,82.096,124.73,82.425,123.69,82.425L26.889,82.425C25.849,82.425,25.52,82.096,25.52,81.111ZM25.52,81.111"/>
</g>
  <g id="Medium-M" transform="matrix(1.0,0.0,0.0,1.0,1681.3683387382075,1045.303403228184)">  <path fill="#212121" stroke="none" fill-opacity="1" stroke-linecap="butt" stroke-dasharray="none" fill-rule="nonzero" stroke-linejoin="miter" xmlns:svg="http://www.w3.org/2000/svg" stroke-miterlimit="4" version="1.1" stroke-opacity="1" stroke-width="0.0625" d="M3.723,0C1.478,0,0,1.478,0,3.723L0,68.658C0,70.903,1.478,72.436,3.723,72.436L23.955,72.436L23.955,64.497L9.253,64.497C8.213,64.497,7.884,64.169,7.884,63.183L7.884,9.198C7.884,8.213,8.213,7.884,9.253,7.884L106.054,7.884C107.093,7.884,107.42,8.213,107.42,9.198L107.42,23.508L115.307,23.508L115.307,3.723C115.307,1.478,113.826,0,111.582,0ZM3.723,0"/>
  <path stroke-linecap="butt" fill-rule="nonzero" stroke-miterlimit="4" stroke="none" fill-opacity="1" xmlns:svg="http://www.w3.org/2000/svg" stroke-width="0.0625" version="1.1" fill="#4d4d4d" stroke-opacity="1" stroke-linejoin="miter" stroke-dasharray="none" d="M29.955,75.252C29.955,77.004,30.996,77.99,32.693,77.99L117.886,77.99C119.584,77.99,120.623,77.004,120.623,75.252L120.623,32.984C120.623,31.232,119.584,30.246,117.886,30.246L32.693,30.246C30.996,30.246,29.955,31.232,29.955,32.984ZM34.773,72.131L34.773,36.105C34.773,35.393,35.102,35.01,35.814,35.01L114.765,35.01C115.477,35.01,115.806,35.393,115.806,36.105L115.806,72.131C115.806,72.843,115.477,73.226,114.765,73.226L35.814,73.226C35.102,73.226,34.773,72.843,34.773,72.131ZM75.071,77.99C84.597,77.99,91.77,68.518,91.77,54.063C91.77,39.718,84.597,30.246,75.071,30.246C65.818,30.246,58.864,39.718,58.864,54.063C58.864,68.518,65.818,77.99,75.071,77.99ZM75.071,72.35C69.103,72.35,64.394,65.123,64.394,54.063C64.394,43.058,69.103,35.886,75.071,35.886C81.312,35.886,86.24,43.058,86.24,54.063C86.24,65.123,81.312,72.35,75.071,72.35ZM75.071,72.35"/>
  <path stroke="none" fill-rule="nonzero" stroke-miterlimit="4" stroke-linecap="butt" stroke-width="0.0625" stroke-linejoin="miter" fill-opacity="1" stroke-dasharray="none" stroke-opacity="1" fill="#212121" version="1.1" xmlns:svg="http://www.w3.org/2000/svg" d="M17.636,86.586C17.636,88.831,19.115,90.364,21.359,90.364L129.219,90.364C131.464,90.364,132.943,88.831,132.943,86.586L132.943,21.65C132.943,19.406,131.464,17.927,129.219,17.927L21.359,17.927C19.115,17.927,17.636,19.406,17.636,21.65ZM25.52,81.111L25.52,27.126C25.52,26.14,25.849,25.812,26.889,25.812L123.69,25.812C124.73,25.812,125.058,26.14,125.058,27.126L125.058,81.111C125.058,82.096,124.73,82.425,123.69,82.425L26.889,82.425C25.849,82.425,25.52,82.096,25.52,81.111ZM25.52,81.111"/>
</g>
  <g id="Regular-M" transform="matrix(1.0,0.0,0.0,1.0,1384.6583387382075,1045.303403228184)">  <path fill="#212121" version="1.1" xmlns:svg="http://www.w3.org/2000/svg" stroke-miterlimit="4" fill-rule="nonzero" fill-opacity="1" stroke-width="0.0625" stroke-opacity="1" stroke="none" stroke-linecap="butt" stroke-linejoin="miter" stroke-dasharray="none" d="M3.723,0C1.478,0,0,1.478,0,3.723L0,68.658C0,70.903,1.478,72.436,3.723,72.436L23.955,72.436L23.955,64.497L9.253,64.497C8.213,64.497,7.884,64.169,7.884,63.183L7.884,9.198C7.884,8.213,8.213,7.884,9.253,7.884L106.054,7.884C107.093,7.884,107.42,8.213,107.42,9.198L107.42,23.508L115.307,23.508L115.307,3.723C115.307,1.478,113.826,0,111.582,0ZM3.723,0"/>
  <path stroke-opacity="1" version="1.1" stroke-miterlimit="4" stroke-dasharray="none" xmlns:svg="http://www.w3.org/2000/svg" stroke="none" stroke-linejoin="miter" stroke-linecap="butt" stroke-width="0.0625" fill-rule="nonzero" fill-opacity="1" fill="#4d4d4d" d="M29.955,75.252C29.955,77.004,30.996,77.99,32.693,77.99L117.886,77.99C119.584,77.99,120.623,77.004,120.623,75.252L120.623,32.984C120.623,31.232,119.584,30.246,117.886,30.246L32.693,30.246C30.996,30.246,29.955,31.232,29.955,32.984ZM34.773,72.131L34.773,36.105C34.773,35.393,35.102,35.01,35.814,35.01L114.765,35.01C115.477,35.01,115.806,35.393,115.806,36.105L115.806,72.131C115.806,72.843,115.477,73.226,114.765,73.226L35.814,73.226C35.102,73.226,34.773,72.843,34.773,72.131ZM75.071,77.99C84.597,77.99,91.77,68.518,91.77,54.063C91.77,39.718,84.597,30.246,75.071,30.246C65.818,30.246,58.864,39.718,58.864,54.063C58.864,68.518,65.818,77.99,75.071,77.99ZM75.071,72.35C69.103,72.35,64.394,65.123,64.394,54.063C64.394,43.058,69.103,35.886,75.071,35.886C81.312,35.886,86.24,43.058,86.24,54.063C86.24,65.123,81.312,72.35,75.071,72.35ZM75.071,72.35"/>
  <path stroke-linejoin="miter" fill-opacity="1" stroke-width="0.0625" stroke="none" fill-rule="nonzero" fill="#212121" xmlns:svg="http://www.w3.org/2000/svg" stroke-dasharray="none" stroke-linecap="butt" stroke-miterlimit="4" version="1.1" stroke-opacity="1" d="M17.636,86.586C17.636,88.831,19.115,90.364,21.359,90.364L129.219,90.364C131.464,90.364,132.943,88.831,132.943,86.586L132.943,21.65C132.943,19.406,131.464,17.927,129.219,17.927L21.359,17.927C19.115,17.927,17.636,19.406,17.636,21.65ZM25.52,81.111L25.52,27.126C25.52,26.14,25.849,25.812,26.889,25.812L123.69,25.812C124.73,25.812,125.058,26.14,125.058,27.126L125.058,81.111C125.058,82.096,124.73,82.425,123.69,82.425L26.889,82.425C25.849,82.425,25.52,82.096,25.52,81.111ZM25.52,81.111"/>
</g>
  <g id="Light-M" transform="matrix(1.0,0.0,0.0,1.0,1087.9483387382077,1045.303403228184)">  <path fill-opacity="1" version="1.1" stroke="none" fill-rule="nonzero" stroke-linecap="butt" stroke-opacity="1" xmlns:svg="http://www.w3.org/2000/svg" stroke-dasharray="none" stroke-width="0.0625" stroke-miterlimit="4" fill="#212121" stroke-linejoin="miter" d="M3.723,0C1.478,0,0,1.478,0,3.723L0,68.658C0,70.903,1.478,72.436,3.723,72.436L23.955,72.436L23.955,64.497L9.253,64.497C8.213,64.497,7.884,64.169,7.884,63.183L7.884,9.198C7.884,8.213,8.213,7.884,9.253,7.884L106.054,7.884C107.093,7.884,107.42,8.213,107.42,9.198L107.42,23.508L115.307,23.508L115.307,3.723C115.307,1.478,113.826,0,111.582,0ZM3.723,0"/>
  <path fill-rule="nonzero" xmlns:svg="http://www.w3.org/2000/svg" fill-opacity="1" fill="#4d4d4d" stroke-linecap="butt" stroke-opacity="1" stroke-miterlimit="4" stroke="none" version="1.1" stroke-dasharray="none" stroke-linejoin="miter" stroke-width="0.0625" d="M29.955,75.252C29.955,77.004,30.996,77.99,32.693,77.99L117.886,77.99C119.584,77.99,120.623,77.004,120.623,75.252L120.623,32.984C120.623,31.232,119.584,30.246,117.886,30.246L32.693,30.246C30.996,30.246,29.955,31.232,29.955,32.984ZM34.773,72.131L34.773,36.105C34.773,35.393,35.102,35.01,35.814,35.01L114.765,35.01C115.477,35.01,115.806,35.393,115.806,36.105L115.806,72.131C115.806,72.843,115.477,73.226,114.765,73.226L35.814,73.226C35.102,73.226,34.773,72.843,34.773,72.131ZM75.071,77.99C84.597,77.99,91.77,68.518,91.77,54.063C91.77,39.718,84.597,30.246,75.071,30.246C65.818,30.246,58.864,39.718,58.864,54.063C58.864,68.518,65.818,77.99,75.071,77.99ZM75.071,72.35C69.103,72.35,64.394,65.123,64.394,54.063C64.394,43.058,69.103,35.886,75.071,35.886C81.312,35.886,86.24,43.058,86.24,54.063C86.24,65.123,81.312,72.35,75.071,72.35ZM75.071,72.35"/>
  <path fill-rule="nonzero" stroke-opacity="1" fill="#212121" stroke="none" stroke-linejoin="miter" version="1.1" xmlns:svg="http://www.w3.org/2000/svg" fill-opacity="1" stroke-dasharray="none" stroke-linecap="butt" stroke-width="0.0625" stroke-miterlimit="4" d="M17.636,86.586C17.636,88.831,19.115,90.364,21.359,90.364L129.219,90.364C131.464,90.364,132.943,88.831,132.943,86.586L132.943,21.65C132.943,19.406,131.464,17.927,129.219,17.927L21.359,17.927C19.115,17.927,17.636,19.406,17.636,21.65ZM25.52,81.111L25.52,27.126C25.52,26.14,25.849,25.812,26.889,25.812L123.69,25.812C124.73,25.812,125.058,26.14,125.058,27.126L125.058,81.111C125.058,82.096,124.73,82.425,123.69,82.425L26.889,82.425C25.849,82.425,25.52,82.096,25.52,81.111ZM25.52,81.111"/>
</g>
  <g id="Thin-M" transform="matrix(1.0,0.0,0.0,1.0,791.2383387382076,1045.303403228184)">  <path stroke-miterlimit="4" fill-opacity="1" stroke-linejoin="miter" fill="#212121" version="1.1" stroke-opacity="1" stroke-dasharray="none" xmlns:svg="http://www.w3.org/2000/svg" stroke-width="0.0625" stroke="none" fill-rule="nonzero" stroke-linecap="butt" d="M3.723,0C1.478,0,0,1.478,0,3.723L0,68.658C0,70.903,1.478,72.436,3.723,72.436L23.955,72.436L23.955,64.497L9.253,64.497C8.213,64.497,7.884,64.169,7.884,63.183L7.884,9.198C7.884,8.213,8.213,7.884,9.253,7.884L106.054,7.884C107.093,7.884,107.42,8.213,107.42,9.198L107.42,23.508L115.307,23.508L115.307,3.723C115.307,1.478,113.826,0,111.582,0ZM3.723,0"/>
  <path stroke-opacity="1" stroke-linejoin="miter" fill-opacity="1" stroke-miterlimit="4" stroke-linecap="butt" stroke="none" fill-rule="nonzero" fill="#4d4d4d" version="1.1" xmlns:svg="http://www.w3.org/2000/svg" stroke-width="0.0625" stroke-dasharray="none" d="M29.955,75.252C29.955,77.004,30.996,77.99,32.693,77.99L117.886,77.99C119.584,77.99,120.623,77.004,120.623,75.252L120.623,32.984C120.623,31.232,119.584,30.246,117.886,30.246L32.693,30.246C30.996,30.246,29.955,31.232,29.955,32.984ZM34.773,72.131L34.773,36.105C34.773,35.393,35.102,35.01,35.814,35.01L114.765,35.01C115.477,35.01,115.806,35.393,115.806,36.105L115.806,72.131C115.806,72.843,115.477,73.226,114.765,73.226L35.814,73.226C35.102,73.226,34.773,72.843,34.773,72.131ZM75.071,77.99C84.597,77.99,91.77,68.518,91.77,54.063C91.77,39.718,84.597,30.246,75.071,30.246C65.818,30.246,58.864,39.718,58.864,54.063C58.864,68.518,65.818,77.99,75.071,77.99ZM75.071,72.35C69.103,72.35,64.394,65.123,64.394,54.063C64.394,43.058,69.103,35.886,75.071,35.886C81.312,35.886,86.24,43.058,86.24,54.063C86.24,65.123,81.312,72.35,75.071,72.35ZM75.071,72.35"/>
  <path stroke-dasharray="none" stroke-linejoin="miter" fill-opacity="1" xmlns:svg="http://www.w3.org/2000/svg" stroke-linecap="butt" stroke-opacity="1" stroke-miterlimit="4" version="1.1" fill-rule="nonzero" stroke="none" fill="#212121" stroke-width="0.0625" d="M17.636,86.586C17.636,88.831,19.115,90.364,21.359,90.364L129.219,90.364C131.464,90.364,132.943,88.831,132.943,86.586L132.943,21.65C132.943,19.406,131.464,17.927,129.219,17.927L21.359,17.927C19.115,17.927,17.636,19.406,17.636,21.65ZM25.52,81.111L25.52,27.126C25.52,26.14,25.849,25.812,26.889,25.812L123.69,25.812C124.73,25.812,125.058,26.14,125.058,27.126L125.058,81.111C125.058,82.096,124.73,82.425,123.69,82.425L26.889,82.425C25.849,82.425,25.52,82.096,25.52,81.111ZM25.52,81.111"/>
</g>
  <g id="Ultralight-M" transform="matrix(1.0,0.0,0.0,1.0,494.52833873820754,1045.303403228184)">  <path stroke-linecap="butt" stroke-opacity="1" stroke-dasharray="none" fill="#212121" xmlns:svg="http://www.w3.org/2000/svg" stroke-miterlimit="4" stroke-width="0.0625" fill-rule="nonzero" fill-opacity="1" version="1.1" stroke-linejoin="miter" stroke="none" d="M3.723,0C1.478,0,0,1.478,0,3.723L0,68.658C0,70.903,1.478,72.436,3.723,72.436L23.955,72.436L23.955,64.497L9.253,64.497C8.213,64.497,7.884,64.169,7.884,63.183L7.884,9.198C7.884,8.213,8.213,7.884,9.253,7.884L106.054,7.884C107.093,7.884,107.42,8.213,107.42,9.198L107.42,23.508L115.307,23.508L115.307,3.723C115.307,1.478,113.826,0,111.582,0ZM3.723,0"/>
  <path version="1.1" stroke-linejoin="miter" stroke-miterlimit="4" fill-rule="nonzero" xmlns:svg="http://www.w3.org/2000/svg" stroke-dasharray="none" fill="#4d4d4d" stroke="none" stroke-linecap="butt" stroke-opacity="1" fill-opacity="1" stroke-width="0.0625" d="M29.955,75.252C29.955,77.004,30.996,77.99,32.693,77.99L117.886,77.99C119.584,77.99,120.623,77.004,120.623,75.252L120.623,32.984C120.623,31.232,119.584,30.246,117.886,30.246L32.693,30.246C30.996,30.246,29.955,31.232,29.955,32.984ZM34.773,72.131L34.773,36.105C34.773,35.393,35.102,35.01,35.814,35.01L114.765,35.01C115.477,35.01,115.806,35.393,115.806,36.105L115.806,72.131C115.806,72.843,115.477,73.226,114.765,73.226L35.814,73.226C35.102,73.226,34.773,72.843,34.773,72.131ZM75.071,77.99C84.597,77.99,91.77,68.518,91.77,54.063C91.77,39.718,84.597,30.246,75.071,30.246C65.818,30.246,58.864,39.718,58.864,54.063C58.864,68.518,65.818,77.99,75.071,77.99ZM75.071,72.35C69.103,72.35,64.394,65.123,64.394,54.063C64.394,43.058,69.103,35.886,75.071,35.886C81.312,35.886,86.24,43.058,86.24,54.063C86.24,65.123,81.312,72.35,75.071,72.35ZM75.071,72.35"/>
  <path xmlns:svg="http://www.w3.org/2000/svg" stroke="none" stroke-miterlimit="4" stroke-width="0.0625" fill="#212121" stroke-opacity="1" version="1.1" fill-rule="nonzero" stroke-linecap="butt" stroke-linejoin="miter" stroke-dasharray="none" fill-opacity="1" d="M17.636,86.586C17.636,88.831,19.115,90.364,21.359,90.364L129.219,90.364C131.464,90.364,132.943,88.831,132.943,86.586L132.943,21.65C132.943,19.406,131.464,17.927,129.219,17.927L21.359,17.927C19.115,17.927,17.636,19.406,17.636,21.65ZM25.52,81.111L25.52,27.126C25.52,26.14,25.849,25.812,26.889,25.812L123.69,25.812C124.73,25.812,125.058,26.14,125.058,27.126L125.058,81.111C125.058,82.096,124.73,82.425,123.69,82.425L26.889,82.425C25.849,82.425,25.52,82.096,25.52,81.111ZM25.52,81.111"/>
</g>
  <g id="Black-S" transform="matrix(1.0,0.0,0.0,1.0,2882.632689232016,625.1696589659493)">  <path stroke-miterlimit="4" stroke-linejoin="miter" stroke-opacity="1" xmlns:svg="http://www.w3.org/2000/svg" fill-opacity="1" stroke-linecap="butt" fill="#212121" stroke="none" stroke-width="0.0625" stroke-dasharray="none" version="1.1" fill-rule="nonzero" d="M2.915,0C1.158,0,0,1.158,0,2.915L0,53.76C0,55.517,1.158,56.718,2.915,56.718L18.757,56.718L18.757,50.501L7.245,50.501C6.431,50.501,6.173,50.244,6.173,49.472L6.173,7.202C6.173,6.431,6.431,6.173,7.245,6.173L83.04,6.173C83.854,6.173,84.11,6.431,84.11,7.202L84.11,18.407L90.285,18.407L90.285,2.915C90.285,1.158,89.126,0,87.368,0ZM2.915,0"/>
  <path fill-rule="nonzero" fill="#4d4d4d" stroke="none" stroke-dasharray="none" fill-opacity="1" stroke-miterlimit="4" xmlns:svg="http://www.w3.org/2000/svg" version="1.1" stroke-linejoin="miter" stroke-linecap="butt" stroke-opacity="1" stroke-width="0.0625" d="M23.455,58.922C23.455,60.294,24.27,61.066,25.599,61.066L92.305,61.066C93.634,61.066,94.448,60.294,94.448,58.922L94.448,25.826C94.448,24.455,93.634,23.683,92.305,23.683L25.599,23.683C24.27,23.683,23.455,24.455,23.455,25.826ZM27.228,56.479L27.228,28.27C27.228,27.713,27.485,27.413,28.042,27.413L89.861,27.413C90.419,27.413,90.676,27.713,90.676,28.27L90.676,56.479C90.676,57.036,90.419,57.336,89.861,57.336L28.042,57.336C27.485,57.336,27.228,57.036,27.228,56.479ZM58.78,61.066C66.24,61.066,71.856,53.649,71.856,42.332C71.856,31.1,66.24,23.683,58.78,23.683C51.535,23.683,46.091,31.1,46.091,42.332C46.091,53.649,51.535,61.066,58.78,61.066ZM58.78,56.65C54.107,56.65,50.42,50.991,50.42,42.332C50.42,33.715,54.107,28.099,58.78,28.099C63.667,28.099,67.526,33.715,67.526,42.332C67.526,50.991,63.667,56.65,58.78,56.65ZM58.78,56.65"/>
  <path stroke-miterlimit="4" fill-opacity="1" stroke-opacity="1" stroke-linejoin="miter" stroke-dasharray="none" xmlns:svg="http://www.w3.org/2000/svg" fill="#212121" stroke-width="0.0625" stroke-linecap="butt" stroke="none" fill-rule="nonzero" version="1.1" d="M13.809,67.797C13.809,69.554,14.967,70.755,16.724,70.755L101.179,70.755C102.937,70.755,104.095,69.554,104.095,67.797L104.095,16.952C104.095,15.195,102.937,14.037,101.179,14.037L16.724,14.037C14.967,14.037,13.809,15.195,13.809,16.952ZM19.983,63.51L19.983,21.239C19.983,20.468,20.24,20.21,21.054,20.21L96.849,20.21C97.663,20.21,97.921,20.468,97.921,21.239L97.921,63.51C97.921,64.281,97.663,64.538,96.849,64.538L21.054,64.538C20.24,64.538,19.983,64.281,19.983,63.51ZM19.983,63.51"/>
</g>
  <g id="Heavy-S" transform="matrix(1.0,0.0,0.0,1.0,2585.922689232016,625.1696589659493)">  <path fill-rule="nonzero" fill-opacity="1" version="1.1" stroke-width="0.0625" stroke-dasharray="none" stroke-miterlimit="4" stroke-linejoin="miter" stroke="none" stroke-linecap="butt" fill="#212121" stroke-opacity="1" xmlns:svg="http://www.w3.org/2000/svg" d="M2.915,0C1.158,0,0,1.158,0,2.915L0,53.76C0,55.517,1.158,56.718,2.915,56.718L18.757,56.718L18.757,50.501L7.245,50.501C6.431,50.501,6.173,50.244,6.173,49.472L6.173,7.202C6.173,6.431,6.431,6.173,7.245,6.173L83.04,6.173C83.854,6.173,84.11,6.431,84.11,7.202L84.11,18.407L90.285,18.407L90.285,2.915C90.285,1.158,89.126,0,87.368,0ZM2.915,0"/>
  <path fill-opacity="1" stroke-width="0.0625" fill="#4d4d4d" stroke-dasharray="none" stroke-opacity="1" version="1.1" stroke-linecap="butt" stroke="none" stroke-miterlimit="4" xmlns:svg="http://www.w3.org/2000/svg" fill-rule="nonzero" stroke-linejoin="miter" d="M23.455,58.922C23.455,60.294,24.27,61.066,25.599,61.066L92.305,61.066C93.634,61.066,94.448,60.294,94.448,58.922L94.448,25.826C94.448,24.455,93.634,23.683,92.305,23.683L25.599,23.683C24.27,23.683,23.455,24.455,23.455,25.826ZM27.228,56.479L27.228,28.27C27.228,27.713,27.485,27.413,28.042,27.413L89.861,27.413C90.419,27.413,90.676,27.713,90.676,28.27L90.676,56.479C90.676,57.036,90.419,57.336,89.861,57.336L28.042,57.336C27.485,57.336,27.228,57.036,27.228,56.479ZM58.78,61.066C66.24,61.066,71.856,53.649,71.856,42.332C71.856,31.1,66.24,23.683,58.78,23.683C51.535,23.683,46.091,31.1,46.091,42.332C46.091,53.649,51.535,61.066,58.78,61.066ZM58.78,56.65C54.107,56.65,50.42,50.991,50.42,42.332C50.42,33.715,54.107,28.099,58.78,28.099C63.667,28.099,67.526,33.715,67.526,42.332C67.526,50.991,63.667,56.65,58.78,56.65ZM58.78,56.65"/>
  <path fill-opacity="1" version="1.1" stroke-linecap="butt" stroke-opacity="1" stroke-miterlimit="4" fill="#212121" stroke-width="0.0625" stroke-dasharray="none" xmlns:svg="http://www.w3.org/2000/svg" stroke="none" fill-rule="nonzero" stroke-linejoin="miter" d="M13.809,67.797C13.809,69.554,14.967,70.755,16.724,70.755L101.179,70.755C102.937,70.755,104.095,69.554,104.095,67.797L104.095,16.952C104.095,15.195,102.937,14.037,101.179,14.037L16.724,14.037C14.967,14.037,13.809,15.195,13.809,16.952ZM19.983,63.51L19.983,21.239C19.983,20.468,20.24,20.21,21.054,20.21L96.849,20.21C97.663,20.21,97.921,20.468,97.921,21.239L97.921,63.51C97.921,64.281,97.663,64.538,96.849,64.538L21.054,64.538C20.24,64.538,19.983,64.281,19.983,63.51ZM19.983,63.51"/>
</g>
  <g id="Bold-S" transform="matrix(1.0,0.0,0.0,1.0,2289.212689232016,625.1696589659493)">  <path stroke-width="0.0625" version="1.1" stroke="none" stroke-dasharray="none" stroke-linecap="butt" stroke-linejoin="miter" xmlns:svg="http://www.w3.org/2000/svg" fill="#212121" fill-rule="nonzero" fill-opacity="1" stroke-opacity="1" stroke-miterlimit="4" d="M2.915,0C1.158,0,0,1.158,0,2.915L0,53.76C0,55.517,1.158,56.718,2.915,56.718L18.757,56.718L18.757,50.501L7.245,50.501C6.431,50.501,6.173,50.244,6.173,49.472L6.173,7.202C6.173,6.431,6.431,6.173,7.245,6.173L83.04,6.173C83.854,6.173,84.11,6.431,84.11,7.202L84.11,18.407L90.285,18.407L90.285,2.915C90.285,1.158,89.126,0,87.368,0ZM2.915,0"/>
  <path version="1.1" stroke-width="0.0625" stroke-miterlimit="4" stroke-linecap="butt" stroke-linejoin="miter" fill-opacity="1" stroke-dasharray="none" fill="#4d4d4d" stroke="none" stroke-opacity="1" xmlns:svg="http://www.w3.org/2000/svg" fill-rule="nonzero" d="M23.455,58.922C23.455,60.294,24.27,61.066,25.599,61.066L92.305,61.066C93.634,61.066,94.448,60.294,94.448,58.922L94.448,25.826C94.448,24.455,93.634,23.683,92.305,23.683L25.599,23.683C24.27,23.683,23.455,24.455,23.455,25.826ZM27.228,56.479L27.228,28.27C27.228,27.713,27.485,27.413,28.042,27.413L89.861,27.413C90.419,27.413,90.676,27.713,90.676,28.27L90.676,56.479C90.676,57.036,90.419,57.336,89.861,57.336L28.042,57.336C27.485,57.336,27.228,57.036,27.228,56.479ZM58.78,61.066C66.24,61.066,71.856,53.649,71.856,42.332C71.856,31.1,66.24,23.683,58.78,23.683C51.535,23.683,46.091,31.1,46.091,42.332C46.091,53.649,51.535,61.066,58.78,61.066ZM58.78,56.65C54.107,56.65,50.42,50.991,50.42,42.332C50.42,33.715,54.107,28.099,58.78,28.099C63.667,28.099,67.526,33.715,67.526,42.332C67.526,50.991,63.667,56.65,58.78,56.65ZM58.78,56.65"/>
  <path stroke-linejoin="miter" stroke-miterlimit="4" version="1.1" stroke-dasharray="none" stroke-linecap="butt" stroke-width="0.0625" stroke-opacity="1" fill-opacity="1" stroke="none" fill="#212121" fill-rule="nonzero" xmlns:svg="http://www.w3.org/2000/svg" d="M13.809,67.797C13.809,69.554,14.967,70.755,16.724,70.755L101.179,70.755C102.937,70.755,104.095,69.554,104.095,67.797L104.095,16.952C104.095,15.195,102.937,14.037,101.179,14.037L16.724,14.037C14.967,14.037,13.809,15.195,13.809,16.952ZM19.983,63.51L19.983,21.239C19.983,20.468,20.24,20.21,21.054,20.21L96.849,20.21C97.663,20.21,97.921,20.468,97.921,21.239L97.921,63.51C97.921,64.281,97.663,64.538,96.849,64.538L21.054,64.538C20.24,64.538,19.983,64.281,19.983,63.51ZM19.983,63.51"/>
</g>
  <g id="Semibold-S" transform="matrix(1.0,0.0,0.0,1.0,1992.5026892320166,625.1696589659493)">  <path version="1.1" xmlns:svg="http://www.w3.org/2000/svg" stroke-miterlimit="4" stroke-dasharray="none" stroke-linecap="butt" fill-opacity="1" fill="#212121" stroke-linejoin="miter" stroke="none" fill-rule="nonzero" stroke-opacity="1" stroke-width="0.0625" d="M2.915,0C1.158,0,0,1.158,0,2.915L0,53.76C0,55.517,1.158,56.718,2.915,56.718L18.757,56.718L18.757,50.501L7.245,50.501C6.431,50.501,6.173,50.244,6.173,49.472L6.173,7.202C6.173,6.431,6.431,6.173,7.245,6.173L83.04,6.173C83.854,6.173,84.11,6.431,84.11,7.202L84.11,18.407L90.285,18.407L90.285,2.915C90.285,1.158,89.126,0,87.368,0ZM2.915,0"/>
  <path fill-rule="nonzero" version="1.1" xmlns:svg="http://www.w3.org/2000/svg" stroke-dasharray="none" stroke="none" stroke-opacity="1" stroke-linecap="butt" stroke-width="0.0625" fill-opacity="1" stroke-miterlimit="4" fill="#4d4d4d" stroke-linejoin="miter" d="M23.455,58.922C23.455,60.294,24.27,61.066,25.599,61.066L92.305,61.066C93.634,61.066,94.448,60.294,94.448,58.922L94.448,25.826C94.448,24.455,93.634,23.683,92.305,23.683L25.599,23.683C24.27,23.683,23.455,24.455,23.455,25.826ZM27.228,56.479L27.228,28.27C27.228,27.713,27.485,27.413,28.042,27.413L89.861,27.413C90.419,27.413,90.676,27.713,90.676,28.27L90.676,56.479C90.676,57.036,90.419,57.336,89.861,57.336L28.042,57.336C27.485,57.336,27.228,57.036,27.228,56.479ZM58.78,61.066C66.24,61.066,71.856,53.649,71.856,42.332C71.856,31.1,66.24,23.683,58.78,23.683C51.535,23.683,46.091,31.1,46.091,42.332C46.091,53.649,51.535,61.066,58.78,61.066ZM58.78,56.65C54.107,56.65,50.42,50.991,50.42,42.332C50.42,33.715,54.107,28.099,58.78,28.099C63.667,28.099,67.526,33.715,67.526,42.332C67.526,50.991,63.667,56.65,58.78,56.65ZM58.78,56.65"/>
  <path stroke-dasharray="none" fill-rule="nonzero" stroke-opacity="1" stroke-linecap="butt" stroke-width="0.0625" xmlns:svg="http://www.w3.org/2000/svg" stroke="none" version="1.1" fill-opacity="1" stroke-miterlimit="4" stroke-linejoin="miter" fill="#212121" d="M13.809,67.797C13.809,69.554,14.967,70.755,16.724,70.755L101.179,70.755C102.937,70.755,104.095,69.554,104.095,67.797L104.095,16.952C104.095,15.195,102.937,14.037,101.179,14.037L16.724,14.037C14.967,14.037,13.809,15.195,13.809,16.952ZM19.983,63.51L19.983,21.239C19.983,20.468,20.24,20.21,21.054,20.21L96.849,20.21C97.663,20.21,97.921,20.468,97.921,21.239L97.921,63.51C97.921,64.281,97.663,64.538,96.849,64.538L21.054,64.538C20.24,64.538,19.983,64.281,19.983,63.51ZM19.983,63.51"/>
</g>
  <g id="Medium-S" transform="matrix(1.0,0.0,0.0,1.0,1695.7926892320165,625.1696589659493)">  <path fill="#212121" stroke="none" fill-opacity="1" stroke-linecap="butt" stroke-dasharray="none" fill-rule="nonzero" stroke-linejoin="miter" xmlns:svg="http://www.w3.org/2000/svg" stroke-miterlimit="4" version="1.1" stroke-opacity="1" stroke-width="0.0625" d="M2.915,0C1.158,0,0,1.158,0,2.915L0,53.76C0,55.517,1.158,56.718,2.915,56.718L18.757,56.718L18.757,50.501L7.245,50.501C6.431,50.501,6.173,50.244,6.173,49.472L6.173,7.202C6.173,6.431,6.431,6.173,7.245,6.173L83.04,6.173C83.854,6.173,84.11,6.431,84.11,7.202L84.11,18.407L90.285,18.407L90.285,2.915C90.285,1.158,89.126,0,87.368,0ZM2.915,0"/>
  <path stroke-linecap="butt" fill-rule="nonzero" stroke-miterlimit="4" stroke="none" fill-opacity="1" xmlns:svg="http://www.w3.org/2000/svg" stroke-width="0.0625" version="1.1" fill="#4d4d4d" stroke-opacity="1" stroke-linejoin="miter" stroke-dasharray="none" d="M23.455,58.922C23.455,60.294,24.27,61.066,25.599,61.066L92.305,61.066C93.634,61.066,94.448,60.294,94.448,58.922L94.448,25.826C94.448,24.455,93.634,23.683,92.305,23.683L25.599,23.683C24.27,23.683,23.455,24.455,23.455,25.826ZM27.228,56.479L27.228,28.27C27.228,27.713,27.485,27.413,28.042,27.413L89.861,27.413C90.419,27.413,90.676,27.713,90.676,28.27L90.676,56.479C90.676,57.036,90.419,57.336,89.861,57.336L28.042,57.336C27.485,57.336,27.228,57.036,27.228,56.479ZM58.78,61.066C66.24,61.066,71.856,53.649,71.856,42.332C71.856,31.1,66.24,23.683,58.78,23.683C51.535,23.683,46.091,31.1,46.091,42.332C46.091,53.649,51.535,61.066,58.78,61.066ZM58.78,56.65C54.107,56.65,50.42,50.991,50.42,42.332C50.42,33.715,54.107,28.099,58.78,28.099C63.667,28.099,67.526,33.715,67.526,42.332C67.526,50.991,63.667,56.65,58.78,56.65ZM58.78,56.65"/>
  <path stroke="none" fill-rule="nonzero" stroke-miterlimit="4" stroke-linecap="butt" stroke-width="0.0625" stroke-linejoin="miter" fill-opacity="1" stroke-dasharray="none" stroke-opacity="1" fill="#212121" version="1.1" xmlns:svg="http://www.w3.org/2000/svg" d="M13.809,67.797C13.809,69.554,14.967,70.755,16.724,70.755L101.179,70.755C102.937,70.755,104.095,69.554,104.095,67.797L104.095,16.952C104.095,15.195,102.937,14.037,101.179,14.037L16.724,14.037C14.967,14.037,13.809,15.195,13.809,16.952ZM19.983,63.51L19.983,21.239C19.983,20.468,20.24,20.21,21.054,20.21L96.849,20.21C97.663,20.21,97.921,20.468,97.921,21.239L97.921,63.51C97.921,64.281,97.663,64.538,96.849,64.538L21.054,64.538C20.24,64.538,19.983,64.281,19.983,63.51ZM19.983,63.51"/>
</g>
  <g id="Regular-S" transform="matrix(1.0,0.0,0.0,1.0,1399.0826892320165,625.1696589659493)">  <path fill="#212121" version="1.1" xmlns:svg="http://www.w3.org/2000/svg" stroke-miterlimit="4" fill-rule="nonzero" fill-opacity="1" stroke-width="0.0625" stroke-opacity="1" stroke="none" stroke-linecap="butt" stroke-linejoin="miter" stroke-dasharray="none" d="M2.915,0C1.158,0,0,1.158,0,2.915L0,53.76C0,55.517,1.158,56.718,2.915,56.718L18.757,56.718L18.757,50.501L7.245,50.501C6.431,50.501,6.173,50.244,6.173,49.472L6.173,7.202C6.173,6.431,6.431,6.173,7.245,6.173L83.04,6.173C83.854,6.173,84.11,6.431,84.11,7.202L84.11,18.407L90.285,18.407L90.285,2.915C90.285,1.158,89.126,0,87.368,0ZM2.915,0"/>
  <path stroke-opacity="1" version="1.1" stroke-miterlimit="4" stroke-dasharray="none" xmlns:svg="http://www.w3.org/2000/svg" stroke="none" stroke-linejoin="miter" stroke-linecap="butt" stroke-width="0.0625" fill-rule="nonzero" fill-opacity="1" fill="#4d4d4d" d="M23.455,58.922C23.455,60.294,24.27,61.066,25.599,61.066L92.305,61.066C93.634,61.066,94.448,60.294,94.448,58.922L94.448,25.826C94.448,24.455,93.634,23.683,92.305,23.683L25.599,23.683C24.27,23.683,23.455,24.455,23.455,25.826ZM27.228,56.479L27.228,28.27C27.228,27.713,27.485,27.413,28.042,27.413L89.861,27.413C90.419,27.413,90.676,27.713,90.676,28.27L90.676,56.479C90.676,57.036,90.419,57.336,89.861,57.336L28.042,57.336C27.485,57.336,27.228,57.036,27.228,56.479ZM58.78,61.066C66.24,61.066,71.856,53.649,71.856,42.332C71.856,31.1,66.24,23.683,58.78,23.683C51.535,23.683,46.091,31.1,46.091,42.332C46.091,53.649,51.535,61.066,58.78,61.066ZM58.78,56.65C54.107,56.65,50.42,50.991,50.42,42.332C50.42,33.715,54.107,28.099,58.78,28.099C63.667,28.099,67.526,33.715,67.526,42.332C67.526,50.991,63.667,56.65,58.78,56.65ZM58.78,56.65"/>
  <path stroke-linejoin="miter" fill-opacity="1" stroke-width="0.0625" stroke="none" fill-rule="nonzero" fill="#212121" xmlns:svg="http://www.w3.org/2000/svg" stroke-dasharray="none" stroke-linecap="butt" stroke-miterlimit="4" version="1.1" stroke-opacity="1" d="M13.809,67.797C13.809,69.554,14.967,70.755,16.724,70.755L101.179,70.755C102.937,70.755,104.095,69.554,104.095,67.797L104.095,16.952C104.095,15.195,102.937,14.037,101.179,14.037L16.724,14.037C14.967,14.037,13.809,15.195,13.809,16.952ZM19.983,63.51L19.983,21.239C19.983,20.468,20.24,20.21,21.054,20.21L96.849,20.21C97.663,20.21,97.921,20.468,97.921,21.239L97.921,63.51C97.921,64.281,97.663,64.538,96.849,64.538L21.054,64.538C20.24,64.538,19.983,64.281,19.983,63.51ZM19.983,63.51"/>
</g>
  <g id="Light-S" transform="matrix(1.0,0.0,0.0,1.0,1102.3726892320167,625.1696589659493)">  <path fill-opacity="1" version="1.1" stroke="none" fill-rule="nonzero" stroke-linecap="butt" stroke-opacity="1" xmlns:svg="http://www.w3.org/2000/svg" stroke-dasharray="none" stroke-width="0.0625" stroke-miterlimit="4" fill="#212121" stroke-linejoin="miter" d="M2.915,0C1.158,0,0,1.158,0,2.915L0,53.76C0,55.517,1.158,56.718,2.915,56.718L18.757,56.718L18.757,50.501L7.245,50.501C6.431,50.501,6.173,50.244,6.173,49.472L6.173,7.202C6.173,6.431,6.431,6.173,7.245,6.173L83.04,6.173C83.854,6.173,84.11,6.431,84.11,7.202L84.11,18.407L90.285,18.407L90.285,2.915C90.285,1.158,89.126,0,87.368,0ZM2.915,0"/>
  <path fill-rule="nonzero" xmlns:svg="http://www.w3.org/2000/svg" fill-opacity="1" fill="#4d4d4d" stroke-linecap="butt" stroke-opacity="1" stroke-miterlimit="4" stroke="none" version="1.1" stroke-dasharray="none" stroke-linejoin="miter" stroke-width="0.0625" d="M23.455,58.922C23.455,60.294,24.27,61.066,25.599,61.066L92.305,61.066C93.634,61.066,94.448,60.294,94.448,58.922L94.448,25.826C94.448,24.455,93.634,23.683,92.305,23.683L25.599,23.683C24.27,23.683,23.455,24.455,23.455,25.826ZM27.228,56.479L27.228,28.27C27.228,27.713,27.485,27.413,28.042,27.413L89.861,27.413C90.419,27.413,90.676,27.713,90.676,28.27L90.676,56.479C90.676,57.036,90.419,57.336,89.861,57.336L28.042,57.336C27.485,57.336,27.228,57.036,27.228,56.479ZM58.78,61.066C66.24,61.066,71.856,53.649,71.856,42.332C71.856,31.1,66.24,23.683,58.78,23.683C51.535,23.683,46.091,31.1,46.091,42.332C46.091,53.649,51.535,61.066,58.78,61.066ZM58.78,56.65C54.107,56.65,50.42,50.991,50.42,42.332C50.42,33.715,54.107,28.099,58.78,28.099C63.667,28.099,67.526,33.715,67.526,42.332C67.526,50.991,63.667,56.65,58.78,56.65ZM58.78,56.65"/>
  <path fill-rule="nonzero" stroke-opacity="1" fill="#212121" stroke="none" stroke-linejoin="miter" version="1.1" xmlns:svg="http://www.w3.org/2000/svg" fill-opacity="1" stroke-dasharray="none" stroke-linecap="butt" stroke-width="0.0625" stroke-miterlimit="4" d="M13.809,67.797C13.809,69.554,14.967,70.755,16.724,70.755L101.179,70.755C102.937,70.755,104.095,69.554,104.095,67.797L104.095,16.952C104.095,15.195,102.937,14.037,101.179,14.037L16.724,14.037C14.967,14.037,13.809,15.195,13.809,16.952ZM19.983,63.51L19.983,21.239C19.983,20.468,20.24,20.21,21.054,20.21L96.849,20.21C97.663,20.21,97.921,20.468,97.921,21.239L97.921,63.51C97.921,64.281,97.663,64.538,96.849,64.538L21.054,64.538C20.24,64.538,19.983,64.281,19.983,63.51ZM19.983,63.51"/>
</g>
  <g id="Thin-S" transform="matrix(1.0,0.0,0.0,1.0,805.6626892320165,625.1696589659493)">  <path stroke-miterlimit="4" fill-opacity="1" stroke-linejoin="miter" fill="#212121" version="1.1" stroke-opacity="1" stroke-dasharray="none" xmlns:svg="http://www.w3.org/2000/svg" stroke-width="0.0625" stroke="none" fill-rule="nonzero" stroke-linecap="butt" d="M2.915,0C1.158,0,0,1.158,0,2.915L0,53.76C0,55.517,1.158,56.718,2.915,56.718L18.757,56.718L18.757,50.501L7.245,50.501C6.431,50.501,6.173,50.244,6.173,49.472L6.173,7.202C6.173,6.431,6.431,6.173,7.245,6.173L83.04,6.173C83.854,6.173,84.11,6.431,84.11,7.202L84.11,18.407L90.285,18.407L90.285,2.915C90.285,1.158,89.126,0,87.368,0ZM2.915,0"/>
  <path stroke-opacity="1" stroke-linejoin="miter" fill-opacity="1" stroke-miterlimit="4" stroke-linecap="butt" stroke="none" fill-rule="nonzero" fill="#4d4d4d" version="1.1" xmlns:svg="http://www.w3.org/2000/svg" stroke-width="0.0625" stroke-dasharray="none" d="M23.455,58.922C23.455,60.294,24.27,61.066,25.599,61.066L92.305,61.066C93.634,61.066,94.448,60.294,94.448,58.922L94.448,25.826C94.448,24.455,93.634,23.683,92.305,23.683L25.599,23.683C24.27,23.683,23.455,24.455,23.455,25.826ZM27.228,56.479L27.228,28.27C27.228,27.713,27.485,27.413,28.042,27.413L89.861,27.413C90.419,27.413,90.676,27.713,90.676,28.27L90.676,56.479C90.676,57.036,90.419,57.336,89.861,57.336L28.042,57.336C27.485,57.336,27.228,57.036,27.228,56.479ZM58.78,61.066C66.24,61.066,71.856,53.649,71.856,42.332C71.856,31.1,66.24,23.683,58.78,23.683C51.535,23.683,46.091,31.1,46.091,42.332C46.091,53.649,51.535,61.066,58.78,61.066ZM58.78,56.65C54.107,56.65,50.42,50.991,50.42,42.332C50.42,33.715,54.107,28.099,58.78,28.099C63.667,28.099,67.526,33.715,67.526,42.332C67.526,50.991,63.667,56.65,58.78,56.65ZM58.78,56.65"/>
  <path stroke-dasharray="none" stroke-linejoin="miter" fill-opacity="1" xmlns:svg="http://www.w3.org/2000/svg" stroke-linecap="butt" stroke-opacity="1" stroke-miterlimit="4" version="1.1" fill-rule="nonzero" stroke="none" fill="#212121" stroke-width="0.0625" d="M13.809,67.797C13.809,69.554,14.967,70.755,16.724,70.755L101.179,70.755C102.937,70.755,104.095,69.554,104.095,67.797L104.095,16.952C104.095,15.195,102.937,14.037,101.179,14.037L16.724,14.037C14.967,14.037,13.809,15.195,13.809,16.952ZM19.983,63.51L19.983,21.239C19.983,20.468,20.24,20.21,21.054,20.21L96.849,20.21C97.663,20.21,97.921,20.468,97.921,21.239L97.921,63.51C97.921,64.281,97.663,64.538,96.849,64.538L21.054,64.538C20.24,64.538,19.983,64.281,19.983,63.51ZM19.983,63.51"/>
</g>
  <g id="Ultralight-S" transform="matrix(1.0,0.0,0.0,1.0,508.9526892320165,625.1696589659493)">  <path stroke-linecap="butt" stroke-opacity="1" stroke-dasharray="none" fill="#212121" xmlns:svg="http://www.w3.org/2000/svg" stroke-miterlimit="4" stroke-width="0.0625" fill-rule="nonzero" fill-opacity="1" version="1.1" stroke-linejoin="miter" stroke="none" d="M2.915,0C1.158,0,0,1.158,0,2.915L0,53.76C0,55.517,1.158,56.718,2.915,56.718L18.757,56.718L18.757,50.501L7.245,50.501C6.431,50.501,6.173,50.244,6.173,49.472L6.173,7.202C6.173,6.431,6.431,6.173,7.245,6.173L83.04,6.173C83.854,6.173,84.11,6.431,84.11,7.202L84.11,18.407L90.285,18.407L90.285,2.915C90.285,1.158,89.126,0,87.368,0ZM2.915,0"/>
  <path version="1.1" stroke-linejoin="miter" stroke-miterlimit="4" fill-rule="nonzero" xmlns:svg="http://www.w3.org/2000/svg" stroke-dasharray="none" fill="#4d4d4d" stroke="none" stroke-linecap="butt" stroke-opacity="1" fill-opacity="1" stroke-width="0.0625" d="M23.455,58.922C23.455,60.294,24.27,61.066,25.599,61.066L92.305,61.066C93.634,61.066,94.448,60.294,94.448,58.922L94.448,25.826C94.448,24.455,93.634,23.683,92.305,23.683L25.599,23.683C24.27,23.683,23.455,24.455,23.455,25.826ZM27.228,56.479L27.228,28.27C27.228,27.713,27.485,27.413,28.042,27.413L89.861,27.413C90.419,27.413,90.676,27.713,90.676,28.27L90.676,56.479C90.676,57.036,90.419,57.336,89.861,57.336L28.042,57.336C27.485,57.336,27.228,57.036,27.228,56.479ZM58.78,61.066C66.24,61.066,71.856,53.649,71.856,42.332C71.856,31.1,66.24,23.683,58.78,23.683C51.535,23.683,46.091,31.1,46.091,42.332C46.091,53.649,51.535,61.066,58.78,61.066ZM58.78,56.65C54.107,56.65,50.42,50.991,50.42,42.332C50.42,33.715,54.107,28.099,58.78,28.099C63.667,28.099,67.526,33.715,67.526,42.332C67.526,50.991,63.667,56.65,58.78,56.65ZM58.78,56.65"/>
  <path xmlns:svg="http://www.w3.org/2000/svg" stroke="none" stroke-miterlimit="4" stroke-width="0.0625" fill="#212121" stroke-opacity="1" version="1.1" fill-rule="nonzero" stroke-linecap="butt" stroke-linejoin="miter" stroke-dasharray="none" fill-opacity="1" d="M13.809,67.797C13.809,69.554,14.967,70.755,16.724,70.755L101.179,70.755C102.937,70.755,104.095,69.554,104.095,67.797L104.095,16.952C104.095,15.195,102.937,14.037,101.179,14.037L16.724,14.037C14.967,14.037,13.809,15.195,13.809,16.952ZM19.983,63.51L19.983,21.239C19.983,20.468,20.24,20.21,21.054,20.21L96.849,20.21C97.663,20.21,97.921,20.468,97.921,21.239L97.921,63.51C97.921,64.281,97.663,64.538,96.849,64.538L21.054,64.538C20.24,64.538,19.983,64.281,19.983,63.51ZM19.983,63.51"/>
</g>
 </g>
</svg>
