<?xml version="1.0" encoding="UTF-8"?>
<!--Generator: Apple Native CoreSVG 175.5-->
<!DOCTYPE svg
PUBLIC "-//W3C//DTD SVG 1.1//EN"
       "http://www.w3.org/Graphics/SVG/1.1/DTD/svg11.dtd">
<svg version="1.1" xmlns="http://www.w3.org/2000/svg" xmlns:xlink="http://www.w3.org/1999/xlink" width="3300" height="2200">
 <!--glyph: "uni101714.medium", point size: 100.0, font version: "18.0d11e1", template writer version: "90"-->
 <style>.monochrome-0 {fill:#000000}

.SFSymbolsPreview000000 {fill:#000000;opacity:1.0}
</style>
 <g id="Notes">
  <rect height="2200" id="artboard" style="fill:white;opacity:1" width="3300" x="0" y="0"/>
  <line style="fill:none;stroke:black;opacity:1;stroke-width:0.5;" x1="263" x2="3036" y1="292" y2="292"/>
  <text style="stroke:none;fill:black;font-family:sans-serif;font-size:13;font-weight:bold;" transform="matrix(1 0 0 1 263 322)">Weight/Scale Variations</text>
  <text style="stroke:none;fill:black;font-family:sans-serif;font-size:13;text-anchor:middle;" transform="matrix(1 0 0 1 559.711 322)">Ultralight</text>
  <text style="stroke:none;fill:black;font-family:sans-serif;font-size:13;text-anchor:middle;" transform="matrix(1 0 0 1 856.422 322)">Thin</text>
  <text style="stroke:none;fill:black;font-family:sans-serif;font-size:13;text-anchor:middle;" transform="matrix(1 0 0 1 1153.13 322)">Light</text>
  <text style="stroke:none;fill:black;font-family:sans-serif;font-size:13;text-anchor:middle;" transform="matrix(1 0 0 1 1449.84 322)">Regular</text>
  <text style="stroke:none;fill:black;font-family:sans-serif;font-size:13;text-anchor:middle;" transform="matrix(1 0 0 1 1746.56 322)">Medium</text>
  <text style="stroke:none;fill:black;font-family:sans-serif;font-size:13;text-anchor:middle;" transform="matrix(1 0 0 1 2043.27 322)">Semibold</text>
  <text style="stroke:none;fill:black;font-family:sans-serif;font-size:13;text-anchor:middle;" transform="matrix(1 0 0 1 2339.98 322)">Bold</text>
  <text style="stroke:none;fill:black;font-family:sans-serif;font-size:13;text-anchor:middle;" transform="matrix(1 0 0 1 2636.69 322)">Heavy</text>
  <text style="stroke:none;fill:black;font-family:sans-serif;font-size:13;text-anchor:middle;" transform="matrix(1 0 0 1 2933.4 322)">Black</text>
  <line style="fill:none;stroke:black;opacity:1;stroke-width:0.5;" x1="263" x2="3036" y1="1903" y2="1903"/>
  <g transform="matrix(1 0 0 1 263 1933)">
   <path d="M9.24805 0.830078C13.5547 0.830078 17.1387-2.74414 17.1387-7.05078C17.1387-11.3574 13.5449-14.9316 9.23828-14.9316C4.94141-14.9316 1.36719-11.3574 1.36719-7.05078C1.36719-2.74414 4.95117 0.830078 9.24805 0.830078ZM9.24805-0.654297C5.70312-0.654297 2.87109-3.49609 2.87109-7.05078C2.87109-10.6055 5.69336-13.4473 9.23828-13.4473C12.793-13.4473 15.6445-10.6055 15.6445-7.05078C15.6445-3.49609 12.8027-0.654297 9.24805-0.654297ZM5.6543-7.05078C5.6543-6.62109 5.95703-6.32812 6.40625-6.32812L8.50586-6.32812L8.50586-4.20898C8.50586-3.76953 8.79883-3.4668 9.22852-3.4668C9.67773-3.4668 9.9707-3.76953 9.9707-4.20898L9.9707-6.32812L12.0898-6.32812C12.5293-6.32812 12.832-6.62109 12.832-7.05078C12.832-7.49023 12.5293-7.79297 12.0898-7.79297L9.9707-7.79297L9.9707-9.90234C9.9707-10.3516 9.67773-10.6543 9.22852-10.6543C8.79883-10.6543 8.50586-10.3516 8.50586-9.90234L8.50586-7.79297L6.40625-7.79297C5.95703-7.79297 5.6543-7.49023 5.6543-7.05078Z"/>
  </g>
  <g transform="matrix(1 0 0 1 281.867 1933)">
   <path d="M11.709 2.91016C17.1582 2.91016 21.6699-1.61133 21.6699-7.05078C21.6699-12.5 17.1484-17.0117 11.6992-17.0117C6.25977-17.0117 1.74805-12.5 1.74805-7.05078C1.74805-1.61133 6.26953 2.91016 11.709 2.91016ZM11.709 1.25C7.09961 1.25 3.41797-2.44141 3.41797-7.05078C3.41797-11.6602 7.08984-15.3516 11.6992-15.3516C16.3086-15.3516 20.0098-11.6602 20.0098-7.05078C20.0098-2.44141 16.3184 1.25 11.709 1.25ZM7.17773-7.05078C7.17773-6.57227 7.50977-6.25 8.00781-6.25L10.8789-6.25L10.8789-3.36914C10.8789-2.88086 11.2109-2.53906 11.6895-2.53906C12.1777-2.53906 12.5195-2.87109 12.5195-3.36914L12.5195-6.25L15.4004-6.25C15.8887-6.25 16.2305-6.57227 16.2305-7.05078C16.2305-7.53906 15.8887-7.88086 15.4004-7.88086L12.5195-7.88086L12.5195-10.752C12.5195-11.25 12.1777-11.5918 11.6895-11.5918C11.2109-11.5918 10.8789-11.25 10.8789-10.752L10.8789-7.88086L8.00781-7.88086C7.50977-7.88086 7.17773-7.53906 7.17773-7.05078Z"/>
  </g>
  <g transform="matrix(1 0 0 1 305.646 1933)">
   <path d="M14.9707 5.66406C21.9336 5.66406 27.6953-0.0976562 27.6953-7.05078C27.6953-14.0137 21.9238-19.7754 14.9609-19.7754C8.00781-19.7754 2.25586-14.0137 2.25586-7.05078C2.25586-0.0976562 8.01758 5.66406 14.9707 5.66406ZM14.9707 3.84766C8.93555 3.84766 4.08203-1.01562 4.08203-7.05078C4.08203-13.0957 8.92578-17.9492 14.9609-17.9492C21.0059-17.9492 25.8691-13.0957 25.8691-7.05078C25.8691-1.01562 21.0156 3.84766 14.9707 3.84766ZM9.19922-7.05078C9.19922-6.5332 9.57031-6.17188 10.1172-6.17188L14.0625-6.17188L14.0625-2.2168C14.0625-1.67969 14.4336-1.29883 14.9512-1.29883C15.4883-1.29883 15.8594-1.66992 15.8594-2.2168L15.8594-6.17188L19.8145-6.17188C20.3516-6.17188 20.7324-6.5332 20.7324-7.05078C20.7324-7.59766 20.3613-7.96875 19.8145-7.96875L15.8594-7.96875L15.8594-11.9141C15.8594-12.4609 15.4883-12.8418 14.9512-12.8418C14.4336-12.8418 14.0625-12.4609 14.0625-11.9141L14.0625-7.96875L10.1172-7.96875C9.57031-7.96875 9.19922-7.59766 9.19922-7.05078Z"/>
  </g>
  <text style="stroke:none;fill:black;font-family:sans-serif;font-size:13;font-weight:bold;" transform="matrix(1 0 0 1 263 1953)">Design Variations</text>
  <text style="stroke:none;fill:black;font-family:sans-serif;font-size:13;" transform="matrix(1 0 0 1 263 1971)">Symbols are supported in up to nine weights and three scales.</text>
  <text style="stroke:none;fill:black;font-family:sans-serif;font-size:13;" transform="matrix(1 0 0 1 263 1989)">For optimal layout with text and other symbols, vertically align</text>
  <text style="stroke:none;fill:black;font-family:sans-serif;font-size:13;" transform="matrix(1 0 0 1 263 2007)">symbols with the adjacent text.</text>
  <line style="fill:none;stroke:#00AEEF;stroke-width:0.5;opacity:1.0;" x1="776" x2="776" y1="1919" y2="1933"/>
  <g transform="matrix(1 0 0 1 776 1933)">
   <path d="M3.31055 0.15625C3.82812 0.15625 4.08203-0.0390625 4.26758-0.585938L5.52734-4.0332L11.2891-4.0332L12.5488-0.585938C12.7344-0.0390625 12.9883 0.15625 13.4961 0.15625C14.0137 0.15625 14.3457-0.15625 14.3457-0.644531C14.3457-0.810547 14.3164-0.966797 14.2383-1.17188L9.6582-13.3691C9.43359-13.9648 9.0332-14.2676 8.4082-14.2676C7.80273-14.2676 7.39258-13.9746 7.17773-13.3789L2.59766-1.16211C2.51953-0.957031 2.49023-0.800781 2.49023-0.634766C2.49023-0.146484 2.80273 0.15625 3.31055 0.15625ZM6.00586-5.51758L8.37891-12.0898L8.42773-12.0898L10.8008-5.51758Z"/>
  </g>
  <line style="fill:none;stroke:#00AEEF;stroke-width:0.5;opacity:1.0;" x1="793.197" x2="793.197" y1="1919" y2="1933"/>
  <text style="stroke:none;fill:black;font-family:sans-serif;font-size:13;font-weight:bold;" transform="matrix(1 0 0 1 776 1953)">Margins</text>
  <text style="stroke:none;fill:black;font-family:sans-serif;font-size:13;" transform="matrix(1 0 0 1 776 1971)">Leading and trailing margins on the left and right side of each symbol</text>
  <text style="stroke:none;fill:black;font-family:sans-serif;font-size:13;" transform="matrix(1 0 0 1 776 1989)">can be adjusted by modifying the x-location of the margin guidelines.</text>
  <text style="stroke:none;fill:black;font-family:sans-serif;font-size:13;" transform="matrix(1 0 0 1 776 2007)">Modifications are automatically applied proportionally to all</text>
  <text style="stroke:none;fill:black;font-family:sans-serif;font-size:13;" transform="matrix(1 0 0 1 776 2025)">scales and weights.</text>
  <g transform="matrix(1 0 0 1 1289 1933)">
   <path d="M2.8418 1.86523L4.54102 3.57422C5.40039 4.44336 6.38672 4.38477 7.31445 3.35938L18.0078-8.42773L17.041-9.4043L6.42578 2.27539C6.07422 2.67578 5.74219 2.77344 5.27344 2.30469L4.10156 1.14258C3.63281 0.683594 3.74023 0.341797 4.14062-0.0195312L15.6152-10.8203L14.6387-11.7871L3.04688-0.898438C2.06055 0.0195312 1.98242 0.996094 2.8418 1.86523ZM9.25781-16.3281C8.83789-15.918 8.80859-15.3418 9.04297-14.9512C9.27734-14.5898 9.73633-14.3555 10.3809-14.5215C11.8457-14.8633 13.3691-14.9219 14.7949-13.9844L14.209-12.5293C13.8672-11.6992 14.043-11.1133 14.5801-10.5664L16.875-8.25195C17.3633-7.76367 17.7734-7.74414 18.3398-7.8418L19.4043-8.03711L20.0684-7.36328L20.0293-6.80664C19.9902-6.30859 20.1172-5.92773 20.6055-5.44922L21.3672-4.70703C21.8457-4.22852 22.4609-4.19922 22.9297-4.66797L25.8398-7.58789C26.3086-8.05664 26.2891-8.65234 25.8105-9.13086L25.0391-9.89258C24.5605-10.3711 24.1895-10.5273 23.7109-10.4883L23.1348-10.4395L22.4902-11.0742L22.7344-12.1973C22.8613-12.7637 22.7051-13.2031 22.1191-13.7891L19.9219-15.9766C16.582-19.2969 12.1484-19.2188 9.25781-16.3281ZM10.752-15.957C13.1836-17.7344 16.4746-17.4316 18.7012-15.2051L21.1328-12.793C21.3672-12.5586 21.4062-12.373 21.3379-12.0312L21.0156-10.5469L22.5195-9.0625L23.5059-9.12109C23.7598-9.13086 23.8379-9.11133 24.0332-8.91602L24.6094-8.33984L22.168-5.89844L21.5918-6.47461C21.3965-6.66992 21.3672-6.74805 21.377-7.01172L21.4453-7.98828L19.9512-9.47266L18.4277-9.21875C18.1055-9.15039 17.959-9.17969 17.7148-9.41406L15.7129-11.416C15.459-11.6504 15.4297-11.8164 15.5859-12.1875L16.4648-14.2773C14.9023-15.7324 12.8711-16.3574 10.8398-15.7617C10.6836-15.7227 10.625-15.8496 10.752-15.957Z"/>
  </g>
  <text style="stroke:none;fill:black;font-family:sans-serif;font-size:13;font-weight:bold;" transform="matrix(1 0 0 1 1289 1953)">Exporting</text>
  <text style="stroke:none;fill:black;font-family:sans-serif;font-size:13;" transform="matrix(1 0 0 1 1289 1971)">Symbols should be outlined when exporting to ensure the</text>
  <text style="stroke:none;fill:black;font-family:sans-serif;font-size:13;" transform="matrix(1 0 0 1 1289 1989)">design is preserved when submitting to Xcode.</text>
  <text id="template-version" style="stroke:none;fill:black;font-family:sans-serif;font-size:13;text-anchor:end;" transform="matrix(1 0 0 1 3036 1933)">Template v.4.0</text>
  <text style="stroke:none;fill:black;font-family:sans-serif;font-size:13;text-anchor:end;" transform="matrix(1 0 0 1 3036 1951)">Requires Xcode 14 or greater</text>
  <text id="descriptive-name" style="stroke:none;fill:black;font-family:sans-serif;font-size:13;text-anchor:end;" transform="matrix(1 0 0 1 3036 1969)">Generated from flag.checkered.2.crossed</text>
  <text style="stroke:none;fill:black;font-family:sans-serif;font-size:13;text-anchor:end;" transform="matrix(1 0 0 1 3036 1987)">Typeset at 100 points</text>
  <text style="stroke:none;fill:black;font-family:sans-serif;font-size:13;" transform="matrix(1 0 0 1 263 726)">Small</text>
  <text style="stroke:none;fill:black;font-family:sans-serif;font-size:13;" transform="matrix(1 0 0 1 263 1156)">Medium</text>
  <text style="stroke:none;fill:black;font-family:sans-serif;font-size:13;" transform="matrix(1 0 0 1 263 1586)">Large</text>
 </g>
 <g id="Guides">
  <g id="H-reference" style="fill:#27AAE1;stroke:none;" transform="matrix(1 0 0 1 339 696)">
   <path d="M0.993654 0L3.63775 0L29.3281-67.1323L30.0303-67.1323L30.0303-70.459L28.1226-70.459ZM11.6885-24.4799L46.9815-24.4799L46.2315-26.7285L12.4385-26.7285ZM55.1196 0L57.7637 0L30.6382-70.459L29.4326-70.459L29.4326-67.1323Z"/>
  </g>
  <line id="Baseline-S" style="fill:none;stroke:#27AAE1;opacity:1;stroke-width:0.5;" x1="263" x2="3036" y1="696" y2="696"/>
  <line id="Capline-S" style="fill:none;stroke:#27AAE1;opacity:1;stroke-width:0.5;" x1="263" x2="3036" y1="625.541" y2="625.541"/>
  <g id="H-reference" style="fill:#27AAE1;stroke:none;" transform="matrix(1 0 0 1 339 1126)">
   <path d="M0.993654 0L3.63775 0L29.3281-67.1323L30.0303-67.1323L30.0303-70.459L28.1226-70.459ZM11.6885-24.4799L46.9815-24.4799L46.2315-26.7285L12.4385-26.7285ZM55.1196 0L57.7637 0L30.6382-70.459L29.4326-70.459L29.4326-67.1323Z"/>
  </g>
  <line id="Baseline-M" style="fill:none;stroke:#27AAE1;opacity:1;stroke-width:0.5;" x1="263" x2="3036" y1="1126" y2="1126"/>
  <line id="Capline-M" style="fill:none;stroke:#27AAE1;opacity:1;stroke-width:0.5;" x1="263" x2="3036" y1="1055.54" y2="1055.54"/>
  <g id="H-reference" style="fill:#27AAE1;stroke:none;" transform="matrix(1 0 0 1 339 1556)">
   <path d="M0.993654 0L3.63775 0L29.3281-67.1323L30.0303-67.1323L30.0303-70.459L28.1226-70.459ZM11.6885-24.4799L46.9815-24.4799L46.2315-26.7285L12.4385-26.7285ZM55.1196 0L57.7637 0L30.6382-70.459L29.4326-70.459L29.4326-67.1323Z"/>
  </g>
  <line id="Baseline-L" style="fill:none;stroke:#27AAE1;opacity:1;stroke-width:0.5;" x1="263" x2="3036" y1="1556" y2="1556"/>
  <line id="Capline-L" style="fill:none;stroke:#27AAE1;opacity:1;stroke-width:0.5;" x1="263" x2="3036" y1="1485.54" y2="1485.54"/>
  <line id="left-margin-Ultralight-S" style="fill:none;stroke:#00AEEF;stroke-width:0.5;opacity:1.0;" x1="485.659" x2="485.659" y1="600.785" y2="720.121"/>
  <line id="right-margin-Ultralight-S" style="fill:none;stroke:#00AEEF;stroke-width:0.5;opacity:1.0;" x1="633.764" x2="633.764" y1="600.785" y2="720.121"/>
  <line id="left-margin-Regular-S" style="fill:none;stroke:#00AEEF;stroke-width:0.5;opacity:1.0;" x1="1370.86" x2="1370.86" y1="600.785" y2="720.121"/>
  <line id="right-margin-Regular-S" style="fill:none;stroke:#00AEEF;stroke-width:0.5;opacity:1.0;" x1="1528.82" x2="1528.82" y1="600.785" y2="720.121"/>
  <line id="left-margin-Black-S" style="fill:none;stroke:#00AEEF;stroke-width:0.5;opacity:1.0;" x1="2852.91" x2="2852.91" y1="600.785" y2="720.121"/>
  <line id="right-margin-Black-S" style="fill:none;stroke:#00AEEF;stroke-width:0.5;opacity:1.0;" x1="3013.89" x2="3013.89" y1="600.785" y2="720.121"/>
 </g>
 <g id="Symbols">
  <g id="Black-S" transform="matrix(1 0 0 1 2852.91 696)">
   <path class="monochrome-0 SFSymbolsPreview000000" d="M96.9727 3.90625C100.293 1.9043 101.416-2.39258 99.5117-5.71289L61.084-72.2656C59.3262-75.293 56.543-76.3672 53.0762-76.0742C50.0488-75.8301 46.4355-74.4629 42.627-72.2656C34.1797-67.3828 29.7363-58.8379 22.4121-54.5898C19.1895-52.7344 16.0156-51.8555 14.0625-50.7324C10.1074-48.4375 8.54492-44.0918 10.8398-40.1367L26.0254-13.7695C27.7344-10.791 30.5664-9.66797 34.0332-10.0098C37.0605-10.2051 40.6738-11.6211 44.4824-13.8184C52.9297-18.7012 57.373-27.2461 64.6973-31.4941C65.6738-32.0312 66.6504-32.5195 67.5781-32.959L87.3535 1.26953C89.3066 4.63867 93.6035 5.9082 96.9727 3.90625ZM83.9844-44.7266L92.0898-30.6641L93.4082-32.959C94.3359-32.5195 95.3125-32.0312 96.2891-31.4941C103.613-27.2461 108.057-18.7012 116.504-13.8184C120.312-11.6211 123.926-10.2051 126.953-10.0098C130.42-9.66797 133.252-10.791 134.961-13.7695L150.146-40.1367C152.441-44.0918 150.879-48.4375 146.924-50.7324C144.971-51.8555 141.797-52.7344 138.574-54.5898C131.25-58.8379 126.807-67.3828 118.359-72.2656C114.551-74.4629 110.938-75.8301 107.91-76.0742C104.443-76.3672 101.66-75.293 99.9023-72.2656ZM64.0137 3.90625C67.3828 5.9082 71.6797 4.63867 73.6328 1.26953L76.9531-4.49219L68.8965-18.5547L61.4746-5.71289C59.5703-2.39258 60.6934 1.9043 64.0137 3.90625ZM109.619-46.3867L112.793-51.9043C115.088-49.8047 116.992-47.9004 118.945-45.8496L115.771-40.2832C113.672-42.4805 111.963-44.3359 109.619-46.3867ZM45.2148-40.2832L42.041-45.8496C43.9941-47.9004 45.8984-49.8047 48.1934-51.9043L51.3672-46.3867C49.0234-44.3359 47.3145-42.4805 45.2148-40.2832ZM121.973-34.375L125.195-39.8926C127.051-38.3789 128.418-37.5977 129.053-37.2559C129.883-36.7676 130.762-36.2793 131.592-35.9863L128.369-30.4199C127.93-30.5664 127.539-30.7129 126.807-31.1523C125.879-31.6895 124.023-32.8125 121.973-34.375ZM32.6172-30.4199L29.3945-35.9863C30.2246-36.2793 31.1035-36.7676 31.9336-37.2559C32.5684-37.5977 33.9355-38.3789 35.791-39.8926L39.0137-34.375C36.9629-32.8125 35.1074-31.6895 34.1797-31.1523C33.4473-30.7129 33.0566-30.5664 32.6172-30.4199ZM41.8457-29.3457L39.0137-34.375C41.3086-36.3281 43.2617-38.2812 45.2148-40.2832L47.8516-35.6445C45.7031-33.4473 43.8965-31.25 41.8457-29.3457ZM113.135-35.6445L115.771-40.2832C117.725-38.2812 119.678-36.3281 121.973-34.375L119.141-29.3457C117.09-31.25 115.283-33.4473 113.135-35.6445ZM35.791-39.8926L32.959-44.7266C35.498-46.582 37.5-48.584 39.3555-50.4883L42.041-45.8496C40.2832-43.75 37.4023-41.2109 35.791-39.8926ZM118.945-45.8496L121.631-50.4883C123.486-48.584 125.488-46.582 128.027-44.7266L125.195-39.8926C123.584-41.2109 120.703-43.75 118.945-45.8496ZM100.488-45.2148L103.271-50.0977C104.15-49.8535 105.029-49.5117 105.908-49.0234C107.52-48.0469 108.789-47.0215 109.619-46.3867L106.689-41.4062C105.664-42.1387 104.492-42.9199 103.271-43.6035C102.344-44.1406 101.416-44.6777 100.488-45.2148ZM54.2969-41.4062L51.3672-46.3867C52.1973-47.0215 53.4668-48.0469 55.0781-49.0234C55.957-49.5117 56.8359-49.8535 57.7148-50.0977L60.498-45.2148C59.5703-44.6777 58.6426-44.1406 57.7148-43.6035C56.4941-42.9199 55.3223-42.1387 54.2969-41.4062ZM106.494-55.6152L109.57-60.9863C110.107-60.6934 110.645-60.4004 111.182-60.0586C112.842-59.1797 114.258-58.0566 115.625-56.7871L112.793-51.9043C111.572-52.9785 109.668-54.248 109.082-54.541C108.203-55.0781 107.373-55.4199 106.494-55.6152ZM48.1934-51.9043L45.3613-56.7871C46.7285-58.0566 48.1445-59.1797 49.8047-60.0586C50.3418-60.4004 50.8789-60.6934 51.416-60.9863L54.4922-55.6152C53.6133-55.4199 52.7832-55.0781 51.9043-54.541C51.3184-54.248 49.4141-52.9785 48.1934-51.9043Z"/>
  </g>
  <g id="Regular-S" transform="matrix(1 0 0 1 1370.86 696)">
   <path class="monochrome-0 SFSymbolsPreview000000" d="M99.2188 4.10156C100.732 3.22266 101.318 1.12305 100.439-0.439453L59.5215-71.1914C57.5684-74.5605 54.9316-75.5371 51.9043-75.2441C49.707-74.9512 46.7285-73.7793 43.8965-72.168C34.2285-66.5527 30.6152-58.0078 21.4355-52.7344C17.4316-50.3906 13.916-49.5117 12.207-48.5352C10.0586-47.2656 9.0332-45.166 10.3516-42.8223L25.5859-16.4062C27.5391-13.0859 30.1758-12.1582 33.2031-12.4023C35.4004-12.6953 38.3789-13.8672 41.1621-15.5273C50.8789-21.1426 54.4922-29.6875 63.6719-34.9609C66.5039-36.6211 69.1406-37.5488 70.9473-38.2812L94.7266 2.88086C95.6543 4.49219 97.6074 5.0293 99.2188 4.10156ZM81.7871-42.334L85.5957-35.791L87.0117-38.2812C88.8672-37.5488 91.4551-36.6211 94.3359-34.9609C103.467-29.6875 107.08-21.1426 116.797-15.5273C119.58-13.8672 122.559-12.6953 124.805-12.4023C127.783-12.1582 130.42-13.0859 132.373-16.4062L147.607-42.8223C148.926-45.166 147.9-47.2656 145.752-48.5352C144.043-49.5117 140.527-50.3906 136.523-52.7344C127.344-58.0078 123.73-66.5527 114.062-72.168C111.23-73.7793 108.252-74.9512 106.055-75.2441C103.027-75.5371 100.391-74.5605 98.4375-71.1914ZM58.7402 4.10156C60.3516 5.0293 62.3535 4.49219 63.2324 2.88086L76.1719-19.5801L72.4121-26.123L57.5195-0.439453C56.6406 1.12305 57.2266 3.22266 58.7402 4.10156ZM104.346-47.8027L109.57-56.6895C112.939-54.248 115.283-51.5137 118.066-48.7305L112.891-39.7461C109.961-42.7246 107.715-45.3125 104.346-47.8027ZM45.0684-39.7461L39.8926-48.7305C42.6758-51.5137 45.0195-54.248 48.3887-56.6895L53.6133-47.8027C50.2441-45.3125 47.998-42.7246 45.0684-39.7461ZM121.484-31.8848L126.611-40.8203C127.539-40.2832 128.32-39.7461 129.199-39.2578C132.129-37.5 134.668-36.5723 136.182-36.1328L131.006-27.1973C129.346-27.6855 126.904-28.6621 124.023-30.3223C122.998-30.9082 122.314-31.2988 121.484-31.8848ZM26.9531-27.1973L21.7773-36.1328C23.3398-36.5723 25.8301-37.5 28.8086-39.2578C29.6387-39.7461 30.4199-40.2832 31.3477-40.8203L36.4746-31.8848C35.6445-31.2988 34.9609-30.9082 33.9355-30.3223C31.0547-28.6621 28.6133-27.6855 26.9531-27.1973ZM41.3086-23.5352L36.4746-31.8848C39.7949-34.375 42.4805-36.8652 45.0684-39.7461L49.707-31.7383C47.0703-28.8574 44.4824-25.9766 41.3086-23.5352ZM108.252-31.7383L112.891-39.7461C115.479-36.8652 118.164-34.375 121.484-31.8848L116.65-23.5352C113.477-25.9766 110.938-28.8574 108.252-31.7383ZM31.3477-40.8203L26.9531-48.3398C30.4688-50.7324 33.1055-53.4668 35.5957-56.1523L39.8926-48.7305C37.3047-45.8496 34.7656-43.2617 31.3477-40.8203ZM118.066-48.7305L122.363-56.1523C124.854-53.4668 127.49-50.7324 131.006-48.3398L126.611-40.8203C123.193-43.2617 120.654-45.8496 118.066-48.7305ZM90.4297-44.1895L94.7754-51.709C96.0938-51.8555 98.3398-51.4648 101.416-49.707C102.637-49.0234 103.369-48.5352 104.346-47.8027L99.5605-39.502C98.9258-39.9414 98.291-40.332 97.6074-40.7227C95.459-41.9434 92.4805-43.6523 90.4297-44.1895ZM58.4473-39.502L53.6133-47.8027C54.5898-48.5352 55.3223-49.0234 56.543-49.707C59.6191-51.4648 61.9141-51.8555 63.1836-51.709L67.5293-44.1895C65.4785-43.6523 62.5-41.9434 60.3516-40.7227C59.668-40.332 59.0332-39.9414 58.4473-39.502ZM99.9512-60.6445L104.59-68.7012C107.178-68.5059 109.766-66.9922 110.742-66.4551C111.865-65.7715 112.939-65.0879 113.916-64.3555L109.57-56.6895C108.643-57.3242 107.373-58.2031 106.543-58.6914C103.516-60.4004 101.27-60.8398 99.9512-60.6445ZM48.3887-56.6895L44.043-64.3555C45.0195-65.0879 46.0938-65.7715 47.2168-66.4551C48.1934-66.9922 50.7812-68.5059 53.3691-68.7012L58.0078-60.6445C56.6895-60.8398 54.4434-60.4004 51.416-58.6914C50.6348-58.2031 49.3164-57.3242 48.3887-56.6895Z"/>
  </g>
  <g id="Ultralight-S" transform="matrix(1 0 0 1 485.659 696)">
   <path class="monochrome-0 SFSymbolsPreview000000" d="M96.0401 2.33058C96.5093 1.99659 96.732 1.3501 96.398 0.832021L54.6626-71.4639C53.8448-72.835 52.5703-73.1758 50.9507-73.0645C48.5264-72.9077 45.3662-71.5542 42.9429-70.0791C33.8652-64.7363 30.252-56.3276 20.4365-50.6455C16.1602-48.211 12.5083-47.4683 10.8901-46.5825C9.78613-45.9033 9.44189-44.939 10.0791-43.8213L26.1309-15.9976C26.9487-14.6299 28.2686-14.2925 29.9336-14.4004C32.3579-14.6025 35.4727-15.9106 37.8472-17.3891C46.9737-22.7319 50.5869-31.1406 60.4024-36.8227C64.5967-39.2095 68.3687-40.228 69.9483-40.688L94.5449 1.92725C94.8823 2.44875 95.4732 2.62258 96.0401 2.33058ZM76.0655-41.3804L77.3311-39.1968L78.2022-40.688C79.7852-40.228 83.5084-39.2095 87.7515-36.8227C97.5181-31.1406 101.131-22.7319 110.258-17.3891C112.678-15.9106 115.793-14.6025 118.22-14.4004C119.836-14.2925 121.202-14.6299 121.974-15.9976L138.071-43.8213C138.663-44.939 138.364-45.9033 137.215-46.5825C135.597-47.4683 131.945-48.211 127.714-50.6455C117.899-56.3276 114.285-64.7363 105.208-70.0791C102.739-71.5542 99.6241-72.9077 97.1998-73.0645C95.5347-73.1758 94.2603-72.835 93.4878-71.4639ZM52.1104 2.33058C52.6319 2.62258 53.2716 2.44875 53.5601 1.92725L72.0396-30.0243L70.7774-32.2534L51.7071 0.832021C51.4185 1.3501 51.5957 1.99659 52.1104 2.33058ZM96.0357-47.5303L101.533-57.0073C105.265-54.3389 107.791-51.6045 110.71-48.458L105.171-38.9287C102.105-42.2705 99.6773-44.9492 96.0357-47.5303ZM42.9341-38.9287L37.4404-48.458C40.3145-51.6045 42.8399-54.3389 46.5723-57.0073L52.0693-47.5303C48.4277-44.9492 46-42.2705 42.9341-38.9287ZM114.446-30.5679L119.936-40.0938C120.364-39.7837 121.055-39.3374 121.752-38.9399C125.272-36.8643 128.856-35.8457 130.596-35.4063L125.103-25.8804C121.217-26.8228 118.685-28.0264 116.213-29.4141C115.505-29.8184 114.64-30.3906 114.446-30.5679ZM23.0025-25.8804L17.5088-35.4063C19.253-35.8457 22.8784-36.8643 26.4019-38.9399C27.0957-39.3374 27.7862-39.7837 28.2144-40.0938L33.7046-30.5679C33.4649-30.3906 32.5996-29.8184 31.8921-29.4141C29.4199-28.0264 26.8877-26.8228 23.0025-25.8804ZM39.2652-20.9014L33.7046-30.5679C37.2974-33.0127 39.4834-35.0943 42.9341-38.9287L48.3447-29.5586C45.481-26.4961 42.8023-23.4336 39.2652-20.9014ZM99.7603-29.5586L105.171-38.9287C108.667-35.0943 110.853-33.0127 114.446-30.5679L108.84-20.9014C105.303-23.4336 102.628-26.4961 99.7603-29.5586ZM28.2144-40.0938L22.8208-49.6113C26.6543-52.0039 29.4727-54.8291 32.1446-57.6509L37.4404-48.458C34.4439-45.1231 31.2237-41.9902 28.2144-40.0938ZM110.71-48.458L115.96-57.6509C118.632-54.8291 121.451-52.0039 125.284-49.6113L119.936-40.0938C116.881-41.9902 113.707-45.1231 110.71-48.458ZM79.3951-42.7363L84.5582-51.709C86.1036-52.1279 89.6666-51.3286 93.5601-49.0713C94.8716-48.2969 95.2862-47.9902 96.0357-47.5303L90.4786-37.731C89.9346-38.0796 89.3907-38.3794 88.8433-38.7246C86.6949-39.9453 83.7618-41.291 79.3951-42.7363ZM57.6753-37.731L52.0693-47.5303C52.8189-47.9902 53.2334-48.2969 54.5449-49.0713C58.4839-51.3286 62.0049-52.1279 63.5469-51.709L68.7554-42.7363C64.3887-41.291 61.4556-39.9453 59.3071-38.7246C58.7598-38.3794 58.2158-38.0796 57.6753-37.731ZM90.0518-61.1894L95.6895-70.9717C99.0948-71.0488 103.045-68.8086 104.112-68.1807C105.145-67.5879 106.083-66.9497 106.968-66.3081L101.533-57.0073C100.605-57.6875 99.9712-58.0215 99.0049-58.6006C95.1602-60.8091 91.5972-61.6118 90.0518-61.1894ZM46.5723-57.0073L41.1822-66.3081C42.0679-66.9497 43.0059-67.5879 44.0381-68.1807C45.1055-68.8086 49.0103-71.0488 52.4609-70.9717L58.0532-61.1894C56.5078-61.6118 52.9448-60.8091 49.1001-58.6006C48.1826-58.0215 47.5-57.6875 46.5723-57.0073Z"/>
  </g>
 </g>
</svg>
