<?xml version="1.0" encoding="UTF-8"?>
<!--Generator: Apple Native CoreSVG 175.5-->
<!DOCTYPE svg
PUBLIC "-//W3C//DTD SVG 1.1//EN"
       "http://www.w3.org/Graphics/SVG/1.1/DTD/svg11.dtd">
<svg version="1.1" xmlns="http://www.w3.org/2000/svg" xmlns:xlink="http://www.w3.org/1999/xlink" width="3300" height="2200">
 <!--glyph: "uni10167E.medium", point size: 100.0, font version: "18.0d11e1", template writer version: "90"-->
 <style>.monochrome-0 {fill:#000000}
.monochrome-1 {fill:#000000}

.hierarchical-0:secondary {fill:#4D4D4D}
.hierarchical-1:primary {fill:#212121}

.SFSymbolsPreview212121 {fill:#212121;opacity:1.0}
.SFSymbolsPreview4D4D4D {fill:#4D4D4D;opacity:1.0}
</style>
 <g id="Notes">
  <rect height="2200" id="artboard" style="fill:white;opacity:1" width="3300" x="0" y="0"/>
  <line style="fill:none;stroke:black;opacity:1;stroke-width:0.5;" x1="263" x2="3036" y1="292" y2="292"/>
  <text style="stroke:none;fill:black;font-family:sans-serif;font-size:13;font-weight:bold;" transform="matrix(1 0 0 1 263 322)">Weight/Scale Variations</text>
  <text style="stroke:none;fill:black;font-family:sans-serif;font-size:13;text-anchor:middle;" transform="matrix(1 0 0 1 559.711 322)">Ultralight</text>
  <text style="stroke:none;fill:black;font-family:sans-serif;font-size:13;text-anchor:middle;" transform="matrix(1 0 0 1 856.422 322)">Thin</text>
  <text style="stroke:none;fill:black;font-family:sans-serif;font-size:13;text-anchor:middle;" transform="matrix(1 0 0 1 1153.13 322)">Light</text>
  <text style="stroke:none;fill:black;font-family:sans-serif;font-size:13;text-anchor:middle;" transform="matrix(1 0 0 1 1449.84 322)">Regular</text>
  <text style="stroke:none;fill:black;font-family:sans-serif;font-size:13;text-anchor:middle;" transform="matrix(1 0 0 1 1746.56 322)">Medium</text>
  <text style="stroke:none;fill:black;font-family:sans-serif;font-size:13;text-anchor:middle;" transform="matrix(1 0 0 1 2043.27 322)">Semibold</text>
  <text style="stroke:none;fill:black;font-family:sans-serif;font-size:13;text-anchor:middle;" transform="matrix(1 0 0 1 2339.98 322)">Bold</text>
  <text style="stroke:none;fill:black;font-family:sans-serif;font-size:13;text-anchor:middle;" transform="matrix(1 0 0 1 2636.69 322)">Heavy</text>
  <text style="stroke:none;fill:black;font-family:sans-serif;font-size:13;text-anchor:middle;" transform="matrix(1 0 0 1 2933.4 322)">Black</text>
  <line style="fill:none;stroke:black;opacity:1;stroke-width:0.5;" x1="263" x2="3036" y1="1903" y2="1903"/>
  <g transform="matrix(1 0 0 1 263 1933)">
   <path d="M9.24805 0.830078C13.5547 0.830078 17.1387-2.74414 17.1387-7.05078C17.1387-11.3574 13.5449-14.9316 9.23828-14.9316C4.94141-14.9316 1.36719-11.3574 1.36719-7.05078C1.36719-2.74414 4.95117 0.830078 9.24805 0.830078ZM9.24805-0.654297C5.70312-0.654297 2.87109-3.49609 2.87109-7.05078C2.87109-10.6055 5.69336-13.4473 9.23828-13.4473C12.793-13.4473 15.6445-10.6055 15.6445-7.05078C15.6445-3.49609 12.8027-0.654297 9.24805-0.654297ZM5.6543-7.05078C5.6543-6.62109 5.95703-6.32812 6.40625-6.32812L8.50586-6.32812L8.50586-4.20898C8.50586-3.76953 8.79883-3.4668 9.22852-3.4668C9.67773-3.4668 9.9707-3.76953 9.9707-4.20898L9.9707-6.32812L12.0898-6.32812C12.5293-6.32812 12.832-6.62109 12.832-7.05078C12.832-7.49023 12.5293-7.79297 12.0898-7.79297L9.9707-7.79297L9.9707-9.90234C9.9707-10.3516 9.67773-10.6543 9.22852-10.6543C8.79883-10.6543 8.50586-10.3516 8.50586-9.90234L8.50586-7.79297L6.40625-7.79297C5.95703-7.79297 5.6543-7.49023 5.6543-7.05078Z"/>
  </g>
  <g transform="matrix(1 0 0 1 281.867 1933)">
   <path d="M11.709 2.91016C17.1582 2.91016 21.6699-1.61133 21.6699-7.05078C21.6699-12.5 17.1484-17.0117 11.6992-17.0117C6.25977-17.0117 1.74805-12.5 1.74805-7.05078C1.74805-1.61133 6.26953 2.91016 11.709 2.91016ZM11.709 1.25C7.09961 1.25 3.41797-2.44141 3.41797-7.05078C3.41797-11.6602 7.08984-15.3516 11.6992-15.3516C16.3086-15.3516 20.0098-11.6602 20.0098-7.05078C20.0098-2.44141 16.3184 1.25 11.709 1.25ZM7.17773-7.05078C7.17773-6.57227 7.50977-6.25 8.00781-6.25L10.8789-6.25L10.8789-3.36914C10.8789-2.88086 11.2109-2.53906 11.6895-2.53906C12.1777-2.53906 12.5195-2.87109 12.5195-3.36914L12.5195-6.25L15.4004-6.25C15.8887-6.25 16.2305-6.57227 16.2305-7.05078C16.2305-7.53906 15.8887-7.88086 15.4004-7.88086L12.5195-7.88086L12.5195-10.752C12.5195-11.25 12.1777-11.5918 11.6895-11.5918C11.2109-11.5918 10.8789-11.25 10.8789-10.752L10.8789-7.88086L8.00781-7.88086C7.50977-7.88086 7.17773-7.53906 7.17773-7.05078Z"/>
  </g>
  <g transform="matrix(1 0 0 1 305.646 1933)">
   <path d="M14.9707 5.66406C21.9336 5.66406 27.6953-0.0976562 27.6953-7.05078C27.6953-14.0137 21.9238-19.7754 14.9609-19.7754C8.00781-19.7754 2.25586-14.0137 2.25586-7.05078C2.25586-0.0976562 8.01758 5.66406 14.9707 5.66406ZM14.9707 3.84766C8.93555 3.84766 4.08203-1.01562 4.08203-7.05078C4.08203-13.0957 8.92578-17.9492 14.9609-17.9492C21.0059-17.9492 25.8691-13.0957 25.8691-7.05078C25.8691-1.01562 21.0156 3.84766 14.9707 3.84766ZM9.19922-7.05078C9.19922-6.5332 9.57031-6.17188 10.1172-6.17188L14.0625-6.17188L14.0625-2.2168C14.0625-1.67969 14.4336-1.29883 14.9512-1.29883C15.4883-1.29883 15.8594-1.66992 15.8594-2.2168L15.8594-6.17188L19.8145-6.17188C20.3516-6.17188 20.7324-6.5332 20.7324-7.05078C20.7324-7.59766 20.3613-7.96875 19.8145-7.96875L15.8594-7.96875L15.8594-11.9141C15.8594-12.4609 15.4883-12.8418 14.9512-12.8418C14.4336-12.8418 14.0625-12.4609 14.0625-11.9141L14.0625-7.96875L10.1172-7.96875C9.57031-7.96875 9.19922-7.59766 9.19922-7.05078Z"/>
  </g>
  <text style="stroke:none;fill:black;font-family:sans-serif;font-size:13;font-weight:bold;" transform="matrix(1 0 0 1 263 1953)">Design Variations</text>
  <text style="stroke:none;fill:black;font-family:sans-serif;font-size:13;" transform="matrix(1 0 0 1 263 1971)">Symbols are supported in up to nine weights and three scales.</text>
  <text style="stroke:none;fill:black;font-family:sans-serif;font-size:13;" transform="matrix(1 0 0 1 263 1989)">For optimal layout with text and other symbols, vertically align</text>
  <text style="stroke:none;fill:black;font-family:sans-serif;font-size:13;" transform="matrix(1 0 0 1 263 2007)">symbols with the adjacent text.</text>
  <line style="fill:none;stroke:#00AEEF;stroke-width:0.5;opacity:1.0;" x1="776" x2="776" y1="1919" y2="1933"/>
  <g transform="matrix(1 0 0 1 776 1933)">
   <path d="M3.31055 0.15625C3.82812 0.15625 4.08203-0.0390625 4.26758-0.585938L5.52734-4.0332L11.2891-4.0332L12.5488-0.585938C12.7344-0.0390625 12.9883 0.15625 13.4961 0.15625C14.0137 0.15625 14.3457-0.15625 14.3457-0.644531C14.3457-0.810547 14.3164-0.966797 14.2383-1.17188L9.6582-13.3691C9.43359-13.9648 9.0332-14.2676 8.4082-14.2676C7.80273-14.2676 7.39258-13.9746 7.17773-13.3789L2.59766-1.16211C2.51953-0.957031 2.49023-0.800781 2.49023-0.634766C2.49023-0.146484 2.80273 0.15625 3.31055 0.15625ZM6.00586-5.51758L8.37891-12.0898L8.42773-12.0898L10.8008-5.51758Z"/>
  </g>
  <line style="fill:none;stroke:#00AEEF;stroke-width:0.5;opacity:1.0;" x1="793.197" x2="793.197" y1="1919" y2="1933"/>
  <text style="stroke:none;fill:black;font-family:sans-serif;font-size:13;font-weight:bold;" transform="matrix(1 0 0 1 776 1953)">Margins</text>
  <text style="stroke:none;fill:black;font-family:sans-serif;font-size:13;" transform="matrix(1 0 0 1 776 1971)">Leading and trailing margins on the left and right side of each symbol</text>
  <text style="stroke:none;fill:black;font-family:sans-serif;font-size:13;" transform="matrix(1 0 0 1 776 1989)">can be adjusted by modifying the x-location of the margin guidelines.</text>
  <text style="stroke:none;fill:black;font-family:sans-serif;font-size:13;" transform="matrix(1 0 0 1 776 2007)">Modifications are automatically applied proportionally to all</text>
  <text style="stroke:none;fill:black;font-family:sans-serif;font-size:13;" transform="matrix(1 0 0 1 776 2025)">scales and weights.</text>
  <g transform="matrix(1 0 0 1 1289 1933)">
   <path d="M2.8418 1.86523L4.54102 3.57422C5.40039 4.44336 6.38672 4.38477 7.31445 3.35938L18.0078-8.42773L17.041-9.4043L6.42578 2.27539C6.07422 2.67578 5.74219 2.77344 5.27344 2.30469L4.10156 1.14258C3.63281 0.683594 3.74023 0.341797 4.14062-0.0195312L15.6152-10.8203L14.6387-11.7871L3.04688-0.898438C2.06055 0.0195312 1.98242 0.996094 2.8418 1.86523ZM9.25781-16.3281C8.83789-15.918 8.80859-15.3418 9.04297-14.9512C9.27734-14.5898 9.73633-14.3555 10.3809-14.5215C11.8457-14.8633 13.3691-14.9219 14.7949-13.9844L14.209-12.5293C13.8672-11.6992 14.043-11.1133 14.5801-10.5664L16.875-8.25195C17.3633-7.76367 17.7734-7.74414 18.3398-7.8418L19.4043-8.03711L20.0684-7.36328L20.0293-6.80664C19.9902-6.30859 20.1172-5.92773 20.6055-5.44922L21.3672-4.70703C21.8457-4.22852 22.4609-4.19922 22.9297-4.66797L25.8398-7.58789C26.3086-8.05664 26.2891-8.65234 25.8105-9.13086L25.0391-9.89258C24.5605-10.3711 24.1895-10.5273 23.7109-10.4883L23.1348-10.4395L22.4902-11.0742L22.7344-12.1973C22.8613-12.7637 22.7051-13.2031 22.1191-13.7891L19.9219-15.9766C16.582-19.2969 12.1484-19.2188 9.25781-16.3281ZM10.752-15.957C13.1836-17.7344 16.4746-17.4316 18.7012-15.2051L21.1328-12.793C21.3672-12.5586 21.4062-12.373 21.3379-12.0312L21.0156-10.5469L22.5195-9.0625L23.5059-9.12109C23.7598-9.13086 23.8379-9.11133 24.0332-8.91602L24.6094-8.33984L22.168-5.89844L21.5918-6.47461C21.3965-6.66992 21.3672-6.74805 21.377-7.01172L21.4453-7.98828L19.9512-9.47266L18.4277-9.21875C18.1055-9.15039 17.959-9.17969 17.7148-9.41406L15.7129-11.416C15.459-11.6504 15.4297-11.8164 15.5859-12.1875L16.4648-14.2773C14.9023-15.7324 12.8711-16.3574 10.8398-15.7617C10.6836-15.7227 10.625-15.8496 10.752-15.957Z"/>
  </g>
  <text style="stroke:none;fill:black;font-family:sans-serif;font-size:13;font-weight:bold;" transform="matrix(1 0 0 1 1289 1953)">Exporting</text>
  <text style="stroke:none;fill:black;font-family:sans-serif;font-size:13;" transform="matrix(1 0 0 1 1289 1971)">Symbols should be outlined when exporting to ensure the</text>
  <text style="stroke:none;fill:black;font-family:sans-serif;font-size:13;" transform="matrix(1 0 0 1 1289 1989)">design is preserved when submitting to Xcode.</text>
  <text id="template-version" style="stroke:none;fill:black;font-family:sans-serif;font-size:13;text-anchor:end;" transform="matrix(1 0 0 1 3036 1933)">Template v.4.0</text>
  <text style="stroke:none;fill:black;font-family:sans-serif;font-size:13;text-anchor:end;" transform="matrix(1 0 0 1 3036 1951)">Requires Xcode 14 or greater</text>
  <text id="descriptive-name" style="stroke:none;fill:black;font-family:sans-serif;font-size:13;text-anchor:end;" transform="matrix(1 0 0 1 3036 1969)">Generated from firewall</text>
  <text style="stroke:none;fill:black;font-family:sans-serif;font-size:13;text-anchor:end;" transform="matrix(1 0 0 1 3036 1987)">Typeset at 100 points</text>
  <text style="stroke:none;fill:black;font-family:sans-serif;font-size:13;" transform="matrix(1 0 0 1 263 726)">Small</text>
  <text style="stroke:none;fill:black;font-family:sans-serif;font-size:13;" transform="matrix(1 0 0 1 263 1156)">Medium</text>
  <text style="stroke:none;fill:black;font-family:sans-serif;font-size:13;" transform="matrix(1 0 0 1 263 1586)">Large</text>
 </g>
 <g id="Guides">
  <g id="H-reference" style="fill:#27AAE1;stroke:none;" transform="matrix(1 0 0 1 339 696)">
   <path d="M0.993654 0L3.63775 0L29.3281-67.1323L30.0303-67.1323L30.0303-70.459L28.1226-70.459ZM11.6885-24.4799L46.9815-24.4799L46.2315-26.7285L12.4385-26.7285ZM55.1196 0L57.7637 0L30.6382-70.459L29.4326-70.459L29.4326-67.1323Z"/>
  </g>
  <line id="Baseline-S" style="fill:none;stroke:#27AAE1;opacity:1;stroke-width:0.5;" x1="263" x2="3036" y1="696" y2="696"/>
  <line id="Capline-S" style="fill:none;stroke:#27AAE1;opacity:1;stroke-width:0.5;" x1="263" x2="3036" y1="625.541" y2="625.541"/>
  <g id="H-reference" style="fill:#27AAE1;stroke:none;" transform="matrix(1 0 0 1 339 1126)">
   <path d="M0.993654 0L3.63775 0L29.3281-67.1323L30.0303-67.1323L30.0303-70.459L28.1226-70.459ZM11.6885-24.4799L46.9815-24.4799L46.2315-26.7285L12.4385-26.7285ZM55.1196 0L57.7637 0L30.6382-70.459L29.4326-70.459L29.4326-67.1323Z"/>
  </g>
  <line id="Baseline-M" style="fill:none;stroke:#27AAE1;opacity:1;stroke-width:0.5;" x1="263" x2="3036" y1="1126" y2="1126"/>
  <line id="Capline-M" style="fill:none;stroke:#27AAE1;opacity:1;stroke-width:0.5;" x1="263" x2="3036" y1="1055.54" y2="1055.54"/>
  <g id="H-reference" style="fill:#27AAE1;stroke:none;" transform="matrix(1 0 0 1 339 1556)">
   <path d="M0.993654 0L3.63775 0L29.3281-67.1323L30.0303-67.1323L30.0303-70.459L28.1226-70.459ZM11.6885-24.4799L46.9815-24.4799L46.2315-26.7285L12.4385-26.7285ZM55.1196 0L57.7637 0L30.6382-70.459L29.4326-70.459L29.4326-67.1323Z"/>
  </g>
  <line id="Baseline-L" style="fill:none;stroke:#27AAE1;opacity:1;stroke-width:0.5;" x1="263" x2="3036" y1="1556" y2="1556"/>
  <line id="Capline-L" style="fill:none;stroke:#27AAE1;opacity:1;stroke-width:0.5;" x1="263" x2="3036" y1="1485.54" y2="1485.54"/>
  <line id="left-margin-Ultralight-S" style="fill:none;stroke:#00AEEF;stroke-width:0.5;opacity:1.0;" x1="516.776" x2="516.776" y1="600.785" y2="720.121"/>
  <line id="right-margin-Ultralight-S" style="fill:none;stroke:#00AEEF;stroke-width:0.5;opacity:1.0;" x1="602.647" x2="602.647" y1="600.785" y2="720.121"/>
  <line id="left-margin-Regular-S" style="fill:none;stroke:#00AEEF;stroke-width:0.5;opacity:1.0;" x1="1403.46" x2="1403.46" y1="600.785" y2="720.121"/>
  <line id="right-margin-Regular-S" style="fill:none;stroke:#00AEEF;stroke-width:0.5;opacity:1.0;" x1="1496.23" x2="1496.23" y1="600.785" y2="720.121"/>
  <line id="left-margin-Black-S" style="fill:none;stroke:#00AEEF;stroke-width:0.5;opacity:1.0;" x1="2884.86" x2="2884.86" y1="600.785" y2="720.121"/>
  <line id="right-margin-Black-S" style="fill:none;stroke:#00AEEF;stroke-width:0.5;opacity:1.0;" x1="2981.94" x2="2981.94" y1="600.785" y2="720.121"/>
 </g>
 <g id="Symbols">
  <g id="Black-S" transform="matrix(1 0 0 1 2884.86 696)">
   <path class="monochrome-0 hierarchical-0:secondary SFSymbolsPreview4D4D4D" d="M48.5352 5.61523C49.5117 5.61523 50.7812 5.17578 51.8066 4.6875C74.9512-6.34766 83.3984-13.4766 83.3984-27.3438L83.3984-54.4922C83.3984-61.6699 81.4941-64.9902 74.9023-67.8223C71.9238-69.0918 58.9844-73.0469 56.4941-73.7793C54.0527-74.5117 50.8789-74.9512 48.5352-74.9512C46.1914-74.9512 43.0176-74.4629 40.5762-73.7793C38.0859-73.0957 25.1465-69.0918 22.168-67.8223C15.5762-64.9902 13.6719-61.6699 13.6719-54.4922L13.6719-27.3438C13.6719-13.4766 22.1191-6.34766 45.2637 4.6875C46.2891 5.17578 47.5586 5.61523 48.5352 5.61523ZM48.5352-7.91016C48.291-7.91016 48.0957-7.95898 47.168-8.54492C30.6152-18.9941 26.3184-20.5078 26.3184-28.8086L26.3184-53.125C26.3184-54.7852 26.7578-55.5176 27.9297-56.0059C32.7637-58.0078 42.3828-61.1328 44.1406-61.6699C46.2891-62.3047 47.3633-62.5977 48.5352-62.5977C49.707-62.5977 50.7812-62.3047 52.9297-61.6699C54.6875-61.1328 64.3066-58.0078 69.1406-56.0059C70.3125-55.5176 70.752-54.7852 70.752-53.125L70.752-28.8086C70.752-20.1172 65.2832-17.4316 49.9023-8.54492C48.9746-8.00781 48.7793-7.91016 48.5352-7.91016Z"/>
   <path class="monochrome-1 hierarchical-1:primary SFSymbolsPreview212121" d="M33.1543-25.1465L41.748-19.4336C43.7012-18.1152 46.1426-19.1406 46.1426-21.5332L46.1426-23.8281L61.5234-23.8281C63.5254-23.8281 65.1367-25.4883 65.1367-27.4414C65.1367-29.4434 63.5254-31.1035 61.5234-31.1035L46.1426-31.1035L46.1426-33.3496C46.1426-35.7422 43.7012-36.7676 41.748-35.4492L33.252-29.7852C31.4941-28.6133 31.4453-26.2695 33.1543-25.1465ZM50.9277-51.9531L50.9277-49.707L35.5469-49.707C33.5449-49.707 31.9336-48.0469 31.9336-46.0449C31.9336-44.0918 33.5449-42.4316 35.5469-42.4316L50.9277-42.4316L50.9277-40.1367C50.9277-37.7441 53.418-36.6699 55.3223-38.0371L63.916-43.75C65.625-44.873 65.5762-47.2168 63.8184-48.3887L55.3223-54.0527C53.418-55.4199 50.9277-54.3457 50.9277-51.9531Z"/>
  </g>
  <g id="Regular-S" transform="matrix(1 0 0 1 1403.46 696)">
   <path class="monochrome-0 hierarchical-0:secondary SFSymbolsPreview4D4D4D" d="M46.3867 4.78516C46.9238 4.78516 47.9004 4.58984 48.9746 4.00391C70.8984-8.00781 78.6621-13.4766 78.6621-27.9297L78.6621-57.3242C78.6621-61.3281 76.7578-62.5488 73.7305-63.8672C69.7754-65.5762 53.6133-71.2891 49.6582-72.6562C48.6328-72.998 47.5098-73.2422 46.3867-73.2422C45.2637-73.2422 44.0918-72.9004 43.1152-72.6562C39.1602-71.6797 22.998-65.5273 19.043-63.8672C16.0156-62.5977 14.1113-61.3281 14.1113-57.3242L14.1113-27.9297C14.1113-13.4766 21.875-8.05664 43.7988 4.00391C44.873 4.58984 45.8496 4.78516 46.3867 4.78516ZM46.3867-3.22266C45.8008-3.22266 45.2148-3.36914 43.8965-4.10156C26.2695-14.6484 21.0449-17.7734 21.0449-29.6387L21.0449-56.0059C21.0449-56.8848 21.2402-57.2754 22.0215-57.6172C28.2715-60.0586 38.8184-63.4277 45.0684-65.918C45.5566-66.1133 45.9961-66.1621 46.3867-66.1621C46.7773-66.1621 47.2168-66.1133 47.7051-65.918C53.9062-63.4277 64.3066-59.7656 70.7031-57.6172C71.5332-57.3242 71.6797-56.8848 71.6797-56.0059L71.6797-29.6387C71.6797-17.7734 66.4551-14.6484 48.8281-4.10156C47.5586-3.36914 46.9727-3.22266 46.3867-3.22266Z"/>
   <path class="monochrome-1 hierarchical-1:primary SFSymbolsPreview212121" d="M29.3457-24.4141L38.8672-18.0176C40.1855-17.0898 41.9434-17.6758 41.9434-19.4336L41.9434-23.1934L60.2539-23.1934C61.8164-23.1934 63.0859-24.4629 63.0859-26.0254C63.0859-27.5879 61.8164-28.8574 60.2539-28.8574L41.9434-28.8574L41.9434-32.5684C41.9434-34.3262 40.1855-34.9121 38.8672-34.0332L29.4434-27.6367C28.1738-26.8066 28.125-25.1953 29.3457-24.4141ZM49.6094-52.0996L49.6094-48.3887L31.2988-48.3887C29.7363-48.3887 28.4668-47.1191 28.4668-45.5566C28.4668-43.9941 29.7363-42.7246 31.2988-42.7246L49.6094-42.7246L49.6094-38.9648C49.6094-37.207 51.3672-36.6211 52.6855-37.5488L62.207-43.9453C63.4277-44.7266 63.3789-46.3379 62.1094-47.168L52.6855-53.5645C51.3672-54.4434 49.6094-53.8574 49.6094-52.0996Z"/>
  </g>
  <g id="Ultralight-S" transform="matrix(1 0 0 1 516.776 696)">
   <path class="monochrome-0 hierarchical-0:secondary SFSymbolsPreview4D4D4D" d="M42.9356 2.78713C43.7906 2.78713 44.7671 2.31935 45.4326 1.91506C66.2666-10.8232 72.6226-14.6572 72.6226-26.3858L72.6226-55.1445C72.6226-59.3755 71.5357-60.7778 67.4639-62.3233C60.421-65.0313 52.7959-68.1104 45.7076-70.6128C44.7276-70.9546 43.877-71.1987 42.9356-71.1987C41.9942-71.1987 41.1402-70.9478 40.1636-70.6128C33.1207-67.9561 25.4502-65.0278 18.3618-62.3233C14.3355-60.8267 13.2485-59.3755 13.2485-55.1445L13.2485-26.3858C13.2485-14.6572 19.7407-11.0991 40.4385 1.91506C41.104 2.31935 42.0806 2.78713 42.9356 2.78713ZM42.9356 0.546357C42.2588 0.546357 41.4458 0.0820041 40.9448-0.287139C23.0908-11.9238 15.4595-15.1397 15.4595-26.46L15.4595-54.7344C15.4595-57.7476 16.0181-58.8647 18.1617-59.706C21.9595-61.2392 36.6387-66.8789 40.5274-68.3247C41.4698-68.747 42.4087-68.9775 42.9356-68.9775C43.4624-68.9775 44.3106-68.7016 45.2984-68.3247C49.1836-66.8789 63.8525-61.2187 67.7061-59.706C69.853-58.8682 70.4082-57.7476 70.4082-54.7344L70.4082-26.46C70.4082-15.1397 62.6861-12.0601 44.9229-0.287139C44.4253 0.0820041 43.6123 0.546357 42.9356 0.546357Z"/>
   <path class="monochrome-1 hierarchical-1:primary SFSymbolsPreview212121" d="M26.5757-25.186L36.0972-18.6533C36.8706-18.1797 37.9019-18.5386 37.9019-19.7061L37.9019-25.0552L58.6646-25.0552C59.228-25.0552 59.7256-25.5527 59.7256-26.1162C59.7256-26.7251 59.228-27.1773 58.6646-27.1773L37.9019-27.1773L37.9019-32.8408C37.9019-33.8721 36.9615-34.0947 36.2788-33.6245L26.6734-27.0918C25.8579-26.5342 25.9453-25.604 26.5757-25.186ZM47.8838-52.3721L47.8838-46.7085L27.1211-46.7085C26.5576-46.7085 26.0601-46.2564 26.0601-45.6475C26.0601-45.084 26.5576-44.5864 27.1211-44.5864L47.8838-44.5864L47.8838-39.2373C47.8838-38.0698 48.9151-37.7109 49.6885-38.1846L59.21-44.7173C59.8404-45.1353 59.9278-46.0654 59.1123-46.6231L49.5069-53.1558C48.8242-53.626 47.8838-53.4033 47.8838-52.3721Z"/>
  </g>
 </g>
</svg>
