<?xml version="1.0" encoding="UTF-8"?>
<svg width="3300px" height="2200px" viewBox="0 0 3300 2200" version="1.1" xmlns="http://www.w3.org/2000/svg" xmlns:xlink="http://www.w3.org/1999/xlink">
    <title>custom.circle</title>
    <g id="Page-1" stroke="none" stroke-width="1" fill="none" fill-rule="evenodd">
        <g id="custom.circle">
            <g id="Notes">
                <rect id="artboard" fill="#FFFFFF" fill-rule="nonzero" x="0" y="0" width="3300" height="2200"></rect>
                <line x1="263" y1="292" x2="3036" y2="292" id="Path" stroke="#000000" stroke-width="0.5"></line>
                <text id="Weight/Scale-Variations" fill="#000000" fill-rule="nonzero" font-family="Helvetica" font-size="13" font-weight="normal">
                    <tspan x="263" y="322">Weight/Scale Variations</tspan>
                </text>
                <text id="Ultralight" fill="#000000" fill-rule="nonzero" font-family="Helvetica" font-size="13" font-weight="normal">
                    <tspan x="533.711" y="322">Ultralight</tspan>
                </text>
                <text id="Thin" fill="#000000" fill-rule="nonzero" font-family="Helvetica" font-size="13" font-weight="normal">
                    <tspan x="843.422" y="322">Thin</tspan>
                </text>
                <text id="Light" fill="#000000" fill-rule="nonzero" font-family="Helvetica" font-size="13" font-weight="normal">
                    <tspan x="1138.63" y="322">Light</tspan>
                </text>
                <text id="Regular" fill="#000000" fill-rule="nonzero" font-family="Helvetica" font-size="13" font-weight="normal">
                    <tspan x="1426.84" y="322">Regular</tspan>
                </text>
                <text id="Medium" fill="#000000" fill-rule="nonzero" font-family="Helvetica" font-size="13" font-weight="normal">
                    <tspan x="1723.06" y="322">Medium</tspan>
                </text>
                <text id="Semibold" fill="#000000" fill-rule="nonzero" font-family="Helvetica" font-size="13" font-weight="normal">
                    <tspan x="2015.77" y="322">Semibold</tspan>
                </text>
                <text id="Bold" fill="#000000" fill-rule="nonzero" font-family="Helvetica" font-size="13" font-weight="normal">
                    <tspan x="2326.48" y="322">Bold</tspan>
                </text>
                <text id="Heavy" fill="#000000" fill-rule="nonzero" font-family="Helvetica" font-size="13" font-weight="normal">
                    <tspan x="2618.19" y="322">Heavy</tspan>
                </text>
                <text id="Black" fill="#000000" fill-rule="nonzero" font-family="Helvetica" font-size="13" font-weight="normal">
                    <tspan x="2917.4" y="322">Black</tspan>
                </text>
                <line x1="263" y1="1903" x2="3036" y2="1903" id="Path" stroke="#000000" stroke-width="0.5"></line>
                <g id="Group" transform="translate(264.367190, 1918.068400)" fill="#000000" fill-rule="nonzero">
                    <path d="M7.88086,15.761678 C12.18751,15.761678 15.77151,12.18746 15.77151,7.88082 C15.77151,3.5742 12.17771,0 7.87109,0 C3.57422,0 -8.8817842e-16,3.5742 -8.8817842e-16,7.88082 C-8.8817842e-16,12.18746 3.58398,15.761678 7.88086,15.761678 Z M7.88086,14.277303 C4.33593,14.277303 1.5039,11.43551 1.5039,7.88082 C1.5039,4.3261 4.32617,1.4843 7.87109,1.4843 C11.42581,1.4843 14.27731,4.3261 14.27731,7.88082 C14.27731,11.43551 11.43551,14.277303 7.88086,14.277303 Z M4.28711,7.88082 C4.28711,8.31051 4.58984,8.60348 5.03906,8.60348 L7.13867,8.60348 L7.13867,10.72262 C7.13867,11.16207 7.43164,11.4648 7.86133,11.4648 C8.31054,11.4648 8.60351,11.16207 8.60351,10.72262 L8.60351,8.60348 L10.72261,8.60348 C11.16211,8.60348 11.46481,8.31051 11.46481,7.88082 C11.46481,7.44137 11.16211,7.13863 10.72261,7.13863 L8.60351,7.13863 L8.60351,5.02926 C8.60351,4.58 8.31054,4.2773 7.86133,4.2773 C7.43164,4.2773 7.13867,4.58 7.13867,5.02926 L7.13867,7.13863 L5.03906,7.13863 C4.58984,7.13863 4.28711,7.44137 4.28711,7.88082 Z" id="Shape"></path>
                </g>
                <g id="Group" transform="translate(283.615050, 1915.988300)" fill="#000000" fill-rule="nonzero">
                    <path d="M9.96095,19.92186 C15.41015,19.92186 19.92185,15.40037 19.92185,9.96092 C19.92185,4.5117 15.40035,0 9.95115,0 C4.51172,0 8.8817842e-16,4.5117 8.8817842e-16,9.96092 C8.8817842e-16,15.40037 4.52148,19.92186 9.96095,19.92186 Z M9.96095,18.2617 C5.35156,18.2617 1.66992,14.57029 1.66992,9.96092 C1.66992,5.3515 5.34179,1.6601 9.95115,1.6601 C14.56055,1.6601 18.26175,5.3515 18.26175,9.96092 C18.26175,14.57029 14.57035,18.2617 9.96095,18.2617 Z M5.42968,9.96092 C5.42968,10.43943 5.76172,10.7617 6.25976,10.7617 L9.13085,10.7617 L9.13085,13.64256 C9.13085,14.13084 9.46285,14.47264 9.94145,14.47264 C10.42965,14.47264 10.77145,14.14061 10.77145,13.64256 L10.77145,10.7617 L13.65235,10.7617 C14.14065,10.7617 14.48245,10.43943 14.48245,9.96092 C14.48245,9.47264 14.14065,9.13084 13.65235,9.13084 L10.77145,9.13084 L10.77145,6.2597 C10.77145,5.7617 10.42965,5.4199 9.94145,5.4199 C9.46285,5.4199 9.13085,5.7617 9.13085,6.2597 L9.13085,9.13084 L6.25976,9.13084 C5.76172,9.13084 5.42968,9.47264 5.42968,9.96092 Z" id="Shape"></path>
                </g>
                <g id="Group" transform="translate(307.901860, 1913.224600)" fill="#000000" fill-rule="nonzero">
                    <path d="M12.71484,25.43946 C19.67774,25.43946 25.43944,19.6777438 25.43944,12.72462 C25.43944,5.7617 19.66794,0 12.70504,0 C5.75195,0 0,5.7617 0,12.72462 C0,19.6777438 5.76172,25.43946 12.71484,25.43946 Z M12.71484,23.62306 C6.67969,23.62306 1.82617,18.75978 1.82617,12.72462 C1.82617,6.6797 6.66992,1.8262 12.70504,1.8262 C18.75004,1.8262 23.61324,6.6797 23.61324,12.72462 C23.61324,18.75978 18.75974,23.62306 12.71484,23.62306 Z M6.94336,12.72462 C6.94336,13.2422 7.31445,13.60352 7.86134,13.60352 L11.80664,13.60352 L11.80664,17.5586 C11.80664,18.09571 12.17774,18.47657 12.69534,18.47657 C13.23244,18.47657 13.60354,18.10548 13.60354,17.5586 L13.60354,13.60352 L17.55864,13.60352 C18.09574,13.60352 18.47654,13.2422 18.47654,12.72462 C18.47654,12.17774 18.10544,11.80665 17.55864,11.80665 L13.60354,11.80665 L13.60354,7.8613 C13.60354,7.3145 13.23244,6.9336 12.69534,6.9336 C12.17774,6.9336 11.80664,7.3145 11.80664,7.8613 L11.80664,11.80665 L7.86134,11.80665 C7.31445,11.80665 6.94336,12.17774 6.94336,12.72462 Z" id="Shape"></path>
                </g>
                <text id="Design-Variations" fill="#000000" fill-rule="nonzero" font-family="Helvetica" font-size="13" font-weight="normal">
                    <tspan x="263" y="1953">Design Variations</tspan>
                </text>
                <text id="Symbols-are-supported-in-up-to-nine-weights-and-three-scales." fill="#000000" fill-rule="nonzero" font-family="Helvetica" font-size="13" font-weight="normal">
                    <tspan x="263" y="1971">Symbols are supported in up to nine weights and three scales.</tspan>
                </text>
                <text id="For-optimal-layout-with-text-and-other-symbols,-vertically-align" fill="#000000" fill-rule="nonzero" font-family="Helvetica" font-size="13" font-weight="normal">
                    <tspan x="263" y="1989">For optimal layout with text and other symbols, vertically align</tspan>
                </text>
                <text id="symbols-with-the-adjacent-text." fill="#000000" fill-rule="nonzero" font-family="Helvetica" font-size="13" font-weight="normal">
                    <tspan x="263" y="2007">symbols with the adjacent text.</tspan>
                </text>
                <line x1="776" y1="1919" x2="776" y2="1933" id="Path" stroke="#00AEEF" stroke-width="0.5"></line>
                <g id="Group" transform="translate(778.490230, 1918.732400)" fill="#000000" fill-rule="nonzero">
                    <path d="M0.82032,14.42385 C1.33789,14.42385 1.5918,14.2285375 1.77735,13.681662 L3.03711,10.2344 L8.79887,10.2344 L10.05857,13.681662 C10.24417,14.2285375 10.49807,14.42385 11.00587,14.42385 C11.52347,14.42385 11.85547,14.11135 11.85547,13.623069 C11.85547,13.457053 11.82617,13.300803 11.74807,13.09572 L7.16797,0.8985 C6.94336,0.3028 6.54297,0 5.91797,0 C5.3125,0 4.90235,0.293 4.6875,0.8887 L0.10743,13.10549 C0.0293,13.310569 -4.4408921e-16,13.466819 -4.4408921e-16,13.632834 C-4.4408921e-16,14.121116 0.3125,14.42385 0.82032,14.42385 Z M3.51563,8.75002 L5.88868,2.1778 L5.9375,2.1778 L8.31057,8.75002 L3.51563,8.75002 Z" id="Shape"></path>
                </g>
                <line x1="793.197" y1="1919" x2="793.197" y2="1933" id="Path" stroke="#00AEEF" stroke-width="0.5"></line>
                <text id="Margins" fill="#000000" fill-rule="nonzero" font-family="Helvetica" font-size="13" font-weight="normal">
                    <tspan x="776" y="1953">Margins</tspan>
                </text>
                <text id="Leading-and-trailing-margins-on-the-left-and-right-side-of-each-symbol" fill="#000000" fill-rule="nonzero" font-family="Helvetica" font-size="13" font-weight="normal">
                    <tspan x="776" y="1971">Leading and trailing margins on the left and right side of each symbol</tspan>
                </text>
                <text id="can-be-adjusted-by-modifying-the-x-location-of-the-margin-guidelines." fill="#000000" fill-rule="nonzero" font-family="Helvetica" font-size="13" font-weight="normal">
                    <tspan x="776" y="1989">can be adjusted by modifying the x-location of the margin guidelines.</tspan>
                </text>
                <text id="Modifications-are-automatically-applied-proportionally-to-all" fill="#000000" fill-rule="nonzero" font-family="Helvetica" font-size="13" font-weight="normal">
                    <tspan x="776" y="2007">Modifications are automatically applied proportionally to all</tspan>
                </text>
                <text id="scales-and-weights." fill="#000000" fill-rule="nonzero" font-family="Helvetica" font-size="13" font-weight="normal">
                    <tspan x="776" y="2025">scales and weights.</tspan>
                </text>
                <g id="Group" transform="translate(1291.248126, 1914.517396)" fill="#000000" fill-rule="nonzero">
                    <path d="M0.593673634,20.347834 L2.29289363,22.056824 C3.15226363,22.925964 4.13859363,22.867374 5.06632363,21.841984 L15.7596736,10.054874 L14.7928736,9.07830404 L4.17765363,20.757994 C3.82609363,21.158384 3.49406363,21.256044 3.02531363,20.787294 L1.85343363,19.625184 C1.38468363,19.166198 1.49210363,18.824401 1.89249363,18.4630728 L13.3670736,7.66230404 L12.3905736,6.69550404 L0.798753634,17.584166 C-0.187576366,18.5021352 -0.265706366,19.478698 0.593673634,20.347834 Z M7.00968363,2.15450404 C6.58976363,2.56460404 6.56046363,3.14080404 6.79484363,3.53140404 C7.02921363,3.89280404 7.48820363,4.12710404 8.13277363,3.96110404 C9.59757363,3.61930404 11.1209736,3.56070404 12.5467736,4.49820404 L11.9608736,5.95330404 C11.6190736,6.78340404 11.7948736,7.36930404 12.3319736,7.91620404 L14.6268736,10.230654 C15.1151736,10.718934 15.5252736,10.738464 16.0916736,10.640804 L17.1561736,10.445494 L17.8202736,11.119324 L17.7811736,11.675964 C17.7420736,12.174014 17.8690736,12.554874 18.3573736,13.033384 L19.1190736,13.775574 C19.5975736,14.254084 20.2127736,14.283384 20.6815736,13.814634 L23.5916736,10.894714 C24.0604736,10.425964 24.0409736,9.83026404 23.5623736,9.35174404 L22.7909736,8.59002404 C22.3123736,8.11150404 21.9413736,7.95530404 21.4627736,7.99430404 L20.8866736,8.04310404 L20.2420736,7.40840404 L20.4862736,6.28530404 C20.6131736,5.71890404 20.4569736,5.27950404 19.8709736,4.69350404 L17.6737736,2.50600404 C14.3338736,-0.814295964 9.90027363,-0.736195964 7.00968363,2.15450404 Z M8.50387363,2.52560404 C10.9354736,0.748204036 14.2264736,1.05100404 16.4530736,3.27750404 L18.8846736,5.68960404 C19.1190736,5.92400404 19.1580736,6.10960404 19.0897736,6.45140404 L18.7674736,7.93570404 L20.2713736,9.42010404 L21.2577736,9.36151404 C21.5116736,9.35174404 21.5897736,9.37127404 21.7850736,9.56658404 L22.3612736,10.142764 L19.9198736,12.584164 L19.3436736,12.007994 C19.1483736,11.812684 19.1190736,11.734554 19.1288736,11.470884 L19.1971736,10.494324 L17.7030736,9.00994404 L16.1795736,9.26385404 C15.8573736,9.33221404 15.7108736,9.30291404 15.4666736,9.06854404 L13.4647736,7.06660404 C13.2108736,6.83220404 13.1815736,6.66620404 13.3377736,6.29510404 L14.2166736,4.20530404 C12.6541736,2.75020404 10.6229736,2.12520404 8.59167363,2.72090404 C8.43547363,2.75990404 8.37687363,2.63300404 8.50387363,2.52560404 Z" id="Shape"></path>
                </g>
                <text id="Exporting" fill="#000000" fill-rule="nonzero" font-family="Helvetica" font-size="13" font-weight="normal">
                    <tspan x="1289" y="1953">Exporting</tspan>
                </text>
                <text id="Symbols-should-be-outlined-when-exporting-to-ensure-the" fill="#000000" fill-rule="nonzero" font-family="Helvetica" font-size="13" font-weight="normal">
                    <tspan x="1289" y="1971">Symbols should be outlined when exporting to ensure the</tspan>
                </text>
                <text id="design-is-preserved-when-submitting-to-Xcode." fill="#000000" fill-rule="nonzero" font-family="Helvetica" font-size="13" font-weight="normal">
                    <tspan x="1289" y="1989">design is preserved when submitting to Xcode.</tspan>
                </text>
                <text id="template-version" fill="#000000" fill-rule="nonzero" font-family="Helvetica" font-size="13" font-weight="normal">
                    <tspan x="2952" y="1933">Template v.4.0</tspan>
                </text>
                <text id="Requires-Xcode-14-or-greater" fill="#000000" fill-rule="nonzero" font-family="Helvetica" font-size="13" font-weight="normal">
                    <tspan x="2865" y="1951">Requires Xcode 14 or greater</tspan>
                </text>
                <text id="descriptive-name" fill="#000000" fill-rule="nonzero" font-family="Helvetica" font-size="13" font-weight="normal">
                    <tspan x="2865" y="1969">Generated from custom.circle</tspan>
                </text>
                <text id="Typeset-at-100-points" fill="#000000" fill-rule="nonzero" font-family="Helvetica" font-size="13" font-weight="normal">
                    <tspan x="2912" y="1987">Typeset at 100 points</tspan>
                </text>
                <text id="Small" fill="#000000" fill-rule="nonzero" font-family="Helvetica" font-size="13" font-weight="normal">
                    <tspan x="263" y="726">Small</tspan>
                </text>
                <text id="Medium" fill="#000000" fill-rule="nonzero" font-family="Helvetica" font-size="13" font-weight="normal">
                    <tspan x="263" y="1156">Medium</tspan>
                </text>
                <text id="Large" fill="#000000" fill-rule="nonzero" font-family="Helvetica" font-size="13" font-weight="normal">
                    <tspan x="263" y="1586">Large</tspan>
                </text>
            </g>
            <g id="Guides" transform="translate(263.000000, 600.784000)">
                <g id="H-reference" transform="translate(76.993654, 24.757000)" fill="#27AAE1" fill-rule="nonzero">
                    <path d="M0,70.459 L2.644096,70.459 L28.334446,3.3267 L29.036646,3.3267 L29.036646,0 L27.128946,0 L0,70.459 Z M10.694846,45.9791 L45.987846,45.9791 L45.237846,43.7305 L11.444846,43.7305 L10.694846,45.9791 Z M54.125946,70.459 L56.770046,70.459 L29.644546,0 L28.438946,0 L28.438946,3.3267 L54.125946,70.459 Z" id="Shape"></path>
                </g>
                <line x1="0" y1="95.216" x2="2773" y2="95.216" id="Baseline-S" stroke="#27AAE1" stroke-width="0.5"></line>
                <line x1="0" y1="24.757" x2="2773" y2="24.757" id="Capline-S" stroke="#27AAE1" stroke-width="0.5"></line>
                <g id="H-reference" transform="translate(76.993654, 454.757000)" fill="#27AAE1" fill-rule="nonzero">
                    <path d="M0,70.459 L2.644096,70.459 L28.334446,3.3267 L29.036646,3.3267 L29.036646,0 L27.128946,0 L0,70.459 Z M10.694846,45.9791 L45.987846,45.9791 L45.237846,43.7305 L11.444846,43.7305 L10.694846,45.9791 Z M54.125946,70.459 L56.770046,70.459 L29.644546,0 L28.438946,0 L28.438946,3.3267 L54.125946,70.459 Z" id="Shape"></path>
                </g>
                <line x1="0" y1="525.216" x2="2773" y2="525.216" id="Baseline-M" stroke="#27AAE1" stroke-width="0.5"></line>
                <line x1="0" y1="454.756" x2="2773" y2="454.756" id="Capline-M" stroke="#27AAE1" stroke-width="0.5"></line>
                <g id="H-reference" transform="translate(76.993654, 884.757000)" fill="#27AAE1" fill-rule="nonzero">
                    <path d="M0,70.459 L2.644096,70.459 L28.334446,3.3267 L29.036646,3.3267 L29.036646,0 L27.128946,0 L0,70.459 Z M10.694846,45.9791 L45.987846,45.9791 L45.237846,43.7305 L11.444846,43.7305 L10.694846,45.9791 Z M54.125946,70.459 L56.770046,70.459 L29.644546,0 L28.438946,0 L28.438946,3.3267 L54.125946,70.459 Z" id="Shape"></path>
                </g>
                <line x1="0" y1="955.216" x2="2773" y2="955.216" id="Baseline-L" stroke="#27AAE1" stroke-width="0.5"></line>
                <line x1="0" y1="884.756" x2="2773" y2="884.756" id="Capline-L" stroke="#27AAE1" stroke-width="0.5"></line>
                <line x1="252.649" y1="-1.13686838e-13" x2="252.649" y2="119.337" id="left-margin-Ultralight-S" stroke="#00AEEF" stroke-width="0.5"></line>
                <line x1="340.773" y1="-1.13686838e-13" x2="340.773" y2="119.337" id="right-margin-Ultralight-S" stroke="#00AEEF" stroke-width="0.5"></line>
                <line x1="1140.58" y1="-1.13686838e-13" x2="1140.58" y2="119.337" id="left-margin-Regular-S" stroke="#00AEEF" stroke-width="0.5"></line>
                <line x1="1233.11" y1="-1.13686838e-13" x2="1233.11" y2="119.337" id="right-margin-Regular-S" stroke="#00AEEF" stroke-width="0.5"></line>
                <line x1="2621.57" y1="-1.13686838e-13" x2="2621.57" y2="119.337" id="left-margin-Black-S" stroke="#00AEEF" stroke-width="0.5"></line>
                <line x1="2719.23" y1="-1.13686838e-13" x2="2719.23" y2="119.337" id="right-margin-Black-S" stroke="#00AEEF" stroke-width="0.5"></line>
            </g>
            <g id="Symbols" transform="translate(515.000000, 620.000000)" fill="#000000">
                <g id="Black-S" transform="translate(2418.500000, 39.500000) scale(-1, 1) rotate(-180.000000) translate(-2418.500000, -39.500000) translate(2372.000000, 1.000000)">
                    <path d="M55.4445024,76.8384841 C55.1175125,76.7006573 52.1201049,75.0467347 48.7957074,73.1343868 L42.7282278,69.6887149 L25.6702538,69.6887149 C6.90466579,69.6887149 7.39515067,69.7059432 5.19705178,68.6205566 C3.78009547,67.9141938 1.87265429,66.1052161 1.12784392,64.761404 C-0.052953003,62.607859 0.000760947571,64.2273248 0.000760947571,34.8012865 C0.000760947571,5.2546497 -0.0711191096,7.01194239 1.18234224,4.75502727 C2.29047474,2.75653755 4.45224141,1.01647322 6.6503403,0.327338834 C7.68580837,0.0172283597 8.70311033,0 44.4176757,0 L81.1132109,0 L82.0215162,0.465165711 C83.1114826,1.01647322 84.0924524,1.964033 84.6737678,3.01496294 C85.1097543,3.77301077 85.1097543,3.91083765 85.1642526,9.16548734 L85.218751,14.5407356 L88.5613146,14.5924206 L91.9220443,14.6441057 L92.4125291,15.1264998 L92.9211801,15.5916655 L92.9756784,27.1863516 C93.0301768,37.747336 93.0120106,38.8154943 92.7213529,39.3151168 C92.557858,39.6079989 92.2853664,39.9181094 92.1218714,40.0042512 C91.9583765,40.0731646 90.3597591,40.1765348 88.5613146,40.2282198 L85.2914154,40.3143616 L85.2005848,45.6551531 C85.1097543,50.8753461 85.0915882,51.013173 84.6737678,51.8401342 C84.0742862,52.977206 83.0206521,53.9419941 81.7671907,54.51053 C80.786221,54.941239 80.6045599,54.9584673 77.1711658,55.0101524 L73.5924428,55.0790659 L73.5379445,60.4370857 C73.4834462,65.6572787 73.46528,65.8295623 73.0656257,66.5531534 C72.429812,67.6902251 71.4670083,68.6033282 70.3407097,69.120179 C69.3234078,69.5853447 69.2325772,69.6025731 65.5630237,69.6542581 L61.8026397,69.7059432 L59.7498696,73.0827017 C58.6054049,74.9433646 57.5154385,76.545602 57.3156114,76.6834289 C56.7161298,77.0452244 56.0803161,77.0969095 55.4445024,76.8384841 Z M60.9488327,63.8310726 L66.289668,55.1307509 L55.9713195,55.0790659 C50.2853281,55.0618375 40.9116172,55.0618375 35.1711275,55.0790659 L24.7074502,55.1307509 L40.0033119,63.8655293 C48.4323853,68.6550133 55.3900041,72.5658509 55.4626685,72.5486793 C55.5353329,72.5486793 58.0059234,68.6205566 60.9488327,63.8310726 Z M36.0612667,65.9157041 C35.9522701,65.8467907 31.6287368,63.3486785 26.4150642,60.402629 L16.9505227,55.0273808 L12.5179927,55.0790659 C8.30345599,55.1307509 8.0491305,55.1479793 7.23165571,55.5270032 C6.06902489,56.0783107 4.96089239,57.146469 4.4340753,58.2146273 C3.79826158,59.541211 3.78009547,61.3674171 4.39774309,62.6423158 C5.21521788,64.330695 6.48684534,65.3643966 8.3397882,65.8295623 C9.32075796,66.0879877 36.3337583,66.1741295 36.0612667,65.9157041 Z M68.5785974,65.8295623 C69.6867299,65.3816249 69.7775604,65.002601 69.7230621,60.7299678 L69.6685638,56.9225003 L66.9436478,61.3501888 C65.4540271,63.7966159 64.2005657,65.8467907 64.1642335,65.9329325 C64.0552369,66.1741295 67.9064515,66.0879877 68.5785974,65.8295623 Z M5.63303833,52.1847014 C7.55864562,51.3060551 5.41504506,51.3577402 44.0543536,51.25437 C63.9462402,51.2026849 80.3320683,51.0993148 80.4955633,51.0304013 C80.6408921,50.9614879 80.9133837,50.6686058 81.0768787,50.4101804 C81.3493703,49.962243 81.3857025,49.3075654 81.3857025,45.0866173 L81.3857025,40.2454482 L75.1728941,40.1937631 L68.9419195,40.142078 L67.488631,39.659684 C63.1287654,38.2125017 60.0405273,35.1630821 58.6599032,30.9249056 C58.0967539,29.2537547 58.0604217,25.9286813 58.5509066,24.2058453 C59.5863747,20.5878898 62.3476229,17.4351 65.8355153,15.8500909 C68.3242719,14.7302475 68.687594,14.6785624 75.3545551,14.609649 L81.4038686,14.5407356 L81.3493703,9.54451126 L81.2948719,4.56551531 L80.786221,4.1003496 L80.2957361,3.61795553 L44.2723469,3.61795553 L8.26712378,3.61795553 L7.30432013,4.03143616 C6.14168932,4.53105859 4.7065669,5.96101245 4.25241424,7.09808418 C3.92542432,7.89058873 3.90725822,8.97597539 3.8527599,30.5631101 L3.81642768,53.2011747 L4.30691256,52.8738358 C4.59757026,52.7015522 5.17888567,52.3914418 5.63303833,52.1847014 Z M89.1607961,27.444777 L89.1062977,18.2620613 L79.6599224,18.2620613 C70.4133742,18.2620613 70.1953809,18.2620613 68.9419195,18.6410852 C64.7818811,19.8815271 62.0569652,23.3961124 62.075041,27.4792337 C62.075041,29.1503846 62.2931245,30.0462593 63.0742671,31.5451266 C64.3277285,33.9915536 66.9618139,35.8866732 69.8502248,36.4379807 C70.2498792,36.5068941 74.7732397,36.5758076 79.8960817,36.5930359 L89.1971283,36.6102643 L89.1607961,27.444777 Z" id="Shape" stroke="#000000" stroke-width="4"></path>
                    <path d="M70.4315403,32.8027968 C69.35974,32.5615998 68.3242719,31.9930639 67.4704649,31.1661026 C65.3450304,29.0814711 65.4540271,25.5152007 67.7066243,23.4994826 C68.7965907,22.5174661 69.8320587,22.0867571 71.3943439,22.0006153 C72.4843103,21.9489302 72.9566291,22.0006153 73.79227,22.3107258 C76.7896775,23.3788841 78.3156305,26.8417844 77.0076708,29.5466368 C76.1356977,31.3211579 74.9730669,32.2687177 73.0837918,32.7338834 C71.9393271,33.0267655 71.4488422,33.0267655 70.4315403,32.8027968 Z M73.0474596,28.7024472 C73.9375988,27.8410292 73.7014394,26.4110754 72.5751408,25.8425395 C71.4306761,25.2395469 70.0318859,25.9114529 69.8138926,27.1863516 C69.541401,28.8575024 71.7758321,29.9084324 73.0474596,28.7024472 Z" id="Shape"></path>
                </g>
                <g id="Regular-S" transform="translate(935.500000, 38.500000) scale(-1, 1) rotate(-180.000000) translate(-935.500000, -38.500000) translate(889.000000, 0.000000)">
                    <path d="M55.4445024,76.8384841 C55.1175125,76.7006573 52.1201049,75.0467347 48.7957074,73.1343868 L42.7282278,69.6887149 L25.6702538,69.6887149 C6.90466579,69.6887149 7.39515067,69.7059432 5.19705178,68.6205566 C3.78009547,67.9141938 1.87265429,66.1052161 1.12784392,64.761404 C-0.052953003,62.607859 0.000760947571,64.2273248 0.000760947571,34.8012865 C0.000760947571,5.2546497 -0.0711191096,7.01194239 1.18234224,4.75502727 C2.29047474,2.75653755 4.45224141,1.01647322 6.6503403,0.327338834 C7.68580837,0.0172283597 8.70311033,0 44.4176757,0 L81.1132109,0 L82.0215162,0.465165711 C83.1114826,1.01647322 84.0924524,1.964033 84.6737678,3.01496294 C85.1097543,3.77301077 85.1097543,3.91083765 85.1642526,9.16548734 L85.218751,14.5407356 L88.5613146,14.5924206 L91.9220443,14.6441057 L92.4125291,15.1264998 L92.9211801,15.5916655 L92.9756784,27.1863516 C93.0301768,37.747336 93.0120106,38.8154943 92.7213529,39.3151168 C92.557858,39.6079989 92.2853664,39.9181094 92.1218714,40.0042512 C91.9583765,40.0731646 90.3597591,40.1765348 88.5613146,40.2282198 L85.2914154,40.3143616 L85.2005848,45.6551531 C85.1097543,50.8753461 85.0915882,51.013173 84.6737678,51.8401342 C84.0742862,52.977206 83.0206521,53.9419941 81.7671907,54.51053 C80.786221,54.941239 80.6045599,54.9584673 77.1711658,55.0101524 L73.5924428,55.0790659 L73.5379445,60.4370857 C73.4834462,65.6572787 73.46528,65.8295623 73.0656257,66.5531534 C72.429812,67.6902251 71.4670083,68.6033282 70.3407097,69.120179 C69.3234078,69.5853447 69.2325772,69.6025731 65.5630237,69.6542581 L61.8026397,69.7059432 L59.7498696,73.0827017 C58.6054049,74.9433646 57.5154385,76.545602 57.3156114,76.6834289 C56.7161298,77.0452244 56.0803161,77.0969095 55.4445024,76.8384841 Z M60.9488327,63.8310726 L66.289668,55.1307509 L55.9713195,55.0790659 C50.2853281,55.0618375 40.9116172,55.0618375 35.1711275,55.0790659 L24.7074502,55.1307509 L40.0033119,63.8655293 C48.4323853,68.6550133 55.3900041,72.5658509 55.4626685,72.5486793 C55.5353329,72.5486793 58.0059234,68.6205566 60.9488327,63.8310726 Z M36.0612667,65.9157041 C35.9522701,65.8467907 31.6287368,63.3486785 26.4150642,60.402629 L16.9505227,55.0273808 L12.5179927,55.0790659 C8.30345599,55.1307509 8.0491305,55.1479793 7.23165571,55.5270032 C6.06902489,56.0783107 4.96089239,57.146469 4.4340753,58.2146273 C3.79826158,59.541211 3.78009547,61.3674171 4.39774309,62.6423158 C5.21521788,64.330695 6.48684534,65.3643966 8.3397882,65.8295623 C9.32075796,66.0879877 36.3337583,66.1741295 36.0612667,65.9157041 Z M68.5785974,65.8295623 C69.6867299,65.3816249 69.7775604,65.002601 69.7230621,60.7299678 L69.6685638,56.9225003 L66.9436478,61.3501888 C65.4540271,63.7966159 64.2005657,65.8467907 64.1642335,65.9329325 C64.0552369,66.1741295 67.9064515,66.0879877 68.5785974,65.8295623 Z M5.63303833,52.1847014 C7.55864562,51.3060551 5.41504506,51.3577402 44.0543536,51.25437 C63.9462402,51.2026849 80.3320683,51.0993148 80.4955633,51.0304013 C80.6408921,50.9614879 80.9133837,50.6686058 81.0768787,50.4101804 C81.3493703,49.962243 81.3857025,49.3075654 81.3857025,45.0866173 L81.3857025,40.2454482 L75.1728941,40.1937631 L68.9419195,40.142078 L67.488631,39.659684 C63.1287654,38.2125017 60.0405273,35.1630821 58.6599032,30.9249056 C58.0967539,29.2537547 58.0604217,25.9286813 58.5509066,24.2058453 C59.5863747,20.5878898 62.3476229,17.4351 65.8355153,15.8500909 C68.3242719,14.7302475 68.687594,14.6785624 75.3545551,14.609649 L81.4038686,14.5407356 L81.3493703,9.54451126 L81.2948719,4.56551531 L80.786221,4.1003496 L80.2957361,3.61795553 L44.2723469,3.61795553 L8.26712378,3.61795553 L7.30432013,4.03143616 C6.14168932,4.53105859 4.7065669,5.96101245 4.25241424,7.09808418 C3.92542432,7.89058873 3.90725822,8.97597539 3.8527599,30.5631101 L3.81642768,53.2011747 L4.30691256,52.8738358 C4.59757026,52.7015522 5.17888567,52.3914418 5.63303833,52.1847014 Z M89.1607961,27.444777 L89.1062977,18.2620613 L79.6599224,18.2620613 C70.4133742,18.2620613 70.1953809,18.2620613 68.9419195,18.6410852 C64.7818811,19.8815271 62.0569652,23.3961124 62.075041,27.4792337 C62.075041,29.1503846 62.2931245,30.0462593 63.0742671,31.5451266 C64.3277285,33.9915536 66.9618139,35.8866732 69.8502248,36.4379807 C70.2498792,36.5068941 74.7732397,36.5758076 79.8960817,36.5930359 L89.1971283,36.6102643 L89.1607961,27.444777 Z" id="Shape" stroke="#000000" stroke-width="4"></path>
                    <path d="M70.4315403,32.8027968 C69.35974,32.5615998 68.3242719,31.9930639 67.4704649,31.1661026 C65.3450304,29.0814711 65.4540271,25.5152007 67.7066243,23.4994826 C68.7965907,22.5174661 69.8320587,22.0867571 71.3943439,22.0006153 C72.4843103,21.9489302 72.9566291,22.0006153 73.79227,22.3107258 C76.7896775,23.3788841 78.3156305,26.8417844 77.0076708,29.5466368 C76.1356977,31.3211579 74.9730669,32.2687177 73.0837918,32.7338834 C71.9393271,33.0267655 71.4488422,33.0267655 70.4315403,32.8027968 Z M73.0474596,28.7024472 C73.9375988,27.8410292 73.7014394,26.4110754 72.5751408,25.8425395 C71.4306761,25.2395469 70.0318859,25.9114529 69.8138926,27.1863516 C69.541401,28.8575024 71.7758321,29.9084324 73.0474596,28.7024472 Z" id="Shape"></path>
                </g>
                <g id="Ultralight-S" transform="translate(46.500000, 38.500000) scale(-1, 1) rotate(-180.000000) translate(-46.500000, -38.500000) ">
                    <path d="M55.4445024,76.8384841 C55.1175125,76.7006573 52.1201049,75.0467347 48.7957074,73.1343868 L42.7282278,69.6887149 L25.6702538,69.6887149 C6.90466579,69.6887149 7.39515067,69.7059432 5.19705178,68.6205566 C3.78009547,67.9141938 1.87265429,66.1052161 1.12784392,64.761404 C-0.052953003,62.607859 0.000760947571,64.2273248 0.000760947571,34.8012865 C0.000760947571,5.2546497 -0.0711191096,7.01194239 1.18234224,4.75502727 C2.29047474,2.75653755 4.45224141,1.01647322 6.6503403,0.327338834 C7.68580837,0.0172283597 8.70311033,0 44.4176757,0 L81.1132109,0 L82.0215162,0.465165711 C83.1114826,1.01647322 84.0924524,1.964033 84.6737678,3.01496294 C85.1097543,3.77301077 85.1097543,3.91083765 85.1642526,9.16548734 L85.218751,14.5407356 L88.5613146,14.5924206 L91.9220443,14.6441057 L92.4125291,15.1264998 L92.9211801,15.5916655 L92.9756784,27.1863516 C93.0301768,37.747336 93.0120106,38.8154943 92.7213529,39.3151168 C92.557858,39.6079989 92.2853664,39.9181094 92.1218714,40.0042512 C91.9583765,40.0731646 90.3597591,40.1765348 88.5613146,40.2282198 L85.2914154,40.3143616 L85.2005848,45.6551531 C85.1097543,50.8753461 85.0915882,51.013173 84.6737678,51.8401342 C84.0742862,52.977206 83.0206521,53.9419941 81.7671907,54.51053 C80.786221,54.941239 80.6045599,54.9584673 77.1711658,55.0101524 L73.5924428,55.0790659 L73.5379445,60.4370857 C73.4834462,65.6572787 73.46528,65.8295623 73.0656257,66.5531534 C72.429812,67.6902251 71.4670083,68.6033282 70.3407097,69.120179 C69.3234078,69.5853447 69.2325772,69.6025731 65.5630237,69.6542581 L61.8026397,69.7059432 L59.7498696,73.0827017 C58.6054049,74.9433646 57.5154385,76.545602 57.3156114,76.6834289 C56.7161298,77.0452244 56.0803161,77.0969095 55.4445024,76.8384841 Z M60.9488327,63.8310726 L66.289668,55.1307509 L55.9713195,55.0790659 C50.2853281,55.0618375 40.9116172,55.0618375 35.1711275,55.0790659 L24.7074502,55.1307509 L40.0033119,63.8655293 C48.4323853,68.6550133 55.3900041,72.5658509 55.4626685,72.5486793 C55.5353329,72.5486793 58.0059234,68.6205566 60.9488327,63.8310726 Z M36.0612667,65.9157041 C35.9522701,65.8467907 31.6287368,63.3486785 26.4150642,60.402629 L16.9505227,55.0273808 L12.5179927,55.0790659 C8.30345599,55.1307509 8.0491305,55.1479793 7.23165571,55.5270032 C6.06902489,56.0783107 4.96089239,57.146469 4.4340753,58.2146273 C3.79826158,59.541211 3.78009547,61.3674171 4.39774309,62.6423158 C5.21521788,64.330695 6.48684534,65.3643966 8.3397882,65.8295623 C9.32075796,66.0879877 36.3337583,66.1741295 36.0612667,65.9157041 Z M68.5785974,65.8295623 C69.6867299,65.3816249 69.7775604,65.002601 69.7230621,60.7299678 L69.6685638,56.9225003 L66.9436478,61.3501888 C65.4540271,63.7966159 64.2005657,65.8467907 64.1642335,65.9329325 C64.0552369,66.1741295 67.9064515,66.0879877 68.5785974,65.8295623 Z M5.63303833,52.1847014 C7.55864562,51.3060551 5.41504506,51.3577402 44.0543536,51.25437 C63.9462402,51.2026849 80.3320683,51.0993148 80.4955633,51.0304013 C80.6408921,50.9614879 80.9133837,50.6686058 81.0768787,50.4101804 C81.3493703,49.962243 81.3857025,49.3075654 81.3857025,45.0866173 L81.3857025,40.2454482 L75.1728941,40.1937631 L68.9419195,40.142078 L67.488631,39.659684 C63.1287654,38.2125017 60.0405273,35.1630821 58.6599032,30.9249056 C58.0967539,29.2537547 58.0604217,25.9286813 58.5509066,24.2058453 C59.5863747,20.5878898 62.3476229,17.4351 65.8355153,15.8500909 C68.3242719,14.7302475 68.687594,14.6785624 75.3545551,14.609649 L81.4038686,14.5407356 L81.3493703,9.54451126 L81.2948719,4.56551531 L80.786221,4.1003496 L80.2957361,3.61795553 L44.2723469,3.61795553 L8.26712378,3.61795553 L7.30432013,4.03143616 C6.14168932,4.53105859 4.7065669,5.96101245 4.25241424,7.09808418 C3.92542432,7.89058873 3.90725822,8.97597539 3.8527599,30.5631101 L3.81642768,53.2011747 L4.30691256,52.8738358 C4.59757026,52.7015522 5.17888567,52.3914418 5.63303833,52.1847014 Z M89.1607961,27.444777 L89.1062977,18.2620613 L79.6599224,18.2620613 C70.4133742,18.2620613 70.1953809,18.2620613 68.9419195,18.6410852 C64.7818811,19.8815271 62.0569652,23.3961124 62.075041,27.4792337 C62.075041,29.1503846 62.2931245,30.0462593 63.0742671,31.5451266 C64.3277285,33.9915536 66.9618139,35.8866732 69.8502248,36.4379807 C70.2498792,36.5068941 74.7732397,36.5758076 79.8960817,36.5930359 L89.1971283,36.6102643 L89.1607961,27.444777 Z" id="Shape" stroke="#000000" stroke-width="4"></path>
                    <path d="M70.4315403,32.8027968 C69.35974,32.5615998 68.3242719,31.9930639 67.4704649,31.1661026 C65.3450304,29.0814711 65.4540271,25.5152007 67.7066243,23.4994826 C68.7965907,22.5174661 69.8320587,22.0867571 71.3943439,22.0006153 C72.4843103,21.9489302 72.9566291,22.0006153 73.79227,22.3107258 C76.7896775,23.3788841 78.3156305,26.8417844 77.0076708,29.5466368 C76.1356977,31.3211579 74.9730669,32.2687177 73.0837918,32.7338834 C71.9393271,33.0267655 71.4488422,33.0267655 70.4315403,32.8027968 Z M73.0474596,28.7024472 C73.9375988,27.8410292 73.7014394,26.4110754 72.5751408,25.8425395 C71.4306761,25.2395469 70.0318859,25.9114529 69.8138926,27.1863516 C69.541401,28.8575024 71.7758321,29.9084324 73.0474596,28.7024472 Z" id="Shape"></path>
                </g>
            </g>
        </g>
    </g>
</svg>