<?xml version="1.0" encoding="UTF-8"?>
<!--Generator: Apple Native CoreSVG 175.5-->
<!DOCTYPE svg
PUBLIC "-//W3C//DTD SVG 1.1//EN"
       "http://www.w3.org/Graphics/SVG/1.1/DTD/svg11.dtd">
<svg version="1.1" xmlns="http://www.w3.org/2000/svg" xmlns:xlink="http://www.w3.org/1999/xlink" width="3300" height="2200">
 <!--glyph: "uni101309.medium", point size: 100.0, font version: "18.0d11e1", template writer version: "90"-->
 <style>.monochrome-0 {fill:#000000}

.SFSymbolsPreview000000 {fill:#000000;opacity:1.0}
</style>
 <g id="Notes">
  <rect height="2200" id="artboard" style="fill:white;opacity:1" width="3300" x="0" y="0"/>
  <line style="fill:none;stroke:black;opacity:1;stroke-width:0.5;" x1="263" x2="3036" y1="292" y2="292"/>
  <text style="stroke:none;fill:black;font-family:sans-serif;font-size:13;font-weight:bold;" transform="matrix(1 0 0 1 263 322)">Weight/Scale Variations</text>
  <text style="stroke:none;fill:black;font-family:sans-serif;font-size:13;text-anchor:middle;" transform="matrix(1 0 0 1 559.711 322)">Ultralight</text>
  <text style="stroke:none;fill:black;font-family:sans-serif;font-size:13;text-anchor:middle;" transform="matrix(1 0 0 1 856.422 322)">Thin</text>
  <text style="stroke:none;fill:black;font-family:sans-serif;font-size:13;text-anchor:middle;" transform="matrix(1 0 0 1 1153.13 322)">Light</text>
  <text style="stroke:none;fill:black;font-family:sans-serif;font-size:13;text-anchor:middle;" transform="matrix(1 0 0 1 1449.84 322)">Regular</text>
  <text style="stroke:none;fill:black;font-family:sans-serif;font-size:13;text-anchor:middle;" transform="matrix(1 0 0 1 1746.56 322)">Medium</text>
  <text style="stroke:none;fill:black;font-family:sans-serif;font-size:13;text-anchor:middle;" transform="matrix(1 0 0 1 2043.27 322)">Semibold</text>
  <text style="stroke:none;fill:black;font-family:sans-serif;font-size:13;text-anchor:middle;" transform="matrix(1 0 0 1 2339.98 322)">Bold</text>
  <text style="stroke:none;fill:black;font-family:sans-serif;font-size:13;text-anchor:middle;" transform="matrix(1 0 0 1 2636.69 322)">Heavy</text>
  <text style="stroke:none;fill:black;font-family:sans-serif;font-size:13;text-anchor:middle;" transform="matrix(1 0 0 1 2933.4 322)">Black</text>
  <line style="fill:none;stroke:black;opacity:1;stroke-width:0.5;" x1="263" x2="3036" y1="1903" y2="1903"/>
  <g transform="matrix(1 0 0 1 263 1933)">
   <path d="M9.24805 0.830078C13.5547 0.830078 17.1387-2.74414 17.1387-7.05078C17.1387-11.3574 13.5449-14.9316 9.23828-14.9316C4.94141-14.9316 1.36719-11.3574 1.36719-7.05078C1.36719-2.74414 4.95117 0.830078 9.24805 0.830078ZM9.24805-0.654297C5.70312-0.654297 2.87109-3.49609 2.87109-7.05078C2.87109-10.6055 5.69336-13.4473 9.23828-13.4473C12.793-13.4473 15.6445-10.6055 15.6445-7.05078C15.6445-3.49609 12.8027-0.654297 9.24805-0.654297ZM5.6543-7.05078C5.6543-6.62109 5.95703-6.32812 6.40625-6.32812L8.50586-6.32812L8.50586-4.20898C8.50586-3.76953 8.79883-3.4668 9.22852-3.4668C9.67773-3.4668 9.9707-3.76953 9.9707-4.20898L9.9707-6.32812L12.0898-6.32812C12.5293-6.32812 12.832-6.62109 12.832-7.05078C12.832-7.49023 12.5293-7.79297 12.0898-7.79297L9.9707-7.79297L9.9707-9.90234C9.9707-10.3516 9.67773-10.6543 9.22852-10.6543C8.79883-10.6543 8.50586-10.3516 8.50586-9.90234L8.50586-7.79297L6.40625-7.79297C5.95703-7.79297 5.6543-7.49023 5.6543-7.05078Z"/>
  </g>
  <g transform="matrix(1 0 0 1 281.867 1933)">
   <path d="M11.709 2.91016C17.1582 2.91016 21.6699-1.61133 21.6699-7.05078C21.6699-12.5 17.1484-17.0117 11.6992-17.0117C6.25977-17.0117 1.74805-12.5 1.74805-7.05078C1.74805-1.61133 6.26953 2.91016 11.709 2.91016ZM11.709 1.25C7.09961 1.25 3.41797-2.44141 3.41797-7.05078C3.41797-11.6602 7.08984-15.3516 11.6992-15.3516C16.3086-15.3516 20.0098-11.6602 20.0098-7.05078C20.0098-2.44141 16.3184 1.25 11.709 1.25ZM7.17773-7.05078C7.17773-6.57227 7.50977-6.25 8.00781-6.25L10.8789-6.25L10.8789-3.36914C10.8789-2.88086 11.2109-2.53906 11.6895-2.53906C12.1777-2.53906 12.5195-2.87109 12.5195-3.36914L12.5195-6.25L15.4004-6.25C15.8887-6.25 16.2305-6.57227 16.2305-7.05078C16.2305-7.53906 15.8887-7.88086 15.4004-7.88086L12.5195-7.88086L12.5195-10.752C12.5195-11.25 12.1777-11.5918 11.6895-11.5918C11.2109-11.5918 10.8789-11.25 10.8789-10.752L10.8789-7.88086L8.00781-7.88086C7.50977-7.88086 7.17773-7.53906 7.17773-7.05078Z"/>
  </g>
  <g transform="matrix(1 0 0 1 305.646 1933)">
   <path d="M14.9707 5.66406C21.9336 5.66406 27.6953-0.0976562 27.6953-7.05078C27.6953-14.0137 21.9238-19.7754 14.9609-19.7754C8.00781-19.7754 2.25586-14.0137 2.25586-7.05078C2.25586-0.0976562 8.01758 5.66406 14.9707 5.66406ZM14.9707 3.84766C8.93555 3.84766 4.08203-1.01562 4.08203-7.05078C4.08203-13.0957 8.92578-17.9492 14.9609-17.9492C21.0059-17.9492 25.8691-13.0957 25.8691-7.05078C25.8691-1.01562 21.0156 3.84766 14.9707 3.84766ZM9.19922-7.05078C9.19922-6.5332 9.57031-6.17188 10.1172-6.17188L14.0625-6.17188L14.0625-2.2168C14.0625-1.67969 14.4336-1.29883 14.9512-1.29883C15.4883-1.29883 15.8594-1.66992 15.8594-2.2168L15.8594-6.17188L19.8145-6.17188C20.3516-6.17188 20.7324-6.5332 20.7324-7.05078C20.7324-7.59766 20.3613-7.96875 19.8145-7.96875L15.8594-7.96875L15.8594-11.9141C15.8594-12.4609 15.4883-12.8418 14.9512-12.8418C14.4336-12.8418 14.0625-12.4609 14.0625-11.9141L14.0625-7.96875L10.1172-7.96875C9.57031-7.96875 9.19922-7.59766 9.19922-7.05078Z"/>
  </g>
  <text style="stroke:none;fill:black;font-family:sans-serif;font-size:13;font-weight:bold;" transform="matrix(1 0 0 1 263 1953)">Design Variations</text>
  <text style="stroke:none;fill:black;font-family:sans-serif;font-size:13;" transform="matrix(1 0 0 1 263 1971)">Symbols are supported in up to nine weights and three scales.</text>
  <text style="stroke:none;fill:black;font-family:sans-serif;font-size:13;" transform="matrix(1 0 0 1 263 1989)">For optimal layout with text and other symbols, vertically align</text>
  <text style="stroke:none;fill:black;font-family:sans-serif;font-size:13;" transform="matrix(1 0 0 1 263 2007)">symbols with the adjacent text.</text>
  <line style="fill:none;stroke:#00AEEF;stroke-width:0.5;opacity:1.0;" x1="776" x2="776" y1="1919" y2="1933"/>
  <g transform="matrix(1 0 0 1 776 1933)">
   <path d="M3.31055 0.15625C3.82812 0.15625 4.08203-0.0390625 4.26758-0.585938L5.52734-4.0332L11.2891-4.0332L12.5488-0.585938C12.7344-0.0390625 12.9883 0.15625 13.4961 0.15625C14.0137 0.15625 14.3457-0.15625 14.3457-0.644531C14.3457-0.810547 14.3164-0.966797 14.2383-1.17188L9.6582-13.3691C9.43359-13.9648 9.0332-14.2676 8.4082-14.2676C7.80273-14.2676 7.39258-13.9746 7.17773-13.3789L2.59766-1.16211C2.51953-0.957031 2.49023-0.800781 2.49023-0.634766C2.49023-0.146484 2.80273 0.15625 3.31055 0.15625ZM6.00586-5.51758L8.37891-12.0898L8.42773-12.0898L10.8008-5.51758Z"/>
  </g>
  <line style="fill:none;stroke:#00AEEF;stroke-width:0.5;opacity:1.0;" x1="793.197" x2="793.197" y1="1919" y2="1933"/>
  <text style="stroke:none;fill:black;font-family:sans-serif;font-size:13;font-weight:bold;" transform="matrix(1 0 0 1 776 1953)">Margins</text>
  <text style="stroke:none;fill:black;font-family:sans-serif;font-size:13;" transform="matrix(1 0 0 1 776 1971)">Leading and trailing margins on the left and right side of each symbol</text>
  <text style="stroke:none;fill:black;font-family:sans-serif;font-size:13;" transform="matrix(1 0 0 1 776 1989)">can be adjusted by modifying the x-location of the margin guidelines.</text>
  <text style="stroke:none;fill:black;font-family:sans-serif;font-size:13;" transform="matrix(1 0 0 1 776 2007)">Modifications are automatically applied proportionally to all</text>
  <text style="stroke:none;fill:black;font-family:sans-serif;font-size:13;" transform="matrix(1 0 0 1 776 2025)">scales and weights.</text>
  <g transform="matrix(1 0 0 1 1289 1933)">
   <path d="M2.8418 1.86523L4.54102 3.57422C5.40039 4.44336 6.38672 4.38477 7.31445 3.35938L18.0078-8.42773L17.041-9.4043L6.42578 2.27539C6.07422 2.67578 5.74219 2.77344 5.27344 2.30469L4.10156 1.14258C3.63281 0.683594 3.74023 0.341797 4.14062-0.0195312L15.6152-10.8203L14.6387-11.7871L3.04688-0.898438C2.06055 0.0195312 1.98242 0.996094 2.8418 1.86523ZM9.25781-16.3281C8.83789-15.918 8.80859-15.3418 9.04297-14.9512C9.27734-14.5898 9.73633-14.3555 10.3809-14.5215C11.8457-14.8633 13.3691-14.9219 14.7949-13.9844L14.209-12.5293C13.8672-11.6992 14.043-11.1133 14.5801-10.5664L16.875-8.25195C17.3633-7.76367 17.7734-7.74414 18.3398-7.8418L19.4043-8.03711L20.0684-7.36328L20.0293-6.80664C19.9902-6.30859 20.1172-5.92773 20.6055-5.44922L21.3672-4.70703C21.8457-4.22852 22.4609-4.19922 22.9297-4.66797L25.8398-7.58789C26.3086-8.05664 26.2891-8.65234 25.8105-9.13086L25.0391-9.89258C24.5605-10.3711 24.1895-10.5273 23.7109-10.4883L23.1348-10.4395L22.4902-11.0742L22.7344-12.1973C22.8613-12.7637 22.7051-13.2031 22.1191-13.7891L19.9219-15.9766C16.582-19.2969 12.1484-19.2188 9.25781-16.3281ZM10.752-15.957C13.1836-17.7344 16.4746-17.4316 18.7012-15.2051L21.1328-12.793C21.3672-12.5586 21.4062-12.373 21.3379-12.0312L21.0156-10.5469L22.5195-9.0625L23.5059-9.12109C23.7598-9.13086 23.8379-9.11133 24.0332-8.91602L24.6094-8.33984L22.168-5.89844L21.5918-6.47461C21.3965-6.66992 21.3672-6.74805 21.377-7.01172L21.4453-7.98828L19.9512-9.47266L18.4277-9.21875C18.1055-9.15039 17.959-9.17969 17.7148-9.41406L15.7129-11.416C15.459-11.6504 15.4297-11.8164 15.5859-12.1875L16.4648-14.2773C14.9023-15.7324 12.8711-16.3574 10.8398-15.7617C10.6836-15.7227 10.625-15.8496 10.752-15.957Z"/>
  </g>
  <text style="stroke:none;fill:black;font-family:sans-serif;font-size:13;font-weight:bold;" transform="matrix(1 0 0 1 1289 1953)">Exporting</text>
  <text style="stroke:none;fill:black;font-family:sans-serif;font-size:13;" transform="matrix(1 0 0 1 1289 1971)">Symbols should be outlined when exporting to ensure the</text>
  <text style="stroke:none;fill:black;font-family:sans-serif;font-size:13;" transform="matrix(1 0 0 1 1289 1989)">design is preserved when submitting to Xcode.</text>
  <text id="template-version" style="stroke:none;fill:black;font-family:sans-serif;font-size:13;text-anchor:end;" transform="matrix(1 0 0 1 3036 1933)">Template v.4.0</text>
  <text style="stroke:none;fill:black;font-family:sans-serif;font-size:13;text-anchor:end;" transform="matrix(1 0 0 1 3036 1951)">Requires Xcode 14 or greater</text>
  <text id="descriptive-name" style="stroke:none;fill:black;font-family:sans-serif;font-size:13;text-anchor:end;" transform="matrix(1 0 0 1 3036 1969)">Generated from figure.outdoor.cycle</text>
  <text style="stroke:none;fill:black;font-family:sans-serif;font-size:13;text-anchor:end;" transform="matrix(1 0 0 1 3036 1987)">Typeset at 100 points</text>
  <text style="stroke:none;fill:black;font-family:sans-serif;font-size:13;" transform="matrix(1 0 0 1 263 726)">Small</text>
  <text style="stroke:none;fill:black;font-family:sans-serif;font-size:13;" transform="matrix(1 0 0 1 263 1156)">Medium</text>
  <text style="stroke:none;fill:black;font-family:sans-serif;font-size:13;" transform="matrix(1 0 0 1 263 1586)">Large</text>
 </g>
 <g id="Guides">
  <g id="H-reference" style="fill:#27AAE1;stroke:none;" transform="matrix(1 0 0 1 339 696)">
   <path d="M0.993654 0L3.63775 0L29.3281-67.1323L30.0303-67.1323L30.0303-70.459L28.1226-70.459ZM11.6885-24.4799L46.9815-24.4799L46.2315-26.7285L12.4385-26.7285ZM55.1196 0L57.7637 0L30.6382-70.459L29.4326-70.459L29.4326-67.1323Z"/>
  </g>
  <line id="Baseline-S" style="fill:none;stroke:#27AAE1;opacity:1;stroke-width:0.5;" x1="263" x2="3036" y1="696" y2="696"/>
  <line id="Capline-S" style="fill:none;stroke:#27AAE1;opacity:1;stroke-width:0.5;" x1="263" x2="3036" y1="625.541" y2="625.541"/>
  <g id="H-reference" style="fill:#27AAE1;stroke:none;" transform="matrix(1 0 0 1 339 1126)">
   <path d="M0.993654 0L3.63775 0L29.3281-67.1323L30.0303-67.1323L30.0303-70.459L28.1226-70.459ZM11.6885-24.4799L46.9815-24.4799L46.2315-26.7285L12.4385-26.7285ZM55.1196 0L57.7637 0L30.6382-70.459L29.4326-70.459L29.4326-67.1323Z"/>
  </g>
  <line id="Baseline-M" style="fill:none;stroke:#27AAE1;opacity:1;stroke-width:0.5;" x1="263" x2="3036" y1="1126" y2="1126"/>
  <line id="Capline-M" style="fill:none;stroke:#27AAE1;opacity:1;stroke-width:0.5;" x1="263" x2="3036" y1="1055.54" y2="1055.54"/>
  <g id="H-reference" style="fill:#27AAE1;stroke:none;" transform="matrix(1 0 0 1 339 1556)">
   <path d="M0.993654 0L3.63775 0L29.3281-67.1323L30.0303-67.1323L30.0303-70.459L28.1226-70.459ZM11.6885-24.4799L46.9815-24.4799L46.2315-26.7285L12.4385-26.7285ZM55.1196 0L57.7637 0L30.6382-70.459L29.4326-70.459L29.4326-67.1323Z"/>
  </g>
  <line id="Baseline-L" style="fill:none;stroke:#27AAE1;opacity:1;stroke-width:0.5;" x1="263" x2="3036" y1="1556" y2="1556"/>
  <line id="Capline-L" style="fill:none;stroke:#27AAE1;opacity:1;stroke-width:0.5;" x1="263" x2="3036" y1="1485.54" y2="1485.54"/>
  <line id="left-margin-Ultralight-S" style="fill:none;stroke:#00AEEF;stroke-width:0.5;opacity:1.0;" x1="507.385" x2="507.385" y1="600.785" y2="720.121"/>
  <line id="right-margin-Ultralight-S" style="fill:none;stroke:#00AEEF;stroke-width:0.5;opacity:1.0;" x1="612.037" x2="612.037" y1="600.785" y2="720.121"/>
  <line id="left-margin-Regular-S" style="fill:none;stroke:#00AEEF;stroke-width:0.5;opacity:1.0;" x1="1390.3" x2="1390.3" y1="600.785" y2="720.121"/>
  <line id="right-margin-Regular-S" style="fill:none;stroke:#00AEEF;stroke-width:0.5;opacity:1.0;" x1="1509.39" x2="1509.39" y1="600.785" y2="720.121"/>
  <line id="left-margin-Black-S" style="fill:none;stroke:#00AEEF;stroke-width:0.5;opacity:1.0;" x1="2868.02" x2="2868.02" y1="600.785" y2="720.121"/>
  <line id="right-margin-Black-S" style="fill:none;stroke:#00AEEF;stroke-width:0.5;opacity:1.0;" x1="2998.78" x2="2998.78" y1="600.785" y2="720.121"/>
 </g>
 <g id="Symbols">
  <g id="Black-S" transform="matrix(1 0 0 1 2868.02 696)">
   <path class="monochrome-0 SFSymbolsPreview000000" d="M33.3008 6.15234C46.2402 6.15234 56.7871-4.39453 56.7871-17.3828C56.7871-30.3711 46.2402-40.918 33.3008-40.918C20.3125-40.918 9.76562-30.3711 9.76562-17.3828C9.76562-4.39453 20.3125 6.15234 33.3008 6.15234ZM65.3809-12.2559C68.1641-12.2559 70.4102-14.502 70.4102-17.2852L70.4102-37.7441C70.4102-38.916 69.9707-40.1367 69.043-41.1621L58.7891-52.6367C58.5938-52.8809 58.7891-53.2227 59.0332-53.2227L71.5332-53.2227C72.4609-53.2227 72.6074-52.8809 72.6074-52.002L72.6074-41.8945C72.6074-39.1113 74.9023-36.8164 77.6855-36.8164L94.0918-36.8164C96.8262-36.8164 99.0723-39.1113 99.0723-41.8945C99.0723-44.6289 96.8262-46.9238 94.0918-46.9238L82.7148-46.9238L82.7148-60.3027C82.7148-65.4297 78.6621-69.4824 73.5352-69.4824L53.6133-69.4824C49.0234-69.4824 45.0684-66.748 43.2617-62.5977C41.5039-58.3496 42.5293-53.6133 45.7031-50.3906L60.3516-35.6445L60.3516-17.2852C60.3516-14.502 62.5977-12.2559 65.3809-12.2559ZM33.3008-2.39258C24.9023-2.39258 18.3105-8.98438 18.3105-17.3828C18.3105-25.7812 24.9023-32.3242 33.3008-32.3242C41.6992-32.3242 48.2422-25.7812 48.2422-17.3828C48.2422-8.98438 41.6992-2.39258 33.3008-2.39258ZM107.471-28.4668C110.547-25.7324 112.451-21.875 112.451-17.3828C112.451-8.98438 105.859-2.39258 97.4609-2.39258C89.0625-2.39258 82.5195-8.98438 82.5195-17.3828C82.5195-19.5312 82.9102-21.4355 83.6914-23.291C85.0586-26.3672 83.4473-28.7109 81.4453-29.4434C79.5898-30.127 77.1484-29.4922 76.0254-26.9531C74.707-24.0234 73.9746-20.7031 73.9746-17.3828C73.9746-4.39453 84.5215 6.15234 97.4609 6.15234C110.449 6.15234 120.996-4.39453 120.996-17.3828C120.996-24.4141 117.871-30.7617 112.939-35.0586C110.791-36.9141 108.154-36.377 106.738-34.8633C105.322-33.3008 105.029-30.6641 107.471-28.4668ZM95.2148-57.0801C100.586-57.0801 104.98-61.4746 104.98-66.8457C104.98-72.2168 100.586-76.6113 95.2148-76.6113C89.8438-76.6113 85.4492-72.2168 85.4492-66.8457C85.4492-61.4746 89.8438-57.0801 95.2148-57.0801Z"/>
  </g>
  <g id="Regular-S" transform="matrix(1 0 0 1 1390.3 696)">
   <path class="monochrome-0 SFSymbolsPreview000000" d="M31.25 2.05078C43.0664 2.05078 52.6855-7.56836 52.6855-19.4336C52.6855-31.2988 43.0664-40.8691 31.25-40.8691C19.3848-40.8691 9.76562-31.2988 9.76562-19.4336C9.76562-7.56836 19.3848 2.05078 31.25 2.05078ZM59.5215-13.5742C61.6699-13.5742 63.4277-15.332 63.4277-17.4805L63.4277-37.0605C63.4277-37.9883 63.0859-38.8672 62.3535-39.6484L52.1484-51.0254C51.5137-51.7578 51.9531-52.7832 52.9297-52.7832L65.4297-52.7832C66.9434-52.7832 67.4316-51.709 67.4316-50.6348L67.4316-40.9668C67.4316-38.8672 69.1406-37.1094 71.2891-37.1094L86.9629-37.1094C89.1113-37.1094 90.8203-38.8672 90.8203-40.9668C90.8203-43.1152 89.1113-44.873 86.9629-44.873L75.1953-44.873L75.1953-58.5938C75.1953-62.9883 71.7285-66.4551 67.3828-66.4551L48.291-66.4551C44.2871-66.4551 40.7715-64.0625 39.2578-60.4004C37.7441-56.7383 38.623-52.5879 41.3574-49.7559L55.6641-35.4004L55.6641-17.4805C55.6641-15.332 57.4219-13.5742 59.5215-13.5742ZM31.25-4.05273C22.7539-4.05273 15.8691-10.9375 15.8691-19.4336C15.8691-27.8809 22.7539-34.7656 31.25-34.7656C39.6973-34.7656 46.582-27.8809 46.582-19.4336C46.582-10.9375 39.6973-4.05273 31.25-4.05273ZM98.0469-30.8105C101.172-28.0273 103.174-23.9746 103.174-19.4336C103.174-10.9375 96.2891-4.05273 87.8418-4.05273C79.3945-4.05273 72.5098-10.9375 72.5098-19.4336C72.5098-21.582 72.9492-23.6328 73.7305-25.4883C74.707-27.7832 73.6328-29.4434 72.168-29.9805C70.8008-30.4688 69.0918-30.0293 68.2617-28.1738C67.041-25.4395 66.3574-22.5098 66.3574-19.4336C66.3574-7.56836 75.9766 2.05078 87.8418 2.05078C99.707 2.05078 109.326-7.56836 109.326-19.4336C109.326-25.8789 106.445-31.5918 101.953-35.5469C100.342-36.9141 98.5352-36.5723 97.5098-35.4492C96.4355-34.2773 96.2891-32.4219 98.0469-30.8105ZM87.6465-56.0059C92.2852-56.0059 96.0938-59.7656 96.0938-64.502C96.0938-69.1406 92.2852-72.998 87.6465-72.998C82.8613-72.998 79.1016-69.1406 79.1016-64.502C79.1016-59.7656 82.8613-56.0059 87.6465-56.0059Z"/>
  </g>
  <g id="Ultralight-S" transform="matrix(1 0 0 1 507.385 696)">
   <path class="monochrome-0 SFSymbolsPreview000000" d="M27.5264-2.17233C37.6172-2.17233 45.42-9.88426 45.42-19.9785C45.42-30.0274 37.6172-37.8721 27.5264-37.8721C17.4776-37.8721 9.76562-30.0274 9.76562-19.9785C9.76562-9.88426 17.4776-2.17233 27.5264-2.17233ZM52.3467-14.7095C54.2681-14.7095 55.8443-16.2402 55.8443-18.207L55.8443-36.0615C55.8443-36.853 55.5479-37.6411 54.8609-38.377L45.6094-48.7549C45.0655-49.3965 45.4595-50.3311 46.3453-50.3311L57.6646-50.3311C59.0421-50.3311 59.4849-49.3477 59.4849-48.4097L59.4849-39.6045C59.4849-37.6411 61.0577-36.1104 63.0245-36.1104L77.2906-36.1104C79.212-36.1104 80.7847-37.6411 80.7847-39.6045C80.7847-41.5259 79.212-43.1475 77.2906-43.1475L66.5675-43.1475L66.5675-55.6421C66.5675-59.5825 63.4185-62.7315 59.4361-62.7315L42.0699-62.7315C38.4292-62.7315 35.2769-60.5659 33.854-57.3125C32.4766-53.9229 33.2193-50.1358 35.772-47.5762L48.8072-34.5376L48.8072-18.207C48.8072-16.2402 50.3834-14.7095 52.3467-14.7095ZM27.5264-4.32519C18.9395-4.32519 11.8731-11.3462 11.8731-19.9785C11.8731-28.6074 18.9395-35.6738 27.5264-35.6738C36.1553-35.6738 43.2217-28.6074 43.2217-19.9785C43.2217-11.3462 36.1553-4.32519 27.5264-4.32519ZM87.5118-31.5825C90.5914-28.7539 92.7296-24.6103 92.7296-19.9785C92.7296-11.3462 85.6632-4.32519 77.0797-4.32519C68.4508-4.32519 61.4298-11.3462 61.4298-19.9785C61.4298-22.1269 61.8692-24.314 62.6959-26.1694C63.0367-27.1929 62.9161-27.6724 62.1778-27.9824C61.5826-28.2437 61.1451-28.0767 60.7691-27.311C59.8209-24.9399 59.2735-22.646 59.2735-19.9785C59.2735-9.88426 66.9854-2.17233 77.0797-2.17233C87.1285-2.17233 94.8859-9.88426 94.8859-19.9785C94.8859-25.4702 92.5953-30.0025 88.7843-33.4126C88.0812-33.9624 87.5914-33.9385 87.0655-33.4058C86.5816-32.8696 86.6622-32.3311 87.5118-31.5825ZM78.065-53.2813C82.295-53.2813 85.7857-56.7686 85.7857-61.0054C85.7857-65.2354 82.295-68.7295 78.065-68.7295C73.8248-68.7295 70.3375-65.2354 70.3375-61.0054C70.3375-56.7686 73.8248-53.2813 78.065-53.2813Z"/>
  </g>
 </g>
</svg>
