<?xml version="1.0" encoding="UTF-8"?>
<!--Generator: Apple Native CoreSVG 175.5-->
<!DOCTYPE svg
PUBLIC "-//W3C//DTD SVG 1.1//EN"
       "http://www.w3.org/Graphics/SVG/1.1/DTD/svg11.dtd">
<svg version="1.1" xmlns="http://www.w3.org/2000/svg" xmlns:xlink="http://www.w3.org/1999/xlink" width="3300" height="2200">
 <!--glyph: "uni10145F.medium", point size: 100.0, font version: "18.0d11e1", template writer version: "90"-->
 <style>.monochrome-0 {fill:#000000}

.SFSymbolsPreview000000 {fill:#000000;opacity:1.0}
</style>
 <g id="Notes">
  <rect height="2200" id="artboard" style="fill:white;opacity:1" width="3300" x="0" y="0"/>
  <line style="fill:none;stroke:black;opacity:1;stroke-width:0.5;" x1="263" x2="3036" y1="292" y2="292"/>
  <text style="stroke:none;fill:black;font-family:sans-serif;font-size:13;font-weight:bold;" transform="matrix(1 0 0 1 263 322)">Weight/Scale Variations</text>
  <text style="stroke:none;fill:black;font-family:sans-serif;font-size:13;text-anchor:middle;" transform="matrix(1 0 0 1 559.711 322)">Ultralight</text>
  <text style="stroke:none;fill:black;font-family:sans-serif;font-size:13;text-anchor:middle;" transform="matrix(1 0 0 1 856.422 322)">Thin</text>
  <text style="stroke:none;fill:black;font-family:sans-serif;font-size:13;text-anchor:middle;" transform="matrix(1 0 0 1 1153.13 322)">Light</text>
  <text style="stroke:none;fill:black;font-family:sans-serif;font-size:13;text-anchor:middle;" transform="matrix(1 0 0 1 1449.84 322)">Regular</text>
  <text style="stroke:none;fill:black;font-family:sans-serif;font-size:13;text-anchor:middle;" transform="matrix(1 0 0 1 1746.56 322)">Medium</text>
  <text style="stroke:none;fill:black;font-family:sans-serif;font-size:13;text-anchor:middle;" transform="matrix(1 0 0 1 2043.27 322)">Semibold</text>
  <text style="stroke:none;fill:black;font-family:sans-serif;font-size:13;text-anchor:middle;" transform="matrix(1 0 0 1 2339.98 322)">Bold</text>
  <text style="stroke:none;fill:black;font-family:sans-serif;font-size:13;text-anchor:middle;" transform="matrix(1 0 0 1 2636.69 322)">Heavy</text>
  <text style="stroke:none;fill:black;font-family:sans-serif;font-size:13;text-anchor:middle;" transform="matrix(1 0 0 1 2933.4 322)">Black</text>
  <line style="fill:none;stroke:black;opacity:1;stroke-width:0.5;" x1="263" x2="3036" y1="1903" y2="1903"/>
  <g transform="matrix(1 0 0 1 263 1933)">
   <path d="M9.24805 0.830078C13.5547 0.830078 17.1387-2.74414 17.1387-7.05078C17.1387-11.3574 13.5449-14.9316 9.23828-14.9316C4.94141-14.9316 1.36719-11.3574 1.36719-7.05078C1.36719-2.74414 4.95117 0.830078 9.24805 0.830078ZM9.24805-0.654297C5.70312-0.654297 2.87109-3.49609 2.87109-7.05078C2.87109-10.6055 5.69336-13.4473 9.23828-13.4473C12.793-13.4473 15.6445-10.6055 15.6445-7.05078C15.6445-3.49609 12.8027-0.654297 9.24805-0.654297ZM5.6543-7.05078C5.6543-6.62109 5.95703-6.32812 6.40625-6.32812L8.50586-6.32812L8.50586-4.20898C8.50586-3.76953 8.79883-3.4668 9.22852-3.4668C9.67773-3.4668 9.9707-3.76953 9.9707-4.20898L9.9707-6.32812L12.0898-6.32812C12.5293-6.32812 12.832-6.62109 12.832-7.05078C12.832-7.49023 12.5293-7.79297 12.0898-7.79297L9.9707-7.79297L9.9707-9.90234C9.9707-10.3516 9.67773-10.6543 9.22852-10.6543C8.79883-10.6543 8.50586-10.3516 8.50586-9.90234L8.50586-7.79297L6.40625-7.79297C5.95703-7.79297 5.6543-7.49023 5.6543-7.05078Z"/>
  </g>
  <g transform="matrix(1 0 0 1 281.867 1933)">
   <path d="M11.709 2.91016C17.1582 2.91016 21.6699-1.61133 21.6699-7.05078C21.6699-12.5 17.1484-17.0117 11.6992-17.0117C6.25977-17.0117 1.74805-12.5 1.74805-7.05078C1.74805-1.61133 6.26953 2.91016 11.709 2.91016ZM11.709 1.25C7.09961 1.25 3.41797-2.44141 3.41797-7.05078C3.41797-11.6602 7.08984-15.3516 11.6992-15.3516C16.3086-15.3516 20.0098-11.6602 20.0098-7.05078C20.0098-2.44141 16.3184 1.25 11.709 1.25ZM7.17773-7.05078C7.17773-6.57227 7.50977-6.25 8.00781-6.25L10.8789-6.25L10.8789-3.36914C10.8789-2.88086 11.2109-2.53906 11.6895-2.53906C12.1777-2.53906 12.5195-2.87109 12.5195-3.36914L12.5195-6.25L15.4004-6.25C15.8887-6.25 16.2305-6.57227 16.2305-7.05078C16.2305-7.53906 15.8887-7.88086 15.4004-7.88086L12.5195-7.88086L12.5195-10.752C12.5195-11.25 12.1777-11.5918 11.6895-11.5918C11.2109-11.5918 10.8789-11.25 10.8789-10.752L10.8789-7.88086L8.00781-7.88086C7.50977-7.88086 7.17773-7.53906 7.17773-7.05078Z"/>
  </g>
  <g transform="matrix(1 0 0 1 305.646 1933)">
   <path d="M14.9707 5.66406C21.9336 5.66406 27.6953-0.0976562 27.6953-7.05078C27.6953-14.0137 21.9238-19.7754 14.9609-19.7754C8.00781-19.7754 2.25586-14.0137 2.25586-7.05078C2.25586-0.0976562 8.01758 5.66406 14.9707 5.66406ZM14.9707 3.84766C8.93555 3.84766 4.08203-1.01562 4.08203-7.05078C4.08203-13.0957 8.92578-17.9492 14.9609-17.9492C21.0059-17.9492 25.8691-13.0957 25.8691-7.05078C25.8691-1.01562 21.0156 3.84766 14.9707 3.84766ZM9.19922-7.05078C9.19922-6.5332 9.57031-6.17188 10.1172-6.17188L14.0625-6.17188L14.0625-2.2168C14.0625-1.67969 14.4336-1.29883 14.9512-1.29883C15.4883-1.29883 15.8594-1.66992 15.8594-2.2168L15.8594-6.17188L19.8145-6.17188C20.3516-6.17188 20.7324-6.5332 20.7324-7.05078C20.7324-7.59766 20.3613-7.96875 19.8145-7.96875L15.8594-7.96875L15.8594-11.9141C15.8594-12.4609 15.4883-12.8418 14.9512-12.8418C14.4336-12.8418 14.0625-12.4609 14.0625-11.9141L14.0625-7.96875L10.1172-7.96875C9.57031-7.96875 9.19922-7.59766 9.19922-7.05078Z"/>
  </g>
  <text style="stroke:none;fill:black;font-family:sans-serif;font-size:13;font-weight:bold;" transform="matrix(1 0 0 1 263 1953)">Design Variations</text>
  <text style="stroke:none;fill:black;font-family:sans-serif;font-size:13;" transform="matrix(1 0 0 1 263 1971)">Symbols are supported in up to nine weights and three scales.</text>
  <text style="stroke:none;fill:black;font-family:sans-serif;font-size:13;" transform="matrix(1 0 0 1 263 1989)">For optimal layout with text and other symbols, vertically align</text>
  <text style="stroke:none;fill:black;font-family:sans-serif;font-size:13;" transform="matrix(1 0 0 1 263 2007)">symbols with the adjacent text.</text>
  <line style="fill:none;stroke:#00AEEF;stroke-width:0.5;opacity:1.0;" x1="776" x2="776" y1="1919" y2="1933"/>
  <g transform="matrix(1 0 0 1 776 1933)">
   <path d="M3.31055 0.15625C3.82812 0.15625 4.08203-0.0390625 4.26758-0.585938L5.52734-4.0332L11.2891-4.0332L12.5488-0.585938C12.7344-0.0390625 12.9883 0.15625 13.4961 0.15625C14.0137 0.15625 14.3457-0.15625 14.3457-0.644531C14.3457-0.810547 14.3164-0.966797 14.2383-1.17188L9.6582-13.3691C9.43359-13.9648 9.0332-14.2676 8.4082-14.2676C7.80273-14.2676 7.39258-13.9746 7.17773-13.3789L2.59766-1.16211C2.51953-0.957031 2.49023-0.800781 2.49023-0.634766C2.49023-0.146484 2.80273 0.15625 3.31055 0.15625ZM6.00586-5.51758L8.37891-12.0898L8.42773-12.0898L10.8008-5.51758Z"/>
  </g>
  <line style="fill:none;stroke:#00AEEF;stroke-width:0.5;opacity:1.0;" x1="793.197" x2="793.197" y1="1919" y2="1933"/>
  <text style="stroke:none;fill:black;font-family:sans-serif;font-size:13;font-weight:bold;" transform="matrix(1 0 0 1 776 1953)">Margins</text>
  <text style="stroke:none;fill:black;font-family:sans-serif;font-size:13;" transform="matrix(1 0 0 1 776 1971)">Leading and trailing margins on the left and right side of each symbol</text>
  <text style="stroke:none;fill:black;font-family:sans-serif;font-size:13;" transform="matrix(1 0 0 1 776 1989)">can be adjusted by modifying the x-location of the margin guidelines.</text>
  <text style="stroke:none;fill:black;font-family:sans-serif;font-size:13;" transform="matrix(1 0 0 1 776 2007)">Modifications are automatically applied proportionally to all</text>
  <text style="stroke:none;fill:black;font-family:sans-serif;font-size:13;" transform="matrix(1 0 0 1 776 2025)">scales and weights.</text>
  <g transform="matrix(1 0 0 1 1289 1933)">
   <path d="M2.8418 1.86523L4.54102 3.57422C5.40039 4.44336 6.38672 4.38477 7.31445 3.35938L18.0078-8.42773L17.041-9.4043L6.42578 2.27539C6.07422 2.67578 5.74219 2.77344 5.27344 2.30469L4.10156 1.14258C3.63281 0.683594 3.74023 0.341797 4.14062-0.0195312L15.6152-10.8203L14.6387-11.7871L3.04688-0.898438C2.06055 0.0195312 1.98242 0.996094 2.8418 1.86523ZM9.25781-16.3281C8.83789-15.918 8.80859-15.3418 9.04297-14.9512C9.27734-14.5898 9.73633-14.3555 10.3809-14.5215C11.8457-14.8633 13.3691-14.9219 14.7949-13.9844L14.209-12.5293C13.8672-11.6992 14.043-11.1133 14.5801-10.5664L16.875-8.25195C17.3633-7.76367 17.7734-7.74414 18.3398-7.8418L19.4043-8.03711L20.0684-7.36328L20.0293-6.80664C19.9902-6.30859 20.1172-5.92773 20.6055-5.44922L21.3672-4.70703C21.8457-4.22852 22.4609-4.19922 22.9297-4.66797L25.8398-7.58789C26.3086-8.05664 26.2891-8.65234 25.8105-9.13086L25.0391-9.89258C24.5605-10.3711 24.1895-10.5273 23.7109-10.4883L23.1348-10.4395L22.4902-11.0742L22.7344-12.1973C22.8613-12.7637 22.7051-13.2031 22.1191-13.7891L19.9219-15.9766C16.582-19.2969 12.1484-19.2188 9.25781-16.3281ZM10.752-15.957C13.1836-17.7344 16.4746-17.4316 18.7012-15.2051L21.1328-12.793C21.3672-12.5586 21.4062-12.373 21.3379-12.0312L21.0156-10.5469L22.5195-9.0625L23.5059-9.12109C23.7598-9.13086 23.8379-9.11133 24.0332-8.91602L24.6094-8.33984L22.168-5.89844L21.5918-6.47461C21.3965-6.66992 21.3672-6.74805 21.377-7.01172L21.4453-7.98828L19.9512-9.47266L18.4277-9.21875C18.1055-9.15039 17.959-9.17969 17.7148-9.41406L15.7129-11.416C15.459-11.6504 15.4297-11.8164 15.5859-12.1875L16.4648-14.2773C14.9023-15.7324 12.8711-16.3574 10.8398-15.7617C10.6836-15.7227 10.625-15.8496 10.752-15.957Z"/>
  </g>
  <text style="stroke:none;fill:black;font-family:sans-serif;font-size:13;font-weight:bold;" transform="matrix(1 0 0 1 1289 1953)">Exporting</text>
  <text style="stroke:none;fill:black;font-family:sans-serif;font-size:13;" transform="matrix(1 0 0 1 1289 1971)">Symbols should be outlined when exporting to ensure the</text>
  <text style="stroke:none;fill:black;font-family:sans-serif;font-size:13;" transform="matrix(1 0 0 1 1289 1989)">design is preserved when submitting to Xcode.</text>
  <text id="template-version" style="stroke:none;fill:black;font-family:sans-serif;font-size:13;text-anchor:end;" transform="matrix(1 0 0 1 3036 1933)">Template v.4.0</text>
  <text style="stroke:none;fill:black;font-family:sans-serif;font-size:13;text-anchor:end;" transform="matrix(1 0 0 1 3036 1951)">Requires Xcode 14 or greater</text>
  <text id="descriptive-name" style="stroke:none;fill:black;font-family:sans-serif;font-size:13;text-anchor:end;" transform="matrix(1 0 0 1 3036 1969)">Generated from brazilianrealsign</text>
  <text style="stroke:none;fill:black;font-family:sans-serif;font-size:13;text-anchor:end;" transform="matrix(1 0 0 1 3036 1987)">Typeset at 100 points</text>
  <text style="stroke:none;fill:black;font-family:sans-serif;font-size:13;" transform="matrix(1 0 0 1 263 726)">Small</text>
  <text style="stroke:none;fill:black;font-family:sans-serif;font-size:13;" transform="matrix(1 0 0 1 263 1156)">Medium</text>
  <text style="stroke:none;fill:black;font-family:sans-serif;font-size:13;" transform="matrix(1 0 0 1 263 1586)">Large</text>
 </g>
 <g id="Guides">
  <g id="H-reference" style="fill:#27AAE1;stroke:none;" transform="matrix(1 0 0 1 339 696)">
   <path d="M0.993654 0L3.63775 0L29.3281-67.1323L30.0303-67.1323L30.0303-70.459L28.1226-70.459ZM11.6885-24.4799L46.9815-24.4799L46.2315-26.7285L12.4385-26.7285ZM55.1196 0L57.7637 0L30.6382-70.459L29.4326-70.459L29.4326-67.1323Z"/>
  </g>
  <line id="Baseline-S" style="fill:none;stroke:#27AAE1;opacity:1;stroke-width:0.5;" x1="263" x2="3036" y1="696" y2="696"/>
  <line id="Capline-S" style="fill:none;stroke:#27AAE1;opacity:1;stroke-width:0.5;" x1="263" x2="3036" y1="625.541" y2="625.541"/>
  <g id="H-reference" style="fill:#27AAE1;stroke:none;" transform="matrix(1 0 0 1 339 1126)">
   <path d="M0.993654 0L3.63775 0L29.3281-67.1323L30.0303-67.1323L30.0303-70.459L28.1226-70.459ZM11.6885-24.4799L46.9815-24.4799L46.2315-26.7285L12.4385-26.7285ZM55.1196 0L57.7637 0L30.6382-70.459L29.4326-70.459L29.4326-67.1323Z"/>
  </g>
  <line id="Baseline-M" style="fill:none;stroke:#27AAE1;opacity:1;stroke-width:0.5;" x1="263" x2="3036" y1="1126" y2="1126"/>
  <line id="Capline-M" style="fill:none;stroke:#27AAE1;opacity:1;stroke-width:0.5;" x1="263" x2="3036" y1="1055.54" y2="1055.54"/>
  <g id="H-reference" style="fill:#27AAE1;stroke:none;" transform="matrix(1 0 0 1 339 1556)">
   <path d="M0.993654 0L3.63775 0L29.3281-67.1323L30.0303-67.1323L30.0303-70.459L28.1226-70.459ZM11.6885-24.4799L46.9815-24.4799L46.2315-26.7285L12.4385-26.7285ZM55.1196 0L57.7637 0L30.6382-70.459L29.4326-70.459L29.4326-67.1323Z"/>
  </g>
  <line id="Baseline-L" style="fill:none;stroke:#27AAE1;opacity:1;stroke-width:0.5;" x1="263" x2="3036" y1="1556" y2="1556"/>
  <line id="Capline-L" style="fill:none;stroke:#27AAE1;opacity:1;stroke-width:0.5;" x1="263" x2="3036" y1="1485.54" y2="1485.54"/>
  <line id="left-margin-Ultralight-S" style="fill:none;stroke:#00AEEF;stroke-width:0.5;opacity:1.0;" x1="508.46" x2="508.46" y1="600.785" y2="720.121"/>
  <line id="right-margin-Ultralight-S" style="fill:none;stroke:#00AEEF;stroke-width:0.5;opacity:1.0;" x1="610.962" x2="610.962" y1="600.785" y2="720.121"/>
  <line id="left-margin-Regular-S" style="fill:none;stroke:#00AEEF;stroke-width:0.5;opacity:1.0;" x1="1394.62" x2="1394.62" y1="600.785" y2="720.121"/>
  <line id="right-margin-Regular-S" style="fill:none;stroke:#00AEEF;stroke-width:0.5;opacity:1.0;" x1="1505.07" x2="1505.07" y1="600.785" y2="720.121"/>
  <line id="left-margin-Black-S" style="fill:none;stroke:#00AEEF;stroke-width:0.5;opacity:1.0;" x1="2870.34" x2="2870.34" y1="600.785" y2="720.121"/>
  <line id="right-margin-Black-S" style="fill:none;stroke:#00AEEF;stroke-width:0.5;opacity:1.0;" x1="2996.46" x2="2996.46" y1="600.785" y2="720.121"/>
 </g>
 <g id="Symbols">
  <g id="Black-S" transform="matrix(1 0 0 1 2870.34 696)">
   <path class="monochrome-0 SFSymbolsPreview000000" d="M18.3105-0.195312C23.7305-0.195312 26.8555-3.36914 26.8555-8.98438L26.8555-24.0723L32.0312-24.0723C32.0801-24.0723 32.0801-24.0723 32.1289-24.0723L39.0137-8.20312C41.4062-2.73438 43.7012-0.195312 48.1445-0.195312C52.7344-0.195312 57.0312-2.83203 57.0312-7.61719C57.0312-9.96094 55.7617-12.6953 54.4434-15.625L48.9258-27.8809C55.7129-31.1523 58.9844-38.1348 58.9844-47.0703C58.9844-59.5703 49.9023-69.043 33.3008-69.043L19.6777-69.043C13.3789-69.043 9.76562-65.2344 9.76562-58.5938L9.76562-8.98438C9.76562-3.41797 12.9395-0.195312 18.3105-0.195312ZM89.5508-0.390625C105.859-0.390625 116.357-8.69141 116.357-21.582C116.357-32.2754 110.107-37.5488 97.4609-40.3809L90.918-41.8457C84.4727-43.3105 81.2012-44.7754 81.2012-48.1934C81.2012-51.5625 84.1797-53.4668 89.8438-53.4668C93.7988-53.4668 95.8984-51.3184 97.998-49.1211C100.244-46.6797 102.441-44.1895 106.885-44.1895C111.426-44.1895 114.307-46.6797 114.307-50.5859C114.307-51.8066 114.062-53.0273 113.672-54.1992C111.328-61.0352 103.223-67.041 89.502-67.041C74.9512-67.041 64.3066-59.082 64.3066-46.3867C64.3066-35.4492 70.9961-29.6875 83.0078-27.002L89.502-25.5371C96.582-23.9258 99.5605-22.998 99.5605-19.4336C99.5605-15.7227 95.6055-13.9648 89.8926-13.9648C85.1074-13.9648 83.0078-16.5039 80.9082-18.9453C78.9551-21.2402 77.002-23.4863 72.9492-23.4863C67.8223-23.4863 65.0879-20.5078 65.0879-16.0156C65.0879-14.9414 65.332-13.6719 65.918-12.2559C68.1152-6.93359 75-0.390625 89.5508-0.390625ZM26.8555-36.4258L26.8555-54.541L33.8867-54.541C38.8672-54.541 41.7969-50.4883 41.7969-45.459C41.7969-40.3809 39.0625-36.4258 33.8379-36.4258ZM90.332 9.08203C91.6016 9.08203 92.2852 8.34961 92.2852 6.93359L92.2852-74.6094C92.2852-76.0254 91.6016-76.7578 90.332-76.7578C89.0625-76.7578 88.3789-76.0254 88.3789-74.6094L88.3789 6.93359C88.3789 8.34961 89.0625 9.08203 90.332 9.08203Z"/>
  </g>
  <g id="Regular-S" transform="matrix(1 0 0 1 1394.62 696)">
   <path class="monochrome-0 SFSymbolsPreview000000" d="M13.8184 0.634766C16.3086 0.634766 17.9199-0.976562 17.9199-3.56445L17.9199-28.2227L29.8828-28.2227C29.9805-28.2227 30.0293-28.2227 30.127-28.2227L44.4336-2.00195C45.5078 0 46.582 0.683594 48.4863 0.683594C50.8301 0.683594 52.5879-0.927734 52.5879-3.07617C52.5879-4.05273 52.3438-4.88281 51.7578-6.00586L38.5742-29.4922C47.2656-32.1777 52.4414-39.502 52.4414-49.0234C52.4414-61.3281 43.8477-69.2383 30.7129-69.2383L13.916-69.2383C11.377-69.2383 9.76562-67.627 9.76562-64.9902L9.76562-3.56445C9.76562-0.976562 11.377 0.634766 13.8184 0.634766ZM79.1504-1.70898C90.5762-1.70898 100.684-8.05664 100.684-20.2148C100.684-29.4434 95.2637-34.9121 83.0078-38.0859L76.6113-39.7949C69.6777-41.5527 66.5039-44.6777 66.5039-49.5605C66.5039-54.6387 70.8496-59.2773 79.1504-59.2773C85.5469-59.2773 89.7949-56.2012 91.8457-50.0488C92.7246-47.6074 93.9453-46.582 95.9473-46.582C98.291-46.582 99.7559-48.1934 99.7559-50.7812C99.7559-51.3672 99.707-52.002 99.5117-52.7344C97.3145-61.377 89.2578-67.041 79.1504-67.041C66.8945-67.041 58.4473-59.7168 58.4473-49.0234C58.4473-40.1367 63.8184-34.6191 75.3418-31.6406L81.7871-29.9805C89.7461-27.9297 92.6758-25.0977 92.6758-19.6289C92.6758-13.0859 87.8906-9.47266 79.248-9.47266C71.582-9.47266 66.9434-12.5977 65.1855-18.8477C64.4043-21.1426 63.0859-22.3145 61.0352-22.3145C58.7402-22.3145 57.2266-20.6055 57.2266-18.0176C57.2266-17.4316 57.3242-16.7969 57.5195-16.1133C59.8145-6.88477 69.043-1.70898 79.1504-1.70898ZM17.9199-35.4004L17.9199-61.9629L29.5898-61.9629C38.623-61.9629 43.9941-57.0801 43.9941-48.7305C43.9941-40.2344 38.8672-35.4004 29.9805-35.4004ZM78.9551 9.08203C80.8105 9.08203 82.2754 7.66602 82.2754 5.81055L82.2754-74.5117C82.2754-76.3184 80.8105-77.7832 78.9551-77.7832C77.1484-77.7832 75.6836-76.3184 75.6836-74.5117L75.6836 5.81055C75.6836 7.66602 77.1484 9.08203 78.9551 9.08203Z"/>
  </g>
  <g id="Ultralight-S" transform="matrix(1 0 0 1 508.46 696)">
   <path class="monochrome-0 SFSymbolsPreview000000" d="M10.8667-0.863758C11.4497-0.863758 11.9258-1.33984 11.9258-2.02052L11.9258-30.4477L24.6153-30.4477C25.5757-30.4477 26.9414-30.4931 27.7656-30.584L45.251-1.72949C45.5986-1.18065 45.9009-0.860339 46.4883-0.860339C47.0611-0.860339 47.502-1.2456 47.502-1.8047C47.502-2.10011 47.4395-2.38527 47.2622-2.64553L30.0372-30.8999C40.2725-32.6772 46.1749-39.3657 46.1749-49.1597C46.1749-60.9194 38.0806-67.7398 24.6734-67.7398L11.1914-67.7398C10.1963-67.7398 9.76562-67.2637 9.76562-66.3071L9.76562-2.02052C9.76562-1.33984 10.1963-0.863758 10.8667-0.863758ZM72.793-3.97947C84.4458-3.97947 92.7369-10.645 92.7369-20.1694C92.7369-28.1719 87.6802-33.0503 76.5596-35.77L70.3902-37.2974C60.7774-39.6455 56.1959-43.7241 56.1959-49.9692C56.1959-57.5903 63.6295-63.1826 72.6568-63.1826C81.5508-63.1826 88.5234-58.0176 89.439-50.6846C89.5005-49.9687 89.9038-49.6245 90.4981-49.6245C91.2525-49.6245 91.5821-50.0552 91.5821-50.9175C91.5821-51.3218 91.5333-51.8203 91.4288-52.3257C89.9127-60.0147 82.2193-65.4063 72.6568-65.4063C62.4898-65.4063 54.0425-58.8994 54.0425-49.9316C54.0425-42.5434 59.0957-37.7978 69.8926-35.0464L76.0655-33.477C86.2495-30.8813 90.5869-26.9595 90.5869-20.1284C90.5869-11.9961 83.168-6.20315 72.8453-6.20315C62.9996-6.20315 55.6817-11.9165 54.7867-20.21C54.6866-20.9609 54.3218-21.3608 53.6788-21.3608C53.0186-21.3608 52.5948-20.7871 52.5948-20.061C52.5948-19.5659 52.647-19.1128 52.7515-18.6108C54.2745-9.8364 62.3677-3.97947 72.793-3.97947ZM11.9258-32.4942L11.9258-65.7319L24.6402-65.7319C36.7158-65.7319 43.9941-59.7593 43.9941-49.1392C43.9941-38.7359 36.6875-32.4942 24.6221-32.4942ZM72.6885 7.81056C73.2725 7.81056 73.7838 7.34815 73.7838 6.71874L73.7838-74.9658C73.7838-75.5918 73.2725-76.0576 72.6885-76.0576C72.1079-76.0576 71.5967-75.5918 71.5967-74.9658L71.5967 6.71874C71.5967 7.34815 72.1079 7.81056 72.6885 7.81056Z"/>
  </g>
 </g>
</svg>
