<?xml version="1.0" encoding="UTF-8"?>
<!--Generator: Apple Native CoreSVG 175.5-->
<!DOCTYPE svg
PUBLIC "-//W3C//DTD SVG 1.1//EN"
       "http://www.w3.org/Graphics/SVG/1.1/DTD/svg11.dtd">
<svg version="1.1" xmlns="http://www.w3.org/2000/svg" xmlns:xlink="http://www.w3.org/1999/xlink" width="3300" height="2200">
 <!--glyph: "uni100395.medium", point size: 100.0, font version: "18.0d11e1", template writer version: "90"-->
 <style>.monochrome-0 {fill:#000000}

.SFSymbolsPreview000000 {fill:#000000;opacity:1.0}
</style>
 <g id="Notes">
  <rect height="2200" id="artboard" style="fill:white;opacity:1" width="3300" x="0" y="0"/>
  <line style="fill:none;stroke:black;opacity:1;stroke-width:0.5;" x1="263" x2="3036" y1="292" y2="292"/>
  <text style="stroke:none;fill:black;font-family:sans-serif;font-size:13;font-weight:bold;" transform="matrix(1 0 0 1 263 322)">Weight/Scale Variations</text>
  <text style="stroke:none;fill:black;font-family:sans-serif;font-size:13;text-anchor:middle;" transform="matrix(1 0 0 1 559.711 322)">Ultralight</text>
  <text style="stroke:none;fill:black;font-family:sans-serif;font-size:13;text-anchor:middle;" transform="matrix(1 0 0 1 856.422 322)">Thin</text>
  <text style="stroke:none;fill:black;font-family:sans-serif;font-size:13;text-anchor:middle;" transform="matrix(1 0 0 1 1153.13 322)">Light</text>
  <text style="stroke:none;fill:black;font-family:sans-serif;font-size:13;text-anchor:middle;" transform="matrix(1 0 0 1 1449.84 322)">Regular</text>
  <text style="stroke:none;fill:black;font-family:sans-serif;font-size:13;text-anchor:middle;" transform="matrix(1 0 0 1 1746.56 322)">Medium</text>
  <text style="stroke:none;fill:black;font-family:sans-serif;font-size:13;text-anchor:middle;" transform="matrix(1 0 0 1 2043.27 322)">Semibold</text>
  <text style="stroke:none;fill:black;font-family:sans-serif;font-size:13;text-anchor:middle;" transform="matrix(1 0 0 1 2339.98 322)">Bold</text>
  <text style="stroke:none;fill:black;font-family:sans-serif;font-size:13;text-anchor:middle;" transform="matrix(1 0 0 1 2636.69 322)">Heavy</text>
  <text style="stroke:none;fill:black;font-family:sans-serif;font-size:13;text-anchor:middle;" transform="matrix(1 0 0 1 2933.4 322)">Black</text>
  <line style="fill:none;stroke:black;opacity:1;stroke-width:0.5;" x1="263" x2="3036" y1="1903" y2="1903"/>
  <g transform="matrix(1 0 0 1 263 1933)">
   <path d="M9.24805 0.830078C13.5547 0.830078 17.1387-2.74414 17.1387-7.05078C17.1387-11.3574 13.5449-14.9316 9.23828-14.9316C4.94141-14.9316 1.36719-11.3574 1.36719-7.05078C1.36719-2.74414 4.95117 0.830078 9.24805 0.830078ZM9.24805-0.654297C5.70312-0.654297 2.87109-3.49609 2.87109-7.05078C2.87109-10.6055 5.69336-13.4473 9.23828-13.4473C12.793-13.4473 15.6445-10.6055 15.6445-7.05078C15.6445-3.49609 12.8027-0.654297 9.24805-0.654297ZM5.6543-7.05078C5.6543-6.62109 5.95703-6.32812 6.40625-6.32812L8.50586-6.32812L8.50586-4.20898C8.50586-3.76953 8.79883-3.4668 9.22852-3.4668C9.67773-3.4668 9.9707-3.76953 9.9707-4.20898L9.9707-6.32812L12.0898-6.32812C12.5293-6.32812 12.832-6.62109 12.832-7.05078C12.832-7.49023 12.5293-7.79297 12.0898-7.79297L9.9707-7.79297L9.9707-9.90234C9.9707-10.3516 9.67773-10.6543 9.22852-10.6543C8.79883-10.6543 8.50586-10.3516 8.50586-9.90234L8.50586-7.79297L6.40625-7.79297C5.95703-7.79297 5.6543-7.49023 5.6543-7.05078Z"/>
  </g>
  <g transform="matrix(1 0 0 1 281.867 1933)">
   <path d="M11.709 2.91016C17.1582 2.91016 21.6699-1.61133 21.6699-7.05078C21.6699-12.5 17.1484-17.0117 11.6992-17.0117C6.25977-17.0117 1.74805-12.5 1.74805-7.05078C1.74805-1.61133 6.26953 2.91016 11.709 2.91016ZM11.709 1.25C7.09961 1.25 3.41797-2.44141 3.41797-7.05078C3.41797-11.6602 7.08984-15.3516 11.6992-15.3516C16.3086-15.3516 20.0098-11.6602 20.0098-7.05078C20.0098-2.44141 16.3184 1.25 11.709 1.25ZM7.17773-7.05078C7.17773-6.57227 7.50977-6.25 8.00781-6.25L10.8789-6.25L10.8789-3.36914C10.8789-2.88086 11.2109-2.53906 11.6895-2.53906C12.1777-2.53906 12.5195-2.87109 12.5195-3.36914L12.5195-6.25L15.4004-6.25C15.8887-6.25 16.2305-6.57227 16.2305-7.05078C16.2305-7.53906 15.8887-7.88086 15.4004-7.88086L12.5195-7.88086L12.5195-10.752C12.5195-11.25 12.1777-11.5918 11.6895-11.5918C11.2109-11.5918 10.8789-11.25 10.8789-10.752L10.8789-7.88086L8.00781-7.88086C7.50977-7.88086 7.17773-7.53906 7.17773-7.05078Z"/>
  </g>
  <g transform="matrix(1 0 0 1 305.646 1933)">
   <path d="M14.9707 5.66406C21.9336 5.66406 27.6953-0.0976562 27.6953-7.05078C27.6953-14.0137 21.9238-19.7754 14.9609-19.7754C8.00781-19.7754 2.25586-14.0137 2.25586-7.05078C2.25586-0.0976562 8.01758 5.66406 14.9707 5.66406ZM14.9707 3.84766C8.93555 3.84766 4.08203-1.01562 4.08203-7.05078C4.08203-13.0957 8.92578-17.9492 14.9609-17.9492C21.0059-17.9492 25.8691-13.0957 25.8691-7.05078C25.8691-1.01562 21.0156 3.84766 14.9707 3.84766ZM9.19922-7.05078C9.19922-6.5332 9.57031-6.17188 10.1172-6.17188L14.0625-6.17188L14.0625-2.2168C14.0625-1.67969 14.4336-1.29883 14.9512-1.29883C15.4883-1.29883 15.8594-1.66992 15.8594-2.2168L15.8594-6.17188L19.8145-6.17188C20.3516-6.17188 20.7324-6.5332 20.7324-7.05078C20.7324-7.59766 20.3613-7.96875 19.8145-7.96875L15.8594-7.96875L15.8594-11.9141C15.8594-12.4609 15.4883-12.8418 14.9512-12.8418C14.4336-12.8418 14.0625-12.4609 14.0625-11.9141L14.0625-7.96875L10.1172-7.96875C9.57031-7.96875 9.19922-7.59766 9.19922-7.05078Z"/>
  </g>
  <text style="stroke:none;fill:black;font-family:sans-serif;font-size:13;font-weight:bold;" transform="matrix(1 0 0 1 263 1953)">Design Variations</text>
  <text style="stroke:none;fill:black;font-family:sans-serif;font-size:13;" transform="matrix(1 0 0 1 263 1971)">Symbols are supported in up to nine weights and three scales.</text>
  <text style="stroke:none;fill:black;font-family:sans-serif;font-size:13;" transform="matrix(1 0 0 1 263 1989)">For optimal layout with text and other symbols, vertically align</text>
  <text style="stroke:none;fill:black;font-family:sans-serif;font-size:13;" transform="matrix(1 0 0 1 263 2007)">symbols with the adjacent text.</text>
  <line style="fill:none;stroke:#00AEEF;stroke-width:0.5;opacity:1.0;" x1="776" x2="776" y1="1919" y2="1933"/>
  <g transform="matrix(1 0 0 1 776 1933)">
   <path d="M3.31055 0.15625C3.82812 0.15625 4.08203-0.0390625 4.26758-0.585938L5.52734-4.0332L11.2891-4.0332L12.5488-0.585938C12.7344-0.0390625 12.9883 0.15625 13.4961 0.15625C14.0137 0.15625 14.3457-0.15625 14.3457-0.644531C14.3457-0.810547 14.3164-0.966797 14.2383-1.17188L9.6582-13.3691C9.43359-13.9648 9.0332-14.2676 8.4082-14.2676C7.80273-14.2676 7.39258-13.9746 7.17773-13.3789L2.59766-1.16211C2.51953-0.957031 2.49023-0.800781 2.49023-0.634766C2.49023-0.146484 2.80273 0.15625 3.31055 0.15625ZM6.00586-5.51758L8.37891-12.0898L8.42773-12.0898L10.8008-5.51758Z"/>
  </g>
  <line style="fill:none;stroke:#00AEEF;stroke-width:0.5;opacity:1.0;" x1="793.197" x2="793.197" y1="1919" y2="1933"/>
  <text style="stroke:none;fill:black;font-family:sans-serif;font-size:13;font-weight:bold;" transform="matrix(1 0 0 1 776 1953)">Margins</text>
  <text style="stroke:none;fill:black;font-family:sans-serif;font-size:13;" transform="matrix(1 0 0 1 776 1971)">Leading and trailing margins on the left and right side of each symbol</text>
  <text style="stroke:none;fill:black;font-family:sans-serif;font-size:13;" transform="matrix(1 0 0 1 776 1989)">can be adjusted by modifying the x-location of the margin guidelines.</text>
  <text style="stroke:none;fill:black;font-family:sans-serif;font-size:13;" transform="matrix(1 0 0 1 776 2007)">Modifications are automatically applied proportionally to all</text>
  <text style="stroke:none;fill:black;font-family:sans-serif;font-size:13;" transform="matrix(1 0 0 1 776 2025)">scales and weights.</text>
  <g transform="matrix(1 0 0 1 1289 1933)">
   <path d="M2.8418 1.86523L4.54102 3.57422C5.40039 4.44336 6.38672 4.38477 7.31445 3.35938L18.0078-8.42773L17.041-9.4043L6.42578 2.27539C6.07422 2.67578 5.74219 2.77344 5.27344 2.30469L4.10156 1.14258C3.63281 0.683594 3.74023 0.341797 4.14062-0.0195312L15.6152-10.8203L14.6387-11.7871L3.04688-0.898438C2.06055 0.0195312 1.98242 0.996094 2.8418 1.86523ZM9.25781-16.3281C8.83789-15.918 8.80859-15.3418 9.04297-14.9512C9.27734-14.5898 9.73633-14.3555 10.3809-14.5215C11.8457-14.8633 13.3691-14.9219 14.7949-13.9844L14.209-12.5293C13.8672-11.6992 14.043-11.1133 14.5801-10.5664L16.875-8.25195C17.3633-7.76367 17.7734-7.74414 18.3398-7.8418L19.4043-8.03711L20.0684-7.36328L20.0293-6.80664C19.9902-6.30859 20.1172-5.92773 20.6055-5.44922L21.3672-4.70703C21.8457-4.22852 22.4609-4.19922 22.9297-4.66797L25.8398-7.58789C26.3086-8.05664 26.2891-8.65234 25.8105-9.13086L25.0391-9.89258C24.5605-10.3711 24.1895-10.5273 23.7109-10.4883L23.1348-10.4395L22.4902-11.0742L22.7344-12.1973C22.8613-12.7637 22.7051-13.2031 22.1191-13.7891L19.9219-15.9766C16.582-19.2969 12.1484-19.2188 9.25781-16.3281ZM10.752-15.957C13.1836-17.7344 16.4746-17.4316 18.7012-15.2051L21.1328-12.793C21.3672-12.5586 21.4062-12.373 21.3379-12.0312L21.0156-10.5469L22.5195-9.0625L23.5059-9.12109C23.7598-9.13086 23.8379-9.11133 24.0332-8.91602L24.6094-8.33984L22.168-5.89844L21.5918-6.47461C21.3965-6.66992 21.3672-6.74805 21.377-7.01172L21.4453-7.98828L19.9512-9.47266L18.4277-9.21875C18.1055-9.15039 17.959-9.17969 17.7148-9.41406L15.7129-11.416C15.459-11.6504 15.4297-11.8164 15.5859-12.1875L16.4648-14.2773C14.9023-15.7324 12.8711-16.3574 10.8398-15.7617C10.6836-15.7227 10.625-15.8496 10.752-15.957Z"/>
  </g>
  <text style="stroke:none;fill:black;font-family:sans-serif;font-size:13;font-weight:bold;" transform="matrix(1 0 0 1 1289 1953)">Exporting</text>
  <text style="stroke:none;fill:black;font-family:sans-serif;font-size:13;" transform="matrix(1 0 0 1 1289 1971)">Symbols should be outlined when exporting to ensure the</text>
  <text style="stroke:none;fill:black;font-family:sans-serif;font-size:13;" transform="matrix(1 0 0 1 1289 1989)">design is preserved when submitting to Xcode.</text>
  <text id="template-version" style="stroke:none;fill:black;font-family:sans-serif;font-size:13;text-anchor:end;" transform="matrix(1 0 0 1 3036 1933)">Template v.4.0</text>
  <text style="stroke:none;fill:black;font-family:sans-serif;font-size:13;text-anchor:end;" transform="matrix(1 0 0 1 3036 1951)">Requires Xcode 14 or greater</text>
  <text id="descriptive-name" style="stroke:none;fill:black;font-family:sans-serif;font-size:13;text-anchor:end;" transform="matrix(1 0 0 1 3036 1969)">Generated from wrench.adjustable</text>
  <text style="stroke:none;fill:black;font-family:sans-serif;font-size:13;text-anchor:end;" transform="matrix(1 0 0 1 3036 1987)">Typeset at 100 points</text>
  <text style="stroke:none;fill:black;font-family:sans-serif;font-size:13;" transform="matrix(1 0 0 1 263 726)">Small</text>
  <text style="stroke:none;fill:black;font-family:sans-serif;font-size:13;" transform="matrix(1 0 0 1 263 1156)">Medium</text>
  <text style="stroke:none;fill:black;font-family:sans-serif;font-size:13;" transform="matrix(1 0 0 1 263 1586)">Large</text>
 </g>
 <g id="Guides">
  <g id="H-reference" style="fill:#27AAE1;stroke:none;" transform="matrix(1 0 0 1 339 696)">
   <path d="M0.993654 0L3.63775 0L29.3281-67.1323L30.0303-67.1323L30.0303-70.459L28.1226-70.459ZM11.6885-24.4799L46.9815-24.4799L46.2315-26.7285L12.4385-26.7285ZM55.1196 0L57.7637 0L30.6382-70.459L29.4326-70.459L29.4326-67.1323Z"/>
  </g>
  <line id="Baseline-S" style="fill:none;stroke:#27AAE1;opacity:1;stroke-width:0.5;" x1="263" x2="3036" y1="696" y2="696"/>
  <line id="Capline-S" style="fill:none;stroke:#27AAE1;opacity:1;stroke-width:0.5;" x1="263" x2="3036" y1="625.541" y2="625.541"/>
  <g id="H-reference" style="fill:#27AAE1;stroke:none;" transform="matrix(1 0 0 1 339 1126)">
   <path d="M0.993654 0L3.63775 0L29.3281-67.1323L30.0303-67.1323L30.0303-70.459L28.1226-70.459ZM11.6885-24.4799L46.9815-24.4799L46.2315-26.7285L12.4385-26.7285ZM55.1196 0L57.7637 0L30.6382-70.459L29.4326-70.459L29.4326-67.1323Z"/>
  </g>
  <line id="Baseline-M" style="fill:none;stroke:#27AAE1;opacity:1;stroke-width:0.5;" x1="263" x2="3036" y1="1126" y2="1126"/>
  <line id="Capline-M" style="fill:none;stroke:#27AAE1;opacity:1;stroke-width:0.5;" x1="263" x2="3036" y1="1055.54" y2="1055.54"/>
  <g id="H-reference" style="fill:#27AAE1;stroke:none;" transform="matrix(1 0 0 1 339 1556)">
   <path d="M0.993654 0L3.63775 0L29.3281-67.1323L30.0303-67.1323L30.0303-70.459L28.1226-70.459ZM11.6885-24.4799L46.9815-24.4799L46.2315-26.7285L12.4385-26.7285ZM55.1196 0L57.7637 0L30.6382-70.459L29.4326-70.459L29.4326-67.1323Z"/>
  </g>
  <line id="Baseline-L" style="fill:none;stroke:#27AAE1;opacity:1;stroke-width:0.5;" x1="263" x2="3036" y1="1556" y2="1556"/>
  <line id="Capline-L" style="fill:none;stroke:#27AAE1;opacity:1;stroke-width:0.5;" x1="263" x2="3036" y1="1485.54" y2="1485.54"/>
  <line id="left-margin-Ultralight-S" style="fill:none;stroke:#00AEEF;stroke-width:0.5;opacity:1.0;" x1="507.441" x2="507.441" y1="600.785" y2="720.121"/>
  <line id="right-margin-Ultralight-S" style="fill:none;stroke:#00AEEF;stroke-width:0.5;opacity:1.0;" x1="611.981" x2="611.981" y1="600.785" y2="720.121"/>
  <line id="left-margin-Regular-S" style="fill:none;stroke:#00AEEF;stroke-width:0.5;opacity:1.0;" x1="1396.28" x2="1396.28" y1="600.785" y2="720.121"/>
  <line id="right-margin-Regular-S" style="fill:none;stroke:#00AEEF;stroke-width:0.5;opacity:1.0;" x1="1503.41" x2="1503.41" y1="600.785" y2="720.121"/>
  <line id="left-margin-Black-S" style="fill:none;stroke:#00AEEF;stroke-width:0.5;opacity:1.0;" x1="2875.27" x2="2875.27" y1="600.785" y2="720.121"/>
  <line id="right-margin-Black-S" style="fill:none;stroke:#00AEEF;stroke-width:0.5;opacity:1.0;" x1="2991.53" x2="2991.53" y1="600.785" y2="720.121"/>
 </g>
 <g id="Symbols">
  <g id="Black-S" transform="matrix(1 0 0 1 2875.27 696)">
   <path class="monochrome-0 SFSymbolsPreview000000" d="M14.6973 8.25195C22.6562 16.1621 34.4238 16.3086 42.2852 7.32422C49.8535-1.31836 57.6172-16.3086 68.8477-27.5391C74.9512-33.6426 82.0801-29.4922 92.7734-34.082C103.027-38.4766 109.814-50.1953 106.689-62.0605L89.209-57.2754C88.1348-56.9824 87.5-57.5195 87.207-58.4961L86.0352-62.5977C85.7422-63.5742 86.084-64.3555 87.1582-64.6484L104.98-69.5312C104.248-72.2656 102.686-76.1719 99.8535-79.0527C89.502-89.5508 72.0703-90.0391 61.5234-79.9805C46.1914-65.3809 56.2988-51.8555 49.6094-45.2148C39.209-34.8633 24.1211-26.9531 15.5273-19.3359C6.5918-11.4258 6.73828 0.341797 14.6973 8.25195ZM22.168 0.830078C18.5547-2.88086 18.6035-8.1543 22.9004-11.9629C31.0547-19.1406 47.2168-27.8809 57.0801-37.7441C68.5059-49.1699 56.8848-61.3281 68.9941-72.4609C75.6348-78.5645 87.6465-77.9297 94.043-70.6055L98.291-77.9785L84.0332-74.2188C77.0996-72.4121 74.0234-66.7969 76.0742-59.7168L77.1973-55.8594C79.3457-48.4375 83.8867-45.5078 90.5762-47.3145L105.664-51.3672L97.8516-55.2246C97.0703-51.8555 95.459-48.9746 93.1152-46.6797C84.2285-37.9883 72.6074-46.1914 61.377-35.0098C50.7324-24.4141 42.0898-8.1543 34.9121 0.0488281C31.0547 4.44336 25.7324 4.49219 22.168 0.830078ZM28.3691-1.75781C30.4199-1.75781 32.0312-3.41797 32.0312-5.41992C32.0312-7.42188 30.4199-9.08203 28.3691-9.08203C26.3672-9.08203 24.707-7.42188 24.707-5.41992C24.707-3.41797 26.3672-1.75781 28.3691-1.75781ZM83.0566-33.9844L89.8926-35.9863L84.0332-57.8613L77.1973-55.8594ZM66.1621-52.6367L73.6328-54.6387C74.3652-54.834 74.8047-55.5176 74.5605-56.2988C74.3164-57.0312 73.6328-57.373 72.998-57.2266L65.4297-55.2246C64.6973-55.0293 64.3066-54.2969 64.4531-53.6133C64.5996-52.832 65.3809-52.4414 66.1621-52.6367ZM67.0898-48.8281L74.5605-50.8301C75.293-51.0254 75.7324-51.709 75.4883-52.4902C75.2441-53.2227 74.5605-53.5645 73.9258-53.418L66.3574-51.416C65.625-51.2207 65.2344-50.4883 65.4297-49.8047C65.6738-49.0234 66.3086-48.6328 67.0898-48.8281ZM68.0176-45.0195L75.5859-47.0703C76.2695-47.2656 76.709-47.998 76.5137-48.7305C76.3184-49.4141 75.6348-49.8047 74.9023-49.6094L67.334-47.6074C66.6504-47.4121 66.2598-46.7285 66.3574-45.9961C66.4551-45.2148 67.334-44.8242 68.0176-45.0195Z"/>
  </g>
  <g id="Regular-S" transform="matrix(1 0 0 1 1396.28 696)">
   <path class="monochrome-0 SFSymbolsPreview000000" d="M13.5742 5.56641C20.0195 12.0117 29.4434 12.1094 35.9375 4.6875C42.8711-3.22266 50.7324-18.0664 61.6699-29.0039C70.0195-37.3535 80.0781-29.4922 91.6504-40.4785C96.582-45.166 99.2188-51.8555 98.0469-56.6406L82.959-52.4902C80.8594-51.9531 79.1992-53.3691 78.4668-55.9082L77.3438-59.7168C76.6113-62.2559 77.5879-64.3066 79.6875-64.8926L94.7266-68.9453C94.3359-70.4102 92.9199-72.4121 91.2109-74.1699C82.2266-83.4473 67.2363-83.2031 58.5938-75C45.7031-62.793 55.3223-49.9023 47.2656-41.8457C37.1582-31.7383 22.3145-23.7305 14.4043-16.7969C6.98242-10.3027 7.12891-0.878906 13.5742 5.56641ZM17.6758 1.46484C13.6719-2.63672 13.6719-8.69141 18.4082-12.793C26.2695-19.6777 42.1387-28.5156 51.3672-37.7441C61.2305-47.6074 50.4883-59.6191 62.793-70.8984C69.043-76.709 80.3711-76.9531 87.5-70.3125L88.9648-72.8516L78.5156-70.1172C72.7539-68.6035 70.2148-64.1602 71.9238-58.1543L72.998-54.4434C74.9512-47.7539 78.8086-45.8984 84.0332-47.3145L94.873-50.2441L92.2852-51.5625C91.4551-48.8281 89.9414-46.2891 87.793-44.1895C78.5156-35.1074 67.4316-42.9199 57.5684-33.1055C47.5586-23.1445 38.8184-7.17773 31.9336 0.732422C27.7344 5.56641 21.6797 5.56641 17.6758 1.46484ZM24.6582-0.634766C27.2949-0.634766 29.4922-2.7832 29.4922-5.46875C29.4922-8.10547 27.2949-10.3027 24.6582-10.3027C21.9727-10.3027 19.7754-8.10547 19.7754-5.46875C19.7754-2.7832 21.9727-0.634766 24.6582-0.634766ZM77.6367-37.207L81.3965-38.0371L76.7578-55.2246L72.998-54.4434ZM60.9375-51.6602L69.1895-53.8574C69.9707-54.0527 70.4102-54.834 70.2148-55.6641C70.0195-56.4453 69.1895-56.8848 68.457-56.6895L60.1562-54.4434C59.375-54.248 58.9355-53.418 59.1309-52.7344C59.375-51.8555 60.1074-51.416 60.9375-51.6602ZM61.9629-47.4609L70.2148-49.6582C70.9961-49.8535 71.4355-50.6348 71.2402-51.4648C71.0449-52.2461 70.2148-52.6855 69.4824-52.4902L61.1816-50.2441C60.4004-50.0488 59.9609-49.2188 60.1562-48.5352C60.4004-47.6562 61.1328-47.2168 61.9629-47.4609ZM62.9883-43.2617L71.3379-45.5078C72.0703-45.7031 72.5098-46.4844 72.3145-47.3145C72.1191-48.0469 71.3867-48.5352 70.5566-48.291L62.2559-46.0449C61.5234-45.8496 61.084-45.0684 61.2305-44.2871C61.377-43.457 62.207-43.0664 62.9883-43.2617Z"/>
  </g>
  <g id="Ultralight-S" transform="matrix(1 0 0 1 507.441 696)">
   <path class="monochrome-0 SFSymbolsPreview000000" d="M13.0747 6.20214C18.7935 11.9663 27.0366 12.0186 32.9405 5.32324C39.7378-2.35987 48.4619-18.1118 59.5811-29.231C68.9297-38.625 76.9903-28.4024 89.5615-40.6602C93.3125-44.3486 95.5406-49.4487 95.731-53.7798L82.6865-50.2652C78.6343-49.1831 76.6563-51.3711 75.7876-54.4097L74.5283-58.5816C73.6597-61.6201 74.3184-64.4883 78.3706-65.5737L91.3662-69.0815C90.794-70.0015 90.0137-70.959 89.0767-71.9448C80.9097-80.0869 67.1455-80.5239 58.957-72.7295C46.793-61.1128 56.8662-48.7671 46.9023-38.8487C37.3398-29.2862 21.6333-20.4156 13.9048-13.709C7.20947-7.85061 7.26514 0.437978 13.0747 6.20214ZM14.6333 4.55271C9.94827-0.229999 9.99368-7.41993 15.4112-12.1572C23.5449-19.1782 40.1861-28.9243 48.461-37.2446C58.5967-47.335 49.3984-60.8906 60.4771-71.1709C68.6797-78.7978 82.2783-77.3618 88.5444-69.3589L89.0103-70.5357L77.8799-67.6196C73.0264-66.333 71.0776-62.8887 72.5142-57.8364L73.5884-54.0801C75.1328-48.6167 78.6724-46.9883 83.2158-48.2226L94.3735-51.334L93.375-52.1528C92.9082-49.146 91.6216-45.29 87.8838-41.6465C77.1987-31.2476 67.2954-40.2407 57.9316-30.8804C48.1035-21.0557 38.5459-4.27151 31.4341 3.82029C26.5537 9.38083 19.3638 9.38083 14.6333 4.55271ZM22.8418 0.636709C25.1607 0.636709 26.9946-1.19386 26.9946-3.56154C26.9946-5.88039 25.1607-7.75979 22.8418-7.75979C20.4741-7.75979 18.5947-5.88039 18.5947-3.56154C18.5947-1.19386 20.4741 0.636709 22.8418 0.636709ZM78.9536-35.6631L81.0332-36.1299L75.668-54.4072L73.5884-54.0801ZM60.4834-50.8882L68.5083-53.04C69.0171-53.1899 69.3203-53.6987 69.1704-54.2109C69.0205-54.7651 68.5537-55.0684 68.0029-54.9185L59.9746-52.7632C59.4204-52.6133 59.1172-52.0557 59.2671-51.5537C59.4204-51.0381 59.9258-50.7349 60.4834-50.8882ZM61.4634-46.5982L69.4429-48.75C69.9971-48.8999 70.3003-49.4087 70.1504-49.9209C70.0005-50.4751 69.5337-50.7783 68.9829-50.6284L60.9546-48.4732C60.4004-48.3233 60.0972-47.7656 60.2471-47.2637C60.4004-46.7481 60.9058-46.4448 61.4634-46.5982ZM62.4434-42.3081L70.4297-44.418C70.9805-44.5679 71.2837-45.1221 71.1338-45.6343C70.9839-46.1851 70.4785-46.4917 69.9663-46.3384L61.938-44.1831C61.3872-44.0332 61.084-43.479 61.2305-42.9702C61.377-42.458 61.8892-42.1582 62.4434-42.3081Z"/>
  </g>
 </g>
</svg>
