<?xml version="1.0" encoding="UTF-8"?>
<!-- Generator: CustomSymbols v2.6.2.41 by @serious_bret https://bretlester.com/app_content/CustomSymbols/ -->
<!-- Guides: Left/Right 0.004/0.0019999999050050975 Cap/Base 0.169/0.165 -->
<!-- Settings: RefScale 0.5 Min/Max Stroke Scales 2.2/5.0 -->
<!DOCTYPE svg
PUBLIC "-//W3C//DTD SVG 1.1//EN"
       "http://www.w3.org/Graphics/SVG/1.1/DTD/svg11.dtd">
<svg version="1.1" xmlns="http://www.w3.org/2000/svg" xmlns:xlink="http://www.w3.org/1999/xlink" width="3300" height="2200">
<![CDATA[<?xml version="1.0" encoding="UTF-8" standalone="no"?>
<!--Generator: Apple Native CoreSVG 175.5-->

<svg
   version="1.1"
   width="65.039062"
   height="82.324219"
   id="svg122"
   xmlns="http://www.w3.org/2000/svg"
   xmlns:svg="http://www.w3.org/2000/svg">
  <defs
     id="defs126" />
  <!--glyph: "uni100246.medium", point size: 100.0, font version: "18.0d11e1", template writer version: "90"-->
  <g
     id="Regular-S-7"
     transform="matrix(0.51670234,0,0,0.51670234,23.032629,81.405314)">
    <g
       id="g3516">
      <path
         id="path115"
         d="m 22.022031,-76.416016 c -8.203092,0 -12.2558591,4.150381 -12.2558591,12.451172 v 57.4218752 c 0,8.3496017 4.0527671,12.4511719 12.2558591,12.4511719 h 13.820313 v -7.03125 H 22.412656 c -3.710896,0 -5.615234,-2.0019616 -5.615234,-5.5175781 v -57.226563 c 0,-3.515596 1.904338,-5.517578 5.615234,-5.517578 H 62.15875 c 3.662096,0 5.566406,2.001982 5.566406,5.517578 v 29.523438 h 7.080078 v -29.621094 c 0,-8.300791 -4.101595,-12.451172 -12.304687,-12.451172 z m 6.103516,17.919922 c -1.562499,0 -2.685547,1.123092 -2.685547,2.587891 0,1.513698 1.123048,2.685547 2.685547,2.685547 h 28.369141 c 1.513698,0 2.636718,-1.171849 2.636718,-2.685547 0,-1.464799 -1.12302,-2.587891 -2.636718,-2.587891 z m 0,13.28125 c -1.562499,0 -2.685547,1.171892 -2.685547,2.587891 0,1.513698 1.123048,2.734375 2.685547,2.734375 h 28.369141 c 1.513698,0 2.636718,-1.220677 2.636718,-2.734375 0,-1.415999 -1.12302,-2.587891 -2.636718,-2.587891 z m 0,13.330078 c -1.562499,0 -2.685547,1.171849 -2.685547,2.685547 0,1.464799 1.123048,2.587891 2.685547,2.587891 h 7.716797 v -5.273438 z"
         transform="matrix(1.9353502,0,0,1.9353502,-63.477166,-9.656043)" />
      <path
         d="m 23.3887,-35.6934 c 8.5449,0 13.6718,-6.8359 13.6718,-17.7734 0,-10.9863 -5.1757,-17.7246 -13.6718,-17.7246 -8.4473,0 -13.62308,6.7871 -13.62308,17.7246 0,10.9863 5.12698,17.7734 13.62308,17.7734 z m 0,-6.1035 c -4.1504,0 -6.543,-4.248 -6.543,-11.6699 0,-7.373 2.4414,-11.6211 6.543,-11.6211 4.1015,0 6.5918,4.1992 6.5918,11.6211 0,7.4219 -2.4414,11.6699 -6.5918,11.6699 z M 67.5293,0.732422 c 8.4961,0 13.623,-6.884762 13.623,-17.822222 0,-10.9864 -5.1757,-17.6758 -13.623,-17.6758 -8.4473,0 -13.6231,6.7383 -13.6231,17.6758 0,10.98628 5.127,17.822222 13.6231,17.822222 z m 0,-6.103512 c -4.1504,0 -6.543,-4.24805 -6.543,-11.71871 0,-7.3243 2.4414,-11.5723 6.543,-11.5723 4.1016,0 6.543,4.1992 6.543,11.5723 0,7.47066 -2.3926,11.71871 -6.543,11.71871 z M 20.5078,0.878906 c 1.6113,0.927734 4.0039,0.781254 5.4199,-1.220703 L 71.2402,-66.0645 c 1.5625,-2.1972 0.6348,-4.4433 -1.0254,-5.4199 -1.5136,-0.8301 -3.6621,-0.6347 -5.2246,1.5625 L 19.6777,-4.44336 c -1.6113,2.29492 -0.7812,4.3457038 0.8301,5.322266 z"
         id="path919" />
    </g>
  </g>
</svg>
]]>
 <g id="Notes">
  <rect height="2200" id="artboard" style="fill:white;opacity:1" width="3300" x="0" y="0"/>
  <line id="" style="fill:none;stroke:black;opacity:1;stroke-width:0.5;" x1="263" x2="3036" y1="292" y2="292"/>
  <text id="reftext1" style="stroke:none;fill:black;font-family:-apple-system,&quot;SF Pro Display&quot;,&quot;SF Pro Text&quot;,Helvetica,sans-serif;font-weight:bold;" transform="matrix(1 0 0 1 263 322)">Weight/Scale Variations</text>
  <text id="reftext2" style="stroke:none;fill:black;font-family:-apple-system,&quot;SF Pro Display&quot;,&quot;SF Pro Text&quot;,Helvetica,sans-serif;text-anchor:middle;" transform="matrix(1 0 0 1 559.711 322)">Ultralight</text>
  <text style="stroke:none;fill:black;font-family:-apple-system,&quot;SF Pro Display&quot;,&quot;SF Pro Text&quot;,Helvetica,sans-serif;text-anchor:middle;" transform="matrix(1 0 0 1 856.422 322)">Thin</text>
  <text style="stroke:none;fill:black;font-family:-apple-system,&quot;SF Pro Display&quot;,&quot;SF Pro Text&quot;,Helvetica,sans-serif;text-anchor:middle;" transform="matrix(1 0 0 1 1153.13 322)">Light</text>
  <text style="stroke:none;fill:black;font-family:-apple-system,&quot;SF Pro Display&quot;,&quot;SF Pro Text&quot;,Helvetica,sans-serif;text-anchor:middle;" transform="matrix(1 0 0 1 1449.84 322)">Regular</text>
  <text style="stroke:none;fill:black;font-family:-apple-system,&quot;SF Pro Display&quot;,&quot;SF Pro Text&quot;,Helvetica,sans-serif;text-anchor:middle;" transform="matrix(1 0 0 1 1746.56 322)">Medium</text>
  <text style="stroke:none;fill:black;font-family:-apple-system,&quot;SF Pro Display&quot;,&quot;SF Pro Text&quot;,Helvetica,sans-serif;text-anchor:middle;" transform="matrix(1 0 0 1 2043.27 322)">Semibold</text>
  <text style="stroke:none;fill:black;font-family:-apple-system,&quot;SF Pro Display&quot;,&quot;SF Pro Text&quot;,Helvetica,sans-serif;text-anchor:middle;" transform="matrix(1 0 0 1 2339.98 322)">Bold</text>
  <text style="stroke:none;fill:black;font-family:-apple-system,&quot;SF Pro Display&quot;,&quot;SF Pro Text&quot;,Helvetica,sans-serif;text-anchor:middle;" transform="matrix(1 0 0 1 2636.69 322)">Heavy</text>
  <text style="stroke:none;fill:black;font-family:-apple-system,&quot;SF Pro Display&quot;,&quot;SF Pro Text&quot;,Helvetica,sans-serif;text-anchor:middle;" transform="matrix(1 0 0 1 2933.4 322)">Black</text>
  <line id="" style="fill:none;stroke:black;opacity:1;stroke-width:0.5;" x1="263" x2="3036" y1="1903" y2="1903"/>
  <g id="" transform="matrix(1 0 0 1 263 1933)">
   <path d="M9.24805 0.830078C13.5547 0.830078 17.1387-2.74414 17.1387-7.05078C17.1387-11.3574 13.5449-14.9316 9.23828-14.9316C4.94141-14.9316 1.36719-11.3574 1.36719-7.05078C1.36719-2.74414 4.95117 0.830078 9.24805 0.830078ZM9.24805-0.654297C5.70312-0.654297 2.87109-3.49609 2.87109-7.05078C2.87109-10.6055 5.69336-13.4473 9.23828-13.4473C12.793-13.4473 15.6348-10.6055 15.6445-7.05078C15.6543-3.49609 12.8027-0.654297 9.24805-0.654297ZM6.39648-6.31836L8.50586-6.31836L8.50586-4.19922C8.50586-3.75977 8.79883-3.45703 9.22852-3.45703C9.67773-3.45703 9.9707-3.75977 9.9707-4.19922L9.9707-6.31836L12.0996-6.31836C12.5391-6.31836 12.8418-6.61133 12.8418-7.04102C12.8418-7.48047 12.5391-7.7832 12.0996-7.7832L9.9707-7.7832L9.9707-9.89258C9.9707-10.3418 9.67773-10.6445 9.22852-10.6445C8.79883-10.6445 8.50586-10.3418 8.50586-9.89258L8.50586-7.7832L6.39648-7.7832C5.94727-7.7832 5.64453-7.48047 5.64453-7.04102C5.64453-6.61133 5.94727-6.31836 6.39648-6.31836Z"/>
  </g>
  <g id="" transform="matrix(1 0 0 1 281.506 1933)">
   <path d="M11.709 2.91016C17.1582 2.91016 21.6699-1.61133 21.6699-7.05078C21.6699-12.5 17.1484-17.0117 11.6992-17.0117C6.25977-17.0117 1.74805-12.5 1.74805-7.05078C1.74805-1.61133 6.26953 2.91016 11.709 2.91016ZM11.709 1.25C7.09961 1.25 3.41797-2.44141 3.41797-7.05078C3.41797-11.6602 7.08984-15.3516 11.6992-15.3516C16.3086-15.3516 20-11.6602 20.0098-7.05078C20.0195-2.44141 16.3184 1.25 11.709 1.25ZM7.98828-6.23047L10.8789-6.23047L10.8789-3.32031C10.8789-2.83203 11.2109-2.5 11.6895-2.5C12.1777-2.5 12.5195-2.83203 12.5195-3.32031L12.5195-6.23047L15.4297-6.23047C15.918-6.23047 16.25-6.5625 16.25-7.04102C16.25-7.5293 15.918-7.87109 15.4297-7.87109L12.5195-7.87109L12.5195-10.7617C12.5195-11.2695 12.1777-11.6016 11.6895-11.6016C11.2109-11.6016 10.8789-11.2598 10.8789-10.7617L10.8789-7.87109L7.98828-7.87109C7.48047-7.87109 7.14844-7.5293 7.14844-7.04102C7.14844-6.5625 7.49023-6.23047 7.98828-6.23047Z"/>
  </g>
  <g id="" transform="matrix(1 0 0 1 304.924 1933)">
   <path d="M14.9707 5.66406C21.9336 5.66406 27.6953-0.0976562 27.6953-7.05078C27.6953-14.0137 21.9238-19.7754 14.9609-19.7754C8.00781-19.7754 2.25586-14.0137 2.25586-7.05078C2.25586-0.0976562 8.01758 5.66406 14.9707 5.66406ZM14.9707 3.84766C8.93555 3.84766 4.08203-1.01562 4.08203-7.05078C4.08203-13.0957 8.92578-17.9492 14.9609-17.9492C21.0059-17.9492 25.8594-13.0957 25.8691-7.05078C25.8789-1.01562 21.0156 3.84766 14.9707 3.84766ZM10.0586-6.14258L14.0625-6.14258L14.0625-2.12891C14.0625-1.5918 14.4336-1.2207 14.9512-1.2207C15.4883-1.2207 15.8594-1.5918 15.8594-2.12891L15.8594-6.14258L19.8828-6.14258C20.4102-6.14258 20.791-6.51367 20.791-7.03125C20.791-7.56836 20.4199-7.94922 19.8828-7.94922L15.8594-7.94922L15.8594-11.9531C15.8594-12.5098 15.4883-12.8809 14.9512-12.8809C14.4336-12.8809 14.0625-12.5 14.0625-11.9531L14.0625-7.94922L10.0586-7.94922C9.50195-7.94922 9.13086-7.56836 9.13086-7.03125C9.13086-6.51367 9.51172-6.14258 10.0586-6.14258Z"/>
  </g>
  <text style="stroke:none;fill:black;font-family:-apple-system,&quot;SF Pro Display&quot;,&quot;SF Pro Text&quot;,Helvetica,sans-serif;font-weight:bold;" transform="matrix(1 0 0 1 263 1953)">Design Variations</text>
  <text style="stroke:none;fill:black;font-family:-apple-system,&quot;SF Pro Display&quot;,&quot;SF Pro Text&quot;,Helvetica,sans-serif;" transform="matrix(1 0 0 1 263 1971)">Symbols are supported in up to nine weights and three scales.</text>
  <text style="stroke:none;fill:black;font-family:-apple-system,&quot;SF Pro Display&quot;,&quot;SF Pro Text&quot;,Helvetica,sans-serif;" transform="matrix(1 0 0 1 263 1989)">For optimal layout with text and other symbols, vertically align</text>
  <text style="stroke:none;fill:black;font-family:-apple-system,&quot;SF Pro Display&quot;,&quot;SF Pro Text&quot;,Helvetica,sans-serif;" transform="matrix(1 0 0 1 263 2007)">symbols with the adjacent text.</text>
  <line id="" style="fill:none;stroke:#00AEEF;stroke-width:0.5;opacity:1.0;" x1="776" x2="776" y1="1919" y2="1933"/>
  <g id="" transform="matrix(1 0 0 1 776 1933)">
   <path d="M3.31055 0.126953C3.82812 0.126953 4.08203-0.0683594 4.26758-0.605469L5.52734-4.0625L11.2891-4.0625L12.5488-0.605469C12.7344-0.0683594 12.9883 0.126953 13.4961 0.126953C14.0137 0.126953 14.3457-0.185547 14.3457-0.673828C14.3457-0.839844 14.3164-0.986328 14.2383-1.20117L9.6582-13.3887C9.43359-13.9941 9.0332-14.2871 8.4082-14.2871C7.80273-14.2871 7.39258-13.9941 7.17773-13.3984L2.59766-1.19141C2.51953-0.976562 2.49023-0.830078 2.49023-0.664062C2.49023-0.175781 2.80273 0.126953 3.31055 0.126953ZM6.00586-5.53711L8.37891-12.1094L8.42773-12.1094L10.8008-5.53711Z"/>
  </g>
  <line id="" style="fill:none;stroke:#00AEEF;stroke-width:0.5;opacity:1.0;" x1="792.836" x2="792.836" y1="1919" y2="1933"/>
  <text style="stroke:none;fill:black;font-family:-apple-system,&quot;SF Pro Display&quot;,&quot;SF Pro Text&quot;,Helvetica,sans-serif;font-weight:bold;" transform="matrix(1 0 0 1 776 1953)">Margins</text>
  <text style="stroke:none;fill:black;font-family:-apple-system,&quot;SF Pro Display&quot;,&quot;SF Pro Text&quot;,Helvetica,sans-serif;" transform="matrix(1 0 0 1 776 1971)">Leading and trailing margins on the left and right side of each symbol</text>
  <text style="stroke:none;fill:black;font-family:-apple-system,&quot;SF Pro Display&quot;,&quot;SF Pro Text&quot;,Helvetica,sans-serif;" transform="matrix(1 0 0 1 776 1989)">can be adjusted by modifying the x-location of the margin guidelines.</text>
  <text style="stroke:none;fill:black;font-family:-apple-system,&quot;SF Pro Display&quot;,&quot;SF Pro Text&quot;,Helvetica,sans-serif;" transform="matrix(1 0 0 1 776 2007)">Modifications are automatically applied proportionally to all</text>
  <text style="stroke:none;fill:black;font-family:-apple-system,&quot;SF Pro Display&quot;,&quot;SF Pro Text&quot;,Helvetica,sans-serif;" transform="matrix(1 0 0 1 776 2025)">scales and weights.</text>
  <g id="" transform="matrix(1 0 0 1 1289 1933)">
   <path d="M2.8418 1.86523L4.54102 3.57422C5.40039 4.44336 6.38672 4.38477 7.31445 3.35938L17.4902-7.85156C17.7539-7.76367 18.0273-7.7832 18.3398-7.8418L19.4043-8.03711L20.0684-7.36328L20.0293-6.80664C19.9902-6.30859 20.1172-5.92773 20.6055-5.44922L21.3672-4.70703C21.8457-4.22852 22.4609-4.19922 22.9297-4.66797L25.8398-7.58789C26.3086-8.05664 26.2891-8.65234 25.8105-9.13086L25.0391-9.89258C24.5605-10.3711 24.1895-10.5273 23.7109-10.4883L23.1348-10.4395L22.4902-11.0742L22.7344-12.1973C22.8613-12.7637 22.7051-13.2031 22.1191-13.7891L19.9219-15.9766C16.582-19.2969 12.1484-19.2188 9.25781-16.3281C8.83789-15.918 8.80859-15.3418 9.04297-14.9512C9.27734-14.5898 9.73633-14.3555 10.3809-14.5215C11.8457-14.8633 13.3691-14.9219 14.7949-13.9844L14.209-12.5293C14.0137-12.0508 13.9844-11.6504 14.1113-11.2891L3.04688-0.898438C2.06055 0.0195312 1.98242 0.996094 2.8418 1.86523ZM10.752-15.957C13.1836-17.7344 16.4746-17.4316 18.7012-15.2051L21.1328-12.793C21.3672-12.5586 21.4062-12.373 21.3379-12.0312L21.0156-10.5469L22.5195-9.0625L23.5059-9.12109C23.7598-9.13086 23.8379-9.11133 24.0332-8.91602L24.6094-8.33984L22.168-5.89844L21.5918-6.47461C21.3965-6.66992 21.3672-6.74805 21.377-7.01172L21.4453-7.98828L19.9512-9.47266L18.4277-9.21875C18.1055-9.15039 17.959-9.17969 17.7148-9.41406L15.7129-11.416C15.459-11.6504 15.4297-11.8164 15.5859-12.1875L16.4648-14.2773C14.9023-15.7324 12.8711-16.3574 10.8398-15.7617C10.6836-15.7227 10.625-15.8496 10.752-15.957ZM5.27344 2.30469L4.10156 1.14258C3.63281 0.683594 3.74023 0.341797 4.14062-0.0195312L14.9512-10.1953L16.416-8.71094L6.42578 2.27539C6.07422 2.67578 5.74219 2.77344 5.27344 2.30469Z"/>
  </g>
  <text style="stroke:none;fill:black;font-family:-apple-system,&quot;SF Pro Display&quot;,&quot;SF Pro Text&quot;,Helvetica,sans-serif;font-weight:bold;" transform="matrix(1 0 0 1 1289 1953)">Exporting</text>
  <text style="stroke:none;fill:black;font-family:-apple-system,&quot;SF Pro Display&quot;,&quot;SF Pro Text&quot;,Helvetica,sans-serif;" transform="matrix(1 0 0 1 1289 1971)">Symbols should be outlined when exporting to ensure the</text>
  <text style="stroke:none;fill:black;font-family:-apple-system,&quot;SF Pro Display&quot;,&quot;SF Pro Text&quot;,Helvetica,sans-serif;" transform="matrix(1 0 0 1 1289 1989)">design is preserved when submitting to Xcode.</text>
  <text id="template-version" style="stroke:none;fill:black;font-family:-apple-system,&quot;SF Pro Display&quot;,&quot;SF Pro Text&quot;,Helvetica,sans-serif;text-anchor:end;" transform="matrix(1 0 0 1 3036 1933)">Template v.2.0</text>
  <text style="stroke:none;fill:black;font-family:-apple-system,&quot;SF Pro Display&quot;,&quot;SF Pro Text&quot;,Helvetica,sans-serif;text-anchor:end;" transform="matrix(1 0 0 1 3036 1951)">Requires Xcode 12 or greater</text>
  <text style="stroke:none;fill:black;font-family:-apple-system,&quot;SF Pro Display&quot;,&quot;SF Pro Text&quot;,Helvetica,sans-serif;" transform="matrix(1 0 0 1 263 726)">Small</text>
  <text style="stroke:none;fill:black;font-family:-apple-system,&quot;SF Pro Display&quot;,&quot;SF Pro Text&quot;,Helvetica,sans-serif;" transform="matrix(1 0 0 1 263 1156)">Medium</text>
  <text style="stroke:none;fill:black;font-family:-apple-system,&quot;SF Pro Display&quot;,&quot;SF Pro Text&quot;,Helvetica,sans-serif;" transform="matrix(1 0 0 1 263 1586)">Large</text>
 </g>
 <g id="Guides">
  <g id="H-reference" style="fill:#27AAE1;stroke:none;" transform="matrix(1 0 0 1 339 696)">
   <path d="M0.976562 0L3.66211 0L12.9883-24.4629L45.752-24.4629L55.127 0L57.7637 0L30.6152-70.459L28.125-70.459ZM29.3457-67.1387L29.4434-67.1387L44.873-26.709L13.8672-26.709Z"/>
  </g>
  <line id="Baseline-S" style="fill:none;stroke:#27AAE1;opacity:1;stroke-width:0.5;" x1="263" x2="3036" y1="696" y2="696"/>
  <line id="Capline-S" style="fill:none;stroke:#27AAE1;opacity:1;stroke-width:0.5;" x1="263" x2="3036" y1="625.541" y2="625.541"/>
  <g id="H-reference" style="fill:#27AAE1;stroke:none;" transform="matrix(1 0 0 1 339 1126)">
   <path d="M0.976562 0L3.66211 0L12.9883-24.4629L45.752-24.4629L55.127 0L57.7637 0L30.6152-70.459L28.125-70.459ZM29.3457-67.1387L29.4434-67.1387L44.873-26.709L13.8672-26.709Z"/>
  </g>
  <line id="Baseline-M" style="fill:none;stroke:#27AAE1;opacity:1;stroke-width:0.5;" x1="263" x2="3036" y1="1126" y2="1126"/>
  <line id="Capline-M" style="fill:none;stroke:#27AAE1;opacity:1;stroke-width:0.5;" x1="263" x2="3036" y1="1055.54" y2="1055.54"/>
  <g id="H-reference" style="fill:#27AAE1;stroke:none;" transform="matrix(1 0 0 1 339 1556)">
   <path d="M0.976562 0L3.66211 0L12.9883-24.4629L45.752-24.4629L55.127 0L57.7637 0L30.6152-70.459L28.125-70.459ZM29.3457-67.1387L29.4434-67.1387L44.873-26.709L13.8672-26.709Z"/>
  </g>
  <line id="Baseline-L" style="fill:none;stroke:#27AAE1;opacity:1;stroke-width:0.5;" x1="263" x2="3036" y1="1556" y2="1556"/>
  <line id="Capline-L" style="fill:none;stroke:#27AAE1;opacity:1;stroke-width:0.5;" x1="263" x2="3036" y1="1485.54" y2="1485.54"/>
  <line id="left-margin" x1="1398.6553167504849" x2="1398.6553167504849" y1="1030.79" y2="1150.12" style="fill:none;stroke:#00AEEF;stroke-width:0.5;opacity:1.0;"/>
  <line id="right-margin" x1="1503.8162747242807" x2="1503.8162747242807" y1="1030.79" y2="1150.12" style="fill:none;stroke:#00AEEF;stroke-width:0.5;opacity:1.0;"/>
 </g>
 <g id="Symbols">
  <g id="Black-L" transform="matrix(1.0,0.0,0.0,1.0,2866.4417526291586,1452.2588222452264)">  <path stroke-linecap="butt" stroke-width="0.0625px" xmlns:svg="http://www.w3.org/2000/svg" stroke-dasharray="none" fill="#000000" stroke-linejoin="miter" stroke="none" stroke-opacity="1" fill-rule="nonzero" stroke-miterlimit="4" fill-opacity="1" version="1.1" d="M20.318,-0C6.719,-0,0,6.88,0,20.641L0,115.835C0,129.677,6.719,136.476,20.318,136.476L43.229,136.476L43.229,124.82L20.965,124.82C14.813,124.82,11.656,121.501,11.656,115.673L11.656,20.803C11.656,14.975,14.813,11.656,20.965,11.656L86.856,11.656C92.927,11.656,96.084,14.975,96.084,20.803L96.084,69.747L107.821,69.747L107.821,20.641C107.821,6.88,101.022,-0,87.423,-0ZM30.436,29.708C27.846,29.708,25.984,31.569,25.984,33.998C25.984,36.507,27.846,38.45,30.436,38.45L77.466,38.45C79.976,38.45,81.837,36.507,81.837,33.998C81.837,31.569,79.976,29.708,77.466,29.708ZM30.436,51.725C27.846,51.725,25.984,53.668,25.984,56.015C25.984,58.525,27.846,60.548,30.436,60.548L77.466,60.548C79.976,60.548,81.837,58.525,81.837,56.015C81.837,53.668,79.976,51.725,77.466,51.725ZM30.436,73.824C27.846,73.824,25.984,75.766,25.984,78.276C25.984,80.704,27.846,82.566,30.436,82.566L43.229,82.566L43.229,73.824ZM30.436,73.824"/>
  <path xmlns:svg="http://www.w3.org/2000/svg" fill-opacity="1" fill="#000000" stroke="none" stroke-linejoin="miter" stroke-dasharray="none" fill-rule="nonzero" stroke-linecap="butt" stroke-width="0.0625px" stroke-opacity="1" version="1.1" stroke-miterlimit="4" d="M58.218,104.379C65.537,104.379,69.929,98.523,69.929,89.154C69.929,79.744,65.495,73.972,58.218,73.972C50.982,73.972,46.548,79.785,46.548,89.154C46.548,98.565,50.94,104.379,58.218,104.379ZM58.218,99.151C54.663,99.151,52.613,95.512,52.613,89.154C52.613,82.839,54.704,79.2,58.218,79.2C61.731,79.2,63.864,82.797,63.864,89.154C63.864,95.512,61.773,99.151,58.218,99.151ZM96.028,135.581C103.306,135.581,107.697,129.683,107.697,120.314C107.697,110.903,103.264,105.173,96.028,105.173C88.792,105.173,84.359,110.945,84.359,120.314C84.359,129.725,88.75,135.581,96.028,135.581ZM96.028,130.352C92.473,130.352,90.423,126.714,90.423,120.314C90.423,114.04,92.515,110.402,96.028,110.402C99.541,110.402,101.633,113.999,101.633,120.314C101.633,126.714,99.583,130.352,96.028,130.352ZM55.75,135.706C57.13,136.501,59.18,136.375,60.393,134.66L99.207,78.363C100.545,76.481,99.75,74.557,98.328,73.721C97.032,73.01,95.191,73.177,93.853,75.059L55.039,131.147C53.659,133.113,54.37,134.869,55.75,135.706ZM55.75,135.706"/>
</g>
  <g id="Heavy-L" transform="matrix(1.0,0.0,0.0,1.0,2569.7317526291586,1452.2588222452264)">  <path stroke-linejoin="miter" stroke-miterlimit="4" fill-rule="nonzero" fill="#000000" xmlns:svg="http://www.w3.org/2000/svg" version="1.1" stroke-width="0.0625px" stroke-dasharray="none" stroke="none" fill-opacity="1" stroke-opacity="1" stroke-linecap="butt" d="M20.318,-0C6.719,-0,0,6.88,0,20.641L0,115.835C0,129.677,6.719,136.476,20.318,136.476L43.229,136.476L43.229,124.82L20.965,124.82C14.813,124.82,11.656,121.501,11.656,115.673L11.656,20.803C11.656,14.975,14.813,11.656,20.965,11.656L86.856,11.656C92.927,11.656,96.084,14.975,96.084,20.803L96.084,69.747L107.821,69.747L107.821,20.641C107.821,6.88,101.022,-0,87.423,-0ZM30.436,29.708C27.846,29.708,25.984,31.569,25.984,33.998C25.984,36.507,27.846,38.45,30.436,38.45L77.466,38.45C79.976,38.45,81.837,36.507,81.837,33.998C81.837,31.569,79.976,29.708,77.466,29.708ZM30.436,51.725C27.846,51.725,25.984,53.668,25.984,56.015C25.984,58.525,27.846,60.548,30.436,60.548L77.466,60.548C79.976,60.548,81.837,58.525,81.837,56.015C81.837,53.668,79.976,51.725,77.466,51.725ZM30.436,73.824C27.846,73.824,25.984,75.766,25.984,78.276C25.984,80.704,27.846,82.566,30.436,82.566L43.229,82.566L43.229,73.824ZM30.436,73.824"/>
  <path stroke-opacity="1" stroke="none" fill="#000000" stroke-linecap="butt" stroke-linejoin="miter" fill-rule="nonzero" fill-opacity="1" xmlns:svg="http://www.w3.org/2000/svg" stroke-width="0.0625px" stroke-miterlimit="4" stroke-dasharray="none" version="1.1" d="M58.218,104.379C65.537,104.379,69.929,98.523,69.929,89.154C69.929,79.744,65.495,73.972,58.218,73.972C50.982,73.972,46.548,79.785,46.548,89.154C46.548,98.565,50.94,104.379,58.218,104.379ZM58.218,99.151C54.663,99.151,52.613,95.512,52.613,89.154C52.613,82.839,54.704,79.2,58.218,79.2C61.731,79.2,63.864,82.797,63.864,89.154C63.864,95.512,61.773,99.151,58.218,99.151ZM96.028,135.581C103.306,135.581,107.697,129.683,107.697,120.314C107.697,110.903,103.264,105.173,96.028,105.173C88.792,105.173,84.359,110.945,84.359,120.314C84.359,129.725,88.75,135.581,96.028,135.581ZM96.028,130.352C92.473,130.352,90.423,126.714,90.423,120.314C90.423,114.04,92.515,110.402,96.028,110.402C99.541,110.402,101.633,113.999,101.633,120.314C101.633,126.714,99.583,130.352,96.028,130.352ZM55.75,135.706C57.13,136.501,59.18,136.375,60.393,134.66L99.207,78.363C100.545,76.481,99.75,74.557,98.328,73.721C97.032,73.01,95.191,73.177,93.853,75.059L55.039,131.147C53.659,133.113,54.37,134.869,55.75,135.706ZM55.75,135.706"/>
</g>
  <g id="Bold-L" transform="matrix(1.0,0.0,0.0,1.0,2273.0217526291585,1452.2588222452264)">  <path fill-opacity="1" stroke-linecap="butt" xmlns:svg="http://www.w3.org/2000/svg" stroke="none" stroke-opacity="1" stroke-linejoin="miter" stroke-miterlimit="4" fill="#000000" fill-rule="nonzero" stroke-width="0.0625px" stroke-dasharray="none" version="1.1" d="M20.318,-0C6.719,-0,0,6.88,0,20.641L0,115.835C0,129.677,6.719,136.476,20.318,136.476L43.229,136.476L43.229,124.82L20.965,124.82C14.813,124.82,11.656,121.501,11.656,115.673L11.656,20.803C11.656,14.975,14.813,11.656,20.965,11.656L86.856,11.656C92.927,11.656,96.084,14.975,96.084,20.803L96.084,69.747L107.821,69.747L107.821,20.641C107.821,6.88,101.022,-0,87.423,-0ZM30.436,29.708C27.846,29.708,25.984,31.569,25.984,33.998C25.984,36.507,27.846,38.45,30.436,38.45L77.466,38.45C79.976,38.45,81.837,36.507,81.837,33.998C81.837,31.569,79.976,29.708,77.466,29.708ZM30.436,51.725C27.846,51.725,25.984,53.668,25.984,56.015C25.984,58.525,27.846,60.548,30.436,60.548L77.466,60.548C79.976,60.548,81.837,58.525,81.837,56.015C81.837,53.668,79.976,51.725,77.466,51.725ZM30.436,73.824C27.846,73.824,25.984,75.766,25.984,78.276C25.984,80.704,27.846,82.566,30.436,82.566L43.229,82.566L43.229,73.824ZM30.436,73.824"/>
  <path stroke="none" stroke-linecap="butt" fill="#000000" stroke-dasharray="none" version="1.1" fill-opacity="1" stroke-width="0.0625px" fill-rule="nonzero" stroke-opacity="1" xmlns:svg="http://www.w3.org/2000/svg" stroke-miterlimit="4" stroke-linejoin="miter" d="M58.218,104.379C65.537,104.379,69.929,98.523,69.929,89.154C69.929,79.744,65.495,73.972,58.218,73.972C50.982,73.972,46.548,79.785,46.548,89.154C46.548,98.565,50.94,104.379,58.218,104.379ZM58.218,99.151C54.663,99.151,52.613,95.512,52.613,89.154C52.613,82.839,54.704,79.2,58.218,79.2C61.731,79.2,63.864,82.797,63.864,89.154C63.864,95.512,61.773,99.151,58.218,99.151ZM96.028,135.581C103.306,135.581,107.697,129.683,107.697,120.314C107.697,110.903,103.264,105.173,96.028,105.173C88.792,105.173,84.359,110.945,84.359,120.314C84.359,129.725,88.75,135.581,96.028,135.581ZM96.028,130.352C92.473,130.352,90.423,126.714,90.423,120.314C90.423,114.04,92.515,110.402,96.028,110.402C99.541,110.402,101.633,113.999,101.633,120.314C101.633,126.714,99.583,130.352,96.028,130.352ZM55.75,135.706C57.13,136.501,59.18,136.375,60.393,134.66L99.207,78.363C100.545,76.481,99.75,74.557,98.328,73.721C97.032,73.01,95.191,73.177,93.853,75.059L55.039,131.147C53.659,133.113,54.37,134.869,55.75,135.706ZM55.75,135.706"/>
</g>
  <g id="Semibold-L" transform="matrix(1.0,0.0,0.0,1.0,1976.3117526291587,1452.2588222452264)">  <path stroke-opacity="1" stroke-width="0.0625px" fill="#000000" stroke="none" version="1.1" fill-rule="nonzero" stroke-miterlimit="4" stroke-linecap="butt" fill-opacity="1" stroke-dasharray="none" stroke-linejoin="miter" xmlns:svg="http://www.w3.org/2000/svg" d="M20.318,-0C6.719,-0,0,6.88,0,20.641L0,115.835C0,129.677,6.719,136.476,20.318,136.476L43.229,136.476L43.229,124.82L20.965,124.82C14.813,124.82,11.656,121.501,11.656,115.673L11.656,20.803C11.656,14.975,14.813,11.656,20.965,11.656L86.856,11.656C92.927,11.656,96.084,14.975,96.084,20.803L96.084,69.747L107.821,69.747L107.821,20.641C107.821,6.88,101.022,-0,87.423,-0ZM30.436,29.708C27.846,29.708,25.984,31.569,25.984,33.998C25.984,36.507,27.846,38.45,30.436,38.45L77.466,38.45C79.976,38.45,81.837,36.507,81.837,33.998C81.837,31.569,79.976,29.708,77.466,29.708ZM30.436,51.725C27.846,51.725,25.984,53.668,25.984,56.015C25.984,58.525,27.846,60.548,30.436,60.548L77.466,60.548C79.976,60.548,81.837,58.525,81.837,56.015C81.837,53.668,79.976,51.725,77.466,51.725ZM30.436,73.824C27.846,73.824,25.984,75.766,25.984,78.276C25.984,80.704,27.846,82.566,30.436,82.566L43.229,82.566L43.229,73.824ZM30.436,73.824"/>
  <path stroke-width="0.0625px" stroke-linecap="butt" stroke-dasharray="none" stroke-linejoin="miter" stroke="none" xmlns:svg="http://www.w3.org/2000/svg" fill="#000000" stroke-opacity="1" version="1.1" fill-opacity="1" fill-rule="nonzero" stroke-miterlimit="4" d="M58.218,104.379C65.537,104.379,69.929,98.523,69.929,89.154C69.929,79.744,65.495,73.972,58.218,73.972C50.982,73.972,46.548,79.785,46.548,89.154C46.548,98.565,50.94,104.379,58.218,104.379ZM58.218,99.151C54.663,99.151,52.613,95.512,52.613,89.154C52.613,82.839,54.704,79.2,58.218,79.2C61.731,79.2,63.864,82.797,63.864,89.154C63.864,95.512,61.773,99.151,58.218,99.151ZM96.028,135.581C103.306,135.581,107.697,129.683,107.697,120.314C107.697,110.903,103.264,105.173,96.028,105.173C88.792,105.173,84.359,110.945,84.359,120.314C84.359,129.725,88.75,135.581,96.028,135.581ZM96.028,130.352C92.473,130.352,90.423,126.714,90.423,120.314C90.423,114.04,92.515,110.402,96.028,110.402C99.541,110.402,101.633,113.999,101.633,120.314C101.633,126.714,99.583,130.352,96.028,130.352ZM55.75,135.706C57.13,136.501,59.18,136.375,60.393,134.66L99.207,78.363C100.545,76.481,99.75,74.557,98.328,73.721C97.032,73.01,95.191,73.177,93.853,75.059L55.039,131.147C53.659,133.113,54.37,134.869,55.75,135.706ZM55.75,135.706"/>
</g>
  <g id="Medium-L" transform="matrix(1.0,0.0,0.0,1.0,1679.6017526291587,1452.2588222452264)">  <path fill-opacity="1" stroke-opacity="1" stroke="none" version="1.1" fill-rule="nonzero" stroke-linejoin="miter" stroke-width="0.0625px" stroke-linecap="butt" xmlns:svg="http://www.w3.org/2000/svg" stroke-miterlimit="4" fill="#000000" stroke-dasharray="none" d="M20.318,-0C6.719,-0,0,6.88,0,20.641L0,115.835C0,129.677,6.719,136.476,20.318,136.476L43.229,136.476L43.229,124.82L20.965,124.82C14.813,124.82,11.656,121.501,11.656,115.673L11.656,20.803C11.656,14.975,14.813,11.656,20.965,11.656L86.856,11.656C92.927,11.656,96.084,14.975,96.084,20.803L96.084,69.747L107.821,69.747L107.821,20.641C107.821,6.88,101.022,-0,87.423,-0ZM30.436,29.708C27.846,29.708,25.984,31.569,25.984,33.998C25.984,36.507,27.846,38.45,30.436,38.45L77.466,38.45C79.976,38.45,81.837,36.507,81.837,33.998C81.837,31.569,79.976,29.708,77.466,29.708ZM30.436,51.725C27.846,51.725,25.984,53.668,25.984,56.015C25.984,58.525,27.846,60.548,30.436,60.548L77.466,60.548C79.976,60.548,81.837,58.525,81.837,56.015C81.837,53.668,79.976,51.725,77.466,51.725ZM30.436,73.824C27.846,73.824,25.984,75.766,25.984,78.276C25.984,80.704,27.846,82.566,30.436,82.566L43.229,82.566L43.229,73.824ZM30.436,73.824"/>
  <path fill="#000000" stroke-miterlimit="4" fill-opacity="1" stroke-width="0.0625px" stroke="none" stroke-dasharray="none" stroke-opacity="1" version="1.1" xmlns:svg="http://www.w3.org/2000/svg" stroke-linejoin="miter" stroke-linecap="butt" fill-rule="nonzero" d="M58.218,104.379C65.537,104.379,69.929,98.523,69.929,89.154C69.929,79.744,65.495,73.972,58.218,73.972C50.982,73.972,46.548,79.785,46.548,89.154C46.548,98.565,50.94,104.379,58.218,104.379ZM58.218,99.151C54.663,99.151,52.613,95.512,52.613,89.154C52.613,82.839,54.704,79.2,58.218,79.2C61.731,79.2,63.864,82.797,63.864,89.154C63.864,95.512,61.773,99.151,58.218,99.151ZM96.028,135.581C103.306,135.581,107.697,129.683,107.697,120.314C107.697,110.903,103.264,105.173,96.028,105.173C88.792,105.173,84.359,110.945,84.359,120.314C84.359,129.725,88.75,135.581,96.028,135.581ZM96.028,130.352C92.473,130.352,90.423,126.714,90.423,120.314C90.423,114.04,92.515,110.402,96.028,110.402C99.541,110.402,101.633,113.999,101.633,120.314C101.633,126.714,99.583,130.352,96.028,130.352ZM55.75,135.706C57.13,136.501,59.18,136.375,60.393,134.66L99.207,78.363C100.545,76.481,99.75,74.557,98.328,73.721C97.032,73.01,95.191,73.177,93.853,75.059L55.039,131.147C53.659,133.113,54.37,134.869,55.75,135.706ZM55.75,135.706"/>
</g>
  <g id="Regular-L" transform="matrix(1.0,0.0,0.0,1.0,1382.8917526291586,1452.2588222452264)">  <path stroke-linejoin="miter" fill-rule="nonzero" stroke-dasharray="none" stroke-opacity="1" stroke="none" stroke-linecap="butt" fill="#000000" version="1.1" xmlns:svg="http://www.w3.org/2000/svg" stroke-width="0.0625px" fill-opacity="1" stroke-miterlimit="4" d="M20.318,-0C6.719,-0,0,6.88,0,20.641L0,115.835C0,129.677,6.719,136.476,20.318,136.476L43.229,136.476L43.229,124.82L20.965,124.82C14.813,124.82,11.656,121.501,11.656,115.673L11.656,20.803C11.656,14.975,14.813,11.656,20.965,11.656L86.856,11.656C92.927,11.656,96.084,14.975,96.084,20.803L96.084,69.747L107.821,69.747L107.821,20.641C107.821,6.88,101.022,-0,87.423,-0ZM30.436,29.708C27.846,29.708,25.984,31.569,25.984,33.998C25.984,36.507,27.846,38.45,30.436,38.45L77.466,38.45C79.976,38.45,81.837,36.507,81.837,33.998C81.837,31.569,79.976,29.708,77.466,29.708ZM30.436,51.725C27.846,51.725,25.984,53.668,25.984,56.015C25.984,58.525,27.846,60.548,30.436,60.548L77.466,60.548C79.976,60.548,81.837,58.525,81.837,56.015C81.837,53.668,79.976,51.725,77.466,51.725ZM30.436,73.824C27.846,73.824,25.984,75.766,25.984,78.276C25.984,80.704,27.846,82.566,30.436,82.566L43.229,82.566L43.229,73.824ZM30.436,73.824"/>
  <path stroke-opacity="1" fill="#000000" fill-opacity="1" version="1.1" stroke-width="0.0625px" xmlns:svg="http://www.w3.org/2000/svg" stroke-linejoin="miter" stroke-dasharray="none" stroke="none" fill-rule="nonzero" stroke-miterlimit="4" stroke-linecap="butt" d="M58.218,104.379C65.537,104.379,69.929,98.523,69.929,89.154C69.929,79.744,65.495,73.972,58.218,73.972C50.982,73.972,46.548,79.785,46.548,89.154C46.548,98.565,50.94,104.379,58.218,104.379ZM58.218,99.151C54.663,99.151,52.613,95.512,52.613,89.154C52.613,82.839,54.704,79.2,58.218,79.2C61.731,79.2,63.864,82.797,63.864,89.154C63.864,95.512,61.773,99.151,58.218,99.151ZM96.028,135.581C103.306,135.581,107.697,129.683,107.697,120.314C107.697,110.903,103.264,105.173,96.028,105.173C88.792,105.173,84.359,110.945,84.359,120.314C84.359,129.725,88.75,135.581,96.028,135.581ZM96.028,130.352C92.473,130.352,90.423,126.714,90.423,120.314C90.423,114.04,92.515,110.402,96.028,110.402C99.541,110.402,101.633,113.999,101.633,120.314C101.633,126.714,99.583,130.352,96.028,130.352ZM55.75,135.706C57.13,136.501,59.18,136.375,60.393,134.66L99.207,78.363C100.545,76.481,99.75,74.557,98.328,73.721C97.032,73.01,95.191,73.177,93.853,75.059L55.039,131.147C53.659,133.113,54.37,134.869,55.75,135.706ZM55.75,135.706"/>
</g>
  <g id="Light-L" transform="matrix(1.0,0.0,0.0,1.0,1086.1817526291588,1452.2588222452264)">  <path stroke-miterlimit="4" stroke-width="0.0625px" fill="#000000" stroke="none" stroke-dasharray="none" fill-opacity="1" xmlns:svg="http://www.w3.org/2000/svg" stroke-opacity="1" stroke-linecap="butt" stroke-linejoin="miter" fill-rule="nonzero" version="1.1" d="M20.318,-0C6.719,-0,0,6.88,0,20.641L0,115.835C0,129.677,6.719,136.476,20.318,136.476L43.229,136.476L43.229,124.82L20.965,124.82C14.813,124.82,11.656,121.501,11.656,115.673L11.656,20.803C11.656,14.975,14.813,11.656,20.965,11.656L86.856,11.656C92.927,11.656,96.084,14.975,96.084,20.803L96.084,69.747L107.821,69.747L107.821,20.641C107.821,6.88,101.022,-0,87.423,-0ZM30.436,29.708C27.846,29.708,25.984,31.569,25.984,33.998C25.984,36.507,27.846,38.45,30.436,38.45L77.466,38.45C79.976,38.45,81.837,36.507,81.837,33.998C81.837,31.569,79.976,29.708,77.466,29.708ZM30.436,51.725C27.846,51.725,25.984,53.668,25.984,56.015C25.984,58.525,27.846,60.548,30.436,60.548L77.466,60.548C79.976,60.548,81.837,58.525,81.837,56.015C81.837,53.668,79.976,51.725,77.466,51.725ZM30.436,73.824C27.846,73.824,25.984,75.766,25.984,78.276C25.984,80.704,27.846,82.566,30.436,82.566L43.229,82.566L43.229,73.824ZM30.436,73.824"/>
  <path stroke-linejoin="miter" fill="#000000" version="1.1" stroke-dasharray="none" stroke-linecap="butt" xmlns:svg="http://www.w3.org/2000/svg" stroke-opacity="1" stroke="none" fill-rule="nonzero" stroke-miterlimit="4" fill-opacity="1" stroke-width="0.0625px" d="M58.218,104.379C65.537,104.379,69.929,98.523,69.929,89.154C69.929,79.744,65.495,73.972,58.218,73.972C50.982,73.972,46.548,79.785,46.548,89.154C46.548,98.565,50.94,104.379,58.218,104.379ZM58.218,99.151C54.663,99.151,52.613,95.512,52.613,89.154C52.613,82.839,54.704,79.2,58.218,79.2C61.731,79.2,63.864,82.797,63.864,89.154C63.864,95.512,61.773,99.151,58.218,99.151ZM96.028,135.581C103.306,135.581,107.697,129.683,107.697,120.314C107.697,110.903,103.264,105.173,96.028,105.173C88.792,105.173,84.359,110.945,84.359,120.314C84.359,129.725,88.75,135.581,96.028,135.581ZM96.028,130.352C92.473,130.352,90.423,126.714,90.423,120.314C90.423,114.04,92.515,110.402,96.028,110.402C99.541,110.402,101.633,113.999,101.633,120.314C101.633,126.714,99.583,130.352,96.028,130.352ZM55.75,135.706C57.13,136.501,59.18,136.375,60.393,134.66L99.207,78.363C100.545,76.481,99.75,74.557,98.328,73.721C97.032,73.01,95.191,73.177,93.853,75.059L55.039,131.147C53.659,133.113,54.37,134.869,55.75,135.706ZM55.75,135.706"/>
</g>
  <g id="Thin-L" transform="matrix(1.0,0.0,0.0,1.0,789.4717526291589,1452.2588222452264)">  <path stroke-miterlimit="4" stroke-opacity="1" stroke-linejoin="miter" stroke="none" stroke-linecap="butt" stroke-dasharray="none" fill="#000000" version="1.1" stroke-width="0.0625px" fill-rule="nonzero" fill-opacity="1" xmlns:svg="http://www.w3.org/2000/svg" d="M20.318,-0C6.719,-0,0,6.88,0,20.641L0,115.835C0,129.677,6.719,136.476,20.318,136.476L43.229,136.476L43.229,124.82L20.965,124.82C14.813,124.82,11.656,121.501,11.656,115.673L11.656,20.803C11.656,14.975,14.813,11.656,20.965,11.656L86.856,11.656C92.927,11.656,96.084,14.975,96.084,20.803L96.084,69.747L107.821,69.747L107.821,20.641C107.821,6.88,101.022,-0,87.423,-0ZM30.436,29.708C27.846,29.708,25.984,31.569,25.984,33.998C25.984,36.507,27.846,38.45,30.436,38.45L77.466,38.45C79.976,38.45,81.837,36.507,81.837,33.998C81.837,31.569,79.976,29.708,77.466,29.708ZM30.436,51.725C27.846,51.725,25.984,53.668,25.984,56.015C25.984,58.525,27.846,60.548,30.436,60.548L77.466,60.548C79.976,60.548,81.837,58.525,81.837,56.015C81.837,53.668,79.976,51.725,77.466,51.725ZM30.436,73.824C27.846,73.824,25.984,75.766,25.984,78.276C25.984,80.704,27.846,82.566,30.436,82.566L43.229,82.566L43.229,73.824ZM30.436,73.824"/>
  <path fill-rule="nonzero" stroke-linejoin="miter" xmlns:svg="http://www.w3.org/2000/svg" stroke-miterlimit="4" stroke-opacity="1" fill-opacity="1" stroke-linecap="butt" stroke-width="0.0625px" stroke="none" fill="#000000" stroke-dasharray="none" version="1.1" d="M58.218,104.379C65.537,104.379,69.929,98.523,69.929,89.154C69.929,79.744,65.495,73.972,58.218,73.972C50.982,73.972,46.548,79.785,46.548,89.154C46.548,98.565,50.94,104.379,58.218,104.379ZM58.218,99.151C54.663,99.151,52.613,95.512,52.613,89.154C52.613,82.839,54.704,79.2,58.218,79.2C61.731,79.2,63.864,82.797,63.864,89.154C63.864,95.512,61.773,99.151,58.218,99.151ZM96.028,135.581C103.306,135.581,107.697,129.683,107.697,120.314C107.697,110.903,103.264,105.173,96.028,105.173C88.792,105.173,84.359,110.945,84.359,120.314C84.359,129.725,88.75,135.581,96.028,135.581ZM96.028,130.352C92.473,130.352,90.423,126.714,90.423,120.314C90.423,114.04,92.515,110.402,96.028,110.402C99.541,110.402,101.633,113.999,101.633,120.314C101.633,126.714,99.583,130.352,96.028,130.352ZM55.75,135.706C57.13,136.501,59.18,136.375,60.393,134.66L99.207,78.363C100.545,76.481,99.75,74.557,98.328,73.721C97.032,73.01,95.191,73.177,93.853,75.059L55.039,131.147C53.659,133.113,54.37,134.869,55.75,135.706ZM55.75,135.706"/>
</g>
  <g id="Ultralight-L" transform="matrix(1.0,0.0,0.0,1.0,492.7617526291589,1452.2588222452264)">  <path stroke-opacity="1" stroke-miterlimit="4" stroke-dasharray="none" stroke-linejoin="miter" fill-rule="nonzero" stroke-linecap="butt" version="1.1" stroke="none" fill-opacity="1" stroke-width="0.0625px" fill="#000000" xmlns:svg="http://www.w3.org/2000/svg" d="M20.318,-0C6.719,-0,0,6.88,0,20.641L0,115.835C0,129.677,6.719,136.476,20.318,136.476L43.229,136.476L43.229,124.82L20.965,124.82C14.813,124.82,11.656,121.501,11.656,115.673L11.656,20.803C11.656,14.975,14.813,11.656,20.965,11.656L86.856,11.656C92.927,11.656,96.084,14.975,96.084,20.803L96.084,69.747L107.821,69.747L107.821,20.641C107.821,6.88,101.022,-0,87.423,-0ZM30.436,29.708C27.846,29.708,25.984,31.569,25.984,33.998C25.984,36.507,27.846,38.45,30.436,38.45L77.466,38.45C79.976,38.45,81.837,36.507,81.837,33.998C81.837,31.569,79.976,29.708,77.466,29.708ZM30.436,51.725C27.846,51.725,25.984,53.668,25.984,56.015C25.984,58.525,27.846,60.548,30.436,60.548L77.466,60.548C79.976,60.548,81.837,58.525,81.837,56.015C81.837,53.668,79.976,51.725,77.466,51.725ZM30.436,73.824C27.846,73.824,25.984,75.766,25.984,78.276C25.984,80.704,27.846,82.566,30.436,82.566L43.229,82.566L43.229,73.824ZM30.436,73.824"/>
  <path fill-opacity="1" stroke="none" fill-rule="nonzero" xmlns:svg="http://www.w3.org/2000/svg" stroke-opacity="1" fill="#000000" version="1.1" stroke-miterlimit="4" stroke-linecap="butt" stroke-width="0.0625px" stroke-linejoin="miter" stroke-dasharray="none" d="M58.218,104.379C65.537,104.379,69.929,98.523,69.929,89.154C69.929,79.744,65.495,73.972,58.218,73.972C50.982,73.972,46.548,79.785,46.548,89.154C46.548,98.565,50.94,104.379,58.218,104.379ZM58.218,99.151C54.663,99.151,52.613,95.512,52.613,89.154C52.613,82.839,54.704,79.2,58.218,79.2C61.731,79.2,63.864,82.797,63.864,89.154C63.864,95.512,61.773,99.151,58.218,99.151ZM96.028,135.581C103.306,135.581,107.697,129.683,107.697,120.314C107.697,110.903,103.264,105.173,96.028,105.173C88.792,105.173,84.359,110.945,84.359,120.314C84.359,129.725,88.75,135.581,96.028,135.581ZM96.028,130.352C92.473,130.352,90.423,126.714,90.423,120.314C90.423,114.04,92.515,110.402,96.028,110.402C99.541,110.402,101.633,113.999,101.633,120.314C101.633,126.714,99.583,130.352,96.028,130.352ZM55.75,135.706C57.13,136.501,59.18,136.375,60.393,134.66L99.207,78.363C100.545,76.481,99.75,74.557,98.328,73.721C97.032,73.01,95.191,73.177,93.853,75.059L55.039,131.147C53.659,133.113,54.37,134.869,55.75,135.706ZM55.75,135.706"/>
</g>
  <g id="Black-M" transform="matrix(1.0,0.0,0.0,1.0,2881.7821338210533,1037.6605642707666)">  <path stroke-linecap="butt" stroke-width="0.0625px" xmlns:svg="http://www.w3.org/2000/svg" stroke-dasharray="none" fill="#000000" stroke-linejoin="miter" stroke="none" stroke-opacity="1" fill-rule="nonzero" stroke-miterlimit="4" fill-opacity="1" version="1.1" d="M15.75,-0C5.208,-0,0,5.334,0,16.001L0,89.795C0,100.525,5.208,105.796,15.75,105.796L33.511,105.796L33.511,96.76L16.252,96.76C11.483,96.76,9.036,94.187,9.036,89.669L9.036,16.127C9.036,11.609,11.483,9.036,16.252,9.036L67.33,9.036C72.036,9.036,74.484,11.609,74.484,16.127L74.484,54.068L83.582,54.068L83.582,16.001C83.582,5.334,78.311,-0,67.77,-0ZM23.594,23.029C21.586,23.029,20.143,24.472,20.143,26.355C20.143,28.3,21.586,29.806,23.594,29.806L60.051,29.806C61.997,29.806,63.44,28.3,63.44,26.355C63.44,24.472,61.997,23.029,60.051,23.029ZM23.594,40.097C21.586,40.097,20.143,41.603,20.143,43.423C20.143,45.368,21.586,46.937,23.594,46.937L60.051,46.937C61.997,46.937,63.44,45.368,63.44,43.423C63.44,41.603,61.997,40.097,60.051,40.097ZM23.594,57.228C21.586,57.228,20.143,58.734,20.143,60.679C20.143,62.561,21.586,64.005,23.594,64.005L33.511,64.005L33.511,57.228ZM23.594,57.228"/>
  <path xmlns:svg="http://www.w3.org/2000/svg" fill-opacity="1" fill="#000000" stroke="none" stroke-linejoin="miter" stroke-dasharray="none" fill-rule="nonzero" stroke-linecap="butt" stroke-width="0.0625px" stroke-opacity="1" version="1.1" stroke-miterlimit="4" d="M45.13,80.914C50.804,80.914,54.208,76.375,54.208,69.112C54.208,61.817,50.772,57.342,45.13,57.342C39.521,57.342,36.084,61.849,36.084,69.112C36.084,76.407,39.488,80.914,45.13,80.914ZM45.13,76.861C42.374,76.861,40.785,74.04,40.785,69.112C40.785,64.216,42.406,61.395,45.13,61.395C47.854,61.395,49.507,64.184,49.507,69.112C49.507,74.04,47.886,76.861,45.13,76.861ZM74.44,105.101C80.082,105.101,83.486,100.53,83.486,93.267C83.486,85.972,80.049,81.53,74.44,81.53C68.831,81.53,65.394,86.004,65.394,93.267C65.394,100.562,68.799,105.101,74.44,105.101ZM74.44,101.048C71.684,101.048,70.096,98.228,70.096,93.267C70.096,88.403,71.717,85.583,74.44,85.583C77.164,85.583,78.785,88.371,78.785,93.267C78.785,98.228,77.196,101.048,74.44,101.048ZM43.217,105.198C44.287,105.814,45.876,105.717,46.816,104.388L76.904,60.747C77.942,59.288,77.326,57.796,76.223,57.148C75.218,56.597,73.792,56.726,72.754,58.185L42.666,101.664C41.596,103.188,42.147,104.55,43.217,105.198ZM43.217,105.198"/>
</g>
  <g id="Heavy-M" transform="matrix(1.0,0.0,0.0,1.0,2585.0721338210533,1037.6605642707666)">  <path stroke-linejoin="miter" stroke-miterlimit="4" fill-rule="nonzero" fill="#000000" xmlns:svg="http://www.w3.org/2000/svg" version="1.1" stroke-width="0.0625px" stroke-dasharray="none" stroke="none" fill-opacity="1" stroke-opacity="1" stroke-linecap="butt" d="M15.75,-0C5.208,-0,0,5.334,0,16.001L0,89.795C0,100.525,5.208,105.796,15.75,105.796L33.511,105.796L33.511,96.76L16.252,96.76C11.483,96.76,9.036,94.187,9.036,89.669L9.036,16.127C9.036,11.609,11.483,9.036,16.252,9.036L67.33,9.036C72.036,9.036,74.484,11.609,74.484,16.127L74.484,54.068L83.582,54.068L83.582,16.001C83.582,5.334,78.311,-0,67.77,-0ZM23.594,23.029C21.586,23.029,20.143,24.472,20.143,26.355C20.143,28.3,21.586,29.806,23.594,29.806L60.051,29.806C61.997,29.806,63.44,28.3,63.44,26.355C63.44,24.472,61.997,23.029,60.051,23.029ZM23.594,40.097C21.586,40.097,20.143,41.603,20.143,43.423C20.143,45.368,21.586,46.937,23.594,46.937L60.051,46.937C61.997,46.937,63.44,45.368,63.44,43.423C63.44,41.603,61.997,40.097,60.051,40.097ZM23.594,57.228C21.586,57.228,20.143,58.734,20.143,60.679C20.143,62.561,21.586,64.005,23.594,64.005L33.511,64.005L33.511,57.228ZM23.594,57.228"/>
  <path stroke-opacity="1" stroke="none" fill="#000000" stroke-linecap="butt" stroke-linejoin="miter" fill-rule="nonzero" fill-opacity="1" xmlns:svg="http://www.w3.org/2000/svg" stroke-width="0.0625px" stroke-miterlimit="4" stroke-dasharray="none" version="1.1" d="M45.13,80.914C50.804,80.914,54.208,76.375,54.208,69.112C54.208,61.817,50.772,57.342,45.13,57.342C39.521,57.342,36.084,61.849,36.084,69.112C36.084,76.407,39.488,80.914,45.13,80.914ZM45.13,76.861C42.374,76.861,40.785,74.04,40.785,69.112C40.785,64.216,42.406,61.395,45.13,61.395C47.854,61.395,49.507,64.184,49.507,69.112C49.507,74.04,47.886,76.861,45.13,76.861ZM74.44,105.101C80.082,105.101,83.486,100.53,83.486,93.267C83.486,85.972,80.049,81.53,74.44,81.53C68.831,81.53,65.394,86.004,65.394,93.267C65.394,100.562,68.799,105.101,74.44,105.101ZM74.44,101.048C71.684,101.048,70.096,98.228,70.096,93.267C70.096,88.403,71.717,85.583,74.44,85.583C77.164,85.583,78.785,88.371,78.785,93.267C78.785,98.228,77.196,101.048,74.44,101.048ZM43.217,105.198C44.287,105.814,45.876,105.717,46.816,104.388L76.904,60.747C77.942,59.288,77.326,57.796,76.223,57.148C75.218,56.597,73.792,56.726,72.754,58.185L42.666,101.664C41.596,103.188,42.147,104.55,43.217,105.198ZM43.217,105.198"/>
</g>
  <g id="Bold-M" transform="matrix(1.0,0.0,0.0,1.0,2288.3621338210532,1037.6605642707666)">  <path fill-opacity="1" stroke-linecap="butt" xmlns:svg="http://www.w3.org/2000/svg" stroke="none" stroke-opacity="1" stroke-linejoin="miter" stroke-miterlimit="4" fill="#000000" fill-rule="nonzero" stroke-width="0.0625px" stroke-dasharray="none" version="1.1" d="M15.75,-0C5.208,-0,0,5.334,0,16.001L0,89.795C0,100.525,5.208,105.796,15.75,105.796L33.511,105.796L33.511,96.76L16.252,96.76C11.483,96.76,9.036,94.187,9.036,89.669L9.036,16.127C9.036,11.609,11.483,9.036,16.252,9.036L67.33,9.036C72.036,9.036,74.484,11.609,74.484,16.127L74.484,54.068L83.582,54.068L83.582,16.001C83.582,5.334,78.311,-0,67.77,-0ZM23.594,23.029C21.586,23.029,20.143,24.472,20.143,26.355C20.143,28.3,21.586,29.806,23.594,29.806L60.051,29.806C61.997,29.806,63.44,28.3,63.44,26.355C63.44,24.472,61.997,23.029,60.051,23.029ZM23.594,40.097C21.586,40.097,20.143,41.603,20.143,43.423C20.143,45.368,21.586,46.937,23.594,46.937L60.051,46.937C61.997,46.937,63.44,45.368,63.44,43.423C63.44,41.603,61.997,40.097,60.051,40.097ZM23.594,57.228C21.586,57.228,20.143,58.734,20.143,60.679C20.143,62.561,21.586,64.005,23.594,64.005L33.511,64.005L33.511,57.228ZM23.594,57.228"/>
  <path stroke="none" stroke-linecap="butt" fill="#000000" stroke-dasharray="none" version="1.1" fill-opacity="1" stroke-width="0.0625px" fill-rule="nonzero" stroke-opacity="1" xmlns:svg="http://www.w3.org/2000/svg" stroke-miterlimit="4" stroke-linejoin="miter" d="M45.13,80.914C50.804,80.914,54.208,76.375,54.208,69.112C54.208,61.817,50.772,57.342,45.13,57.342C39.521,57.342,36.084,61.849,36.084,69.112C36.084,76.407,39.488,80.914,45.13,80.914ZM45.13,76.861C42.374,76.861,40.785,74.04,40.785,69.112C40.785,64.216,42.406,61.395,45.13,61.395C47.854,61.395,49.507,64.184,49.507,69.112C49.507,74.04,47.886,76.861,45.13,76.861ZM74.44,105.101C80.082,105.101,83.486,100.53,83.486,93.267C83.486,85.972,80.049,81.53,74.44,81.53C68.831,81.53,65.394,86.004,65.394,93.267C65.394,100.562,68.799,105.101,74.44,105.101ZM74.44,101.048C71.684,101.048,70.096,98.228,70.096,93.267C70.096,88.403,71.717,85.583,74.44,85.583C77.164,85.583,78.785,88.371,78.785,93.267C78.785,98.228,77.196,101.048,74.44,101.048ZM43.217,105.198C44.287,105.814,45.876,105.717,46.816,104.388L76.904,60.747C77.942,59.288,77.326,57.796,76.223,57.148C75.218,56.597,73.792,56.726,72.754,58.185L42.666,101.664C41.596,103.188,42.147,104.55,43.217,105.198ZM43.217,105.198"/>
</g>
  <g id="Semibold-M" transform="matrix(1.0,0.0,0.0,1.0,1991.6521338210534,1037.6605642707666)">  <path stroke-opacity="1" stroke-width="0.0625px" fill="#000000" stroke="none" version="1.1" fill-rule="nonzero" stroke-miterlimit="4" stroke-linecap="butt" fill-opacity="1" stroke-dasharray="none" stroke-linejoin="miter" xmlns:svg="http://www.w3.org/2000/svg" d="M15.75,-0C5.208,-0,0,5.334,0,16.001L0,89.795C0,100.525,5.208,105.796,15.75,105.796L33.511,105.796L33.511,96.76L16.252,96.76C11.483,96.76,9.036,94.187,9.036,89.669L9.036,16.127C9.036,11.609,11.483,9.036,16.252,9.036L67.33,9.036C72.036,9.036,74.484,11.609,74.484,16.127L74.484,54.068L83.582,54.068L83.582,16.001C83.582,5.334,78.311,-0,67.77,-0ZM23.594,23.029C21.586,23.029,20.143,24.472,20.143,26.355C20.143,28.3,21.586,29.806,23.594,29.806L60.051,29.806C61.997,29.806,63.44,28.3,63.44,26.355C63.44,24.472,61.997,23.029,60.051,23.029ZM23.594,40.097C21.586,40.097,20.143,41.603,20.143,43.423C20.143,45.368,21.586,46.937,23.594,46.937L60.051,46.937C61.997,46.937,63.44,45.368,63.44,43.423C63.44,41.603,61.997,40.097,60.051,40.097ZM23.594,57.228C21.586,57.228,20.143,58.734,20.143,60.679C20.143,62.561,21.586,64.005,23.594,64.005L33.511,64.005L33.511,57.228ZM23.594,57.228"/>
  <path stroke-width="0.0625px" stroke-linecap="butt" stroke-dasharray="none" stroke-linejoin="miter" stroke="none" xmlns:svg="http://www.w3.org/2000/svg" fill="#000000" stroke-opacity="1" version="1.1" fill-opacity="1" fill-rule="nonzero" stroke-miterlimit="4" d="M45.13,80.914C50.804,80.914,54.208,76.375,54.208,69.112C54.208,61.817,50.772,57.342,45.13,57.342C39.521,57.342,36.084,61.849,36.084,69.112C36.084,76.407,39.488,80.914,45.13,80.914ZM45.13,76.861C42.374,76.861,40.785,74.04,40.785,69.112C40.785,64.216,42.406,61.395,45.13,61.395C47.854,61.395,49.507,64.184,49.507,69.112C49.507,74.04,47.886,76.861,45.13,76.861ZM74.44,105.101C80.082,105.101,83.486,100.53,83.486,93.267C83.486,85.972,80.049,81.53,74.44,81.53C68.831,81.53,65.394,86.004,65.394,93.267C65.394,100.562,68.799,105.101,74.44,105.101ZM74.44,101.048C71.684,101.048,70.096,98.228,70.096,93.267C70.096,88.403,71.717,85.583,74.44,85.583C77.164,85.583,78.785,88.371,78.785,93.267C78.785,98.228,77.196,101.048,74.44,101.048ZM43.217,105.198C44.287,105.814,45.876,105.717,46.816,104.388L76.904,60.747C77.942,59.288,77.326,57.796,76.223,57.148C75.218,56.597,73.792,56.726,72.754,58.185L42.666,101.664C41.596,103.188,42.147,104.55,43.217,105.198ZM43.217,105.198"/>
</g>
  <g id="Medium-M" transform="matrix(1.0,0.0,0.0,1.0,1694.9421338210534,1037.6605642707666)">  <path fill-opacity="1" stroke-opacity="1" stroke="none" version="1.1" fill-rule="nonzero" stroke-linejoin="miter" stroke-width="0.0625px" stroke-linecap="butt" xmlns:svg="http://www.w3.org/2000/svg" stroke-miterlimit="4" fill="#000000" stroke-dasharray="none" d="M15.75,-0C5.208,-0,0,5.334,0,16.001L0,89.795C0,100.525,5.208,105.796,15.75,105.796L33.511,105.796L33.511,96.76L16.252,96.76C11.483,96.76,9.036,94.187,9.036,89.669L9.036,16.127C9.036,11.609,11.483,9.036,16.252,9.036L67.33,9.036C72.036,9.036,74.484,11.609,74.484,16.127L74.484,54.068L83.582,54.068L83.582,16.001C83.582,5.334,78.311,-0,67.77,-0ZM23.594,23.029C21.586,23.029,20.143,24.472,20.143,26.355C20.143,28.3,21.586,29.806,23.594,29.806L60.051,29.806C61.997,29.806,63.44,28.3,63.44,26.355C63.44,24.472,61.997,23.029,60.051,23.029ZM23.594,40.097C21.586,40.097,20.143,41.603,20.143,43.423C20.143,45.368,21.586,46.937,23.594,46.937L60.051,46.937C61.997,46.937,63.44,45.368,63.44,43.423C63.44,41.603,61.997,40.097,60.051,40.097ZM23.594,57.228C21.586,57.228,20.143,58.734,20.143,60.679C20.143,62.561,21.586,64.005,23.594,64.005L33.511,64.005L33.511,57.228ZM23.594,57.228"/>
  <path fill="#000000" stroke-miterlimit="4" fill-opacity="1" stroke-width="0.0625px" stroke="none" stroke-dasharray="none" stroke-opacity="1" version="1.1" xmlns:svg="http://www.w3.org/2000/svg" stroke-linejoin="miter" stroke-linecap="butt" fill-rule="nonzero" d="M45.13,80.914C50.804,80.914,54.208,76.375,54.208,69.112C54.208,61.817,50.772,57.342,45.13,57.342C39.521,57.342,36.084,61.849,36.084,69.112C36.084,76.407,39.488,80.914,45.13,80.914ZM45.13,76.861C42.374,76.861,40.785,74.04,40.785,69.112C40.785,64.216,42.406,61.395,45.13,61.395C47.854,61.395,49.507,64.184,49.507,69.112C49.507,74.04,47.886,76.861,45.13,76.861ZM74.44,105.101C80.082,105.101,83.486,100.53,83.486,93.267C83.486,85.972,80.049,81.53,74.44,81.53C68.831,81.53,65.394,86.004,65.394,93.267C65.394,100.562,68.799,105.101,74.44,105.101ZM74.44,101.048C71.684,101.048,70.096,98.228,70.096,93.267C70.096,88.403,71.717,85.583,74.44,85.583C77.164,85.583,78.785,88.371,78.785,93.267C78.785,98.228,77.196,101.048,74.44,101.048ZM43.217,105.198C44.287,105.814,45.876,105.717,46.816,104.388L76.904,60.747C77.942,59.288,77.326,57.796,76.223,57.148C75.218,56.597,73.792,56.726,72.754,58.185L42.666,101.664C41.596,103.188,42.147,104.55,43.217,105.198ZM43.217,105.198"/>
</g>
  <g id="Regular-M" transform="matrix(1.0,0.0,0.0,1.0,1398.2321338210534,1037.6605642707666)">  <path stroke-linejoin="miter" fill-rule="nonzero" stroke-dasharray="none" stroke-opacity="1" stroke="none" stroke-linecap="butt" fill="#000000" version="1.1" xmlns:svg="http://www.w3.org/2000/svg" stroke-width="0.0625px" fill-opacity="1" stroke-miterlimit="4" d="M15.75,-0C5.208,-0,0,5.334,0,16.001L0,89.795C0,100.525,5.208,105.796,15.75,105.796L33.511,105.796L33.511,96.76L16.252,96.76C11.483,96.76,9.036,94.187,9.036,89.669L9.036,16.127C9.036,11.609,11.483,9.036,16.252,9.036L67.33,9.036C72.036,9.036,74.484,11.609,74.484,16.127L74.484,54.068L83.582,54.068L83.582,16.001C83.582,5.334,78.311,-0,67.77,-0ZM23.594,23.029C21.586,23.029,20.143,24.472,20.143,26.355C20.143,28.3,21.586,29.806,23.594,29.806L60.051,29.806C61.997,29.806,63.44,28.3,63.44,26.355C63.44,24.472,61.997,23.029,60.051,23.029ZM23.594,40.097C21.586,40.097,20.143,41.603,20.143,43.423C20.143,45.368,21.586,46.937,23.594,46.937L60.051,46.937C61.997,46.937,63.44,45.368,63.44,43.423C63.44,41.603,61.997,40.097,60.051,40.097ZM23.594,57.228C21.586,57.228,20.143,58.734,20.143,60.679C20.143,62.561,21.586,64.005,23.594,64.005L33.511,64.005L33.511,57.228ZM23.594,57.228"/>
  <path stroke-opacity="1" fill="#000000" fill-opacity="1" version="1.1" stroke-width="0.0625px" xmlns:svg="http://www.w3.org/2000/svg" stroke-linejoin="miter" stroke-dasharray="none" stroke="none" fill-rule="nonzero" stroke-miterlimit="4" stroke-linecap="butt" d="M45.13,80.914C50.804,80.914,54.208,76.375,54.208,69.112C54.208,61.817,50.772,57.342,45.13,57.342C39.521,57.342,36.084,61.849,36.084,69.112C36.084,76.407,39.488,80.914,45.13,80.914ZM45.13,76.861C42.374,76.861,40.785,74.04,40.785,69.112C40.785,64.216,42.406,61.395,45.13,61.395C47.854,61.395,49.507,64.184,49.507,69.112C49.507,74.04,47.886,76.861,45.13,76.861ZM74.44,105.101C80.082,105.101,83.486,100.53,83.486,93.267C83.486,85.972,80.049,81.53,74.44,81.53C68.831,81.53,65.394,86.004,65.394,93.267C65.394,100.562,68.799,105.101,74.44,105.101ZM74.44,101.048C71.684,101.048,70.096,98.228,70.096,93.267C70.096,88.403,71.717,85.583,74.44,85.583C77.164,85.583,78.785,88.371,78.785,93.267C78.785,98.228,77.196,101.048,74.44,101.048ZM43.217,105.198C44.287,105.814,45.876,105.717,46.816,104.388L76.904,60.747C77.942,59.288,77.326,57.796,76.223,57.148C75.218,56.597,73.792,56.726,72.754,58.185L42.666,101.664C41.596,103.188,42.147,104.55,43.217,105.198ZM43.217,105.198"/>
</g>
  <g id="Light-M" transform="matrix(1.0,0.0,0.0,1.0,1101.5221338210536,1037.6605642707666)">  <path stroke-miterlimit="4" stroke-width="0.0625px" fill="#000000" stroke="none" stroke-dasharray="none" fill-opacity="1" xmlns:svg="http://www.w3.org/2000/svg" stroke-opacity="1" stroke-linecap="butt" stroke-linejoin="miter" fill-rule="nonzero" version="1.1" d="M15.75,-0C5.208,-0,0,5.334,0,16.001L0,89.795C0,100.525,5.208,105.796,15.75,105.796L33.511,105.796L33.511,96.76L16.252,96.76C11.483,96.76,9.036,94.187,9.036,89.669L9.036,16.127C9.036,11.609,11.483,9.036,16.252,9.036L67.33,9.036C72.036,9.036,74.484,11.609,74.484,16.127L74.484,54.068L83.582,54.068L83.582,16.001C83.582,5.334,78.311,-0,67.77,-0ZM23.594,23.029C21.586,23.029,20.143,24.472,20.143,26.355C20.143,28.3,21.586,29.806,23.594,29.806L60.051,29.806C61.997,29.806,63.44,28.3,63.44,26.355C63.44,24.472,61.997,23.029,60.051,23.029ZM23.594,40.097C21.586,40.097,20.143,41.603,20.143,43.423C20.143,45.368,21.586,46.937,23.594,46.937L60.051,46.937C61.997,46.937,63.44,45.368,63.44,43.423C63.44,41.603,61.997,40.097,60.051,40.097ZM23.594,57.228C21.586,57.228,20.143,58.734,20.143,60.679C20.143,62.561,21.586,64.005,23.594,64.005L33.511,64.005L33.511,57.228ZM23.594,57.228"/>
  <path stroke-linejoin="miter" fill="#000000" version="1.1" stroke-dasharray="none" stroke-linecap="butt" xmlns:svg="http://www.w3.org/2000/svg" stroke-opacity="1" stroke="none" fill-rule="nonzero" stroke-miterlimit="4" fill-opacity="1" stroke-width="0.0625px" d="M45.13,80.914C50.804,80.914,54.208,76.375,54.208,69.112C54.208,61.817,50.772,57.342,45.13,57.342C39.521,57.342,36.084,61.849,36.084,69.112C36.084,76.407,39.488,80.914,45.13,80.914ZM45.13,76.861C42.374,76.861,40.785,74.04,40.785,69.112C40.785,64.216,42.406,61.395,45.13,61.395C47.854,61.395,49.507,64.184,49.507,69.112C49.507,74.04,47.886,76.861,45.13,76.861ZM74.44,105.101C80.082,105.101,83.486,100.53,83.486,93.267C83.486,85.972,80.049,81.53,74.44,81.53C68.831,81.53,65.394,86.004,65.394,93.267C65.394,100.562,68.799,105.101,74.44,105.101ZM74.44,101.048C71.684,101.048,70.096,98.228,70.096,93.267C70.096,88.403,71.717,85.583,74.44,85.583C77.164,85.583,78.785,88.371,78.785,93.267C78.785,98.228,77.196,101.048,74.44,101.048ZM43.217,105.198C44.287,105.814,45.876,105.717,46.816,104.388L76.904,60.747C77.942,59.288,77.326,57.796,76.223,57.148C75.218,56.597,73.792,56.726,72.754,58.185L42.666,101.664C41.596,103.188,42.147,104.55,43.217,105.198ZM43.217,105.198"/>
</g>
  <g id="Thin-M" transform="matrix(1.0,0.0,0.0,1.0,804.8121338210534,1037.6605642707666)">  <path stroke-miterlimit="4" stroke-opacity="1" stroke-linejoin="miter" stroke="none" stroke-linecap="butt" stroke-dasharray="none" fill="#000000" version="1.1" stroke-width="0.0625px" fill-rule="nonzero" fill-opacity="1" xmlns:svg="http://www.w3.org/2000/svg" d="M15.75,-0C5.208,-0,0,5.334,0,16.001L0,89.795C0,100.525,5.208,105.796,15.75,105.796L33.511,105.796L33.511,96.76L16.252,96.76C11.483,96.76,9.036,94.187,9.036,89.669L9.036,16.127C9.036,11.609,11.483,9.036,16.252,9.036L67.33,9.036C72.036,9.036,74.484,11.609,74.484,16.127L74.484,54.068L83.582,54.068L83.582,16.001C83.582,5.334,78.311,-0,67.77,-0ZM23.594,23.029C21.586,23.029,20.143,24.472,20.143,26.355C20.143,28.3,21.586,29.806,23.594,29.806L60.051,29.806C61.997,29.806,63.44,28.3,63.44,26.355C63.44,24.472,61.997,23.029,60.051,23.029ZM23.594,40.097C21.586,40.097,20.143,41.603,20.143,43.423C20.143,45.368,21.586,46.937,23.594,46.937L60.051,46.937C61.997,46.937,63.44,45.368,63.44,43.423C63.44,41.603,61.997,40.097,60.051,40.097ZM23.594,57.228C21.586,57.228,20.143,58.734,20.143,60.679C20.143,62.561,21.586,64.005,23.594,64.005L33.511,64.005L33.511,57.228ZM23.594,57.228"/>
  <path fill-rule="nonzero" stroke-linejoin="miter" xmlns:svg="http://www.w3.org/2000/svg" stroke-miterlimit="4" stroke-opacity="1" fill-opacity="1" stroke-linecap="butt" stroke-width="0.0625px" stroke="none" fill="#000000" stroke-dasharray="none" version="1.1" d="M45.13,80.914C50.804,80.914,54.208,76.375,54.208,69.112C54.208,61.817,50.772,57.342,45.13,57.342C39.521,57.342,36.084,61.849,36.084,69.112C36.084,76.407,39.488,80.914,45.13,80.914ZM45.13,76.861C42.374,76.861,40.785,74.04,40.785,69.112C40.785,64.216,42.406,61.395,45.13,61.395C47.854,61.395,49.507,64.184,49.507,69.112C49.507,74.04,47.886,76.861,45.13,76.861ZM74.44,105.101C80.082,105.101,83.486,100.53,83.486,93.267C83.486,85.972,80.049,81.53,74.44,81.53C68.831,81.53,65.394,86.004,65.394,93.267C65.394,100.562,68.799,105.101,74.44,105.101ZM74.44,101.048C71.684,101.048,70.096,98.228,70.096,93.267C70.096,88.403,71.717,85.583,74.44,85.583C77.164,85.583,78.785,88.371,78.785,93.267C78.785,98.228,77.196,101.048,74.44,101.048ZM43.217,105.198C44.287,105.814,45.876,105.717,46.816,104.388L76.904,60.747C77.942,59.288,77.326,57.796,76.223,57.148C75.218,56.597,73.792,56.726,72.754,58.185L42.666,101.664C41.596,103.188,42.147,104.55,43.217,105.198ZM43.217,105.198"/>
</g>
  <g id="Ultralight-M" transform="matrix(1.0,0.0,0.0,1.0,508.10213382105337,1037.6605642707666)">  <path stroke-opacity="1" stroke-miterlimit="4" stroke-dasharray="none" stroke-linejoin="miter" fill-rule="nonzero" stroke-linecap="butt" version="1.1" stroke="none" fill-opacity="1" stroke-width="0.0625px" fill="#000000" xmlns:svg="http://www.w3.org/2000/svg" d="M15.75,-0C5.208,-0,0,5.334,0,16.001L0,89.795C0,100.525,5.208,105.796,15.75,105.796L33.511,105.796L33.511,96.76L16.252,96.76C11.483,96.76,9.036,94.187,9.036,89.669L9.036,16.127C9.036,11.609,11.483,9.036,16.252,9.036L67.33,9.036C72.036,9.036,74.484,11.609,74.484,16.127L74.484,54.068L83.582,54.068L83.582,16.001C83.582,5.334,78.311,-0,67.77,-0ZM23.594,23.029C21.586,23.029,20.143,24.472,20.143,26.355C20.143,28.3,21.586,29.806,23.594,29.806L60.051,29.806C61.997,29.806,63.44,28.3,63.44,26.355C63.44,24.472,61.997,23.029,60.051,23.029ZM23.594,40.097C21.586,40.097,20.143,41.603,20.143,43.423C20.143,45.368,21.586,46.937,23.594,46.937L60.051,46.937C61.997,46.937,63.44,45.368,63.44,43.423C63.44,41.603,61.997,40.097,60.051,40.097ZM23.594,57.228C21.586,57.228,20.143,58.734,20.143,60.679C20.143,62.561,21.586,64.005,23.594,64.005L33.511,64.005L33.511,57.228ZM23.594,57.228"/>
  <path fill-opacity="1" stroke="none" fill-rule="nonzero" xmlns:svg="http://www.w3.org/2000/svg" stroke-opacity="1" fill="#000000" version="1.1" stroke-miterlimit="4" stroke-linecap="butt" stroke-width="0.0625px" stroke-linejoin="miter" stroke-dasharray="none" d="M45.13,80.914C50.804,80.914,54.208,76.375,54.208,69.112C54.208,61.817,50.772,57.342,45.13,57.342C39.521,57.342,36.084,61.849,36.084,69.112C36.084,76.407,39.488,80.914,45.13,80.914ZM45.13,76.861C42.374,76.861,40.785,74.04,40.785,69.112C40.785,64.216,42.406,61.395,45.13,61.395C47.854,61.395,49.507,64.184,49.507,69.112C49.507,74.04,47.886,76.861,45.13,76.861ZM74.44,105.101C80.082,105.101,83.486,100.53,83.486,93.267C83.486,85.972,80.049,81.53,74.44,81.53C68.831,81.53,65.394,86.004,65.394,93.267C65.394,100.562,68.799,105.101,74.44,105.101ZM74.44,101.048C71.684,101.048,70.096,98.228,70.096,93.267C70.096,88.403,71.717,85.583,74.44,85.583C77.164,85.583,78.785,88.371,78.785,93.267C78.785,98.228,77.196,101.048,74.44,101.048ZM43.217,105.198C44.287,105.814,45.876,105.717,46.816,104.388L76.904,60.747C77.942,59.288,77.326,57.796,76.223,57.148C75.218,56.597,73.792,56.726,72.754,58.185L42.666,101.664C41.596,103.188,42.147,104.55,43.217,105.198ZM43.217,105.198"/>
</g>
  <g id="Black-S" transform="matrix(1.0,0.0,0.0,1.0,2893.2609707818847,619.1853160622916)">  <path stroke-linecap="butt" stroke-width="0.0625px" xmlns:svg="http://www.w3.org/2000/svg" stroke-dasharray="none" fill="#000000" stroke-linejoin="miter" stroke="none" stroke-opacity="1" fill-rule="nonzero" stroke-miterlimit="4" fill-opacity="1" version="1.1" d="M12.332,-0C4.078,-0,0,4.176,0,12.529L0,70.309C0,78.711,4.078,82.838,12.332,82.838L26.239,82.838L26.239,75.763L12.725,75.763C8.991,75.763,7.075,73.748,7.075,70.211L7.075,12.627C7.075,9.09,8.991,7.075,12.725,7.075L52.72,7.075C56.405,7.075,58.321,9.09,58.321,12.627L58.321,42.335L65.445,42.335L65.445,12.529C65.445,4.176,61.318,-0,53.064,-0ZM18.474,18.032C16.902,18.032,15.772,19.162,15.772,20.636C15.772,22.159,16.902,23.338,18.474,23.338L47.02,23.338C48.543,23.338,49.673,22.159,49.673,20.636C49.673,19.162,48.543,18.032,47.02,18.032ZM18.474,31.396C16.902,31.396,15.772,32.575,15.772,34C15.772,35.523,16.902,36.751,18.474,36.751L47.02,36.751C48.543,36.751,49.673,35.523,49.673,34C49.673,32.575,48.543,31.396,47.02,31.396ZM18.474,44.809C16.902,44.809,15.772,45.988,15.772,47.512C15.772,48.985,16.902,50.116,18.474,50.116L26.239,50.116L26.239,44.809ZM18.474,44.809"/>
  <path xmlns:svg="http://www.w3.org/2000/svg" fill-opacity="1" fill="#000000" stroke="none" stroke-linejoin="miter" stroke-dasharray="none" fill-rule="nonzero" stroke-linecap="butt" stroke-width="0.0625px" stroke-opacity="1" version="1.1" stroke-miterlimit="4" d="M35.337,63.355C39.78,63.355,42.445,59.801,42.445,54.115C42.445,48.402,39.754,44.899,35.337,44.899C30.945,44.899,28.254,48.428,28.254,54.115C28.254,59.827,30.919,63.355,35.337,63.355ZM35.337,60.182C33.179,60.182,31.935,57.973,31.935,54.115C31.935,50.281,33.204,48.072,35.337,48.072C37.469,48.072,38.764,50.256,38.764,54.115C38.764,57.973,37.495,60.182,35.337,60.182ZM58.287,82.294C62.704,82.294,65.37,78.715,65.37,73.028C65.37,67.316,62.679,63.838,58.287,63.838C53.895,63.838,51.204,67.341,51.204,73.028C51.204,78.74,53.869,82.294,58.287,82.294ZM58.287,79.121C56.129,79.121,54.885,76.912,54.885,73.028C54.885,69.22,56.154,67.011,58.287,67.011C60.419,67.011,61.689,69.194,61.689,73.028C61.689,76.912,60.445,79.121,58.287,79.121ZM33.839,82.37C34.677,82.853,35.921,82.777,36.657,81.736L60.216,47.565C61.029,46.422,60.546,45.254,59.683,44.747C58.896,44.315,57.779,44.417,56.967,45.559L33.407,79.603C32.57,80.796,33.001,81.863,33.839,82.37ZM33.839,82.37"/>
</g>
  <g id="Heavy-S" transform="matrix(1.0,0.0,0.0,1.0,2596.5509707818846,619.1853160622916)">  <path stroke-linejoin="miter" stroke-miterlimit="4" fill-rule="nonzero" fill="#000000" xmlns:svg="http://www.w3.org/2000/svg" version="1.1" stroke-width="0.0625px" stroke-dasharray="none" stroke="none" fill-opacity="1" stroke-opacity="1" stroke-linecap="butt" d="M12.332,-0C4.078,-0,0,4.176,0,12.529L0,70.309C0,78.711,4.078,82.838,12.332,82.838L26.239,82.838L26.239,75.763L12.725,75.763C8.991,75.763,7.075,73.748,7.075,70.211L7.075,12.627C7.075,9.09,8.991,7.075,12.725,7.075L52.72,7.075C56.405,7.075,58.321,9.09,58.321,12.627L58.321,42.335L65.445,42.335L65.445,12.529C65.445,4.176,61.318,-0,53.064,-0ZM18.474,18.032C16.902,18.032,15.772,19.162,15.772,20.636C15.772,22.159,16.902,23.338,18.474,23.338L47.02,23.338C48.543,23.338,49.673,22.159,49.673,20.636C49.673,19.162,48.543,18.032,47.02,18.032ZM18.474,31.396C16.902,31.396,15.772,32.575,15.772,34C15.772,35.523,16.902,36.751,18.474,36.751L47.02,36.751C48.543,36.751,49.673,35.523,49.673,34C49.673,32.575,48.543,31.396,47.02,31.396ZM18.474,44.809C16.902,44.809,15.772,45.988,15.772,47.512C15.772,48.985,16.902,50.116,18.474,50.116L26.239,50.116L26.239,44.809ZM18.474,44.809"/>
  <path stroke-opacity="1" stroke="none" fill="#000000" stroke-linecap="butt" stroke-linejoin="miter" fill-rule="nonzero" fill-opacity="1" xmlns:svg="http://www.w3.org/2000/svg" stroke-width="0.0625px" stroke-miterlimit="4" stroke-dasharray="none" version="1.1" d="M35.337,63.355C39.78,63.355,42.445,59.801,42.445,54.115C42.445,48.402,39.754,44.899,35.337,44.899C30.945,44.899,28.254,48.428,28.254,54.115C28.254,59.827,30.919,63.355,35.337,63.355ZM35.337,60.182C33.179,60.182,31.935,57.973,31.935,54.115C31.935,50.281,33.204,48.072,35.337,48.072C37.469,48.072,38.764,50.256,38.764,54.115C38.764,57.973,37.495,60.182,35.337,60.182ZM58.287,82.294C62.704,82.294,65.37,78.715,65.37,73.028C65.37,67.316,62.679,63.838,58.287,63.838C53.895,63.838,51.204,67.341,51.204,73.028C51.204,78.74,53.869,82.294,58.287,82.294ZM58.287,79.121C56.129,79.121,54.885,76.912,54.885,73.028C54.885,69.22,56.154,67.011,58.287,67.011C60.419,67.011,61.689,69.194,61.689,73.028C61.689,76.912,60.445,79.121,58.287,79.121ZM33.839,82.37C34.677,82.853,35.921,82.777,36.657,81.736L60.216,47.565C61.029,46.422,60.546,45.254,59.683,44.747C58.896,44.315,57.779,44.417,56.967,45.559L33.407,79.603C32.57,80.796,33.001,81.863,33.839,82.37ZM33.839,82.37"/>
</g>
  <g id="Bold-S" transform="matrix(1.0,0.0,0.0,1.0,2299.8409707818846,619.1853160622916)">  <path fill-opacity="1" stroke-linecap="butt" xmlns:svg="http://www.w3.org/2000/svg" stroke="none" stroke-opacity="1" stroke-linejoin="miter" stroke-miterlimit="4" fill="#000000" fill-rule="nonzero" stroke-width="0.0625px" stroke-dasharray="none" version="1.1" d="M12.332,-0C4.078,-0,0,4.176,0,12.529L0,70.309C0,78.711,4.078,82.838,12.332,82.838L26.239,82.838L26.239,75.763L12.725,75.763C8.991,75.763,7.075,73.748,7.075,70.211L7.075,12.627C7.075,9.09,8.991,7.075,12.725,7.075L52.72,7.075C56.405,7.075,58.321,9.09,58.321,12.627L58.321,42.335L65.445,42.335L65.445,12.529C65.445,4.176,61.318,-0,53.064,-0ZM18.474,18.032C16.902,18.032,15.772,19.162,15.772,20.636C15.772,22.159,16.902,23.338,18.474,23.338L47.02,23.338C48.543,23.338,49.673,22.159,49.673,20.636C49.673,19.162,48.543,18.032,47.02,18.032ZM18.474,31.396C16.902,31.396,15.772,32.575,15.772,34C15.772,35.523,16.902,36.751,18.474,36.751L47.02,36.751C48.543,36.751,49.673,35.523,49.673,34C49.673,32.575,48.543,31.396,47.02,31.396ZM18.474,44.809C16.902,44.809,15.772,45.988,15.772,47.512C15.772,48.985,16.902,50.116,18.474,50.116L26.239,50.116L26.239,44.809ZM18.474,44.809"/>
  <path stroke="none" stroke-linecap="butt" fill="#000000" stroke-dasharray="none" version="1.1" fill-opacity="1" stroke-width="0.0625px" fill-rule="nonzero" stroke-opacity="1" xmlns:svg="http://www.w3.org/2000/svg" stroke-miterlimit="4" stroke-linejoin="miter" d="M35.337,63.355C39.78,63.355,42.445,59.801,42.445,54.115C42.445,48.402,39.754,44.899,35.337,44.899C30.945,44.899,28.254,48.428,28.254,54.115C28.254,59.827,30.919,63.355,35.337,63.355ZM35.337,60.182C33.179,60.182,31.935,57.973,31.935,54.115C31.935,50.281,33.204,48.072,35.337,48.072C37.469,48.072,38.764,50.256,38.764,54.115C38.764,57.973,37.495,60.182,35.337,60.182ZM58.287,82.294C62.704,82.294,65.37,78.715,65.37,73.028C65.37,67.316,62.679,63.838,58.287,63.838C53.895,63.838,51.204,67.341,51.204,73.028C51.204,78.74,53.869,82.294,58.287,82.294ZM58.287,79.121C56.129,79.121,54.885,76.912,54.885,73.028C54.885,69.22,56.154,67.011,58.287,67.011C60.419,67.011,61.689,69.194,61.689,73.028C61.689,76.912,60.445,79.121,58.287,79.121ZM33.839,82.37C34.677,82.853,35.921,82.777,36.657,81.736L60.216,47.565C61.029,46.422,60.546,45.254,59.683,44.747C58.896,44.315,57.779,44.417,56.967,45.559L33.407,79.603C32.57,80.796,33.001,81.863,33.839,82.37ZM33.839,82.37"/>
</g>
  <g id="Semibold-S" transform="matrix(1.0,0.0,0.0,1.0,2003.1309707818848,619.1853160622916)">  <path stroke-opacity="1" stroke-width="0.0625px" fill="#000000" stroke="none" version="1.1" fill-rule="nonzero" stroke-miterlimit="4" stroke-linecap="butt" fill-opacity="1" stroke-dasharray="none" stroke-linejoin="miter" xmlns:svg="http://www.w3.org/2000/svg" d="M12.332,-0C4.078,-0,0,4.176,0,12.529L0,70.309C0,78.711,4.078,82.838,12.332,82.838L26.239,82.838L26.239,75.763L12.725,75.763C8.991,75.763,7.075,73.748,7.075,70.211L7.075,12.627C7.075,9.09,8.991,7.075,12.725,7.075L52.72,7.075C56.405,7.075,58.321,9.09,58.321,12.627L58.321,42.335L65.445,42.335L65.445,12.529C65.445,4.176,61.318,-0,53.064,-0ZM18.474,18.032C16.902,18.032,15.772,19.162,15.772,20.636C15.772,22.159,16.902,23.338,18.474,23.338L47.02,23.338C48.543,23.338,49.673,22.159,49.673,20.636C49.673,19.162,48.543,18.032,47.02,18.032ZM18.474,31.396C16.902,31.396,15.772,32.575,15.772,34C15.772,35.523,16.902,36.751,18.474,36.751L47.02,36.751C48.543,36.751,49.673,35.523,49.673,34C49.673,32.575,48.543,31.396,47.02,31.396ZM18.474,44.809C16.902,44.809,15.772,45.988,15.772,47.512C15.772,48.985,16.902,50.116,18.474,50.116L26.239,50.116L26.239,44.809ZM18.474,44.809"/>
  <path stroke-width="0.0625px" stroke-linecap="butt" stroke-dasharray="none" stroke-linejoin="miter" stroke="none" xmlns:svg="http://www.w3.org/2000/svg" fill="#000000" stroke-opacity="1" version="1.1" fill-opacity="1" fill-rule="nonzero" stroke-miterlimit="4" d="M35.337,63.355C39.78,63.355,42.445,59.801,42.445,54.115C42.445,48.402,39.754,44.899,35.337,44.899C30.945,44.899,28.254,48.428,28.254,54.115C28.254,59.827,30.919,63.355,35.337,63.355ZM35.337,60.182C33.179,60.182,31.935,57.973,31.935,54.115C31.935,50.281,33.204,48.072,35.337,48.072C37.469,48.072,38.764,50.256,38.764,54.115C38.764,57.973,37.495,60.182,35.337,60.182ZM58.287,82.294C62.704,82.294,65.37,78.715,65.37,73.028C65.37,67.316,62.679,63.838,58.287,63.838C53.895,63.838,51.204,67.341,51.204,73.028C51.204,78.74,53.869,82.294,58.287,82.294ZM58.287,79.121C56.129,79.121,54.885,76.912,54.885,73.028C54.885,69.22,56.154,67.011,58.287,67.011C60.419,67.011,61.689,69.194,61.689,73.028C61.689,76.912,60.445,79.121,58.287,79.121ZM33.839,82.37C34.677,82.853,35.921,82.777,36.657,81.736L60.216,47.565C61.029,46.422,60.546,45.254,59.683,44.747C58.896,44.315,57.779,44.417,56.967,45.559L33.407,79.603C32.57,80.796,33.001,81.863,33.839,82.37ZM33.839,82.37"/>
</g>
  <g id="Medium-S" transform="matrix(1.0,0.0,0.0,1.0,1706.4209707818848,619.1853160622916)">  <path fill-opacity="1" stroke-opacity="1" stroke="none" version="1.1" fill-rule="nonzero" stroke-linejoin="miter" stroke-width="0.0625px" stroke-linecap="butt" xmlns:svg="http://www.w3.org/2000/svg" stroke-miterlimit="4" fill="#000000" stroke-dasharray="none" d="M12.332,-0C4.078,-0,0,4.176,0,12.529L0,70.309C0,78.711,4.078,82.838,12.332,82.838L26.239,82.838L26.239,75.763L12.725,75.763C8.991,75.763,7.075,73.748,7.075,70.211L7.075,12.627C7.075,9.09,8.991,7.075,12.725,7.075L52.72,7.075C56.405,7.075,58.321,9.09,58.321,12.627L58.321,42.335L65.445,42.335L65.445,12.529C65.445,4.176,61.318,-0,53.064,-0ZM18.474,18.032C16.902,18.032,15.772,19.162,15.772,20.636C15.772,22.159,16.902,23.338,18.474,23.338L47.02,23.338C48.543,23.338,49.673,22.159,49.673,20.636C49.673,19.162,48.543,18.032,47.02,18.032ZM18.474,31.396C16.902,31.396,15.772,32.575,15.772,34C15.772,35.523,16.902,36.751,18.474,36.751L47.02,36.751C48.543,36.751,49.673,35.523,49.673,34C49.673,32.575,48.543,31.396,47.02,31.396ZM18.474,44.809C16.902,44.809,15.772,45.988,15.772,47.512C15.772,48.985,16.902,50.116,18.474,50.116L26.239,50.116L26.239,44.809ZM18.474,44.809"/>
  <path fill="#000000" stroke-miterlimit="4" fill-opacity="1" stroke-width="0.0625px" stroke="none" stroke-dasharray="none" stroke-opacity="1" version="1.1" xmlns:svg="http://www.w3.org/2000/svg" stroke-linejoin="miter" stroke-linecap="butt" fill-rule="nonzero" d="M35.337,63.355C39.78,63.355,42.445,59.801,42.445,54.115C42.445,48.402,39.754,44.899,35.337,44.899C30.945,44.899,28.254,48.428,28.254,54.115C28.254,59.827,30.919,63.355,35.337,63.355ZM35.337,60.182C33.179,60.182,31.935,57.973,31.935,54.115C31.935,50.281,33.204,48.072,35.337,48.072C37.469,48.072,38.764,50.256,38.764,54.115C38.764,57.973,37.495,60.182,35.337,60.182ZM58.287,82.294C62.704,82.294,65.37,78.715,65.37,73.028C65.37,67.316,62.679,63.838,58.287,63.838C53.895,63.838,51.204,67.341,51.204,73.028C51.204,78.74,53.869,82.294,58.287,82.294ZM58.287,79.121C56.129,79.121,54.885,76.912,54.885,73.028C54.885,69.22,56.154,67.011,58.287,67.011C60.419,67.011,61.689,69.194,61.689,73.028C61.689,76.912,60.445,79.121,58.287,79.121ZM33.839,82.37C34.677,82.853,35.921,82.777,36.657,81.736L60.216,47.565C61.029,46.422,60.546,45.254,59.683,44.747C58.896,44.315,57.779,44.417,56.967,45.559L33.407,79.603C32.57,80.796,33.001,81.863,33.839,82.37ZM33.839,82.37"/>
</g>
  <g id="Regular-S" transform="matrix(1.0,0.0,0.0,1.0,1409.7109707818847,619.1853160622916)">  <path stroke-linejoin="miter" fill-rule="nonzero" stroke-dasharray="none" stroke-opacity="1" stroke="none" stroke-linecap="butt" fill="#000000" version="1.1" xmlns:svg="http://www.w3.org/2000/svg" stroke-width="0.0625px" fill-opacity="1" stroke-miterlimit="4" d="M12.332,-0C4.078,-0,0,4.176,0,12.529L0,70.309C0,78.711,4.078,82.838,12.332,82.838L26.239,82.838L26.239,75.763L12.725,75.763C8.991,75.763,7.075,73.748,7.075,70.211L7.075,12.627C7.075,9.09,8.991,7.075,12.725,7.075L52.72,7.075C56.405,7.075,58.321,9.09,58.321,12.627L58.321,42.335L65.445,42.335L65.445,12.529C65.445,4.176,61.318,-0,53.064,-0ZM18.474,18.032C16.902,18.032,15.772,19.162,15.772,20.636C15.772,22.159,16.902,23.338,18.474,23.338L47.02,23.338C48.543,23.338,49.673,22.159,49.673,20.636C49.673,19.162,48.543,18.032,47.02,18.032ZM18.474,31.396C16.902,31.396,15.772,32.575,15.772,34C15.772,35.523,16.902,36.751,18.474,36.751L47.02,36.751C48.543,36.751,49.673,35.523,49.673,34C49.673,32.575,48.543,31.396,47.02,31.396ZM18.474,44.809C16.902,44.809,15.772,45.988,15.772,47.512C15.772,48.985,16.902,50.116,18.474,50.116L26.239,50.116L26.239,44.809ZM18.474,44.809"/>
  <path stroke-opacity="1" fill="#000000" fill-opacity="1" version="1.1" stroke-width="0.0625px" xmlns:svg="http://www.w3.org/2000/svg" stroke-linejoin="miter" stroke-dasharray="none" stroke="none" fill-rule="nonzero" stroke-miterlimit="4" stroke-linecap="butt" d="M35.337,63.355C39.78,63.355,42.445,59.801,42.445,54.115C42.445,48.402,39.754,44.899,35.337,44.899C30.945,44.899,28.254,48.428,28.254,54.115C28.254,59.827,30.919,63.355,35.337,63.355ZM35.337,60.182C33.179,60.182,31.935,57.973,31.935,54.115C31.935,50.281,33.204,48.072,35.337,48.072C37.469,48.072,38.764,50.256,38.764,54.115C38.764,57.973,37.495,60.182,35.337,60.182ZM58.287,82.294C62.704,82.294,65.37,78.715,65.37,73.028C65.37,67.316,62.679,63.838,58.287,63.838C53.895,63.838,51.204,67.341,51.204,73.028C51.204,78.74,53.869,82.294,58.287,82.294ZM58.287,79.121C56.129,79.121,54.885,76.912,54.885,73.028C54.885,69.22,56.154,67.011,58.287,67.011C60.419,67.011,61.689,69.194,61.689,73.028C61.689,76.912,60.445,79.121,58.287,79.121ZM33.839,82.37C34.677,82.853,35.921,82.777,36.657,81.736L60.216,47.565C61.029,46.422,60.546,45.254,59.683,44.747C58.896,44.315,57.779,44.417,56.967,45.559L33.407,79.603C32.57,80.796,33.001,81.863,33.839,82.37ZM33.839,82.37"/>
</g>
  <g id="Light-S" transform="matrix(1.0,0.0,0.0,1.0,1113.000970781885,619.1853160622916)">  <path stroke-miterlimit="4" stroke-width="0.0625px" fill="#000000" stroke="none" stroke-dasharray="none" fill-opacity="1" xmlns:svg="http://www.w3.org/2000/svg" stroke-opacity="1" stroke-linecap="butt" stroke-linejoin="miter" fill-rule="nonzero" version="1.1" d="M12.332,-0C4.078,-0,0,4.176,0,12.529L0,70.309C0,78.711,4.078,82.838,12.332,82.838L26.239,82.838L26.239,75.763L12.725,75.763C8.991,75.763,7.075,73.748,7.075,70.211L7.075,12.627C7.075,9.09,8.991,7.075,12.725,7.075L52.72,7.075C56.405,7.075,58.321,9.09,58.321,12.627L58.321,42.335L65.445,42.335L65.445,12.529C65.445,4.176,61.318,-0,53.064,-0ZM18.474,18.032C16.902,18.032,15.772,19.162,15.772,20.636C15.772,22.159,16.902,23.338,18.474,23.338L47.02,23.338C48.543,23.338,49.673,22.159,49.673,20.636C49.673,19.162,48.543,18.032,47.02,18.032ZM18.474,31.396C16.902,31.396,15.772,32.575,15.772,34C15.772,35.523,16.902,36.751,18.474,36.751L47.02,36.751C48.543,36.751,49.673,35.523,49.673,34C49.673,32.575,48.543,31.396,47.02,31.396ZM18.474,44.809C16.902,44.809,15.772,45.988,15.772,47.512C15.772,48.985,16.902,50.116,18.474,50.116L26.239,50.116L26.239,44.809ZM18.474,44.809"/>
  <path stroke-linejoin="miter" fill="#000000" version="1.1" stroke-dasharray="none" stroke-linecap="butt" xmlns:svg="http://www.w3.org/2000/svg" stroke-opacity="1" stroke="none" fill-rule="nonzero" stroke-miterlimit="4" fill-opacity="1" stroke-width="0.0625px" d="M35.337,63.355C39.78,63.355,42.445,59.801,42.445,54.115C42.445,48.402,39.754,44.899,35.337,44.899C30.945,44.899,28.254,48.428,28.254,54.115C28.254,59.827,30.919,63.355,35.337,63.355ZM35.337,60.182C33.179,60.182,31.935,57.973,31.935,54.115C31.935,50.281,33.204,48.072,35.337,48.072C37.469,48.072,38.764,50.256,38.764,54.115C38.764,57.973,37.495,60.182,35.337,60.182ZM58.287,82.294C62.704,82.294,65.37,78.715,65.37,73.028C65.37,67.316,62.679,63.838,58.287,63.838C53.895,63.838,51.204,67.341,51.204,73.028C51.204,78.74,53.869,82.294,58.287,82.294ZM58.287,79.121C56.129,79.121,54.885,76.912,54.885,73.028C54.885,69.22,56.154,67.011,58.287,67.011C60.419,67.011,61.689,69.194,61.689,73.028C61.689,76.912,60.445,79.121,58.287,79.121ZM33.839,82.37C34.677,82.853,35.921,82.777,36.657,81.736L60.216,47.565C61.029,46.422,60.546,45.254,59.683,44.747C58.896,44.315,57.779,44.417,56.967,45.559L33.407,79.603C32.57,80.796,33.001,81.863,33.839,82.37ZM33.839,82.37"/>
</g>
  <g id="Thin-S" transform="matrix(1.0,0.0,0.0,1.0,816.2909707818849,619.1853160622916)">  <path stroke-miterlimit="4" stroke-opacity="1" stroke-linejoin="miter" stroke="none" stroke-linecap="butt" stroke-dasharray="none" fill="#000000" version="1.1" stroke-width="0.0625px" fill-rule="nonzero" fill-opacity="1" xmlns:svg="http://www.w3.org/2000/svg" d="M12.332,-0C4.078,-0,0,4.176,0,12.529L0,70.309C0,78.711,4.078,82.838,12.332,82.838L26.239,82.838L26.239,75.763L12.725,75.763C8.991,75.763,7.075,73.748,7.075,70.211L7.075,12.627C7.075,9.09,8.991,7.075,12.725,7.075L52.72,7.075C56.405,7.075,58.321,9.09,58.321,12.627L58.321,42.335L65.445,42.335L65.445,12.529C65.445,4.176,61.318,-0,53.064,-0ZM18.474,18.032C16.902,18.032,15.772,19.162,15.772,20.636C15.772,22.159,16.902,23.338,18.474,23.338L47.02,23.338C48.543,23.338,49.673,22.159,49.673,20.636C49.673,19.162,48.543,18.032,47.02,18.032ZM18.474,31.396C16.902,31.396,15.772,32.575,15.772,34C15.772,35.523,16.902,36.751,18.474,36.751L47.02,36.751C48.543,36.751,49.673,35.523,49.673,34C49.673,32.575,48.543,31.396,47.02,31.396ZM18.474,44.809C16.902,44.809,15.772,45.988,15.772,47.512C15.772,48.985,16.902,50.116,18.474,50.116L26.239,50.116L26.239,44.809ZM18.474,44.809"/>
  <path fill-rule="nonzero" stroke-linejoin="miter" xmlns:svg="http://www.w3.org/2000/svg" stroke-miterlimit="4" stroke-opacity="1" fill-opacity="1" stroke-linecap="butt" stroke-width="0.0625px" stroke="none" fill="#000000" stroke-dasharray="none" version="1.1" d="M35.337,63.355C39.78,63.355,42.445,59.801,42.445,54.115C42.445,48.402,39.754,44.899,35.337,44.899C30.945,44.899,28.254,48.428,28.254,54.115C28.254,59.827,30.919,63.355,35.337,63.355ZM35.337,60.182C33.179,60.182,31.935,57.973,31.935,54.115C31.935,50.281,33.204,48.072,35.337,48.072C37.469,48.072,38.764,50.256,38.764,54.115C38.764,57.973,37.495,60.182,35.337,60.182ZM58.287,82.294C62.704,82.294,65.37,78.715,65.37,73.028C65.37,67.316,62.679,63.838,58.287,63.838C53.895,63.838,51.204,67.341,51.204,73.028C51.204,78.74,53.869,82.294,58.287,82.294ZM58.287,79.121C56.129,79.121,54.885,76.912,54.885,73.028C54.885,69.22,56.154,67.011,58.287,67.011C60.419,67.011,61.689,69.194,61.689,73.028C61.689,76.912,60.445,79.121,58.287,79.121ZM33.839,82.37C34.677,82.853,35.921,82.777,36.657,81.736L60.216,47.565C61.029,46.422,60.546,45.254,59.683,44.747C58.896,44.315,57.779,44.417,56.967,45.559L33.407,79.603C32.57,80.796,33.001,81.863,33.839,82.37ZM33.839,82.37"/>
</g>
  <g id="Ultralight-S" transform="matrix(1.0,0.0,0.0,1.0,519.5809707818848,619.1853160622916)">  <path stroke-opacity="1" stroke-miterlimit="4" stroke-dasharray="none" stroke-linejoin="miter" fill-rule="nonzero" stroke-linecap="butt" version="1.1" stroke="none" fill-opacity="1" stroke-width="0.0625px" fill="#000000" xmlns:svg="http://www.w3.org/2000/svg" d="M12.332,-0C4.078,-0,0,4.176,0,12.529L0,70.309C0,78.711,4.078,82.838,12.332,82.838L26.239,82.838L26.239,75.763L12.725,75.763C8.991,75.763,7.075,73.748,7.075,70.211L7.075,12.627C7.075,9.09,8.991,7.075,12.725,7.075L52.72,7.075C56.405,7.075,58.321,9.09,58.321,12.627L58.321,42.335L65.445,42.335L65.445,12.529C65.445,4.176,61.318,-0,53.064,-0ZM18.474,18.032C16.902,18.032,15.772,19.162,15.772,20.636C15.772,22.159,16.902,23.338,18.474,23.338L47.02,23.338C48.543,23.338,49.673,22.159,49.673,20.636C49.673,19.162,48.543,18.032,47.02,18.032ZM18.474,31.396C16.902,31.396,15.772,32.575,15.772,34C15.772,35.523,16.902,36.751,18.474,36.751L47.02,36.751C48.543,36.751,49.673,35.523,49.673,34C49.673,32.575,48.543,31.396,47.02,31.396ZM18.474,44.809C16.902,44.809,15.772,45.988,15.772,47.512C15.772,48.985,16.902,50.116,18.474,50.116L26.239,50.116L26.239,44.809ZM18.474,44.809"/>
  <path fill-opacity="1" stroke="none" fill-rule="nonzero" xmlns:svg="http://www.w3.org/2000/svg" stroke-opacity="1" fill="#000000" version="1.1" stroke-miterlimit="4" stroke-linecap="butt" stroke-width="0.0625px" stroke-linejoin="miter" stroke-dasharray="none" d="M35.337,63.355C39.78,63.355,42.445,59.801,42.445,54.115C42.445,48.402,39.754,44.899,35.337,44.899C30.945,44.899,28.254,48.428,28.254,54.115C28.254,59.827,30.919,63.355,35.337,63.355ZM35.337,60.182C33.179,60.182,31.935,57.973,31.935,54.115C31.935,50.281,33.204,48.072,35.337,48.072C37.469,48.072,38.764,50.256,38.764,54.115C38.764,57.973,37.495,60.182,35.337,60.182ZM58.287,82.294C62.704,82.294,65.37,78.715,65.37,73.028C65.37,67.316,62.679,63.838,58.287,63.838C53.895,63.838,51.204,67.341,51.204,73.028C51.204,78.74,53.869,82.294,58.287,82.294ZM58.287,79.121C56.129,79.121,54.885,76.912,54.885,73.028C54.885,69.22,56.154,67.011,58.287,67.011C60.419,67.011,61.689,69.194,61.689,73.028C61.689,76.912,60.445,79.121,58.287,79.121ZM33.839,82.37C34.677,82.853,35.921,82.777,36.657,81.736L60.216,47.565C61.029,46.422,60.546,45.254,59.683,44.747C58.896,44.315,57.779,44.417,56.967,45.559L33.407,79.603C32.57,80.796,33.001,81.863,33.839,82.37ZM33.839,82.37"/>
</g>
 </g>
</svg>
