<?xml version="1.0" encoding="UTF-8"?>
<!--Generator: Apple Native CoreSVG 175.5-->
<!DOCTYPE svg
PUBLIC "-//W3C//DTD SVG 1.1//EN"
       "http://www.w3.org/Graphics/SVG/1.1/DTD/svg11.dtd">
<svg version="1.1" xmlns="http://www.w3.org/2000/svg" xmlns:xlink="http://www.w3.org/1999/xlink" width="3300" height="2200">
 <!--glyph: "uni101422.medium", point size: 100.0, font version: "18.0d11e1", template writer version: "90"-->
 <style>.monochrome-0 {fill:#000000}
.monochrome-1 {fill:#000000}

.hierarchical-0:secondary {fill:#4D4D4D}
.hierarchical-1:primary {fill:#212121}

.SFSymbolsPreview212121 {fill:#212121;opacity:1.0}
.SFSymbolsPreview4D4D4D {fill:#4D4D4D;opacity:1.0}
</style>
 <g id="Notes">
  <rect height="2200" id="artboard" style="fill:white;opacity:1" width="3300" x="0" y="0"/>
  <line style="fill:none;stroke:black;opacity:1;stroke-width:0.5;" x1="263" x2="3036" y1="292" y2="292"/>
  <text style="stroke:none;fill:black;font-family:sans-serif;font-size:13;font-weight:bold;" transform="matrix(1 0 0 1 263 322)">Weight/Scale Variations</text>
  <text style="stroke:none;fill:black;font-family:sans-serif;font-size:13;text-anchor:middle;" transform="matrix(1 0 0 1 559.711 322)">Ultralight</text>
  <text style="stroke:none;fill:black;font-family:sans-serif;font-size:13;text-anchor:middle;" transform="matrix(1 0 0 1 856.422 322)">Thin</text>
  <text style="stroke:none;fill:black;font-family:sans-serif;font-size:13;text-anchor:middle;" transform="matrix(1 0 0 1 1153.13 322)">Light</text>
  <text style="stroke:none;fill:black;font-family:sans-serif;font-size:13;text-anchor:middle;" transform="matrix(1 0 0 1 1449.84 322)">Regular</text>
  <text style="stroke:none;fill:black;font-family:sans-serif;font-size:13;text-anchor:middle;" transform="matrix(1 0 0 1 1746.56 322)">Medium</text>
  <text style="stroke:none;fill:black;font-family:sans-serif;font-size:13;text-anchor:middle;" transform="matrix(1 0 0 1 2043.27 322)">Semibold</text>
  <text style="stroke:none;fill:black;font-family:sans-serif;font-size:13;text-anchor:middle;" transform="matrix(1 0 0 1 2339.98 322)">Bold</text>
  <text style="stroke:none;fill:black;font-family:sans-serif;font-size:13;text-anchor:middle;" transform="matrix(1 0 0 1 2636.69 322)">Heavy</text>
  <text style="stroke:none;fill:black;font-family:sans-serif;font-size:13;text-anchor:middle;" transform="matrix(1 0 0 1 2933.4 322)">Black</text>
  <line style="fill:none;stroke:black;opacity:1;stroke-width:0.5;" x1="263" x2="3036" y1="1903" y2="1903"/>
  <g transform="matrix(1 0 0 1 263 1933)">
   <path d="M9.24805 0.830078C13.5547 0.830078 17.1387-2.74414 17.1387-7.05078C17.1387-11.3574 13.5449-14.9316 9.23828-14.9316C4.94141-14.9316 1.36719-11.3574 1.36719-7.05078C1.36719-2.74414 4.95117 0.830078 9.24805 0.830078ZM9.24805-0.654297C5.70312-0.654297 2.87109-3.49609 2.87109-7.05078C2.87109-10.6055 5.69336-13.4473 9.23828-13.4473C12.793-13.4473 15.6445-10.6055 15.6445-7.05078C15.6445-3.49609 12.8027-0.654297 9.24805-0.654297ZM5.6543-7.05078C5.6543-6.62109 5.95703-6.32812 6.40625-6.32812L8.50586-6.32812L8.50586-4.20898C8.50586-3.76953 8.79883-3.4668 9.22852-3.4668C9.67773-3.4668 9.9707-3.76953 9.9707-4.20898L9.9707-6.32812L12.0898-6.32812C12.5293-6.32812 12.832-6.62109 12.832-7.05078C12.832-7.49023 12.5293-7.79297 12.0898-7.79297L9.9707-7.79297L9.9707-9.90234C9.9707-10.3516 9.67773-10.6543 9.22852-10.6543C8.79883-10.6543 8.50586-10.3516 8.50586-9.90234L8.50586-7.79297L6.40625-7.79297C5.95703-7.79297 5.6543-7.49023 5.6543-7.05078Z"/>
  </g>
  <g transform="matrix(1 0 0 1 281.867 1933)">
   <path d="M11.709 2.91016C17.1582 2.91016 21.6699-1.61133 21.6699-7.05078C21.6699-12.5 17.1484-17.0117 11.6992-17.0117C6.25977-17.0117 1.74805-12.5 1.74805-7.05078C1.74805-1.61133 6.26953 2.91016 11.709 2.91016ZM11.709 1.25C7.09961 1.25 3.41797-2.44141 3.41797-7.05078C3.41797-11.6602 7.08984-15.3516 11.6992-15.3516C16.3086-15.3516 20.0098-11.6602 20.0098-7.05078C20.0098-2.44141 16.3184 1.25 11.709 1.25ZM7.17773-7.05078C7.17773-6.57227 7.50977-6.25 8.00781-6.25L10.8789-6.25L10.8789-3.36914C10.8789-2.88086 11.2109-2.53906 11.6895-2.53906C12.1777-2.53906 12.5195-2.87109 12.5195-3.36914L12.5195-6.25L15.4004-6.25C15.8887-6.25 16.2305-6.57227 16.2305-7.05078C16.2305-7.53906 15.8887-7.88086 15.4004-7.88086L12.5195-7.88086L12.5195-10.752C12.5195-11.25 12.1777-11.5918 11.6895-11.5918C11.2109-11.5918 10.8789-11.25 10.8789-10.752L10.8789-7.88086L8.00781-7.88086C7.50977-7.88086 7.17773-7.53906 7.17773-7.05078Z"/>
  </g>
  <g transform="matrix(1 0 0 1 305.646 1933)">
   <path d="M14.9707 5.66406C21.9336 5.66406 27.6953-0.0976562 27.6953-7.05078C27.6953-14.0137 21.9238-19.7754 14.9609-19.7754C8.00781-19.7754 2.25586-14.0137 2.25586-7.05078C2.25586-0.0976562 8.01758 5.66406 14.9707 5.66406ZM14.9707 3.84766C8.93555 3.84766 4.08203-1.01562 4.08203-7.05078C4.08203-13.0957 8.92578-17.9492 14.9609-17.9492C21.0059-17.9492 25.8691-13.0957 25.8691-7.05078C25.8691-1.01562 21.0156 3.84766 14.9707 3.84766ZM9.19922-7.05078C9.19922-6.5332 9.57031-6.17188 10.1172-6.17188L14.0625-6.17188L14.0625-2.2168C14.0625-1.67969 14.4336-1.29883 14.9512-1.29883C15.4883-1.29883 15.8594-1.66992 15.8594-2.2168L15.8594-6.17188L19.8145-6.17188C20.3516-6.17188 20.7324-6.5332 20.7324-7.05078C20.7324-7.59766 20.3613-7.96875 19.8145-7.96875L15.8594-7.96875L15.8594-11.9141C15.8594-12.4609 15.4883-12.8418 14.9512-12.8418C14.4336-12.8418 14.0625-12.4609 14.0625-11.9141L14.0625-7.96875L10.1172-7.96875C9.57031-7.96875 9.19922-7.59766 9.19922-7.05078Z"/>
  </g>
  <text style="stroke:none;fill:black;font-family:sans-serif;font-size:13;font-weight:bold;" transform="matrix(1 0 0 1 263 1953)">Design Variations</text>
  <text style="stroke:none;fill:black;font-family:sans-serif;font-size:13;" transform="matrix(1 0 0 1 263 1971)">Symbols are supported in up to nine weights and three scales.</text>
  <text style="stroke:none;fill:black;font-family:sans-serif;font-size:13;" transform="matrix(1 0 0 1 263 1989)">For optimal layout with text and other symbols, vertically align</text>
  <text style="stroke:none;fill:black;font-family:sans-serif;font-size:13;" transform="matrix(1 0 0 1 263 2007)">symbols with the adjacent text.</text>
  <line style="fill:none;stroke:#00AEEF;stroke-width:0.5;opacity:1.0;" x1="776" x2="776" y1="1919" y2="1933"/>
  <g transform="matrix(1 0 0 1 776 1933)">
   <path d="M3.31055 0.15625C3.82812 0.15625 4.08203-0.0390625 4.26758-0.585938L5.52734-4.0332L11.2891-4.0332L12.5488-0.585938C12.7344-0.0390625 12.9883 0.15625 13.4961 0.15625C14.0137 0.15625 14.3457-0.15625 14.3457-0.644531C14.3457-0.810547 14.3164-0.966797 14.2383-1.17188L9.6582-13.3691C9.43359-13.9648 9.0332-14.2676 8.4082-14.2676C7.80273-14.2676 7.39258-13.9746 7.17773-13.3789L2.59766-1.16211C2.51953-0.957031 2.49023-0.800781 2.49023-0.634766C2.49023-0.146484 2.80273 0.15625 3.31055 0.15625ZM6.00586-5.51758L8.37891-12.0898L8.42773-12.0898L10.8008-5.51758Z"/>
  </g>
  <line style="fill:none;stroke:#00AEEF;stroke-width:0.5;opacity:1.0;" x1="793.197" x2="793.197" y1="1919" y2="1933"/>
  <text style="stroke:none;fill:black;font-family:sans-serif;font-size:13;font-weight:bold;" transform="matrix(1 0 0 1 776 1953)">Margins</text>
  <text style="stroke:none;fill:black;font-family:sans-serif;font-size:13;" transform="matrix(1 0 0 1 776 1971)">Leading and trailing margins on the left and right side of each symbol</text>
  <text style="stroke:none;fill:black;font-family:sans-serif;font-size:13;" transform="matrix(1 0 0 1 776 1989)">can be adjusted by modifying the x-location of the margin guidelines.</text>
  <text style="stroke:none;fill:black;font-family:sans-serif;font-size:13;" transform="matrix(1 0 0 1 776 2007)">Modifications are automatically applied proportionally to all</text>
  <text style="stroke:none;fill:black;font-family:sans-serif;font-size:13;" transform="matrix(1 0 0 1 776 2025)">scales and weights.</text>
  <g transform="matrix(1 0 0 1 1289 1933)">
   <path d="M2.8418 1.86523L4.54102 3.57422C5.40039 4.44336 6.38672 4.38477 7.31445 3.35938L18.0078-8.42773L17.041-9.4043L6.42578 2.27539C6.07422 2.67578 5.74219 2.77344 5.27344 2.30469L4.10156 1.14258C3.63281 0.683594 3.74023 0.341797 4.14062-0.0195312L15.6152-10.8203L14.6387-11.7871L3.04688-0.898438C2.06055 0.0195312 1.98242 0.996094 2.8418 1.86523ZM9.25781-16.3281C8.83789-15.918 8.80859-15.3418 9.04297-14.9512C9.27734-14.5898 9.73633-14.3555 10.3809-14.5215C11.8457-14.8633 13.3691-14.9219 14.7949-13.9844L14.209-12.5293C13.8672-11.6992 14.043-11.1133 14.5801-10.5664L16.875-8.25195C17.3633-7.76367 17.7734-7.74414 18.3398-7.8418L19.4043-8.03711L20.0684-7.36328L20.0293-6.80664C19.9902-6.30859 20.1172-5.92773 20.6055-5.44922L21.3672-4.70703C21.8457-4.22852 22.4609-4.19922 22.9297-4.66797L25.8398-7.58789C26.3086-8.05664 26.2891-8.65234 25.8105-9.13086L25.0391-9.89258C24.5605-10.3711 24.1895-10.5273 23.7109-10.4883L23.1348-10.4395L22.4902-11.0742L22.7344-12.1973C22.8613-12.7637 22.7051-13.2031 22.1191-13.7891L19.9219-15.9766C16.582-19.2969 12.1484-19.2188 9.25781-16.3281ZM10.752-15.957C13.1836-17.7344 16.4746-17.4316 18.7012-15.2051L21.1328-12.793C21.3672-12.5586 21.4062-12.373 21.3379-12.0312L21.0156-10.5469L22.5195-9.0625L23.5059-9.12109C23.7598-9.13086 23.8379-9.11133 24.0332-8.91602L24.6094-8.33984L22.168-5.89844L21.5918-6.47461C21.3965-6.66992 21.3672-6.74805 21.377-7.01172L21.4453-7.98828L19.9512-9.47266L18.4277-9.21875C18.1055-9.15039 17.959-9.17969 17.7148-9.41406L15.7129-11.416C15.459-11.6504 15.4297-11.8164 15.5859-12.1875L16.4648-14.2773C14.9023-15.7324 12.8711-16.3574 10.8398-15.7617C10.6836-15.7227 10.625-15.8496 10.752-15.957Z"/>
  </g>
  <text style="stroke:none;fill:black;font-family:sans-serif;font-size:13;font-weight:bold;" transform="matrix(1 0 0 1 1289 1953)">Exporting</text>
  <text style="stroke:none;fill:black;font-family:sans-serif;font-size:13;" transform="matrix(1 0 0 1 1289 1971)">Symbols should be outlined when exporting to ensure the</text>
  <text style="stroke:none;fill:black;font-family:sans-serif;font-size:13;" transform="matrix(1 0 0 1 1289 1989)">design is preserved when submitting to Xcode.</text>
  <text id="template-version" style="stroke:none;fill:black;font-family:sans-serif;font-size:13;text-anchor:end;" transform="matrix(1 0 0 1 3036 1933)">Template v.4.0</text>
  <text style="stroke:none;fill:black;font-family:sans-serif;font-size:13;text-anchor:end;" transform="matrix(1 0 0 1 3036 1951)">Requires Xcode 14 or greater</text>
  <text id="descriptive-name" style="stroke:none;fill:black;font-family:sans-serif;font-size:13;text-anchor:end;" transform="matrix(1 0 0 1 3036 1969)">Generated from dishwasher</text>
  <text style="stroke:none;fill:black;font-family:sans-serif;font-size:13;text-anchor:end;" transform="matrix(1 0 0 1 3036 1987)">Typeset at 100 points</text>
  <text style="stroke:none;fill:black;font-family:sans-serif;font-size:13;" transform="matrix(1 0 0 1 263 726)">Small</text>
  <text style="stroke:none;fill:black;font-family:sans-serif;font-size:13;" transform="matrix(1 0 0 1 263 1156)">Medium</text>
  <text style="stroke:none;fill:black;font-family:sans-serif;font-size:13;" transform="matrix(1 0 0 1 263 1586)">Large</text>
 </g>
 <g id="Guides">
  <g id="H-reference" style="fill:#27AAE1;stroke:none;" transform="matrix(1 0 0 1 339 696)">
   <path d="M0.993654 0L3.63775 0L29.3281-67.1323L30.0303-67.1323L30.0303-70.459L28.1226-70.459ZM11.6885-24.4799L46.9815-24.4799L46.2315-26.7285L12.4385-26.7285ZM55.1196 0L57.7637 0L30.6382-70.459L29.4326-70.459L29.4326-67.1323Z"/>
  </g>
  <line id="Baseline-S" style="fill:none;stroke:#27AAE1;opacity:1;stroke-width:0.5;" x1="263" x2="3036" y1="696" y2="696"/>
  <line id="Capline-S" style="fill:none;stroke:#27AAE1;opacity:1;stroke-width:0.5;" x1="263" x2="3036" y1="625.541" y2="625.541"/>
  <g id="H-reference" style="fill:#27AAE1;stroke:none;" transform="matrix(1 0 0 1 339 1126)">
   <path d="M0.993654 0L3.63775 0L29.3281-67.1323L30.0303-67.1323L30.0303-70.459L28.1226-70.459ZM11.6885-24.4799L46.9815-24.4799L46.2315-26.7285L12.4385-26.7285ZM55.1196 0L57.7637 0L30.6382-70.459L29.4326-70.459L29.4326-67.1323Z"/>
  </g>
  <line id="Baseline-M" style="fill:none;stroke:#27AAE1;opacity:1;stroke-width:0.5;" x1="263" x2="3036" y1="1126" y2="1126"/>
  <line id="Capline-M" style="fill:none;stroke:#27AAE1;opacity:1;stroke-width:0.5;" x1="263" x2="3036" y1="1055.54" y2="1055.54"/>
  <g id="H-reference" style="fill:#27AAE1;stroke:none;" transform="matrix(1 0 0 1 339 1556)">
   <path d="M0.993654 0L3.63775 0L29.3281-67.1323L30.0303-67.1323L30.0303-70.459L28.1226-70.459ZM11.6885-24.4799L46.9815-24.4799L46.2315-26.7285L12.4385-26.7285ZM55.1196 0L57.7637 0L30.6382-70.459L29.4326-70.459L29.4326-67.1323Z"/>
  </g>
  <line id="Baseline-L" style="fill:none;stroke:#27AAE1;opacity:1;stroke-width:0.5;" x1="263" x2="3036" y1="1556" y2="1556"/>
  <line id="Capline-L" style="fill:none;stroke:#27AAE1;opacity:1;stroke-width:0.5;" x1="263" x2="3036" y1="1485.54" y2="1485.54"/>
  <line id="left-margin-Ultralight-S" style="fill:none;stroke:#00AEEF;stroke-width:0.5;opacity:1.0;" x1="519.829" x2="519.829" y1="600.785" y2="720.121"/>
  <line id="right-margin-Ultralight-S" style="fill:none;stroke:#00AEEF;stroke-width:0.5;opacity:1.0;" x1="599.593" x2="599.593" y1="600.785" y2="720.121"/>
  <line id="left-margin-Regular-S" style="fill:none;stroke:#00AEEF;stroke-width:0.5;opacity:1.0;" x1="1406.22" x2="1406.22" y1="600.785" y2="720.121"/>
  <line id="right-margin-Regular-S" style="fill:none;stroke:#00AEEF;stroke-width:0.5;opacity:1.0;" x1="1493.47" x2="1493.47" y1="600.785" y2="720.121"/>
  <line id="left-margin-Black-S" style="fill:none;stroke:#00AEEF;stroke-width:0.5;opacity:1.0;" x1="2884.13" x2="2884.13" y1="600.785" y2="720.121"/>
  <line id="right-margin-Black-S" style="fill:none;stroke:#FF3B30;stroke-width:0.5;opacity:1.0;" x1="2982.67" x2="2982.67" y1="600.785" y2="720.121"/>
 </g>
 <g id="Symbols">
  <g id="Black-S" transform="matrix(1 0 0 1 2884.13 696)">
   <path class="monochrome-0 hierarchical-0:secondary SFSymbolsPreview4D4D4D" d="M22.2168 11.3281L44.5801 11.3281C41.4062 7.8125 39.1113 3.4668 38.0371-1.36719L24.0723-1.36719C23.1445-1.36719 22.5098-2.00195 22.5098-2.92969L22.5098-67.5781C22.5098-68.5059 23.1445-69.1406 24.0723-69.1406L74.9023-69.1406C75.5859-69.1406 76.0254-68.7012 76.0254-68.0664L76.0254-35.791C80.6152-35.7422 84.9609-34.5703 88.7695-32.5684L88.7695-69.1406C88.7695-76.5625 83.5938-81.8359 76.2695-81.8359L22.2168-81.8359C14.8926-81.8359 9.76562-76.5625 9.76562-69.1406L9.76562-1.36719C9.76562 6.05469 14.8926 11.3281 22.2168 11.3281ZM17.7246-46.1914L80.7617-46.1914L80.7617-54.0039L17.7246-54.0039ZM18.0176-7.22656L37.3535-7.22656C37.3535-10.1562 37.6953-12.6465 38.3789-15.0391L18.0176-15.0391ZM40.0391-35.4492L58.4961-35.4492C60.5957-35.4492 62.1582-37.0117 62.1582-39.1113C62.1582-41.2109 60.5957-42.7734 58.4961-42.7734L40.0391-42.7734C37.9395-42.7734 36.377-41.2109 36.377-39.1113C36.377-37.0117 37.9395-35.4492 40.0391-35.4492ZM31.8359-56.9824C34.4727-56.9824 36.6699-59.1797 36.6699-61.8164C36.6699-64.4531 34.4727-66.6504 31.8359-66.6504C29.1992-66.6504 27.002-64.4531 27.002-61.8164C27.002-59.1797 29.1992-56.9824 31.8359-56.9824ZM44.5312-56.9824C47.168-56.9824 49.3652-59.1797 49.3652-61.8164C49.3652-64.4531 47.168-66.6504 44.5312-66.6504C41.8945-66.6504 39.6973-64.4531 39.6973-61.8164C39.6973-59.1797 41.8945-56.9824 44.5312-56.9824Z"/>
   <path class="monochrome-1 hierarchical-1:primary SFSymbolsPreview212121" d="M65.5762 15.8203C78.4668 15.8203 88.916 5.37109 88.916-7.56836C88.916-20.459 78.4668-30.9082 65.5762-30.9082C52.6855-30.9082 42.2363-20.459 42.2363-7.56836C42.2363 5.37109 52.6855 15.8203 65.5762 15.8203ZM65.5762 8.44727C56.25 8.44727 49.5605 1.80664 49.5605-7.56836C49.5605-16.8945 56.25-23.5352 65.5762-23.5352C74.9023-23.5352 81.5918-16.8945 81.5918-7.56836C81.5918 1.80664 74.9023 8.44727 65.5762 8.44727ZM65.5762 4.83398C72.3633 4.83398 77.9785-0.78125 77.9785-7.56836C77.9785-14.3066 72.3633-19.9219 65.5762-19.9219C58.7891-19.9219 53.1738-14.3066 53.1738-7.56836C53.1738-0.78125 58.7891 4.83398 65.5762 4.83398ZM75.7324 15.8203C88.5742 15.8203 99.0234 5.37109 99.0234-7.56836C99.0234-20.459 88.5742-30.9082 75.7324-30.9082C72.0703-30.9082 68.457-30.0781 65.4297-28.5156L73.3887-23.4375C74.1699-23.4863 74.9023-23.5352 75.7324-23.5352C85.0098-23.5352 91.6992-16.8945 91.6992-7.56836C91.6992 1.80664 85.0098 8.44727 75.7324 8.44727C74.8535 8.44727 74.0723 8.39844 73.0957 8.30078L67.3828 14.3066C69.9219 15.2832 72.8027 15.8203 75.7324 15.8203ZM65.5762-0.78125C61.5234-0.78125 58.7891-3.51562 58.7891-7.56836C58.7891-11.5723 61.5234-14.3066 65.5762-14.3066C69.6289-14.3066 72.3633-11.5723 72.3633-7.56836C72.3633-3.51562 69.6289-0.78125 65.5762-0.78125Z"/>
  </g>
  <g id="Regular-S" transform="matrix(1 0 0 1 1406.22 696)">
   <path class="monochrome-0 hierarchical-0:secondary SFSymbolsPreview4D4D4D" d="M19.0918 5.61523L39.8438 5.61523C38.0859 3.56445 36.7188 1.17188 35.8398-1.41602L19.4336-1.41602C17.8711-1.41602 16.7969-2.44141 16.7969-4.00391L16.7969-66.6504C16.7969-68.2129 17.8711-69.2383 19.4336-69.2383L67.8223-69.2383C69.3848-69.2383 70.459-68.2129 70.459-66.6504L70.459-31.7383C72.998-31.2012 75.3418-30.2734 77.4902-29.0039L77.4902-66.748C77.4902-72.4609 73.7305-76.2695 68.1641-76.2695L19.0918-76.2695C13.5254-76.2695 9.76562-72.4609 9.76562-66.748L9.76562-3.90625C9.76562 1.80664 13.5254 5.61523 19.0918 5.61523ZM13.6719-50.2441L73.6328-50.2441L73.6328-55.9082L13.6719-55.9082ZM13.0371-5.46875L34.7168-5.46875C34.375-7.51953 34.375-9.13086 34.5215-11.1328L13.0371-11.1328ZM34.4727-41.9434L52.832-41.9434C54.1016-41.9434 54.9316-42.7734 54.9316-44.043C54.9316-45.3613 54.1016-46.1914 52.832-46.1914L34.4727-46.1914C33.1543-46.1914 32.3242-45.3613 32.3242-44.043C32.3242-42.7734 33.1543-41.9434 34.4727-41.9434ZM24.7559-59.2285C26.6113-59.2285 28.125-60.7422 28.125-62.5977C28.125-64.4531 26.6113-65.9668 24.7559-65.9668C22.9004-65.9668 21.3867-64.4531 21.3867-62.5977C21.3867-60.7422 22.9004-59.2285 24.7559-59.2285ZM34.5215-59.2285C36.377-59.2285 37.8906-60.7422 37.8906-62.5977C37.8906-64.4531 36.377-65.9668 34.5215-65.9668C32.666-65.9668 31.1523-64.4531 31.1523-62.5977C31.1523-60.7422 32.666-59.2285 34.5215-59.2285Z"/>
   <path class="monochrome-1 hierarchical-1:primary SFSymbolsPreview212121" d="M57.4219 8.98438C67.4805 8.98438 75.6348 0.830078 75.6348-9.27734C75.6348-19.3848 67.4805-27.5391 57.4219-27.5391C47.3145-27.5391 39.1602-19.3848 39.1602-9.27734C39.1602 0.830078 47.3145 8.98438 57.4219 8.98438ZM57.4219 4.6875C49.3652 4.6875 43.4082-1.31836 43.4082-9.27734C43.4082-17.2363 49.3652-23.2422 57.4219-23.2422C65.3809-23.2422 71.3867-17.2363 71.3867-9.27734C71.3867-1.31836 65.3809 4.6875 57.4219 4.6875ZM57.4219 2.24609C63.7207 2.24609 68.8965-2.92969 68.8965-9.27734C68.8965-15.5762 63.7207-20.752 57.4219-20.752C51.0742-20.752 45.8984-15.5762 45.8984-9.27734C45.8984-2.92969 51.0742 2.24609 57.4219 2.24609ZM65.625 8.98438C75.6836 8.98438 83.7891 0.830078 83.7891-9.27734C83.7891-19.3848 75.6836-27.5391 65.625-27.5391C63.2812-27.5391 61.0352-27.0996 59.0332-26.2695L63.8672-23.1445C64.4531-23.1934 65.0391-23.2422 65.625-23.2422C73.584-23.2422 79.541-17.2363 79.541-9.27734C79.541-1.31836 73.584 4.6875 65.625 4.6875C64.9902 4.6875 64.4043 4.63867 63.8184 4.58984L60.3516 8.20312C62.0117 8.74023 63.7695 8.98438 65.625 8.98438ZM57.4219-1.5625C52.9297-1.5625 49.707-4.78516 49.707-9.27734C49.707-13.7695 52.9297-16.9922 57.4219-16.9922C61.9141-16.9922 65.0879-13.7695 65.0879-9.27734C65.0879-4.78516 61.9141-1.5625 57.4219-1.5625Z"/>
  </g>
  <g id="Ultralight-S" transform="matrix(1 0 0 1 519.829 696)">
   <path class="monochrome-0 hierarchical-0:secondary SFSymbolsPreview4D4D4D" d="M16.5034-0.0609905L36.5288-0.0609905C35.8609-0.749478 35.2202-1.46189 34.6592-2.23339L16.4365-2.23339C13.7388-2.23339 11.9834-4.2578 11.9834-7.31882L11.9834-66.0601C11.9834-69.0757 13.7388-71.1001 16.4365-71.1001L63.3721-71.1001C66.0244-71.1001 67.8252-69.0757 67.8252-66.0601L67.8252-33.4184C68.5933-33.063 69.3023-32.5893 69.9976-32.0918L69.9976-65.9761C69.9976-70.3721 67.3277-73.3179 63.3052-73.3179L16.5034-73.3179C12.4356-73.3179 9.76562-70.3721 9.76562-65.9761L9.76562-7.4028C9.76562-2.96139 12.4356-0.0609905 16.5034-0.0609905ZM10.8111-53.1504L69.001-53.1504L69.001-55.3179L10.8111-55.3179ZM10.4942-8.64744L31.3565-8.64744C31.1055-9.33592 30.9693-9.99365 30.8433-10.7695L10.4942-10.7695ZM31.6118-44.1684L48.2456-44.1684C48.7886-44.1684 49.2554-44.6352 49.2554-45.2236C49.2554-45.77 48.7886-46.2368 48.2456-46.2368L31.6118-46.2368C31.02-46.2368 30.5532-45.77 30.5532-45.2236C30.5532-44.6352 31.02-44.1684 31.6118-44.1684ZM21.5772-59.8188C23.4326-59.8188 24.9463-61.3325 24.9463-63.188C24.9463-65.0435 23.4326-66.5571 21.5772-66.5571C19.7217-66.5571 18.208-65.0435 18.208-63.188C18.208-61.3325 19.7217-59.8188 21.5772-59.8188ZM31.2974-59.8188C33.1529-59.8188 34.6665-61.3325 34.6665-63.188C34.6665-65.0435 33.1529-66.5571 31.2974-66.5571C29.4419-66.5571 27.9737-65.0435 27.9737-63.188C27.9737-61.3325 29.4419-59.8188 31.2974-59.8188Z"/>
   <path class="monochrome-1 hierarchical-1:primary SFSymbolsPreview212121" d="M51.337 2.94487C61.441 2.94487 69.2774-4.93697 69.2774-15.0444C69.2774-25.1518 61.441-32.9882 51.337-32.9882C41.2295-32.9882 33.3931-25.1518 33.3931-15.0444C33.3931-4.93697 41.2295 2.94487 51.337 2.94487ZM51.337 0.873077C42.2813 0.873077 35.4615-5.95016 35.4615-15.0444C35.4615-24.0478 42.2813-30.9164 51.337-30.9164C60.3858-30.9164 67.209-24.0478 67.209-15.0444C67.209-5.95016 60.3858 0.873077 51.337 0.873077ZM51.337-3.83882C57.5904-3.83882 62.4937-8.78755 62.4937-15.0444C62.4937-21.3432 57.6358-26.2011 51.337-26.2011C45.0801-26.2011 40.1314-21.2978 40.1314-15.0444C40.1314-8.78755 45.0801-3.83882 51.337-3.83882ZM57.7237 2.94487C67.7823 2.94487 75.6607-4.93697 75.6607-15.0444C75.6607-25.1518 67.7823-32.9882 57.7237-32.9882C56.2881-32.9882 54.9048-32.8212 53.6294-32.4907L56.2383-30.8188C56.688-30.8676 57.1832-30.9164 57.7237-30.9164C66.7725-30.9164 73.5923-24.0478 73.5923-15.0444C73.5923-5.95016 66.7725 0.873077 57.7237 0.873077C57.2252 0.873077 56.7755 0.824249 56.3257 0.775421L54.5391 2.61772C55.6089 2.83696 56.6402 2.94487 57.7237 2.94487ZM51.337-5.87643C45.982-5.87643 42.169-9.644 42.169-15.0444C42.169-20.3994 45.9366-24.1215 51.337-24.1215C56.7828-24.1215 60.4561-20.4448 60.4561-15.0444C60.4561-9.59859 56.7373-5.87643 51.337-5.87643Z"/>
  </g>
 </g>
</svg>
