<?xml version="1.0" encoding="UTF-8"?>
<!-- Generator: CustomSymbols v2.6.1.40 by @serious_bret https://bretlester.com/app_content/CustomSymbols/ -->
<!-- Guides: Left/Right 0.12/0.12 Cap/Base 0.283/0.277 -->
<!-- Settings: RefScale 1.0 Min/Max Stroke Scales 0.5/7.0 -->
<!DOCTYPE svg
PUBLIC "-//W3C//DTD SVG 1.1//EN"
       "http://www.w3.org/Graphics/SVG/1.1/DTD/svg11.dtd">
<svg version="1.1" xmlns="http://www.w3.org/2000/svg" xmlns:xlink="http://www.w3.org/1999/xlink" width="3300" height="2200">
<![CDATA[<svg width="24" height="24" viewBox="0 0 24 24" fill="none" xmlns="http://www.w3.org/2000/svg">
<path d="M12 17.5C13.5 17.5 14.5 20.5 15.5 20.5C17.5 20.5 20.5 12 20.5 8C20.5 6.08134 19 4.5 17 4.5C15 4.5 13.5 6.5 12 6.5C10.5 6.5 9 4.5 7 4.5C5 4.5 3.5 6 3.5 8C3.5 12 6.5 20.5 8.5 20.5C9.5 20.5 10.5 17.5 12 17.5Z" stroke="#222222"/>
</svg>
]]>
 <g id="Notes">
  <rect height="2200" id="artboard" style="fill:white;opacity:1" width="3300" x="0" y="0"/>
  <line id="" style="fill:none;stroke:black;opacity:1;stroke-width:0.5;" x1="263" x2="3036" y1="292" y2="292"/>
  <text id="reftext1" style="stroke:none;fill:black;font-family:-apple-system,&quot;SF Pro Display&quot;,&quot;SF Pro Text&quot;,Helvetica,sans-serif;font-weight:bold;" transform="matrix(1 0 0 1 263 322)">Weight/Scale Variations</text>
  <text id="reftext2" style="stroke:none;fill:black;font-family:-apple-system,&quot;SF Pro Display&quot;,&quot;SF Pro Text&quot;,Helvetica,sans-serif;text-anchor:middle;" transform="matrix(1 0 0 1 559.711 322)">Ultralight</text>
  <text style="stroke:none;fill:black;font-family:-apple-system,&quot;SF Pro Display&quot;,&quot;SF Pro Text&quot;,Helvetica,sans-serif;text-anchor:middle;" transform="matrix(1 0 0 1 856.422 322)">Thin</text>
  <text style="stroke:none;fill:black;font-family:-apple-system,&quot;SF Pro Display&quot;,&quot;SF Pro Text&quot;,Helvetica,sans-serif;text-anchor:middle;" transform="matrix(1 0 0 1 1153.13 322)">Light</text>
  <text style="stroke:none;fill:black;font-family:-apple-system,&quot;SF Pro Display&quot;,&quot;SF Pro Text&quot;,Helvetica,sans-serif;text-anchor:middle;" transform="matrix(1 0 0 1 1449.84 322)">Regular</text>
  <text style="stroke:none;fill:black;font-family:-apple-system,&quot;SF Pro Display&quot;,&quot;SF Pro Text&quot;,Helvetica,sans-serif;text-anchor:middle;" transform="matrix(1 0 0 1 1746.56 322)">Medium</text>
  <text style="stroke:none;fill:black;font-family:-apple-system,&quot;SF Pro Display&quot;,&quot;SF Pro Text&quot;,Helvetica,sans-serif;text-anchor:middle;" transform="matrix(1 0 0 1 2043.27 322)">Semibold</text>
  <text style="stroke:none;fill:black;font-family:-apple-system,&quot;SF Pro Display&quot;,&quot;SF Pro Text&quot;,Helvetica,sans-serif;text-anchor:middle;" transform="matrix(1 0 0 1 2339.98 322)">Bold</text>
  <text style="stroke:none;fill:black;font-family:-apple-system,&quot;SF Pro Display&quot;,&quot;SF Pro Text&quot;,Helvetica,sans-serif;text-anchor:middle;" transform="matrix(1 0 0 1 2636.69 322)">Heavy</text>
  <text style="stroke:none;fill:black;font-family:-apple-system,&quot;SF Pro Display&quot;,&quot;SF Pro Text&quot;,Helvetica,sans-serif;text-anchor:middle;" transform="matrix(1 0 0 1 2933.4 322)">Black</text>
  <line id="" style="fill:none;stroke:black;opacity:1;stroke-width:0.5;" x1="263" x2="3036" y1="1903" y2="1903"/>
  <g id="" transform="matrix(1 0 0 1 263 1933)">
   <path d="M9.24805 0.830078C13.5547 0.830078 17.1387-2.74414 17.1387-7.05078C17.1387-11.3574 13.5449-14.9316 9.23828-14.9316C4.94141-14.9316 1.36719-11.3574 1.36719-7.05078C1.36719-2.74414 4.95117 0.830078 9.24805 0.830078ZM9.24805-0.654297C5.70312-0.654297 2.87109-3.49609 2.87109-7.05078C2.87109-10.6055 5.69336-13.4473 9.23828-13.4473C12.793-13.4473 15.6348-10.6055 15.6445-7.05078C15.6543-3.49609 12.8027-0.654297 9.24805-0.654297ZM6.39648-6.31836L8.50586-6.31836L8.50586-4.19922C8.50586-3.75977 8.79883-3.45703 9.22852-3.45703C9.67773-3.45703 9.9707-3.75977 9.9707-4.19922L9.9707-6.31836L12.0996-6.31836C12.5391-6.31836 12.8418-6.61133 12.8418-7.04102C12.8418-7.48047 12.5391-7.7832 12.0996-7.7832L9.9707-7.7832L9.9707-9.89258C9.9707-10.3418 9.67773-10.6445 9.22852-10.6445C8.79883-10.6445 8.50586-10.3418 8.50586-9.89258L8.50586-7.7832L6.39648-7.7832C5.94727-7.7832 5.64453-7.48047 5.64453-7.04102C5.64453-6.61133 5.94727-6.31836 6.39648-6.31836Z"/>
  </g>
  <g id="" transform="matrix(1 0 0 1 281.506 1933)">
   <path d="M11.709 2.91016C17.1582 2.91016 21.6699-1.61133 21.6699-7.05078C21.6699-12.5 17.1484-17.0117 11.6992-17.0117C6.25977-17.0117 1.74805-12.5 1.74805-7.05078C1.74805-1.61133 6.26953 2.91016 11.709 2.91016ZM11.709 1.25C7.09961 1.25 3.41797-2.44141 3.41797-7.05078C3.41797-11.6602 7.08984-15.3516 11.6992-15.3516C16.3086-15.3516 20-11.6602 20.0098-7.05078C20.0195-2.44141 16.3184 1.25 11.709 1.25ZM7.98828-6.23047L10.8789-6.23047L10.8789-3.32031C10.8789-2.83203 11.2109-2.5 11.6895-2.5C12.1777-2.5 12.5195-2.83203 12.5195-3.32031L12.5195-6.23047L15.4297-6.23047C15.918-6.23047 16.25-6.5625 16.25-7.04102C16.25-7.5293 15.918-7.87109 15.4297-7.87109L12.5195-7.87109L12.5195-10.7617C12.5195-11.2695 12.1777-11.6016 11.6895-11.6016C11.2109-11.6016 10.8789-11.2598 10.8789-10.7617L10.8789-7.87109L7.98828-7.87109C7.48047-7.87109 7.14844-7.5293 7.14844-7.04102C7.14844-6.5625 7.49023-6.23047 7.98828-6.23047Z"/>
  </g>
  <g id="" transform="matrix(1 0 0 1 304.924 1933)">
   <path d="M14.9707 5.66406C21.9336 5.66406 27.6953-0.0976562 27.6953-7.05078C27.6953-14.0137 21.9238-19.7754 14.9609-19.7754C8.00781-19.7754 2.25586-14.0137 2.25586-7.05078C2.25586-0.0976562 8.01758 5.66406 14.9707 5.66406ZM14.9707 3.84766C8.93555 3.84766 4.08203-1.01562 4.08203-7.05078C4.08203-13.0957 8.92578-17.9492 14.9609-17.9492C21.0059-17.9492 25.8594-13.0957 25.8691-7.05078C25.8789-1.01562 21.0156 3.84766 14.9707 3.84766ZM10.0586-6.14258L14.0625-6.14258L14.0625-2.12891C14.0625-1.5918 14.4336-1.2207 14.9512-1.2207C15.4883-1.2207 15.8594-1.5918 15.8594-2.12891L15.8594-6.14258L19.8828-6.14258C20.4102-6.14258 20.791-6.51367 20.791-7.03125C20.791-7.56836 20.4199-7.94922 19.8828-7.94922L15.8594-7.94922L15.8594-11.9531C15.8594-12.5098 15.4883-12.8809 14.9512-12.8809C14.4336-12.8809 14.0625-12.5 14.0625-11.9531L14.0625-7.94922L10.0586-7.94922C9.50195-7.94922 9.13086-7.56836 9.13086-7.03125C9.13086-6.51367 9.51172-6.14258 10.0586-6.14258Z"/>
  </g>
  <text style="stroke:none;fill:black;font-family:-apple-system,&quot;SF Pro Display&quot;,&quot;SF Pro Text&quot;,Helvetica,sans-serif;font-weight:bold;" transform="matrix(1 0 0 1 263 1953)">Design Variations</text>
  <text style="stroke:none;fill:black;font-family:-apple-system,&quot;SF Pro Display&quot;,&quot;SF Pro Text&quot;,Helvetica,sans-serif;" transform="matrix(1 0 0 1 263 1971)">Symbols are supported in up to nine weights and three scales.</text>
  <text style="stroke:none;fill:black;font-family:-apple-system,&quot;SF Pro Display&quot;,&quot;SF Pro Text&quot;,Helvetica,sans-serif;" transform="matrix(1 0 0 1 263 1989)">For optimal layout with text and other symbols, vertically align</text>
  <text style="stroke:none;fill:black;font-family:-apple-system,&quot;SF Pro Display&quot;,&quot;SF Pro Text&quot;,Helvetica,sans-serif;" transform="matrix(1 0 0 1 263 2007)">symbols with the adjacent text.</text>
  <line id="" style="fill:none;stroke:#00AEEF;stroke-width:0.5;opacity:1.0;" x1="776" x2="776" y1="1919" y2="1933"/>
  <g id="" transform="matrix(1 0 0 1 776 1933)">
   <path d="M3.31055 0.126953C3.82812 0.126953 4.08203-0.0683594 4.26758-0.605469L5.52734-4.0625L11.2891-4.0625L12.5488-0.605469C12.7344-0.0683594 12.9883 0.126953 13.4961 0.126953C14.0137 0.126953 14.3457-0.185547 14.3457-0.673828C14.3457-0.839844 14.3164-0.986328 14.2383-1.20117L9.6582-13.3887C9.43359-13.9941 9.0332-14.2871 8.4082-14.2871C7.80273-14.2871 7.39258-13.9941 7.17773-13.3984L2.59766-1.19141C2.51953-0.976562 2.49023-0.830078 2.49023-0.664062C2.49023-0.175781 2.80273 0.126953 3.31055 0.126953ZM6.00586-5.53711L8.37891-12.1094L8.42773-12.1094L10.8008-5.53711Z"/>
  </g>
  <line id="" style="fill:none;stroke:#00AEEF;stroke-width:0.5;opacity:1.0;" x1="792.836" x2="792.836" y1="1919" y2="1933"/>
  <text style="stroke:none;fill:black;font-family:-apple-system,&quot;SF Pro Display&quot;,&quot;SF Pro Text&quot;,Helvetica,sans-serif;font-weight:bold;" transform="matrix(1 0 0 1 776 1953)">Margins</text>
  <text style="stroke:none;fill:black;font-family:-apple-system,&quot;SF Pro Display&quot;,&quot;SF Pro Text&quot;,Helvetica,sans-serif;" transform="matrix(1 0 0 1 776 1971)">Leading and trailing margins on the left and right side of each symbol</text>
  <text style="stroke:none;fill:black;font-family:-apple-system,&quot;SF Pro Display&quot;,&quot;SF Pro Text&quot;,Helvetica,sans-serif;" transform="matrix(1 0 0 1 776 1989)">can be adjusted by modifying the x-location of the margin guidelines.</text>
  <text style="stroke:none;fill:black;font-family:-apple-system,&quot;SF Pro Display&quot;,&quot;SF Pro Text&quot;,Helvetica,sans-serif;" transform="matrix(1 0 0 1 776 2007)">Modifications are automatically applied proportionally to all</text>
  <text style="stroke:none;fill:black;font-family:-apple-system,&quot;SF Pro Display&quot;,&quot;SF Pro Text&quot;,Helvetica,sans-serif;" transform="matrix(1 0 0 1 776 2025)">scales and weights.</text>
  <g id="" transform="matrix(1 0 0 1 1289 1933)">
   <path d="M2.8418 1.86523L4.54102 3.57422C5.40039 4.44336 6.38672 4.38477 7.31445 3.35938L17.4902-7.85156C17.7539-7.76367 18.0273-7.7832 18.3398-7.8418L19.4043-8.03711L20.0684-7.36328L20.0293-6.80664C19.9902-6.30859 20.1172-5.92773 20.6055-5.44922L21.3672-4.70703C21.8457-4.22852 22.4609-4.19922 22.9297-4.66797L25.8398-7.58789C26.3086-8.05664 26.2891-8.65234 25.8105-9.13086L25.0391-9.89258C24.5605-10.3711 24.1895-10.5273 23.7109-10.4883L23.1348-10.4395L22.4902-11.0742L22.7344-12.1973C22.8613-12.7637 22.7051-13.2031 22.1191-13.7891L19.9219-15.9766C16.582-19.2969 12.1484-19.2188 9.25781-16.3281C8.83789-15.918 8.80859-15.3418 9.04297-14.9512C9.27734-14.5898 9.73633-14.3555 10.3809-14.5215C11.8457-14.8633 13.3691-14.9219 14.7949-13.9844L14.209-12.5293C14.0137-12.0508 13.9844-11.6504 14.1113-11.2891L3.04688-0.898438C2.06055 0.0195312 1.98242 0.996094 2.8418 1.86523ZM10.752-15.957C13.1836-17.7344 16.4746-17.4316 18.7012-15.2051L21.1328-12.793C21.3672-12.5586 21.4062-12.373 21.3379-12.0312L21.0156-10.5469L22.5195-9.0625L23.5059-9.12109C23.7598-9.13086 23.8379-9.11133 24.0332-8.91602L24.6094-8.33984L22.168-5.89844L21.5918-6.47461C21.3965-6.66992 21.3672-6.74805 21.377-7.01172L21.4453-7.98828L19.9512-9.47266L18.4277-9.21875C18.1055-9.15039 17.959-9.17969 17.7148-9.41406L15.7129-11.416C15.459-11.6504 15.4297-11.8164 15.5859-12.1875L16.4648-14.2773C14.9023-15.7324 12.8711-16.3574 10.8398-15.7617C10.6836-15.7227 10.625-15.8496 10.752-15.957ZM5.27344 2.30469L4.10156 1.14258C3.63281 0.683594 3.74023 0.341797 4.14062-0.0195312L14.9512-10.1953L16.416-8.71094L6.42578 2.27539C6.07422 2.67578 5.74219 2.77344 5.27344 2.30469Z"/>
  </g>
  <text style="stroke:none;fill:black;font-family:-apple-system,&quot;SF Pro Display&quot;,&quot;SF Pro Text&quot;,Helvetica,sans-serif;font-weight:bold;" transform="matrix(1 0 0 1 1289 1953)">Exporting</text>
  <text style="stroke:none;fill:black;font-family:-apple-system,&quot;SF Pro Display&quot;,&quot;SF Pro Text&quot;,Helvetica,sans-serif;" transform="matrix(1 0 0 1 1289 1971)">Symbols should be outlined when exporting to ensure the</text>
  <text style="stroke:none;fill:black;font-family:-apple-system,&quot;SF Pro Display&quot;,&quot;SF Pro Text&quot;,Helvetica,sans-serif;" transform="matrix(1 0 0 1 1289 1989)">design is preserved when submitting to Xcode.</text>
  <text id="template-version" style="stroke:none;fill:black;font-family:-apple-system,&quot;SF Pro Display&quot;,&quot;SF Pro Text&quot;,Helvetica,sans-serif;text-anchor:end;" transform="matrix(1 0 0 1 3036 1933)">Template v.2.0</text>
  <text style="stroke:none;fill:black;font-family:-apple-system,&quot;SF Pro Display&quot;,&quot;SF Pro Text&quot;,Helvetica,sans-serif;text-anchor:end;" transform="matrix(1 0 0 1 3036 1951)">Requires Xcode 12 or greater</text>
  <text style="stroke:none;fill:black;font-family:-apple-system,&quot;SF Pro Display&quot;,&quot;SF Pro Text&quot;,Helvetica,sans-serif;" transform="matrix(1 0 0 1 263 726)">Small</text>
  <text style="stroke:none;fill:black;font-family:-apple-system,&quot;SF Pro Display&quot;,&quot;SF Pro Text&quot;,Helvetica,sans-serif;" transform="matrix(1 0 0 1 263 1156)">Medium</text>
  <text style="stroke:none;fill:black;font-family:-apple-system,&quot;SF Pro Display&quot;,&quot;SF Pro Text&quot;,Helvetica,sans-serif;" transform="matrix(1 0 0 1 263 1586)">Large</text>
 </g>
 <g id="Guides">
  <g id="H-reference" style="fill:#27AAE1;stroke:none;" transform="matrix(1 0 0 1 339 696)">
   <path d="M0.976562 0L3.66211 0L12.9883-24.4629L45.752-24.4629L55.127 0L57.7637 0L30.6152-70.459L28.125-70.459ZM29.3457-67.1387L29.4434-67.1387L44.873-26.709L13.8672-26.709Z"/>
  </g>
  <line id="Baseline-S" style="fill:none;stroke:#27AAE1;opacity:1;stroke-width:0.5;" x1="263" x2="3036" y1="696" y2="696"/>
  <line id="Capline-S" style="fill:none;stroke:#27AAE1;opacity:1;stroke-width:0.5;" x1="263" x2="3036" y1="625.541" y2="625.541"/>
  <g id="H-reference" style="fill:#27AAE1;stroke:none;" transform="matrix(1 0 0 1 339 1126)">
   <path d="M0.976562 0L3.66211 0L12.9883-24.4629L45.752-24.4629L55.127 0L57.7637 0L30.6152-70.459L28.125-70.459ZM29.3457-67.1387L29.4434-67.1387L44.873-26.709L13.8672-26.709Z"/>
  </g>
  <line id="Baseline-M" style="fill:none;stroke:#27AAE1;opacity:1;stroke-width:0.5;" x1="263" x2="3036" y1="1126" y2="1126"/>
  <line id="Capline-M" style="fill:none;stroke:#27AAE1;opacity:1;stroke-width:0.5;" x1="263" x2="3036" y1="1055.54" y2="1055.54"/>
  <g id="H-reference" style="fill:#27AAE1;stroke:none;" transform="matrix(1 0 0 1 339 1556)">
   <path d="M0.976562 0L3.66211 0L12.9883-24.4629L45.752-24.4629L55.127 0L57.7637 0L30.6152-70.459L28.125-70.459ZM29.3457-67.1387L29.4434-67.1387L44.873-26.709L13.8672-26.709Z"/>
  </g>
  <line id="Baseline-L" style="fill:none;stroke:#27AAE1;opacity:1;stroke-width:0.5;" x1="263" x2="3036" y1="1556" y2="1556"/>
  <line id="Capline-L" style="fill:none;stroke:#27AAE1;opacity:1;stroke-width:0.5;" x1="263" x2="3036" y1="1485.54" y2="1485.54"/>
  <line id="left-margin" x1="1390.2782155539771" x2="1390.2782155539771" y1="1030.79" y2="1150.12" style="fill:none;stroke:#00AEEF;stroke-width:0.5;opacity:1.0;"/>
  <line id="right-margin" x1="1511.9817844460226" x2="1511.9817844460226" y1="1030.79" y2="1150.12" style="fill:none;stroke:#00AEEF;stroke-width:0.5;opacity:1.0;"/>
 </g>
 <g id="Symbols">
  <g id="Black-L" transform="matrix(1.0,0.0,0.0,1.0,2831.3921027166193,1416.862394864169)">  <path stroke-linejoin="miter" stroke-dasharray="none" stroke-opacity="1" fill="#000000" stroke="none" stroke-linecap="butt" stroke-miterlimit="4" stroke-width="1px" fill-opacity="1" fill-rule="nonzero" d="M103.288,180.754C100.182,180.754,97.36,180.065,95.02,178.954C93.715,178.335,92.875,177.757,92.355,177.3C92.438,177.374,92.764,177.714,93.27,178.309C93.947,179.106,94.751,180.131,95.864,181.615C95.994,181.787,98.663,185.384,99.531,186.525C101.355,188.921,102.944,190.875,104.684,192.772C107.434,195.773,110.299,198.346,113.739,200.586C119.413,204.281,125.954,206.576,133.414,206.576C143.942,206.576,152.669,202.39,160.089,195.871C164.695,191.824,168.758,186.859,172.607,180.979C178.644,171.755,184.381,159.831,189.539,146.29C199.685,119.658,206.576,89.682,206.576,68.859C206.576,35.569,180.046,8.607,146.325,8.607C137.968,8.607,130.135,10.428,122.463,13.658C117.399,15.79,113.271,18.073,107.404,21.684C101.264,25.462,101.096,25.562,99.787,26.203C99.576,26.307,99.43,26.372,99.353,26.403C99.413,26.379,99.541,26.334,99.743,26.276C100.666,26.008,101.856,25.822,103.288,25.822C104.719,25.822,105.909,26.008,106.833,26.276C107.035,26.334,107.163,26.379,107.223,26.403C107.146,26.372,107,26.307,106.789,26.203C105.48,25.562,105.312,25.462,99.172,21.684C93.305,18.073,89.177,15.79,84.113,13.658C76.441,10.428,68.607,8.607,60.251,8.607C26.399,8.607,0,35.006,0,68.859C0,89.682,6.891,119.658,17.036,146.29C22.195,159.831,27.932,171.755,33.969,180.979C37.818,186.859,41.881,191.824,46.487,195.871C53.907,202.39,62.634,206.576,73.162,206.576C80.622,206.576,87.163,204.281,92.837,200.586C96.277,198.346,99.141,195.773,101.892,192.772C103.632,190.875,105.221,188.921,107.045,186.525C107.913,185.384,110.582,181.787,110.712,181.615C111.825,180.131,112.628,179.106,113.306,178.309C113.812,177.714,114.138,177.374,114.221,177.3C113.701,177.757,112.861,178.335,111.556,178.954C109.216,180.065,106.393,180.754,103.288,180.754ZM103.288,120.503C91.917,120.503,82.502,124.97,74.467,132.025C70.105,135.856,66.805,139.738,62.511,145.464C62.186,145.896,59.703,149.242,59.1,150.035C58.293,151.095,57.756,151.755,57.478,152.059C57.528,152.004,57.659,151.873,57.901,151.656C58.437,151.174,59.105,150.652,59.96,150.095C63.379,147.869,67.78,146.325,73.162,146.325C76.869,146.325,80.143,147.149,82.87,148.457C84.415,149.198,85.495,149.94,86.254,150.607C86.411,150.745,86.338,150.668,86.113,150.393C85.635,149.809,85.046,148.997,84.382,147.982C81.022,142.849,77.078,134.651,73.34,124.841C65.585,104.483,60.251,81.281,60.251,68.859C60.251,68.497,60.286,68.317,60.311,68.255C60.269,68.359,60.172,68.506,60.035,68.642C59.898,68.779,59.752,68.876,59.648,68.918C59.709,68.893,59.89,68.859,60.251,68.859C59.972,68.859,59.772,68.834,59.695,68.817C59.882,68.86,60.226,68.974,60.732,69.188C62.245,69.824,64.164,70.886,67.595,72.997C68.094,73.304,69.888,74.414,70.165,74.585C71.294,75.282,72.191,75.829,73.093,76.367C75.652,77.895,77.926,79.156,80.286,80.313C87.705,83.946,95.035,86.073,103.288,86.073C111.541,86.073,118.87,83.946,126.29,80.313C128.65,79.156,130.924,77.895,133.482,76.367C134.384,75.829,135.282,75.282,136.411,74.585C136.688,74.414,138.482,73.304,138.981,72.997C142.412,70.886,144.331,69.824,145.844,69.188C146.35,68.974,146.693,68.86,146.881,68.817C146.804,68.834,146.603,68.859,146.325,68.859C146.518,68.859,146.573,68.87,146.57,68.868C146.498,68.838,146.424,68.788,146.37,68.732C146.328,68.69,146.325,68.682,146.325,68.859C146.325,81.281,140.991,104.483,133.235,124.841C129.498,134.651,125.554,142.849,122.194,147.982C121.53,148.997,120.941,149.809,120.463,150.393C120.238,150.668,120.165,150.745,120.322,150.607C121.081,149.94,122.161,149.198,123.706,148.457C126.433,147.149,129.707,146.325,133.414,146.325C138.795,146.325,143.197,147.869,146.616,150.095C147.471,150.652,148.138,151.174,148.675,151.656C148.917,151.873,149.047,152.004,149.098,152.059C148.82,151.755,148.283,151.095,147.475,150.035C146.872,149.242,144.39,145.896,144.065,145.464C139.771,139.738,136.471,135.856,132.108,132.025C124.074,124.97,114.659,120.503,103.288,120.503Z"/>
</g>
  <g id="Heavy-L" transform="matrix(1.0,0.0,0.0,1.0,2534.6821027166193,1416.862394864169)">  <path stroke="none" stroke-linejoin="miter" stroke-linecap="butt" fill="#000000" stroke-width="1px" stroke-miterlimit="4" fill-rule="nonzero" stroke-dasharray="none" stroke-opacity="1" fill-opacity="1" d="M103.288,175.589C100.982,175.589,98.908,175.083,97.234,174.288C96.723,174.046,96.312,173.806,95.987,173.583C95.84,173.481,95.769,173.426,95.762,173.42C96.51,174.077,97.836,175.636,99.996,178.516C100.142,178.711,102.795,182.286,103.641,183.398C105.377,185.679,106.876,187.522,108.491,189.282C110.972,191.989,113.53,194.287,116.557,196.258C121.452,199.445,127.054,201.411,133.414,201.411C142.497,201.411,150.119,197.756,156.68,191.991C160.892,188.291,164.672,183.671,168.286,178.151C174.094,169.278,179.677,157.672,184.713,144.451C194.654,118.357,201.411,88.962,201.411,68.859C201.411,38.403,177.175,13.772,146.325,13.772C138.714,13.772,131.544,15.438,124.467,18.418C119.708,20.421,115.769,22.6,110.11,26.082C103.749,29.996,103.593,30.09,102.059,30.841C101.525,31.102,101.225,31.223,101.182,31.235C101.658,31.097,102.369,30.986,103.288,30.986C104.207,30.986,104.918,31.097,105.394,31.235C105.351,31.223,105.051,31.102,104.517,30.841C102.983,30.09,102.827,29.996,96.466,26.082C90.807,22.6,86.868,20.421,82.109,18.418C75.032,15.438,67.862,13.772,60.251,13.772C29.251,13.772,5.164,37.858,5.164,68.859C5.164,88.962,11.922,118.357,21.862,144.451C26.899,157.672,32.482,169.278,38.29,178.151C41.904,183.671,45.684,188.291,49.896,191.991C56.457,197.756,64.079,201.411,73.162,201.411C79.521,201.411,85.124,199.445,90.019,196.258C93.046,194.287,95.604,191.989,98.085,189.282C99.699,187.522,101.199,185.679,102.935,183.398C103.781,182.286,106.434,178.711,106.58,178.516C108.74,175.636,110.065,174.077,110.814,173.42C110.807,173.426,110.736,173.481,110.588,173.583C110.264,173.806,109.853,174.046,109.342,174.288C107.667,175.083,105.593,175.589,103.288,175.589ZM103.288,125.667C93.35,125.667,85.049,129.606,77.875,135.906C73.851,139.439,70.736,143.104,66.642,148.562C66.334,148.973,63.836,152.34,63.21,153.162C62.315,154.338,61.688,155.108,61.285,155.549C61.406,155.416,61.81,155.053,62.778,154.423C65.418,152.704,68.881,151.489,73.162,151.489C76.051,151.489,78.574,152.124,80.637,153.114C81.725,153.636,82.421,154.114,82.846,154.487C82.776,154.426,82.511,154.146,82.116,153.664C81.516,152.931,80.821,151.972,80.06,150.81C76.471,145.327,72.374,136.809,68.514,126.679C60.554,105.784,55.087,82.001,55.087,68.859C55.087,65.43,56.822,63.694,60.251,63.694C61.507,63.694,64.117,64.793,70.301,68.599C70.807,68.91,72.604,70.022,72.877,70.19C73.986,70.874,74.864,71.409,75.741,71.933C78.187,73.393,80.343,74.59,82.558,75.675C89.33,78.992,95.938,80.909,103.288,80.909C110.638,80.909,117.246,78.992,124.018,75.675C126.233,74.59,128.389,73.393,130.835,71.933C131.712,71.409,132.59,70.874,133.699,70.19C133.971,70.022,135.769,68.91,136.274,68.599C142.459,64.793,145.068,63.694,146.325,63.694C149.421,63.694,151.489,65.795,151.489,68.859C151.489,82.001,146.022,105.784,138.061,126.679C134.202,136.809,130.105,145.327,126.515,150.81C125.755,151.972,125.06,152.931,124.46,153.664C124.065,154.146,123.8,154.426,123.73,154.487C124.155,154.114,124.851,153.636,125.939,153.114C128.002,152.124,130.525,151.489,133.414,151.489C137.695,151.489,141.158,152.704,143.798,154.423C144.766,155.053,145.169,155.416,145.291,155.549C144.887,155.108,144.26,154.338,143.366,153.162C142.74,152.34,140.241,148.973,139.934,148.562C135.84,143.104,132.724,139.439,128.701,135.906C121.526,129.606,113.225,125.667,103.288,125.667Z"/>
</g>
  <g id="Bold-L" transform="matrix(1.0,0.0,0.0,1.0,2237.9721027166192,1416.862394864169)">  <path stroke="none" stroke-dasharray="none" stroke-width="1px" fill-opacity="1" stroke-linejoin="miter" stroke-linecap="butt" fill-rule="nonzero" stroke-miterlimit="4" fill="#000000" stroke-opacity="1" d="M103.288,170.425C101.782,170.425,100.457,170.101,99.448,169.623C99.194,169.502,99.018,169.4,98.912,169.327C98.94,169.345,99.029,169.415,99.169,169.539C100.257,170.494,101.767,172.271,104.127,175.417C104.29,175.634,106.927,179.188,107.75,180.27C109.4,182.437,110.809,184.168,112.297,185.793C118.183,192.213,124.378,196.247,133.414,196.247C141.053,196.247,147.569,193.122,153.272,188.112C157.088,184.758,160.586,180.484,163.964,175.323C169.543,166.8,174.972,155.514,179.887,142.613C189.623,117.057,196.247,88.242,196.247,68.859C196.247,41.236,174.304,18.936,146.325,18.936C134.299,18.936,125.677,22.566,112.817,30.48C106.235,34.531,106.089,34.618,104.33,35.479C103.546,35.863,102.974,36.093,102.621,36.195C102.65,36.187,102.882,36.151,103.288,36.151C103.694,36.151,103.926,36.187,103.955,36.195C103.602,36.093,103.03,35.863,102.245,35.479C100.487,34.618,100.341,34.531,93.759,30.48C80.899,22.566,72.277,18.936,60.251,18.936C32.103,18.936,10.329,40.71,10.329,68.859C10.329,88.242,16.953,117.057,26.689,142.613C31.603,155.514,37.033,166.8,42.611,175.323C45.989,180.484,49.488,184.758,53.304,188.112C59.007,193.122,65.523,196.247,73.162,196.247C82.198,196.247,88.393,192.213,94.278,185.793C95.767,184.168,97.176,182.437,98.826,180.27C99.649,179.188,102.286,175.634,102.449,175.417C104.808,172.271,106.319,170.494,107.406,169.539C107.547,169.415,107.636,169.345,107.663,169.327C107.557,169.4,107.382,169.502,107.127,169.623C106.119,170.101,104.793,170.425,103.288,170.425ZM103.288,130.831C94.784,130.831,87.597,134.242,81.282,139.787C77.598,143.022,74.668,146.469,70.774,151.661C70.483,152.049,67.968,155.438,67.319,156.29C66.338,157.58,65.621,158.461,65.092,159.038C64.928,159.217,64.826,159.319,64.803,159.34C64.963,159.196,65.215,158.999,65.596,158.751C67.456,157.539,69.982,156.653,73.162,156.653C75.234,156.653,77.005,157.1,78.403,157.77C79.034,158.073,79.346,158.287,79.437,158.367C78.646,157.672,77.314,156.045,75.739,153.639C71.921,147.804,67.669,138.968,63.688,128.518C55.523,107.085,49.922,82.721,49.922,68.859C49.922,62.577,53.97,58.53,60.251,58.53C62.75,58.53,66.053,59.921,73.008,64.2C73.52,64.516,75.321,65.63,75.588,65.795C76.678,66.467,77.536,66.99,78.388,67.499C80.722,68.892,82.761,70.023,84.829,71.037C90.954,74.037,96.84,75.744,103.288,75.744C109.735,75.744,115.621,74.037,121.746,71.037C123.815,70.023,125.854,68.892,128.188,67.499C129.04,66.99,129.898,66.467,130.988,65.795C131.255,65.63,133.056,64.516,133.568,64.2C140.523,59.921,143.826,58.53,146.325,58.53C152.292,58.53,156.653,62.962,156.653,68.859C156.653,82.721,151.052,107.085,142.887,128.518C138.907,138.968,134.655,147.804,130.836,153.639C129.261,156.045,127.93,157.672,127.139,158.367C127.23,158.287,127.542,158.073,128.172,157.77C129.571,157.1,131.342,156.653,133.414,156.653C136.594,156.653,139.12,157.539,140.98,158.751C141.36,158.999,141.613,159.196,141.773,159.34C141.75,159.319,141.648,159.217,141.484,159.038C140.955,158.461,140.238,157.58,139.256,156.29C138.608,155.438,136.093,152.049,135.802,151.661C131.908,146.469,128.978,143.022,125.293,139.787C118.979,134.242,111.791,130.831,103.288,130.831Z"/>
</g>
  <g id="Semibold-L" transform="matrix(1.0,0.0,0.0,1.0,1941.2621027166192,1416.862394864169)">  <path stroke-opacity="1" stroke="none" stroke-linejoin="miter" stroke-width="1px" fill="#000000" stroke-dasharray="none" stroke-linecap="butt" fill-rule="nonzero" stroke-miterlimit="4" fill-opacity="1" d="M103.288,165.261C102.582,165.261,102.005,165.12,101.663,164.957C101.762,165.004,102.085,165.226,102.577,165.658C104.003,166.91,105.699,168.905,108.259,172.319C108.438,172.558,111.06,176.091,111.86,177.142C113.422,179.195,114.741,180.815,116.104,182.303C121.097,187.749,126.216,191.083,133.414,191.083C144.104,191.083,152.041,184.11,159.643,172.494C164.992,164.322,170.268,153.356,175.061,140.774C184.592,115.756,191.083,87.522,191.083,68.859C191.083,44.07,171.433,24.101,146.325,24.101C135.541,24.101,127.613,27.439,115.524,34.878C106.888,40.192,104.596,41.315,103.288,41.315C101.98,41.315,99.687,40.192,91.052,34.878C78.962,27.439,71.035,24.101,60.251,24.101C34.955,24.101,15.493,43.563,15.493,68.859C15.493,87.522,21.984,115.756,31.515,140.774C36.308,153.356,41.583,164.322,46.932,172.494C54.535,184.11,62.472,191.083,73.162,191.083C80.36,191.083,85.479,187.749,90.471,182.303C91.835,180.815,93.154,179.195,94.716,177.142C95.516,176.091,98.138,172.558,98.317,172.319C100.877,168.905,102.573,166.91,103.999,165.658C104.491,165.226,104.814,165.004,104.913,164.957C104.57,165.12,103.993,165.261,103.288,165.261ZM103.288,135.996C96.218,135.996,90.144,138.878,84.69,143.667C81.344,146.605,78.599,149.835,74.905,154.76C74.631,155.125,72.1,158.536,71.429,159.418C70.36,160.822,69.553,161.814,68.899,162.528C68.628,162.823,68.41,163.042,68.254,163.182C68.226,163.207,68.271,163.172,68.414,163.079C69.495,162.375,71.082,161.818,73.162,161.818C74.416,161.818,75.436,162.075,76.17,162.427C76.344,162.51,76.272,162.461,76.028,162.247C74.842,161.205,73.229,159.233,71.418,156.467C67.37,150.282,62.965,141.126,58.862,130.356C50.492,108.385,44.758,83.441,44.758,68.859C44.758,59.725,51.118,53.365,60.251,53.365C63.993,53.365,67.99,55.048,75.715,59.802C76.233,60.121,78.037,61.238,78.299,61.399C79.37,62.06,80.209,62.571,81.035,63.065C83.257,64.391,85.178,65.457,87.101,66.399C92.579,69.082,97.743,70.58,103.288,70.58C108.833,70.58,113.997,69.082,119.475,66.399C121.397,65.457,123.319,64.391,125.54,63.065C126.367,62.571,127.206,62.06,128.276,61.399C128.538,61.238,130.342,60.121,130.861,59.802C138.586,55.048,142.583,53.365,146.325,53.365C155.163,53.365,161.818,60.128,161.818,68.859C161.818,83.441,156.083,108.385,147.713,130.356C143.611,141.126,139.206,150.282,135.157,156.467C133.347,159.233,131.733,161.205,130.547,162.247C130.304,162.461,130.232,162.51,130.406,162.427C131.14,162.075,132.16,161.818,133.414,161.818C135.493,161.818,137.081,162.375,138.162,163.079C138.305,163.172,138.35,163.207,138.322,163.182C138.166,163.042,137.948,162.823,137.677,162.528C137.023,161.814,136.216,160.822,135.147,159.418C134.476,158.536,131.945,155.125,131.671,154.76C127.977,149.835,125.232,146.605,121.886,143.667C116.432,138.878,110.357,135.996,103.288,135.996Z"/>
</g>
  <g id="Medium-L" transform="matrix(1.0,0.0,0.0,1.0,1644.5521027166192,1416.862394864169)">  <path stroke-dasharray="none" stroke-opacity="1" stroke-linejoin="miter" stroke="none" stroke-linecap="butt" fill-opacity="1" fill="#000000" stroke-miterlimit="4" fill-rule="nonzero" stroke-width="1px" d="M103.288,160.096C104.545,160.096,107.48,162.674,112.39,169.22C112.586,169.482,115.192,172.993,115.969,174.014C117.444,175.952,118.673,177.462,119.911,178.813C124.01,183.285,128.055,185.918,133.414,185.918C147.43,185.918,159.17,167.982,170.235,138.936C179.561,114.455,185.918,86.802,185.918,68.859C185.918,46.904,168.562,29.265,146.325,29.265C136.784,29.265,129.55,32.311,118.23,39.277C108.57,45.221,106.001,46.48,103.288,46.48C100.574,46.48,98.006,45.221,88.346,39.277C77.026,32.311,69.792,29.265,60.251,29.265C37.808,29.265,20.658,46.415,20.658,68.859C20.658,86.802,27.015,114.455,36.341,138.936C47.406,167.982,59.146,185.918,73.162,185.918C78.521,185.918,82.566,183.285,86.664,178.813C87.903,177.462,89.131,175.952,90.607,174.014C91.384,172.993,93.989,169.482,94.186,169.22C99.095,162.674,102.031,160.096,103.288,160.096ZM103.288,141.16C97.652,141.16,92.691,143.514,88.097,147.548C85.09,150.189,82.531,153.2,79.037,157.858C78.779,158.202,76.232,161.634,75.538,162.546C74.383,164.064,73.485,165.167,72.706,166.018C72.019,166.766,71.504,167.229,71.232,167.406C71.533,167.21,72.183,166.982,73.162,166.982C73.598,166.982,73.867,167.05,73.937,167.083C73.653,166.947,73.198,166.634,72.62,166.126C71.039,164.738,69.143,162.42,67.097,159.295C62.82,152.76,58.261,143.284,54.036,132.195C45.461,109.686,39.594,84.161,39.594,68.859C39.594,56.873,48.266,48.201,60.251,48.201C65.235,48.201,69.926,50.176,78.421,55.404C78.947,55.727,80.754,56.845,81.011,57.004C82.062,57.652,82.881,58.152,83.683,58.63C85.791,59.889,87.596,60.89,89.373,61.761C94.203,64.127,98.646,65.416,103.288,65.416C107.93,65.416,112.373,64.127,117.203,61.761C118.98,60.89,120.784,59.889,122.893,58.63C123.695,58.152,124.514,57.652,125.565,57.004C125.822,56.845,127.629,55.727,128.155,55.404C136.65,50.176,141.34,48.201,146.325,48.201C158.034,48.201,166.982,57.294,166.982,68.859C166.982,84.161,161.114,109.686,152.54,132.195C148.315,143.284,143.756,152.76,139.478,159.295C137.433,162.42,135.537,164.738,133.956,166.126C133.378,166.634,132.923,166.947,132.639,167.083C132.709,167.05,132.978,166.982,133.414,166.982C134.393,166.982,135.042,167.21,135.344,167.406C135.072,167.229,134.556,166.766,133.87,166.018C133.091,165.167,132.193,164.064,131.037,162.546C130.343,161.634,127.797,158.202,127.539,157.858C124.045,153.2,121.486,150.189,118.478,147.548C113.885,143.514,108.924,141.16,103.288,141.16Z"/>
</g>
  <g id="Regular-L" transform="matrix(1.0,0.0,0.0,1.0,1347.8421027166191,1416.862394864169)">  <path stroke-linecap="butt" stroke-dasharray="none" stroke-miterlimit="4" stroke="none" fill-rule="nonzero" stroke-width="1px" stroke-opacity="1" fill-opacity="1" fill="#000000" stroke-linejoin="miter" d="M103.288,154.932C106.843,154.932,110.612,158.241,116.522,166.121C116.735,166.405,119.324,169.895,120.079,170.886C121.467,172.71,122.605,174.109,123.718,175.324C126.924,178.82,129.893,180.754,133.414,180.754C144.149,180.754,155.224,163.833,165.409,137.097C174.53,113.155,180.754,86.082,180.754,68.859C180.754,49.738,165.691,34.429,146.325,34.429C138.027,34.429,131.486,37.183,120.937,43.675C110.252,50.25,107.407,51.644,103.288,51.644C99.169,51.644,96.324,50.25,85.639,43.675C75.09,37.183,68.549,34.429,60.251,34.429C40.66,34.429,25.822,49.267,25.822,68.859C25.822,86.082,32.046,113.155,41.167,137.097C51.352,163.833,62.427,180.754,73.162,180.754C76.683,180.754,79.652,178.82,82.857,175.324C83.971,174.109,85.109,172.71,86.497,170.886C87.252,169.895,89.841,166.405,90.054,166.121C95.964,158.241,99.733,154.932,103.288,154.932ZM103.288,146.325C95.904,146.325,90.746,150.854,83.168,160.957C76.264,170.163,74.446,172.146,73.162,172.146C67.896,172.146,57.929,156.919,49.21,134.033C40.431,110.987,34.429,84.881,34.429,68.859C34.429,54.021,45.413,43.037,60.251,43.037C66.478,43.037,71.862,45.304,81.128,51.006C88.743,55.692,88.836,55.747,91.644,57.123C95.828,59.172,99.548,60.251,103.288,60.251C107.028,60.251,110.748,59.172,114.931,57.123C117.74,55.747,117.833,55.692,125.448,51.006C134.713,45.304,140.098,43.037,146.325,43.037C160.906,43.037,172.146,54.46,172.146,68.859C172.146,84.881,166.145,110.987,157.366,134.033C148.647,156.919,138.68,172.146,133.414,172.146C132.13,172.146,130.312,170.163,123.408,160.957C115.83,150.854,110.672,146.325,103.288,146.325Z"/>
</g>
  <g id="Light-L" transform="matrix(1.0,0.0,0.0,1.0,1051.1321027166193,1416.862394864169)">  <path stroke="none" stroke-linejoin="miter" fill-rule="nonzero" stroke-width="1px" stroke-linecap="butt" stroke-opacity="1" stroke-miterlimit="4" fill-opacity="1" fill="#000000" stroke-dasharray="none" d="M103.288,154.215C107.162,154.215,111.047,157.626,117.095,165.691C117.311,165.978,119.898,169.465,120.65,170.452C122.025,172.26,123.151,173.643,124.247,174.839C127.328,178.2,130.148,180.037,133.414,180.037C143.693,180.037,154.676,163.257,164.739,136.842C173.831,112.974,180.037,85.982,180.037,68.859C180.037,50.131,165.292,35.147,146.325,35.147C138.199,35.147,131.755,37.86,121.313,44.286C110.485,50.949,107.602,52.361,103.288,52.361C98.974,52.361,96.09,50.949,85.263,44.286C74.821,37.86,68.377,35.147,60.251,35.147C41.056,35.147,26.539,49.663,26.539,68.859C26.539,85.982,32.744,112.974,41.837,136.842C51.9,163.257,62.883,180.037,73.162,180.037C76.427,180.037,79.247,178.2,82.329,174.839C83.425,173.643,84.55,172.26,85.926,170.452C86.678,169.465,89.265,165.978,89.48,165.691C95.529,157.626,99.414,154.215,103.288,154.215ZM103.288,147.042C96.223,147.042,91.18,151.469,83.742,161.387C76.576,170.942,74.814,172.864,73.162,172.864C67.44,172.864,57.38,157.495,48.54,134.289C39.732,111.167,33.712,84.981,33.712,68.859C33.712,53.625,45.017,42.319,60.251,42.319C66.651,42.319,72.131,44.627,81.504,50.395C93.755,57.934,97.022,59.534,103.288,59.534C109.554,59.534,112.821,57.934,125.072,50.395C134.444,44.627,139.925,42.319,146.325,42.319C161.304,42.319,172.864,54.067,172.864,68.859C172.864,84.981,166.844,111.167,158.036,134.289C149.195,157.495,139.136,172.864,133.414,172.864C131.761,172.864,130,170.942,122.834,161.387C115.395,151.469,110.353,147.042,103.288,147.042Z"/>
</g>
  <g id="Thin-L" transform="matrix(1.0,0.0,0.0,1.0,754.4221027166193,1416.862394864169)">  <path fill-opacity="1" stroke-linejoin="miter" stroke-linecap="butt" stroke-miterlimit="4" stroke="none" stroke-dasharray="none" fill-rule="nonzero" stroke-opacity="1" stroke-width="1px" fill="#000000" d="M103.288,153.497C107.481,153.497,111.481,157.01,117.669,165.261C117.887,165.551,120.472,169.034,121.22,170.018C122.584,171.809,123.697,173.178,124.776,174.354C127.733,177.58,130.404,179.319,133.414,179.319C143.237,179.319,154.128,162.681,164.068,136.587C173.133,112.793,179.319,85.882,179.319,68.859C179.319,50.525,164.893,35.864,146.325,35.864C138.372,35.864,132.024,38.537,121.689,44.897C110.719,51.647,107.797,53.079,103.288,53.079C98.779,53.079,95.857,51.647,84.887,44.897C74.552,38.537,68.204,35.864,60.251,35.864C41.452,35.864,27.257,50.059,27.257,68.859C27.257,85.882,33.443,112.793,42.507,136.587C52.448,162.681,63.339,179.319,73.162,179.319C76.172,179.319,78.843,177.58,81.8,174.354C82.878,173.178,83.992,171.809,85.356,170.018C86.104,169.034,88.689,165.551,88.906,165.261C95.094,157.01,99.095,153.497,103.288,153.497ZM103.288,147.759C96.542,147.759,91.615,152.085,84.316,161.818C76.889,171.721,75.183,173.581,73.162,173.581C59.313,173.581,32.995,104.497,32.995,68.859C32.995,53.229,44.621,41.602,60.251,41.602C66.823,41.602,72.4,43.95,81.88,49.784C93.988,57.235,97.217,58.817,103.288,58.817C109.359,58.817,112.587,57.235,124.696,49.784C134.175,43.95,139.752,41.602,146.325,41.602C161.703,41.602,173.581,53.673,173.581,68.859C173.581,104.497,147.263,173.581,133.414,173.581C131.392,173.581,129.687,171.721,122.26,161.818C114.96,152.085,110.034,147.759,103.288,147.759Z"/>
</g>
  <g id="Ultralight-L" transform="matrix(1.0,0.0,0.0,1.0,457.71210271661926,1416.862394864169)">  <path fill="#000000" fill-opacity="1" stroke-width="1px" stroke="none" stroke-linejoin="miter" stroke-dasharray="none" stroke-miterlimit="4" fill-rule="nonzero" stroke-linecap="butt" stroke-opacity="1" d="M103.288,152.78C107.8,152.78,111.916,156.394,118.243,164.83C118.463,165.124,121.046,168.604,121.791,169.583C123.143,171.359,124.243,172.712,125.305,173.87C128.138,176.96,130.659,178.602,133.414,178.602C142.782,178.602,153.58,162.105,163.398,136.331C172.434,112.613,178.602,85.782,178.602,68.859C178.602,50.918,164.494,36.581,146.325,36.581C138.544,36.581,132.293,39.213,122.065,45.508C110.952,52.346,107.992,53.796,103.288,53.796C98.584,53.796,95.623,52.346,84.511,45.508C74.283,39.213,68.031,36.581,60.251,36.581C41.848,36.581,27.974,50.456,27.974,68.859C27.974,85.782,34.142,112.613,43.178,136.331C52.996,162.105,63.794,178.602,73.162,178.602C75.917,178.602,78.438,176.96,81.271,173.87C82.332,172.712,83.433,171.359,84.785,169.583C85.53,168.604,88.113,165.124,88.333,164.83C94.66,156.394,98.776,152.78,103.288,152.78ZM103.288,148.476C96.861,148.476,92.05,152.701,84.89,162.248C77.201,172.5,75.552,174.298,73.162,174.298C58.728,174.298,32.277,104.867,32.277,68.859C32.277,52.832,44.225,40.885,60.251,40.885C66.996,40.885,72.669,43.274,82.256,49.173C94.222,56.537,97.412,58.099,103.288,58.099C109.163,58.099,112.354,56.537,124.32,49.173C133.907,43.274,139.58,40.885,146.325,40.885C162.102,40.885,174.298,53.28,174.298,68.859C174.298,104.867,147.848,174.298,133.414,174.298C131.024,174.298,129.375,172.5,121.686,162.248C114.526,152.701,109.714,148.476,103.288,148.476Z"/>
</g>
  <g id="Black-M" transform="matrix(1.0,0.0,0.0,1.0,2854.6118625710224,1010.2214732776988)">  <path stroke-linejoin="miter" stroke-dasharray="none" stroke-opacity="1" fill="#000000" stroke="none" stroke-linecap="butt" stroke-miterlimit="4" stroke-width="1px" fill-opacity="1" fill-rule="nonzero" d="M80.068,140.119C77.661,140.119,75.473,139.585,73.659,138.724C72.647,138.244,71.996,137.796,71.593,137.442C71.657,137.499,71.91,137.763,72.302,138.224C72.827,138.842,73.45,139.636,74.313,140.786C74.414,140.92,76.483,143.709,77.156,144.593C78.57,146.451,79.802,147.965,81.15,149.436C83.282,151.762,85.503,153.756,88.169,155.493C92.568,158.357,97.639,160.136,103.421,160.136C111.583,160.136,118.348,156.891,124.1,151.838C127.67,148.701,130.82,144.852,133.804,140.294C138.484,133.144,142.931,123.9,146.93,113.403C154.794,92.758,160.136,69.521,160.136,53.379C160.136,27.573,139.57,6.672,113.43,6.672C106.952,6.672,100.88,8.083,94.932,10.588C91.007,12.24,87.807,14.01,83.259,16.809C78.499,19.738,78.369,19.815,77.354,20.312C77.19,20.393,77.077,20.444,77.018,20.467C77.065,20.449,77.164,20.414,77.32,20.369C78.036,20.161,78.958,20.017,80.068,20.017C81.178,20.017,82.1,20.161,82.816,20.369C82.973,20.414,83.072,20.449,83.118,20.467C83.059,20.444,82.946,20.393,82.782,20.312C81.767,19.815,81.637,19.738,76.878,16.809C72.329,14.01,69.129,12.24,65.204,10.588C59.257,8.083,53.184,6.672,46.706,6.672C20.464,6.672,0,27.136,0,53.379C0,69.521,5.342,92.758,13.207,113.403C17.205,123.9,21.652,133.144,26.333,140.294C29.316,144.852,32.466,148.701,36.036,151.838C41.788,156.891,48.554,160.136,56.715,160.136C62.498,160.136,67.568,158.357,71.967,155.493C74.634,153.756,76.854,151.762,78.986,149.436C80.335,147.965,81.567,146.451,82.98,144.593C83.654,143.709,85.723,140.92,85.823,140.786C86.686,139.636,87.309,138.842,87.834,138.224C88.226,137.763,88.479,137.499,88.544,137.442C88.14,137.796,87.489,138.244,86.477,138.724C84.663,139.585,82.476,140.119,80.068,140.119ZM80.068,93.413C71.253,93.413,63.955,96.876,57.727,102.345C54.345,105.314,51.787,108.324,48.458,112.763C48.206,113.098,46.282,115.692,45.814,116.306C45.188,117.128,44.772,117.64,44.556,117.875C44.596,117.832,44.697,117.731,44.884,117.563C45.3,117.189,45.818,116.785,46.48,116.353C49.131,114.627,52.543,113.43,56.715,113.43C59.588,113.43,62.126,114.069,64.24,115.083C65.438,115.658,66.275,116.233,66.864,116.75C66.985,116.857,66.928,116.797,66.754,116.584C66.384,116.131,65.927,115.502,65.412,114.715C62.808,110.736,59.75,104.381,56.853,96.776C50.841,80.995,46.706,63.008,46.706,53.379C46.706,53.098,46.733,52.959,46.753,52.911C46.72,52.992,46.645,53.105,46.539,53.211C46.433,53.317,46.319,53.392,46.239,53.425C46.286,53.406,46.426,53.379,46.706,53.379C46.49,53.379,46.335,53.36,46.275,53.346C46.42,53.38,46.687,53.469,47.079,53.634C48.252,54.128,49.74,54.95,52.399,56.587C52.786,56.825,54.177,57.686,54.392,57.818C55.267,58.358,55.962,58.782,56.662,59.199C58.645,60.383,60.408,61.362,62.237,62.258C67.989,65.075,73.671,66.723,80.068,66.723C86.466,66.723,92.148,65.075,97.899,62.258C99.729,61.362,101.492,60.383,103.475,59.199C104.174,58.782,104.87,58.358,105.745,57.818C105.96,57.686,107.35,56.825,107.737,56.587C110.397,54.95,111.885,54.128,113.057,53.634C113.45,53.469,113.716,53.38,113.861,53.346C113.802,53.36,113.646,53.379,113.43,53.379C113.58,53.379,113.623,53.387,113.62,53.386C113.564,53.363,113.507,53.324,113.465,53.281C113.432,53.248,113.43,53.242,113.43,53.379C113.43,63.008,109.295,80.995,103.283,96.776C100.386,104.381,97.329,110.736,94.724,114.715C94.209,115.502,93.753,116.131,93.382,116.584C93.208,116.797,93.151,116.857,93.273,116.75C93.861,116.233,94.698,115.658,95.896,115.083C98.01,114.069,100.548,113.43,103.421,113.43C107.593,113.43,111.005,114.627,113.656,116.353C114.319,116.785,114.836,117.189,115.252,117.563C115.439,117.731,115.541,117.832,115.58,117.875C115.364,117.64,114.948,117.128,114.322,116.306C113.855,115.692,111.93,113.098,111.678,112.763C108.35,108.324,105.791,105.314,102.41,102.345C96.181,96.876,88.883,93.413,80.068,93.413Z"/>
</g>
  <g id="Heavy-M" transform="matrix(1.0,0.0,0.0,1.0,2557.9018625710223,1010.2214732776988)">  <path stroke="none" stroke-linejoin="miter" stroke-linecap="butt" fill="#000000" stroke-width="1px" stroke-miterlimit="4" fill-rule="nonzero" stroke-dasharray="none" stroke-opacity="1" fill-opacity="1" d="M80.068,136.116C78.281,136.116,76.673,135.723,75.375,135.107C74.979,134.919,74.66,134.733,74.409,134.56C74.294,134.482,74.24,134.439,74.234,134.434C74.814,134.943,75.842,136.152,77.516,138.384C77.629,138.535,79.686,141.307,80.342,142.169C81.688,143.937,82.85,145.366,84.101,146.731C86.025,148.829,88.008,150.61,90.354,152.138C94.149,154.609,98.492,156.133,103.421,156.133C110.463,156.133,116.371,153.299,121.458,148.83C124.722,145.962,127.653,142.381,130.454,138.101C134.956,131.223,139.284,122.227,143.189,111.978C150.894,91.75,156.133,68.963,156.133,53.379C156.133,29.77,137.345,10.676,113.43,10.676C107.53,10.676,101.972,11.967,96.486,14.277C92.797,15.831,89.743,17.519,85.357,20.218C80.426,23.253,80.304,23.325,79.115,23.908C78.702,24.11,78.469,24.204,78.436,24.213C78.805,24.106,79.356,24.02,80.068,24.02C80.78,24.02,81.331,24.106,81.7,24.213C81.668,24.204,81.435,24.11,81.021,23.908C79.832,23.325,79.71,23.253,74.78,20.218C70.393,17.519,67.34,15.831,63.65,14.277C58.164,11.967,52.606,10.676,46.706,10.676C22.675,10.676,4.003,29.347,4.003,53.379C4.003,68.963,9.242,91.75,16.948,111.978C20.852,122.227,25.18,131.223,29.682,138.101C32.483,142.381,35.414,145.962,38.679,148.83C43.765,153.299,49.673,156.133,56.715,156.133C61.644,156.133,65.988,154.609,69.782,152.138C72.129,150.61,74.111,148.829,76.035,146.731C77.286,145.366,78.449,143.937,79.795,142.169C80.45,141.307,82.507,138.535,82.62,138.384C84.294,136.152,85.322,134.943,85.902,134.434C85.897,134.439,85.842,134.482,85.727,134.56C85.476,134.733,85.157,134.919,84.761,135.107C83.463,135.723,81.855,136.116,80.068,136.116ZM80.068,97.416C72.365,97.416,65.93,100.47,60.368,105.353C57.249,108.092,54.834,110.933,51.661,115.165C51.422,115.483,49.485,118.093,49,118.73C48.307,119.642,47.82,120.239,47.508,120.58C47.602,120.477,47.915,120.196,48.665,119.708C50.711,118.375,53.396,117.433,56.715,117.433C58.954,117.433,60.91,117.926,62.509,118.693C63.352,119.097,63.892,119.468,64.221,119.758C64.167,119.71,63.962,119.493,63.656,119.119C63.191,118.551,62.652,117.808,62.062,116.907C59.28,112.656,56.103,106.054,53.112,98.201C46.941,82.003,42.703,63.566,42.703,53.379C42.703,50.721,44.048,49.375,46.706,49.375C47.68,49.375,49.703,50.227,54.497,53.177C54.889,53.419,56.283,54.281,56.493,54.411C57.353,54.941,58.034,55.356,58.714,55.762C60.61,56.894,62.282,57.822,63.998,58.662C69.248,61.234,74.37,62.72,80.068,62.72C85.766,62.72,90.888,61.234,96.138,58.662C97.855,57.822,99.526,56.894,101.423,55.762C102.102,55.356,102.783,54.941,103.643,54.411C103.854,54.281,105.247,53.419,105.639,53.177C110.433,50.227,112.456,49.375,113.43,49.375C115.831,49.375,117.433,51.004,117.433,53.379C117.433,63.566,113.195,82.003,107.024,98.201C104.033,106.054,100.856,112.656,98.074,116.907C97.484,117.808,96.946,118.551,96.481,119.119C96.174,119.493,95.969,119.71,95.915,119.758C96.244,119.468,96.784,119.097,97.627,118.693C99.226,117.926,101.182,117.433,103.421,117.433C106.74,117.433,109.425,118.375,111.471,119.708C112.222,120.196,112.534,120.477,112.629,120.58C112.316,120.239,111.83,119.642,111.136,118.73C110.651,118.093,108.714,115.483,108.476,115.165C105.302,110.933,102.887,108.092,99.768,105.353C94.207,100.47,87.772,97.416,80.068,97.416Z"/>
</g>
  <g id="Bold-M" transform="matrix(1.0,0.0,0.0,1.0,2261.1918625710223,1010.2214732776988)">  <path stroke="none" stroke-dasharray="none" stroke-width="1px" fill-opacity="1" stroke-linejoin="miter" stroke-linecap="butt" fill-rule="nonzero" stroke-miterlimit="4" fill="#000000" stroke-opacity="1" d="M80.068,132.112C78.901,132.112,77.874,131.861,77.092,131.49C76.894,131.397,76.758,131.317,76.676,131.261C76.697,131.276,76.766,131.33,76.876,131.426C77.718,132.166,78.889,133.543,80.719,135.982C80.845,136.151,82.889,138.906,83.527,139.744C84.806,141.424,85.898,142.766,87.052,144.025C91.615,149.003,96.417,152.129,103.421,152.129C109.343,152.129,114.394,149.707,118.815,145.823C121.774,143.223,124.486,139.91,127.104,135.909C131.429,129.302,135.638,120.554,139.447,110.553C146.995,90.742,152.129,68.405,152.129,53.379C152.129,31.966,135.119,14.679,113.43,14.679C104.107,14.679,97.424,17.493,87.455,23.628C82.352,26.768,82.24,26.835,80.876,27.503C80.268,27.801,79.825,27.979,79.551,28.058C79.574,28.052,79.753,28.024,80.068,28.024C80.383,28.024,80.563,28.052,80.585,28.058C80.311,27.979,79.868,27.801,79.26,27.503C77.897,26.835,77.784,26.768,72.681,23.628C62.712,17.493,56.029,14.679,46.706,14.679C24.886,14.679,8.007,31.558,8.007,53.379C8.007,68.405,13.142,90.742,20.689,110.553C24.499,120.554,28.708,129.302,33.032,135.909C35.651,139.91,38.362,143.223,41.321,145.823C45.742,149.707,50.793,152.129,56.715,152.129C63.72,152.129,68.521,149.003,73.084,144.025C74.238,142.766,75.33,141.424,76.609,139.744C77.247,138.906,79.291,136.151,79.418,135.982C81.247,133.543,82.418,132.166,83.261,131.426C83.37,131.33,83.439,131.276,83.46,131.261C83.378,131.317,83.242,131.397,83.044,131.49C82.263,131.861,81.235,132.112,80.068,132.112ZM80.068,101.42C73.476,101.42,67.904,104.064,63.01,108.362C60.153,110.87,57.882,113.542,54.863,117.567C54.638,117.868,52.688,120.495,52.186,121.155C51.425,122.155,50.869,122.838,50.459,123.285C50.332,123.424,50.253,123.503,50.235,123.519C50.359,123.408,50.555,123.255,50.849,123.063C52.292,122.124,54.249,121.437,56.715,121.437C58.321,121.437,59.694,121.783,60.778,122.302C61.267,122.537,61.509,122.703,61.579,122.765C60.966,122.226,59.934,120.965,58.713,119.1C55.752,114.577,52.457,107.727,49.371,99.626C43.041,83.011,38.7,64.125,38.7,53.379C38.7,48.51,41.837,45.372,46.706,45.372C48.643,45.372,51.204,46.45,56.595,49.768C56.992,50.012,58.388,50.876,58.595,51.004C59.44,51.525,60.106,51.93,60.766,52.325C62.575,53.405,64.156,54.282,65.759,55.067C70.507,57.393,75.07,58.717,80.068,58.717C85.066,58.717,89.629,57.393,94.377,55.067C95.981,54.282,97.561,53.405,99.37,52.325C100.031,51.93,100.696,51.525,101.541,51.004C101.748,50.876,103.144,50.012,103.541,49.768C108.932,46.45,111.493,45.372,113.43,45.372C118.056,45.372,121.437,48.807,121.437,53.379C121.437,64.125,117.095,83.011,110.765,99.626C107.679,107.727,104.384,114.577,101.424,119.1C100.203,120.965,99.171,122.226,98.557,122.765C98.628,122.703,98.87,122.537,99.358,122.302C100.442,121.783,101.816,121.437,103.421,121.437C105.887,121.437,107.845,122.124,109.287,123.063C109.582,123.255,109.777,123.408,109.901,123.519C109.883,123.503,109.804,123.424,109.678,123.285C109.268,122.838,108.712,122.155,107.951,121.155C107.448,120.495,105.499,117.868,105.273,117.567C102.254,113.542,99.983,110.87,97.127,108.362C92.232,104.064,86.66,101.42,80.068,101.42Z"/>
</g>
  <g id="Semibold-M" transform="matrix(1.0,0.0,0.0,1.0,1964.4818625710227,1010.2214732776988)">  <path stroke-opacity="1" stroke="none" stroke-linejoin="miter" stroke-width="1px" fill="#000000" stroke-dasharray="none" stroke-linecap="butt" fill-rule="nonzero" stroke-miterlimit="4" fill-opacity="1" d="M80.068,128.109C79.521,128.109,79.074,128,78.808,127.874C78.885,127.91,79.136,128.082,79.517,128.417C80.622,129.388,81.937,130.934,83.921,133.58C84.061,133.766,86.093,136.504,86.713,137.319C87.924,138.91,88.946,140.167,90.003,141.32C93.873,145.542,97.842,148.126,103.421,148.126C111.708,148.126,117.861,142.721,123.755,133.716C127.901,127.382,131.991,118.881,135.706,109.127C143.095,89.733,148.126,67.846,148.126,53.379C148.126,34.163,132.894,18.683,113.43,18.683C105.071,18.683,98.925,21.27,89.553,27.038C82.859,31.157,81.082,32.027,80.068,32.027C79.054,32.027,77.277,31.157,70.583,27.038C61.211,21.27,55.066,18.683,46.706,18.683C27.097,18.683,12.01,33.77,12.01,53.379C12.01,67.846,17.042,89.733,24.43,109.127C28.145,118.881,32.235,127.382,36.382,133.716C42.275,142.721,48.428,148.126,56.715,148.126C62.294,148.126,66.263,145.542,70.133,141.32C71.19,140.167,72.212,138.91,73.423,137.319C74.044,136.504,76.076,133.766,76.215,133.58C78.199,130.934,79.514,129.388,80.619,128.417C81.001,128.082,81.251,127.91,81.328,127.874C81.062,128,80.615,128.109,80.068,128.109ZM80.068,105.423C74.588,105.423,69.879,107.658,65.651,111.37C63.057,113.647,60.93,116.151,58.066,119.969C57.853,120.252,55.892,122.896,55.371,123.58C54.543,124.668,53.917,125.437,53.41,125.991C53.2,126.219,53.031,126.389,52.91,126.497C52.888,126.517,52.923,126.49,53.034,126.418C53.872,125.872,55.103,125.44,56.715,125.44C57.687,125.44,58.478,125.639,59.047,125.912C59.181,125.977,59.126,125.939,58.937,125.773C58.017,124.965,56.766,123.436,55.363,121.292C52.225,116.498,48.81,109.4,45.63,101.051C39.141,84.02,34.696,64.683,34.696,53.379C34.696,46.299,39.626,41.369,46.706,41.369C49.607,41.369,52.705,42.673,58.694,46.358C59.096,46.606,60.494,47.471,60.697,47.596C61.527,48.108,62.177,48.505,62.818,48.887C64.54,49.915,66.03,50.742,67.52,51.472C71.766,53.552,75.77,54.713,80.068,54.713C84.367,54.713,88.37,53.552,92.616,51.472C94.107,50.742,95.596,49.915,97.318,48.887C97.959,48.505,98.609,48.108,99.439,47.596C99.642,47.471,101.041,46.606,101.443,46.358C107.431,42.673,110.529,41.369,113.43,41.369C120.282,41.369,125.44,46.611,125.44,53.379C125.44,64.683,120.995,84.02,114.507,101.051C111.326,109.4,107.911,116.498,104.773,121.292C103.37,123.436,102.119,124.965,101.2,125.773C101.011,125.939,100.955,125.977,101.09,125.912C101.659,125.639,102.45,125.44,103.421,125.44C105.034,125.44,106.264,125.872,107.102,126.418C107.213,126.49,107.248,126.517,107.226,126.497C107.105,126.389,106.936,126.219,106.726,125.991C106.219,125.437,105.593,124.668,104.765,123.58C104.245,122.896,102.283,120.252,102.07,119.969C99.207,116.151,97.079,113.647,94.485,111.37C90.257,107.658,85.548,105.423,80.068,105.423Z"/>
</g>
  <g id="Medium-M" transform="matrix(1.0,0.0,0.0,1.0,1667.7718625710227,1010.2214732776988)">  <path stroke-dasharray="none" stroke-opacity="1" stroke-linejoin="miter" stroke="none" stroke-linecap="butt" fill-opacity="1" fill="#000000" stroke-miterlimit="4" fill-rule="nonzero" stroke-width="1px" d="M80.068,124.106C81.043,124.106,83.318,126.104,87.124,131.178C87.276,131.381,89.296,134.103,89.899,134.895C91.042,136.397,91.994,137.568,92.955,138.615C96.132,142.081,99.267,144.123,103.421,144.123C114.287,144.123,123.388,130.219,131.965,107.702C139.195,88.725,144.123,67.288,144.123,53.379C144.123,36.36,130.668,22.686,113.43,22.686C106.034,22.686,100.426,25.047,91.651,30.447C84.163,35.055,82.172,36.031,80.068,36.031C77.965,36.031,75.973,35.055,68.485,30.447C59.71,25.047,54.102,22.686,46.706,22.686C29.308,22.686,16.014,35.981,16.014,53.379C16.014,67.288,20.942,88.725,28.171,107.702C36.749,130.219,45.85,144.123,56.715,144.123C60.869,144.123,64.004,142.081,67.182,138.615C68.142,137.568,69.094,136.397,70.238,134.895C70.84,134.103,72.86,131.381,73.012,131.178C76.818,126.104,79.094,124.106,80.068,124.106ZM80.068,109.426C75.699,109.426,71.854,111.252,68.292,114.378C65.961,116.425,63.977,118.76,61.269,122.371C61.069,122.637,59.095,125.298,58.557,126.004C57.661,127.182,56.965,128.037,56.361,128.696C55.829,129.276,55.429,129.635,55.219,129.772C55.452,129.62,55.956,129.443,56.715,129.443C57.053,129.443,57.261,129.496,57.315,129.522C57.095,129.416,56.742,129.174,56.294,128.78C55.069,127.704,53.599,125.907,52.013,123.485C48.697,118.418,45.163,111.073,41.889,102.477C35.241,85.028,30.693,65.241,30.693,53.379C30.693,44.088,37.415,37.365,46.706,37.365C50.57,37.365,54.206,38.896,60.792,42.949C61.199,43.199,62.6,44.066,62.799,44.189C63.614,44.692,64.249,45.079,64.87,45.45C66.505,46.426,67.904,47.202,69.281,47.877C73.026,49.711,76.469,50.71,80.068,50.71C83.667,50.71,87.11,49.711,90.855,47.877C92.232,47.202,93.631,46.426,95.266,45.45C95.887,45.079,96.522,44.692,97.337,44.189C97.536,44.066,98.937,43.199,99.345,42.949C105.93,38.896,109.566,37.365,113.43,37.365C122.507,37.365,129.443,44.414,129.443,53.379C129.443,65.241,124.895,85.028,118.248,102.477C114.973,111.073,111.439,118.418,108.123,123.485C106.537,125.907,105.067,127.704,103.842,128.78C103.394,129.174,103.041,129.416,102.821,129.522C102.875,129.496,103.084,129.443,103.421,129.443C104.18,129.443,104.684,129.62,104.918,129.772C104.707,129.635,104.307,129.276,103.775,128.696C103.171,128.037,102.475,127.182,101.579,126.004C101.041,125.298,99.067,122.637,98.867,122.371C96.159,118.76,94.175,116.425,91.844,114.378C88.283,111.252,84.437,109.426,80.068,109.426Z"/>
</g>
  <g id="Regular-M" transform="matrix(1.0,0.0,0.0,1.0,1371.0618625710226,1010.2214732776988)">  <path stroke-linecap="butt" stroke-dasharray="none" stroke-miterlimit="4" stroke="none" fill-rule="nonzero" stroke-width="1px" stroke-opacity="1" fill-opacity="1" fill="#000000" stroke-linejoin="miter" d="M80.068,120.102C82.824,120.102,85.745,122.668,90.327,128.776C90.492,128.996,92.499,131.701,93.084,132.47C94.16,133.884,95.043,134.968,95.906,135.91C98.39,138.62,100.692,140.119,103.421,140.119C111.743,140.119,120.329,127.003,128.224,106.277C135.295,87.717,140.119,66.73,140.119,53.379C140.119,38.556,128.442,26.689,113.43,26.689C106.997,26.689,101.927,28.824,93.749,33.857C85.466,38.954,83.261,40.034,80.068,40.034C76.875,40.034,74.67,38.954,66.387,33.857C58.209,28.824,53.139,26.689,46.706,26.689C31.519,26.689,20.017,38.192,20.017,53.379C20.017,66.73,24.842,87.717,31.912,106.277C39.808,127.003,48.393,140.119,56.715,140.119C59.444,140.119,61.746,138.62,64.231,135.91C65.094,134.968,65.976,133.884,67.052,132.47C67.637,131.701,69.644,128.996,69.809,128.776C74.391,122.668,77.313,120.102,80.068,120.102ZM80.068,113.43C74.344,113.43,70.345,116.941,64.472,124.773C59.119,131.909,57.71,133.447,56.715,133.447C52.632,133.447,44.906,121.643,38.147,103.902C31.341,86.036,26.689,65.8,26.689,53.379C26.689,41.877,35.204,33.362,46.706,33.362C51.533,33.362,55.707,35.119,62.89,39.539C68.793,43.172,68.865,43.215,71.042,44.281C74.285,45.87,77.169,46.706,80.068,46.706C82.967,46.706,85.851,45.87,89.094,44.281C91.271,43.215,91.343,43.172,97.246,39.539C104.429,35.119,108.603,33.362,113.43,33.362C124.733,33.362,133.447,42.217,133.447,53.379C133.447,65.8,128.795,86.036,121.989,103.902C115.23,121.643,107.504,133.447,103.421,133.447C102.427,133.447,101.017,131.909,95.665,124.773C89.791,116.941,85.792,113.43,80.068,113.43Z"/>
</g>
  <g id="Light-M" transform="matrix(1.0,0.0,0.0,1.0,1074.3518625710228,1010.2214732776988)">  <path stroke="none" stroke-linejoin="miter" fill-rule="nonzero" stroke-width="1px" stroke-linecap="butt" stroke-opacity="1" stroke-miterlimit="4" fill-opacity="1" fill="#000000" stroke-dasharray="none" d="M80.068,119.546C83.071,119.546,86.083,122.19,90.772,128.443C90.939,128.665,92.944,131.368,93.527,132.133C94.593,133.535,95.466,134.607,96.316,135.534C98.704,138.14,100.89,139.563,103.421,139.563C111.39,139.563,119.904,126.556,127.704,106.079C134.753,87.577,139.563,66.652,139.563,53.379C139.563,38.861,128.133,27.245,113.43,27.245C107.131,27.245,102.136,29.349,94.041,34.33C85.648,39.495,83.412,40.59,80.068,40.59C76.724,40.59,74.489,39.495,66.095,34.33C58.001,29.349,53.005,27.245,46.706,27.245C31.826,27.245,20.573,38.499,20.573,53.379C20.573,66.652,25.383,87.577,32.432,106.079C40.232,126.556,48.746,139.563,56.715,139.563C59.246,139.563,61.432,138.14,63.821,135.534C64.67,134.607,65.543,133.535,66.61,132.133C67.192,131.368,69.198,128.665,69.365,128.443C74.054,122.19,77.065,119.546,80.068,119.546ZM80.068,113.986C74.592,113.986,70.683,117.418,64.916,125.106C59.361,132.513,57.996,134.003,56.715,134.003C52.279,134.003,44.481,122.089,37.628,104.1C30.8,86.176,26.133,65.877,26.133,53.379C26.133,41.569,34.897,32.806,46.706,32.806C51.667,32.806,55.916,34.595,63.181,39.066C72.678,44.91,75.211,46.15,80.068,46.15C84.925,46.15,87.458,44.91,96.955,39.066C104.22,34.595,108.469,32.806,113.43,32.806C125.042,32.806,134.003,41.912,134.003,53.379C134.003,65.877,129.336,86.176,122.508,104.1C115.655,122.089,107.857,134.003,103.421,134.003C102.141,134.003,100.775,132.513,95.22,125.106C89.454,117.418,85.545,113.986,80.068,113.986Z"/>
</g>
  <g id="Thin-M" transform="matrix(1.0,0.0,0.0,1.0,777.6418625710228,1010.2214732776988)">  <path fill-opacity="1" stroke-linejoin="miter" stroke-linecap="butt" stroke-miterlimit="4" stroke="none" stroke-dasharray="none" fill-rule="nonzero" stroke-opacity="1" stroke-width="1px" fill="#000000" d="M80.068,118.99C83.318,118.99,86.42,121.713,91.217,128.109C91.385,128.334,93.389,131.034,93.969,131.797C95.026,133.186,95.889,134.246,96.725,135.158C99.018,137.659,101.088,139.007,103.421,139.007C111.037,139.007,119.479,126.109,127.185,105.881C134.211,87.437,139.007,66.575,139.007,53.379C139.007,39.166,127.824,27.801,113.43,27.801C107.265,27.801,102.344,29.873,94.332,34.804C85.829,40.037,83.564,41.146,80.068,41.146C76.573,41.146,74.308,40.037,65.804,34.804C57.792,29.873,52.871,27.801,46.706,27.801C32.133,27.801,21.129,38.806,21.129,53.379C21.129,66.575,25.925,87.437,32.951,105.881C40.657,126.109,49.1,139.007,56.715,139.007C59.048,139.007,61.118,137.659,63.411,135.158C64.247,134.246,65.11,133.186,66.167,131.797C66.747,131.034,68.751,128.334,68.92,128.109C73.717,121.713,76.818,118.99,80.068,118.99ZM80.068,114.542C74.839,114.542,71.02,117.895,65.361,125.44C59.604,133.117,58.282,134.559,56.715,134.559C45.979,134.559,25.577,81.005,25.577,53.379C25.577,41.262,34.59,32.25,46.706,32.25C51.801,32.25,56.124,34.07,63.473,38.592C72.859,44.368,75.362,45.594,80.068,45.594C84.774,45.594,87.277,44.368,96.664,38.592C104.012,34.07,108.335,32.25,113.43,32.25C125.351,32.25,134.559,41.607,134.559,53.379C134.559,81.005,114.158,134.559,103.421,134.559C101.855,134.559,100.533,133.117,94.775,125.44C89.117,117.895,85.297,114.542,80.068,114.542Z"/>
</g>
  <g id="Ultralight-M" transform="matrix(1.0,0.0,0.0,1.0,480.93186257102275,1010.2214732776988)">  <path fill="#000000" fill-opacity="1" stroke-width="1px" stroke="none" stroke-linejoin="miter" stroke-dasharray="none" stroke-miterlimit="4" fill-rule="nonzero" stroke-linecap="butt" stroke-opacity="1" d="M80.068,118.434C83.566,118.434,86.757,121.236,91.661,127.775C91.832,128.003,93.834,130.701,94.412,131.46C95.46,132.837,96.313,133.885,97.135,134.783C99.332,137.178,101.286,138.451,103.421,138.451C110.683,138.451,119.054,125.663,126.665,105.683C133.67,87.297,138.451,66.497,138.451,53.379C138.451,39.472,127.515,28.357,113.43,28.357C107.399,28.357,102.553,30.398,94.624,35.277C86.01,40.578,83.715,41.702,80.068,41.702C76.421,41.702,74.127,40.578,65.513,35.277C57.584,30.398,52.738,28.357,46.706,28.357C32.44,28.357,21.685,39.113,21.685,53.379C21.685,66.497,26.467,87.297,33.471,105.683C41.082,125.663,49.453,138.451,56.715,138.451C58.85,138.451,60.805,137.178,63.001,134.783C63.824,133.885,64.677,132.837,65.725,131.46C66.302,130.701,68.304,128.003,68.475,127.775C73.379,121.236,76.571,118.434,80.068,118.434ZM80.068,115.098C75.086,115.098,71.357,118.373,65.806,125.774C59.846,133.721,58.568,135.115,56.715,135.115C45.525,135.115,25.021,81.292,25.021,53.379C25.021,40.955,34.283,31.694,46.706,31.694C51.935,31.694,56.333,33.545,63.764,38.119C73.04,43.827,75.514,45.038,80.068,45.038C84.623,45.038,87.096,43.827,96.372,38.119C103.804,33.545,108.201,31.694,113.43,31.694C125.66,31.694,135.115,41.302,135.115,53.379C135.115,81.292,114.611,135.115,103.421,135.115C101.569,135.115,100.29,133.721,94.33,125.774C88.779,118.373,85.05,115.098,80.068,115.098Z"/>
</g>
  <g id="Black-S" transform="matrix(1.0,0.0,0.0,1.0,2871.9866483931105,597.7005078147195)">  <path stroke-linejoin="miter" stroke-dasharray="none" stroke-opacity="1" fill="#000000" stroke="none" stroke-linecap="butt" stroke-miterlimit="4" stroke-width="1px" fill-opacity="1" fill-rule="nonzero" d="M62.693,109.713C60.808,109.713,59.095,109.295,57.675,108.621C56.883,108.245,56.373,107.895,56.057,107.617C56.108,107.662,56.306,107.868,56.613,108.23C57.024,108.713,57.512,109.335,58.187,110.236C58.266,110.341,59.886,112.524,60.413,113.217C61.52,114.671,62.485,115.856,63.54,117.008C65.21,118.83,66.949,120.391,69.037,121.751C72.481,123.994,76.451,125.387,80.979,125.387C87.369,125.387,92.667,122.846,97.17,118.889C99.966,116.433,102.432,113.419,104.768,109.85C108.433,104.251,111.915,97.014,115.046,88.795C121.204,72.63,125.387,54.435,125.387,41.796C125.387,21.59,109.284,5.224,88.816,5.224C83.744,5.224,78.989,6.329,74.332,8.29C71.259,9.584,68.753,10.97,65.191,13.161C61.465,15.455,61.363,15.515,60.568,15.905C60.44,15.968,60.351,16.007,60.305,16.026C60.342,16.011,60.419,15.984,60.542,15.949C61.102,15.786,61.824,15.673,62.693,15.673C63.562,15.673,64.285,15.786,64.845,15.949C64.968,15.984,65.045,16.011,65.082,16.026C65.035,16.007,64.947,15.968,64.818,15.905C64.024,15.515,63.922,15.455,60.195,13.161C56.634,10.97,54.128,9.584,51.055,8.29C46.398,6.329,41.643,5.224,36.571,5.224C16.023,5.224,0,21.248,0,41.796C0,54.435,4.183,72.63,10.341,88.795C13.472,97.014,16.954,104.251,20.619,109.85C22.954,113.419,25.421,116.433,28.216,118.889C32.72,122.846,38.018,125.387,44.408,125.387C48.936,125.387,52.906,123.994,56.35,121.751C58.438,120.391,60.177,118.83,61.846,117.008C62.902,115.856,63.867,114.671,64.974,113.217C65.501,112.524,67.121,110.341,67.199,110.236C67.875,109.335,68.363,108.713,68.774,108.23C69.081,107.868,69.279,107.662,69.33,107.617C69.014,107.895,68.504,108.245,67.712,108.621C66.291,109.295,64.578,109.713,62.693,109.713ZM62.693,73.142C55.791,73.142,50.077,75.854,45.2,80.136C42.552,82.461,40.549,84.818,37.943,88.293C37.746,88.556,36.239,90.587,35.873,91.067C35.383,91.711,35.057,92.112,34.888,92.296C34.918,92.263,34.998,92.183,35.144,92.051C35.47,91.759,35.875,91.442,36.394,91.104C38.47,89.753,41.141,88.816,44.408,88.816C46.658,88.816,48.645,89.316,50.3,90.11C51.238,90.56,51.893,91.01,52.354,91.415C52.449,91.499,52.405,91.452,52.268,91.285C51.978,90.931,51.621,90.438,51.218,89.822C49.178,86.706,46.784,81.73,44.516,75.775C39.809,63.419,36.571,49.335,36.571,41.796C36.571,41.576,36.592,41.467,36.607,41.429C36.582,41.493,36.523,41.581,36.44,41.664C36.357,41.747,36.268,41.806,36.205,41.832C36.242,41.817,36.352,41.796,36.571,41.796C36.402,41.796,36.28,41.781,36.233,41.77C36.347,41.796,36.556,41.866,36.863,41.995C37.781,42.382,38.946,43.026,41.028,44.308C41.331,44.494,42.42,45.168,42.589,45.272C43.274,45.694,43.818,46.026,44.366,46.353C45.919,47.28,47.299,48.046,48.732,48.748C53.235,50.954,57.684,52.244,62.693,52.244C67.703,52.244,72.152,50.954,76.655,48.748C78.088,48.046,79.468,47.28,81.021,46.353C81.568,46.026,82.113,45.694,82.798,45.272C82.966,45.168,84.055,44.494,84.358,44.308C86.441,43.026,87.606,42.382,88.524,41.995C88.831,41.866,89.039,41.796,89.153,41.77C89.107,41.781,88.985,41.796,88.816,41.796C88.933,41.796,88.966,41.802,88.965,41.802C88.921,41.783,88.876,41.753,88.843,41.719C88.818,41.693,88.816,41.688,88.816,41.796C88.816,49.335,85.578,63.419,80.871,75.775C78.602,81.73,76.208,86.706,74.169,89.822C73.766,90.438,73.408,90.931,73.118,91.285C72.982,91.452,72.938,91.499,73.032,91.415C73.493,91.01,74.149,90.56,75.086,90.11C76.742,89.316,78.729,88.816,80.979,88.816C84.246,88.816,86.917,89.753,88.993,91.104C89.512,91.442,89.917,91.759,90.242,92.051C90.389,92.183,90.468,92.263,90.499,92.296C90.33,92.112,90.004,91.711,89.514,91.067C89.148,90.587,87.641,88.556,87.444,88.293C84.838,84.818,82.835,82.461,80.187,80.136C75.31,75.854,69.596,73.142,62.693,73.142Z"/>
</g>
  <g id="Heavy-S" transform="matrix(1.0,0.0,0.0,1.0,2575.2766483931105,597.7005078147195)">  <path stroke="none" stroke-linejoin="miter" stroke-linecap="butt" fill="#000000" stroke-width="1px" stroke-miterlimit="4" fill-rule="nonzero" stroke-dasharray="none" stroke-opacity="1" fill-opacity="1" d="M62.693,106.579C61.294,106.579,60.035,106.271,59.019,105.789C58.709,105.642,58.459,105.496,58.262,105.361C58.172,105.299,58.13,105.266,58.125,105.262C58.58,105.661,59.384,106.607,60.695,108.355C60.784,108.473,62.394,110.644,62.908,111.318C63.962,112.703,64.871,113.821,65.851,114.89C67.357,116.533,68.91,117.928,70.747,119.124C73.718,121.059,77.119,122.252,80.979,122.252C86.493,122.252,91.119,120.033,95.101,116.534C97.657,114.288,99.952,111.484,102.145,108.133C105.671,102.748,109.06,95.704,112.117,87.679C118.15,71.84,122.252,53.998,122.252,41.796C122.252,23.31,107.541,8.359,88.816,8.359C84.196,8.359,79.844,9.37,75.548,11.179C72.66,12.395,70.269,13.717,66.834,15.831C62.973,18.207,62.878,18.264,61.947,18.72C61.623,18.878,61.441,18.952,61.415,18.959C61.704,18.875,62.136,18.808,62.693,18.808C63.251,18.808,63.683,18.875,63.971,18.959C63.946,18.952,63.763,18.878,63.439,18.72C62.508,18.264,62.413,18.207,58.552,15.831C55.118,13.717,52.727,12.395,49.838,11.179C45.543,9.37,41.19,8.359,36.571,8.359C17.755,8.359,3.135,22.979,3.135,41.796C3.135,53.998,7.236,71.84,13.27,87.679C16.327,95.704,19.716,102.748,23.241,108.133C25.435,111.484,27.729,114.288,30.285,116.534C34.268,120.033,38.894,122.252,44.408,122.252C48.268,122.252,51.668,121.059,54.639,119.124C56.477,117.928,58.029,116.533,59.535,114.89C60.515,113.821,61.425,112.703,62.479,111.318C62.993,110.644,64.603,108.473,64.692,108.355C66.003,106.607,66.807,105.661,67.261,105.262C67.257,105.266,67.214,105.299,67.125,105.361C66.928,105.496,66.678,105.642,66.368,105.789C65.352,106.271,64.093,106.579,62.693,106.579ZM62.693,76.277C56.662,76.277,51.623,78.668,47.268,82.492C44.826,84.636,42.935,86.861,40.45,90.174C40.263,90.423,38.747,92.467,38.367,92.966C37.824,93.679,37.443,94.147,37.198,94.414C37.272,94.334,37.517,94.114,38.105,93.731C39.707,92.688,41.809,91.95,44.408,91.95C46.161,91.95,47.693,92.336,48.945,92.936C49.605,93.253,50.027,93.544,50.285,93.77C50.243,93.733,50.082,93.563,49.842,93.27C49.478,92.825,49.056,92.244,48.595,91.538C46.416,88.21,43.929,83.04,41.587,76.891C36.755,64.208,33.436,49.773,33.436,41.796C33.436,39.714,34.49,38.661,36.571,38.661C37.334,38.661,38.917,39.328,42.671,41.638C42.978,41.827,44.069,42.502,44.234,42.604C44.908,43.019,45.441,43.344,45.973,43.662C47.457,44.548,48.767,45.274,50.111,45.933C54.221,47.946,58.232,49.11,62.693,49.11C67.155,49.11,71.166,47.946,75.276,45.933C76.62,45.274,77.929,44.548,79.414,43.662C79.946,43.344,80.479,43.019,81.152,42.604C81.317,42.502,82.408,41.827,82.715,41.638C86.469,39.328,88.053,38.661,88.816,38.661C90.695,38.661,91.95,39.936,91.95,41.796C91.95,49.773,88.632,64.208,83.8,76.891C81.458,83.04,78.97,88.21,76.792,91.538C76.33,92.244,75.908,92.825,75.544,93.27C75.305,93.563,75.144,93.733,75.101,93.77C75.359,93.544,75.782,93.253,76.442,92.936C77.694,92.336,79.225,91.95,80.979,91.95C83.578,91.95,85.68,92.688,87.282,93.731C87.87,94.114,88.114,94.334,88.188,94.414C87.943,94.147,87.563,93.679,87.02,92.966C86.64,92.467,85.123,90.423,84.936,90.174C82.451,86.861,80.561,84.636,78.118,82.492C73.764,78.668,68.725,76.277,62.693,76.277Z"/>
</g>
  <g id="Bold-S" transform="matrix(1.0,0.0,0.0,1.0,2278.5666483931104,597.7005078147195)">  <path stroke="none" stroke-dasharray="none" stroke-width="1px" fill-opacity="1" stroke-linejoin="miter" stroke-linecap="butt" fill-rule="nonzero" stroke-miterlimit="4" fill="#000000" stroke-opacity="1" d="M62.693,103.444C61.78,103.444,60.975,103.248,60.363,102.957C60.208,102.884,60.102,102.822,60.038,102.777C60.054,102.789,60.108,102.831,60.194,102.906C60.853,103.486,61.77,104.564,63.203,106.474C63.302,106.606,64.902,108.763,65.402,109.42C66.403,110.735,67.258,111.786,68.162,112.772C71.734,116.669,75.494,119.117,80.979,119.117C85.616,119.117,89.571,117.22,93.032,114.179C95.349,112.144,97.472,109.549,99.523,106.417C102.909,101.244,106.204,94.393,109.187,86.563C115.097,71.051,119.117,53.561,119.117,41.796C119.117,25.03,105.798,11.494,88.816,11.494C81.516,11.494,76.283,13.697,68.477,18.501C64.482,20.959,64.394,21.012,63.326,21.535C62.85,21.768,62.503,21.908,62.289,21.97C62.306,21.965,62.447,21.943,62.693,21.943C62.94,21.943,63.081,21.965,63.098,21.97C62.884,21.908,62.537,21.768,62.061,21.535C60.993,21.012,60.905,20.959,56.909,18.501C49.104,13.697,43.871,11.494,36.571,11.494C19.486,11.494,6.269,24.71,6.269,41.796C6.269,53.561,10.29,71.051,16.199,86.563C19.182,94.393,22.478,101.244,25.864,106.417C27.915,109.549,30.038,112.144,32.354,114.179C35.816,117.22,39.771,119.117,44.408,119.117C49.892,119.117,53.652,116.669,57.225,112.772C58.128,111.786,58.984,110.735,59.985,109.42C60.484,108.763,62.085,106.606,62.184,106.474C63.616,104.564,64.533,103.486,65.193,102.906C65.279,102.831,65.333,102.789,65.349,102.777C65.285,102.822,65.178,102.884,65.024,102.957C64.412,103.248,63.607,103.444,62.693,103.444ZM62.693,79.412C57.532,79.412,53.169,81.482,49.337,84.847C47.1,86.811,45.322,88.903,42.958,92.055C42.781,92.29,41.255,94.347,40.861,94.864C40.266,95.647,39.83,96.182,39.509,96.533C39.41,96.641,39.348,96.703,39.334,96.715C39.431,96.628,39.584,96.508,39.815,96.358C40.944,95.623,42.477,95.085,44.408,95.085C45.665,95.085,46.74,95.356,47.589,95.763C47.972,95.946,48.161,96.077,48.216,96.125C47.736,95.703,46.928,94.716,45.972,93.255C43.654,89.714,41.074,84.35,38.657,78.007C33.701,64.998,30.302,50.21,30.302,41.796C30.302,37.983,32.759,35.526,36.571,35.526C38.088,35.526,40.093,36.37,44.314,38.968C44.625,39.16,45.718,39.836,45.88,39.936C46.542,40.344,47.063,40.662,47.58,40.97C48.996,41.816,50.234,42.503,51.489,43.118C55.207,44.938,58.78,45.975,62.693,45.975C66.607,45.975,70.18,44.938,73.897,43.118C75.153,42.503,76.391,41.816,77.807,40.97C78.324,40.662,78.845,40.344,79.507,39.936C79.669,39.836,80.762,39.16,81.073,38.968C85.294,36.37,87.299,35.526,88.816,35.526C92.438,35.526,95.085,38.216,95.085,41.796C95.085,50.21,91.685,64.998,86.729,78.007C84.313,84.35,81.733,89.714,79.415,93.255C78.459,94.716,77.651,95.703,77.17,96.125C77.225,96.077,77.415,95.946,77.798,95.763C78.646,95.356,79.722,95.085,80.979,95.085C82.909,95.085,84.442,95.623,85.572,96.358C85.802,96.508,85.956,96.628,86.053,96.715C86.039,96.703,85.977,96.641,85.878,96.533C85.557,96.182,85.121,95.647,84.525,94.864C84.132,94.347,82.605,92.29,82.429,92.055C80.065,88.903,78.287,86.811,76.05,84.847C72.218,81.482,67.855,79.412,62.693,79.412Z"/>
</g>
  <g id="Semibold-S" transform="matrix(1.0,0.0,0.0,1.0,1981.8566483931108,597.7005078147195)">  <path stroke-opacity="1" stroke="none" stroke-linejoin="miter" stroke-width="1px" fill="#000000" stroke-dasharray="none" stroke-linecap="butt" fill-rule="nonzero" stroke-miterlimit="4" fill-opacity="1" d="M62.693,100.309C62.265,100.309,61.915,100.224,61.707,100.125C61.767,100.154,61.963,100.288,62.262,100.551C63.127,101.311,64.157,102.522,65.71,104.593C65.819,104.739,67.411,106.883,67.896,107.521C68.845,108.767,69.645,109.751,70.473,110.654C73.503,113.959,76.61,115.983,80.979,115.983C87.468,115.983,92.285,111.75,96.9,104.7C100.147,99.74,103.349,93.083,106.258,85.447C112.043,70.261,115.983,53.124,115.983,41.796C115.983,26.75,104.056,14.628,88.816,14.628C82.27,14.628,77.458,16.655,70.12,21.17C64.879,24.396,63.487,25.077,62.693,25.077C61.899,25.077,60.508,24.396,55.267,21.17C47.928,16.655,43.116,14.628,36.571,14.628C21.217,14.628,9.404,26.442,9.404,41.796C9.404,53.124,13.344,70.261,19.129,85.447C22.038,93.083,25.24,99.74,28.487,104.7C33.102,111.75,37.919,115.983,44.408,115.983C48.776,115.983,51.884,113.959,54.914,110.654C55.742,109.751,56.542,108.767,57.49,107.521C57.976,106.883,59.567,104.739,59.676,104.593C61.23,102.522,62.259,101.311,63.125,100.551C63.424,100.288,63.62,100.154,63.68,100.125C63.472,100.224,63.122,100.309,62.693,100.309ZM62.693,82.546C58.402,82.546,54.715,84.296,51.405,87.203C49.374,88.986,47.708,90.946,45.466,93.936C45.299,94.158,43.763,96.228,43.356,96.763C42.707,97.615,42.217,98.218,41.82,98.651C41.656,98.83,41.523,98.963,41.429,99.047C41.411,99.063,41.439,99.041,41.526,98.985C42.182,98.558,43.145,98.22,44.408,98.22C45.169,98.22,45.788,98.376,46.233,98.589C46.339,98.64,46.295,98.61,46.147,98.48C45.428,97.848,44.448,96.65,43.349,94.972C40.892,91.218,38.218,85.66,35.728,79.123C30.648,65.787,27.167,50.647,27.167,41.796C27.167,36.252,31.027,32.392,36.571,32.392C38.842,32.392,41.268,33.413,45.957,36.299C46.272,36.492,47.367,37.17,47.526,37.268C48.176,37.669,48.685,37.979,49.187,38.279C50.535,39.084,51.701,39.731,52.868,40.302C56.193,41.931,59.328,42.84,62.693,42.84C66.059,42.84,69.194,41.931,72.518,40.302C73.685,39.731,74.852,39.084,76.2,38.279C76.702,37.979,77.211,37.669,77.861,37.268C78.02,37.17,79.115,36.492,79.43,36.299C84.119,33.413,86.545,32.392,88.816,32.392C94.181,32.392,98.22,36.496,98.22,41.796C98.22,50.647,94.739,65.787,89.659,79.123C87.168,85.66,84.495,91.218,82.037,94.972C80.939,96.65,79.959,97.848,79.239,98.48C79.091,98.61,79.048,98.64,79.153,98.589C79.599,98.376,80.218,98.22,80.979,98.22C82.241,98.22,83.205,98.558,83.861,98.985C83.948,99.041,83.975,99.063,83.958,99.047C83.864,98.963,83.731,98.83,83.567,98.651C83.17,98.218,82.68,97.615,82.031,96.763C81.624,96.228,80.087,94.158,79.921,93.936C77.679,90.946,76.013,88.986,73.982,87.203C70.671,84.296,66.984,82.546,62.693,82.546Z"/>
</g>
  <g id="Medium-S" transform="matrix(1.0,0.0,0.0,1.0,1685.1466483931108,597.7005078147195)">  <path stroke-dasharray="none" stroke-opacity="1" stroke-linejoin="miter" stroke="none" stroke-linecap="butt" fill-opacity="1" fill="#000000" stroke-miterlimit="4" fill-rule="nonzero" stroke-width="1px" d="M62.693,97.175C63.456,97.175,65.238,98.739,68.218,102.713C68.337,102.871,69.919,105.003,70.391,105.623C71.286,106.799,72.032,107.715,72.783,108.535C75.271,111.25,77.726,112.848,80.979,112.848C89.486,112.848,96.612,101.961,103.329,84.331C108.989,69.472,112.848,52.687,112.848,41.796C112.848,28.47,102.313,17.763,88.816,17.763C83.025,17.763,78.634,19.612,71.763,23.84C65.899,27.448,64.34,28.212,62.693,28.212C61.046,28.212,59.487,27.448,53.624,23.84C46.753,19.612,42.362,17.763,36.571,17.763C22.948,17.763,12.539,28.173,12.539,41.796C12.539,52.687,16.397,69.472,22.058,84.331C28.774,101.961,35.9,112.848,44.408,112.848C47.661,112.848,50.115,111.25,52.603,108.535C53.355,107.715,54.101,106.799,54.996,105.623C55.468,105.003,57.049,102.871,57.168,102.713C60.149,98.739,61.93,97.175,62.693,97.175ZM62.693,85.681C59.273,85.681,56.261,87.11,53.473,89.558C51.648,91.161,50.094,92.989,47.973,95.816C47.817,96.025,46.271,98.108,45.85,98.661C45.149,99.583,44.604,100.253,44.131,100.769C43.714,101.223,43.401,101.504,43.236,101.612C43.419,101.493,43.814,101.354,44.408,101.354C44.672,101.354,44.836,101.395,44.878,101.416C44.706,101.333,44.429,101.143,44.078,100.835C43.119,99.992,41.968,98.585,40.726,96.689C38.13,92.722,35.363,86.97,32.799,80.239C27.594,66.577,24.032,51.084,24.032,41.796C24.032,34.521,29.296,29.257,36.571,29.257C39.596,29.257,42.443,30.456,47.6,33.629C47.919,33.825,49.016,34.504,49.172,34.6C49.81,34.994,50.307,35.297,50.793,35.587C52.073,36.351,53.169,36.959,54.247,37.487C57.179,38.923,59.876,39.706,62.693,39.706C65.511,39.706,68.208,38.923,71.14,37.487C72.218,36.959,73.313,36.351,74.593,35.587C75.08,35.297,75.577,34.994,76.215,34.6C76.371,34.504,77.468,33.825,77.787,33.629C82.943,30.456,85.79,29.257,88.816,29.257C95.923,29.257,101.354,34.776,101.354,41.796C101.354,51.084,97.793,66.577,92.588,80.239C90.024,86.97,87.257,92.722,84.66,96.689C83.419,98.585,82.268,99.992,81.308,100.835C80.957,101.143,80.681,101.333,80.509,101.416C80.551,101.395,80.714,101.354,80.979,101.354C81.573,101.354,81.968,101.493,82.151,101.612C81.986,101.504,81.673,101.223,81.256,100.769C80.783,100.253,80.238,99.583,79.537,98.661C79.115,98.108,77.57,96.025,77.413,95.816C75.293,92.989,73.739,91.161,71.914,89.558C69.125,87.11,66.114,85.681,62.693,85.681Z"/>
</g>
  <g id="Regular-S" transform="matrix(1.0,0.0,0.0,1.0,1388.4366483931108,597.7005078147195)">  <path stroke-linecap="butt" stroke-dasharray="none" stroke-miterlimit="4" stroke="none" fill-rule="nonzero" stroke-width="1px" stroke-opacity="1" fill-opacity="1" fill="#000000" stroke-linejoin="miter" d="M62.693,94.04C64.851,94.04,67.139,96.049,70.726,100.832C70.855,101.004,72.427,103.122,72.885,103.724C73.728,104.831,74.418,105.68,75.094,106.417C77.04,108.54,78.842,109.713,80.979,109.713C87.495,109.713,94.217,99.443,100.399,83.215C105.936,68.682,109.713,52.25,109.713,41.796C109.713,30.19,100.57,20.898,88.816,20.898C83.779,20.898,79.809,22.569,73.406,26.51C66.92,30.501,65.193,31.347,62.693,31.347C60.193,31.347,58.466,30.501,51.981,26.51C45.578,22.569,41.608,20.898,36.571,20.898C24.68,20.898,15.673,29.904,15.673,41.796C15.673,52.25,19.451,68.682,24.987,83.215C31.169,99.443,37.892,109.713,44.408,109.713C46.545,109.713,48.347,108.54,50.293,106.417C50.968,105.68,51.659,104.831,52.502,103.724C52.96,103.122,54.531,101.004,54.661,100.832C58.248,96.049,60.536,94.04,62.693,94.04ZM62.693,88.816C58.212,88.816,55.08,91.565,50.481,97.697C46.29,103.285,45.187,104.489,44.408,104.489C41.211,104.489,35.161,95.246,29.869,81.355C24.54,67.366,20.898,51.521,20.898,41.796C20.898,32.789,27.565,26.122,36.571,26.122C40.351,26.122,43.619,27.498,49.243,30.959C53.865,33.804,53.921,33.837,55.626,34.672C58.165,35.916,60.423,36.571,62.693,36.571C64.963,36.571,67.222,35.916,69.761,34.672C71.465,33.837,71.522,33.804,76.144,30.959C81.768,27.498,85.036,26.122,88.816,26.122C97.666,26.122,104.489,33.056,104.489,41.796C104.489,51.521,100.846,67.366,95.517,81.355C90.225,95.246,84.176,104.489,80.979,104.489C80.2,104.489,79.096,103.285,74.905,97.697C70.306,91.565,67.175,88.816,62.693,88.816Z"/>
</g>
  <g id="Light-S" transform="matrix(1.0,0.0,0.0,1.0,1091.726648393111,597.7005078147195)">  <path stroke="none" stroke-linejoin="miter" fill-rule="nonzero" stroke-width="1px" stroke-linecap="butt" stroke-opacity="1" stroke-miterlimit="4" fill-opacity="1" fill="#000000" stroke-dasharray="none" d="M62.693,93.605C65.045,93.605,67.403,95.675,71.074,100.571C71.205,100.745,72.775,102.861,73.231,103.46C74.067,104.558,74.75,105.397,75.415,106.123C77.285,108.163,78.997,109.278,80.979,109.278C87.218,109.278,93.885,99.093,99.993,83.06C105.512,68.573,109.278,52.189,109.278,41.796C109.278,30.428,100.328,21.333,88.816,21.333C83.884,21.333,79.972,22.98,73.634,26.881C67.062,30.925,65.312,31.782,62.693,31.782C60.075,31.782,58.325,30.925,51.753,26.881C45.414,22.98,41.503,21.333,36.571,21.333C24.92,21.333,16.109,30.144,16.109,41.796C16.109,52.189,19.875,68.573,25.394,83.06C31.502,99.093,38.168,109.278,44.408,109.278C46.39,109.278,48.101,108.163,49.972,106.123C50.637,105.397,51.32,104.558,52.155,103.46C52.611,102.861,54.182,100.745,54.312,100.571C57.984,95.675,60.342,93.605,62.693,93.605ZM62.693,89.251C58.405,89.251,55.344,91.938,50.83,97.958C46.48,103.758,45.411,104.924,44.408,104.924C40.934,104.924,34.829,95.596,29.463,81.51C24.116,67.476,20.462,51.582,20.462,41.796C20.462,32.549,27.324,25.687,36.571,25.687C40.455,25.687,43.782,27.088,49.471,30.588C56.907,35.164,58.89,36.136,62.693,36.136C66.497,36.136,68.48,35.164,75.916,30.588C81.605,27.088,84.931,25.687,88.816,25.687C97.908,25.687,104.924,32.817,104.924,41.796C104.924,51.582,101.27,67.476,95.924,81.51C90.558,95.596,84.452,104.924,80.979,104.924C79.976,104.924,78.907,103.758,74.557,97.958C70.042,91.938,66.982,89.251,62.693,89.251Z"/>
</g>
  <g id="Thin-S" transform="matrix(1.0,0.0,0.0,1.0,795.0166483931108,597.7005078147195)">  <path fill-opacity="1" stroke-linejoin="miter" stroke-linecap="butt" stroke-miterlimit="4" stroke="none" stroke-dasharray="none" fill-rule="nonzero" stroke-opacity="1" stroke-width="1px" fill="#000000" d="M62.693,93.169C65.238,93.169,67.667,95.301,71.423,100.309C71.555,100.486,73.124,102.6,73.578,103.197C74.406,104.284,75.081,105.115,75.736,105.829C77.531,107.787,79.152,108.843,80.979,108.843C86.942,108.843,93.552,98.744,99.586,82.905C105.088,68.463,108.843,52.128,108.843,41.796C108.843,30.667,100.086,21.769,88.816,21.769C83.988,21.769,80.135,23.391,73.862,27.251C67.204,31.349,65.43,32.217,62.693,32.217C59.956,32.217,58.183,31.349,51.525,27.251C45.251,23.391,41.398,21.769,36.571,21.769C25.16,21.769,16.544,30.385,16.544,41.796C16.544,52.128,20.299,68.463,25.801,82.905C31.835,98.744,38.445,108.843,44.408,108.843C46.235,108.843,47.856,107.787,49.651,105.829C50.305,105.115,50.981,104.284,51.809,103.197C52.263,102.6,53.832,100.486,53.964,100.309C57.72,95.301,60.148,93.169,62.693,93.169ZM62.693,89.686C58.599,89.686,55.608,92.312,51.178,98.22C46.67,104.231,45.635,105.36,44.408,105.36C36.001,105.36,20.027,63.427,20.027,41.796C20.027,32.308,27.084,25.251,36.571,25.251C40.56,25.251,43.945,26.677,49.699,30.218C57.049,34.74,59.009,35.7,62.693,35.7C66.378,35.7,68.338,34.74,75.688,30.218C81.441,26.677,84.826,25.251,88.816,25.251C98.15,25.251,105.36,32.578,105.36,41.796C105.36,63.427,89.385,105.36,80.979,105.36C79.752,105.36,78.717,104.231,74.209,98.22C69.778,92.312,66.788,89.686,62.693,89.686Z"/>
</g>
  <g id="Ultralight-S" transform="matrix(1.0,0.0,0.0,1.0,498.3066483931108,597.7005078147195)">  <path fill="#000000" fill-opacity="1" stroke-width="1px" stroke="none" stroke-linejoin="miter" stroke-dasharray="none" stroke-miterlimit="4" fill-rule="nonzero" stroke-linecap="butt" stroke-opacity="1" d="M62.693,92.734C65.432,92.734,67.931,94.928,71.771,100.048C71.904,100.226,73.472,102.339,73.924,102.933C74.745,104.011,75.413,104.832,76.057,105.535C77.777,107.411,79.307,108.407,80.979,108.407C86.665,108.407,93.219,98.394,99.179,82.75C104.663,68.353,108.407,52.067,108.407,41.796C108.407,30.906,99.844,22.204,88.816,22.204C84.093,22.204,80.299,23.802,74.09,27.622C67.346,31.773,65.549,32.653,62.693,32.653C59.838,32.653,58.041,31.773,51.296,27.622C45.088,23.802,41.294,22.204,36.571,22.204C25.401,22.204,16.979,30.625,16.979,41.796C16.979,52.067,20.723,68.353,26.208,82.75C32.167,98.394,38.722,108.407,44.408,108.407C46.08,108.407,47.61,107.411,49.33,105.535C49.974,104.832,50.642,104.011,51.462,102.933C51.915,102.339,53.482,100.226,53.616,100.048C57.456,94.928,59.955,92.734,62.693,92.734ZM62.693,90.122C58.793,90.122,55.872,92.686,51.526,98.481C46.859,104.703,45.858,105.795,44.408,105.795C35.646,105.795,19.592,63.652,19.592,41.796C19.592,32.068,26.844,24.816,36.571,24.816C40.665,24.816,44.109,26.266,49.927,29.847C57.191,34.317,59.127,35.265,62.693,35.265C66.26,35.265,68.196,34.317,75.459,29.847C81.278,26.266,84.722,24.816,88.816,24.816C98.392,24.816,105.795,32.34,105.795,41.796C105.795,63.652,89.74,105.795,80.979,105.795C79.528,105.795,78.527,104.703,73.861,98.481C69.514,92.686,66.594,90.122,62.693,90.122Z"/>
</g>
 </g>
</svg>
