<?xml version="1.0" encoding="UTF-8"?>
<!--Generator: Apple Native CoreSVG 175.5-->
<!DOCTYPE svg
PUBLIC "-//W3C//DTD SVG 1.1//EN"
       "http://www.w3.org/Graphics/SVG/1.1/DTD/svg11.dtd">
<svg version="1.1" xmlns="http://www.w3.org/2000/svg" xmlns:xlink="http://www.w3.org/1999/xlink" width="3300" height="2200">
 <!--glyph: "uni10131B.medium", point size: 100.0, font version: "18.0d11e1", template writer version: "90"-->
 <style>.monochrome-0 {fill:#000000}

.SFSymbolsPreview000000 {fill:#000000;opacity:1.0}
</style>
 <g id="Notes">
  <rect height="2200" id="artboard" style="fill:white;opacity:1" width="3300" x="0" y="0"/>
  <line style="fill:none;stroke:black;opacity:1;stroke-width:0.5;" x1="263" x2="3036" y1="292" y2="292"/>
  <text style="stroke:none;fill:black;font-family:sans-serif;font-size:13;font-weight:bold;" transform="matrix(1 0 0 1 263 322)">Weight/Scale Variations</text>
  <text style="stroke:none;fill:black;font-family:sans-serif;font-size:13;text-anchor:middle;" transform="matrix(1 0 0 1 559.711 322)">Ultralight</text>
  <text style="stroke:none;fill:black;font-family:sans-serif;font-size:13;text-anchor:middle;" transform="matrix(1 0 0 1 856.422 322)">Thin</text>
  <text style="stroke:none;fill:black;font-family:sans-serif;font-size:13;text-anchor:middle;" transform="matrix(1 0 0 1 1153.13 322)">Light</text>
  <text style="stroke:none;fill:black;font-family:sans-serif;font-size:13;text-anchor:middle;" transform="matrix(1 0 0 1 1449.84 322)">Regular</text>
  <text style="stroke:none;fill:black;font-family:sans-serif;font-size:13;text-anchor:middle;" transform="matrix(1 0 0 1 1746.56 322)">Medium</text>
  <text style="stroke:none;fill:black;font-family:sans-serif;font-size:13;text-anchor:middle;" transform="matrix(1 0 0 1 2043.27 322)">Semibold</text>
  <text style="stroke:none;fill:black;font-family:sans-serif;font-size:13;text-anchor:middle;" transform="matrix(1 0 0 1 2339.98 322)">Bold</text>
  <text style="stroke:none;fill:black;font-family:sans-serif;font-size:13;text-anchor:middle;" transform="matrix(1 0 0 1 2636.69 322)">Heavy</text>
  <text style="stroke:none;fill:black;font-family:sans-serif;font-size:13;text-anchor:middle;" transform="matrix(1 0 0 1 2933.4 322)">Black</text>
  <line style="fill:none;stroke:black;opacity:1;stroke-width:0.5;" x1="263" x2="3036" y1="1903" y2="1903"/>
  <g transform="matrix(1 0 0 1 263 1933)">
   <path d="M9.24805 0.830078C13.5547 0.830078 17.1387-2.74414 17.1387-7.05078C17.1387-11.3574 13.5449-14.9316 9.23828-14.9316C4.94141-14.9316 1.36719-11.3574 1.36719-7.05078C1.36719-2.74414 4.95117 0.830078 9.24805 0.830078ZM9.24805-0.654297C5.70312-0.654297 2.87109-3.49609 2.87109-7.05078C2.87109-10.6055 5.69336-13.4473 9.23828-13.4473C12.793-13.4473 15.6445-10.6055 15.6445-7.05078C15.6445-3.49609 12.8027-0.654297 9.24805-0.654297ZM5.6543-7.05078C5.6543-6.62109 5.95703-6.32812 6.40625-6.32812L8.50586-6.32812L8.50586-4.20898C8.50586-3.76953 8.79883-3.4668 9.22852-3.4668C9.67773-3.4668 9.9707-3.76953 9.9707-4.20898L9.9707-6.32812L12.0898-6.32812C12.5293-6.32812 12.832-6.62109 12.832-7.05078C12.832-7.49023 12.5293-7.79297 12.0898-7.79297L9.9707-7.79297L9.9707-9.90234C9.9707-10.3516 9.67773-10.6543 9.22852-10.6543C8.79883-10.6543 8.50586-10.3516 8.50586-9.90234L8.50586-7.79297L6.40625-7.79297C5.95703-7.79297 5.6543-7.49023 5.6543-7.05078Z"/>
  </g>
  <g transform="matrix(1 0 0 1 281.867 1933)">
   <path d="M11.709 2.91016C17.1582 2.91016 21.6699-1.61133 21.6699-7.05078C21.6699-12.5 17.1484-17.0117 11.6992-17.0117C6.25977-17.0117 1.74805-12.5 1.74805-7.05078C1.74805-1.61133 6.26953 2.91016 11.709 2.91016ZM11.709 1.25C7.09961 1.25 3.41797-2.44141 3.41797-7.05078C3.41797-11.6602 7.08984-15.3516 11.6992-15.3516C16.3086-15.3516 20.0098-11.6602 20.0098-7.05078C20.0098-2.44141 16.3184 1.25 11.709 1.25ZM7.17773-7.05078C7.17773-6.57227 7.50977-6.25 8.00781-6.25L10.8789-6.25L10.8789-3.36914C10.8789-2.88086 11.2109-2.53906 11.6895-2.53906C12.1777-2.53906 12.5195-2.87109 12.5195-3.36914L12.5195-6.25L15.4004-6.25C15.8887-6.25 16.2305-6.57227 16.2305-7.05078C16.2305-7.53906 15.8887-7.88086 15.4004-7.88086L12.5195-7.88086L12.5195-10.752C12.5195-11.25 12.1777-11.5918 11.6895-11.5918C11.2109-11.5918 10.8789-11.25 10.8789-10.752L10.8789-7.88086L8.00781-7.88086C7.50977-7.88086 7.17773-7.53906 7.17773-7.05078Z"/>
  </g>
  <g transform="matrix(1 0 0 1 305.646 1933)">
   <path d="M14.9707 5.66406C21.9336 5.66406 27.6953-0.0976562 27.6953-7.05078C27.6953-14.0137 21.9238-19.7754 14.9609-19.7754C8.00781-19.7754 2.25586-14.0137 2.25586-7.05078C2.25586-0.0976562 8.01758 5.66406 14.9707 5.66406ZM14.9707 3.84766C8.93555 3.84766 4.08203-1.01562 4.08203-7.05078C4.08203-13.0957 8.92578-17.9492 14.9609-17.9492C21.0059-17.9492 25.8691-13.0957 25.8691-7.05078C25.8691-1.01562 21.0156 3.84766 14.9707 3.84766ZM9.19922-7.05078C9.19922-6.5332 9.57031-6.17188 10.1172-6.17188L14.0625-6.17188L14.0625-2.2168C14.0625-1.67969 14.4336-1.29883 14.9512-1.29883C15.4883-1.29883 15.8594-1.66992 15.8594-2.2168L15.8594-6.17188L19.8145-6.17188C20.3516-6.17188 20.7324-6.5332 20.7324-7.05078C20.7324-7.59766 20.3613-7.96875 19.8145-7.96875L15.8594-7.96875L15.8594-11.9141C15.8594-12.4609 15.4883-12.8418 14.9512-12.8418C14.4336-12.8418 14.0625-12.4609 14.0625-11.9141L14.0625-7.96875L10.1172-7.96875C9.57031-7.96875 9.19922-7.59766 9.19922-7.05078Z"/>
  </g>
  <text style="stroke:none;fill:black;font-family:sans-serif;font-size:13;font-weight:bold;" transform="matrix(1 0 0 1 263 1953)">Design Variations</text>
  <text style="stroke:none;fill:black;font-family:sans-serif;font-size:13;" transform="matrix(1 0 0 1 263 1971)">Symbols are supported in up to nine weights and three scales.</text>
  <text style="stroke:none;fill:black;font-family:sans-serif;font-size:13;" transform="matrix(1 0 0 1 263 1989)">For optimal layout with text and other symbols, vertically align</text>
  <text style="stroke:none;fill:black;font-family:sans-serif;font-size:13;" transform="matrix(1 0 0 1 263 2007)">symbols with the adjacent text.</text>
  <line style="fill:none;stroke:#00AEEF;stroke-width:0.5;opacity:1.0;" x1="776" x2="776" y1="1919" y2="1933"/>
  <g transform="matrix(1 0 0 1 776 1933)">
   <path d="M3.31055 0.15625C3.82812 0.15625 4.08203-0.0390625 4.26758-0.585938L5.52734-4.0332L11.2891-4.0332L12.5488-0.585938C12.7344-0.0390625 12.9883 0.15625 13.4961 0.15625C14.0137 0.15625 14.3457-0.15625 14.3457-0.644531C14.3457-0.810547 14.3164-0.966797 14.2383-1.17188L9.6582-13.3691C9.43359-13.9648 9.0332-14.2676 8.4082-14.2676C7.80273-14.2676 7.39258-13.9746 7.17773-13.3789L2.59766-1.16211C2.51953-0.957031 2.49023-0.800781 2.49023-0.634766C2.49023-0.146484 2.80273 0.15625 3.31055 0.15625ZM6.00586-5.51758L8.37891-12.0898L8.42773-12.0898L10.8008-5.51758Z"/>
  </g>
  <line style="fill:none;stroke:#00AEEF;stroke-width:0.5;opacity:1.0;" x1="793.197" x2="793.197" y1="1919" y2="1933"/>
  <text style="stroke:none;fill:black;font-family:sans-serif;font-size:13;font-weight:bold;" transform="matrix(1 0 0 1 776 1953)">Margins</text>
  <text style="stroke:none;fill:black;font-family:sans-serif;font-size:13;" transform="matrix(1 0 0 1 776 1971)">Leading and trailing margins on the left and right side of each symbol</text>
  <text style="stroke:none;fill:black;font-family:sans-serif;font-size:13;" transform="matrix(1 0 0 1 776 1989)">can be adjusted by modifying the x-location of the margin guidelines.</text>
  <text style="stroke:none;fill:black;font-family:sans-serif;font-size:13;" transform="matrix(1 0 0 1 776 2007)">Modifications are automatically applied proportionally to all</text>
  <text style="stroke:none;fill:black;font-family:sans-serif;font-size:13;" transform="matrix(1 0 0 1 776 2025)">scales and weights.</text>
  <g transform="matrix(1 0 0 1 1289 1933)">
   <path d="M2.8418 1.86523L4.54102 3.57422C5.40039 4.44336 6.38672 4.38477 7.31445 3.35938L18.0078-8.42773L17.041-9.4043L6.42578 2.27539C6.07422 2.67578 5.74219 2.77344 5.27344 2.30469L4.10156 1.14258C3.63281 0.683594 3.74023 0.341797 4.14062-0.0195312L15.6152-10.8203L14.6387-11.7871L3.04688-0.898438C2.06055 0.0195312 1.98242 0.996094 2.8418 1.86523ZM9.25781-16.3281C8.83789-15.918 8.80859-15.3418 9.04297-14.9512C9.27734-14.5898 9.73633-14.3555 10.3809-14.5215C11.8457-14.8633 13.3691-14.9219 14.7949-13.9844L14.209-12.5293C13.8672-11.6992 14.043-11.1133 14.5801-10.5664L16.875-8.25195C17.3633-7.76367 17.7734-7.74414 18.3398-7.8418L19.4043-8.03711L20.0684-7.36328L20.0293-6.80664C19.9902-6.30859 20.1172-5.92773 20.6055-5.44922L21.3672-4.70703C21.8457-4.22852 22.4609-4.19922 22.9297-4.66797L25.8398-7.58789C26.3086-8.05664 26.2891-8.65234 25.8105-9.13086L25.0391-9.89258C24.5605-10.3711 24.1895-10.5273 23.7109-10.4883L23.1348-10.4395L22.4902-11.0742L22.7344-12.1973C22.8613-12.7637 22.7051-13.2031 22.1191-13.7891L19.9219-15.9766C16.582-19.2969 12.1484-19.2188 9.25781-16.3281ZM10.752-15.957C13.1836-17.7344 16.4746-17.4316 18.7012-15.2051L21.1328-12.793C21.3672-12.5586 21.4062-12.373 21.3379-12.0312L21.0156-10.5469L22.5195-9.0625L23.5059-9.12109C23.7598-9.13086 23.8379-9.11133 24.0332-8.91602L24.6094-8.33984L22.168-5.89844L21.5918-6.47461C21.3965-6.66992 21.3672-6.74805 21.377-7.01172L21.4453-7.98828L19.9512-9.47266L18.4277-9.21875C18.1055-9.15039 17.959-9.17969 17.7148-9.41406L15.7129-11.416C15.459-11.6504 15.4297-11.8164 15.5859-12.1875L16.4648-14.2773C14.9023-15.7324 12.8711-16.3574 10.8398-15.7617C10.6836-15.7227 10.625-15.8496 10.752-15.957Z"/>
  </g>
  <text style="stroke:none;fill:black;font-family:sans-serif;font-size:13;font-weight:bold;" transform="matrix(1 0 0 1 1289 1953)">Exporting</text>
  <text style="stroke:none;fill:black;font-family:sans-serif;font-size:13;" transform="matrix(1 0 0 1 1289 1971)">Symbols should be outlined when exporting to ensure the</text>
  <text style="stroke:none;fill:black;font-family:sans-serif;font-size:13;" transform="matrix(1 0 0 1 1289 1989)">design is preserved when submitting to Xcode.</text>
  <text id="template-version" style="stroke:none;fill:black;font-family:sans-serif;font-size:13;text-anchor:end;" transform="matrix(1 0 0 1 3036 1933)">Template v.4.0</text>
  <text style="stroke:none;fill:black;font-family:sans-serif;font-size:13;text-anchor:end;" transform="matrix(1 0 0 1 3036 1951)">Requires Xcode 14 or greater</text>
  <text id="descriptive-name" style="stroke:none;fill:black;font-family:sans-serif;font-size:13;text-anchor:end;" transform="matrix(1 0 0 1 3036 1969)">Generated from fan.ceiling</text>
  <text style="stroke:none;fill:black;font-family:sans-serif;font-size:13;text-anchor:end;" transform="matrix(1 0 0 1 3036 1987)">Typeset at 100 points</text>
  <text style="stroke:none;fill:black;font-family:sans-serif;font-size:13;" transform="matrix(1 0 0 1 263 726)">Small</text>
  <text style="stroke:none;fill:black;font-family:sans-serif;font-size:13;" transform="matrix(1 0 0 1 263 1156)">Medium</text>
  <text style="stroke:none;fill:black;font-family:sans-serif;font-size:13;" transform="matrix(1 0 0 1 263 1586)">Large</text>
 </g>
 <g id="Guides">
  <g id="H-reference" style="fill:#27AAE1;stroke:none;" transform="matrix(1 0 0 1 339 696)">
   <path d="M0.993654 0L3.63775 0L29.3281-67.1323L30.0303-67.1323L30.0303-70.459L28.1226-70.459ZM11.6885-24.4799L46.9815-24.4799L46.2315-26.7285L12.4385-26.7285ZM55.1196 0L57.7637 0L30.6382-70.459L29.4326-70.459L29.4326-67.1323Z"/>
  </g>
  <line id="Baseline-S" style="fill:none;stroke:#27AAE1;opacity:1;stroke-width:0.5;" x1="263" x2="3036" y1="696" y2="696"/>
  <line id="Capline-S" style="fill:none;stroke:#27AAE1;opacity:1;stroke-width:0.5;" x1="263" x2="3036" y1="625.541" y2="625.541"/>
  <g id="H-reference" style="fill:#27AAE1;stroke:none;" transform="matrix(1 0 0 1 339 1126)">
   <path d="M0.993654 0L3.63775 0L29.3281-67.1323L30.0303-67.1323L30.0303-70.459L28.1226-70.459ZM11.6885-24.4799L46.9815-24.4799L46.2315-26.7285L12.4385-26.7285ZM55.1196 0L57.7637 0L30.6382-70.459L29.4326-70.459L29.4326-67.1323Z"/>
  </g>
  <line id="Baseline-M" style="fill:none;stroke:#27AAE1;opacity:1;stroke-width:0.5;" x1="263" x2="3036" y1="1126" y2="1126"/>
  <line id="Capline-M" style="fill:none;stroke:#27AAE1;opacity:1;stroke-width:0.5;" x1="263" x2="3036" y1="1055.54" y2="1055.54"/>
  <g id="H-reference" style="fill:#27AAE1;stroke:none;" transform="matrix(1 0 0 1 339 1556)">
   <path d="M0.993654 0L3.63775 0L29.3281-67.1323L30.0303-67.1323L30.0303-70.459L28.1226-70.459ZM11.6885-24.4799L46.9815-24.4799L46.2315-26.7285L12.4385-26.7285ZM55.1196 0L57.7637 0L30.6382-70.459L29.4326-70.459L29.4326-67.1323Z"/>
  </g>
  <line id="Baseline-L" style="fill:none;stroke:#27AAE1;opacity:1;stroke-width:0.5;" x1="263" x2="3036" y1="1556" y2="1556"/>
  <line id="Capline-L" style="fill:none;stroke:#27AAE1;opacity:1;stroke-width:0.5;" x1="263" x2="3036" y1="1485.54" y2="1485.54"/>
  <line id="left-margin-Ultralight-S" style="fill:none;stroke:#00AEEF;stroke-width:0.5;opacity:1.0;" x1="505.147" x2="505.147" y1="600.785" y2="720.121"/>
  <line id="right-margin-Ultralight-S" style="fill:none;stroke:#00AEEF;stroke-width:0.5;opacity:1.0;" x1="614.276" x2="614.276" y1="600.785" y2="720.121"/>
  <line id="left-margin-Regular-S" style="fill:none;stroke:#00AEEF;stroke-width:0.5;opacity:1.0;" x1="1387.83" x2="1387.83" y1="600.785" y2="720.121"/>
  <line id="right-margin-Regular-S" style="fill:none;stroke:#00AEEF;stroke-width:0.5;opacity:1.0;" x1="1511.86" x2="1511.86" y1="600.785" y2="720.121"/>
  <line id="left-margin-Black-S" style="fill:none;stroke:#00AEEF;stroke-width:0.5;opacity:1.0;" x1="2866.46" x2="2866.46" y1="600.785" y2="720.121"/>
  <line id="right-margin-Black-S" style="fill:none;stroke:#00AEEF;stroke-width:0.5;opacity:1.0;" x1="3000.34" x2="3000.34" y1="600.785" y2="720.121"/>
 </g>
 <g id="Symbols">
  <g id="Black-S" transform="matrix(1 0 0 1 2866.46 696)">
   <path class="monochrome-0 SFSymbolsPreview000000" d="M66.9434-4.05273C79.1016-4.05273 87.2559-9.61914 87.2559-17.9688C87.2559-26.3184 79.1016-31.8848 66.9434-31.8848C54.7852-31.8848 46.6309-26.3184 46.6309-17.9688C46.6309-9.61914 54.7852-4.05273 66.9434-4.05273ZM66.9434-60.0586C78.1738-60.0586 88.0371-67.7734 88.0371-76.7578C88.0371-80.1758 86.1328-82.3242 82.1777-83.4473C77.832-84.668 72.7539-85.3027 66.9434-85.3027C61.1328-85.3027 56.0547-84.668 51.709-83.4473C47.7539-82.3242 45.8496-80.1758 45.8496-76.7578C45.8496-67.7734 55.7129-60.0586 66.9434-60.0586ZM70.6543-29.9805L27.0996-52.1484C12.1094-59.7656 2.88086-39.6973 16.2109-33.3008L52.0508-16.0645L53.9551-24.9512L20.0195-41.2109C16.8945-42.7246 18.6523-46.5332 22.2656-44.6777L59.1797-25.9277ZM63.2324-29.9805L74.707-25.9277L111.621-44.6777C115.234-46.5332 116.992-42.7246 113.867-41.2109L79.9316-24.9512L81.8359-16.0645L117.676-33.3008C131.006-39.6973 121.777-59.7656 106.787-52.1484ZM82.9102-14.2578L105.371-3.4668C108.838-1.80664 106.689 1.75781 103.564 0.146484L79.7852-12.1582L71.2891-6.5918L99.5117 8.00781C112.891 14.9414 123.193-4.63867 108.789-11.5723L82.9102-24.0234ZM50.9766-14.2578L50.9766-24.0234L25.0977-11.5723C10.6934-4.63867 20.9961 14.9414 34.375 8.00781L62.5977-6.5918L54.1016-12.1582L30.3223 0.146484C27.1973 1.75781 25.0488-1.80664 28.5156-3.4668ZM66.9434-12.3535C59.7168-12.3535 54.9316-14.6973 54.9316-17.9688C54.9316-21.2402 59.7168-23.584 66.9434-23.584C74.1699-23.584 78.9551-21.2402 78.9551-17.9688C78.9551-14.6973 74.1699-12.3535 66.9434-12.3535ZM66.9434-67.8711C60.5957-67.8711 55.6641-70.8008 54.0039-75.4395C53.9062-75.7324 54.1016-76.0254 54.3945-76.123C58.6426-77.0508 62.793-77.5391 66.9434-77.5391C71.0938-77.5391 75.293-77.0508 79.4922-76.123C79.7852-76.0254 79.9805-75.7324 79.8828-75.4395C78.2715-70.8496 73.3398-67.8711 66.9434-67.8711ZM62.3047-65.7227L62.3047-38.3301L71.582-38.3301L71.582-65.7227ZM66.9434-35.791C70.5078-35.791 74.4629-34.6191 77.002-32.7637L84.1309-37.4512C80.3223-41.5527 73.6328-44.0918 66.9434-44.0918C60.3516-44.0918 53.7598-41.6016 49.9512-37.5488L57.3242-33.0078C59.8633-34.7656 63.5254-35.791 66.9434-35.791Z"/>
  </g>
  <g id="Regular-S" transform="matrix(1 0 0 1 1387.83 696)">
   <path class="monochrome-0 SFSymbolsPreview000000" d="M62.0117-4.24805C73.4863-4.24805 81.1523-9.375 81.1523-16.9922C81.1523-24.6582 73.4863-29.7852 62.0117-29.7852C50.5371-29.7852 42.9199-24.6582 42.9199-16.9922C42.9199-9.375 50.5371-4.24805 62.0117-4.24805ZM62.0117-60.0586C71.9238-60.0586 81.7871-66.7969 81.7871-75.4883C81.7871-78.2715 80.3711-80.0781 76.7578-81.1523C72.2656-82.4219 67.1387-82.9102 62.0117-82.9102C56.9336-82.9102 51.7578-82.4219 47.2656-81.1523C43.7012-80.0781 42.2363-78.2715 42.2363-75.4883C42.2363-66.7969 52.1484-60.0586 62.0117-60.0586ZM62.0117-29.7852L24.707-48.877C11.7676-55.5176 3.85742-38.4277 15.2344-32.959L46.1914-17.9688L47.4609-23.6816L17.7246-38.0371C12.5977-40.5273 15.7227-47.1191 22.0703-43.8477L54.5898-27.1973ZM62.0117-29.7852L69.4824-27.1973L101.953-43.8477C108.301-47.1191 111.475-40.5273 106.348-38.0371L76.6113-23.6816L77.832-17.9688L108.789-32.959C120.166-38.4277 112.256-55.5176 99.3652-48.877ZM79.2969-14.3066L99.0234-5.12695C104.639-2.53906 101.416 4.00391 96.2402 1.41602L74.7559-9.52148L69.2871-5.9082L93.6523 6.44531C105.127 12.2559 114.014-4.3457 101.514-10.2539L79.2969-20.6055ZM44.7266-14.3066L44.7266-20.6055L22.5586-10.2539C10.0098-4.3457 18.8965 12.2559 30.3711 6.44531L54.7363-5.9082L49.2676-9.52148L27.7832 1.41602C22.6074 4.00391 19.3848-2.53906 25-5.12695ZM62.0117-10.3516C54.1992-10.3516 49.0234-13.0371 49.0234-16.9922C49.0234-20.9961 54.1992-23.6328 62.0117-23.6328C69.8242-23.6328 75-20.9961 75-16.9922C75-13.0371 69.8242-10.3516 62.0117-10.3516ZM62.0117-65.7227C54.7363-65.7227 49.0723-69.5312 47.9492-75.1953C47.9004-75.3418 47.998-75.4883 48.2422-75.5859C52.7832-76.709 57.373-77.2949 62.0117-77.2949C66.6504-77.2949 71.2402-76.709 75.7812-75.5859C76.0254-75.4883 76.1719-75.3418 76.123-75.1953C74.9512-69.5312 69.3359-65.7227 62.0117-65.7227ZM58.4961-63.623L58.4961-38.0859L65.5273-38.0859L65.5273-63.623ZM62.0117-35.5957C65.7715-35.5957 69.5801-34.375 72.0215-32.8125L77.3926-36.3281C73.8281-39.5508 68.1152-41.6992 62.0117-41.6992C56.0059-41.6992 50.3906-39.5996 46.8262-36.4746L52.4414-33.0078C54.8828-34.5215 58.4473-35.5957 62.0117-35.5957Z"/>
  </g>
  <g id="Ultralight-S" transform="matrix(1 0 0 1 505.147 696)">
   <path class="monochrome-0 SFSymbolsPreview000000" d="M54.5645-8.56198C63.7686-8.56198 69.7999-12.4629 69.7999-18.2637C69.7999-24.0225 63.7686-27.8779 54.5645-27.8779C45.3604-27.8779 39.3325-24.0225 39.3325-18.2637C39.3325-12.4629 45.3604-8.56198 54.5645-8.56198ZM54.5645-61.2392C61.4796-61.2392 68.5729-65.8887 68.5729-71.4922C68.5729-73.458 67.4747-74.2657 65.7686-74.9766C63.6832-75.792 59.2374-76.3257 54.5645-76.3711C49.8951-76.3257 45.4459-75.792 43.3604-74.9766C41.7031-74.2657 40.6016-73.5035 40.6016-71.4922C40.6016-65.8887 47.6529-61.2392 54.5645-61.2392ZM54.5645-27.8779L20.938-45.1079C11.041-50.1592 5.44676-37.8374 13.8721-33.5493L40.6968-19.9668L41.2398-22.2739L14.8184-35.6304C8.82864-38.6655 12.5894-46.8013 19.8452-43.1211L50.9571-27.2427ZM54.5645-27.8779L58.1754-27.2427L89.2384-43.1211C96.5396-46.8013 100.304-38.6655 94.3141-35.6304L67.8926-22.2739L68.4322-19.9668L95.2569-33.5493C103.682-37.8374 98.088-50.1592 88.1944-45.1079ZM69.2159-17.0312L87.5802-8.62351C93.9674-5.62693 89.6095 2.32374 83.9796-0.627425L63.9029-11.0654L61.6583-9.5864L82.8902 1.45023C91.277 5.76226 98.1202-6.29832 88.5719-10.6626L69.2159-19.6065ZM39.9131-17.0312L39.9131-19.6065L20.5606-10.6626C11.0088-6.29832 17.8521 5.76226 26.2388 1.45023L47.4708-9.5864L45.2261-11.0654L25.1494-0.627425C19.5196 2.32374 15.1617-5.62693 21.5489-8.62351ZM54.5645-10.7148C46.6158-10.7148 41.4854-13.8091 41.4854-18.2637C41.4854-22.6763 46.6158-25.7217 54.5645-25.7217C62.5132-25.7217 67.6436-22.6763 67.6436-18.2637C67.6436-13.8091 62.5132-10.7148 54.5645-10.7148ZM54.5645-63.3613C48.4244-63.3613 42.7603-67.3516 42.6817-71.4717C42.6783-72.0723 42.8213-72.5821 44.1099-73.043C46.0171-73.7573 50.1529-74.2525 54.5645-74.2525C58.9761-74.2525 63.1119-73.7573 65.0191-73.043C66.3531-72.5366 66.4996-72.0723 66.4962-71.4717C66.4141-67.3516 60.7081-63.3613 54.5645-63.3613ZM53.4556-61.9883L53.4556-34.5894L55.6734-34.5894L55.6734-61.9883ZM54.5645-32.8257C58.3697-32.8257 61.6334-32.0591 63.8931-30.8145L65.8131-32.1504C63.1114-33.92 59.2149-34.9786 54.5645-34.9786C49.9209-34.9786 45.9859-33.9234 43.3296-32.1607L45.2667-30.8281C47.5264-32.0694 50.773-32.8257 54.5645-32.8257Z"/>
  </g>
 </g>
</svg>
