<?xml version="1.0" encoding="UTF-8"?>
<!--Generator: Apple Native CoreSVG 175.5-->
<!DOCTYPE svg
PUBLIC "-//W3C//DTD SVG 1.1//EN"
       "http://www.w3.org/Graphics/SVG/1.1/DTD/svg11.dtd">
<svg version="1.1" xmlns="http://www.w3.org/2000/svg" xmlns:xlink="http://www.w3.org/1999/xlink" width="3300" height="2200">
 <!--glyph: "uni1015C6.medium", point size: 100.0, font version: "18.0d11e1", template writer version: "90"-->
 <style>.monochrome-0 {fill:#000000}

.SFSymbolsPreview000000 {fill:#000000;opacity:1.0}
</style>
 <g id="Notes">
  <rect height="2200" id="artboard" style="fill:white;opacity:1" width="3300" x="0" y="0"/>
  <line style="fill:none;stroke:black;opacity:1;stroke-width:0.5;" x1="263" x2="3036" y1="292" y2="292"/>
  <text style="stroke:none;fill:black;font-family:sans-serif;font-size:13;font-weight:bold;" transform="matrix(1 0 0 1 263 322)">Weight/Scale Variations</text>
  <text style="stroke:none;fill:black;font-family:sans-serif;font-size:13;text-anchor:middle;" transform="matrix(1 0 0 1 559.711 322)">Ultralight</text>
  <text style="stroke:none;fill:black;font-family:sans-serif;font-size:13;text-anchor:middle;" transform="matrix(1 0 0 1 856.422 322)">Thin</text>
  <text style="stroke:none;fill:black;font-family:sans-serif;font-size:13;text-anchor:middle;" transform="matrix(1 0 0 1 1153.13 322)">Light</text>
  <text style="stroke:none;fill:black;font-family:sans-serif;font-size:13;text-anchor:middle;" transform="matrix(1 0 0 1 1449.84 322)">Regular</text>
  <text style="stroke:none;fill:black;font-family:sans-serif;font-size:13;text-anchor:middle;" transform="matrix(1 0 0 1 1746.56 322)">Medium</text>
  <text style="stroke:none;fill:black;font-family:sans-serif;font-size:13;text-anchor:middle;" transform="matrix(1 0 0 1 2043.27 322)">Semibold</text>
  <text style="stroke:none;fill:black;font-family:sans-serif;font-size:13;text-anchor:middle;" transform="matrix(1 0 0 1 2339.98 322)">Bold</text>
  <text style="stroke:none;fill:black;font-family:sans-serif;font-size:13;text-anchor:middle;" transform="matrix(1 0 0 1 2636.69 322)">Heavy</text>
  <text style="stroke:none;fill:black;font-family:sans-serif;font-size:13;text-anchor:middle;" transform="matrix(1 0 0 1 2933.4 322)">Black</text>
  <line style="fill:none;stroke:black;opacity:1;stroke-width:0.5;" x1="263" x2="3036" y1="1903" y2="1903"/>
  <g transform="matrix(1 0 0 1 263 1933)">
   <path d="M9.24805 0.830078C13.5547 0.830078 17.1387-2.74414 17.1387-7.05078C17.1387-11.3574 13.5449-14.9316 9.23828-14.9316C4.94141-14.9316 1.36719-11.3574 1.36719-7.05078C1.36719-2.74414 4.95117 0.830078 9.24805 0.830078ZM9.24805-0.654297C5.70312-0.654297 2.87109-3.49609 2.87109-7.05078C2.87109-10.6055 5.69336-13.4473 9.23828-13.4473C12.793-13.4473 15.6445-10.6055 15.6445-7.05078C15.6445-3.49609 12.8027-0.654297 9.24805-0.654297ZM5.6543-7.05078C5.6543-6.62109 5.95703-6.32812 6.40625-6.32812L8.50586-6.32812L8.50586-4.20898C8.50586-3.76953 8.79883-3.4668 9.22852-3.4668C9.67773-3.4668 9.9707-3.76953 9.9707-4.20898L9.9707-6.32812L12.0898-6.32812C12.5293-6.32812 12.832-6.62109 12.832-7.05078C12.832-7.49023 12.5293-7.79297 12.0898-7.79297L9.9707-7.79297L9.9707-9.90234C9.9707-10.3516 9.67773-10.6543 9.22852-10.6543C8.79883-10.6543 8.50586-10.3516 8.50586-9.90234L8.50586-7.79297L6.40625-7.79297C5.95703-7.79297 5.6543-7.49023 5.6543-7.05078Z"/>
  </g>
  <g transform="matrix(1 0 0 1 281.867 1933)">
   <path d="M11.709 2.91016C17.1582 2.91016 21.6699-1.61133 21.6699-7.05078C21.6699-12.5 17.1484-17.0117 11.6992-17.0117C6.25977-17.0117 1.74805-12.5 1.74805-7.05078C1.74805-1.61133 6.26953 2.91016 11.709 2.91016ZM11.709 1.25C7.09961 1.25 3.41797-2.44141 3.41797-7.05078C3.41797-11.6602 7.08984-15.3516 11.6992-15.3516C16.3086-15.3516 20.0098-11.6602 20.0098-7.05078C20.0098-2.44141 16.3184 1.25 11.709 1.25ZM7.17773-7.05078C7.17773-6.57227 7.50977-6.25 8.00781-6.25L10.8789-6.25L10.8789-3.36914C10.8789-2.88086 11.2109-2.53906 11.6895-2.53906C12.1777-2.53906 12.5195-2.87109 12.5195-3.36914L12.5195-6.25L15.4004-6.25C15.8887-6.25 16.2305-6.57227 16.2305-7.05078C16.2305-7.53906 15.8887-7.88086 15.4004-7.88086L12.5195-7.88086L12.5195-10.752C12.5195-11.25 12.1777-11.5918 11.6895-11.5918C11.2109-11.5918 10.8789-11.25 10.8789-10.752L10.8789-7.88086L8.00781-7.88086C7.50977-7.88086 7.17773-7.53906 7.17773-7.05078Z"/>
  </g>
  <g transform="matrix(1 0 0 1 305.646 1933)">
   <path d="M14.9707 5.66406C21.9336 5.66406 27.6953-0.0976562 27.6953-7.05078C27.6953-14.0137 21.9238-19.7754 14.9609-19.7754C8.00781-19.7754 2.25586-14.0137 2.25586-7.05078C2.25586-0.0976562 8.01758 5.66406 14.9707 5.66406ZM14.9707 3.84766C8.93555 3.84766 4.08203-1.01562 4.08203-7.05078C4.08203-13.0957 8.92578-17.9492 14.9609-17.9492C21.0059-17.9492 25.8691-13.0957 25.8691-7.05078C25.8691-1.01562 21.0156 3.84766 14.9707 3.84766ZM9.19922-7.05078C9.19922-6.5332 9.57031-6.17188 10.1172-6.17188L14.0625-6.17188L14.0625-2.2168C14.0625-1.67969 14.4336-1.29883 14.9512-1.29883C15.4883-1.29883 15.8594-1.66992 15.8594-2.2168L15.8594-6.17188L19.8145-6.17188C20.3516-6.17188 20.7324-6.5332 20.7324-7.05078C20.7324-7.59766 20.3613-7.96875 19.8145-7.96875L15.8594-7.96875L15.8594-11.9141C15.8594-12.4609 15.4883-12.8418 14.9512-12.8418C14.4336-12.8418 14.0625-12.4609 14.0625-11.9141L14.0625-7.96875L10.1172-7.96875C9.57031-7.96875 9.19922-7.59766 9.19922-7.05078Z"/>
  </g>
  <text style="stroke:none;fill:black;font-family:sans-serif;font-size:13;font-weight:bold;" transform="matrix(1 0 0 1 263 1953)">Design Variations</text>
  <text style="stroke:none;fill:black;font-family:sans-serif;font-size:13;" transform="matrix(1 0 0 1 263 1971)">Symbols are supported in up to nine weights and three scales.</text>
  <text style="stroke:none;fill:black;font-family:sans-serif;font-size:13;" transform="matrix(1 0 0 1 263 1989)">For optimal layout with text and other symbols, vertically align</text>
  <text style="stroke:none;fill:black;font-family:sans-serif;font-size:13;" transform="matrix(1 0 0 1 263 2007)">symbols with the adjacent text.</text>
  <line style="fill:none;stroke:#00AEEF;stroke-width:0.5;opacity:1.0;" x1="776" x2="776" y1="1919" y2="1933"/>
  <g transform="matrix(1 0 0 1 776 1933)">
   <path d="M3.31055 0.15625C3.82812 0.15625 4.08203-0.0390625 4.26758-0.585938L5.52734-4.0332L11.2891-4.0332L12.5488-0.585938C12.7344-0.0390625 12.9883 0.15625 13.4961 0.15625C14.0137 0.15625 14.3457-0.15625 14.3457-0.644531C14.3457-0.810547 14.3164-0.966797 14.2383-1.17188L9.6582-13.3691C9.43359-13.9648 9.0332-14.2676 8.4082-14.2676C7.80273-14.2676 7.39258-13.9746 7.17773-13.3789L2.59766-1.16211C2.51953-0.957031 2.49023-0.800781 2.49023-0.634766C2.49023-0.146484 2.80273 0.15625 3.31055 0.15625ZM6.00586-5.51758L8.37891-12.0898L8.42773-12.0898L10.8008-5.51758Z"/>
  </g>
  <line style="fill:none;stroke:#00AEEF;stroke-width:0.5;opacity:1.0;" x1="793.197" x2="793.197" y1="1919" y2="1933"/>
  <text style="stroke:none;fill:black;font-family:sans-serif;font-size:13;font-weight:bold;" transform="matrix(1 0 0 1 776 1953)">Margins</text>
  <text style="stroke:none;fill:black;font-family:sans-serif;font-size:13;" transform="matrix(1 0 0 1 776 1971)">Leading and trailing margins on the left and right side of each symbol</text>
  <text style="stroke:none;fill:black;font-family:sans-serif;font-size:13;" transform="matrix(1 0 0 1 776 1989)">can be adjusted by modifying the x-location of the margin guidelines.</text>
  <text style="stroke:none;fill:black;font-family:sans-serif;font-size:13;" transform="matrix(1 0 0 1 776 2007)">Modifications are automatically applied proportionally to all</text>
  <text style="stroke:none;fill:black;font-family:sans-serif;font-size:13;" transform="matrix(1 0 0 1 776 2025)">scales and weights.</text>
  <g transform="matrix(1 0 0 1 1289 1933)">
   <path d="M2.8418 1.86523L4.54102 3.57422C5.40039 4.44336 6.38672 4.38477 7.31445 3.35938L18.0078-8.42773L17.041-9.4043L6.42578 2.27539C6.07422 2.67578 5.74219 2.77344 5.27344 2.30469L4.10156 1.14258C3.63281 0.683594 3.74023 0.341797 4.14062-0.0195312L15.6152-10.8203L14.6387-11.7871L3.04688-0.898438C2.06055 0.0195312 1.98242 0.996094 2.8418 1.86523ZM9.25781-16.3281C8.83789-15.918 8.80859-15.3418 9.04297-14.9512C9.27734-14.5898 9.73633-14.3555 10.3809-14.5215C11.8457-14.8633 13.3691-14.9219 14.7949-13.9844L14.209-12.5293C13.8672-11.6992 14.043-11.1133 14.5801-10.5664L16.875-8.25195C17.3633-7.76367 17.7734-7.74414 18.3398-7.8418L19.4043-8.03711L20.0684-7.36328L20.0293-6.80664C19.9902-6.30859 20.1172-5.92773 20.6055-5.44922L21.3672-4.70703C21.8457-4.22852 22.4609-4.19922 22.9297-4.66797L25.8398-7.58789C26.3086-8.05664 26.2891-8.65234 25.8105-9.13086L25.0391-9.89258C24.5605-10.3711 24.1895-10.5273 23.7109-10.4883L23.1348-10.4395L22.4902-11.0742L22.7344-12.1973C22.8613-12.7637 22.7051-13.2031 22.1191-13.7891L19.9219-15.9766C16.582-19.2969 12.1484-19.2188 9.25781-16.3281ZM10.752-15.957C13.1836-17.7344 16.4746-17.4316 18.7012-15.2051L21.1328-12.793C21.3672-12.5586 21.4062-12.373 21.3379-12.0312L21.0156-10.5469L22.5195-9.0625L23.5059-9.12109C23.7598-9.13086 23.8379-9.11133 24.0332-8.91602L24.6094-8.33984L22.168-5.89844L21.5918-6.47461C21.3965-6.66992 21.3672-6.74805 21.377-7.01172L21.4453-7.98828L19.9512-9.47266L18.4277-9.21875C18.1055-9.15039 17.959-9.17969 17.7148-9.41406L15.7129-11.416C15.459-11.6504 15.4297-11.8164 15.5859-12.1875L16.4648-14.2773C14.9023-15.7324 12.8711-16.3574 10.8398-15.7617C10.6836-15.7227 10.625-15.8496 10.752-15.957Z"/>
  </g>
  <text style="stroke:none;fill:black;font-family:sans-serif;font-size:13;font-weight:bold;" transform="matrix(1 0 0 1 1289 1953)">Exporting</text>
  <text style="stroke:none;fill:black;font-family:sans-serif;font-size:13;" transform="matrix(1 0 0 1 1289 1971)">Symbols should be outlined when exporting to ensure the</text>
  <text style="stroke:none;fill:black;font-family:sans-serif;font-size:13;" transform="matrix(1 0 0 1 1289 1989)">design is preserved when submitting to Xcode.</text>
  <text id="template-version" style="stroke:none;fill:black;font-family:sans-serif;font-size:13;text-anchor:end;" transform="matrix(1 0 0 1 3036 1933)">Template v.4.0</text>
  <text style="stroke:none;fill:black;font-family:sans-serif;font-size:13;text-anchor:end;" transform="matrix(1 0 0 1 3036 1951)">Requires Xcode 14 or greater</text>
  <text id="descriptive-name" style="stroke:none;fill:black;font-family:sans-serif;font-size:13;text-anchor:end;" transform="matrix(1 0 0 1 3036 1969)">Generated from figure.2.arms.open</text>
  <text style="stroke:none;fill:black;font-family:sans-serif;font-size:13;text-anchor:end;" transform="matrix(1 0 0 1 3036 1987)">Typeset at 100 points</text>
  <text style="stroke:none;fill:black;font-family:sans-serif;font-size:13;" transform="matrix(1 0 0 1 263 726)">Small</text>
  <text style="stroke:none;fill:black;font-family:sans-serif;font-size:13;" transform="matrix(1 0 0 1 263 1156)">Medium</text>
  <text style="stroke:none;fill:black;font-family:sans-serif;font-size:13;" transform="matrix(1 0 0 1 263 1586)">Large</text>
 </g>
 <g id="Guides">
  <g id="H-reference" style="fill:#27AAE1;stroke:none;" transform="matrix(1 0 0 1 339 696)">
   <path d="M0.993654 0L3.63775 0L29.3281-67.1323L30.0303-67.1323L30.0303-70.459L28.1226-70.459ZM11.6885-24.4799L46.9815-24.4799L46.2315-26.7285L12.4385-26.7285ZM55.1196 0L57.7637 0L30.6382-70.459L29.4326-70.459L29.4326-67.1323Z"/>
  </g>
  <line id="Baseline-S" style="fill:none;stroke:#27AAE1;opacity:1;stroke-width:0.5;" x1="263" x2="3036" y1="696" y2="696"/>
  <line id="Capline-S" style="fill:none;stroke:#27AAE1;opacity:1;stroke-width:0.5;" x1="263" x2="3036" y1="625.541" y2="625.541"/>
  <g id="H-reference" style="fill:#27AAE1;stroke:none;" transform="matrix(1 0 0 1 339 1126)">
   <path d="M0.993654 0L3.63775 0L29.3281-67.1323L30.0303-67.1323L30.0303-70.459L28.1226-70.459ZM11.6885-24.4799L46.9815-24.4799L46.2315-26.7285L12.4385-26.7285ZM55.1196 0L57.7637 0L30.6382-70.459L29.4326-70.459L29.4326-67.1323Z"/>
  </g>
  <line id="Baseline-M" style="fill:none;stroke:#27AAE1;opacity:1;stroke-width:0.5;" x1="263" x2="3036" y1="1126" y2="1126"/>
  <line id="Capline-M" style="fill:none;stroke:#27AAE1;opacity:1;stroke-width:0.5;" x1="263" x2="3036" y1="1055.54" y2="1055.54"/>
  <g id="H-reference" style="fill:#27AAE1;stroke:none;" transform="matrix(1 0 0 1 339 1556)">
   <path d="M0.993654 0L3.63775 0L29.3281-67.1323L30.0303-67.1323L30.0303-70.459L28.1226-70.459ZM11.6885-24.4799L46.9815-24.4799L46.2315-26.7285L12.4385-26.7285ZM55.1196 0L57.7637 0L30.6382-70.459L29.4326-70.459L29.4326-67.1323Z"/>
  </g>
  <line id="Baseline-L" style="fill:none;stroke:#27AAE1;opacity:1;stroke-width:0.5;" x1="263" x2="3036" y1="1556" y2="1556"/>
  <line id="Capline-L" style="fill:none;stroke:#27AAE1;opacity:1;stroke-width:0.5;" x1="263" x2="3036" y1="1485.54" y2="1485.54"/>
  <line id="left-margin-Ultralight-S" style="fill:none;stroke:#00AEEF;stroke-width:0.5;opacity:1.0;" x1="506.288" x2="506.288" y1="600.785" y2="720.121"/>
  <line id="right-margin-Ultralight-S" style="fill:none;stroke:#00AEEF;stroke-width:0.5;opacity:1.0;" x1="613.134" x2="613.134" y1="600.785" y2="720.121"/>
  <line id="left-margin-Regular-S" style="fill:none;stroke:#00AEEF;stroke-width:0.5;opacity:1.0;" x1="1391.49" x2="1391.49" y1="600.785" y2="720.121"/>
  <line id="right-margin-Regular-S" style="fill:none;stroke:#00AEEF;stroke-width:0.5;opacity:1.0;" x1="1508.19" x2="1508.19" y1="600.785" y2="720.121"/>
  <line id="left-margin-Black-S" style="fill:none;stroke:#00AEEF;stroke-width:0.5;opacity:1.0;" x1="2872.1" x2="2872.1" y1="600.785" y2="720.121"/>
  <line id="right-margin-Black-S" style="fill:none;stroke:#00AEEF;stroke-width:0.5;opacity:1.0;" x1="2994.7" x2="2994.7" y1="600.785" y2="720.121"/>
 </g>
 <g id="Symbols">
  <g id="Black-S" transform="matrix(1 0 0 1 2872.1 696)">
   <path class="monochrome-0 SFSymbolsPreview000000" d="M37.9395-23.5352C39.1113-23.5352 39.502-22.8516 40.4785-20.0195C41.8457-15.9668 45.8984 1.02539 47.2656 6.00586C48.0957 8.88672 49.7559 10.1562 51.9531 10.1562C55.0781 10.1562 57.0312 7.32422 56.2012 4.24805C55.9082 3.22266 50.0488-21.3867 49.1699-26.4648C48.5352-30.1758 48.3887-37.3047 48.3398-42.1875C48.3398-42.627 48.8281-42.7734 49.0723-42.4316C52.2949-37.7441 56.8359-31.3477 57.9102-30.127C59.375-28.5156 61.7188-28.2227 63.5742-29.2969C66.0645-30.6641 66.6992-33.3496 65.5762-35.2539C65.2832-35.8398 64.7949-36.4746 64.4531-37.0117L53.6621-53.0762C50.5371-57.7148 46.582-60.4492 37.9395-60.4492C29.2969-60.4492 25.3418-57.7148 22.2168-53.0762L11.4258-37.0117C11.084-36.4746 10.5957-35.8398 10.3027-35.2539C9.17969-33.3496 9.81445-30.6641 12.3047-29.2969C14.1602-28.2227 16.5039-28.5156 17.9688-30.127C19.043-31.3477 23.584-37.7441 26.8066-42.4316C27.0508-42.7734 27.5391-42.627 27.5391-42.1875C27.4902-37.3047 27.3438-30.1758 26.709-26.4648C25.8301-21.3867 19.9707 3.22266 19.6777 4.24805C18.8477 7.32422 20.8008 10.1562 23.9258 10.1562C26.123 10.1562 27.7832 8.88672 28.6133 6.00586C29.9805 1.02539 34.0332-15.9668 35.4004-20.0195C36.377-22.8516 36.7676-23.5352 37.9395-23.5352ZM84.668-23.5352C85.8398-23.5352 86.2305-22.8516 87.207-20.0195C88.5742-15.9668 92.627 1.02539 93.9941 6.00586C94.8242 8.88672 96.4844 10.1562 98.6816 10.1562C101.807 10.1562 103.76 7.32422 102.93 4.24805C102.637 3.22266 96.7773-21.3867 95.8984-26.4648C95.2637-30.1758 95.1172-37.3047 95.0684-42.1875C95.0684-42.627 95.5566-42.7734 95.8008-42.4316C99.0234-37.7441 103.564-31.3477 104.639-30.127C106.104-28.5156 108.447-28.2227 110.303-29.2969C112.793-30.6641 113.428-33.3496 112.305-35.2539C112.012-35.8398 111.523-36.4746 111.182-37.0117L100.391-53.0762C97.2656-57.7148 93.3105-60.4492 84.668-60.4492C76.0254-60.4492 72.0703-57.7148 68.9453-53.0762L58.1543-37.0117C57.8125-36.4746 57.3242-35.8398 57.0312-35.2539C55.9082-33.3496 56.543-30.6641 59.0332-29.2969C60.8887-28.2227 63.2324-28.5156 64.6973-30.127C65.7715-31.3477 70.3125-37.7441 73.5352-42.4316C73.7793-42.7734 74.2676-42.627 74.2676-42.1875C74.2188-37.3047 74.0723-30.1758 73.4375-26.4648C72.5586-21.3867 66.6992 3.22266 66.4062 4.24805C65.5762 7.32422 67.5293 10.1562 70.6543 10.1562C72.8516 10.1562 74.5117 8.88672 75.3418 6.00586C76.709 1.02539 80.7617-15.9668 82.1289-20.0195C83.1055-22.8516 83.4961-23.5352 84.668-23.5352ZM84.668-63.623C90.0391-63.623 94.4336-68.0176 94.4336-73.3887C94.4336-78.7598 90.0391-83.1543 84.668-83.1543C79.2969-83.1543 74.9023-78.7598 74.9023-73.3887C74.9023-68.0176 79.2969-63.623 84.668-63.623ZM37.9395-63.623C43.3105-63.623 47.7051-68.0176 47.7051-73.3887C47.7051-78.7598 43.3105-83.1543 37.9395-83.1543C32.5684-83.1543 28.1738-78.7598 28.1738-73.3887C28.1738-68.0176 32.5684-63.623 37.9395-63.623Z"/>
  </g>
  <g id="Regular-S" transform="matrix(1 0 0 1 1391.49 696)">
   <path class="monochrome-0 SFSymbolsPreview000000" d="M35.9863-24.7559C37.5488-24.7559 38.1348-23.6816 39.0625-20.8984C40.3809-16.9922 44.2871-0.683594 45.6055 4.05273C46.2891 6.54297 47.5586 7.51953 49.3652 7.51953C51.9043 7.51953 53.4668 5.22461 52.7344 2.7832C52.4414 1.75781 46.8262-21.8262 46.0449-26.709C45.3613-30.8105 45.2148-38.9648 45.2148-43.457C45.2148-44.0918 45.8984-44.3359 46.2891-43.7988C49.3652-39.502 54.541-32.0801 55.5664-30.8594C56.7383-29.541 58.5938-29.2969 60.1562-30.1758C62.1582-31.2988 62.5977-33.4473 61.8164-34.9121C61.4746-35.4492 61.084-36.0352 60.7422-36.5723L50.4883-51.8066C47.4609-56.2012 43.7988-58.5938 35.9863-58.5938C28.125-58.5938 24.4629-56.2012 21.4844-51.8066L11.1816-36.5723C10.8398-36.0352 10.4492-35.4492 10.1562-34.9121C9.32617-33.4473 9.76562-31.2988 11.8164-30.1758C13.3301-29.2969 15.1855-29.541 16.3574-30.8594C17.4316-32.0801 22.6074-39.4531 25.6348-43.7988C25.9766-44.2871 26.7578-44.0918 26.7578-43.4082C26.7578-38.916 26.6113-30.8105 25.9277-26.709C25.0977-21.8262 19.5312 1.75781 19.2383 2.7832C18.5059 5.22461 20.0684 7.51953 22.5586 7.51953C24.4141 7.51953 25.6836 6.54297 26.3184 4.05273C27.6367-0.683594 31.543-16.9922 32.9102-20.8984C33.8379-23.6816 34.4238-24.7559 35.9863-24.7559ZM80.7617-24.7559C82.3242-24.7559 82.9102-23.6816 83.8379-20.8984C85.1562-16.9922 89.0625-0.683594 90.3809 4.05273C91.0645 6.54297 92.334 7.51953 94.1406 7.51953C96.6797 7.51953 98.1934 5.22461 97.5098 2.7832C97.2168 1.75781 91.6016-21.8262 90.7715-26.709C90.1367-30.8105 89.9414-38.9648 89.9414-43.457C89.9414-44.0918 90.6738-44.3359 91.0645-43.7988C94.1406-39.502 99.3164-32.0801 100.342-30.8594C101.514-29.541 103.369-29.2969 104.932-30.1758C106.934-31.2988 107.373-33.4473 106.543-34.9121C106.25-35.4492 105.859-36.0352 105.518-36.5723L95.2148-51.8066C92.2363-56.2012 88.5742-58.5938 80.7617-58.5938C72.9004-58.5938 69.2383-56.2012 66.2598-51.8066L55.957-36.5723C55.6152-36.0352 55.2246-35.4492 54.9316-34.9121C54.1016-33.4473 54.541-31.2988 56.5918-30.1758C58.1055-29.2969 59.9609-29.541 61.1328-30.8594C62.207-32.0801 67.334-39.4531 70.4102-43.7988C70.752-44.2871 71.5332-44.0918 71.5332-43.4082C71.5332-38.916 71.3867-30.8105 70.7031-26.709C69.873-21.8262 64.3066 1.75781 64.0137 2.7832C63.2812 5.22461 64.7949 7.51953 67.334 7.51953C69.1895 7.51953 70.4102 6.54297 71.0938 4.05273C72.4121-0.683594 76.3184-16.9922 77.6855-20.8984C78.5645-23.6816 79.1992-24.7559 80.7617-24.7559ZM80.7617-62.5C85.4492-62.5 89.209-66.2598 89.209-70.9961C89.209-75.6836 85.4492-79.4434 80.7617-79.4434C76.0254-79.4434 72.2656-75.6836 72.2656-70.9961C72.2656-66.2598 76.0254-62.5 80.7617-62.5ZM35.9863-62.5C40.6738-62.5 44.4336-66.2598 44.4336-70.9961C44.4336-75.6836 40.6738-79.4434 35.9863-79.4434C31.2988-79.4434 27.4902-75.6836 27.4902-70.9961C27.4902-66.2598 31.2988-62.5 35.9863-62.5Z"/>
  </g>
  <g id="Ultralight-S" transform="matrix(1 0 0 1 506.288 696)">
   <path class="monochrome-0 SFSymbolsPreview000000" d="M33.2163-25.6186C34.7788-25.6186 35.5464-24.499 36.2471-21.9883C37.2476-18.3545 41.0176-3.40818 42.2451 0.964868C42.7925 2.95559 43.835 3.93216 45.46 3.93216C47.5904 3.93216 48.8804 2.00051 48.3296-0.123024C48.0821-1.0576 42.7393-22.6435 42.1851-27.1177C41.6377-31.6279 41.355-41.5986 41.355-43.5479C41.355-44.001 41.9024-44.1997 42.2476-43.7534C44.3247-40.9551 50-33.0337 50.8892-31.8584C51.9248-30.54 53.5987-30.2959 54.9795-31.0386C56.5728-31.8892 57.0123-33.6289 56.2764-35.0029C55.8892-35.6763 55.4532-36.2622 54.8843-37.1172L46.6739-48.9004C42.7837-54.4756 37.941-54.961 33.2163-54.961C28.4429-54.961 23.6455-54.4756 19.7134-48.9004L11.4995-37.1172C10.9307-36.2622 10.4946-35.6763 10.1108-35.0029C9.37158-33.6289 9.81103-31.8892 11.4531-31.0386C12.8306-30.2959 14.5044-30.54 15.54-31.8584C16.4326-33.0337 22.1079-40.9516 24.1362-43.7534C24.478-44.1963 25.0322-44.001 25.0322-43.5444C25.0322-41.5952 24.7495-31.6279 24.2022-27.1177C23.6445-22.6435 18.3052-1.0576 18.0576-0.123024C17.5523 2.00051 18.7969 3.93216 20.9238 3.93216C22.5523 3.93216 23.5947 2.95559 24.1387 0.964868C25.3662-3.40818 29.1817-18.3545 30.1856-21.9883C30.8863-24.499 31.6538-25.6186 33.2163-25.6186ZM73.6778-25.6186C75.2403-25.6186 76.0079-24.499 76.7086-21.9883C77.6636-18.3545 81.4791-3.40818 82.7066 0.964868C83.254 2.95559 84.2965 3.93216 85.9215 3.93216C88.0518 3.93216 89.3384 2.00051 88.7911-0.123024C88.5435-1.0576 83.2007-22.6435 82.6431-27.1177C82.0992-31.6279 81.8131-41.5986 81.8131-43.5479C81.8131-44.001 82.3638-44.1997 82.7091-43.7534C84.7862-40.9551 90.4615-33.0337 91.3507-31.8584C92.3863-30.54 94.0601-30.2959 95.3956-31.0386C97.0343-31.8892 97.4737-33.6289 96.7345-35.0029C96.3507-35.6763 95.9146-36.2622 95.3458-37.1172L87.1319-48.9004C83.2452-54.4756 78.4024-54.961 73.6778-54.961C68.9043-54.961 64.107-54.4756 60.1749-48.9004L51.961-37.1172C51.3921-36.2622 50.9561-35.6763 50.5723-35.0029C49.833-33.6289 50.2725-31.8892 51.9146-31.0386C53.292-30.2959 54.9659-30.54 56.0015-31.8584C56.8487-33.0337 62.566-40.9516 64.5977-43.7534C64.9395-44.1963 65.4937-44.001 65.4937-43.5444C65.4937-41.5952 65.211-31.6279 64.6636-27.1177C64.106-22.6435 58.7666-1.0576 58.5191-0.123024C58.0137 2.00051 59.2549 3.93216 61.3853 3.93216C63.0137 3.93216 64.0528 2.95559 64.6001 0.964868C65.8277-3.40818 69.6431-18.3545 70.647-21.9883C71.3443-24.499 72.1153-25.6186 73.6778-25.6186ZM73.6778-59.3213C77.7296-59.3213 80.9444-62.4908 80.9444-66.5913C80.9444-70.7339 77.7296-73.858 73.6778-73.858C69.5772-73.858 66.4078-70.7339 66.4078-66.5913C66.4078-62.4908 69.5772-59.3213 73.6778-59.3213ZM33.2163-59.3213C37.2681-59.3213 40.4829-62.4908 40.4829-66.5913C40.4829-70.7339 37.2681-73.858 33.2163-73.858C29.1192-73.858 25.9463-70.7339 25.9463-66.5913C25.9463-62.4908 29.1192-59.3213 33.2163-59.3213Z"/>
  </g>
 </g>
</svg>
