<?xml version="1.0" encoding="UTF-8"?>
<!--Generator: Apple Native CoreSVG 175.5-->
<!DOCTYPE svg
PUBLIC "-//W3C//DTD SVG 1.1//EN"
       "http://www.w3.org/Graphics/SVG/1.1/DTD/svg11.dtd">
<svg version="1.1" xmlns="http://www.w3.org/2000/svg" xmlns:xlink="http://www.w3.org/1999/xlink" width="3300" height="2200">
 <!--glyph: "uni101560.medium", point size: 100.0, font version: "18.0d11e1", template writer version: "90"-->
 <style>.monochrome-0 {fill:#000000}

.SFSymbolsPreview000000 {fill:#000000;opacity:1.0}
</style>
 <g id="Notes">
  <rect height="2200" id="artboard" style="fill:white;opacity:1" width="3300" x="0" y="0"/>
  <line style="fill:none;stroke:black;opacity:1;stroke-width:0.5;" x1="263" x2="3036" y1="292" y2="292"/>
  <text style="stroke:none;fill:black;font-family:sans-serif;font-size:13;font-weight:bold;" transform="matrix(1 0 0 1 263 322)">Weight/Scale Variations</text>
  <text style="stroke:none;fill:black;font-family:sans-serif;font-size:13;text-anchor:middle;" transform="matrix(1 0 0 1 559.711 322)">Ultralight</text>
  <text style="stroke:none;fill:black;font-family:sans-serif;font-size:13;text-anchor:middle;" transform="matrix(1 0 0 1 856.422 322)">Thin</text>
  <text style="stroke:none;fill:black;font-family:sans-serif;font-size:13;text-anchor:middle;" transform="matrix(1 0 0 1 1153.13 322)">Light</text>
  <text style="stroke:none;fill:black;font-family:sans-serif;font-size:13;text-anchor:middle;" transform="matrix(1 0 0 1 1449.84 322)">Regular</text>
  <text style="stroke:none;fill:black;font-family:sans-serif;font-size:13;text-anchor:middle;" transform="matrix(1 0 0 1 1746.56 322)">Medium</text>
  <text style="stroke:none;fill:black;font-family:sans-serif;font-size:13;text-anchor:middle;" transform="matrix(1 0 0 1 2043.27 322)">Semibold</text>
  <text style="stroke:none;fill:black;font-family:sans-serif;font-size:13;text-anchor:middle;" transform="matrix(1 0 0 1 2339.98 322)">Bold</text>
  <text style="stroke:none;fill:black;font-family:sans-serif;font-size:13;text-anchor:middle;" transform="matrix(1 0 0 1 2636.69 322)">Heavy</text>
  <text style="stroke:none;fill:black;font-family:sans-serif;font-size:13;text-anchor:middle;" transform="matrix(1 0 0 1 2933.4 322)">Black</text>
  <line style="fill:none;stroke:black;opacity:1;stroke-width:0.5;" x1="263" x2="3036" y1="1903" y2="1903"/>
  <g transform="matrix(1 0 0 1 263 1933)">
   <path d="M9.24805 0.830078C13.5547 0.830078 17.1387-2.74414 17.1387-7.05078C17.1387-11.3574 13.5449-14.9316 9.23828-14.9316C4.94141-14.9316 1.36719-11.3574 1.36719-7.05078C1.36719-2.74414 4.95117 0.830078 9.24805 0.830078ZM9.24805-0.654297C5.70312-0.654297 2.87109-3.49609 2.87109-7.05078C2.87109-10.6055 5.69336-13.4473 9.23828-13.4473C12.793-13.4473 15.6445-10.6055 15.6445-7.05078C15.6445-3.49609 12.8027-0.654297 9.24805-0.654297ZM5.6543-7.05078C5.6543-6.62109 5.95703-6.32812 6.40625-6.32812L8.50586-6.32812L8.50586-4.20898C8.50586-3.76953 8.79883-3.4668 9.22852-3.4668C9.67773-3.4668 9.9707-3.76953 9.9707-4.20898L9.9707-6.32812L12.0898-6.32812C12.5293-6.32812 12.832-6.62109 12.832-7.05078C12.832-7.49023 12.5293-7.79297 12.0898-7.79297L9.9707-7.79297L9.9707-9.90234C9.9707-10.3516 9.67773-10.6543 9.22852-10.6543C8.79883-10.6543 8.50586-10.3516 8.50586-9.90234L8.50586-7.79297L6.40625-7.79297C5.95703-7.79297 5.6543-7.49023 5.6543-7.05078Z"/>
  </g>
  <g transform="matrix(1 0 0 1 281.867 1933)">
   <path d="M11.709 2.91016C17.1582 2.91016 21.6699-1.61133 21.6699-7.05078C21.6699-12.5 17.1484-17.0117 11.6992-17.0117C6.25977-17.0117 1.74805-12.5 1.74805-7.05078C1.74805-1.61133 6.26953 2.91016 11.709 2.91016ZM11.709 1.25C7.09961 1.25 3.41797-2.44141 3.41797-7.05078C3.41797-11.6602 7.08984-15.3516 11.6992-15.3516C16.3086-15.3516 20.0098-11.6602 20.0098-7.05078C20.0098-2.44141 16.3184 1.25 11.709 1.25ZM7.17773-7.05078C7.17773-6.57227 7.50977-6.25 8.00781-6.25L10.8789-6.25L10.8789-3.36914C10.8789-2.88086 11.2109-2.53906 11.6895-2.53906C12.1777-2.53906 12.5195-2.87109 12.5195-3.36914L12.5195-6.25L15.4004-6.25C15.8887-6.25 16.2305-6.57227 16.2305-7.05078C16.2305-7.53906 15.8887-7.88086 15.4004-7.88086L12.5195-7.88086L12.5195-10.752C12.5195-11.25 12.1777-11.5918 11.6895-11.5918C11.2109-11.5918 10.8789-11.25 10.8789-10.752L10.8789-7.88086L8.00781-7.88086C7.50977-7.88086 7.17773-7.53906 7.17773-7.05078Z"/>
  </g>
  <g transform="matrix(1 0 0 1 305.646 1933)">
   <path d="M14.9707 5.66406C21.9336 5.66406 27.6953-0.0976562 27.6953-7.05078C27.6953-14.0137 21.9238-19.7754 14.9609-19.7754C8.00781-19.7754 2.25586-14.0137 2.25586-7.05078C2.25586-0.0976562 8.01758 5.66406 14.9707 5.66406ZM14.9707 3.84766C8.93555 3.84766 4.08203-1.01562 4.08203-7.05078C4.08203-13.0957 8.92578-17.9492 14.9609-17.9492C21.0059-17.9492 25.8691-13.0957 25.8691-7.05078C25.8691-1.01562 21.0156 3.84766 14.9707 3.84766ZM9.19922-7.05078C9.19922-6.5332 9.57031-6.17188 10.1172-6.17188L14.0625-6.17188L14.0625-2.2168C14.0625-1.67969 14.4336-1.29883 14.9512-1.29883C15.4883-1.29883 15.8594-1.66992 15.8594-2.2168L15.8594-6.17188L19.8145-6.17188C20.3516-6.17188 20.7324-6.5332 20.7324-7.05078C20.7324-7.59766 20.3613-7.96875 19.8145-7.96875L15.8594-7.96875L15.8594-11.9141C15.8594-12.4609 15.4883-12.8418 14.9512-12.8418C14.4336-12.8418 14.0625-12.4609 14.0625-11.9141L14.0625-7.96875L10.1172-7.96875C9.57031-7.96875 9.19922-7.59766 9.19922-7.05078Z"/>
  </g>
  <text style="stroke:none;fill:black;font-family:sans-serif;font-size:13;font-weight:bold;" transform="matrix(1 0 0 1 263 1953)">Design Variations</text>
  <text style="stroke:none;fill:black;font-family:sans-serif;font-size:13;" transform="matrix(1 0 0 1 263 1971)">Symbols are supported in up to nine weights and three scales.</text>
  <text style="stroke:none;fill:black;font-family:sans-serif;font-size:13;" transform="matrix(1 0 0 1 263 1989)">For optimal layout with text and other symbols, vertically align</text>
  <text style="stroke:none;fill:black;font-family:sans-serif;font-size:13;" transform="matrix(1 0 0 1 263 2007)">symbols with the adjacent text.</text>
  <line style="fill:none;stroke:#00AEEF;stroke-width:0.5;opacity:1.0;" x1="776" x2="776" y1="1919" y2="1933"/>
  <g transform="matrix(1 0 0 1 776 1933)">
   <path d="M3.31055 0.15625C3.82812 0.15625 4.08203-0.0390625 4.26758-0.585938L5.52734-4.0332L11.2891-4.0332L12.5488-0.585938C12.7344-0.0390625 12.9883 0.15625 13.4961 0.15625C14.0137 0.15625 14.3457-0.15625 14.3457-0.644531C14.3457-0.810547 14.3164-0.966797 14.2383-1.17188L9.6582-13.3691C9.43359-13.9648 9.0332-14.2676 8.4082-14.2676C7.80273-14.2676 7.39258-13.9746 7.17773-13.3789L2.59766-1.16211C2.51953-0.957031 2.49023-0.800781 2.49023-0.634766C2.49023-0.146484 2.80273 0.15625 3.31055 0.15625ZM6.00586-5.51758L8.37891-12.0898L8.42773-12.0898L10.8008-5.51758Z"/>
  </g>
  <line style="fill:none;stroke:#00AEEF;stroke-width:0.5;opacity:1.0;" x1="793.197" x2="793.197" y1="1919" y2="1933"/>
  <text style="stroke:none;fill:black;font-family:sans-serif;font-size:13;font-weight:bold;" transform="matrix(1 0 0 1 776 1953)">Margins</text>
  <text style="stroke:none;fill:black;font-family:sans-serif;font-size:13;" transform="matrix(1 0 0 1 776 1971)">Leading and trailing margins on the left and right side of each symbol</text>
  <text style="stroke:none;fill:black;font-family:sans-serif;font-size:13;" transform="matrix(1 0 0 1 776 1989)">can be adjusted by modifying the x-location of the margin guidelines.</text>
  <text style="stroke:none;fill:black;font-family:sans-serif;font-size:13;" transform="matrix(1 0 0 1 776 2007)">Modifications are automatically applied proportionally to all</text>
  <text style="stroke:none;fill:black;font-family:sans-serif;font-size:13;" transform="matrix(1 0 0 1 776 2025)">scales and weights.</text>
  <g transform="matrix(1 0 0 1 1289 1933)">
   <path d="M2.8418 1.86523L4.54102 3.57422C5.40039 4.44336 6.38672 4.38477 7.31445 3.35938L18.0078-8.42773L17.041-9.4043L6.42578 2.27539C6.07422 2.67578 5.74219 2.77344 5.27344 2.30469L4.10156 1.14258C3.63281 0.683594 3.74023 0.341797 4.14062-0.0195312L15.6152-10.8203L14.6387-11.7871L3.04688-0.898438C2.06055 0.0195312 1.98242 0.996094 2.8418 1.86523ZM9.25781-16.3281C8.83789-15.918 8.80859-15.3418 9.04297-14.9512C9.27734-14.5898 9.73633-14.3555 10.3809-14.5215C11.8457-14.8633 13.3691-14.9219 14.7949-13.9844L14.209-12.5293C13.8672-11.6992 14.043-11.1133 14.5801-10.5664L16.875-8.25195C17.3633-7.76367 17.7734-7.74414 18.3398-7.8418L19.4043-8.03711L20.0684-7.36328L20.0293-6.80664C19.9902-6.30859 20.1172-5.92773 20.6055-5.44922L21.3672-4.70703C21.8457-4.22852 22.4609-4.19922 22.9297-4.66797L25.8398-7.58789C26.3086-8.05664 26.2891-8.65234 25.8105-9.13086L25.0391-9.89258C24.5605-10.3711 24.1895-10.5273 23.7109-10.4883L23.1348-10.4395L22.4902-11.0742L22.7344-12.1973C22.8613-12.7637 22.7051-13.2031 22.1191-13.7891L19.9219-15.9766C16.582-19.2969 12.1484-19.2188 9.25781-16.3281ZM10.752-15.957C13.1836-17.7344 16.4746-17.4316 18.7012-15.2051L21.1328-12.793C21.3672-12.5586 21.4062-12.373 21.3379-12.0312L21.0156-10.5469L22.5195-9.0625L23.5059-9.12109C23.7598-9.13086 23.8379-9.11133 24.0332-8.91602L24.6094-8.33984L22.168-5.89844L21.5918-6.47461C21.3965-6.66992 21.3672-6.74805 21.377-7.01172L21.4453-7.98828L19.9512-9.47266L18.4277-9.21875C18.1055-9.15039 17.959-9.17969 17.7148-9.41406L15.7129-11.416C15.459-11.6504 15.4297-11.8164 15.5859-12.1875L16.4648-14.2773C14.9023-15.7324 12.8711-16.3574 10.8398-15.7617C10.6836-15.7227 10.625-15.8496 10.752-15.957Z"/>
  </g>
  <text style="stroke:none;fill:black;font-family:sans-serif;font-size:13;font-weight:bold;" transform="matrix(1 0 0 1 1289 1953)">Exporting</text>
  <text style="stroke:none;fill:black;font-family:sans-serif;font-size:13;" transform="matrix(1 0 0 1 1289 1971)">Symbols should be outlined when exporting to ensure the</text>
  <text style="stroke:none;fill:black;font-family:sans-serif;font-size:13;" transform="matrix(1 0 0 1 1289 1989)">design is preserved when submitting to Xcode.</text>
  <text id="template-version" style="stroke:none;fill:black;font-family:sans-serif;font-size:13;text-anchor:end;" transform="matrix(1 0 0 1 3036 1933)">Template v.4.0</text>
  <text style="stroke:none;fill:black;font-family:sans-serif;font-size:13;text-anchor:end;" transform="matrix(1 0 0 1 3036 1951)">Requires Xcode 14 or greater</text>
  <text id="descriptive-name" style="stroke:none;fill:black;font-family:sans-serif;font-size:13;text-anchor:end;" transform="matrix(1 0 0 1 3036 1969)">Generated from cooktop</text>
  <text style="stroke:none;fill:black;font-family:sans-serif;font-size:13;text-anchor:end;" transform="matrix(1 0 0 1 3036 1987)">Typeset at 100 points</text>
  <text style="stroke:none;fill:black;font-family:sans-serif;font-size:13;" transform="matrix(1 0 0 1 263 726)">Small</text>
  <text style="stroke:none;fill:black;font-family:sans-serif;font-size:13;" transform="matrix(1 0 0 1 263 1156)">Medium</text>
  <text style="stroke:none;fill:black;font-family:sans-serif;font-size:13;" transform="matrix(1 0 0 1 263 1586)">Large</text>
 </g>
 <g id="Guides">
  <g id="H-reference" style="fill:#27AAE1;stroke:none;" transform="matrix(1 0 0 1 339 696)">
   <path d="M0.993654 0L3.63775 0L29.3281-67.1323L30.0303-67.1323L30.0303-70.459L28.1226-70.459ZM11.6885-24.4799L46.9815-24.4799L46.2315-26.7285L12.4385-26.7285ZM55.1196 0L57.7637 0L30.6382-70.459L29.4326-70.459L29.4326-67.1323Z"/>
  </g>
  <line id="Baseline-S" style="fill:none;stroke:#27AAE1;opacity:1;stroke-width:0.5;" x1="263" x2="3036" y1="696" y2="696"/>
  <line id="Capline-S" style="fill:none;stroke:#27AAE1;opacity:1;stroke-width:0.5;" x1="263" x2="3036" y1="625.541" y2="625.541"/>
  <g id="H-reference" style="fill:#27AAE1;stroke:none;" transform="matrix(1 0 0 1 339 1126)">
   <path d="M0.993654 0L3.63775 0L29.3281-67.1323L30.0303-67.1323L30.0303-70.459L28.1226-70.459ZM11.6885-24.4799L46.9815-24.4799L46.2315-26.7285L12.4385-26.7285ZM55.1196 0L57.7637 0L30.6382-70.459L29.4326-70.459L29.4326-67.1323Z"/>
  </g>
  <line id="Baseline-M" style="fill:none;stroke:#27AAE1;opacity:1;stroke-width:0.5;" x1="263" x2="3036" y1="1126" y2="1126"/>
  <line id="Capline-M" style="fill:none;stroke:#27AAE1;opacity:1;stroke-width:0.5;" x1="263" x2="3036" y1="1055.54" y2="1055.54"/>
  <g id="H-reference" style="fill:#27AAE1;stroke:none;" transform="matrix(1 0 0 1 339 1556)">
   <path d="M0.993654 0L3.63775 0L29.3281-67.1323L30.0303-67.1323L30.0303-70.459L28.1226-70.459ZM11.6885-24.4799L46.9815-24.4799L46.2315-26.7285L12.4385-26.7285ZM55.1196 0L57.7637 0L30.6382-70.459L29.4326-70.459L29.4326-67.1323Z"/>
  </g>
  <line id="Baseline-L" style="fill:none;stroke:#27AAE1;opacity:1;stroke-width:0.5;" x1="263" x2="3036" y1="1556" y2="1556"/>
  <line id="Capline-L" style="fill:none;stroke:#27AAE1;opacity:1;stroke-width:0.5;" x1="263" x2="3036" y1="1485.54" y2="1485.54"/>
  <line id="left-margin-Ultralight-S" style="fill:none;stroke:#00AEEF;stroke-width:0.5;opacity:1.0;" x1="509.39" x2="509.39" y1="600.785" y2="720.121"/>
  <line id="right-margin-Ultralight-S" style="fill:none;stroke:#00AEEF;stroke-width:0.5;opacity:1.0;" x1="610.032" x2="610.032" y1="600.785" y2="720.121"/>
  <line id="left-margin-Regular-S" style="fill:none;stroke:#00AEEF;stroke-width:0.5;opacity:1.0;" x1="1392.67" x2="1392.67" y1="600.785" y2="720.121"/>
  <line id="right-margin-Regular-S" style="fill:none;stroke:#00AEEF;stroke-width:0.5;opacity:1.0;" x1="1507.02" x2="1507.02" y1="600.785" y2="720.121"/>
  <line id="left-margin-Black-S" style="fill:none;stroke:#00AEEF;stroke-width:0.5;opacity:1.0;" x1="2873.73" x2="2873.73" y1="600.785" y2="720.121"/>
  <line id="right-margin-Black-S" style="fill:none;stroke:#00AEEF;stroke-width:0.5;opacity:1.0;" x1="2993.07" x2="2993.07" y1="600.785" y2="720.121"/>
 </g>
 <g id="Symbols">
  <g id="Black-S" transform="matrix(1 0 0 1 2873.73 696)">
   <path class="monochrome-0 SFSymbolsPreview000000" d="M22.2168 6.10352L97.0703 6.10352C104.053 6.10352 109.57 0.537109 109.57-6.5918L109.57-63.8184C109.57-70.9473 104.053-76.5137 97.0703-76.5137L22.2168-76.5137C15.2344-76.5137 9.76562-70.9473 9.76562-63.8184L9.76562-6.5918C9.76562 0.537109 15.2344 6.10352 22.2168 6.10352ZM24.0723-6.5918C23.1934-6.5918 22.5098-7.27539 22.5098-8.1543L22.5098-62.2559C22.5098-63.1348 23.1934-63.8184 24.0723-63.8184L95.7031-63.8184C96.3379-63.8184 96.8262-63.3301 96.8262-62.7441L96.8262-7.66602C96.8262-7.08008 96.3379-6.5918 95.7031-6.5918ZM66.4551-37.5C72.5586-37.5 77.3926-42.334 77.3926-48.4863C77.3926-54.6387 72.5586-59.4727 66.4551-59.4727C60.3027-59.4727 55.4688-54.6387 55.4688-48.4863C55.4688-42.334 60.3027-37.5 66.4551-37.5ZM66.4551-11.1328C72.5586-11.1328 77.3926-15.9668 77.3926-22.1191C77.3926-28.2715 72.5586-33.1055 66.4551-33.1055C60.3027-33.1055 55.4688-28.2715 55.4688-22.1191C55.4688-15.9668 60.3027-11.1328 66.4551-11.1328ZM39.209-37.5C45.3125-37.5 50.1465-42.334 50.1465-48.4863C50.1465-54.6387 45.3125-59.4727 39.209-59.4727C33.0566-59.4727 28.2227-54.6387 28.2227-48.4863C28.2227-42.334 33.0566-37.5 39.209-37.5ZM39.209-11.1328C45.3125-11.1328 50.1465-15.9668 50.1465-22.1191C50.1465-28.2715 45.3125-33.1055 39.209-33.1055C33.0566-33.1055 28.2227-28.2715 28.2227-22.1191C28.2227-15.9668 33.0566-11.1328 39.209-11.1328ZM66.4551-16.0156C63.0371-16.0156 60.3516-18.7012 60.3516-22.1191C60.3516-25.5371 63.0371-28.2227 66.4551-28.2227C69.8242-28.2227 72.5098-25.5371 72.5098-22.1191C72.5098-18.7012 69.8242-16.0156 66.4551-16.0156ZM66.4551-42.3828C63.0371-42.3828 60.3516-45.0684 60.3516-48.4863C60.3516-51.9043 63.0371-54.5898 66.4551-54.5898C69.8242-54.5898 72.5098-51.9043 72.5098-48.4863C72.5098-45.0684 69.8242-42.3828 66.4551-42.3828ZM39.209-42.3828C35.791-42.3828 33.1055-45.0684 33.1055-48.4863C33.1055-51.9043 35.791-54.5898 39.209-54.5898C42.5781-54.5898 45.2637-51.9043 45.2637-48.4863C45.2637-45.0684 42.5781-42.3828 39.209-42.3828ZM39.209-16.0156C35.791-16.0156 33.1055-18.7012 33.1055-22.1191C33.1055-25.5371 35.791-28.2227 39.209-28.2227C42.5781-28.2227 45.2637-25.5371 45.2637-22.1191C45.2637-18.7012 42.5781-16.0156 39.209-16.0156ZM39.209-17.9688C41.5039-17.9688 43.3105-19.7754 43.3105-22.1191C43.3105-24.4629 41.5039-26.2695 39.209-26.2695C36.8652-26.2695 35.0586-24.4629 35.0586-22.1191C35.0586-19.7754 36.8652-17.9688 39.209-17.9688ZM39.209-44.3359C41.5039-44.3359 43.3105-46.1426 43.3105-48.4863C43.3105-50.8301 41.5039-52.6367 39.209-52.6367C36.8652-52.6367 35.0586-50.8301 35.0586-48.4863C35.0586-46.1426 36.8652-44.3359 39.209-44.3359ZM66.4551-44.3359C68.75-44.3359 70.5566-46.1426 70.5566-48.4863C70.5566-50.8301 68.75-52.6367 66.4551-52.6367C64.1113-52.6367 62.3047-50.8301 62.3047-48.4863C62.3047-46.1426 64.1113-44.3359 66.4551-44.3359ZM66.4551-17.9688C68.75-17.9688 70.5566-19.7754 70.5566-22.1191C70.5566-24.4629 68.75-26.2695 66.4551-26.2695C64.1113-26.2695 62.3047-24.4629 62.3047-22.1191C62.3047-19.7754 64.1113-17.9688 66.4551-17.9688ZM88.2324-36.6211C90.4297-36.6211 92.1875-38.3789 92.1875-40.5762C92.1875-42.7734 90.4297-44.5312 88.2324-44.5312C86.0352-44.5312 84.2773-42.7734 84.2773-40.5762C84.2773-38.3789 86.0352-36.6211 88.2324-36.6211ZM88.2324-26.0254C90.4297-26.0254 92.1875-27.7832 92.1875-29.9805C92.1875-32.1777 90.4297-33.9355 88.2324-33.9355C86.0352-33.9355 84.2773-32.1777 84.2773-29.9805C84.2773-27.7832 86.0352-26.0254 88.2324-26.0254ZM88.2324-47.2168C90.4297-47.2168 92.1875-48.9746 92.1875-51.1719C92.1875-53.3691 90.4297-55.127 88.2324-55.127C86.0352-55.127 84.2773-53.3691 84.2773-51.1719C84.2773-48.9746 86.0352-47.2168 88.2324-47.2168ZM88.2324-15.4297C90.4297-15.4297 92.1875-17.1875 92.1875-19.3848C92.1875-21.582 90.4297-23.3398 88.2324-23.3398C86.0352-23.3398 84.2773-21.582 84.2773-19.3848C84.2773-17.1875 86.0352-15.4297 88.2324-15.4297Z"/>
  </g>
  <g id="Regular-S" transform="matrix(1 0 0 1 1392.67 696)">
   <path class="monochrome-0 SFSymbolsPreview000000" d="M22.0703 3.51562L92.2852 3.51562C100.488 3.51562 104.59-0.488281 104.59-8.59375L104.59-61.8164C104.59-69.9219 100.488-73.9258 92.2852-73.9258L22.0703-73.9258C13.8672-73.9258 9.76562-69.9219 9.76562-61.8164L9.76562-8.59375C9.76562-0.488281 13.8672 3.51562 22.0703 3.51562ZM22.168-3.51562C18.75-3.51562 16.7969-5.37109 16.7969-8.98438L16.7969-61.4258C16.7969-65.0391 18.75-66.8945 22.168-66.8945L92.1875-66.8945C95.6055-66.8945 97.5098-65.0391 97.5098-61.4258L97.5098-8.98438C97.5098-5.37109 95.6055-3.51562 92.1875-3.51562ZM65.4785-37.9395C71.9727-37.9395 77.3438-43.3105 77.3438-49.8047C77.3438-56.3477 71.9727-61.7188 65.4785-61.7188C58.9355-61.7188 53.5645-56.3477 53.5645-49.8047C53.5645-43.3105 58.9355-37.9395 65.4785-37.9395ZM65.4785-8.78906C71.9727-8.78906 77.3438-14.1602 77.3438-20.7031C77.3438-27.1973 71.9727-32.5684 65.4785-32.5684C58.9355-32.5684 53.5645-27.1973 53.5645-20.7031C53.5645-14.1602 58.9355-8.78906 65.4785-8.78906ZM35.3516-37.9395C41.8945-37.9395 47.2168-43.3105 47.2168-49.8047C47.2168-56.3477 41.8945-61.7188 35.3516-61.7188C28.8086-61.7188 23.4863-56.3477 23.4863-49.8047C23.4863-43.3105 28.8086-37.9395 35.3516-37.9395ZM35.3516-8.78906C41.8945-8.78906 47.2168-14.1602 47.2168-20.7031C47.2168-27.1973 41.8945-32.5684 35.3516-32.5684C28.8086-32.5684 23.4863-27.1973 23.4863-20.7031C23.4863-14.1602 28.8086-8.78906 35.3516-8.78906ZM65.4785-12.793C61.1328-12.793 57.5684-16.3574 57.5684-20.7031C57.5684-25 61.1328-28.5645 65.4785-28.5645C69.8242-28.5645 73.3398-25 73.3398-20.7031C73.3398-16.3574 69.8242-12.793 65.4785-12.793ZM65.4785-41.9434C61.1328-41.9434 57.5684-45.5078 57.5684-49.8047C57.5684-54.1504 61.1328-57.7148 65.4785-57.7148C69.8242-57.7148 73.3398-54.1504 73.3398-49.8047C73.3398-45.5078 69.8242-41.9434 65.4785-41.9434ZM35.3516-41.9434C31.0059-41.9434 27.4414-45.5078 27.4414-49.8047C27.4414-54.1504 31.0059-57.7148 35.3516-57.7148C39.6973-57.7148 43.2129-54.1504 43.2129-49.8047C43.2129-45.5078 39.6973-41.9434 35.3516-41.9434ZM35.3516-12.793C31.0059-12.793 27.4414-16.3574 27.4414-20.7031C27.4414-25 31.0059-28.5645 35.3516-28.5645C39.6973-28.5645 43.2129-25 43.2129-20.7031C43.2129-16.3574 39.6973-12.793 35.3516-12.793ZM35.3516-14.7949C38.623-14.7949 41.2598-17.3828 41.2598-20.7031C41.2598-23.9746 38.623-26.5625 35.3516-26.5625C32.0312-26.5625 29.4434-23.9746 29.4434-20.7031C29.4434-17.3828 32.0312-14.7949 35.3516-14.7949ZM35.3516-43.9453C38.623-43.9453 41.2598-46.5332 41.2598-49.8047C41.2598-53.125 38.623-55.7129 35.3516-55.7129C32.0312-55.7129 29.4434-53.125 29.4434-49.8047C29.4434-46.5332 32.0312-43.9453 35.3516-43.9453ZM65.4785-43.9453C68.75-43.9453 71.3379-46.5332 71.3379-49.8047C71.3379-53.125 68.75-55.7129 65.4785-55.7129C62.1582-55.7129 59.5703-53.125 59.5703-49.8047C59.5703-46.5332 62.1582-43.9453 65.4785-43.9453ZM65.4785-14.7949C68.75-14.7949 71.3379-17.3828 71.3379-20.7031C71.3379-23.9746 68.75-26.5625 65.4785-26.5625C62.1582-26.5625 59.5703-23.9746 59.5703-20.7031C59.5703-17.3828 62.1582-14.7949 65.4785-14.7949ZM89.0137-37.2559C91.0156-37.2559 92.5781-38.8184 92.5781-40.8203C92.5781-42.8223 91.0156-44.3848 89.0137-44.3848C87.0117-44.3848 85.4492-42.8223 85.4492-40.8203C85.4492-38.8184 87.0117-37.2559 89.0137-37.2559ZM89.0137-26.0742C91.0156-26.0742 92.5781-27.6367 92.5781-29.6875C92.5781-31.6406 91.0156-33.2031 89.0137-33.2031C87.0117-33.2031 85.4492-31.6406 85.4492-29.6875C85.4492-27.6367 87.0117-26.0742 89.0137-26.0742ZM89.0137-48.4375C91.0156-48.4375 92.5781-50 92.5781-52.002C92.5781-53.9551 91.0156-55.5664 89.0137-55.5664C87.0117-55.5664 85.4492-53.9551 85.4492-52.002C85.4492-50 87.0117-48.4375 89.0137-48.4375ZM89.0137-14.8926C91.0156-14.8926 92.5781-16.5039 92.5781-18.5059C92.5781-20.459 91.0156-22.0215 89.0137-22.0215C87.0117-22.0215 85.4492-20.459 85.4492-18.5059C85.4492-16.5039 87.0117-14.8926 89.0137-14.8926Z"/>
  </g>
  <g id="Ultralight-S" transform="matrix(1 0 0 1 509.39 696)">
   <path class="monochrome-0 SFSymbolsPreview000000" d="M17.1206-2.97798L83.5665-2.97798C88.1822-2.97798 90.8761-5.93746 90.8761-10.4556L90.8761-60C90.8761-64.5181 88.1822-67.4776 83.5665-67.4776L17.1206-67.4776C12.4595-67.4776 9.76562-64.5181 9.76562-60L9.76562-10.4556C9.76562-5.93746 12.4595-2.97798 17.1206-2.97798ZM17.0367-5.19579C13.8003-5.19579 11.9834-7.2329 11.9834-10.3921L11.9834-60.0635C11.9834-63.2227 13.8003-65.2598 17.0367-65.2598L83.6505-65.2598C86.8868-65.2598 88.7003-63.2227 88.7003-60.0635L88.7003-10.3921C88.7003-7.2329 86.8868-5.19579 83.6505-5.19579ZM57.6226-38.8476C63.0269-38.8476 67.2628-43.1289 67.2628-48.4878C67.2628-53.8955 63.0269-58.1314 57.6226-58.1314C52.2603-58.1314 47.979-53.8955 47.979-48.4878C47.979-43.1289 52.2603-38.8476 57.6226-38.8476ZM57.6226-12.3764C63.0269-12.3764 67.2628-16.6123 67.2628-22.02C67.2628-27.3789 63.0269-31.6602 57.6226-31.6602C52.2603-31.6602 47.979-27.3789 47.979-22.02C47.979-16.6123 52.2603-12.3764 57.6226-12.3764ZM30.2657-38.8476C35.628-38.8476 39.815-43.1289 39.815-48.4878C39.815-53.8955 35.628-58.1314 30.2657-58.1314C24.8579-58.1314 20.6255-53.8955 20.6255-48.4878C20.6255-43.1289 24.8579-38.8476 30.2657-38.8476ZM30.2657-12.3764C35.628-12.3764 39.815-16.6123 39.815-22.02C39.815-27.3789 35.628-31.6602 30.2657-31.6602C24.8579-31.6602 20.6255-27.3789 20.6255-22.02C20.6255-16.6123 24.8579-12.3764 30.2657-12.3764ZM57.6226-14.4277C53.3677-14.4277 50.0303-17.7651 50.0303-22.02C50.0303-26.2715 53.3677-29.5635 57.6226-29.5635C61.8775-29.5635 65.2115-26.2715 65.2115-22.02C65.2115-17.7651 61.8775-14.4277 57.6226-14.4277ZM57.6226-40.9443C53.3677-40.9443 50.0303-44.2363 50.0303-48.4878C50.0303-52.7427 53.3677-56.0801 57.6226-56.0801C61.8775-56.0801 65.2115-52.7427 65.2115-48.4878C65.2115-44.2363 61.8775-40.9443 57.6226-40.9443ZM30.2657-40.9443C26.0108-40.9443 22.6734-44.2363 22.6734-48.4878C22.6734-52.7427 26.0108-56.0801 30.2657-56.0801C34.4297-56.0801 37.7637-52.7427 37.7637-48.4878C37.7637-44.2363 34.4297-40.9443 30.2657-40.9443ZM30.2657-14.4277C26.0108-14.4277 22.6734-17.7651 22.6734-22.02C22.6734-26.2715 26.0108-29.5635 30.2657-29.5635C34.4297-29.5635 37.7637-26.2715 37.7637-22.02C37.7637-17.7651 34.4297-14.4277 30.2657-14.4277ZM30.2657-15.4307C34.0367-15.4307 36.7642-18.1548 36.7642-22.02C36.7642-25.8364 34.0367-28.5605 30.2657-28.5605C26.4004-28.5605 23.6763-25.8364 23.6763-22.02C23.6763-18.1548 26.4004-15.4307 30.2657-15.4307ZM30.2657-41.9473C34.0367-41.9473 36.7642-44.6714 36.7642-48.4878C36.7642-52.353 34.0367-55.0772 30.2657-55.0772C26.4004-55.0772 23.6763-52.353 23.6763-48.4878C23.6763-44.6714 26.4004-41.9473 30.2657-41.9473ZM57.6226-41.9473C61.4844-41.9473 64.2086-44.6714 64.2086-48.4878C64.2086-52.353 61.4844-55.0772 57.6226-55.0772C53.8028-55.0772 51.0787-52.353 51.0787-48.4878C51.0787-44.6714 53.8028-41.9473 57.6226-41.9473ZM57.6226-15.4307C61.4844-15.4307 64.2086-18.1548 64.2086-22.02C64.2086-25.8364 61.4844-28.5605 57.6226-28.5605C53.8028-28.5605 51.0787-25.8364 51.0787-22.02C51.0787-18.1548 53.8028-15.4307 57.6226-15.4307ZM79.2506-37.937C80.5714-37.937 81.6344-39 81.6344-40.3208C81.6344-41.5962 80.5714-42.6592 79.2506-42.6592C77.9752-42.6592 76.9122-41.5962 76.9122-40.3208C76.9122-39 77.9752-37.937 79.2506-37.937ZM79.2506-27.7998C80.5714-27.7998 81.6344-28.8628 81.6344-30.1416C81.6344-31.459 80.5714-32.522 79.2506-32.522C77.9752-32.522 76.9122-31.459 76.9122-30.1416C76.9122-28.8628 77.9752-27.7998 79.2506-27.7998ZM79.2506-48.1196C80.5714-48.1196 81.6344-49.1826 81.6344-50.458C81.6344-51.7754 80.5714-52.8418 79.2506-52.8418C77.9752-52.8418 76.9122-51.7754 76.9122-50.458C76.9122-49.1826 77.9752-48.1196 79.2506-48.1196ZM79.2506-17.6172C80.5714-17.6172 81.6344-18.6836 81.6344-20.0044C81.6344-21.2764 80.5714-22.3394 79.2506-22.3394C77.9752-22.3394 76.9122-21.2764 76.9122-20.0044C76.9122-18.6836 77.9752-17.6172 79.2506-17.6172Z"/>
  </g>
 </g>
</svg>
