<?xml version="1.0" encoding="UTF-8"?>
<!-- Generator: CustomSymbols v2.6.2.41 by @serious_bret https://bretlester.com/app_content/CustomSymbols/ -->
<!-- Guides: Left/Right 0.004/0.002 Cap/Base 0.156/0.231 -->
<!-- Settings: RefScale 0.5 Min/Max Stroke Scales 2.2/5.0 -->
<!DOCTYPE svg
PUBLIC "-//W3C//DTD SVG 1.1//EN"
       "http://www.w3.org/Graphics/SVG/1.1/DTD/svg11.dtd">
<svg version="1.1" xmlns="http://www.w3.org/2000/svg" xmlns:xlink="http://www.w3.org/1999/xlink" width="3300" height="2200">
<![CDATA[<?xml version="1.0" encoding="UTF-8" standalone="no"?>
<!--Generator: Apple Native CoreSVG 175.5-->

<svg
   version="1.1"
   width="89.669922"
   height="74.911751"
   id="svg7359"
   xmlns="http://www.w3.org/2000/svg"
   xmlns:svg="http://www.w3.org/2000/svg">
  <defs
     id="defs7363" />
  <!--glyph: "uni100BD9.medium", point size: 100.0, font version: "18.0d11e1", template writer version: "90"-->
  <g
     id="g9361"
     transform="translate(-1404.9961,-619.53516)">
    <path
       id="path7352"
       d="m 46.191875,-76.464844 c -6.884793,0 -11.328125,3.515605 -11.328125,11.279297 v 2.246094 H 22.168437 c -8.251991,0 -12.4023433,4.052739 -12.4023433,12.207031 v 36.914063 c 0,8.2031614 4.1503523,12.255859 12.4023433,12.255859 H 55.180156 V -8.59375 H 22.266094 c -3.515597,0 -5.46875,-1.90421 -5.46875,-5.566406 v -36.181641 c 0,-3.710896 1.953153,-5.566406 5.46875,-5.566406 h 64.697265 c 3.059405,0 4.934254,1.449847 5.333985,4.339844 h 7.138672 c -0.27945,-7.587319 -4.368893,-11.371094 -12.423829,-11.371094 H 74.365703 v -2.246094 c 0,-7.763692 -4.00396,-11.279297 -11.376953,-11.279297 z m -0.09766,6.347656 h 16.992187 c 2.880897,0 4.492188,1.562535 4.492188,4.394532 v 2.783203 H 41.602031 v -2.783203 c 0,-2.831997 1.660091,-4.394532 4.492188,-4.394532 z M 51.074687,-50 c -1.953098,0 -3.271484,1.269486 -3.271484,3.271484 v 7.666016 h -7.714844 c -2.001998,0 -3.271484,1.367186 -3.271484,3.271484 v 6.982422 c 0,1.953098 1.318386,3.271485 3.271484,3.271485 h 7.714844 v 7.714843 c 0,2.001998 1.318386,3.320313 3.271484,3.320313 h 4.105469 V -50 Z"
       transform="translate(1395.23,696)" />
    <path
       d="m 1473.2082,694.44691 c 0.3542,0 0.9985,-0.12885 1.707,-0.51535 14.462,-7.92347 19.5833,-11.53093 19.5833,-21.06484 v -19.38993 c 0,-2.64116 -1.2562,-3.44638 -3.2532,-4.31606 -2.6089,-1.12733 -13.2702,-4.89582 -15.8791,-5.79762 -0.6764,-0.22547 -1.4172,-0.38655 -2.158,-0.38655 -0.7408,0 -1.5139,0.22547 -2.1581,0.38655 -2.6089,0.64414 -13.2702,4.70254 -15.8791,5.79762 -1.997,0.83742 -3.2532,1.6749 -3.2532,4.31606 v 19.38993 c 0,9.53391 5.1213,13.10916 19.5833,21.06484 0.7085,0.3865 1.3528,0.51535 1.7071,0.51535 z m 0,-5.28232 c -0.3865,0 -0.7731,-0.0966 -1.6427,-0.57976 -11.6276,-6.95717 -15.0739,-9.01856 -15.0739,-16.84545 V 654.3464 c 0,-0.57977 0.1288,-0.83742 0.6442,-1.06289 4.1228,-1.61046 11.08,-3.83287 15.2027,-5.47558 0.3221,-0.12883 0.612,-0.16102 0.8697,-0.16102 0.2576,0 0.5475,0.0322 0.8696,0.16102 4.0905,1.64271 10.9511,4.0584 15.1705,5.47558 0.5476,0.19328 0.6442,0.48312 0.6442,1.06289 v 17.39298 c 0,7.82689 -3.4463,9.88828 -15.0739,16.84545 -0.8374,0.48313 -1.2239,0.57976 -1.6104,0.57976 z"
       id="path1441"
       style="stroke-width:0.659645" />
  </g>
</svg>
]]>
 <g id="Notes">
  <rect height="2200" id="artboard" style="fill:white;opacity:1" width="3300" x="0" y="0"/>
  <line id="" style="fill:none;stroke:black;opacity:1;stroke-width:0.5;" x1="263" x2="3036" y1="292" y2="292"/>
  <text id="reftext1" style="stroke:none;fill:black;font-family:-apple-system,&quot;SF Pro Display&quot;,&quot;SF Pro Text&quot;,Helvetica,sans-serif;font-weight:bold;" transform="matrix(1 0 0 1 263 322)">Weight/Scale Variations</text>
  <text id="reftext2" style="stroke:none;fill:black;font-family:-apple-system,&quot;SF Pro Display&quot;,&quot;SF Pro Text&quot;,Helvetica,sans-serif;text-anchor:middle;" transform="matrix(1 0 0 1 559.711 322)">Ultralight</text>
  <text style="stroke:none;fill:black;font-family:-apple-system,&quot;SF Pro Display&quot;,&quot;SF Pro Text&quot;,Helvetica,sans-serif;text-anchor:middle;" transform="matrix(1 0 0 1 856.422 322)">Thin</text>
  <text style="stroke:none;fill:black;font-family:-apple-system,&quot;SF Pro Display&quot;,&quot;SF Pro Text&quot;,Helvetica,sans-serif;text-anchor:middle;" transform="matrix(1 0 0 1 1153.13 322)">Light</text>
  <text style="stroke:none;fill:black;font-family:-apple-system,&quot;SF Pro Display&quot;,&quot;SF Pro Text&quot;,Helvetica,sans-serif;text-anchor:middle;" transform="matrix(1 0 0 1 1449.84 322)">Regular</text>
  <text style="stroke:none;fill:black;font-family:-apple-system,&quot;SF Pro Display&quot;,&quot;SF Pro Text&quot;,Helvetica,sans-serif;text-anchor:middle;" transform="matrix(1 0 0 1 1746.56 322)">Medium</text>
  <text style="stroke:none;fill:black;font-family:-apple-system,&quot;SF Pro Display&quot;,&quot;SF Pro Text&quot;,Helvetica,sans-serif;text-anchor:middle;" transform="matrix(1 0 0 1 2043.27 322)">Semibold</text>
  <text style="stroke:none;fill:black;font-family:-apple-system,&quot;SF Pro Display&quot;,&quot;SF Pro Text&quot;,Helvetica,sans-serif;text-anchor:middle;" transform="matrix(1 0 0 1 2339.98 322)">Bold</text>
  <text style="stroke:none;fill:black;font-family:-apple-system,&quot;SF Pro Display&quot;,&quot;SF Pro Text&quot;,Helvetica,sans-serif;text-anchor:middle;" transform="matrix(1 0 0 1 2636.69 322)">Heavy</text>
  <text style="stroke:none;fill:black;font-family:-apple-system,&quot;SF Pro Display&quot;,&quot;SF Pro Text&quot;,Helvetica,sans-serif;text-anchor:middle;" transform="matrix(1 0 0 1 2933.4 322)">Black</text>
  <line id="" style="fill:none;stroke:black;opacity:1;stroke-width:0.5;" x1="263" x2="3036" y1="1903" y2="1903"/>
  <g id="" transform="matrix(1 0 0 1 263 1933)">
   <path d="M9.24805 0.830078C13.5547 0.830078 17.1387-2.74414 17.1387-7.05078C17.1387-11.3574 13.5449-14.9316 9.23828-14.9316C4.94141-14.9316 1.36719-11.3574 1.36719-7.05078C1.36719-2.74414 4.95117 0.830078 9.24805 0.830078ZM9.24805-0.654297C5.70312-0.654297 2.87109-3.49609 2.87109-7.05078C2.87109-10.6055 5.69336-13.4473 9.23828-13.4473C12.793-13.4473 15.6348-10.6055 15.6445-7.05078C15.6543-3.49609 12.8027-0.654297 9.24805-0.654297ZM6.39648-6.31836L8.50586-6.31836L8.50586-4.19922C8.50586-3.75977 8.79883-3.45703 9.22852-3.45703C9.67773-3.45703 9.9707-3.75977 9.9707-4.19922L9.9707-6.31836L12.0996-6.31836C12.5391-6.31836 12.8418-6.61133 12.8418-7.04102C12.8418-7.48047 12.5391-7.7832 12.0996-7.7832L9.9707-7.7832L9.9707-9.89258C9.9707-10.3418 9.67773-10.6445 9.22852-10.6445C8.79883-10.6445 8.50586-10.3418 8.50586-9.89258L8.50586-7.7832L6.39648-7.7832C5.94727-7.7832 5.64453-7.48047 5.64453-7.04102C5.64453-6.61133 5.94727-6.31836 6.39648-6.31836Z"/>
  </g>
  <g id="" transform="matrix(1 0 0 1 281.506 1933)">
   <path d="M11.709 2.91016C17.1582 2.91016 21.6699-1.61133 21.6699-7.05078C21.6699-12.5 17.1484-17.0117 11.6992-17.0117C6.25977-17.0117 1.74805-12.5 1.74805-7.05078C1.74805-1.61133 6.26953 2.91016 11.709 2.91016ZM11.709 1.25C7.09961 1.25 3.41797-2.44141 3.41797-7.05078C3.41797-11.6602 7.08984-15.3516 11.6992-15.3516C16.3086-15.3516 20-11.6602 20.0098-7.05078C20.0195-2.44141 16.3184 1.25 11.709 1.25ZM7.98828-6.23047L10.8789-6.23047L10.8789-3.32031C10.8789-2.83203 11.2109-2.5 11.6895-2.5C12.1777-2.5 12.5195-2.83203 12.5195-3.32031L12.5195-6.23047L15.4297-6.23047C15.918-6.23047 16.25-6.5625 16.25-7.04102C16.25-7.5293 15.918-7.87109 15.4297-7.87109L12.5195-7.87109L12.5195-10.7617C12.5195-11.2695 12.1777-11.6016 11.6895-11.6016C11.2109-11.6016 10.8789-11.2598 10.8789-10.7617L10.8789-7.87109L7.98828-7.87109C7.48047-7.87109 7.14844-7.5293 7.14844-7.04102C7.14844-6.5625 7.49023-6.23047 7.98828-6.23047Z"/>
  </g>
  <g id="" transform="matrix(1 0 0 1 304.924 1933)">
   <path d="M14.9707 5.66406C21.9336 5.66406 27.6953-0.0976562 27.6953-7.05078C27.6953-14.0137 21.9238-19.7754 14.9609-19.7754C8.00781-19.7754 2.25586-14.0137 2.25586-7.05078C2.25586-0.0976562 8.01758 5.66406 14.9707 5.66406ZM14.9707 3.84766C8.93555 3.84766 4.08203-1.01562 4.08203-7.05078C4.08203-13.0957 8.92578-17.9492 14.9609-17.9492C21.0059-17.9492 25.8594-13.0957 25.8691-7.05078C25.8789-1.01562 21.0156 3.84766 14.9707 3.84766ZM10.0586-6.14258L14.0625-6.14258L14.0625-2.12891C14.0625-1.5918 14.4336-1.2207 14.9512-1.2207C15.4883-1.2207 15.8594-1.5918 15.8594-2.12891L15.8594-6.14258L19.8828-6.14258C20.4102-6.14258 20.791-6.51367 20.791-7.03125C20.791-7.56836 20.4199-7.94922 19.8828-7.94922L15.8594-7.94922L15.8594-11.9531C15.8594-12.5098 15.4883-12.8809 14.9512-12.8809C14.4336-12.8809 14.0625-12.5 14.0625-11.9531L14.0625-7.94922L10.0586-7.94922C9.50195-7.94922 9.13086-7.56836 9.13086-7.03125C9.13086-6.51367 9.51172-6.14258 10.0586-6.14258Z"/>
  </g>
  <text style="stroke:none;fill:black;font-family:-apple-system,&quot;SF Pro Display&quot;,&quot;SF Pro Text&quot;,Helvetica,sans-serif;font-weight:bold;" transform="matrix(1 0 0 1 263 1953)">Design Variations</text>
  <text style="stroke:none;fill:black;font-family:-apple-system,&quot;SF Pro Display&quot;,&quot;SF Pro Text&quot;,Helvetica,sans-serif;" transform="matrix(1 0 0 1 263 1971)">Symbols are supported in up to nine weights and three scales.</text>
  <text style="stroke:none;fill:black;font-family:-apple-system,&quot;SF Pro Display&quot;,&quot;SF Pro Text&quot;,Helvetica,sans-serif;" transform="matrix(1 0 0 1 263 1989)">For optimal layout with text and other symbols, vertically align</text>
  <text style="stroke:none;fill:black;font-family:-apple-system,&quot;SF Pro Display&quot;,&quot;SF Pro Text&quot;,Helvetica,sans-serif;" transform="matrix(1 0 0 1 263 2007)">symbols with the adjacent text.</text>
  <line id="" style="fill:none;stroke:#00AEEF;stroke-width:0.5;opacity:1.0;" x1="776" x2="776" y1="1919" y2="1933"/>
  <g id="" transform="matrix(1 0 0 1 776 1933)">
   <path d="M3.31055 0.126953C3.82812 0.126953 4.08203-0.0683594 4.26758-0.605469L5.52734-4.0625L11.2891-4.0625L12.5488-0.605469C12.7344-0.0683594 12.9883 0.126953 13.4961 0.126953C14.0137 0.126953 14.3457-0.185547 14.3457-0.673828C14.3457-0.839844 14.3164-0.986328 14.2383-1.20117L9.6582-13.3887C9.43359-13.9941 9.0332-14.2871 8.4082-14.2871C7.80273-14.2871 7.39258-13.9941 7.17773-13.3984L2.59766-1.19141C2.51953-0.976562 2.49023-0.830078 2.49023-0.664062C2.49023-0.175781 2.80273 0.126953 3.31055 0.126953ZM6.00586-5.53711L8.37891-12.1094L8.42773-12.1094L10.8008-5.53711Z"/>
  </g>
  <line id="" style="fill:none;stroke:#00AEEF;stroke-width:0.5;opacity:1.0;" x1="792.836" x2="792.836" y1="1919" y2="1933"/>
  <text style="stroke:none;fill:black;font-family:-apple-system,&quot;SF Pro Display&quot;,&quot;SF Pro Text&quot;,Helvetica,sans-serif;font-weight:bold;" transform="matrix(1 0 0 1 776 1953)">Margins</text>
  <text style="stroke:none;fill:black;font-family:-apple-system,&quot;SF Pro Display&quot;,&quot;SF Pro Text&quot;,Helvetica,sans-serif;" transform="matrix(1 0 0 1 776 1971)">Leading and trailing margins on the left and right side of each symbol</text>
  <text style="stroke:none;fill:black;font-family:-apple-system,&quot;SF Pro Display&quot;,&quot;SF Pro Text&quot;,Helvetica,sans-serif;" transform="matrix(1 0 0 1 776 1989)">can be adjusted by modifying the x-location of the margin guidelines.</text>
  <text style="stroke:none;fill:black;font-family:-apple-system,&quot;SF Pro Display&quot;,&quot;SF Pro Text&quot;,Helvetica,sans-serif;" transform="matrix(1 0 0 1 776 2007)">Modifications are automatically applied proportionally to all</text>
  <text style="stroke:none;fill:black;font-family:-apple-system,&quot;SF Pro Display&quot;,&quot;SF Pro Text&quot;,Helvetica,sans-serif;" transform="matrix(1 0 0 1 776 2025)">scales and weights.</text>
  <g id="" transform="matrix(1 0 0 1 1289 1933)">
   <path d="M2.8418 1.86523L4.54102 3.57422C5.40039 4.44336 6.38672 4.38477 7.31445 3.35938L17.4902-7.85156C17.7539-7.76367 18.0273-7.7832 18.3398-7.8418L19.4043-8.03711L20.0684-7.36328L20.0293-6.80664C19.9902-6.30859 20.1172-5.92773 20.6055-5.44922L21.3672-4.70703C21.8457-4.22852 22.4609-4.19922 22.9297-4.66797L25.8398-7.58789C26.3086-8.05664 26.2891-8.65234 25.8105-9.13086L25.0391-9.89258C24.5605-10.3711 24.1895-10.5273 23.7109-10.4883L23.1348-10.4395L22.4902-11.0742L22.7344-12.1973C22.8613-12.7637 22.7051-13.2031 22.1191-13.7891L19.9219-15.9766C16.582-19.2969 12.1484-19.2188 9.25781-16.3281C8.83789-15.918 8.80859-15.3418 9.04297-14.9512C9.27734-14.5898 9.73633-14.3555 10.3809-14.5215C11.8457-14.8633 13.3691-14.9219 14.7949-13.9844L14.209-12.5293C14.0137-12.0508 13.9844-11.6504 14.1113-11.2891L3.04688-0.898438C2.06055 0.0195312 1.98242 0.996094 2.8418 1.86523ZM10.752-15.957C13.1836-17.7344 16.4746-17.4316 18.7012-15.2051L21.1328-12.793C21.3672-12.5586 21.4062-12.373 21.3379-12.0312L21.0156-10.5469L22.5195-9.0625L23.5059-9.12109C23.7598-9.13086 23.8379-9.11133 24.0332-8.91602L24.6094-8.33984L22.168-5.89844L21.5918-6.47461C21.3965-6.66992 21.3672-6.74805 21.377-7.01172L21.4453-7.98828L19.9512-9.47266L18.4277-9.21875C18.1055-9.15039 17.959-9.17969 17.7148-9.41406L15.7129-11.416C15.459-11.6504 15.4297-11.8164 15.5859-12.1875L16.4648-14.2773C14.9023-15.7324 12.8711-16.3574 10.8398-15.7617C10.6836-15.7227 10.625-15.8496 10.752-15.957ZM5.27344 2.30469L4.10156 1.14258C3.63281 0.683594 3.74023 0.341797 4.14062-0.0195312L14.9512-10.1953L16.416-8.71094L6.42578 2.27539C6.07422 2.67578 5.74219 2.77344 5.27344 2.30469Z"/>
  </g>
  <text style="stroke:none;fill:black;font-family:-apple-system,&quot;SF Pro Display&quot;,&quot;SF Pro Text&quot;,Helvetica,sans-serif;font-weight:bold;" transform="matrix(1 0 0 1 1289 1953)">Exporting</text>
  <text style="stroke:none;fill:black;font-family:-apple-system,&quot;SF Pro Display&quot;,&quot;SF Pro Text&quot;,Helvetica,sans-serif;" transform="matrix(1 0 0 1 1289 1971)">Symbols should be outlined when exporting to ensure the</text>
  <text style="stroke:none;fill:black;font-family:-apple-system,&quot;SF Pro Display&quot;,&quot;SF Pro Text&quot;,Helvetica,sans-serif;" transform="matrix(1 0 0 1 1289 1989)">design is preserved when submitting to Xcode.</text>
  <text id="template-version" style="stroke:none;fill:black;font-family:-apple-system,&quot;SF Pro Display&quot;,&quot;SF Pro Text&quot;,Helvetica,sans-serif;text-anchor:end;" transform="matrix(1 0 0 1 3036 1933)">Template v.2.0</text>
  <text style="stroke:none;fill:black;font-family:-apple-system,&quot;SF Pro Display&quot;,&quot;SF Pro Text&quot;,Helvetica,sans-serif;text-anchor:end;" transform="matrix(1 0 0 1 3036 1951)">Requires Xcode 12 or greater</text>
  <text style="stroke:none;fill:black;font-family:-apple-system,&quot;SF Pro Display&quot;,&quot;SF Pro Text&quot;,Helvetica,sans-serif;" transform="matrix(1 0 0 1 263 726)">Small</text>
  <text style="stroke:none;fill:black;font-family:-apple-system,&quot;SF Pro Display&quot;,&quot;SF Pro Text&quot;,Helvetica,sans-serif;" transform="matrix(1 0 0 1 263 1156)">Medium</text>
  <text style="stroke:none;fill:black;font-family:-apple-system,&quot;SF Pro Display&quot;,&quot;SF Pro Text&quot;,Helvetica,sans-serif;" transform="matrix(1 0 0 1 263 1586)">Large</text>
 </g>
 <g id="Guides">
  <g id="H-reference" style="fill:#27AAE1;stroke:none;" transform="matrix(1 0 0 1 339 696)">
   <path d="M0.976562 0L3.66211 0L12.9883-24.4629L45.752-24.4629L55.127 0L57.7637 0L30.6152-70.459L28.125-70.459ZM29.3457-67.1387L29.4434-67.1387L44.873-26.709L13.8672-26.709Z"/>
  </g>
  <line id="Baseline-S" style="fill:none;stroke:#27AAE1;opacity:1;stroke-width:0.5;" x1="263" x2="3036" y1="696" y2="696"/>
  <line id="Capline-S" style="fill:none;stroke:#27AAE1;opacity:1;stroke-width:0.5;" x1="263" x2="3036" y1="625.541" y2="625.541"/>
  <g id="H-reference" style="fill:#27AAE1;stroke:none;" transform="matrix(1 0 0 1 339 1126)">
   <path d="M0.976562 0L3.66211 0L12.9883-24.4629L45.752-24.4629L55.127 0L57.7637 0L30.6152-70.459L28.125-70.459ZM29.3457-67.1387L29.4434-67.1387L44.873-26.709L13.8672-26.709Z"/>
  </g>
  <line id="Baseline-M" style="fill:none;stroke:#27AAE1;opacity:1;stroke-width:0.5;" x1="263" x2="3036" y1="1126" y2="1126"/>
  <line id="Capline-M" style="fill:none;stroke:#27AAE1;opacity:1;stroke-width:0.5;" x1="263" x2="3036" y1="1055.54" y2="1055.54"/>
  <g id="H-reference" style="fill:#27AAE1;stroke:none;" transform="matrix(1 0 0 1 339 1556)">
   <path d="M0.976562 0L3.66211 0L12.9883-24.4629L45.752-24.4629L55.127 0L57.7637 0L30.6152-70.459L28.125-70.459ZM29.3457-67.1387L29.4434-67.1387L44.873-26.709L13.8672-26.709Z"/>
  </g>
  <line id="Baseline-L" style="fill:none;stroke:#27AAE1;opacity:1;stroke-width:0.5;" x1="263" x2="3036" y1="1556" y2="1556"/>
  <line id="Capline-L" style="fill:none;stroke:#27AAE1;opacity:1;stroke-width:0.5;" x1="263" x2="3036" y1="1485.54" y2="1485.54"/>
  <line id="left-margin" x1="1394.1183380063396" x2="1394.1183380063396" y1="1030.79" y2="1150.12" style="fill:none;stroke:#00AEEF;stroke-width:0.5;opacity:1.0;"/>
  <line id="right-margin" x1="1508.3715477275057" x2="1508.3715477275057" y1="1030.79" y2="1150.12" style="fill:none;stroke:#00AEEF;stroke-width:0.5;opacity:1.0;"/>
 </g>
 <g id="Symbols">
  <g id="Black-L" transform="matrix(1.0,0.0,0.0,1.0,2860.541885528316,1452.1922475992174)">  <path xmlns:svg="http://www.w3.org/2000/svg" stroke-miterlimit="4" fill-opacity="1" stroke-width="0.125px" stroke-linejoin="miter" fill="#000000" fill-rule="nonzero" version="1.1" stroke="none" stroke-opacity="1" stroke-linecap="butt" stroke-dasharray="none" d="M60.233,0C48.848,0,41.501,5.813,41.501,18.651L41.501,22.365L20.508,22.365C6.863,22.365,-0,29.067,-0,42.551L-0,103.591C-0,117.155,6.863,123.857,20.508,123.857L75.096,123.857L75.096,112.23L20.67,112.23C14.856,112.23,11.627,109.081,11.627,103.026L11.627,43.197C11.627,37.06,14.856,33.992,20.67,33.992L127.652,33.992C132.711,33.992,135.811,36.389,136.472,41.168L148.276,41.168C147.814,28.622,141.052,22.365,127.732,22.365L106.82,22.365L106.82,18.651C106.82,5.813,100.2,0,88.008,0ZM60.071,10.496L88.169,10.496C92.933,10.496,95.597,13.08,95.597,17.763L95.597,22.365L52.643,22.365L52.643,17.763C52.643,13.08,55.388,10.496,60.071,10.496ZM68.307,43.762C65.077,43.762,62.897,45.861,62.897,49.171L62.897,61.848L50.14,61.848C46.83,61.848,44.731,64.108,44.731,67.257L44.731,78.803C44.731,82.033,46.911,84.213,50.14,84.213L62.897,84.213L62.897,96.97C62.897,100.281,65.077,102.461,68.307,102.461L75.096,102.461L75.096,43.762ZM68.307,43.762"/>
  <path stroke-linejoin="miter" stroke-dasharray="none" stroke-linecap="butt" stroke="none" stroke-miterlimit="4" version="1.1" stroke-opacity="1" xmlns:svg="http://www.w3.org/2000/svg" fill-rule="nonzero" fill="#000000" fill-opacity="1" stroke-width="0.32982251048088074" d="M112.794,123.872C113.38,123.872,114.445,123.659,115.617,123.02C139.531,109.918,147.999,103.953,147.999,88.188L147.999,56.125C147.999,51.758,145.922,50.426,142.62,48.988C138.306,47.124,120.677,40.893,116.363,39.401C115.244,39.029,114.019,38.762,112.794,38.762C111.569,38.762,110.291,39.135,109.226,39.401C104.912,40.467,87.282,47.177,82.968,48.988C79.666,50.373,77.589,51.758,77.589,56.125L77.589,88.188C77.589,103.953,86.057,109.865,109.971,123.02C111.143,123.659,112.208,123.872,112.794,123.872ZM112.794,115.138C112.155,115.138,111.516,114.978,110.078,114.179C90.851,102.675,85.152,99.266,85.152,86.324L85.152,57.563C85.152,56.604,85.365,56.178,86.217,55.806C93.035,53.142,104.539,49.468,111.356,46.751C111.889,46.538,112.368,46.485,112.794,46.485C113.22,46.485,113.699,46.538,114.232,46.751C120.996,49.468,132.341,53.462,139.318,55.806C140.223,56.125,140.383,56.604,140.383,57.563L140.383,86.324C140.383,99.266,134.684,102.675,115.457,114.179C114.072,114.978,113.433,115.138,112.794,115.138ZM112.794,115.138"/>
</g>
  <g id="Heavy-L" transform="matrix(1.0,0.0,0.0,1.0,2563.831885528316,1452.1922475992174)">  <path stroke-linejoin="miter" stroke-linecap="butt" stroke-dasharray="none" stroke-width="0.125px" fill-rule="nonzero" stroke-miterlimit="4" stroke-opacity="1" stroke="none" xmlns:svg="http://www.w3.org/2000/svg" fill="#000000" fill-opacity="1" version="1.1" d="M60.233,0C48.848,0,41.501,5.813,41.501,18.651L41.501,22.365L20.508,22.365C6.863,22.365,-0,29.067,-0,42.551L-0,103.591C-0,117.155,6.863,123.857,20.508,123.857L75.096,123.857L75.096,112.23L20.67,112.23C14.856,112.23,11.627,109.081,11.627,103.026L11.627,43.197C11.627,37.06,14.856,33.992,20.67,33.992L127.652,33.992C132.711,33.992,135.811,36.389,136.472,41.168L148.276,41.168C147.814,28.622,141.052,22.365,127.732,22.365L106.82,22.365L106.82,18.651C106.82,5.813,100.2,0,88.008,0ZM60.071,10.496L88.169,10.496C92.933,10.496,95.597,13.08,95.597,17.763L95.597,22.365L52.643,22.365L52.643,17.763C52.643,13.08,55.388,10.496,60.071,10.496ZM68.307,43.762C65.077,43.762,62.897,45.861,62.897,49.171L62.897,61.848L50.14,61.848C46.83,61.848,44.731,64.108,44.731,67.257L44.731,78.803C44.731,82.033,46.911,84.213,50.14,84.213L62.897,84.213L62.897,96.97C62.897,100.281,65.077,102.461,68.307,102.461L75.096,102.461L75.096,43.762ZM68.307,43.762"/>
  <path stroke="none" stroke-dasharray="none" stroke-miterlimit="4" version="1.1" stroke-linejoin="miter" fill-rule="nonzero" stroke-linecap="butt" fill-opacity="1" stroke-opacity="1" stroke-width="0.32982251048088074" xmlns:svg="http://www.w3.org/2000/svg" fill="#000000" d="M112.794,123.872C113.38,123.872,114.445,123.659,115.617,123.02C139.531,109.918,147.999,103.953,147.999,88.188L147.999,56.125C147.999,51.758,145.922,50.426,142.62,48.988C138.306,47.124,120.677,40.893,116.363,39.401C115.244,39.029,114.019,38.762,112.794,38.762C111.569,38.762,110.291,39.135,109.226,39.401C104.912,40.467,87.282,47.177,82.968,48.988C79.666,50.373,77.589,51.758,77.589,56.125L77.589,88.188C77.589,103.953,86.057,109.865,109.971,123.02C111.143,123.659,112.208,123.872,112.794,123.872ZM112.794,115.138C112.155,115.138,111.516,114.978,110.078,114.179C90.851,102.675,85.152,99.266,85.152,86.324L85.152,57.563C85.152,56.604,85.365,56.178,86.217,55.806C93.035,53.142,104.539,49.468,111.356,46.751C111.889,46.538,112.368,46.485,112.794,46.485C113.22,46.485,113.699,46.538,114.232,46.751C120.996,49.468,132.341,53.462,139.318,55.806C140.223,56.125,140.383,56.604,140.383,57.563L140.383,86.324C140.383,99.266,134.684,102.675,115.457,114.179C114.072,114.978,113.433,115.138,112.794,115.138ZM112.794,115.138"/>
</g>
  <g id="Bold-L" transform="matrix(1.0,0.0,0.0,1.0,2267.121885528316,1452.1922475992174)">  <path fill-rule="nonzero" version="1.1" fill="#000000" stroke-width="0.125px" stroke-linecap="butt" stroke-dasharray="none" stroke-miterlimit="4" xmlns:svg="http://www.w3.org/2000/svg" stroke-opacity="1" fill-opacity="1" stroke-linejoin="miter" stroke="none" d="M60.233,0C48.848,0,41.501,5.813,41.501,18.651L41.501,22.365L20.508,22.365C6.863,22.365,-0,29.067,-0,42.551L-0,103.591C-0,117.155,6.863,123.857,20.508,123.857L75.096,123.857L75.096,112.23L20.67,112.23C14.856,112.23,11.627,109.081,11.627,103.026L11.627,43.197C11.627,37.06,14.856,33.992,20.67,33.992L127.652,33.992C132.711,33.992,135.811,36.389,136.472,41.168L148.276,41.168C147.814,28.622,141.052,22.365,127.732,22.365L106.82,22.365L106.82,18.651C106.82,5.813,100.2,0,88.008,0ZM60.071,10.496L88.169,10.496C92.933,10.496,95.597,13.08,95.597,17.763L95.597,22.365L52.643,22.365L52.643,17.763C52.643,13.08,55.388,10.496,60.071,10.496ZM68.307,43.762C65.077,43.762,62.897,45.861,62.897,49.171L62.897,61.848L50.14,61.848C46.83,61.848,44.731,64.108,44.731,67.257L44.731,78.803C44.731,82.033,46.911,84.213,50.14,84.213L62.897,84.213L62.897,96.97C62.897,100.281,65.077,102.461,68.307,102.461L75.096,102.461L75.096,43.762ZM68.307,43.762"/>
  <path fill="#000000" fill-opacity="1" stroke-opacity="1" stroke-linejoin="miter" stroke-width="0.32982251048088074" stroke-miterlimit="4" stroke="none" version="1.1" stroke-dasharray="none" xmlns:svg="http://www.w3.org/2000/svg" stroke-linecap="butt" fill-rule="nonzero" d="M112.794,123.872C113.38,123.872,114.445,123.659,115.617,123.02C139.531,109.918,147.999,103.953,147.999,88.188L147.999,56.125C147.999,51.758,145.922,50.426,142.62,48.988C138.306,47.124,120.677,40.893,116.363,39.401C115.244,39.029,114.019,38.762,112.794,38.762C111.569,38.762,110.291,39.135,109.226,39.401C104.912,40.467,87.282,47.177,82.968,48.988C79.666,50.373,77.589,51.758,77.589,56.125L77.589,88.188C77.589,103.953,86.057,109.865,109.971,123.02C111.143,123.659,112.208,123.872,112.794,123.872ZM112.794,115.138C112.155,115.138,111.516,114.978,110.078,114.179C90.851,102.675,85.152,99.266,85.152,86.324L85.152,57.563C85.152,56.604,85.365,56.178,86.217,55.806C93.035,53.142,104.539,49.468,111.356,46.751C111.889,46.538,112.368,46.485,112.794,46.485C113.22,46.485,113.699,46.538,114.232,46.751C120.996,49.468,132.341,53.462,139.318,55.806C140.223,56.125,140.383,56.604,140.383,57.563L140.383,86.324C140.383,99.266,134.684,102.675,115.457,114.179C114.072,114.978,113.433,115.138,112.794,115.138ZM112.794,115.138"/>
</g>
  <g id="Semibold-L" transform="matrix(1.0,0.0,0.0,1.0,1970.4118855283157,1452.1922475992174)">  <path stroke-dasharray="none" stroke-linecap="butt" fill-rule="nonzero" fill="#000000" stroke="none" stroke-width="0.125px" stroke-miterlimit="4" xmlns:svg="http://www.w3.org/2000/svg" stroke-linejoin="miter" version="1.1" fill-opacity="1" stroke-opacity="1" d="M60.233,0C48.848,0,41.501,5.813,41.501,18.651L41.501,22.365L20.508,22.365C6.863,22.365,-0,29.067,-0,42.551L-0,103.591C-0,117.155,6.863,123.857,20.508,123.857L75.096,123.857L75.096,112.23L20.67,112.23C14.856,112.23,11.627,109.081,11.627,103.026L11.627,43.197C11.627,37.06,14.856,33.992,20.67,33.992L127.652,33.992C132.711,33.992,135.811,36.389,136.472,41.168L148.276,41.168C147.814,28.622,141.052,22.365,127.732,22.365L106.82,22.365L106.82,18.651C106.82,5.813,100.2,0,88.008,0ZM60.071,10.496L88.169,10.496C92.933,10.496,95.597,13.08,95.597,17.763L95.597,22.365L52.643,22.365L52.643,17.763C52.643,13.08,55.388,10.496,60.071,10.496ZM68.307,43.762C65.077,43.762,62.897,45.861,62.897,49.171L62.897,61.848L50.14,61.848C46.83,61.848,44.731,64.108,44.731,67.257L44.731,78.803C44.731,82.033,46.911,84.213,50.14,84.213L62.897,84.213L62.897,96.97C62.897,100.281,65.077,102.461,68.307,102.461L75.096,102.461L75.096,43.762ZM68.307,43.762"/>
  <path fill-opacity="1" stroke-miterlimit="4" xmlns:svg="http://www.w3.org/2000/svg" fill-rule="nonzero" fill="#000000" version="1.1" stroke-linecap="butt" stroke-linejoin="miter" stroke-width="0.32982251048088074" stroke="none" stroke-dasharray="none" stroke-opacity="1" d="M112.794,123.872C113.38,123.872,114.445,123.659,115.617,123.02C139.531,109.918,147.999,103.953,147.999,88.188L147.999,56.125C147.999,51.758,145.922,50.426,142.62,48.988C138.306,47.124,120.677,40.893,116.363,39.401C115.244,39.029,114.019,38.762,112.794,38.762C111.569,38.762,110.291,39.135,109.226,39.401C104.912,40.467,87.282,47.177,82.968,48.988C79.666,50.373,77.589,51.758,77.589,56.125L77.589,88.188C77.589,103.953,86.057,109.865,109.971,123.02C111.143,123.659,112.208,123.872,112.794,123.872ZM112.794,115.138C112.155,115.138,111.516,114.978,110.078,114.179C90.851,102.675,85.152,99.266,85.152,86.324L85.152,57.563C85.152,56.604,85.365,56.178,86.217,55.806C93.035,53.142,104.539,49.468,111.356,46.751C111.889,46.538,112.368,46.485,112.794,46.485C113.22,46.485,113.699,46.538,114.232,46.751C120.996,49.468,132.341,53.462,139.318,55.806C140.223,56.125,140.383,56.604,140.383,57.563L140.383,86.324C140.383,99.266,134.684,102.675,115.457,114.179C114.072,114.978,113.433,115.138,112.794,115.138ZM112.794,115.138"/>
</g>
  <g id="Medium-L" transform="matrix(1.0,0.0,0.0,1.0,1673.7018855283156,1452.1922475992174)">  <path xmlns:svg="http://www.w3.org/2000/svg" stroke="none" fill-opacity="1" stroke-miterlimit="4" fill-rule="nonzero" stroke-opacity="1" stroke-linecap="butt" stroke-dasharray="none" stroke-width="0.125px" fill="#000000" stroke-linejoin="miter" version="1.1" d="M60.233,0C48.848,0,41.501,5.813,41.501,18.651L41.501,22.365L20.508,22.365C6.863,22.365,-0,29.067,-0,42.551L-0,103.591C-0,117.155,6.863,123.857,20.508,123.857L75.096,123.857L75.096,112.23L20.67,112.23C14.856,112.23,11.627,109.081,11.627,103.026L11.627,43.197C11.627,37.06,14.856,33.992,20.67,33.992L127.652,33.992C132.711,33.992,135.811,36.389,136.472,41.168L148.276,41.168C147.814,28.622,141.052,22.365,127.732,22.365L106.82,22.365L106.82,18.651C106.82,5.813,100.2,0,88.008,0ZM60.071,10.496L88.169,10.496C92.933,10.496,95.597,13.08,95.597,17.763L95.597,22.365L52.643,22.365L52.643,17.763C52.643,13.08,55.388,10.496,60.071,10.496ZM68.307,43.762C65.077,43.762,62.897,45.861,62.897,49.171L62.897,61.848L50.14,61.848C46.83,61.848,44.731,64.108,44.731,67.257L44.731,78.803C44.731,82.033,46.911,84.213,50.14,84.213L62.897,84.213L62.897,96.97C62.897,100.281,65.077,102.461,68.307,102.461L75.096,102.461L75.096,43.762ZM68.307,43.762"/>
  <path xmlns:svg="http://www.w3.org/2000/svg" fill-opacity="1" stroke="none" version="1.1" stroke-miterlimit="4" fill-rule="nonzero" stroke-opacity="1" fill="#000000" stroke-linecap="butt" stroke-dasharray="none" stroke-width="0.32982251048088074" stroke-linejoin="miter" d="M112.794,123.872C113.38,123.872,114.445,123.659,115.617,123.02C139.531,109.918,147.999,103.953,147.999,88.188L147.999,56.125C147.999,51.758,145.922,50.426,142.62,48.988C138.306,47.124,120.677,40.893,116.363,39.401C115.244,39.029,114.019,38.762,112.794,38.762C111.569,38.762,110.291,39.135,109.226,39.401C104.912,40.467,87.282,47.177,82.968,48.988C79.666,50.373,77.589,51.758,77.589,56.125L77.589,88.188C77.589,103.953,86.057,109.865,109.971,123.02C111.143,123.659,112.208,123.872,112.794,123.872ZM112.794,115.138C112.155,115.138,111.516,114.978,110.078,114.179C90.851,102.675,85.152,99.266,85.152,86.324L85.152,57.563C85.152,56.604,85.365,56.178,86.217,55.806C93.035,53.142,104.539,49.468,111.356,46.751C111.889,46.538,112.368,46.485,112.794,46.485C113.22,46.485,113.699,46.538,114.232,46.751C120.996,49.468,132.341,53.462,139.318,55.806C140.223,56.125,140.383,56.604,140.383,57.563L140.383,86.324C140.383,99.266,134.684,102.675,115.457,114.179C114.072,114.978,113.433,115.138,112.794,115.138ZM112.794,115.138"/>
</g>
  <g id="Regular-L" transform="matrix(1.0,0.0,0.0,1.0,1376.9918855283156,1452.1922475992174)">  <path stroke-linecap="butt" fill="#000000" stroke-miterlimit="4" xmlns:svg="http://www.w3.org/2000/svg" fill-opacity="1" version="1.1" stroke-opacity="1" stroke-width="0.125px" stroke-linejoin="miter" stroke="none" fill-rule="nonzero" stroke-dasharray="none" d="M60.233,0C48.848,0,41.501,5.813,41.501,18.651L41.501,22.365L20.508,22.365C6.863,22.365,-0,29.067,-0,42.551L-0,103.591C-0,117.155,6.863,123.857,20.508,123.857L75.096,123.857L75.096,112.23L20.67,112.23C14.856,112.23,11.627,109.081,11.627,103.026L11.627,43.197C11.627,37.06,14.856,33.992,20.67,33.992L127.652,33.992C132.711,33.992,135.811,36.389,136.472,41.168L148.276,41.168C147.814,28.622,141.052,22.365,127.732,22.365L106.82,22.365L106.82,18.651C106.82,5.813,100.2,0,88.008,0ZM60.071,10.496L88.169,10.496C92.933,10.496,95.597,13.08,95.597,17.763L95.597,22.365L52.643,22.365L52.643,17.763C52.643,13.08,55.388,10.496,60.071,10.496ZM68.307,43.762C65.077,43.762,62.897,45.861,62.897,49.171L62.897,61.848L50.14,61.848C46.83,61.848,44.731,64.108,44.731,67.257L44.731,78.803C44.731,82.033,46.911,84.213,50.14,84.213L62.897,84.213L62.897,96.97C62.897,100.281,65.077,102.461,68.307,102.461L75.096,102.461L75.096,43.762ZM68.307,43.762"/>
  <path stroke-dasharray="none" xmlns:svg="http://www.w3.org/2000/svg" stroke="none" stroke-width="0.32982251048088074" version="1.1" fill-rule="nonzero" stroke-linejoin="miter" fill-opacity="1" stroke-linecap="butt" stroke-miterlimit="4" stroke-opacity="1" fill="#000000" d="M112.794,123.872C113.38,123.872,114.445,123.659,115.617,123.02C139.531,109.918,147.999,103.953,147.999,88.188L147.999,56.125C147.999,51.758,145.922,50.426,142.62,48.988C138.306,47.124,120.677,40.893,116.363,39.401C115.244,39.029,114.019,38.762,112.794,38.762C111.569,38.762,110.291,39.135,109.226,39.401C104.912,40.467,87.282,47.177,82.968,48.988C79.666,50.373,77.589,51.758,77.589,56.125L77.589,88.188C77.589,103.953,86.057,109.865,109.971,123.02C111.143,123.659,112.208,123.872,112.794,123.872ZM112.794,115.138C112.155,115.138,111.516,114.978,110.078,114.179C90.851,102.675,85.152,99.266,85.152,86.324L85.152,57.563C85.152,56.604,85.365,56.178,86.217,55.806C93.035,53.142,104.539,49.468,111.356,46.751C111.889,46.538,112.368,46.485,112.794,46.485C113.22,46.485,113.699,46.538,114.232,46.751C120.996,49.468,132.341,53.462,139.318,55.806C140.223,56.125,140.383,56.604,140.383,57.563L140.383,86.324C140.383,99.266,134.684,102.675,115.457,114.179C114.072,114.978,113.433,115.138,112.794,115.138ZM112.794,115.138"/>
</g>
  <g id="Light-L" transform="matrix(1.0,0.0,0.0,1.0,1080.2818855283158,1452.1922475992174)">  <path stroke-linecap="butt" stroke-linejoin="miter" version="1.1" fill-opacity="1" stroke-miterlimit="4" stroke-width="0.125px" stroke-opacity="1" stroke-dasharray="none" xmlns:svg="http://www.w3.org/2000/svg" fill="#000000" stroke="none" fill-rule="nonzero" d="M60.233,0C48.848,0,41.501,5.813,41.501,18.651L41.501,22.365L20.508,22.365C6.863,22.365,-0,29.067,-0,42.551L-0,103.591C-0,117.155,6.863,123.857,20.508,123.857L75.096,123.857L75.096,112.23L20.67,112.23C14.856,112.23,11.627,109.081,11.627,103.026L11.627,43.197C11.627,37.06,14.856,33.992,20.67,33.992L127.652,33.992C132.711,33.992,135.811,36.389,136.472,41.168L148.276,41.168C147.814,28.622,141.052,22.365,127.732,22.365L106.82,22.365L106.82,18.651C106.82,5.813,100.2,0,88.008,0ZM60.071,10.496L88.169,10.496C92.933,10.496,95.597,13.08,95.597,17.763L95.597,22.365L52.643,22.365L52.643,17.763C52.643,13.08,55.388,10.496,60.071,10.496ZM68.307,43.762C65.077,43.762,62.897,45.861,62.897,49.171L62.897,61.848L50.14,61.848C46.83,61.848,44.731,64.108,44.731,67.257L44.731,78.803C44.731,82.033,46.911,84.213,50.14,84.213L62.897,84.213L62.897,96.97C62.897,100.281,65.077,102.461,68.307,102.461L75.096,102.461L75.096,43.762ZM68.307,43.762"/>
  <path stroke="none" stroke-linejoin="miter" fill-opacity="1" fill="#000000" stroke-opacity="1" stroke-dasharray="none" stroke-linecap="butt" fill-rule="nonzero" stroke-miterlimit="4" xmlns:svg="http://www.w3.org/2000/svg" stroke-width="0.32982251048088074" version="1.1" d="M112.794,123.872C113.38,123.872,114.445,123.659,115.617,123.02C139.531,109.918,147.999,103.953,147.999,88.188L147.999,56.125C147.999,51.758,145.922,50.426,142.62,48.988C138.306,47.124,120.677,40.893,116.363,39.401C115.244,39.029,114.019,38.762,112.794,38.762C111.569,38.762,110.291,39.135,109.226,39.401C104.912,40.467,87.282,47.177,82.968,48.988C79.666,50.373,77.589,51.758,77.589,56.125L77.589,88.188C77.589,103.953,86.057,109.865,109.971,123.02C111.143,123.659,112.208,123.872,112.794,123.872ZM112.794,115.138C112.155,115.138,111.516,114.978,110.078,114.179C90.851,102.675,85.152,99.266,85.152,86.324L85.152,57.563C85.152,56.604,85.365,56.178,86.217,55.806C93.035,53.142,104.539,49.468,111.356,46.751C111.889,46.538,112.368,46.485,112.794,46.485C113.22,46.485,113.699,46.538,114.232,46.751C120.996,49.468,132.341,53.462,139.318,55.806C140.223,56.125,140.383,56.604,140.383,57.563L140.383,86.324C140.383,99.266,134.684,102.675,115.457,114.179C114.072,114.978,113.433,115.138,112.794,115.138ZM112.794,115.138"/>
</g>
  <g id="Thin-L" transform="matrix(1.0,0.0,0.0,1.0,783.5718855283159,1452.1922475992174)">  <path fill="#000000" fill-rule="nonzero" fill-opacity="1" stroke-linejoin="miter" stroke="none" stroke-opacity="1" version="1.1" stroke-width="0.125px" xmlns:svg="http://www.w3.org/2000/svg" stroke-dasharray="none" stroke-linecap="butt" stroke-miterlimit="4" d="M60.233,0C48.848,0,41.501,5.813,41.501,18.651L41.501,22.365L20.508,22.365C6.863,22.365,-0,29.067,-0,42.551L-0,103.591C-0,117.155,6.863,123.857,20.508,123.857L75.096,123.857L75.096,112.23L20.67,112.23C14.856,112.23,11.627,109.081,11.627,103.026L11.627,43.197C11.627,37.06,14.856,33.992,20.67,33.992L127.652,33.992C132.711,33.992,135.811,36.389,136.472,41.168L148.276,41.168C147.814,28.622,141.052,22.365,127.732,22.365L106.82,22.365L106.82,18.651C106.82,5.813,100.2,0,88.008,0ZM60.071,10.496L88.169,10.496C92.933,10.496,95.597,13.08,95.597,17.763L95.597,22.365L52.643,22.365L52.643,17.763C52.643,13.08,55.388,10.496,60.071,10.496ZM68.307,43.762C65.077,43.762,62.897,45.861,62.897,49.171L62.897,61.848L50.14,61.848C46.83,61.848,44.731,64.108,44.731,67.257L44.731,78.803C44.731,82.033,46.911,84.213,50.14,84.213L62.897,84.213L62.897,96.97C62.897,100.281,65.077,102.461,68.307,102.461L75.096,102.461L75.096,43.762ZM68.307,43.762"/>
  <path xmlns:svg="http://www.w3.org/2000/svg" stroke-dasharray="none" stroke-opacity="1" version="1.1" stroke="none" stroke-linejoin="miter" fill="#000000" stroke-width="0.32982251048088074" fill-rule="nonzero" stroke-miterlimit="4" stroke-linecap="butt" fill-opacity="1" d="M112.794,123.872C113.38,123.872,114.445,123.659,115.617,123.02C139.531,109.918,147.999,103.953,147.999,88.188L147.999,56.125C147.999,51.758,145.922,50.426,142.62,48.988C138.306,47.124,120.677,40.893,116.363,39.401C115.244,39.029,114.019,38.762,112.794,38.762C111.569,38.762,110.291,39.135,109.226,39.401C104.912,40.467,87.282,47.177,82.968,48.988C79.666,50.373,77.589,51.758,77.589,56.125L77.589,88.188C77.589,103.953,86.057,109.865,109.971,123.02C111.143,123.659,112.208,123.872,112.794,123.872ZM112.794,115.138C112.155,115.138,111.516,114.978,110.078,114.179C90.851,102.675,85.152,99.266,85.152,86.324L85.152,57.563C85.152,56.604,85.365,56.178,86.217,55.806C93.035,53.142,104.539,49.468,111.356,46.751C111.889,46.538,112.368,46.485,112.794,46.485C113.22,46.485,113.699,46.538,114.232,46.751C120.996,49.468,132.341,53.462,139.318,55.806C140.223,56.125,140.383,56.604,140.383,57.563L140.383,86.324C140.383,99.266,134.684,102.675,115.457,114.179C114.072,114.978,113.433,115.138,112.794,115.138ZM112.794,115.138"/>
</g>
  <g id="Ultralight-L" transform="matrix(1.0,0.0,0.0,1.0,486.8618855283158,1452.1922475992174)">  <path stroke-linecap="butt" stroke-width="0.125px" fill-opacity="1" version="1.1" stroke-opacity="1" stroke="none" stroke-dasharray="none" xmlns:svg="http://www.w3.org/2000/svg" fill="#000000" stroke-linejoin="miter" stroke-miterlimit="4" fill-rule="nonzero" d="M60.233,0C48.848,0,41.501,5.813,41.501,18.651L41.501,22.365L20.508,22.365C6.863,22.365,-0,29.067,-0,42.551L-0,103.591C-0,117.155,6.863,123.857,20.508,123.857L75.096,123.857L75.096,112.23L20.67,112.23C14.856,112.23,11.627,109.081,11.627,103.026L11.627,43.197C11.627,37.06,14.856,33.992,20.67,33.992L127.652,33.992C132.711,33.992,135.811,36.389,136.472,41.168L148.276,41.168C147.814,28.622,141.052,22.365,127.732,22.365L106.82,22.365L106.82,18.651C106.82,5.813,100.2,0,88.008,0ZM60.071,10.496L88.169,10.496C92.933,10.496,95.597,13.08,95.597,17.763L95.597,22.365L52.643,22.365L52.643,17.763C52.643,13.08,55.388,10.496,60.071,10.496ZM68.307,43.762C65.077,43.762,62.897,45.861,62.897,49.171L62.897,61.848L50.14,61.848C46.83,61.848,44.731,64.108,44.731,67.257L44.731,78.803C44.731,82.033,46.911,84.213,50.14,84.213L62.897,84.213L62.897,96.97C62.897,100.281,65.077,102.461,68.307,102.461L75.096,102.461L75.096,43.762ZM68.307,43.762"/>
  <path fill-rule="nonzero" stroke-dasharray="none" version="1.1" xmlns:svg="http://www.w3.org/2000/svg" fill="#000000" stroke-linecap="butt" fill-opacity="1" stroke-width="0.32982251048088074" stroke="none" stroke-linejoin="miter" stroke-opacity="1" stroke-miterlimit="4" d="M112.794,123.872C113.38,123.872,114.445,123.659,115.617,123.02C139.531,109.918,147.999,103.953,147.999,88.188L147.999,56.125C147.999,51.758,145.922,50.426,142.62,48.988C138.306,47.124,120.677,40.893,116.363,39.401C115.244,39.029,114.019,38.762,112.794,38.762C111.569,38.762,110.291,39.135,109.226,39.401C104.912,40.467,87.282,47.177,82.968,48.988C79.666,50.373,77.589,51.758,77.589,56.125L77.589,88.188C77.589,103.953,86.057,109.865,109.971,123.02C111.143,123.659,112.208,123.872,112.794,123.872ZM112.794,115.138C112.155,115.138,111.516,114.978,110.078,114.179C90.851,102.675,85.152,99.266,85.152,86.324L85.152,57.563C85.152,56.604,85.365,56.178,86.217,55.806C93.035,53.142,104.539,49.468,111.356,46.751C111.889,46.538,112.368,46.485,112.794,46.485C113.22,46.485,113.699,46.538,114.232,46.751C120.996,49.468,132.341,53.462,139.318,55.806C140.223,56.125,140.383,56.604,140.383,57.563L140.383,86.324C140.383,99.266,134.684,102.675,115.457,114.179C114.072,114.978,113.433,115.138,112.794,115.138ZM112.794,115.138"/>
</g>
  <g id="Black-M" transform="matrix(1.0,0.0,0.0,1.0,2877.208593432803,1037.6089560180465)">  <path xmlns:svg="http://www.w3.org/2000/svg" stroke-miterlimit="4" fill-opacity="1" stroke-width="0.125px" stroke-linejoin="miter" fill="#000000" fill-rule="nonzero" version="1.1" stroke="none" stroke-opacity="1" stroke-linecap="butt" stroke-dasharray="none" d="M46.692,0C37.867,0,32.171,4.506,32.171,14.458L32.171,17.337L15.898,17.337C5.32,17.337,-0,22.532,-0,32.985L-0,80.303C-0,90.818,5.32,96.013,15.898,96.013L58.214,96.013L58.214,87L16.023,87C11.517,87,9.013,84.559,9.013,79.865L9.013,33.486C9.013,28.729,11.517,26.35,16.023,26.35L98.955,26.35C102.876,26.35,105.28,28.209,105.792,31.913L114.943,31.913C114.585,22.188,109.343,17.337,99.017,17.337L82.807,17.337L82.807,14.458C82.807,4.506,77.674,0,68.223,0ZM46.567,8.137L68.348,8.137C72.041,8.137,74.107,10.14,74.107,13.77L74.107,17.337L40.809,17.337L40.809,13.77C40.809,10.14,42.937,8.137,46.567,8.137ZM52.951,33.924C50.448,33.924,48.758,35.551,48.758,38.117L48.758,47.944L38.868,47.944C36.302,47.944,34.675,49.696,34.675,52.137L34.675,61.088C34.675,63.591,36.365,65.281,38.868,65.281L48.758,65.281L48.758,75.171C48.758,77.737,50.448,79.427,52.951,79.427L58.214,79.427L58.214,33.924ZM52.951,33.924"/>
  <path stroke-linejoin="miter" stroke-dasharray="none" stroke-linecap="butt" stroke="none" stroke-miterlimit="4" version="1.1" stroke-opacity="1" xmlns:svg="http://www.w3.org/2000/svg" fill-rule="nonzero" fill="#000000" fill-opacity="1" stroke-width="0.32982251048088074" d="M87.437,96.025C87.891,96.025,88.717,95.86,89.625,95.365C108.163,85.208,114.728,80.584,114.728,68.363L114.728,43.508C114.728,40.122,113.118,39.09,110.558,37.975C107.214,36.53,93.548,31.7,90.204,30.544C89.337,30.255,88.387,30.048,87.437,30.048C86.488,30.048,85.497,30.337,84.671,30.544C81.327,31.369,67.661,36.572,64.316,37.975C61.757,39.049,60.146,40.122,60.146,43.508L60.146,68.363C60.146,80.584,66.711,85.167,85.249,95.365C86.157,95.86,86.983,96.025,87.437,96.025ZM87.437,89.254C86.942,89.254,86.446,89.13,85.332,88.511C70.427,79.593,66.009,76.95,66.009,66.918L66.009,44.623C66.009,43.879,66.174,43.549,66.835,43.26C72.12,41.196,81.038,38.347,86.323,36.241C86.735,36.076,87.107,36.035,87.437,36.035C87.768,36.035,88.139,36.076,88.552,36.241C93.795,38.347,102.59,41.443,107.998,43.26C108.7,43.508,108.824,43.879,108.824,44.623L108.824,66.918C108.824,76.95,104.406,79.593,89.502,88.511C88.428,89.13,87.933,89.254,87.437,89.254ZM87.437,89.254"/>
</g>
  <g id="Heavy-M" transform="matrix(1.0,0.0,0.0,1.0,2580.498593432803,1037.6089560180465)">  <path stroke-linejoin="miter" stroke-linecap="butt" stroke-dasharray="none" stroke-width="0.125px" fill-rule="nonzero" stroke-miterlimit="4" stroke-opacity="1" stroke="none" xmlns:svg="http://www.w3.org/2000/svg" fill="#000000" fill-opacity="1" version="1.1" d="M46.692,0C37.867,0,32.171,4.506,32.171,14.458L32.171,17.337L15.898,17.337C5.32,17.337,-0,22.532,-0,32.985L-0,80.303C-0,90.818,5.32,96.013,15.898,96.013L58.214,96.013L58.214,87L16.023,87C11.517,87,9.013,84.559,9.013,79.865L9.013,33.486C9.013,28.729,11.517,26.35,16.023,26.35L98.955,26.35C102.876,26.35,105.28,28.209,105.792,31.913L114.943,31.913C114.585,22.188,109.343,17.337,99.017,17.337L82.807,17.337L82.807,14.458C82.807,4.506,77.674,0,68.223,0ZM46.567,8.137L68.348,8.137C72.041,8.137,74.107,10.14,74.107,13.77L74.107,17.337L40.809,17.337L40.809,13.77C40.809,10.14,42.937,8.137,46.567,8.137ZM52.951,33.924C50.448,33.924,48.758,35.551,48.758,38.117L48.758,47.944L38.868,47.944C36.302,47.944,34.675,49.696,34.675,52.137L34.675,61.088C34.675,63.591,36.365,65.281,38.868,65.281L48.758,65.281L48.758,75.171C48.758,77.737,50.448,79.427,52.951,79.427L58.214,79.427L58.214,33.924ZM52.951,33.924"/>
  <path stroke="none" stroke-dasharray="none" stroke-miterlimit="4" version="1.1" stroke-linejoin="miter" fill-rule="nonzero" stroke-linecap="butt" fill-opacity="1" stroke-opacity="1" stroke-width="0.32982251048088074" xmlns:svg="http://www.w3.org/2000/svg" fill="#000000" d="M87.437,96.025C87.891,96.025,88.717,95.86,89.625,95.365C108.163,85.208,114.728,80.584,114.728,68.363L114.728,43.508C114.728,40.122,113.118,39.09,110.558,37.975C107.214,36.53,93.548,31.7,90.204,30.544C89.337,30.255,88.387,30.048,87.437,30.048C86.488,30.048,85.497,30.337,84.671,30.544C81.327,31.369,67.661,36.572,64.316,37.975C61.757,39.049,60.146,40.122,60.146,43.508L60.146,68.363C60.146,80.584,66.711,85.167,85.249,95.365C86.157,95.86,86.983,96.025,87.437,96.025ZM87.437,89.254C86.942,89.254,86.446,89.13,85.332,88.511C70.427,79.593,66.009,76.95,66.009,66.918L66.009,44.623C66.009,43.879,66.174,43.549,66.835,43.26C72.12,41.196,81.038,38.347,86.323,36.241C86.735,36.076,87.107,36.035,87.437,36.035C87.768,36.035,88.139,36.076,88.552,36.241C93.795,38.347,102.59,41.443,107.998,43.26C108.7,43.508,108.824,43.879,108.824,44.623L108.824,66.918C108.824,76.95,104.406,79.593,89.502,88.511C88.428,89.13,87.933,89.254,87.437,89.254ZM87.437,89.254"/>
</g>
  <g id="Bold-M" transform="matrix(1.0,0.0,0.0,1.0,2283.788593432803,1037.6089560180465)">  <path fill-rule="nonzero" version="1.1" fill="#000000" stroke-width="0.125px" stroke-linecap="butt" stroke-dasharray="none" stroke-miterlimit="4" xmlns:svg="http://www.w3.org/2000/svg" stroke-opacity="1" fill-opacity="1" stroke-linejoin="miter" stroke="none" d="M46.692,0C37.867,0,32.171,4.506,32.171,14.458L32.171,17.337L15.898,17.337C5.32,17.337,-0,22.532,-0,32.985L-0,80.303C-0,90.818,5.32,96.013,15.898,96.013L58.214,96.013L58.214,87L16.023,87C11.517,87,9.013,84.559,9.013,79.865L9.013,33.486C9.013,28.729,11.517,26.35,16.023,26.35L98.955,26.35C102.876,26.35,105.28,28.209,105.792,31.913L114.943,31.913C114.585,22.188,109.343,17.337,99.017,17.337L82.807,17.337L82.807,14.458C82.807,4.506,77.674,0,68.223,0ZM46.567,8.137L68.348,8.137C72.041,8.137,74.107,10.14,74.107,13.77L74.107,17.337L40.809,17.337L40.809,13.77C40.809,10.14,42.937,8.137,46.567,8.137ZM52.951,33.924C50.448,33.924,48.758,35.551,48.758,38.117L48.758,47.944L38.868,47.944C36.302,47.944,34.675,49.696,34.675,52.137L34.675,61.088C34.675,63.591,36.365,65.281,38.868,65.281L48.758,65.281L48.758,75.171C48.758,77.737,50.448,79.427,52.951,79.427L58.214,79.427L58.214,33.924ZM52.951,33.924"/>
  <path fill="#000000" fill-opacity="1" stroke-opacity="1" stroke-linejoin="miter" stroke-width="0.32982251048088074" stroke-miterlimit="4" stroke="none" version="1.1" stroke-dasharray="none" xmlns:svg="http://www.w3.org/2000/svg" stroke-linecap="butt" fill-rule="nonzero" d="M87.437,96.025C87.891,96.025,88.717,95.86,89.625,95.365C108.163,85.208,114.728,80.584,114.728,68.363L114.728,43.508C114.728,40.122,113.118,39.09,110.558,37.975C107.214,36.53,93.548,31.7,90.204,30.544C89.337,30.255,88.387,30.048,87.437,30.048C86.488,30.048,85.497,30.337,84.671,30.544C81.327,31.369,67.661,36.572,64.316,37.975C61.757,39.049,60.146,40.122,60.146,43.508L60.146,68.363C60.146,80.584,66.711,85.167,85.249,95.365C86.157,95.86,86.983,96.025,87.437,96.025ZM87.437,89.254C86.942,89.254,86.446,89.13,85.332,88.511C70.427,79.593,66.009,76.95,66.009,66.918L66.009,44.623C66.009,43.879,66.174,43.549,66.835,43.26C72.12,41.196,81.038,38.347,86.323,36.241C86.735,36.076,87.107,36.035,87.437,36.035C87.768,36.035,88.139,36.076,88.552,36.241C93.795,38.347,102.59,41.443,107.998,43.26C108.7,43.508,108.824,43.879,108.824,44.623L108.824,66.918C108.824,76.95,104.406,79.593,89.502,88.511C88.428,89.13,87.933,89.254,87.437,89.254ZM87.437,89.254"/>
</g>
  <g id="Semibold-M" transform="matrix(1.0,0.0,0.0,1.0,1987.0785934328028,1037.6089560180465)">  <path stroke-dasharray="none" stroke-linecap="butt" fill-rule="nonzero" fill="#000000" stroke="none" stroke-width="0.125px" stroke-miterlimit="4" xmlns:svg="http://www.w3.org/2000/svg" stroke-linejoin="miter" version="1.1" fill-opacity="1" stroke-opacity="1" d="M46.692,0C37.867,0,32.171,4.506,32.171,14.458L32.171,17.337L15.898,17.337C5.32,17.337,-0,22.532,-0,32.985L-0,80.303C-0,90.818,5.32,96.013,15.898,96.013L58.214,96.013L58.214,87L16.023,87C11.517,87,9.013,84.559,9.013,79.865L9.013,33.486C9.013,28.729,11.517,26.35,16.023,26.35L98.955,26.35C102.876,26.35,105.28,28.209,105.792,31.913L114.943,31.913C114.585,22.188,109.343,17.337,99.017,17.337L82.807,17.337L82.807,14.458C82.807,4.506,77.674,0,68.223,0ZM46.567,8.137L68.348,8.137C72.041,8.137,74.107,10.14,74.107,13.77L74.107,17.337L40.809,17.337L40.809,13.77C40.809,10.14,42.937,8.137,46.567,8.137ZM52.951,33.924C50.448,33.924,48.758,35.551,48.758,38.117L48.758,47.944L38.868,47.944C36.302,47.944,34.675,49.696,34.675,52.137L34.675,61.088C34.675,63.591,36.365,65.281,38.868,65.281L48.758,65.281L48.758,75.171C48.758,77.737,50.448,79.427,52.951,79.427L58.214,79.427L58.214,33.924ZM52.951,33.924"/>
  <path fill-opacity="1" stroke-miterlimit="4" xmlns:svg="http://www.w3.org/2000/svg" fill-rule="nonzero" fill="#000000" version="1.1" stroke-linecap="butt" stroke-linejoin="miter" stroke-width="0.32982251048088074" stroke="none" stroke-dasharray="none" stroke-opacity="1" d="M87.437,96.025C87.891,96.025,88.717,95.86,89.625,95.365C108.163,85.208,114.728,80.584,114.728,68.363L114.728,43.508C114.728,40.122,113.118,39.09,110.558,37.975C107.214,36.53,93.548,31.7,90.204,30.544C89.337,30.255,88.387,30.048,87.437,30.048C86.488,30.048,85.497,30.337,84.671,30.544C81.327,31.369,67.661,36.572,64.316,37.975C61.757,39.049,60.146,40.122,60.146,43.508L60.146,68.363C60.146,80.584,66.711,85.167,85.249,95.365C86.157,95.86,86.983,96.025,87.437,96.025ZM87.437,89.254C86.942,89.254,86.446,89.13,85.332,88.511C70.427,79.593,66.009,76.95,66.009,66.918L66.009,44.623C66.009,43.879,66.174,43.549,66.835,43.26C72.12,41.196,81.038,38.347,86.323,36.241C86.735,36.076,87.107,36.035,87.437,36.035C87.768,36.035,88.139,36.076,88.552,36.241C93.795,38.347,102.59,41.443,107.998,43.26C108.7,43.508,108.824,43.879,108.824,44.623L108.824,66.918C108.824,76.95,104.406,79.593,89.502,88.511C88.428,89.13,87.933,89.254,87.437,89.254ZM87.437,89.254"/>
</g>
  <g id="Medium-M" transform="matrix(1.0,0.0,0.0,1.0,1690.3685934328028,1037.6089560180465)">  <path xmlns:svg="http://www.w3.org/2000/svg" stroke="none" fill-opacity="1" stroke-miterlimit="4" fill-rule="nonzero" stroke-opacity="1" stroke-linecap="butt" stroke-dasharray="none" stroke-width="0.125px" fill="#000000" stroke-linejoin="miter" version="1.1" d="M46.692,0C37.867,0,32.171,4.506,32.171,14.458L32.171,17.337L15.898,17.337C5.32,17.337,-0,22.532,-0,32.985L-0,80.303C-0,90.818,5.32,96.013,15.898,96.013L58.214,96.013L58.214,87L16.023,87C11.517,87,9.013,84.559,9.013,79.865L9.013,33.486C9.013,28.729,11.517,26.35,16.023,26.35L98.955,26.35C102.876,26.35,105.28,28.209,105.792,31.913L114.943,31.913C114.585,22.188,109.343,17.337,99.017,17.337L82.807,17.337L82.807,14.458C82.807,4.506,77.674,0,68.223,0ZM46.567,8.137L68.348,8.137C72.041,8.137,74.107,10.14,74.107,13.77L74.107,17.337L40.809,17.337L40.809,13.77C40.809,10.14,42.937,8.137,46.567,8.137ZM52.951,33.924C50.448,33.924,48.758,35.551,48.758,38.117L48.758,47.944L38.868,47.944C36.302,47.944,34.675,49.696,34.675,52.137L34.675,61.088C34.675,63.591,36.365,65.281,38.868,65.281L48.758,65.281L48.758,75.171C48.758,77.737,50.448,79.427,52.951,79.427L58.214,79.427L58.214,33.924ZM52.951,33.924"/>
  <path xmlns:svg="http://www.w3.org/2000/svg" fill-opacity="1" stroke="none" version="1.1" stroke-miterlimit="4" fill-rule="nonzero" stroke-opacity="1" fill="#000000" stroke-linecap="butt" stroke-dasharray="none" stroke-width="0.32982251048088074" stroke-linejoin="miter" d="M87.437,96.025C87.891,96.025,88.717,95.86,89.625,95.365C108.163,85.208,114.728,80.584,114.728,68.363L114.728,43.508C114.728,40.122,113.118,39.09,110.558,37.975C107.214,36.53,93.548,31.7,90.204,30.544C89.337,30.255,88.387,30.048,87.437,30.048C86.488,30.048,85.497,30.337,84.671,30.544C81.327,31.369,67.661,36.572,64.316,37.975C61.757,39.049,60.146,40.122,60.146,43.508L60.146,68.363C60.146,80.584,66.711,85.167,85.249,95.365C86.157,95.86,86.983,96.025,87.437,96.025ZM87.437,89.254C86.942,89.254,86.446,89.13,85.332,88.511C70.427,79.593,66.009,76.95,66.009,66.918L66.009,44.623C66.009,43.879,66.174,43.549,66.835,43.26C72.12,41.196,81.038,38.347,86.323,36.241C86.735,36.076,87.107,36.035,87.437,36.035C87.768,36.035,88.139,36.076,88.552,36.241C93.795,38.347,102.59,41.443,107.998,43.26C108.7,43.508,108.824,43.879,108.824,44.623L108.824,66.918C108.824,76.95,104.406,79.593,89.502,88.511C88.428,89.13,87.933,89.254,87.437,89.254ZM87.437,89.254"/>
</g>
  <g id="Regular-M" transform="matrix(1.0,0.0,0.0,1.0,1393.6585934328027,1037.6089560180465)">  <path stroke-linecap="butt" fill="#000000" stroke-miterlimit="4" xmlns:svg="http://www.w3.org/2000/svg" fill-opacity="1" version="1.1" stroke-opacity="1" stroke-width="0.125px" stroke-linejoin="miter" stroke="none" fill-rule="nonzero" stroke-dasharray="none" d="M46.692,0C37.867,0,32.171,4.506,32.171,14.458L32.171,17.337L15.898,17.337C5.32,17.337,-0,22.532,-0,32.985L-0,80.303C-0,90.818,5.32,96.013,15.898,96.013L58.214,96.013L58.214,87L16.023,87C11.517,87,9.013,84.559,9.013,79.865L9.013,33.486C9.013,28.729,11.517,26.35,16.023,26.35L98.955,26.35C102.876,26.35,105.28,28.209,105.792,31.913L114.943,31.913C114.585,22.188,109.343,17.337,99.017,17.337L82.807,17.337L82.807,14.458C82.807,4.506,77.674,0,68.223,0ZM46.567,8.137L68.348,8.137C72.041,8.137,74.107,10.14,74.107,13.77L74.107,17.337L40.809,17.337L40.809,13.77C40.809,10.14,42.937,8.137,46.567,8.137ZM52.951,33.924C50.448,33.924,48.758,35.551,48.758,38.117L48.758,47.944L38.868,47.944C36.302,47.944,34.675,49.696,34.675,52.137L34.675,61.088C34.675,63.591,36.365,65.281,38.868,65.281L48.758,65.281L48.758,75.171C48.758,77.737,50.448,79.427,52.951,79.427L58.214,79.427L58.214,33.924ZM52.951,33.924"/>
  <path stroke-dasharray="none" xmlns:svg="http://www.w3.org/2000/svg" stroke="none" stroke-width="0.32982251048088074" version="1.1" fill-rule="nonzero" stroke-linejoin="miter" fill-opacity="1" stroke-linecap="butt" stroke-miterlimit="4" stroke-opacity="1" fill="#000000" d="M87.437,96.025C87.891,96.025,88.717,95.86,89.625,95.365C108.163,85.208,114.728,80.584,114.728,68.363L114.728,43.508C114.728,40.122,113.118,39.09,110.558,37.975C107.214,36.53,93.548,31.7,90.204,30.544C89.337,30.255,88.387,30.048,87.437,30.048C86.488,30.048,85.497,30.337,84.671,30.544C81.327,31.369,67.661,36.572,64.316,37.975C61.757,39.049,60.146,40.122,60.146,43.508L60.146,68.363C60.146,80.584,66.711,85.167,85.249,95.365C86.157,95.86,86.983,96.025,87.437,96.025ZM87.437,89.254C86.942,89.254,86.446,89.13,85.332,88.511C70.427,79.593,66.009,76.95,66.009,66.918L66.009,44.623C66.009,43.879,66.174,43.549,66.835,43.26C72.12,41.196,81.038,38.347,86.323,36.241C86.735,36.076,87.107,36.035,87.437,36.035C87.768,36.035,88.139,36.076,88.552,36.241C93.795,38.347,102.59,41.443,107.998,43.26C108.7,43.508,108.824,43.879,108.824,44.623L108.824,66.918C108.824,76.95,104.406,79.593,89.502,88.511C88.428,89.13,87.933,89.254,87.437,89.254ZM87.437,89.254"/>
</g>
  <g id="Light-M" transform="matrix(1.0,0.0,0.0,1.0,1096.948593432803,1037.6089560180465)">  <path stroke-linecap="butt" stroke-linejoin="miter" version="1.1" fill-opacity="1" stroke-miterlimit="4" stroke-width="0.125px" stroke-opacity="1" stroke-dasharray="none" xmlns:svg="http://www.w3.org/2000/svg" fill="#000000" stroke="none" fill-rule="nonzero" d="M46.692,0C37.867,0,32.171,4.506,32.171,14.458L32.171,17.337L15.898,17.337C5.32,17.337,-0,22.532,-0,32.985L-0,80.303C-0,90.818,5.32,96.013,15.898,96.013L58.214,96.013L58.214,87L16.023,87C11.517,87,9.013,84.559,9.013,79.865L9.013,33.486C9.013,28.729,11.517,26.35,16.023,26.35L98.955,26.35C102.876,26.35,105.28,28.209,105.792,31.913L114.943,31.913C114.585,22.188,109.343,17.337,99.017,17.337L82.807,17.337L82.807,14.458C82.807,4.506,77.674,0,68.223,0ZM46.567,8.137L68.348,8.137C72.041,8.137,74.107,10.14,74.107,13.77L74.107,17.337L40.809,17.337L40.809,13.77C40.809,10.14,42.937,8.137,46.567,8.137ZM52.951,33.924C50.448,33.924,48.758,35.551,48.758,38.117L48.758,47.944L38.868,47.944C36.302,47.944,34.675,49.696,34.675,52.137L34.675,61.088C34.675,63.591,36.365,65.281,38.868,65.281L48.758,65.281L48.758,75.171C48.758,77.737,50.448,79.427,52.951,79.427L58.214,79.427L58.214,33.924ZM52.951,33.924"/>
  <path stroke="none" stroke-linejoin="miter" fill-opacity="1" fill="#000000" stroke-opacity="1" stroke-dasharray="none" stroke-linecap="butt" fill-rule="nonzero" stroke-miterlimit="4" xmlns:svg="http://www.w3.org/2000/svg" stroke-width="0.32982251048088074" version="1.1" d="M87.437,96.025C87.891,96.025,88.717,95.86,89.625,95.365C108.163,85.208,114.728,80.584,114.728,68.363L114.728,43.508C114.728,40.122,113.118,39.09,110.558,37.975C107.214,36.53,93.548,31.7,90.204,30.544C89.337,30.255,88.387,30.048,87.437,30.048C86.488,30.048,85.497,30.337,84.671,30.544C81.327,31.369,67.661,36.572,64.316,37.975C61.757,39.049,60.146,40.122,60.146,43.508L60.146,68.363C60.146,80.584,66.711,85.167,85.249,95.365C86.157,95.86,86.983,96.025,87.437,96.025ZM87.437,89.254C86.942,89.254,86.446,89.13,85.332,88.511C70.427,79.593,66.009,76.95,66.009,66.918L66.009,44.623C66.009,43.879,66.174,43.549,66.835,43.26C72.12,41.196,81.038,38.347,86.323,36.241C86.735,36.076,87.107,36.035,87.437,36.035C87.768,36.035,88.139,36.076,88.552,36.241C93.795,38.347,102.59,41.443,107.998,43.26C108.7,43.508,108.824,43.879,108.824,44.623L108.824,66.918C108.824,76.95,104.406,79.593,89.502,88.511C88.428,89.13,87.933,89.254,87.437,89.254ZM87.437,89.254"/>
</g>
  <g id="Thin-M" transform="matrix(1.0,0.0,0.0,1.0,800.238593432803,1037.6089560180465)">  <path fill="#000000" fill-rule="nonzero" fill-opacity="1" stroke-linejoin="miter" stroke="none" stroke-opacity="1" version="1.1" stroke-width="0.125px" xmlns:svg="http://www.w3.org/2000/svg" stroke-dasharray="none" stroke-linecap="butt" stroke-miterlimit="4" d="M46.692,0C37.867,0,32.171,4.506,32.171,14.458L32.171,17.337L15.898,17.337C5.32,17.337,-0,22.532,-0,32.985L-0,80.303C-0,90.818,5.32,96.013,15.898,96.013L58.214,96.013L58.214,87L16.023,87C11.517,87,9.013,84.559,9.013,79.865L9.013,33.486C9.013,28.729,11.517,26.35,16.023,26.35L98.955,26.35C102.876,26.35,105.28,28.209,105.792,31.913L114.943,31.913C114.585,22.188,109.343,17.337,99.017,17.337L82.807,17.337L82.807,14.458C82.807,4.506,77.674,0,68.223,0ZM46.567,8.137L68.348,8.137C72.041,8.137,74.107,10.14,74.107,13.77L74.107,17.337L40.809,17.337L40.809,13.77C40.809,10.14,42.937,8.137,46.567,8.137ZM52.951,33.924C50.448,33.924,48.758,35.551,48.758,38.117L48.758,47.944L38.868,47.944C36.302,47.944,34.675,49.696,34.675,52.137L34.675,61.088C34.675,63.591,36.365,65.281,38.868,65.281L48.758,65.281L48.758,75.171C48.758,77.737,50.448,79.427,52.951,79.427L58.214,79.427L58.214,33.924ZM52.951,33.924"/>
  <path xmlns:svg="http://www.w3.org/2000/svg" stroke-dasharray="none" stroke-opacity="1" version="1.1" stroke="none" stroke-linejoin="miter" fill="#000000" stroke-width="0.32982251048088074" fill-rule="nonzero" stroke-miterlimit="4" stroke-linecap="butt" fill-opacity="1" d="M87.437,96.025C87.891,96.025,88.717,95.86,89.625,95.365C108.163,85.208,114.728,80.584,114.728,68.363L114.728,43.508C114.728,40.122,113.118,39.09,110.558,37.975C107.214,36.53,93.548,31.7,90.204,30.544C89.337,30.255,88.387,30.048,87.437,30.048C86.488,30.048,85.497,30.337,84.671,30.544C81.327,31.369,67.661,36.572,64.316,37.975C61.757,39.049,60.146,40.122,60.146,43.508L60.146,68.363C60.146,80.584,66.711,85.167,85.249,95.365C86.157,95.86,86.983,96.025,87.437,96.025ZM87.437,89.254C86.942,89.254,86.446,89.13,85.332,88.511C70.427,79.593,66.009,76.95,66.009,66.918L66.009,44.623C66.009,43.879,66.174,43.549,66.835,43.26C72.12,41.196,81.038,38.347,86.323,36.241C86.735,36.076,87.107,36.035,87.437,36.035C87.768,36.035,88.139,36.076,88.552,36.241C93.795,38.347,102.59,41.443,107.998,43.26C108.7,43.508,108.824,43.879,108.824,44.623L108.824,66.918C108.824,76.95,104.406,79.593,89.502,88.511C88.428,89.13,87.933,89.254,87.437,89.254ZM87.437,89.254"/>
</g>
  <g id="Ultralight-M" transform="matrix(1.0,0.0,0.0,1.0,503.52859343280295,1037.6089560180465)">  <path stroke-linecap="butt" stroke-width="0.125px" fill-opacity="1" version="1.1" stroke-opacity="1" stroke="none" stroke-dasharray="none" xmlns:svg="http://www.w3.org/2000/svg" fill="#000000" stroke-linejoin="miter" stroke-miterlimit="4" fill-rule="nonzero" d="M46.692,0C37.867,0,32.171,4.506,32.171,14.458L32.171,17.337L15.898,17.337C5.32,17.337,-0,22.532,-0,32.985L-0,80.303C-0,90.818,5.32,96.013,15.898,96.013L58.214,96.013L58.214,87L16.023,87C11.517,87,9.013,84.559,9.013,79.865L9.013,33.486C9.013,28.729,11.517,26.35,16.023,26.35L98.955,26.35C102.876,26.35,105.28,28.209,105.792,31.913L114.943,31.913C114.585,22.188,109.343,17.337,99.017,17.337L82.807,17.337L82.807,14.458C82.807,4.506,77.674,0,68.223,0ZM46.567,8.137L68.348,8.137C72.041,8.137,74.107,10.14,74.107,13.77L74.107,17.337L40.809,17.337L40.809,13.77C40.809,10.14,42.937,8.137,46.567,8.137ZM52.951,33.924C50.448,33.924,48.758,35.551,48.758,38.117L48.758,47.944L38.868,47.944C36.302,47.944,34.675,49.696,34.675,52.137L34.675,61.088C34.675,63.591,36.365,65.281,38.868,65.281L48.758,65.281L48.758,75.171C48.758,77.737,50.448,79.427,52.951,79.427L58.214,79.427L58.214,33.924ZM52.951,33.924"/>
  <path fill-rule="nonzero" stroke-dasharray="none" version="1.1" xmlns:svg="http://www.w3.org/2000/svg" fill="#000000" stroke-linecap="butt" fill-opacity="1" stroke-width="0.32982251048088074" stroke="none" stroke-linejoin="miter" stroke-opacity="1" stroke-miterlimit="4" d="M87.437,96.025C87.891,96.025,88.717,95.86,89.625,95.365C108.163,85.208,114.728,80.584,114.728,68.363L114.728,43.508C114.728,40.122,113.118,39.09,110.558,37.975C107.214,36.53,93.548,31.7,90.204,30.544C89.337,30.255,88.387,30.048,87.437,30.048C86.488,30.048,85.497,30.337,84.671,30.544C81.327,31.369,67.661,36.572,64.316,37.975C61.757,39.049,60.146,40.122,60.146,43.508L60.146,68.363C60.146,80.584,66.711,85.167,85.249,95.365C86.157,95.86,86.983,96.025,87.437,96.025ZM87.437,89.254C86.942,89.254,86.446,89.13,85.332,88.511C70.427,79.593,66.009,76.95,66.009,66.918L66.009,44.623C66.009,43.879,66.174,43.549,66.835,43.26C72.12,41.196,81.038,38.347,86.323,36.241C86.735,36.076,87.107,36.035,87.437,36.035C87.768,36.035,88.139,36.076,88.552,36.241C93.795,38.347,102.59,41.443,107.998,43.26C108.7,43.508,108.824,43.879,108.824,44.623L108.824,66.918C108.824,76.95,104.406,79.593,89.502,88.511C88.428,89.13,87.933,89.254,87.437,89.254ZM87.437,89.254"/>
</g>
  <g id="Black-S" transform="matrix(1.0,0.0,0.0,1.0,2889.6798886578845,619.1449068004116)">  <path xmlns:svg="http://www.w3.org/2000/svg" stroke-miterlimit="4" fill-opacity="1" stroke-width="0.125px" stroke-linejoin="miter" fill="#000000" fill-rule="nonzero" version="1.1" stroke="none" stroke-opacity="1" stroke-linecap="butt" stroke-dasharray="none" d="M36.56,0C29.65,0,25.19,3.529,25.19,11.321L25.19,13.575L12.448,13.575C4.166,13.575,-0,17.643,-0,25.827L-0,62.877C-0,71.111,4.166,75.178,12.448,75.178L45.581,75.178L45.581,68.121L12.546,68.121C9.017,68.121,7.057,66.21,7.057,62.534L7.057,26.219C7.057,22.495,9.017,20.632,12.546,20.632L77.482,20.632C80.552,20.632,82.434,22.088,82.835,24.988L90,24.988C89.72,17.373,85.615,13.575,77.531,13.575L64.838,13.575L64.838,11.321C64.838,3.529,60.819,0,53.419,0ZM36.462,6.371L53.517,6.371C56.408,6.371,58.025,7.939,58.025,10.782L58.025,13.575L31.953,13.575L31.953,10.782C31.953,7.939,33.619,6.371,36.462,6.371ZM41.461,26.562C39.5,26.562,38.177,27.836,38.177,29.846L38.177,37.54L30.434,37.54C28.425,37.54,27.15,38.912,27.15,40.824L27.15,47.832C27.15,49.792,28.474,51.115,30.434,51.115L38.177,51.115L38.177,58.859C38.177,60.868,39.5,62.191,41.461,62.191L45.581,62.191L45.581,26.562ZM41.461,26.562"/>
  <path stroke-linejoin="miter" stroke-dasharray="none" stroke-linecap="butt" stroke="none" stroke-miterlimit="4" version="1.1" stroke-opacity="1" xmlns:svg="http://www.w3.org/2000/svg" fill-rule="nonzero" fill="#000000" fill-opacity="1" stroke-width="0.32982251048088074" d="M68.463,75.188C68.819,75.188,69.466,75.058,70.177,74.67C84.692,66.718,89.832,63.097,89.832,53.528L89.832,34.067C89.832,31.416,88.571,30.608,86.567,29.735C83.948,28.603,73.248,24.821,70.629,23.916C69.95,23.689,69.207,23.528,68.463,23.528C67.72,23.528,66.944,23.754,66.297,23.916C63.679,24.562,52.978,28.636,50.36,29.735C48.355,30.575,47.095,31.416,47.095,34.067L47.095,53.528C47.095,63.097,52.235,66.685,66.75,74.67C67.461,75.058,68.108,75.188,68.463,75.188ZM68.463,69.886C68.076,69.886,67.687,69.789,66.815,69.304C55.144,62.321,51.685,60.252,51.685,52.397L51.685,34.939C51.685,34.358,51.815,34.099,52.332,33.873C56.47,32.256,63.453,30.026,67.591,28.377C67.914,28.248,68.205,28.215,68.463,28.215C68.722,28.215,69.013,28.248,69.336,28.377C73.442,30.026,80.328,32.45,84.563,33.873C85.112,34.067,85.209,34.358,85.209,34.939L85.209,52.397C85.209,60.252,81.75,62.321,70.08,69.304C69.239,69.789,68.851,69.886,68.463,69.886ZM68.463,69.886"/>
</g>
  <g id="Heavy-S" transform="matrix(1.0,0.0,0.0,1.0,2592.9698886578844,619.1449068004116)">  <path stroke-linejoin="miter" stroke-linecap="butt" stroke-dasharray="none" stroke-width="0.125px" fill-rule="nonzero" stroke-miterlimit="4" stroke-opacity="1" stroke="none" xmlns:svg="http://www.w3.org/2000/svg" fill="#000000" fill-opacity="1" version="1.1" d="M36.56,0C29.65,0,25.19,3.529,25.19,11.321L25.19,13.575L12.448,13.575C4.166,13.575,-0,17.643,-0,25.827L-0,62.877C-0,71.111,4.166,75.178,12.448,75.178L45.581,75.178L45.581,68.121L12.546,68.121C9.017,68.121,7.057,66.21,7.057,62.534L7.057,26.219C7.057,22.495,9.017,20.632,12.546,20.632L77.482,20.632C80.552,20.632,82.434,22.088,82.835,24.988L90,24.988C89.72,17.373,85.615,13.575,77.531,13.575L64.838,13.575L64.838,11.321C64.838,3.529,60.819,0,53.419,0ZM36.462,6.371L53.517,6.371C56.408,6.371,58.025,7.939,58.025,10.782L58.025,13.575L31.953,13.575L31.953,10.782C31.953,7.939,33.619,6.371,36.462,6.371ZM41.461,26.562C39.5,26.562,38.177,27.836,38.177,29.846L38.177,37.54L30.434,37.54C28.425,37.54,27.15,38.912,27.15,40.824L27.15,47.832C27.15,49.792,28.474,51.115,30.434,51.115L38.177,51.115L38.177,58.859C38.177,60.868,39.5,62.191,41.461,62.191L45.581,62.191L45.581,26.562ZM41.461,26.562"/>
  <path stroke="none" stroke-dasharray="none" stroke-miterlimit="4" version="1.1" stroke-linejoin="miter" fill-rule="nonzero" stroke-linecap="butt" fill-opacity="1" stroke-opacity="1" stroke-width="0.32982251048088074" xmlns:svg="http://www.w3.org/2000/svg" fill="#000000" d="M68.463,75.188C68.819,75.188,69.466,75.058,70.177,74.67C84.692,66.718,89.832,63.097,89.832,53.528L89.832,34.067C89.832,31.416,88.571,30.608,86.567,29.735C83.948,28.603,73.248,24.821,70.629,23.916C69.95,23.689,69.207,23.528,68.463,23.528C67.72,23.528,66.944,23.754,66.297,23.916C63.679,24.562,52.978,28.636,50.36,29.735C48.355,30.575,47.095,31.416,47.095,34.067L47.095,53.528C47.095,63.097,52.235,66.685,66.75,74.67C67.461,75.058,68.108,75.188,68.463,75.188ZM68.463,69.886C68.076,69.886,67.687,69.789,66.815,69.304C55.144,62.321,51.685,60.252,51.685,52.397L51.685,34.939C51.685,34.358,51.815,34.099,52.332,33.873C56.47,32.256,63.453,30.026,67.591,28.377C67.914,28.248,68.205,28.215,68.463,28.215C68.722,28.215,69.013,28.248,69.336,28.377C73.442,30.026,80.328,32.45,84.563,33.873C85.112,34.067,85.209,34.358,85.209,34.939L85.209,52.397C85.209,60.252,81.75,62.321,70.08,69.304C69.239,69.789,68.851,69.886,68.463,69.886ZM68.463,69.886"/>
</g>
  <g id="Bold-S" transform="matrix(1.0,0.0,0.0,1.0,2296.2598886578844,619.1449068004116)">  <path fill-rule="nonzero" version="1.1" fill="#000000" stroke-width="0.125px" stroke-linecap="butt" stroke-dasharray="none" stroke-miterlimit="4" xmlns:svg="http://www.w3.org/2000/svg" stroke-opacity="1" fill-opacity="1" stroke-linejoin="miter" stroke="none" d="M36.56,0C29.65,0,25.19,3.529,25.19,11.321L25.19,13.575L12.448,13.575C4.166,13.575,-0,17.643,-0,25.827L-0,62.877C-0,71.111,4.166,75.178,12.448,75.178L45.581,75.178L45.581,68.121L12.546,68.121C9.017,68.121,7.057,66.21,7.057,62.534L7.057,26.219C7.057,22.495,9.017,20.632,12.546,20.632L77.482,20.632C80.552,20.632,82.434,22.088,82.835,24.988L90,24.988C89.72,17.373,85.615,13.575,77.531,13.575L64.838,13.575L64.838,11.321C64.838,3.529,60.819,0,53.419,0ZM36.462,6.371L53.517,6.371C56.408,6.371,58.025,7.939,58.025,10.782L58.025,13.575L31.953,13.575L31.953,10.782C31.953,7.939,33.619,6.371,36.462,6.371ZM41.461,26.562C39.5,26.562,38.177,27.836,38.177,29.846L38.177,37.54L30.434,37.54C28.425,37.54,27.15,38.912,27.15,40.824L27.15,47.832C27.15,49.792,28.474,51.115,30.434,51.115L38.177,51.115L38.177,58.859C38.177,60.868,39.5,62.191,41.461,62.191L45.581,62.191L45.581,26.562ZM41.461,26.562"/>
  <path fill="#000000" fill-opacity="1" stroke-opacity="1" stroke-linejoin="miter" stroke-width="0.32982251048088074" stroke-miterlimit="4" stroke="none" version="1.1" stroke-dasharray="none" xmlns:svg="http://www.w3.org/2000/svg" stroke-linecap="butt" fill-rule="nonzero" d="M68.463,75.188C68.819,75.188,69.466,75.058,70.177,74.67C84.692,66.718,89.832,63.097,89.832,53.528L89.832,34.067C89.832,31.416,88.571,30.608,86.567,29.735C83.948,28.603,73.248,24.821,70.629,23.916C69.95,23.689,69.207,23.528,68.463,23.528C67.72,23.528,66.944,23.754,66.297,23.916C63.679,24.562,52.978,28.636,50.36,29.735C48.355,30.575,47.095,31.416,47.095,34.067L47.095,53.528C47.095,63.097,52.235,66.685,66.75,74.67C67.461,75.058,68.108,75.188,68.463,75.188ZM68.463,69.886C68.076,69.886,67.687,69.789,66.815,69.304C55.144,62.321,51.685,60.252,51.685,52.397L51.685,34.939C51.685,34.358,51.815,34.099,52.332,33.873C56.47,32.256,63.453,30.026,67.591,28.377C67.914,28.248,68.205,28.215,68.463,28.215C68.722,28.215,69.013,28.248,69.336,28.377C73.442,30.026,80.328,32.45,84.563,33.873C85.112,34.067,85.209,34.358,85.209,34.939L85.209,52.397C85.209,60.252,81.75,62.321,70.08,69.304C69.239,69.789,68.851,69.886,68.463,69.886ZM68.463,69.886"/>
</g>
  <g id="Semibold-S" transform="matrix(1.0,0.0,0.0,1.0,1999.5498886578848,619.1449068004116)">  <path stroke-dasharray="none" stroke-linecap="butt" fill-rule="nonzero" fill="#000000" stroke="none" stroke-width="0.125px" stroke-miterlimit="4" xmlns:svg="http://www.w3.org/2000/svg" stroke-linejoin="miter" version="1.1" fill-opacity="1" stroke-opacity="1" d="M36.56,0C29.65,0,25.19,3.529,25.19,11.321L25.19,13.575L12.448,13.575C4.166,13.575,-0,17.643,-0,25.827L-0,62.877C-0,71.111,4.166,75.178,12.448,75.178L45.581,75.178L45.581,68.121L12.546,68.121C9.017,68.121,7.057,66.21,7.057,62.534L7.057,26.219C7.057,22.495,9.017,20.632,12.546,20.632L77.482,20.632C80.552,20.632,82.434,22.088,82.835,24.988L90,24.988C89.72,17.373,85.615,13.575,77.531,13.575L64.838,13.575L64.838,11.321C64.838,3.529,60.819,0,53.419,0ZM36.462,6.371L53.517,6.371C56.408,6.371,58.025,7.939,58.025,10.782L58.025,13.575L31.953,13.575L31.953,10.782C31.953,7.939,33.619,6.371,36.462,6.371ZM41.461,26.562C39.5,26.562,38.177,27.836,38.177,29.846L38.177,37.54L30.434,37.54C28.425,37.54,27.15,38.912,27.15,40.824L27.15,47.832C27.15,49.792,28.474,51.115,30.434,51.115L38.177,51.115L38.177,58.859C38.177,60.868,39.5,62.191,41.461,62.191L45.581,62.191L45.581,26.562ZM41.461,26.562"/>
  <path fill-opacity="1" stroke-miterlimit="4" xmlns:svg="http://www.w3.org/2000/svg" fill-rule="nonzero" fill="#000000" version="1.1" stroke-linecap="butt" stroke-linejoin="miter" stroke-width="0.32982251048088074" stroke="none" stroke-dasharray="none" stroke-opacity="1" d="M68.463,75.188C68.819,75.188,69.466,75.058,70.177,74.67C84.692,66.718,89.832,63.097,89.832,53.528L89.832,34.067C89.832,31.416,88.571,30.608,86.567,29.735C83.948,28.603,73.248,24.821,70.629,23.916C69.95,23.689,69.207,23.528,68.463,23.528C67.72,23.528,66.944,23.754,66.297,23.916C63.679,24.562,52.978,28.636,50.36,29.735C48.355,30.575,47.095,31.416,47.095,34.067L47.095,53.528C47.095,63.097,52.235,66.685,66.75,74.67C67.461,75.058,68.108,75.188,68.463,75.188ZM68.463,69.886C68.076,69.886,67.687,69.789,66.815,69.304C55.144,62.321,51.685,60.252,51.685,52.397L51.685,34.939C51.685,34.358,51.815,34.099,52.332,33.873C56.47,32.256,63.453,30.026,67.591,28.377C67.914,28.248,68.205,28.215,68.463,28.215C68.722,28.215,69.013,28.248,69.336,28.377C73.442,30.026,80.328,32.45,84.563,33.873C85.112,34.067,85.209,34.358,85.209,34.939L85.209,52.397C85.209,60.252,81.75,62.321,70.08,69.304C69.239,69.789,68.851,69.886,68.463,69.886ZM68.463,69.886"/>
</g>
  <g id="Medium-S" transform="matrix(1.0,0.0,0.0,1.0,1702.8398886578848,619.1449068004116)">  <path xmlns:svg="http://www.w3.org/2000/svg" stroke="none" fill-opacity="1" stroke-miterlimit="4" fill-rule="nonzero" stroke-opacity="1" stroke-linecap="butt" stroke-dasharray="none" stroke-width="0.125px" fill="#000000" stroke-linejoin="miter" version="1.1" d="M36.56,0C29.65,0,25.19,3.529,25.19,11.321L25.19,13.575L12.448,13.575C4.166,13.575,-0,17.643,-0,25.827L-0,62.877C-0,71.111,4.166,75.178,12.448,75.178L45.581,75.178L45.581,68.121L12.546,68.121C9.017,68.121,7.057,66.21,7.057,62.534L7.057,26.219C7.057,22.495,9.017,20.632,12.546,20.632L77.482,20.632C80.552,20.632,82.434,22.088,82.835,24.988L90,24.988C89.72,17.373,85.615,13.575,77.531,13.575L64.838,13.575L64.838,11.321C64.838,3.529,60.819,0,53.419,0ZM36.462,6.371L53.517,6.371C56.408,6.371,58.025,7.939,58.025,10.782L58.025,13.575L31.953,13.575L31.953,10.782C31.953,7.939,33.619,6.371,36.462,6.371ZM41.461,26.562C39.5,26.562,38.177,27.836,38.177,29.846L38.177,37.54L30.434,37.54C28.425,37.54,27.15,38.912,27.15,40.824L27.15,47.832C27.15,49.792,28.474,51.115,30.434,51.115L38.177,51.115L38.177,58.859C38.177,60.868,39.5,62.191,41.461,62.191L45.581,62.191L45.581,26.562ZM41.461,26.562"/>
  <path xmlns:svg="http://www.w3.org/2000/svg" fill-opacity="1" stroke="none" version="1.1" stroke-miterlimit="4" fill-rule="nonzero" stroke-opacity="1" fill="#000000" stroke-linecap="butt" stroke-dasharray="none" stroke-width="0.32982251048088074" stroke-linejoin="miter" d="M68.463,75.188C68.819,75.188,69.466,75.058,70.177,74.67C84.692,66.718,89.832,63.097,89.832,53.528L89.832,34.067C89.832,31.416,88.571,30.608,86.567,29.735C83.948,28.603,73.248,24.821,70.629,23.916C69.95,23.689,69.207,23.528,68.463,23.528C67.72,23.528,66.944,23.754,66.297,23.916C63.679,24.562,52.978,28.636,50.36,29.735C48.355,30.575,47.095,31.416,47.095,34.067L47.095,53.528C47.095,63.097,52.235,66.685,66.75,74.67C67.461,75.058,68.108,75.188,68.463,75.188ZM68.463,69.886C68.076,69.886,67.687,69.789,66.815,69.304C55.144,62.321,51.685,60.252,51.685,52.397L51.685,34.939C51.685,34.358,51.815,34.099,52.332,33.873C56.47,32.256,63.453,30.026,67.591,28.377C67.914,28.248,68.205,28.215,68.463,28.215C68.722,28.215,69.013,28.248,69.336,28.377C73.442,30.026,80.328,32.45,84.563,33.873C85.112,34.067,85.209,34.358,85.209,34.939L85.209,52.397C85.209,60.252,81.75,62.321,70.08,69.304C69.239,69.789,68.851,69.886,68.463,69.886ZM68.463,69.886"/>
</g>
  <g id="Regular-S" transform="matrix(1.0,0.0,0.0,1.0,1406.1298886578847,619.1449068004116)">  <path stroke-linecap="butt" fill="#000000" stroke-miterlimit="4" xmlns:svg="http://www.w3.org/2000/svg" fill-opacity="1" version="1.1" stroke-opacity="1" stroke-width="0.125px" stroke-linejoin="miter" stroke="none" fill-rule="nonzero" stroke-dasharray="none" d="M36.56,0C29.65,0,25.19,3.529,25.19,11.321L25.19,13.575L12.448,13.575C4.166,13.575,-0,17.643,-0,25.827L-0,62.877C-0,71.111,4.166,75.178,12.448,75.178L45.581,75.178L45.581,68.121L12.546,68.121C9.017,68.121,7.057,66.21,7.057,62.534L7.057,26.219C7.057,22.495,9.017,20.632,12.546,20.632L77.482,20.632C80.552,20.632,82.434,22.088,82.835,24.988L90,24.988C89.72,17.373,85.615,13.575,77.531,13.575L64.838,13.575L64.838,11.321C64.838,3.529,60.819,0,53.419,0ZM36.462,6.371L53.517,6.371C56.408,6.371,58.025,7.939,58.025,10.782L58.025,13.575L31.953,13.575L31.953,10.782C31.953,7.939,33.619,6.371,36.462,6.371ZM41.461,26.562C39.5,26.562,38.177,27.836,38.177,29.846L38.177,37.54L30.434,37.54C28.425,37.54,27.15,38.912,27.15,40.824L27.15,47.832C27.15,49.792,28.474,51.115,30.434,51.115L38.177,51.115L38.177,58.859C38.177,60.868,39.5,62.191,41.461,62.191L45.581,62.191L45.581,26.562ZM41.461,26.562"/>
  <path stroke-dasharray="none" xmlns:svg="http://www.w3.org/2000/svg" stroke="none" stroke-width="0.32982251048088074" version="1.1" fill-rule="nonzero" stroke-linejoin="miter" fill-opacity="1" stroke-linecap="butt" stroke-miterlimit="4" stroke-opacity="1" fill="#000000" d="M68.463,75.188C68.819,75.188,69.466,75.058,70.177,74.67C84.692,66.718,89.832,63.097,89.832,53.528L89.832,34.067C89.832,31.416,88.571,30.608,86.567,29.735C83.948,28.603,73.248,24.821,70.629,23.916C69.95,23.689,69.207,23.528,68.463,23.528C67.72,23.528,66.944,23.754,66.297,23.916C63.679,24.562,52.978,28.636,50.36,29.735C48.355,30.575,47.095,31.416,47.095,34.067L47.095,53.528C47.095,63.097,52.235,66.685,66.75,74.67C67.461,75.058,68.108,75.188,68.463,75.188ZM68.463,69.886C68.076,69.886,67.687,69.789,66.815,69.304C55.144,62.321,51.685,60.252,51.685,52.397L51.685,34.939C51.685,34.358,51.815,34.099,52.332,33.873C56.47,32.256,63.453,30.026,67.591,28.377C67.914,28.248,68.205,28.215,68.463,28.215C68.722,28.215,69.013,28.248,69.336,28.377C73.442,30.026,80.328,32.45,84.563,33.873C85.112,34.067,85.209,34.358,85.209,34.939L85.209,52.397C85.209,60.252,81.75,62.321,70.08,69.304C69.239,69.789,68.851,69.886,68.463,69.886ZM68.463,69.886"/>
</g>
  <g id="Light-S" transform="matrix(1.0,0.0,0.0,1.0,1109.419888657885,619.1449068004116)">  <path stroke-linecap="butt" stroke-linejoin="miter" version="1.1" fill-opacity="1" stroke-miterlimit="4" stroke-width="0.125px" stroke-opacity="1" stroke-dasharray="none" xmlns:svg="http://www.w3.org/2000/svg" fill="#000000" stroke="none" fill-rule="nonzero" d="M36.56,0C29.65,0,25.19,3.529,25.19,11.321L25.19,13.575L12.448,13.575C4.166,13.575,-0,17.643,-0,25.827L-0,62.877C-0,71.111,4.166,75.178,12.448,75.178L45.581,75.178L45.581,68.121L12.546,68.121C9.017,68.121,7.057,66.21,7.057,62.534L7.057,26.219C7.057,22.495,9.017,20.632,12.546,20.632L77.482,20.632C80.552,20.632,82.434,22.088,82.835,24.988L90,24.988C89.72,17.373,85.615,13.575,77.531,13.575L64.838,13.575L64.838,11.321C64.838,3.529,60.819,0,53.419,0ZM36.462,6.371L53.517,6.371C56.408,6.371,58.025,7.939,58.025,10.782L58.025,13.575L31.953,13.575L31.953,10.782C31.953,7.939,33.619,6.371,36.462,6.371ZM41.461,26.562C39.5,26.562,38.177,27.836,38.177,29.846L38.177,37.54L30.434,37.54C28.425,37.54,27.15,38.912,27.15,40.824L27.15,47.832C27.15,49.792,28.474,51.115,30.434,51.115L38.177,51.115L38.177,58.859C38.177,60.868,39.5,62.191,41.461,62.191L45.581,62.191L45.581,26.562ZM41.461,26.562"/>
  <path stroke="none" stroke-linejoin="miter" fill-opacity="1" fill="#000000" stroke-opacity="1" stroke-dasharray="none" stroke-linecap="butt" fill-rule="nonzero" stroke-miterlimit="4" xmlns:svg="http://www.w3.org/2000/svg" stroke-width="0.32982251048088074" version="1.1" d="M68.463,75.188C68.819,75.188,69.466,75.058,70.177,74.67C84.692,66.718,89.832,63.097,89.832,53.528L89.832,34.067C89.832,31.416,88.571,30.608,86.567,29.735C83.948,28.603,73.248,24.821,70.629,23.916C69.95,23.689,69.207,23.528,68.463,23.528C67.72,23.528,66.944,23.754,66.297,23.916C63.679,24.562,52.978,28.636,50.36,29.735C48.355,30.575,47.095,31.416,47.095,34.067L47.095,53.528C47.095,63.097,52.235,66.685,66.75,74.67C67.461,75.058,68.108,75.188,68.463,75.188ZM68.463,69.886C68.076,69.886,67.687,69.789,66.815,69.304C55.144,62.321,51.685,60.252,51.685,52.397L51.685,34.939C51.685,34.358,51.815,34.099,52.332,33.873C56.47,32.256,63.453,30.026,67.591,28.377C67.914,28.248,68.205,28.215,68.463,28.215C68.722,28.215,69.013,28.248,69.336,28.377C73.442,30.026,80.328,32.45,84.563,33.873C85.112,34.067,85.209,34.358,85.209,34.939L85.209,52.397C85.209,60.252,81.75,62.321,70.08,69.304C69.239,69.789,68.851,69.886,68.463,69.886ZM68.463,69.886"/>
</g>
  <g id="Thin-S" transform="matrix(1.0,0.0,0.0,1.0,812.7098886578847,619.1449068004116)">  <path fill="#000000" fill-rule="nonzero" fill-opacity="1" stroke-linejoin="miter" stroke="none" stroke-opacity="1" version="1.1" stroke-width="0.125px" xmlns:svg="http://www.w3.org/2000/svg" stroke-dasharray="none" stroke-linecap="butt" stroke-miterlimit="4" d="M36.56,0C29.65,0,25.19,3.529,25.19,11.321L25.19,13.575L12.448,13.575C4.166,13.575,-0,17.643,-0,25.827L-0,62.877C-0,71.111,4.166,75.178,12.448,75.178L45.581,75.178L45.581,68.121L12.546,68.121C9.017,68.121,7.057,66.21,7.057,62.534L7.057,26.219C7.057,22.495,9.017,20.632,12.546,20.632L77.482,20.632C80.552,20.632,82.434,22.088,82.835,24.988L90,24.988C89.72,17.373,85.615,13.575,77.531,13.575L64.838,13.575L64.838,11.321C64.838,3.529,60.819,0,53.419,0ZM36.462,6.371L53.517,6.371C56.408,6.371,58.025,7.939,58.025,10.782L58.025,13.575L31.953,13.575L31.953,10.782C31.953,7.939,33.619,6.371,36.462,6.371ZM41.461,26.562C39.5,26.562,38.177,27.836,38.177,29.846L38.177,37.54L30.434,37.54C28.425,37.54,27.15,38.912,27.15,40.824L27.15,47.832C27.15,49.792,28.474,51.115,30.434,51.115L38.177,51.115L38.177,58.859C38.177,60.868,39.5,62.191,41.461,62.191L45.581,62.191L45.581,26.562ZM41.461,26.562"/>
  <path xmlns:svg="http://www.w3.org/2000/svg" stroke-dasharray="none" stroke-opacity="1" version="1.1" stroke="none" stroke-linejoin="miter" fill="#000000" stroke-width="0.32982251048088074" fill-rule="nonzero" stroke-miterlimit="4" stroke-linecap="butt" fill-opacity="1" d="M68.463,75.188C68.819,75.188,69.466,75.058,70.177,74.67C84.692,66.718,89.832,63.097,89.832,53.528L89.832,34.067C89.832,31.416,88.571,30.608,86.567,29.735C83.948,28.603,73.248,24.821,70.629,23.916C69.95,23.689,69.207,23.528,68.463,23.528C67.72,23.528,66.944,23.754,66.297,23.916C63.679,24.562,52.978,28.636,50.36,29.735C48.355,30.575,47.095,31.416,47.095,34.067L47.095,53.528C47.095,63.097,52.235,66.685,66.75,74.67C67.461,75.058,68.108,75.188,68.463,75.188ZM68.463,69.886C68.076,69.886,67.687,69.789,66.815,69.304C55.144,62.321,51.685,60.252,51.685,52.397L51.685,34.939C51.685,34.358,51.815,34.099,52.332,33.873C56.47,32.256,63.453,30.026,67.591,28.377C67.914,28.248,68.205,28.215,68.463,28.215C68.722,28.215,69.013,28.248,69.336,28.377C73.442,30.026,80.328,32.45,84.563,33.873C85.112,34.067,85.209,34.358,85.209,34.939L85.209,52.397C85.209,60.252,81.75,62.321,70.08,69.304C69.239,69.789,68.851,69.886,68.463,69.886ZM68.463,69.886"/>
</g>
  <g id="Ultralight-S" transform="matrix(1.0,0.0,0.0,1.0,515.9998886578846,619.1449068004116)">  <path stroke-linecap="butt" stroke-width="0.125px" fill-opacity="1" version="1.1" stroke-opacity="1" stroke="none" stroke-dasharray="none" xmlns:svg="http://www.w3.org/2000/svg" fill="#000000" stroke-linejoin="miter" stroke-miterlimit="4" fill-rule="nonzero" d="M36.56,0C29.65,0,25.19,3.529,25.19,11.321L25.19,13.575L12.448,13.575C4.166,13.575,-0,17.643,-0,25.827L-0,62.877C-0,71.111,4.166,75.178,12.448,75.178L45.581,75.178L45.581,68.121L12.546,68.121C9.017,68.121,7.057,66.21,7.057,62.534L7.057,26.219C7.057,22.495,9.017,20.632,12.546,20.632L77.482,20.632C80.552,20.632,82.434,22.088,82.835,24.988L90,24.988C89.72,17.373,85.615,13.575,77.531,13.575L64.838,13.575L64.838,11.321C64.838,3.529,60.819,0,53.419,0ZM36.462,6.371L53.517,6.371C56.408,6.371,58.025,7.939,58.025,10.782L58.025,13.575L31.953,13.575L31.953,10.782C31.953,7.939,33.619,6.371,36.462,6.371ZM41.461,26.562C39.5,26.562,38.177,27.836,38.177,29.846L38.177,37.54L30.434,37.54C28.425,37.54,27.15,38.912,27.15,40.824L27.15,47.832C27.15,49.792,28.474,51.115,30.434,51.115L38.177,51.115L38.177,58.859C38.177,60.868,39.5,62.191,41.461,62.191L45.581,62.191L45.581,26.562ZM41.461,26.562"/>
  <path fill-rule="nonzero" stroke-dasharray="none" version="1.1" xmlns:svg="http://www.w3.org/2000/svg" fill="#000000" stroke-linecap="butt" fill-opacity="1" stroke-width="0.32982251048088074" stroke="none" stroke-linejoin="miter" stroke-opacity="1" stroke-miterlimit="4" d="M68.463,75.188C68.819,75.188,69.466,75.058,70.177,74.67C84.692,66.718,89.832,63.097,89.832,53.528L89.832,34.067C89.832,31.416,88.571,30.608,86.567,29.735C83.948,28.603,73.248,24.821,70.629,23.916C69.95,23.689,69.207,23.528,68.463,23.528C67.72,23.528,66.944,23.754,66.297,23.916C63.679,24.562,52.978,28.636,50.36,29.735C48.355,30.575,47.095,31.416,47.095,34.067L47.095,53.528C47.095,63.097,52.235,66.685,66.75,74.67C67.461,75.058,68.108,75.188,68.463,75.188ZM68.463,69.886C68.076,69.886,67.687,69.789,66.815,69.304C55.144,62.321,51.685,60.252,51.685,52.397L51.685,34.939C51.685,34.358,51.815,34.099,52.332,33.873C56.47,32.256,63.453,30.026,67.591,28.377C67.914,28.248,68.205,28.215,68.463,28.215C68.722,28.215,69.013,28.248,69.336,28.377C73.442,30.026,80.328,32.45,84.563,33.873C85.112,34.067,85.209,34.358,85.209,34.939L85.209,52.397C85.209,60.252,81.75,62.321,70.08,69.304C69.239,69.789,68.851,69.886,68.463,69.886ZM68.463,69.886"/>
</g>
 </g>
</svg>
