<?xml version="1.0" encoding="UTF-8"?>
<!--Generator: Apple Native CoreSVG 175.5-->
<!DOCTYPE svg
PUBLIC "-//W3C//DTD SVG 1.1//EN"
       "http://www.w3.org/Graphics/SVG/1.1/DTD/svg11.dtd">
<svg version="1.1" xmlns="http://www.w3.org/2000/svg" xmlns:xlink="http://www.w3.org/1999/xlink" width="3300" height="2200">
 <!--glyph: "uni1015CD.medium", point size: 100.0, font version: "18.0d11e1", template writer version: "90"-->
 <style>.monochrome-0 {fill:#000000}

.SFSymbolsPreview000000 {fill:#000000;opacity:1.0}
</style>
 <g id="Notes">
  <rect height="2200" id="artboard" style="fill:white;opacity:1" width="3300" x="0" y="0"/>
  <line style="fill:none;stroke:black;opacity:1;stroke-width:0.5;" x1="263" x2="3036" y1="292" y2="292"/>
  <text style="stroke:none;fill:black;font-family:sans-serif;font-size:13;font-weight:bold;" transform="matrix(1 0 0 1 263 322)">Weight/Scale Variations</text>
  <text style="stroke:none;fill:black;font-family:sans-serif;font-size:13;text-anchor:middle;" transform="matrix(1 0 0 1 559.711 322)">Ultralight</text>
  <text style="stroke:none;fill:black;font-family:sans-serif;font-size:13;text-anchor:middle;" transform="matrix(1 0 0 1 856.422 322)">Thin</text>
  <text style="stroke:none;fill:black;font-family:sans-serif;font-size:13;text-anchor:middle;" transform="matrix(1 0 0 1 1153.13 322)">Light</text>
  <text style="stroke:none;fill:black;font-family:sans-serif;font-size:13;text-anchor:middle;" transform="matrix(1 0 0 1 1449.84 322)">Regular</text>
  <text style="stroke:none;fill:black;font-family:sans-serif;font-size:13;text-anchor:middle;" transform="matrix(1 0 0 1 1746.56 322)">Medium</text>
  <text style="stroke:none;fill:black;font-family:sans-serif;font-size:13;text-anchor:middle;" transform="matrix(1 0 0 1 2043.27 322)">Semibold</text>
  <text style="stroke:none;fill:black;font-family:sans-serif;font-size:13;text-anchor:middle;" transform="matrix(1 0 0 1 2339.98 322)">Bold</text>
  <text style="stroke:none;fill:black;font-family:sans-serif;font-size:13;text-anchor:middle;" transform="matrix(1 0 0 1 2636.69 322)">Heavy</text>
  <text style="stroke:none;fill:black;font-family:sans-serif;font-size:13;text-anchor:middle;" transform="matrix(1 0 0 1 2933.4 322)">Black</text>
  <line style="fill:none;stroke:black;opacity:1;stroke-width:0.5;" x1="263" x2="3036" y1="1903" y2="1903"/>
  <g transform="matrix(1 0 0 1 263 1933)">
   <path d="M9.24805 0.830078C13.5547 0.830078 17.1387-2.74414 17.1387-7.05078C17.1387-11.3574 13.5449-14.9316 9.23828-14.9316C4.94141-14.9316 1.36719-11.3574 1.36719-7.05078C1.36719-2.74414 4.95117 0.830078 9.24805 0.830078ZM9.24805-0.654297C5.70312-0.654297 2.87109-3.49609 2.87109-7.05078C2.87109-10.6055 5.69336-13.4473 9.23828-13.4473C12.793-13.4473 15.6445-10.6055 15.6445-7.05078C15.6445-3.49609 12.8027-0.654297 9.24805-0.654297ZM5.6543-7.05078C5.6543-6.62109 5.95703-6.32812 6.40625-6.32812L8.50586-6.32812L8.50586-4.20898C8.50586-3.76953 8.79883-3.4668 9.22852-3.4668C9.67773-3.4668 9.9707-3.76953 9.9707-4.20898L9.9707-6.32812L12.0898-6.32812C12.5293-6.32812 12.832-6.62109 12.832-7.05078C12.832-7.49023 12.5293-7.79297 12.0898-7.79297L9.9707-7.79297L9.9707-9.90234C9.9707-10.3516 9.67773-10.6543 9.22852-10.6543C8.79883-10.6543 8.50586-10.3516 8.50586-9.90234L8.50586-7.79297L6.40625-7.79297C5.95703-7.79297 5.6543-7.49023 5.6543-7.05078Z"/>
  </g>
  <g transform="matrix(1 0 0 1 281.867 1933)">
   <path d="M11.709 2.91016C17.1582 2.91016 21.6699-1.61133 21.6699-7.05078C21.6699-12.5 17.1484-17.0117 11.6992-17.0117C6.25977-17.0117 1.74805-12.5 1.74805-7.05078C1.74805-1.61133 6.26953 2.91016 11.709 2.91016ZM11.709 1.25C7.09961 1.25 3.41797-2.44141 3.41797-7.05078C3.41797-11.6602 7.08984-15.3516 11.6992-15.3516C16.3086-15.3516 20.0098-11.6602 20.0098-7.05078C20.0098-2.44141 16.3184 1.25 11.709 1.25ZM7.17773-7.05078C7.17773-6.57227 7.50977-6.25 8.00781-6.25L10.8789-6.25L10.8789-3.36914C10.8789-2.88086 11.2109-2.53906 11.6895-2.53906C12.1777-2.53906 12.5195-2.87109 12.5195-3.36914L12.5195-6.25L15.4004-6.25C15.8887-6.25 16.2305-6.57227 16.2305-7.05078C16.2305-7.53906 15.8887-7.88086 15.4004-7.88086L12.5195-7.88086L12.5195-10.752C12.5195-11.25 12.1777-11.5918 11.6895-11.5918C11.2109-11.5918 10.8789-11.25 10.8789-10.752L10.8789-7.88086L8.00781-7.88086C7.50977-7.88086 7.17773-7.53906 7.17773-7.05078Z"/>
  </g>
  <g transform="matrix(1 0 0 1 305.646 1933)">
   <path d="M14.9707 5.66406C21.9336 5.66406 27.6953-0.0976562 27.6953-7.05078C27.6953-14.0137 21.9238-19.7754 14.9609-19.7754C8.00781-19.7754 2.25586-14.0137 2.25586-7.05078C2.25586-0.0976562 8.01758 5.66406 14.9707 5.66406ZM14.9707 3.84766C8.93555 3.84766 4.08203-1.01562 4.08203-7.05078C4.08203-13.0957 8.92578-17.9492 14.9609-17.9492C21.0059-17.9492 25.8691-13.0957 25.8691-7.05078C25.8691-1.01562 21.0156 3.84766 14.9707 3.84766ZM9.19922-7.05078C9.19922-6.5332 9.57031-6.17188 10.1172-6.17188L14.0625-6.17188L14.0625-2.2168C14.0625-1.67969 14.4336-1.29883 14.9512-1.29883C15.4883-1.29883 15.8594-1.66992 15.8594-2.2168L15.8594-6.17188L19.8145-6.17188C20.3516-6.17188 20.7324-6.5332 20.7324-7.05078C20.7324-7.59766 20.3613-7.96875 19.8145-7.96875L15.8594-7.96875L15.8594-11.9141C15.8594-12.4609 15.4883-12.8418 14.9512-12.8418C14.4336-12.8418 14.0625-12.4609 14.0625-11.9141L14.0625-7.96875L10.1172-7.96875C9.57031-7.96875 9.19922-7.59766 9.19922-7.05078Z"/>
  </g>
  <text style="stroke:none;fill:black;font-family:sans-serif;font-size:13;font-weight:bold;" transform="matrix(1 0 0 1 263 1953)">Design Variations</text>
  <text style="stroke:none;fill:black;font-family:sans-serif;font-size:13;" transform="matrix(1 0 0 1 263 1971)">Symbols are supported in up to nine weights and three scales.</text>
  <text style="stroke:none;fill:black;font-family:sans-serif;font-size:13;" transform="matrix(1 0 0 1 263 1989)">For optimal layout with text and other symbols, vertically align</text>
  <text style="stroke:none;fill:black;font-family:sans-serif;font-size:13;" transform="matrix(1 0 0 1 263 2007)">symbols with the adjacent text.</text>
  <line style="fill:none;stroke:#00AEEF;stroke-width:0.5;opacity:1.0;" x1="776" x2="776" y1="1919" y2="1933"/>
  <g transform="matrix(1 0 0 1 776 1933)">
   <path d="M3.31055 0.15625C3.82812 0.15625 4.08203-0.0390625 4.26758-0.585938L5.52734-4.0332L11.2891-4.0332L12.5488-0.585938C12.7344-0.0390625 12.9883 0.15625 13.4961 0.15625C14.0137 0.15625 14.3457-0.15625 14.3457-0.644531C14.3457-0.810547 14.3164-0.966797 14.2383-1.17188L9.6582-13.3691C9.43359-13.9648 9.0332-14.2676 8.4082-14.2676C7.80273-14.2676 7.39258-13.9746 7.17773-13.3789L2.59766-1.16211C2.51953-0.957031 2.49023-0.800781 2.49023-0.634766C2.49023-0.146484 2.80273 0.15625 3.31055 0.15625ZM6.00586-5.51758L8.37891-12.0898L8.42773-12.0898L10.8008-5.51758Z"/>
  </g>
  <line style="fill:none;stroke:#00AEEF;stroke-width:0.5;opacity:1.0;" x1="793.197" x2="793.197" y1="1919" y2="1933"/>
  <text style="stroke:none;fill:black;font-family:sans-serif;font-size:13;font-weight:bold;" transform="matrix(1 0 0 1 776 1953)">Margins</text>
  <text style="stroke:none;fill:black;font-family:sans-serif;font-size:13;" transform="matrix(1 0 0 1 776 1971)">Leading and trailing margins on the left and right side of each symbol</text>
  <text style="stroke:none;fill:black;font-family:sans-serif;font-size:13;" transform="matrix(1 0 0 1 776 1989)">can be adjusted by modifying the x-location of the margin guidelines.</text>
  <text style="stroke:none;fill:black;font-family:sans-serif;font-size:13;" transform="matrix(1 0 0 1 776 2007)">Modifications are automatically applied proportionally to all</text>
  <text style="stroke:none;fill:black;font-family:sans-serif;font-size:13;" transform="matrix(1 0 0 1 776 2025)">scales and weights.</text>
  <g transform="matrix(1 0 0 1 1289 1933)">
   <path d="M2.8418 1.86523L4.54102 3.57422C5.40039 4.44336 6.38672 4.38477 7.31445 3.35938L18.0078-8.42773L17.041-9.4043L6.42578 2.27539C6.07422 2.67578 5.74219 2.77344 5.27344 2.30469L4.10156 1.14258C3.63281 0.683594 3.74023 0.341797 4.14062-0.0195312L15.6152-10.8203L14.6387-11.7871L3.04688-0.898438C2.06055 0.0195312 1.98242 0.996094 2.8418 1.86523ZM9.25781-16.3281C8.83789-15.918 8.80859-15.3418 9.04297-14.9512C9.27734-14.5898 9.73633-14.3555 10.3809-14.5215C11.8457-14.8633 13.3691-14.9219 14.7949-13.9844L14.209-12.5293C13.8672-11.6992 14.043-11.1133 14.5801-10.5664L16.875-8.25195C17.3633-7.76367 17.7734-7.74414 18.3398-7.8418L19.4043-8.03711L20.0684-7.36328L20.0293-6.80664C19.9902-6.30859 20.1172-5.92773 20.6055-5.44922L21.3672-4.70703C21.8457-4.22852 22.4609-4.19922 22.9297-4.66797L25.8398-7.58789C26.3086-8.05664 26.2891-8.65234 25.8105-9.13086L25.0391-9.89258C24.5605-10.3711 24.1895-10.5273 23.7109-10.4883L23.1348-10.4395L22.4902-11.0742L22.7344-12.1973C22.8613-12.7637 22.7051-13.2031 22.1191-13.7891L19.9219-15.9766C16.582-19.2969 12.1484-19.2188 9.25781-16.3281ZM10.752-15.957C13.1836-17.7344 16.4746-17.4316 18.7012-15.2051L21.1328-12.793C21.3672-12.5586 21.4062-12.373 21.3379-12.0312L21.0156-10.5469L22.5195-9.0625L23.5059-9.12109C23.7598-9.13086 23.8379-9.11133 24.0332-8.91602L24.6094-8.33984L22.168-5.89844L21.5918-6.47461C21.3965-6.66992 21.3672-6.74805 21.377-7.01172L21.4453-7.98828L19.9512-9.47266L18.4277-9.21875C18.1055-9.15039 17.959-9.17969 17.7148-9.41406L15.7129-11.416C15.459-11.6504 15.4297-11.8164 15.5859-12.1875L16.4648-14.2773C14.9023-15.7324 12.8711-16.3574 10.8398-15.7617C10.6836-15.7227 10.625-15.8496 10.752-15.957Z"/>
  </g>
  <text style="stroke:none;fill:black;font-family:sans-serif;font-size:13;font-weight:bold;" transform="matrix(1 0 0 1 1289 1953)">Exporting</text>
  <text style="stroke:none;fill:black;font-family:sans-serif;font-size:13;" transform="matrix(1 0 0 1 1289 1971)">Symbols should be outlined when exporting to ensure the</text>
  <text style="stroke:none;fill:black;font-family:sans-serif;font-size:13;" transform="matrix(1 0 0 1 1289 1989)">design is preserved when submitting to Xcode.</text>
  <text id="template-version" style="stroke:none;fill:black;font-family:sans-serif;font-size:13;text-anchor:end;" transform="matrix(1 0 0 1 3036 1933)">Template v.4.0</text>
  <text style="stroke:none;fill:black;font-family:sans-serif;font-size:13;text-anchor:end;" transform="matrix(1 0 0 1 3036 1951)">Requires Xcode 14 or greater</text>
  <text id="descriptive-name" style="stroke:none;fill:black;font-family:sans-serif;font-size:13;text-anchor:end;" transform="matrix(1 0 0 1 3036 1969)">Generated from tennis.racket</text>
  <text style="stroke:none;fill:black;font-family:sans-serif;font-size:13;text-anchor:end;" transform="matrix(1 0 0 1 3036 1987)">Typeset at 100 points</text>
  <text style="stroke:none;fill:black;font-family:sans-serif;font-size:13;" transform="matrix(1 0 0 1 263 726)">Small</text>
  <text style="stroke:none;fill:black;font-family:sans-serif;font-size:13;" transform="matrix(1 0 0 1 263 1156)">Medium</text>
  <text style="stroke:none;fill:black;font-family:sans-serif;font-size:13;" transform="matrix(1 0 0 1 263 1586)">Large</text>
 </g>
 <g id="Guides">
  <g id="H-reference" style="fill:#27AAE1;stroke:none;" transform="matrix(1 0 0 1 339 696)">
   <path d="M0.993654 0L3.63775 0L29.3281-67.1323L30.0303-67.1323L30.0303-70.459L28.1226-70.459ZM11.6885-24.4799L46.9815-24.4799L46.2315-26.7285L12.4385-26.7285ZM55.1196 0L57.7637 0L30.6382-70.459L29.4326-70.459L29.4326-67.1323Z"/>
  </g>
  <line id="Baseline-S" style="fill:none;stroke:#27AAE1;opacity:1;stroke-width:0.5;" x1="263" x2="3036" y1="696" y2="696"/>
  <line id="Capline-S" style="fill:none;stroke:#27AAE1;opacity:1;stroke-width:0.5;" x1="263" x2="3036" y1="625.541" y2="625.541"/>
  <g id="H-reference" style="fill:#27AAE1;stroke:none;" transform="matrix(1 0 0 1 339 1126)">
   <path d="M0.993654 0L3.63775 0L29.3281-67.1323L30.0303-67.1323L30.0303-70.459L28.1226-70.459ZM11.6885-24.4799L46.9815-24.4799L46.2315-26.7285L12.4385-26.7285ZM55.1196 0L57.7637 0L30.6382-70.459L29.4326-70.459L29.4326-67.1323Z"/>
  </g>
  <line id="Baseline-M" style="fill:none;stroke:#27AAE1;opacity:1;stroke-width:0.5;" x1="263" x2="3036" y1="1126" y2="1126"/>
  <line id="Capline-M" style="fill:none;stroke:#27AAE1;opacity:1;stroke-width:0.5;" x1="263" x2="3036" y1="1055.54" y2="1055.54"/>
  <g id="H-reference" style="fill:#27AAE1;stroke:none;" transform="matrix(1 0 0 1 339 1556)">
   <path d="M0.993654 0L3.63775 0L29.3281-67.1323L30.0303-67.1323L30.0303-70.459L28.1226-70.459ZM11.6885-24.4799L46.9815-24.4799L46.2315-26.7285L12.4385-26.7285ZM55.1196 0L57.7637 0L30.6382-70.459L29.4326-70.459L29.4326-67.1323Z"/>
  </g>
  <line id="Baseline-L" style="fill:none;stroke:#27AAE1;opacity:1;stroke-width:0.5;" x1="263" x2="3036" y1="1556" y2="1556"/>
  <line id="Capline-L" style="fill:none;stroke:#27AAE1;opacity:1;stroke-width:0.5;" x1="263" x2="3036" y1="1485.54" y2="1485.54"/>
  <line id="left-margin-Ultralight-S" style="fill:none;stroke:#00AEEF;stroke-width:0.5;opacity:1.0;" x1="515.866" x2="515.866" y1="600.785" y2="720.121"/>
  <line id="right-margin-Ultralight-S" style="fill:none;stroke:#00AEEF;stroke-width:0.5;opacity:1.0;" x1="603.556" x2="603.556" y1="600.785" y2="720.121"/>
  <line id="left-margin-Regular-S" style="fill:none;stroke:#00AEEF;stroke-width:0.5;opacity:1.0;" x1="1398.57" x2="1398.57" y1="600.785" y2="720.121"/>
  <line id="right-margin-Regular-S" style="fill:none;stroke:#00AEEF;stroke-width:0.5;opacity:1.0;" x1="1501.11" x2="1501.11" y1="600.785" y2="720.121"/>
  <line id="left-margin-Black-S" style="fill:none;stroke:#00AEEF;stroke-width:0.5;opacity:1.0;" x1="2880.28" x2="2880.28" y1="600.785" y2="720.121"/>
  <line id="right-margin-Black-S" style="fill:none;stroke:#00AEEF;stroke-width:0.5;opacity:1.0;" x1="2986.53" x2="2986.53" y1="600.785" y2="720.121"/>
 </g>
 <g id="Symbols">
  <g id="Black-S" transform="matrix(1 0 0 1 2880.28 696)">
   <path class="monochrome-0 SFSymbolsPreview000000" d="M90.5273-71.2402C80.1758-81.5918 62.207-80.2246 50.4395-68.457C43.6035-61.6211 40.9668-52.7832 40.6738-44.4824C40.1855-31.7383 39.3555-26.123 27.832-14.9414L34.2285-8.54492C45.4102-20.0684 51.0254-20.6055 63.7695-21.3867C72.0215-21.875 80.9082-24.3164 87.7441-31.1523C99.5117-42.9199 100.879-60.8887 90.5273-71.2402ZM83.5938-64.3066C90.6738-57.2754 89.8926-47.1191 80.8105-38.0371C71.6797-28.9551 61.5723-28.1738 54.4922-35.2051C47.4609-42.2852 48.2422-52.3926 57.3242-61.5234C66.4062-70.6055 76.5625-71.3867 83.5938-64.3066ZM11.084 6.88477L12.2559 8.05664C15.2832 11.1328 19.7754 11.1328 22.8027 8.05664L36.2305-5.37109C39.2578-8.39844 39.2578-12.8906 36.2305-15.918L35.0586-17.0898C32.0312-20.1172 27.5391-20.1172 24.5117-17.0898L11.084-3.66211C8.05664-0.634766 8.05664 3.85742 11.084 6.88477ZM53.2227-30.8105L55.3223-28.7598L90.0879-63.5742L88.0371-65.625ZM48.0469-36.0352L50.0977-33.9355L84.9121-68.75L82.8613-70.8008ZM56.4941-65.1367L84.4238-37.207L86.4746-39.3066L58.5938-67.1875ZM51.6602-60.3027L79.5898-32.373L81.6406-34.4727L53.7598-62.3535ZM61.5234-29.4434L63.5742-27.3926L91.5039-55.2734L89.4043-57.373ZM46.6797-44.2871L48.7305-42.2363L76.6602-70.1172L74.5605-72.2168ZM60.9863-69.6289L88.916-41.6992L90.9668-43.7988L63.0859-71.6797ZM47.168-55.8105L75.0977-27.8809L77.1484-29.9805L49.2676-57.8613ZM45.8008-48.1934L67.1387-26.8555L69.2383-28.9551L47.9004-50.293ZM68.6035-70.9961L89.9414-49.6582L91.9922-51.709L70.6543-73.0469ZM47.6074-28.3203C47.9492-27.9785 48.2422-27.6855 48.584-27.3926C47.6074-27.0996 46.6309-26.7578 45.6543-26.3672C46.0449-27.3438 46.3867-28.3203 46.6797-29.2969C46.9238-29.0039 47.2656-28.6621 47.6074-28.3203Z"/>
  </g>
  <g id="Regular-S" transform="matrix(1 0 0 1 1398.57 696)">
   <path class="monochrome-0 SFSymbolsPreview000000" d="M87.2559-69.8242C77.6367-79.4922 60.7422-78.2227 49.6094-67.0898C43.1641-60.5957 40.5273-52.6367 40.332-44.6289C40.0391-32.7148 39.0625-25.8789 28.1738-15.0391L32.4707-10.791C43.3105-21.6309 50.0977-22.4121 62.0117-22.9004C70.1172-23.2422 77.9785-25.7324 84.4727-32.2266C95.6055-43.4082 96.875-60.2051 87.2559-69.8242ZM82.6172-65.1855C90.1367-57.6172 89.3066-46.2891 79.834-36.8652C70.3125-27.3926 58.9844-26.4648 51.4648-34.0332C43.8965-41.5039 44.7754-52.9297 54.248-62.4023C63.6719-71.8262 75.0977-72.7051 82.6172-65.1855ZM10.2539 4.39453L12.8418 7.03125C14.8438 8.98438 17.7246 8.98438 19.7266 7.03125L34.8145-8.10547C36.7676-10.1074 36.7676-12.9883 34.8145-14.9414L32.2266-17.5293C30.2246-19.5312 27.3438-19.5312 25.3906-17.5293L10.2539-2.39258C8.30078-0.439453 8.30078 2.44141 10.2539 4.39453ZM51.416-30.5176L53.5156-28.5156L88.1348-63.1348L86.1328-65.2344ZM45.8984-36.084L47.9492-34.082L82.5684-68.6523L80.6152-70.7031ZM54.4922-64.9902L82.3242-37.0605L84.4238-39.1113L56.543-67.041ZM49.6582-60.1074L77.4902-32.2266L79.5898-34.2773L51.6602-62.207ZM60.3516-28.4668L62.4023-26.416L90.2344-54.248L88.1836-56.25ZM43.8477-44.9707L45.8496-42.9688L73.6816-70.8008L71.6797-72.8516ZM59.7656-70.0195L87.4023-42.334L89.502-44.3848L61.8164-72.0703ZM44.5801-54.834L72.2656-27.1973L74.2676-29.1992L46.582-56.8848ZM42.5293-46.4844L63.5742-25.4395L65.625-27.5391L44.5801-48.5352ZM68.1641-72.0703L89.1602-51.0742L91.1621-53.0762L70.166-74.0723ZM46.7773-29.3945C47.7539-28.2715 48.9746-27.4414 50.1953-26.6113C46.875-26.0254 43.7012-24.9023 40.4297-22.998C42.334-26.2695 43.4082-29.4434 43.9941-32.7148C44.7754-31.4941 45.752-30.4199 46.7773-29.3945Z"/>
  </g>
  <g id="Ultralight-S" transform="matrix(1 0 0 1 515.866 696)">
   <path class="monochrome-0 SFSymbolsPreview000000" d="M73.4059-63.5577C65.2398-71.7271 51.4332-70.6846 41.7081-61.0049C35.8985-55.1465 33.3526-47.6416 33.7476-41.1324C34.3174-31.3071 32.4781-25.334 23.1788-15.9473L25.8863-13.2886C35.0914-22.4936 40.8341-24.0923 50.7501-23.854C57.5841-23.7417 64.9005-25.9141 70.8043-31.8633C80.5294-41.5918 81.6173-55.3916 73.4059-63.5577ZM71.8551-62.0069C79.3746-54.5747 78.4537-42.52 69.2989-33.4141C60.1407-24.3047 48.1768-23.4224 40.7027-30.8545C33.1798-38.3252 34.1041-50.3413 43.2589-59.4507C52.4102-68.5567 64.3809-69.5264 71.8551-62.0069ZM9.43653-1.91743L11.752 0.446829C12.6641 1.26471 13.9556 1.26471 14.8223 0.446829L28.3663-13.1005C29.2296-13.9673 29.2296-15.3042 28.3663-16.1675L26.0054-18.4829C25.1841-19.3496 23.8018-19.3496 22.9839-18.4829L9.43653-4.93553C8.57324-4.11765 8.57324-2.82613 9.43653-1.91743ZM42.0616-28.2925L43.4801-26.8355L75.9195-59.2749L74.4625-60.6934ZM36.7257-33.6319L38.0953-32.2202L70.5348-64.6563L69.172-66.0713ZM44.2296-62.084L71.6075-34.6992L73.0714-36.1143L45.69-63.4536ZM39.2594-57.1104L66.6373-29.729L68.0103-31.0987L40.671-58.4834ZM50.316-25.8784L51.731-24.4634L78.2462-50.9785L76.8766-52.3902ZM34.2662-41.9282L35.7232-40.4712L62.2838-67.0318L60.8722-68.4468ZM51.2286-65.3877L75.1417-41.4712L76.5602-42.8408L52.689-66.7574ZM35.9522-50.1114L59.8687-26.1983L61.2804-27.5645L37.3638-51.481ZM34.8096-40.5811L50.4054-25.0308L51.8204-26.4038L36.2247-41.9961ZM61.0801-66.167L75.9913-51.2559L77.4029-52.6675L62.4463-67.5787ZM39.1485-29.3037C40.7154-27.772 42.481-26.5786 44.3374-25.7031C38.6104-24.8901 33.484-22.9043 27.3971-17.5035C32.7525-23.6358 34.7349-28.7622 35.5025-34.5312C36.3746-32.6294 37.6236-30.8286 39.1485-29.3037Z"/>
  </g>
 </g>
</svg>
