<?xml version="1.0" encoding="UTF-8"?>
<!--Generator: Apple Native CoreSVG 175.5-->
<!DOCTYPE svg
PUBLIC "-//W3C//DTD SVG 1.1//EN"
       "http://www.w3.org/Graphics/SVG/1.1/DTD/svg11.dtd">
<svg version="1.1" xmlns="http://www.w3.org/2000/svg" xmlns:xlink="http://www.w3.org/1999/xlink" width="3300" height="2200">
 <!--glyph: "uni101319.medium", point size: 100.0, font version: "18.0d11e1", template writer version: "90"-->
 <style>.monochrome-0 {fill:#000000}
.monochrome-1 {fill:#000000}

.hierarchical-0:secondary {fill:#4D4D4D}
.hierarchical-1:primary {fill:#212121}

.SFSymbolsPreview212121 {fill:#212121;opacity:1.0}
.SFSymbolsPreview4D4D4D {fill:#4D4D4D;opacity:1.0}
</style>
 <g id="Notes">
  <rect height="2200" id="artboard" style="fill:white;opacity:1" width="3300" x="0" y="0"/>
  <line style="fill:none;stroke:black;opacity:1;stroke-width:0.5;" x1="263" x2="3036" y1="292" y2="292"/>
  <text style="stroke:none;fill:black;font-family:sans-serif;font-size:13;font-weight:bold;" transform="matrix(1 0 0 1 263 322)">Weight/Scale Variations</text>
  <text style="stroke:none;fill:black;font-family:sans-serif;font-size:13;text-anchor:middle;" transform="matrix(1 0 0 1 559.711 322)">Ultralight</text>
  <text style="stroke:none;fill:black;font-family:sans-serif;font-size:13;text-anchor:middle;" transform="matrix(1 0 0 1 856.422 322)">Thin</text>
  <text style="stroke:none;fill:black;font-family:sans-serif;font-size:13;text-anchor:middle;" transform="matrix(1 0 0 1 1153.13 322)">Light</text>
  <text style="stroke:none;fill:black;font-family:sans-serif;font-size:13;text-anchor:middle;" transform="matrix(1 0 0 1 1449.84 322)">Regular</text>
  <text style="stroke:none;fill:black;font-family:sans-serif;font-size:13;text-anchor:middle;" transform="matrix(1 0 0 1 1746.56 322)">Medium</text>
  <text style="stroke:none;fill:black;font-family:sans-serif;font-size:13;text-anchor:middle;" transform="matrix(1 0 0 1 2043.27 322)">Semibold</text>
  <text style="stroke:none;fill:black;font-family:sans-serif;font-size:13;text-anchor:middle;" transform="matrix(1 0 0 1 2339.98 322)">Bold</text>
  <text style="stroke:none;fill:black;font-family:sans-serif;font-size:13;text-anchor:middle;" transform="matrix(1 0 0 1 2636.69 322)">Heavy</text>
  <text style="stroke:none;fill:black;font-family:sans-serif;font-size:13;text-anchor:middle;" transform="matrix(1 0 0 1 2933.4 322)">Black</text>
  <line style="fill:none;stroke:black;opacity:1;stroke-width:0.5;" x1="263" x2="3036" y1="1903" y2="1903"/>
  <g transform="matrix(1 0 0 1 263 1933)">
   <path d="M9.24805 0.830078C13.5547 0.830078 17.1387-2.74414 17.1387-7.05078C17.1387-11.3574 13.5449-14.9316 9.23828-14.9316C4.94141-14.9316 1.36719-11.3574 1.36719-7.05078C1.36719-2.74414 4.95117 0.830078 9.24805 0.830078ZM9.24805-0.654297C5.70312-0.654297 2.87109-3.49609 2.87109-7.05078C2.87109-10.6055 5.69336-13.4473 9.23828-13.4473C12.793-13.4473 15.6445-10.6055 15.6445-7.05078C15.6445-3.49609 12.8027-0.654297 9.24805-0.654297ZM5.6543-7.05078C5.6543-6.62109 5.95703-6.32812 6.40625-6.32812L8.50586-6.32812L8.50586-4.20898C8.50586-3.76953 8.79883-3.4668 9.22852-3.4668C9.67773-3.4668 9.9707-3.76953 9.9707-4.20898L9.9707-6.32812L12.0898-6.32812C12.5293-6.32812 12.832-6.62109 12.832-7.05078C12.832-7.49023 12.5293-7.79297 12.0898-7.79297L9.9707-7.79297L9.9707-9.90234C9.9707-10.3516 9.67773-10.6543 9.22852-10.6543C8.79883-10.6543 8.50586-10.3516 8.50586-9.90234L8.50586-7.79297L6.40625-7.79297C5.95703-7.79297 5.6543-7.49023 5.6543-7.05078Z"/>
  </g>
  <g transform="matrix(1 0 0 1 281.867 1933)">
   <path d="M11.709 2.91016C17.1582 2.91016 21.6699-1.61133 21.6699-7.05078C21.6699-12.5 17.1484-17.0117 11.6992-17.0117C6.25977-17.0117 1.74805-12.5 1.74805-7.05078C1.74805-1.61133 6.26953 2.91016 11.709 2.91016ZM11.709 1.25C7.09961 1.25 3.41797-2.44141 3.41797-7.05078C3.41797-11.6602 7.08984-15.3516 11.6992-15.3516C16.3086-15.3516 20.0098-11.6602 20.0098-7.05078C20.0098-2.44141 16.3184 1.25 11.709 1.25ZM7.17773-7.05078C7.17773-6.57227 7.50977-6.25 8.00781-6.25L10.8789-6.25L10.8789-3.36914C10.8789-2.88086 11.2109-2.53906 11.6895-2.53906C12.1777-2.53906 12.5195-2.87109 12.5195-3.36914L12.5195-6.25L15.4004-6.25C15.8887-6.25 16.2305-6.57227 16.2305-7.05078C16.2305-7.53906 15.8887-7.88086 15.4004-7.88086L12.5195-7.88086L12.5195-10.752C12.5195-11.25 12.1777-11.5918 11.6895-11.5918C11.2109-11.5918 10.8789-11.25 10.8789-10.752L10.8789-7.88086L8.00781-7.88086C7.50977-7.88086 7.17773-7.53906 7.17773-7.05078Z"/>
  </g>
  <g transform="matrix(1 0 0 1 305.646 1933)">
   <path d="M14.9707 5.66406C21.9336 5.66406 27.6953-0.0976562 27.6953-7.05078C27.6953-14.0137 21.9238-19.7754 14.9609-19.7754C8.00781-19.7754 2.25586-14.0137 2.25586-7.05078C2.25586-0.0976562 8.01758 5.66406 14.9707 5.66406ZM14.9707 3.84766C8.93555 3.84766 4.08203-1.01562 4.08203-7.05078C4.08203-13.0957 8.92578-17.9492 14.9609-17.9492C21.0059-17.9492 25.8691-13.0957 25.8691-7.05078C25.8691-1.01562 21.0156 3.84766 14.9707 3.84766ZM9.19922-7.05078C9.19922-6.5332 9.57031-6.17188 10.1172-6.17188L14.0625-6.17188L14.0625-2.2168C14.0625-1.67969 14.4336-1.29883 14.9512-1.29883C15.4883-1.29883 15.8594-1.66992 15.8594-2.2168L15.8594-6.17188L19.8145-6.17188C20.3516-6.17188 20.7324-6.5332 20.7324-7.05078C20.7324-7.59766 20.3613-7.96875 19.8145-7.96875L15.8594-7.96875L15.8594-11.9141C15.8594-12.4609 15.4883-12.8418 14.9512-12.8418C14.4336-12.8418 14.0625-12.4609 14.0625-11.9141L14.0625-7.96875L10.1172-7.96875C9.57031-7.96875 9.19922-7.59766 9.19922-7.05078Z"/>
  </g>
  <text style="stroke:none;fill:black;font-family:sans-serif;font-size:13;font-weight:bold;" transform="matrix(1 0 0 1 263 1953)">Design Variations</text>
  <text style="stroke:none;fill:black;font-family:sans-serif;font-size:13;" transform="matrix(1 0 0 1 263 1971)">Symbols are supported in up to nine weights and three scales.</text>
  <text style="stroke:none;fill:black;font-family:sans-serif;font-size:13;" transform="matrix(1 0 0 1 263 1989)">For optimal layout with text and other symbols, vertically align</text>
  <text style="stroke:none;fill:black;font-family:sans-serif;font-size:13;" transform="matrix(1 0 0 1 263 2007)">symbols with the adjacent text.</text>
  <line style="fill:none;stroke:#00AEEF;stroke-width:0.5;opacity:1.0;" x1="776" x2="776" y1="1919" y2="1933"/>
  <g transform="matrix(1 0 0 1 776 1933)">
   <path d="M3.31055 0.15625C3.82812 0.15625 4.08203-0.0390625 4.26758-0.585938L5.52734-4.0332L11.2891-4.0332L12.5488-0.585938C12.7344-0.0390625 12.9883 0.15625 13.4961 0.15625C14.0137 0.15625 14.3457-0.15625 14.3457-0.644531C14.3457-0.810547 14.3164-0.966797 14.2383-1.17188L9.6582-13.3691C9.43359-13.9648 9.0332-14.2676 8.4082-14.2676C7.80273-14.2676 7.39258-13.9746 7.17773-13.3789L2.59766-1.16211C2.51953-0.957031 2.49023-0.800781 2.49023-0.634766C2.49023-0.146484 2.80273 0.15625 3.31055 0.15625ZM6.00586-5.51758L8.37891-12.0898L8.42773-12.0898L10.8008-5.51758Z"/>
  </g>
  <line style="fill:none;stroke:#00AEEF;stroke-width:0.5;opacity:1.0;" x1="793.197" x2="793.197" y1="1919" y2="1933"/>
  <text style="stroke:none;fill:black;font-family:sans-serif;font-size:13;font-weight:bold;" transform="matrix(1 0 0 1 776 1953)">Margins</text>
  <text style="stroke:none;fill:black;font-family:sans-serif;font-size:13;" transform="matrix(1 0 0 1 776 1971)">Leading and trailing margins on the left and right side of each symbol</text>
  <text style="stroke:none;fill:black;font-family:sans-serif;font-size:13;" transform="matrix(1 0 0 1 776 1989)">can be adjusted by modifying the x-location of the margin guidelines.</text>
  <text style="stroke:none;fill:black;font-family:sans-serif;font-size:13;" transform="matrix(1 0 0 1 776 2007)">Modifications are automatically applied proportionally to all</text>
  <text style="stroke:none;fill:black;font-family:sans-serif;font-size:13;" transform="matrix(1 0 0 1 776 2025)">scales and weights.</text>
  <g transform="matrix(1 0 0 1 1289 1933)">
   <path d="M2.8418 1.86523L4.54102 3.57422C5.40039 4.44336 6.38672 4.38477 7.31445 3.35938L18.0078-8.42773L17.041-9.4043L6.42578 2.27539C6.07422 2.67578 5.74219 2.77344 5.27344 2.30469L4.10156 1.14258C3.63281 0.683594 3.74023 0.341797 4.14062-0.0195312L15.6152-10.8203L14.6387-11.7871L3.04688-0.898438C2.06055 0.0195312 1.98242 0.996094 2.8418 1.86523ZM9.25781-16.3281C8.83789-15.918 8.80859-15.3418 9.04297-14.9512C9.27734-14.5898 9.73633-14.3555 10.3809-14.5215C11.8457-14.8633 13.3691-14.9219 14.7949-13.9844L14.209-12.5293C13.8672-11.6992 14.043-11.1133 14.5801-10.5664L16.875-8.25195C17.3633-7.76367 17.7734-7.74414 18.3398-7.8418L19.4043-8.03711L20.0684-7.36328L20.0293-6.80664C19.9902-6.30859 20.1172-5.92773 20.6055-5.44922L21.3672-4.70703C21.8457-4.22852 22.4609-4.19922 22.9297-4.66797L25.8398-7.58789C26.3086-8.05664 26.2891-8.65234 25.8105-9.13086L25.0391-9.89258C24.5605-10.3711 24.1895-10.5273 23.7109-10.4883L23.1348-10.4395L22.4902-11.0742L22.7344-12.1973C22.8613-12.7637 22.7051-13.2031 22.1191-13.7891L19.9219-15.9766C16.582-19.2969 12.1484-19.2188 9.25781-16.3281ZM10.752-15.957C13.1836-17.7344 16.4746-17.4316 18.7012-15.2051L21.1328-12.793C21.3672-12.5586 21.4062-12.373 21.3379-12.0312L21.0156-10.5469L22.5195-9.0625L23.5059-9.12109C23.7598-9.13086 23.8379-9.11133 24.0332-8.91602L24.6094-8.33984L22.168-5.89844L21.5918-6.47461C21.3965-6.66992 21.3672-6.74805 21.377-7.01172L21.4453-7.98828L19.9512-9.47266L18.4277-9.21875C18.1055-9.15039 17.959-9.17969 17.7148-9.41406L15.7129-11.416C15.459-11.6504 15.4297-11.8164 15.5859-12.1875L16.4648-14.2773C14.9023-15.7324 12.8711-16.3574 10.8398-15.7617C10.6836-15.7227 10.625-15.8496 10.752-15.957Z"/>
  </g>
  <text style="stroke:none;fill:black;font-family:sans-serif;font-size:13;font-weight:bold;" transform="matrix(1 0 0 1 1289 1953)">Exporting</text>
  <text style="stroke:none;fill:black;font-family:sans-serif;font-size:13;" transform="matrix(1 0 0 1 1289 1971)">Symbols should be outlined when exporting to ensure the</text>
  <text style="stroke:none;fill:black;font-family:sans-serif;font-size:13;" transform="matrix(1 0 0 1 1289 1989)">design is preserved when submitting to Xcode.</text>
  <text id="template-version" style="stroke:none;fill:black;font-family:sans-serif;font-size:13;text-anchor:end;" transform="matrix(1 0 0 1 3036 1933)">Template v.4.0</text>
  <text style="stroke:none;fill:black;font-family:sans-serif;font-size:13;text-anchor:end;" transform="matrix(1 0 0 1 3036 1951)">Requires Xcode 14 or greater</text>
  <text id="descriptive-name" style="stroke:none;fill:black;font-family:sans-serif;font-size:13;text-anchor:end;" transform="matrix(1 0 0 1 3036 1969)">Generated from fan.desk</text>
  <text style="stroke:none;fill:black;font-family:sans-serif;font-size:13;text-anchor:end;" transform="matrix(1 0 0 1 3036 1987)">Typeset at 100 points</text>
  <text style="stroke:none;fill:black;font-family:sans-serif;font-size:13;" transform="matrix(1 0 0 1 263 726)">Small</text>
  <text style="stroke:none;fill:black;font-family:sans-serif;font-size:13;" transform="matrix(1 0 0 1 263 1156)">Medium</text>
  <text style="stroke:none;fill:black;font-family:sans-serif;font-size:13;" transform="matrix(1 0 0 1 263 1586)">Large</text>
 </g>
 <g id="Guides">
  <g id="H-reference" style="fill:#27AAE1;stroke:none;" transform="matrix(1 0 0 1 339 696)">
   <path d="M0.993654 0L3.63775 0L29.3281-67.1323L30.0303-67.1323L30.0303-70.459L28.1226-70.459ZM11.6885-24.4799L46.9815-24.4799L46.2315-26.7285L12.4385-26.7285ZM55.1196 0L57.7637 0L30.6382-70.459L29.4326-70.459L29.4326-67.1323Z"/>
  </g>
  <line id="Baseline-S" style="fill:none;stroke:#27AAE1;opacity:1;stroke-width:0.5;" x1="263" x2="3036" y1="696" y2="696"/>
  <line id="Capline-S" style="fill:none;stroke:#27AAE1;opacity:1;stroke-width:0.5;" x1="263" x2="3036" y1="625.541" y2="625.541"/>
  <g id="H-reference" style="fill:#27AAE1;stroke:none;" transform="matrix(1 0 0 1 339 1126)">
   <path d="M0.993654 0L3.63775 0L29.3281-67.1323L30.0303-67.1323L30.0303-70.459L28.1226-70.459ZM11.6885-24.4799L46.9815-24.4799L46.2315-26.7285L12.4385-26.7285ZM55.1196 0L57.7637 0L30.6382-70.459L29.4326-70.459L29.4326-67.1323Z"/>
  </g>
  <line id="Baseline-M" style="fill:none;stroke:#27AAE1;opacity:1;stroke-width:0.5;" x1="263" x2="3036" y1="1126" y2="1126"/>
  <line id="Capline-M" style="fill:none;stroke:#27AAE1;opacity:1;stroke-width:0.5;" x1="263" x2="3036" y1="1055.54" y2="1055.54"/>
  <g id="H-reference" style="fill:#27AAE1;stroke:none;" transform="matrix(1 0 0 1 339 1556)">
   <path d="M0.993654 0L3.63775 0L29.3281-67.1323L30.0303-67.1323L30.0303-70.459L28.1226-70.459ZM11.6885-24.4799L46.9815-24.4799L46.2315-26.7285L12.4385-26.7285ZM55.1196 0L57.7637 0L30.6382-70.459L29.4326-70.459L29.4326-67.1323Z"/>
  </g>
  <line id="Baseline-L" style="fill:none;stroke:#27AAE1;opacity:1;stroke-width:0.5;" x1="263" x2="3036" y1="1556" y2="1556"/>
  <line id="Capline-L" style="fill:none;stroke:#27AAE1;opacity:1;stroke-width:0.5;" x1="263" x2="3036" y1="1485.54" y2="1485.54"/>
  <line id="left-margin-Ultralight-S" style="fill:none;stroke:#00AEEF;stroke-width:0.5;opacity:1.0;" x1="514.466" x2="514.466" y1="600.785" y2="720.121"/>
  <line id="right-margin-Ultralight-S" style="fill:none;stroke:#00AEEF;stroke-width:0.5;opacity:1.0;" x1="604.957" x2="604.957" y1="600.785" y2="720.121"/>
  <line id="left-margin-Regular-S" style="fill:none;stroke:#00AEEF;stroke-width:0.5;opacity:1.0;" x1="1400.63" x2="1400.63" y1="600.785" y2="720.121"/>
  <line id="right-margin-Regular-S" style="fill:none;stroke:#00AEEF;stroke-width:0.5;opacity:1.0;" x1="1499.06" x2="1499.06" y1="600.785" y2="720.121"/>
  <line id="left-margin-Black-S" style="fill:none;stroke:#00AEEF;stroke-width:0.5;opacity:1.0;" x1="2881.98" x2="2881.98" y1="600.785" y2="720.121"/>
  <line id="right-margin-Black-S" style="fill:none;stroke:#00AEEF;stroke-width:0.5;opacity:1.0;" x1="2984.82" x2="2984.82" y1="600.785" y2="720.121"/>
 </g>
 <g id="Symbols">
  <g id="Black-S" transform="matrix(1 0 0 1 2881.98 696)">
   <path class="monochrome-0 hierarchical-0:secondary SFSymbolsPreview4D4D4D" d="M51.416-1.80664C74.4141-1.80664 93.0664-20.459 93.0664-43.457C93.0664-66.4551 74.4141-85.1074 51.416-85.1074C28.418-85.1074 9.76562-66.4551 9.76562-43.457C9.76562-20.459 28.418-1.80664 51.416-1.80664ZM51.416-13.0371C34.6191-13.0371 20.9961-26.6602 20.9961-43.457C20.9961-60.2539 34.6191-73.877 51.416-73.877C68.2129-73.877 81.8359-60.2539 81.8359-43.457C81.8359-26.6602 68.2129-13.0371 51.416-13.0371ZM27.5879 14.6484L75.2441 14.6484C78.2227 14.6484 79.7363 12.1094 79.7363 9.13086C79.7363 4.88281 75.9277 2.09961 71.4844 2.09961L31.3477 2.09961C26.9043 2.09961 23.0957 4.88281 23.0957 9.13086C23.0957 12.1094 24.6094 14.6484 27.5879 14.6484ZM45.0684-8.64258L45.0684 6.44531L57.7637 6.44531L57.7637-8.64258Z"/>
   <path class="monochrome-1 hierarchical-1:primary SFSymbolsPreview212121" d="M40.0391-20.8496C45.8008-20.8496 49.0723-25.2441 50.5859-33.1055C51.5137-33.0566 52.0508-33.0566 52.8809-33.1543L52.8809-26.1719C52.8809-21.6797 55.4199-19.043 59.8145-19.043C67.1875-19.043 74.0234-24.9512 74.0234-32.0801C74.0234-37.793 69.7266-41.1133 61.8164-42.627C61.8652-43.5059 61.8652-44.0918 61.7676-44.873L68.7012-44.873C73.1934-44.873 75.8301-47.4121 75.8301-51.8066C75.8301-59.1797 69.9219-66.0645 62.793-66.0645C57.0801-66.0645 53.7598-61.7188 52.2461-53.8574C51.2695-53.9062 50.7812-53.9062 49.9512-53.8086L49.9512-60.7422C49.9512-65.2344 47.4121-67.8711 43.0176-67.8711C35.6445-67.8711 28.8086-61.9629 28.8086-54.834C28.8086-49.0723 33.1543-45.8008 41.0645-44.2871C41.0156-43.457 41.0156-42.9199 41.1133-42.041L34.1309-42.041C29.6387-42.041 27.002-39.502 27.002-35.1074C27.002-27.7344 32.9102-20.8496 40.0391-20.8496ZM51.416-38.3789C48.584-38.3789 46.3379-40.7227 46.3379-43.457C46.3379-46.2891 48.584-48.5352 51.416-48.5352C54.248-48.5352 56.4941-46.1914 56.4941-43.457C56.4941-40.625 54.248-38.3789 51.416-38.3789Z"/>
  </g>
  <g id="Regular-S" transform="matrix(1 0 0 1 1400.63 696)">
   <path class="monochrome-0 hierarchical-0:secondary SFSymbolsPreview4D4D4D" d="M49.2188-1.9043C71.0449-1.9043 88.6719-19.5801 88.6719-41.4062C88.6719-63.1836 71.0449-80.8594 49.2188-80.8594C27.4414-80.8594 9.76562-63.1836 9.76562-41.4062C9.76562-19.5801 27.4414-1.9043 49.2188-1.9043ZM49.2188-8.98438C31.3477-8.98438 16.7969-23.4863 16.7969-41.4062C16.7969-59.2773 31.3477-73.8281 49.2188-73.8281C67.1387-73.8281 81.6406-59.2773 81.6406-41.4062C81.6406-23.4863 67.1387-8.98438 49.2188-8.98438ZM28.125 10.4004L70.3613 10.4004C71.9727 10.4004 72.998 9.27734 72.998 7.56836C72.998 4.29688 70.3125 2.05078 66.2598 2.05078L32.2266 2.05078C28.125 2.05078 25.4883 4.29688 25.4883 7.56836C25.4883 9.27734 26.5137 10.4004 28.125 10.4004ZM45.7031-4.73633L45.7031 6.25L52.7344 6.25L52.7344-4.73633Z"/>
   <path class="monochrome-1 hierarchical-1:primary SFSymbolsPreview212121" d="M37.1094-17.0898C42.7246-17.0898 45.6055-21.9238 49.1699-30.2734C49.9023-30.2734 50.5371-30.3223 51.1719-30.4199L51.1719-22.3145C51.1719-17.9688 53.418-15.5762 57.7148-15.5762C65.4297-15.5762 73.2422-22.6074 73.2422-29.0039C73.2422-34.5703 68.5059-37.4023 60.4004-40.8691C60.4004-41.6992 60.4004-42.2363 60.3027-43.0664L68.0176-43.0664C72.3633-43.0664 74.8047-45.3125 74.8047-49.6094C74.8047-57.2754 67.7734-65.1367 61.377-65.1367C55.8594-65.1367 52.9785-60.5469 49.5605-52.5391C48.7793-52.5391 48.0469-52.5391 47.2656-52.3438L47.2656-59.9121C47.2656-64.2578 45.0684-66.6504 40.7715-66.6504C33.0566-66.6504 25.2441-59.6191 25.2441-53.2227C25.2441-47.6562 29.9805-44.8242 38.1348-41.3086C38.1348-40.5762 38.2324-39.8438 38.3789-39.1602L30.4688-39.1602C26.123-39.1602 23.6816-36.9141 23.6816-32.6172C23.6816-24.9512 30.7129-17.0898 37.1094-17.0898ZM49.2188-35.8887C46.2891-35.8887 44.043-38.1836 44.043-41.1133C44.043-44.043 46.2891-46.3379 49.2188-46.3379C52.1484-46.3379 54.4434-44.043 54.4434-41.1133C54.4434-38.1836 52.1484-35.8887 49.2188-35.8887Z"/>
  </g>
  <g id="Ultralight-S" transform="matrix(1 0 0 1 514.466 696)">
   <path class="monochrome-0 hierarchical-0:secondary SFSymbolsPreview4D4D4D" d="M45.2227-3.94774C64.8238-3.94774 80.7252-19.7617 80.7252-39.4082C80.7252-59.0059 64.8692-74.9107 45.2227-74.9107C25.625-74.9107 9.76562-59.0513 9.76562-39.4082C9.76562-19.8071 25.5796-3.94774 45.2227-3.94774ZM45.2227-6.16897C26.8521-6.16897 11.9834-21.0342 11.9834-39.4536C11.9834-57.8242 26.8521-72.7383 45.2227-72.7383C63.5967-72.7383 78.5528-57.8242 78.5528-39.4536C78.5528-21.0342 63.5967-6.16897 45.2227-6.16897ZM28.6699 4.4063L61.8697 4.4063C62.482 4.4063 62.9171 3.9644 62.9171 3.39066C62.9171 2.25343 62.0933 1.2334 60.3565 1.2334L30.1831 1.2334C28.4429 1.2334 27.6225 2.25343 27.6225 3.39066C27.6225 3.9644 28.0576 4.4063 28.6699 4.4063ZM44.1592-4.55469L44.1592 3.0259L46.377 3.0259L46.377-4.55469Z"/>
   <path class="monochrome-1 hierarchical-1:primary SFSymbolsPreview212121" d="M32.75-14.8194C38.774-14.8194 42.4268-19.5171 44.4019-29.7285C45.543-29.6831 46.2232-29.6411 47.085-29.875L47.085-18.4092C47.085-13.9727 49.1949-11.8072 53.4463-11.8072C61.7969-11.8072 69.8819-18.9746 69.8819-26.9151C69.8819-32.9356 65.1455-36.5396 54.9966-38.5078C55.0874-39.1109 54.9966-40.6016 54.8536-41.2954L66.2466-41.2954C70.6831-41.2954 72.8521-43.4053 72.8521-47.6568C72.8521-56.0039 65.73-64.0469 57.7896-64.0469C51.7271-64.0469 48.1651-59.3662 46.1094-49.1787C45.7368-49.2241 44.3233-49.2241 43.4512-49.0742L43.4512-60.457C43.4512-64.8935 41.3448-67.0591 37.0933-67.0591C28.7427-67.0591 20.6578-59.8916 20.6578-51.9512C20.6578-45.9307 25.3941-42.3267 35.5464-40.4004C35.4556-39.7134 35.5532-38.2544 35.6997-37.5708L24.293-37.5708C19.8565-37.5708 17.6875-35.4609 17.6875-31.2095C17.6875-22.8623 24.8096-14.8194 32.75-14.8194ZM45.2227-32.8916C41.7027-32.8916 38.6846-35.8223 38.6846-39.3877C38.6846-42.9531 41.6573-46.02 45.2227-46.02C48.7881-46.02 51.855-42.9531 51.855-39.3877C51.855-35.8223 48.7881-32.8916 45.2227-32.8916Z"/>
  </g>
 </g>
</svg>
