<?xml version="1.0" encoding="UTF-8"?>
<!--Generator: Apple Native CoreSVG 175.5-->
<!DOCTYPE svg
PUBLIC "-//W3C//DTD SVG 1.1//EN"
       "http://www.w3.org/Graphics/SVG/1.1/DTD/svg11.dtd">
<svg version="1.1" xmlns="http://www.w3.org/2000/svg" xmlns:xlink="http://www.w3.org/1999/xlink" width="3300" height="2200">
 <!--glyph: "uni10164C.medium", point size: 100.0, font version: "18.0d11e1", template writer version: "90"-->
 <style>.monochrome-0 {fill:#000000}

.SFSymbolsPreview000000 {fill:#000000;opacity:1.0}
</style>
 <g id="Notes">
  <rect height="2200" id="artboard" style="fill:white;opacity:1" width="3300" x="0" y="0"/>
  <line style="fill:none;stroke:black;opacity:1;stroke-width:0.5;" x1="263" x2="3036" y1="292" y2="292"/>
  <text style="stroke:none;fill:black;font-family:sans-serif;font-size:13;font-weight:bold;" transform="matrix(1 0 0 1 263 322)">Weight/Scale Variations</text>
  <text style="stroke:none;fill:black;font-family:sans-serif;font-size:13;text-anchor:middle;" transform="matrix(1 0 0 1 559.711 322)">Ultralight</text>
  <text style="stroke:none;fill:black;font-family:sans-serif;font-size:13;text-anchor:middle;" transform="matrix(1 0 0 1 856.422 322)">Thin</text>
  <text style="stroke:none;fill:black;font-family:sans-serif;font-size:13;text-anchor:middle;" transform="matrix(1 0 0 1 1153.13 322)">Light</text>
  <text style="stroke:none;fill:black;font-family:sans-serif;font-size:13;text-anchor:middle;" transform="matrix(1 0 0 1 1449.84 322)">Regular</text>
  <text style="stroke:none;fill:black;font-family:sans-serif;font-size:13;text-anchor:middle;" transform="matrix(1 0 0 1 1746.56 322)">Medium</text>
  <text style="stroke:none;fill:black;font-family:sans-serif;font-size:13;text-anchor:middle;" transform="matrix(1 0 0 1 2043.27 322)">Semibold</text>
  <text style="stroke:none;fill:black;font-family:sans-serif;font-size:13;text-anchor:middle;" transform="matrix(1 0 0 1 2339.98 322)">Bold</text>
  <text style="stroke:none;fill:black;font-family:sans-serif;font-size:13;text-anchor:middle;" transform="matrix(1 0 0 1 2636.69 322)">Heavy</text>
  <text style="stroke:none;fill:black;font-family:sans-serif;font-size:13;text-anchor:middle;" transform="matrix(1 0 0 1 2933.4 322)">Black</text>
  <line style="fill:none;stroke:black;opacity:1;stroke-width:0.5;" x1="263" x2="3036" y1="1903" y2="1903"/>
  <g transform="matrix(1 0 0 1 263 1933)">
   <path d="M9.24805 0.830078C13.5547 0.830078 17.1387-2.74414 17.1387-7.05078C17.1387-11.3574 13.5449-14.9316 9.23828-14.9316C4.94141-14.9316 1.36719-11.3574 1.36719-7.05078C1.36719-2.74414 4.95117 0.830078 9.24805 0.830078ZM9.24805-0.654297C5.70312-0.654297 2.87109-3.49609 2.87109-7.05078C2.87109-10.6055 5.69336-13.4473 9.23828-13.4473C12.793-13.4473 15.6445-10.6055 15.6445-7.05078C15.6445-3.49609 12.8027-0.654297 9.24805-0.654297ZM5.6543-7.05078C5.6543-6.62109 5.95703-6.32812 6.40625-6.32812L8.50586-6.32812L8.50586-4.20898C8.50586-3.76953 8.79883-3.4668 9.22852-3.4668C9.67773-3.4668 9.9707-3.76953 9.9707-4.20898L9.9707-6.32812L12.0898-6.32812C12.5293-6.32812 12.832-6.62109 12.832-7.05078C12.832-7.49023 12.5293-7.79297 12.0898-7.79297L9.9707-7.79297L9.9707-9.90234C9.9707-10.3516 9.67773-10.6543 9.22852-10.6543C8.79883-10.6543 8.50586-10.3516 8.50586-9.90234L8.50586-7.79297L6.40625-7.79297C5.95703-7.79297 5.6543-7.49023 5.6543-7.05078Z"/>
  </g>
  <g transform="matrix(1 0 0 1 281.867 1933)">
   <path d="M11.709 2.91016C17.1582 2.91016 21.6699-1.61133 21.6699-7.05078C21.6699-12.5 17.1484-17.0117 11.6992-17.0117C6.25977-17.0117 1.74805-12.5 1.74805-7.05078C1.74805-1.61133 6.26953 2.91016 11.709 2.91016ZM11.709 1.25C7.09961 1.25 3.41797-2.44141 3.41797-7.05078C3.41797-11.6602 7.08984-15.3516 11.6992-15.3516C16.3086-15.3516 20.0098-11.6602 20.0098-7.05078C20.0098-2.44141 16.3184 1.25 11.709 1.25ZM7.17773-7.05078C7.17773-6.57227 7.50977-6.25 8.00781-6.25L10.8789-6.25L10.8789-3.36914C10.8789-2.88086 11.2109-2.53906 11.6895-2.53906C12.1777-2.53906 12.5195-2.87109 12.5195-3.36914L12.5195-6.25L15.4004-6.25C15.8887-6.25 16.2305-6.57227 16.2305-7.05078C16.2305-7.53906 15.8887-7.88086 15.4004-7.88086L12.5195-7.88086L12.5195-10.752C12.5195-11.25 12.1777-11.5918 11.6895-11.5918C11.2109-11.5918 10.8789-11.25 10.8789-10.752L10.8789-7.88086L8.00781-7.88086C7.50977-7.88086 7.17773-7.53906 7.17773-7.05078Z"/>
  </g>
  <g transform="matrix(1 0 0 1 305.646 1933)">
   <path d="M14.9707 5.66406C21.9336 5.66406 27.6953-0.0976562 27.6953-7.05078C27.6953-14.0137 21.9238-19.7754 14.9609-19.7754C8.00781-19.7754 2.25586-14.0137 2.25586-7.05078C2.25586-0.0976562 8.01758 5.66406 14.9707 5.66406ZM14.9707 3.84766C8.93555 3.84766 4.08203-1.01562 4.08203-7.05078C4.08203-13.0957 8.92578-17.9492 14.9609-17.9492C21.0059-17.9492 25.8691-13.0957 25.8691-7.05078C25.8691-1.01562 21.0156 3.84766 14.9707 3.84766ZM9.19922-7.05078C9.19922-6.5332 9.57031-6.17188 10.1172-6.17188L14.0625-6.17188L14.0625-2.2168C14.0625-1.67969 14.4336-1.29883 14.9512-1.29883C15.4883-1.29883 15.8594-1.66992 15.8594-2.2168L15.8594-6.17188L19.8145-6.17188C20.3516-6.17188 20.7324-6.5332 20.7324-7.05078C20.7324-7.59766 20.3613-7.96875 19.8145-7.96875L15.8594-7.96875L15.8594-11.9141C15.8594-12.4609 15.4883-12.8418 14.9512-12.8418C14.4336-12.8418 14.0625-12.4609 14.0625-11.9141L14.0625-7.96875L10.1172-7.96875C9.57031-7.96875 9.19922-7.59766 9.19922-7.05078Z"/>
  </g>
  <text style="stroke:none;fill:black;font-family:sans-serif;font-size:13;font-weight:bold;" transform="matrix(1 0 0 1 263 1953)">Design Variations</text>
  <text style="stroke:none;fill:black;font-family:sans-serif;font-size:13;" transform="matrix(1 0 0 1 263 1971)">Symbols are supported in up to nine weights and three scales.</text>
  <text style="stroke:none;fill:black;font-family:sans-serif;font-size:13;" transform="matrix(1 0 0 1 263 1989)">For optimal layout with text and other symbols, vertically align</text>
  <text style="stroke:none;fill:black;font-family:sans-serif;font-size:13;" transform="matrix(1 0 0 1 263 2007)">symbols with the adjacent text.</text>
  <line style="fill:none;stroke:#00AEEF;stroke-width:0.5;opacity:1.0;" x1="776" x2="776" y1="1919" y2="1933"/>
  <g transform="matrix(1 0 0 1 776 1933)">
   <path d="M3.31055 0.15625C3.82812 0.15625 4.08203-0.0390625 4.26758-0.585938L5.52734-4.0332L11.2891-4.0332L12.5488-0.585938C12.7344-0.0390625 12.9883 0.15625 13.4961 0.15625C14.0137 0.15625 14.3457-0.15625 14.3457-0.644531C14.3457-0.810547 14.3164-0.966797 14.2383-1.17188L9.6582-13.3691C9.43359-13.9648 9.0332-14.2676 8.4082-14.2676C7.80273-14.2676 7.39258-13.9746 7.17773-13.3789L2.59766-1.16211C2.51953-0.957031 2.49023-0.800781 2.49023-0.634766C2.49023-0.146484 2.80273 0.15625 3.31055 0.15625ZM6.00586-5.51758L8.37891-12.0898L8.42773-12.0898L10.8008-5.51758Z"/>
  </g>
  <line style="fill:none;stroke:#00AEEF;stroke-width:0.5;opacity:1.0;" x1="793.197" x2="793.197" y1="1919" y2="1933"/>
  <text style="stroke:none;fill:black;font-family:sans-serif;font-size:13;font-weight:bold;" transform="matrix(1 0 0 1 776 1953)">Margins</text>
  <text style="stroke:none;fill:black;font-family:sans-serif;font-size:13;" transform="matrix(1 0 0 1 776 1971)">Leading and trailing margins on the left and right side of each symbol</text>
  <text style="stroke:none;fill:black;font-family:sans-serif;font-size:13;" transform="matrix(1 0 0 1 776 1989)">can be adjusted by modifying the x-location of the margin guidelines.</text>
  <text style="stroke:none;fill:black;font-family:sans-serif;font-size:13;" transform="matrix(1 0 0 1 776 2007)">Modifications are automatically applied proportionally to all</text>
  <text style="stroke:none;fill:black;font-family:sans-serif;font-size:13;" transform="matrix(1 0 0 1 776 2025)">scales and weights.</text>
  <g transform="matrix(1 0 0 1 1289 1933)">
   <path d="M2.8418 1.86523L4.54102 3.57422C5.40039 4.44336 6.38672 4.38477 7.31445 3.35938L18.0078-8.42773L17.041-9.4043L6.42578 2.27539C6.07422 2.67578 5.74219 2.77344 5.27344 2.30469L4.10156 1.14258C3.63281 0.683594 3.74023 0.341797 4.14062-0.0195312L15.6152-10.8203L14.6387-11.7871L3.04688-0.898438C2.06055 0.0195312 1.98242 0.996094 2.8418 1.86523ZM9.25781-16.3281C8.83789-15.918 8.80859-15.3418 9.04297-14.9512C9.27734-14.5898 9.73633-14.3555 10.3809-14.5215C11.8457-14.8633 13.3691-14.9219 14.7949-13.9844L14.209-12.5293C13.8672-11.6992 14.043-11.1133 14.5801-10.5664L16.875-8.25195C17.3633-7.76367 17.7734-7.74414 18.3398-7.8418L19.4043-8.03711L20.0684-7.36328L20.0293-6.80664C19.9902-6.30859 20.1172-5.92773 20.6055-5.44922L21.3672-4.70703C21.8457-4.22852 22.4609-4.19922 22.9297-4.66797L25.8398-7.58789C26.3086-8.05664 26.2891-8.65234 25.8105-9.13086L25.0391-9.89258C24.5605-10.3711 24.1895-10.5273 23.7109-10.4883L23.1348-10.4395L22.4902-11.0742L22.7344-12.1973C22.8613-12.7637 22.7051-13.2031 22.1191-13.7891L19.9219-15.9766C16.582-19.2969 12.1484-19.2188 9.25781-16.3281ZM10.752-15.957C13.1836-17.7344 16.4746-17.4316 18.7012-15.2051L21.1328-12.793C21.3672-12.5586 21.4062-12.373 21.3379-12.0312L21.0156-10.5469L22.5195-9.0625L23.5059-9.12109C23.7598-9.13086 23.8379-9.11133 24.0332-8.91602L24.6094-8.33984L22.168-5.89844L21.5918-6.47461C21.3965-6.66992 21.3672-6.74805 21.377-7.01172L21.4453-7.98828L19.9512-9.47266L18.4277-9.21875C18.1055-9.15039 17.959-9.17969 17.7148-9.41406L15.7129-11.416C15.459-11.6504 15.4297-11.8164 15.5859-12.1875L16.4648-14.2773C14.9023-15.7324 12.8711-16.3574 10.8398-15.7617C10.6836-15.7227 10.625-15.8496 10.752-15.957Z"/>
  </g>
  <text style="stroke:none;fill:black;font-family:sans-serif;font-size:13;font-weight:bold;" transform="matrix(1 0 0 1 1289 1953)">Exporting</text>
  <text style="stroke:none;fill:black;font-family:sans-serif;font-size:13;" transform="matrix(1 0 0 1 1289 1971)">Symbols should be outlined when exporting to ensure the</text>
  <text style="stroke:none;fill:black;font-family:sans-serif;font-size:13;" transform="matrix(1 0 0 1 1289 1989)">design is preserved when submitting to Xcode.</text>
  <text id="template-version" style="stroke:none;fill:black;font-family:sans-serif;font-size:13;text-anchor:end;" transform="matrix(1 0 0 1 3036 1933)">Template v.4.0</text>
  <text style="stroke:none;fill:black;font-family:sans-serif;font-size:13;text-anchor:end;" transform="matrix(1 0 0 1 3036 1951)">Requires Xcode 14 or greater</text>
  <text id="descriptive-name" style="stroke:none;fill:black;font-family:sans-serif;font-size:13;text-anchor:end;" transform="matrix(1 0 0 1 3036 1969)">Generated from flag.checkered</text>
  <text style="stroke:none;fill:black;font-family:sans-serif;font-size:13;text-anchor:end;" transform="matrix(1 0 0 1 3036 1987)">Typeset at 100 points</text>
  <text style="stroke:none;fill:black;font-family:sans-serif;font-size:13;" transform="matrix(1 0 0 1 263 726)">Small</text>
  <text style="stroke:none;fill:black;font-family:sans-serif;font-size:13;" transform="matrix(1 0 0 1 263 1156)">Medium</text>
  <text style="stroke:none;fill:black;font-family:sans-serif;font-size:13;" transform="matrix(1 0 0 1 263 1586)">Large</text>
 </g>
 <g id="Guides">
  <g id="H-reference" style="fill:#27AAE1;stroke:none;" transform="matrix(1 0 0 1 339 696)">
   <path d="M0.993654 0L3.63775 0L29.3281-67.1323L30.0303-67.1323L30.0303-70.459L28.1226-70.459ZM11.6885-24.4799L46.9815-24.4799L46.2315-26.7285L12.4385-26.7285ZM55.1196 0L57.7637 0L30.6382-70.459L29.4326-70.459L29.4326-67.1323Z"/>
  </g>
  <line id="Baseline-S" style="fill:none;stroke:#27AAE1;opacity:1;stroke-width:0.5;" x1="263" x2="3036" y1="696" y2="696"/>
  <line id="Capline-S" style="fill:none;stroke:#27AAE1;opacity:1;stroke-width:0.5;" x1="263" x2="3036" y1="625.541" y2="625.541"/>
  <g id="H-reference" style="fill:#27AAE1;stroke:none;" transform="matrix(1 0 0 1 339 1126)">
   <path d="M0.993654 0L3.63775 0L29.3281-67.1323L30.0303-67.1323L30.0303-70.459L28.1226-70.459ZM11.6885-24.4799L46.9815-24.4799L46.2315-26.7285L12.4385-26.7285ZM55.1196 0L57.7637 0L30.6382-70.459L29.4326-70.459L29.4326-67.1323Z"/>
  </g>
  <line id="Baseline-M" style="fill:none;stroke:#27AAE1;opacity:1;stroke-width:0.5;" x1="263" x2="3036" y1="1126" y2="1126"/>
  <line id="Capline-M" style="fill:none;stroke:#27AAE1;opacity:1;stroke-width:0.5;" x1="263" x2="3036" y1="1055.54" y2="1055.54"/>
  <g id="H-reference" style="fill:#27AAE1;stroke:none;" transform="matrix(1 0 0 1 339 1556)">
   <path d="M0.993654 0L3.63775 0L29.3281-67.1323L30.0303-67.1323L30.0303-70.459L28.1226-70.459ZM11.6885-24.4799L46.9815-24.4799L46.2315-26.7285L12.4385-26.7285ZM55.1196 0L57.7637 0L30.6382-70.459L29.4326-70.459L29.4326-67.1323Z"/>
  </g>
  <line id="Baseline-L" style="fill:none;stroke:#27AAE1;opacity:1;stroke-width:0.5;" x1="263" x2="3036" y1="1556" y2="1556"/>
  <line id="Capline-L" style="fill:none;stroke:#27AAE1;opacity:1;stroke-width:0.5;" x1="263" x2="3036" y1="1485.54" y2="1485.54"/>
  <line id="left-margin-Ultralight-S" style="fill:none;stroke:#00AEEF;stroke-width:0.5;opacity:1.0;" x1="518.511" x2="518.511" y1="600.785" y2="720.121"/>
  <line id="right-margin-Ultralight-S" style="fill:none;stroke:#00AEEF;stroke-width:0.5;opacity:1.0;" x1="600.912" x2="600.912" y1="600.785" y2="720.121"/>
  <line id="left-margin-Regular-S" style="fill:none;stroke:#00AEEF;stroke-width:0.5;opacity:1.0;" x1="1405.22" x2="1405.22" y1="600.785" y2="720.121"/>
  <line id="right-margin-Regular-S" style="fill:none;stroke:#00AEEF;stroke-width:0.5;opacity:1.0;" x1="1494.47" x2="1494.47" y1="600.785" y2="720.121"/>
  <line id="left-margin-Black-S" style="fill:none;stroke:#00AEEF;stroke-width:0.5;opacity:1.0;" x1="2887.99" x2="2887.99" y1="600.785" y2="720.121"/>
  <line id="right-margin-Black-S" style="fill:none;stroke:#00AEEF;stroke-width:0.5;opacity:1.0;" x1="2978.81" x2="2978.81" y1="600.785" y2="720.121"/>
 </g>
 <g id="Symbols">
  <g id="Black-S" transform="matrix(1 0 0 1 2887.99 696)">
   <path class="monochrome-0 SFSymbolsPreview000000" d="M17.334 4.44336C20.9473 4.44336 23.9746 1.51367 23.9746-2.19727L23.9746-21.5332C25.3906-21.7773 26.9531-21.9238 28.5156-21.9238C41.2109-21.9238 52.6367-14.7949 66.2109-14.7949C71.6797-14.7949 76.5137-15.9668 79.6875-17.5293C82.8613-19.0918 83.9844-22.3145 83.9844-26.0254L83.9844-60.791C83.9844-65.332 81.25-68.6523 76.9531-68.6523C73.4375-68.6523 70.4102-67.8223 66.2109-67.8223C53.6133-67.8223 41.2109-74.9512 28.5156-74.9512C23.5352-74.9512 19.1895-73.9746 15.2344-72.1191C12.1582-70.6543 10.7422-68.75 10.7422-65.332L10.7422-2.19727C10.7422 1.46484 13.7207 4.44336 17.334 4.44336ZM24.9023-43.3594L24.9023-52.2461C26.2695-52.6855 27.6367-52.9297 29.1992-52.9297C30.1758-52.9297 33.3008-52.7344 35.5469-52.2949L35.5469-60.6445C39.3555-59.9609 43.2129-58.7891 47.2168-57.6172L47.2168-49.3164C50.7812-48.0469 56.0059-46.9727 58.8867-46.4844L58.8867-54.834C61.0352-54.4922 63.2324-54.2969 65.4297-54.2969C66.9434-54.2969 68.5059-54.2969 69.8242-54.5898L69.8242-46.2891C68.457-45.9473 66.8945-45.9473 65.4297-45.9473C64.3555-45.9473 62.1582-45.9473 58.8867-46.4844L58.8867-37.5977C62.4023-37.0605 65.4297-37.0605 66.9434-37.0605C68.4082-37.0605 68.8965-37.1582 69.8242-37.4023L69.8242-29.1504C68.6035-28.7109 67.041-28.6133 65.4297-28.6133C63.2812-28.6133 61.1328-28.8574 58.8867-29.2969L58.8867-37.5977C54.7363-38.3301 50.9766-39.3066 47.2168-40.4297L47.2168-32.373C43.4082-33.4473 39.5508-34.5215 35.5469-35.1074L35.5469-43.4082C34.1797-43.6523 31.9336-44.043 29.1992-44.043C27.6367-44.043 26.2695-43.7988 24.9023-43.3594ZM35.5469-43.4082C39.7949-42.627 43.1152-41.6016 47.2168-40.4297L47.2168-49.3164C43.3594-50.4395 39.7949-51.416 35.5469-52.2949Z"/>
  </g>
  <g id="Regular-S" transform="matrix(1 0 0 1 1405.22 696)">
   <path class="monochrome-0 SFSymbolsPreview000000" d="M15.0879 2.92969C16.8945 2.92969 18.3594 1.46484 18.3594-0.341797L18.3594-20.9961C19.2383-21.4844 22.8516-22.8027 28.2227-22.8027C42.5781-22.8027 51.6602-15.8203 65.1367-15.8203C71.2891-15.8203 73.4375-16.4551 76.4648-17.8223C79.248-19.043 81.0547-21.2402 81.0547-25.0977L81.0547-64.4531C81.0547-66.6504 79.1016-67.9688 76.6113-67.9688C74.707-67.9688 71.1914-66.4062 64.6484-66.4062C51.1719-66.4062 42.0898-73.3887 27.7344-73.3887C21.582-73.3887 19.4336-72.7539 16.4062-71.3867C13.623-70.166 11.7676-67.9688 11.7676-64.0625L11.7676-0.341797C11.7676 1.41602 13.2812 2.92969 15.0879 2.92969ZM18.3594-39.4043L18.3594-52.3438C18.8477-53.5645 21.7773-55.3711 27.7344-55.3711C28.9551-55.3711 30.8105-55.2734 32.1777-55.127L32.1777-66.5527C37.2559-65.9668 41.8457-64.502 46.5332-63.1348L46.5332-51.709C51.2207-50.293 55.5176-49.0723 60.8887-48.5352L60.8887-59.9609C62.1094-59.8633 63.3301-59.8145 64.6484-59.8145C68.9941-59.8145 72.4121-60.3516 74.5117-60.9375L74.5117-49.5117C72.6074-48.9746 69.0918-48.3887 64.6484-48.3887C63.3789-48.3887 62.1094-48.4863 60.8887-48.5352L60.8887-35.5469C62.1582-35.4492 63.1836-35.4004 64.6484-35.4004C68.9941-35.4004 72.4121-35.9375 74.5117-36.5234L74.5117-25.3906C73.9746-24.1699 71.0938-22.4121 65.1367-22.4121C63.6719-22.4121 62.3047-22.5098 60.8887-22.6074L60.8887-35.5469C55.7129-36.1816 51.2207-37.1582 46.5332-38.7207L46.5332-26.1719C42.1387-27.4902 37.5-28.7598 32.1777-29.1992L32.1777-42.1387C30.6152-42.2852 29.541-42.3828 27.7344-42.3828C21.7773-42.3828 18.8477-40.5762 18.3594-39.4043ZM32.1777-42.1387C37.4512-41.5039 41.4551-40.1855 46.5332-38.7207L46.5332-51.709C41.748-53.0762 37.4512-54.5898 32.1777-55.127Z"/>
  </g>
  <g id="Ultralight-S" transform="matrix(1 0 0 1 518.511 696)">
   <path class="monochrome-0 SFSymbolsPreview000000" d="M13.9981-0.385228C14.624-0.385228 15.0899-0.851056 15.0899-1.52245L15.0899-25.5825C16.6045-25.6167 20.127-27.3891 26.6787-27.3891C40.126-27.3891 48.0728-20.6338 61.4131-20.6338C66.521-20.6338 69.169-21.3139 71.5606-22.4087C73.481-23.3115 74.7881-24.5097 74.7881-26.2783L74.7881-62.9092C74.7881-64.3345 74.0157-64.9717 72.7969-64.9717C71.1197-64.9717 67.604-63.1367 60.9702-63.1367C47.5845-63.1367 39.6377-69.8921 26.2359-69.8921C21.1733-69.8921 18.5254-69.2119 16.1338-68.1172C14.168-67.2598 12.9028-66.0615 12.9028-64.2895L12.9028-1.52245C12.9028-0.899884 13.4175-0.385228 13.9981-0.385228ZM15.0899-38.9956L15.0899-51.9351C15.8506-53.4282 20.2788-55.0532 26.2359-55.0532C27.4566-55.0532 28.3584-55.0464 29.7256-54.8999L29.7256-67.5063C35.0308-67.102 39.5298-65.6372 44.0811-64.1338L44.0811-51.5273C49.1773-49.8843 54.1553-48.6636 58.4365-48.4443L58.4365-61.0962C59.294-61.0439 60.106-60.9951 60.9702-60.9951C64.4532-60.9951 67.7803-61.3052 72.5591-62.7539L72.5591-50.102C70.6548-49.5649 66.1856-48.3433 60.9702-48.3433C60.0186-48.3433 59.0669-48.3955 58.4365-48.4443L58.4365-35.5015C58.7979-35.4492 59.9595-35.4004 60.9702-35.4004C64.4532-35.4004 67.7803-35.7559 72.5591-37.1592L72.5591-25.981C71.8403-24.4878 67.461-22.8662 61.4131-22.8662C60.357-22.8662 59.3985-22.9185 58.4365-22.9707L58.4365-35.5015C53.3516-35.9092 49.8584-36.7495 44.0811-38.5845L44.0811-26.2173C39.5957-27.6265 35.0479-29.0776 29.7256-29.4717L29.7256-41.957C28.6626-42.0581 28.0425-42.1104 26.2359-42.1104C20.188-42.1104 15.8506-40.4854 15.0899-38.9956ZM29.7256-41.957C34.999-41.5039 39.0029-40.1855 44.0811-38.5845L44.0811-51.5273C39.2959-53.0762 35.0899-54.3628 29.7256-54.8999Z"/>
  </g>
 </g>
</svg>
