<?xml version="1.0" encoding="UTF-8"?>
<!--Generator: Apple Native CoreSVG 175.5-->
<!DOCTYPE svg
PUBLIC "-//W3C//DTD SVG 1.1//EN"
       "http://www.w3.org/Graphics/SVG/1.1/DTD/svg11.dtd">
<svg version="1.1" xmlns="http://www.w3.org/2000/svg" xmlns:xlink="http://www.w3.org/1999/xlink" width="3300" height="2200">
 <!--glyph: "uni101424.medium", point size: 100.0, font version: "18.0d11e1", template writer version: "90"-->
 <style>.monochrome-0 {fill:#000000}

.SFSymbolsPreview000000 {fill:#000000;opacity:1.0}
</style>
 <g id="Notes">
  <rect height="2200" id="artboard" style="fill:white;opacity:1" width="3300" x="0" y="0"/>
  <line style="fill:none;stroke:black;opacity:1;stroke-width:0.5;" x1="263" x2="3036" y1="292" y2="292"/>
  <text style="stroke:none;fill:black;font-family:sans-serif;font-size:13;font-weight:bold;" transform="matrix(1 0 0 1 263 322)">Weight/Scale Variations</text>
  <text style="stroke:none;fill:black;font-family:sans-serif;font-size:13;text-anchor:middle;" transform="matrix(1 0 0 1 559.711 322)">Ultralight</text>
  <text style="stroke:none;fill:black;font-family:sans-serif;font-size:13;text-anchor:middle;" transform="matrix(1 0 0 1 856.422 322)">Thin</text>
  <text style="stroke:none;fill:black;font-family:sans-serif;font-size:13;text-anchor:middle;" transform="matrix(1 0 0 1 1153.13 322)">Light</text>
  <text style="stroke:none;fill:black;font-family:sans-serif;font-size:13;text-anchor:middle;" transform="matrix(1 0 0 1 1449.84 322)">Regular</text>
  <text style="stroke:none;fill:black;font-family:sans-serif;font-size:13;text-anchor:middle;" transform="matrix(1 0 0 1 1746.56 322)">Medium</text>
  <text style="stroke:none;fill:black;font-family:sans-serif;font-size:13;text-anchor:middle;" transform="matrix(1 0 0 1 2043.27 322)">Semibold</text>
  <text style="stroke:none;fill:black;font-family:sans-serif;font-size:13;text-anchor:middle;" transform="matrix(1 0 0 1 2339.98 322)">Bold</text>
  <text style="stroke:none;fill:black;font-family:sans-serif;font-size:13;text-anchor:middle;" transform="matrix(1 0 0 1 2636.69 322)">Heavy</text>
  <text style="stroke:none;fill:black;font-family:sans-serif;font-size:13;text-anchor:middle;" transform="matrix(1 0 0 1 2933.4 322)">Black</text>
  <line style="fill:none;stroke:black;opacity:1;stroke-width:0.5;" x1="263" x2="3036" y1="1903" y2="1903"/>
  <g transform="matrix(1 0 0 1 263 1933)">
   <path d="M9.24805 0.830078C13.5547 0.830078 17.1387-2.74414 17.1387-7.05078C17.1387-11.3574 13.5449-14.9316 9.23828-14.9316C4.94141-14.9316 1.36719-11.3574 1.36719-7.05078C1.36719-2.74414 4.95117 0.830078 9.24805 0.830078ZM9.24805-0.654297C5.70312-0.654297 2.87109-3.49609 2.87109-7.05078C2.87109-10.6055 5.69336-13.4473 9.23828-13.4473C12.793-13.4473 15.6445-10.6055 15.6445-7.05078C15.6445-3.49609 12.8027-0.654297 9.24805-0.654297ZM5.6543-7.05078C5.6543-6.62109 5.95703-6.32812 6.40625-6.32812L8.50586-6.32812L8.50586-4.20898C8.50586-3.76953 8.79883-3.4668 9.22852-3.4668C9.67773-3.4668 9.9707-3.76953 9.9707-4.20898L9.9707-6.32812L12.0898-6.32812C12.5293-6.32812 12.832-6.62109 12.832-7.05078C12.832-7.49023 12.5293-7.79297 12.0898-7.79297L9.9707-7.79297L9.9707-9.90234C9.9707-10.3516 9.67773-10.6543 9.22852-10.6543C8.79883-10.6543 8.50586-10.3516 8.50586-9.90234L8.50586-7.79297L6.40625-7.79297C5.95703-7.79297 5.6543-7.49023 5.6543-7.05078Z"/>
  </g>
  <g transform="matrix(1 0 0 1 281.867 1933)">
   <path d="M11.709 2.91016C17.1582 2.91016 21.6699-1.61133 21.6699-7.05078C21.6699-12.5 17.1484-17.0117 11.6992-17.0117C6.25977-17.0117 1.74805-12.5 1.74805-7.05078C1.74805-1.61133 6.26953 2.91016 11.709 2.91016ZM11.709 1.25C7.09961 1.25 3.41797-2.44141 3.41797-7.05078C3.41797-11.6602 7.08984-15.3516 11.6992-15.3516C16.3086-15.3516 20.0098-11.6602 20.0098-7.05078C20.0098-2.44141 16.3184 1.25 11.709 1.25ZM7.17773-7.05078C7.17773-6.57227 7.50977-6.25 8.00781-6.25L10.8789-6.25L10.8789-3.36914C10.8789-2.88086 11.2109-2.53906 11.6895-2.53906C12.1777-2.53906 12.5195-2.87109 12.5195-3.36914L12.5195-6.25L15.4004-6.25C15.8887-6.25 16.2305-6.57227 16.2305-7.05078C16.2305-7.53906 15.8887-7.88086 15.4004-7.88086L12.5195-7.88086L12.5195-10.752C12.5195-11.25 12.1777-11.5918 11.6895-11.5918C11.2109-11.5918 10.8789-11.25 10.8789-10.752L10.8789-7.88086L8.00781-7.88086C7.50977-7.88086 7.17773-7.53906 7.17773-7.05078Z"/>
  </g>
  <g transform="matrix(1 0 0 1 305.646 1933)">
   <path d="M14.9707 5.66406C21.9336 5.66406 27.6953-0.0976562 27.6953-7.05078C27.6953-14.0137 21.9238-19.7754 14.9609-19.7754C8.00781-19.7754 2.25586-14.0137 2.25586-7.05078C2.25586-0.0976562 8.01758 5.66406 14.9707 5.66406ZM14.9707 3.84766C8.93555 3.84766 4.08203-1.01562 4.08203-7.05078C4.08203-13.0957 8.92578-17.9492 14.9609-17.9492C21.0059-17.9492 25.8691-13.0957 25.8691-7.05078C25.8691-1.01562 21.0156 3.84766 14.9707 3.84766ZM9.19922-7.05078C9.19922-6.5332 9.57031-6.17188 10.1172-6.17188L14.0625-6.17188L14.0625-2.2168C14.0625-1.67969 14.4336-1.29883 14.9512-1.29883C15.4883-1.29883 15.8594-1.66992 15.8594-2.2168L15.8594-6.17188L19.8145-6.17188C20.3516-6.17188 20.7324-6.5332 20.7324-7.05078C20.7324-7.59766 20.3613-7.96875 19.8145-7.96875L15.8594-7.96875L15.8594-11.9141C15.8594-12.4609 15.4883-12.8418 14.9512-12.8418C14.4336-12.8418 14.0625-12.4609 14.0625-11.9141L14.0625-7.96875L10.1172-7.96875C9.57031-7.96875 9.19922-7.59766 9.19922-7.05078Z"/>
  </g>
  <text style="stroke:none;fill:black;font-family:sans-serif;font-size:13;font-weight:bold;" transform="matrix(1 0 0 1 263 1953)">Design Variations</text>
  <text style="stroke:none;fill:black;font-family:sans-serif;font-size:13;" transform="matrix(1 0 0 1 263 1971)">Symbols are supported in up to nine weights and three scales.</text>
  <text style="stroke:none;fill:black;font-family:sans-serif;font-size:13;" transform="matrix(1 0 0 1 263 1989)">For optimal layout with text and other symbols, vertically align</text>
  <text style="stroke:none;fill:black;font-family:sans-serif;font-size:13;" transform="matrix(1 0 0 1 263 2007)">symbols with the adjacent text.</text>
  <line style="fill:none;stroke:#00AEEF;stroke-width:0.5;opacity:1.0;" x1="776" x2="776" y1="1919" y2="1933"/>
  <g transform="matrix(1 0 0 1 776 1933)">
   <path d="M3.31055 0.15625C3.82812 0.15625 4.08203-0.0390625 4.26758-0.585938L5.52734-4.0332L11.2891-4.0332L12.5488-0.585938C12.7344-0.0390625 12.9883 0.15625 13.4961 0.15625C14.0137 0.15625 14.3457-0.15625 14.3457-0.644531C14.3457-0.810547 14.3164-0.966797 14.2383-1.17188L9.6582-13.3691C9.43359-13.9648 9.0332-14.2676 8.4082-14.2676C7.80273-14.2676 7.39258-13.9746 7.17773-13.3789L2.59766-1.16211C2.51953-0.957031 2.49023-0.800781 2.49023-0.634766C2.49023-0.146484 2.80273 0.15625 3.31055 0.15625ZM6.00586-5.51758L8.37891-12.0898L8.42773-12.0898L10.8008-5.51758Z"/>
  </g>
  <line style="fill:none;stroke:#00AEEF;stroke-width:0.5;opacity:1.0;" x1="793.197" x2="793.197" y1="1919" y2="1933"/>
  <text style="stroke:none;fill:black;font-family:sans-serif;font-size:13;font-weight:bold;" transform="matrix(1 0 0 1 776 1953)">Margins</text>
  <text style="stroke:none;fill:black;font-family:sans-serif;font-size:13;" transform="matrix(1 0 0 1 776 1971)">Leading and trailing margins on the left and right side of each symbol</text>
  <text style="stroke:none;fill:black;font-family:sans-serif;font-size:13;" transform="matrix(1 0 0 1 776 1989)">can be adjusted by modifying the x-location of the margin guidelines.</text>
  <text style="stroke:none;fill:black;font-family:sans-serif;font-size:13;" transform="matrix(1 0 0 1 776 2007)">Modifications are automatically applied proportionally to all</text>
  <text style="stroke:none;fill:black;font-family:sans-serif;font-size:13;" transform="matrix(1 0 0 1 776 2025)">scales and weights.</text>
  <g transform="matrix(1 0 0 1 1289 1933)">
   <path d="M2.8418 1.86523L4.54102 3.57422C5.40039 4.44336 6.38672 4.38477 7.31445 3.35938L18.0078-8.42773L17.041-9.4043L6.42578 2.27539C6.07422 2.67578 5.74219 2.77344 5.27344 2.30469L4.10156 1.14258C3.63281 0.683594 3.74023 0.341797 4.14062-0.0195312L15.6152-10.8203L14.6387-11.7871L3.04688-0.898438C2.06055 0.0195312 1.98242 0.996094 2.8418 1.86523ZM9.25781-16.3281C8.83789-15.918 8.80859-15.3418 9.04297-14.9512C9.27734-14.5898 9.73633-14.3555 10.3809-14.5215C11.8457-14.8633 13.3691-14.9219 14.7949-13.9844L14.209-12.5293C13.8672-11.6992 14.043-11.1133 14.5801-10.5664L16.875-8.25195C17.3633-7.76367 17.7734-7.74414 18.3398-7.8418L19.4043-8.03711L20.0684-7.36328L20.0293-6.80664C19.9902-6.30859 20.1172-5.92773 20.6055-5.44922L21.3672-4.70703C21.8457-4.22852 22.4609-4.19922 22.9297-4.66797L25.8398-7.58789C26.3086-8.05664 26.2891-8.65234 25.8105-9.13086L25.0391-9.89258C24.5605-10.3711 24.1895-10.5273 23.7109-10.4883L23.1348-10.4395L22.4902-11.0742L22.7344-12.1973C22.8613-12.7637 22.7051-13.2031 22.1191-13.7891L19.9219-15.9766C16.582-19.2969 12.1484-19.2188 9.25781-16.3281ZM10.752-15.957C13.1836-17.7344 16.4746-17.4316 18.7012-15.2051L21.1328-12.793C21.3672-12.5586 21.4062-12.373 21.3379-12.0312L21.0156-10.5469L22.5195-9.0625L23.5059-9.12109C23.7598-9.13086 23.8379-9.11133 24.0332-8.91602L24.6094-8.33984L22.168-5.89844L21.5918-6.47461C21.3965-6.66992 21.3672-6.74805 21.377-7.01172L21.4453-7.98828L19.9512-9.47266L18.4277-9.21875C18.1055-9.15039 17.959-9.17969 17.7148-9.41406L15.7129-11.416C15.459-11.6504 15.4297-11.8164 15.5859-12.1875L16.4648-14.2773C14.9023-15.7324 12.8711-16.3574 10.8398-15.7617C10.6836-15.7227 10.625-15.8496 10.752-15.957Z"/>
  </g>
  <text style="stroke:none;fill:black;font-family:sans-serif;font-size:13;font-weight:bold;" transform="matrix(1 0 0 1 1289 1953)">Exporting</text>
  <text style="stroke:none;fill:black;font-family:sans-serif;font-size:13;" transform="matrix(1 0 0 1 1289 1971)">Symbols should be outlined when exporting to ensure the</text>
  <text style="stroke:none;fill:black;font-family:sans-serif;font-size:13;" transform="matrix(1 0 0 1 1289 1989)">design is preserved when submitting to Xcode.</text>
  <text id="template-version" style="stroke:none;fill:black;font-family:sans-serif;font-size:13;text-anchor:end;" transform="matrix(1 0 0 1 3036 1933)">Template v.4.0</text>
  <text style="stroke:none;fill:black;font-family:sans-serif;font-size:13;text-anchor:end;" transform="matrix(1 0 0 1 3036 1951)">Requires Xcode 14 or greater</text>
  <text id="descriptive-name" style="stroke:none;fill:black;font-family:sans-serif;font-size:13;text-anchor:end;" transform="matrix(1 0 0 1 3036 1969)">Generated from oven</text>
  <text style="stroke:none;fill:black;font-family:sans-serif;font-size:13;text-anchor:end;" transform="matrix(1 0 0 1 3036 1987)">Typeset at 100 points</text>
  <text style="stroke:none;fill:black;font-family:sans-serif;font-size:13;" transform="matrix(1 0 0 1 263 726)">Small</text>
  <text style="stroke:none;fill:black;font-family:sans-serif;font-size:13;" transform="matrix(1 0 0 1 263 1156)">Medium</text>
  <text style="stroke:none;fill:black;font-family:sans-serif;font-size:13;" transform="matrix(1 0 0 1 263 1586)">Large</text>
 </g>
 <g id="Guides">
  <g id="H-reference" style="fill:#27AAE1;stroke:none;" transform="matrix(1 0 0 1 339 696)">
   <path d="M0.993654 0L3.63775 0L29.3281-67.1323L30.0303-67.1323L30.0303-70.459L28.1226-70.459ZM11.6885-24.4799L46.9815-24.4799L46.2315-26.7285L12.4385-26.7285ZM55.1196 0L57.7637 0L30.6382-70.459L29.4326-70.459L29.4326-67.1323Z"/>
  </g>
  <line id="Baseline-S" style="fill:none;stroke:#27AAE1;opacity:1;stroke-width:0.5;" x1="263" x2="3036" y1="696" y2="696"/>
  <line id="Capline-S" style="fill:none;stroke:#27AAE1;opacity:1;stroke-width:0.5;" x1="263" x2="3036" y1="625.541" y2="625.541"/>
  <g id="H-reference" style="fill:#27AAE1;stroke:none;" transform="matrix(1 0 0 1 339 1126)">
   <path d="M0.993654 0L3.63775 0L29.3281-67.1323L30.0303-67.1323L30.0303-70.459L28.1226-70.459ZM11.6885-24.4799L46.9815-24.4799L46.2315-26.7285L12.4385-26.7285ZM55.1196 0L57.7637 0L30.6382-70.459L29.4326-70.459L29.4326-67.1323Z"/>
  </g>
  <line id="Baseline-M" style="fill:none;stroke:#27AAE1;opacity:1;stroke-width:0.5;" x1="263" x2="3036" y1="1126" y2="1126"/>
  <line id="Capline-M" style="fill:none;stroke:#27AAE1;opacity:1;stroke-width:0.5;" x1="263" x2="3036" y1="1055.54" y2="1055.54"/>
  <g id="H-reference" style="fill:#27AAE1;stroke:none;" transform="matrix(1 0 0 1 339 1556)">
   <path d="M0.993654 0L3.63775 0L29.3281-67.1323L30.0303-67.1323L30.0303-70.459L28.1226-70.459ZM11.6885-24.4799L46.9815-24.4799L46.2315-26.7285L12.4385-26.7285ZM55.1196 0L57.7637 0L30.6382-70.459L29.4326-70.459L29.4326-67.1323Z"/>
  </g>
  <line id="Baseline-L" style="fill:none;stroke:#27AAE1;opacity:1;stroke-width:0.5;" x1="263" x2="3036" y1="1556" y2="1556"/>
  <line id="Capline-L" style="fill:none;stroke:#27AAE1;opacity:1;stroke-width:0.5;" x1="263" x2="3036" y1="1485.54" y2="1485.54"/>
  <line id="left-margin-Ultralight-S" style="fill:none;stroke:#00AEEF;stroke-width:0.5;opacity:1.0;" x1="515.07" x2="515.07" y1="600.785" y2="720.121"/>
  <line id="right-margin-Ultralight-S" style="fill:none;stroke:#00AEEF;stroke-width:0.5;opacity:1.0;" x1="604.352" x2="604.352" y1="600.785" y2="720.121"/>
  <line id="left-margin-Regular-S" style="fill:none;stroke:#00AEEF;stroke-width:0.5;opacity:1.0;" x1="1399.21" x2="1399.21" y1="600.785" y2="720.121"/>
  <line id="right-margin-Regular-S" style="fill:none;stroke:#00AEEF;stroke-width:0.5;opacity:1.0;" x1="1500.48" x2="1500.48" y1="600.785" y2="720.121"/>
  <line id="left-margin-Black-S" style="fill:none;stroke:#00AEEF;stroke-width:0.5;opacity:1.0;" x1="2878.47" x2="2878.47" y1="600.785" y2="720.121"/>
  <line id="right-margin-Black-S" style="fill:none;stroke:#00AEEF;stroke-width:0.5;opacity:1.0;" x1="2988.33" x2="2988.33" y1="600.785" y2="720.121"/>
 </g>
 <g id="Symbols">
  <g id="Black-S" transform="matrix(1 0 0 1 2878.47 696)">
   <path class="monochrome-0 SFSymbolsPreview000000" d="M22.2168 5.37109L87.5977 5.37109C94.9219 5.37109 100.098 0.0976562 100.098-7.32422L100.098-63.2812C100.098-70.7031 94.9219-75.9766 87.5977-75.9766L22.2168-75.9766C14.8926-75.9766 9.76562-70.7031 9.76562-63.2812L9.76562-7.32422C9.76562 0.0976562 14.8926 5.37109 22.2168 5.37109ZM24.0723-7.32422C23.1445-7.32422 22.5098-7.95898 22.5098-8.88672L22.5098-61.7188C22.5098-62.6465 23.1445-63.2812 24.0723-63.2812L86.2305-63.2812C86.9141-63.2812 87.3535-62.8418 87.3535-62.207L87.3535-8.39844C87.3535-7.76367 86.9141-7.32422 86.2305-7.32422ZM31.1035-11.4746L78.8086-11.4746C80.9082-11.4746 82.2754-12.8418 82.2754-14.9414L82.2754-32.5195C82.2754-34.6191 80.9082-35.9863 78.8086-35.9863L31.1035-35.9863C29.0039-35.9863 27.6367-34.6191 27.6367-32.5195L27.6367-14.9414C27.6367-12.8418 29.0039-11.4746 31.1035-11.4746ZM35.2051-18.3105C34.8145-18.3105 34.4727-18.6523 34.4727-19.043L34.4727-28.9062C34.4727-29.2969 34.8145-29.6387 35.2051-29.6387L74.707-29.6387C75.0977-29.6387 75.4395-29.2969 75.4395-28.9062L75.4395-19.043C75.4395-18.6523 75.0977-18.3105 74.707-18.3105ZM19.5312-39.1602L90.3809-39.1602L90.3809-46.9727L19.5312-46.9727ZM31.7383-23.291L78.2227-23.291L78.2227-27.7344L31.7383-27.7344ZM69.1406-50.9766L78.6133-50.9766C80.6152-50.9766 82.2754-52.6367 82.2754-54.6387C82.2754-56.6406 80.6152-58.3008 78.6133-58.3008L69.1406-58.3008C67.1387-58.3008 65.4785-56.6406 65.4785-54.6387C65.4785-52.6367 67.1387-50.9766 69.1406-50.9766ZM32.2754-50.1465C34.7656-50.1465 36.9141-52.1973 36.9141-54.7363C36.9141-57.3242 34.7656-59.375 32.2754-59.375C29.7363-59.375 27.6367-57.3242 27.6367-54.7363C27.6367-52.1973 29.7363-50.1465 32.2754-50.1465ZM54.3945-50.1465C56.9336-50.1465 59.082-52.1973 59.082-54.7363C59.082-57.3242 56.9336-59.375 54.3945-59.375C51.9043-59.375 49.8047-57.3242 49.8047-54.7363C49.8047-52.1973 51.9043-50.1465 54.3945-50.1465ZM43.3594-50.1465C45.8984-50.1465 47.998-52.1973 47.998-54.7363C47.998-57.3242 45.8984-59.375 43.3594-59.375C40.8691-59.375 38.7207-57.3242 38.7207-54.7363C38.7207-52.1973 40.8691-50.1465 43.3594-50.1465Z"/>
  </g>
  <g id="Regular-S" transform="matrix(1 0 0 1 1399.21 696)">
   <path class="monochrome-0 SFSymbolsPreview000000" d="M19.2871-1.41602L81.9824-1.41602C87.6953-1.41602 91.5039-5.17578 91.5039-10.791L91.5039-59.7168C91.5039-65.332 87.6953-69.0918 81.9824-69.0918L19.2871-69.0918C13.5742-69.0918 9.76562-65.332 9.76562-59.7168L9.76562-10.791C9.76562-5.17578 13.5742-1.41602 19.2871-1.41602ZM19.3359-8.49609C17.8223-8.49609 16.7969-9.57031 16.7969-11.1328L16.7969-59.375C16.7969-60.9375 17.8223-62.0117 19.3359-62.0117L81.8848-62.0117C83.4473-62.0117 84.4238-60.9375 84.4238-59.375L84.4238-11.1328C84.4238-9.57031 83.4473-8.49609 81.8848-8.49609ZM26.8555-12.9395L74.4629-12.9395C76.5625-12.9395 77.9297-14.3066 77.9297-16.4551L77.9297-38.1348C77.9297-40.2344 76.5625-41.6016 74.4629-41.6016L26.8555-41.6016C24.707-41.6016 23.3398-40.2344 23.3398-38.1348L23.3398-16.4551C23.3398-14.3066 24.707-12.9395 26.8555-12.9395ZM28.8574-17.6758C28.418-17.6758 28.0762-18.0176 28.0762-18.457L28.0762-36.084C28.0762-36.5234 28.418-36.9141 28.8574-36.9141L72.4121-36.9141C72.8516-36.9141 73.2422-36.5234 73.2422-36.084L73.2422-18.457C73.2422-18.0176 72.8516-17.6758 72.4121-17.6758ZM13.9648-45.6055L87.3535-45.6055L87.3535-51.2695L13.9648-51.2695ZM27.2949-27.9297L74.0234-27.9297L74.0234-32.6172L27.2949-32.6172ZM65.3809-54.4922L75.7324-54.4922C77.002-54.4922 77.8809-55.3711 77.8809-56.6406C77.8809-57.9102 77.002-58.7891 75.7324-58.7891L65.3809-58.7891C64.1113-58.7891 63.2812-57.9102 63.2812-56.6406C63.2812-55.3711 64.1113-54.4922 65.3809-54.4922ZM27.3438-53.2715C29.1992-53.2715 30.7129-54.7852 30.7129-56.6406C30.7129-58.4961 29.1992-60.0098 27.3438-60.0098C25.4883-60.0098 23.9746-58.4961 23.9746-56.6406C23.9746-54.7852 25.4883-53.2715 27.3438-53.2715ZM46.9238-53.2715C48.7793-53.2715 50.293-54.7852 50.293-56.6406C50.293-58.4961 48.7793-60.0098 46.9238-60.0098C45.0684-60.0098 43.5547-58.4961 43.5547-56.6406C43.5547-54.7852 45.0684-53.2715 46.9238-53.2715ZM37.1094-53.2715C38.9648-53.2715 40.4785-54.7852 40.4785-56.6406C40.4785-58.4961 38.9648-60.0098 37.1094-60.0098C35.2539-60.0098 33.7891-58.4961 33.7891-56.6406C33.7891-54.7852 35.2539-53.2715 37.1094-53.2715Z"/>
  </g>
  <g id="Ultralight-S" transform="matrix(1 0 0 1 515.07 696)">
   <path class="monochrome-0 SFSymbolsPreview000000" d="M16.5171-5.91159L72.8096-5.91159C76.8424-5.91159 79.5157-8.85397 79.5157-13.2431L79.5157-57.2193C79.5157-61.6084 76.8424-64.5508 72.8096-64.5508L16.5171-64.5508C12.439-64.5508 9.76562-61.6084 9.76562-57.2193L9.76562-13.2431C9.76562-8.85397 12.439-5.91159 16.5171-5.91159ZM16.4297-8.13282C13.7354-8.13282 11.9834-10.1152 11.9834-13.1763L11.9834-57.2861C11.9834-60.3472 13.7354-62.3296 16.4297-62.3296L72.8936-62.3296C75.546-62.3296 77.3399-60.3472 77.3399-57.2861L77.3399-13.1763C77.3399-10.1152 75.546-8.13282 72.8936-8.13282ZM21.4971-13.8931L67.7422-13.8931C70.1597-13.8931 71.6631-15.4873 71.6631-17.9082L71.6631-34.5928C71.6631-37.0103 70.1597-38.6045 67.7422-38.6045L21.4971-38.6045C19.0762-38.6045 17.5728-37.0103 17.5728-34.5928L17.5728-17.9082C17.5728-15.4873 19.0762-13.8931 21.4971-13.8931ZM21.6373-15.9956C20.4258-15.9956 19.6754-16.7461 19.6754-18.0029L19.6754-34.4946C19.6754-35.7515 20.4258-36.5054 21.6373-36.5054L67.6441-36.5054C68.8101-36.5054 69.564-35.7515 69.564-34.4946L69.564-18.0029C69.564-16.7461 68.8101-15.9956 67.6441-15.9956ZM11.2857-44.334L78.0445-44.334L78.0445-46.5015L11.2857-46.5015ZM18.9849-30.0185L70.2544-30.0185L70.2544-32.1177L18.9849-32.1177ZM58.9781-53.1753L69.2388-53.1753C69.8272-53.1753 70.252-53.6455 70.252-54.2339C70.252-54.8223 69.8272-55.2471 69.2388-55.2471L58.9781-55.2471C58.3897-55.2471 57.9229-54.8223 57.9229-54.2339C57.9229-53.6455 58.3897-53.1753 58.9781-53.1753ZM23.166-50.9556C25.0215-50.9556 26.4444-52.3784 26.4444-54.1885C26.4444-56.044 25.0215-57.4668 23.166-57.4668C21.3106-57.4668 19.8877-56.044 19.8877-54.1885C19.8877-52.3784 21.3106-50.9556 23.166-50.9556ZM43.4727-50.9556C45.3282-50.9556 46.751-52.3784 46.751-54.1885C46.751-56.044 45.3282-57.4668 43.4727-57.4668C41.6172-57.4668 40.1944-56.044 40.1944-54.1885C40.1944-52.3784 41.6172-50.9556 43.4727-50.9556ZM33.3404-50.9556C35.1958-50.9556 36.6187-52.3784 36.6187-54.1885C36.6187-56.044 35.1958-57.4668 33.3404-57.4668C31.4849-57.4668 30.0655-56.044 30.0655-54.1885C30.0655-52.3784 31.4849-50.9556 33.3404-50.9556Z"/>
  </g>
 </g>
</svg>
