<?xml version="1.0" encoding="UTF-8"?>
<!--Generator: Apple Native CoreSVG 175.5-->
<!DOCTYPE svg
PUBLIC "-//W3C//DTD SVG 1.1//EN"
       "http://www.w3.org/Graphics/SVG/1.1/DTD/svg11.dtd">
<svg version="1.1" xmlns="http://www.w3.org/2000/svg" xmlns:xlink="http://www.w3.org/1999/xlink" width="3300" height="2200">
 <!--glyph: "uni101586.medium", point size: 100.0, font version: "18.0d11e1", template writer version: "90"-->
 <style>.monochrome-0 {fill:#000000}

.SFSymbolsPreview000000 {fill:#000000;opacity:1.0}
</style>
 <g id="Notes">
  <rect height="2200" id="artboard" style="fill:white;opacity:1" width="3300" x="0" y="0"/>
  <line style="fill:none;stroke:black;opacity:1;stroke-width:0.5;" x1="263" x2="3036" y1="292" y2="292"/>
  <text style="stroke:none;fill:black;font-family:sans-serif;font-size:13;font-weight:bold;" transform="matrix(1 0 0 1 263 322)">Weight/Scale Variations</text>
  <text style="stroke:none;fill:black;font-family:sans-serif;font-size:13;text-anchor:middle;" transform="matrix(1 0 0 1 559.711 322)">Ultralight</text>
  <text style="stroke:none;fill:black;font-family:sans-serif;font-size:13;text-anchor:middle;" transform="matrix(1 0 0 1 856.422 322)">Thin</text>
  <text style="stroke:none;fill:black;font-family:sans-serif;font-size:13;text-anchor:middle;" transform="matrix(1 0 0 1 1153.13 322)">Light</text>
  <text style="stroke:none;fill:black;font-family:sans-serif;font-size:13;text-anchor:middle;" transform="matrix(1 0 0 1 1449.84 322)">Regular</text>
  <text style="stroke:none;fill:black;font-family:sans-serif;font-size:13;text-anchor:middle;" transform="matrix(1 0 0 1 1746.56 322)">Medium</text>
  <text style="stroke:none;fill:black;font-family:sans-serif;font-size:13;text-anchor:middle;" transform="matrix(1 0 0 1 2043.27 322)">Semibold</text>
  <text style="stroke:none;fill:black;font-family:sans-serif;font-size:13;text-anchor:middle;" transform="matrix(1 0 0 1 2339.98 322)">Bold</text>
  <text style="stroke:none;fill:black;font-family:sans-serif;font-size:13;text-anchor:middle;" transform="matrix(1 0 0 1 2636.69 322)">Heavy</text>
  <text style="stroke:none;fill:black;font-family:sans-serif;font-size:13;text-anchor:middle;" transform="matrix(1 0 0 1 2933.4 322)">Black</text>
  <line style="fill:none;stroke:black;opacity:1;stroke-width:0.5;" x1="263" x2="3036" y1="1903" y2="1903"/>
  <g transform="matrix(1 0 0 1 263 1933)">
   <path d="M9.24805 0.830078C13.5547 0.830078 17.1387-2.74414 17.1387-7.05078C17.1387-11.3574 13.5449-14.9316 9.23828-14.9316C4.94141-14.9316 1.36719-11.3574 1.36719-7.05078C1.36719-2.74414 4.95117 0.830078 9.24805 0.830078ZM9.24805-0.654297C5.70312-0.654297 2.87109-3.49609 2.87109-7.05078C2.87109-10.6055 5.69336-13.4473 9.23828-13.4473C12.793-13.4473 15.6445-10.6055 15.6445-7.05078C15.6445-3.49609 12.8027-0.654297 9.24805-0.654297ZM5.6543-7.05078C5.6543-6.62109 5.95703-6.32812 6.40625-6.32812L8.50586-6.32812L8.50586-4.20898C8.50586-3.76953 8.79883-3.4668 9.22852-3.4668C9.67773-3.4668 9.9707-3.76953 9.9707-4.20898L9.9707-6.32812L12.0898-6.32812C12.5293-6.32812 12.832-6.62109 12.832-7.05078C12.832-7.49023 12.5293-7.79297 12.0898-7.79297L9.9707-7.79297L9.9707-9.90234C9.9707-10.3516 9.67773-10.6543 9.22852-10.6543C8.79883-10.6543 8.50586-10.3516 8.50586-9.90234L8.50586-7.79297L6.40625-7.79297C5.95703-7.79297 5.6543-7.49023 5.6543-7.05078Z"/>
  </g>
  <g transform="matrix(1 0 0 1 281.867 1933)">
   <path d="M11.709 2.91016C17.1582 2.91016 21.6699-1.61133 21.6699-7.05078C21.6699-12.5 17.1484-17.0117 11.6992-17.0117C6.25977-17.0117 1.74805-12.5 1.74805-7.05078C1.74805-1.61133 6.26953 2.91016 11.709 2.91016ZM11.709 1.25C7.09961 1.25 3.41797-2.44141 3.41797-7.05078C3.41797-11.6602 7.08984-15.3516 11.6992-15.3516C16.3086-15.3516 20.0098-11.6602 20.0098-7.05078C20.0098-2.44141 16.3184 1.25 11.709 1.25ZM7.17773-7.05078C7.17773-6.57227 7.50977-6.25 8.00781-6.25L10.8789-6.25L10.8789-3.36914C10.8789-2.88086 11.2109-2.53906 11.6895-2.53906C12.1777-2.53906 12.5195-2.87109 12.5195-3.36914L12.5195-6.25L15.4004-6.25C15.8887-6.25 16.2305-6.57227 16.2305-7.05078C16.2305-7.53906 15.8887-7.88086 15.4004-7.88086L12.5195-7.88086L12.5195-10.752C12.5195-11.25 12.1777-11.5918 11.6895-11.5918C11.2109-11.5918 10.8789-11.25 10.8789-10.752L10.8789-7.88086L8.00781-7.88086C7.50977-7.88086 7.17773-7.53906 7.17773-7.05078Z"/>
  </g>
  <g transform="matrix(1 0 0 1 305.646 1933)">
   <path d="M14.9707 5.66406C21.9336 5.66406 27.6953-0.0976562 27.6953-7.05078C27.6953-14.0137 21.9238-19.7754 14.9609-19.7754C8.00781-19.7754 2.25586-14.0137 2.25586-7.05078C2.25586-0.0976562 8.01758 5.66406 14.9707 5.66406ZM14.9707 3.84766C8.93555 3.84766 4.08203-1.01562 4.08203-7.05078C4.08203-13.0957 8.92578-17.9492 14.9609-17.9492C21.0059-17.9492 25.8691-13.0957 25.8691-7.05078C25.8691-1.01562 21.0156 3.84766 14.9707 3.84766ZM9.19922-7.05078C9.19922-6.5332 9.57031-6.17188 10.1172-6.17188L14.0625-6.17188L14.0625-2.2168C14.0625-1.67969 14.4336-1.29883 14.9512-1.29883C15.4883-1.29883 15.8594-1.66992 15.8594-2.2168L15.8594-6.17188L19.8145-6.17188C20.3516-6.17188 20.7324-6.5332 20.7324-7.05078C20.7324-7.59766 20.3613-7.96875 19.8145-7.96875L15.8594-7.96875L15.8594-11.9141C15.8594-12.4609 15.4883-12.8418 14.9512-12.8418C14.4336-12.8418 14.0625-12.4609 14.0625-11.9141L14.0625-7.96875L10.1172-7.96875C9.57031-7.96875 9.19922-7.59766 9.19922-7.05078Z"/>
  </g>
  <text style="stroke:none;fill:black;font-family:sans-serif;font-size:13;font-weight:bold;" transform="matrix(1 0 0 1 263 1953)">Design Variations</text>
  <text style="stroke:none;fill:black;font-family:sans-serif;font-size:13;" transform="matrix(1 0 0 1 263 1971)">Symbols are supported in up to nine weights and three scales.</text>
  <text style="stroke:none;fill:black;font-family:sans-serif;font-size:13;" transform="matrix(1 0 0 1 263 1989)">For optimal layout with text and other symbols, vertically align</text>
  <text style="stroke:none;fill:black;font-family:sans-serif;font-size:13;" transform="matrix(1 0 0 1 263 2007)">symbols with the adjacent text.</text>
  <line style="fill:none;stroke:#00AEEF;stroke-width:0.5;opacity:1.0;" x1="776" x2="776" y1="1919" y2="1933"/>
  <g transform="matrix(1 0 0 1 776 1933)">
   <path d="M3.31055 0.15625C3.82812 0.15625 4.08203-0.0390625 4.26758-0.585938L5.52734-4.0332L11.2891-4.0332L12.5488-0.585938C12.7344-0.0390625 12.9883 0.15625 13.4961 0.15625C14.0137 0.15625 14.3457-0.15625 14.3457-0.644531C14.3457-0.810547 14.3164-0.966797 14.2383-1.17188L9.6582-13.3691C9.43359-13.9648 9.0332-14.2676 8.4082-14.2676C7.80273-14.2676 7.39258-13.9746 7.17773-13.3789L2.59766-1.16211C2.51953-0.957031 2.49023-0.800781 2.49023-0.634766C2.49023-0.146484 2.80273 0.15625 3.31055 0.15625ZM6.00586-5.51758L8.37891-12.0898L8.42773-12.0898L10.8008-5.51758Z"/>
  </g>
  <line style="fill:none;stroke:#00AEEF;stroke-width:0.5;opacity:1.0;" x1="793.197" x2="793.197" y1="1919" y2="1933"/>
  <text style="stroke:none;fill:black;font-family:sans-serif;font-size:13;font-weight:bold;" transform="matrix(1 0 0 1 776 1953)">Margins</text>
  <text style="stroke:none;fill:black;font-family:sans-serif;font-size:13;" transform="matrix(1 0 0 1 776 1971)">Leading and trailing margins on the left and right side of each symbol</text>
  <text style="stroke:none;fill:black;font-family:sans-serif;font-size:13;" transform="matrix(1 0 0 1 776 1989)">can be adjusted by modifying the x-location of the margin guidelines.</text>
  <text style="stroke:none;fill:black;font-family:sans-serif;font-size:13;" transform="matrix(1 0 0 1 776 2007)">Modifications are automatically applied proportionally to all</text>
  <text style="stroke:none;fill:black;font-family:sans-serif;font-size:13;" transform="matrix(1 0 0 1 776 2025)">scales and weights.</text>
  <g transform="matrix(1 0 0 1 1289 1933)">
   <path d="M2.8418 1.86523L4.54102 3.57422C5.40039 4.44336 6.38672 4.38477 7.31445 3.35938L18.0078-8.42773L17.041-9.4043L6.42578 2.27539C6.07422 2.67578 5.74219 2.77344 5.27344 2.30469L4.10156 1.14258C3.63281 0.683594 3.74023 0.341797 4.14062-0.0195312L15.6152-10.8203L14.6387-11.7871L3.04688-0.898438C2.06055 0.0195312 1.98242 0.996094 2.8418 1.86523ZM9.25781-16.3281C8.83789-15.918 8.80859-15.3418 9.04297-14.9512C9.27734-14.5898 9.73633-14.3555 10.3809-14.5215C11.8457-14.8633 13.3691-14.9219 14.7949-13.9844L14.209-12.5293C13.8672-11.6992 14.043-11.1133 14.5801-10.5664L16.875-8.25195C17.3633-7.76367 17.7734-7.74414 18.3398-7.8418L19.4043-8.03711L20.0684-7.36328L20.0293-6.80664C19.9902-6.30859 20.1172-5.92773 20.6055-5.44922L21.3672-4.70703C21.8457-4.22852 22.4609-4.19922 22.9297-4.66797L25.8398-7.58789C26.3086-8.05664 26.2891-8.65234 25.8105-9.13086L25.0391-9.89258C24.5605-10.3711 24.1895-10.5273 23.7109-10.4883L23.1348-10.4395L22.4902-11.0742L22.7344-12.1973C22.8613-12.7637 22.7051-13.2031 22.1191-13.7891L19.9219-15.9766C16.582-19.2969 12.1484-19.2188 9.25781-16.3281ZM10.752-15.957C13.1836-17.7344 16.4746-17.4316 18.7012-15.2051L21.1328-12.793C21.3672-12.5586 21.4062-12.373 21.3379-12.0312L21.0156-10.5469L22.5195-9.0625L23.5059-9.12109C23.7598-9.13086 23.8379-9.11133 24.0332-8.91602L24.6094-8.33984L22.168-5.89844L21.5918-6.47461C21.3965-6.66992 21.3672-6.74805 21.377-7.01172L21.4453-7.98828L19.9512-9.47266L18.4277-9.21875C18.1055-9.15039 17.959-9.17969 17.7148-9.41406L15.7129-11.416C15.459-11.6504 15.4297-11.8164 15.5859-12.1875L16.4648-14.2773C14.9023-15.7324 12.8711-16.3574 10.8398-15.7617C10.6836-15.7227 10.625-15.8496 10.752-15.957Z"/>
  </g>
  <text style="stroke:none;fill:black;font-family:sans-serif;font-size:13;font-weight:bold;" transform="matrix(1 0 0 1 1289 1953)">Exporting</text>
  <text style="stroke:none;fill:black;font-family:sans-serif;font-size:13;" transform="matrix(1 0 0 1 1289 1971)">Symbols should be outlined when exporting to ensure the</text>
  <text style="stroke:none;fill:black;font-family:sans-serif;font-size:13;" transform="matrix(1 0 0 1 1289 1989)">design is preserved when submitting to Xcode.</text>
  <text id="template-version" style="stroke:none;fill:black;font-family:sans-serif;font-size:13;text-anchor:end;" transform="matrix(1 0 0 1 3036 1933)">Template v.4.0</text>
  <text style="stroke:none;fill:black;font-family:sans-serif;font-size:13;text-anchor:end;" transform="matrix(1 0 0 1 3036 1951)">Requires Xcode 14 or greater</text>
  <text id="descriptive-name" style="stroke:none;fill:black;font-family:sans-serif;font-size:13;text-anchor:end;" transform="matrix(1 0 0 1 3036 1969)">Generated from pencil.and.ruler</text>
  <text style="stroke:none;fill:black;font-family:sans-serif;font-size:13;text-anchor:end;" transform="matrix(1 0 0 1 3036 1987)">Typeset at 100 points</text>
  <text style="stroke:none;fill:black;font-family:sans-serif;font-size:13;" transform="matrix(1 0 0 1 263 726)">Small</text>
  <text style="stroke:none;fill:black;font-family:sans-serif;font-size:13;" transform="matrix(1 0 0 1 263 1156)">Medium</text>
  <text style="stroke:none;fill:black;font-family:sans-serif;font-size:13;" transform="matrix(1 0 0 1 263 1586)">Large</text>
 </g>
 <g id="Guides">
  <g id="H-reference" style="fill:#27AAE1;stroke:none;" transform="matrix(1 0 0 1 339 696)">
   <path d="M0.993654 0L3.63775 0L29.3281-67.1323L30.0303-67.1323L30.0303-70.459L28.1226-70.459ZM11.6885-24.4799L46.9815-24.4799L46.2315-26.7285L12.4385-26.7285ZM55.1196 0L57.7637 0L30.6382-70.459L29.4326-70.459L29.4326-67.1323Z"/>
  </g>
  <line id="Baseline-S" style="fill:none;stroke:#27AAE1;opacity:1;stroke-width:0.5;" x1="263" x2="3036" y1="696" y2="696"/>
  <line id="Capline-S" style="fill:none;stroke:#27AAE1;opacity:1;stroke-width:0.5;" x1="263" x2="3036" y1="625.541" y2="625.541"/>
  <g id="H-reference" style="fill:#27AAE1;stroke:none;" transform="matrix(1 0 0 1 339 1126)">
   <path d="M0.993654 0L3.63775 0L29.3281-67.1323L30.0303-67.1323L30.0303-70.459L28.1226-70.459ZM11.6885-24.4799L46.9815-24.4799L46.2315-26.7285L12.4385-26.7285ZM55.1196 0L57.7637 0L30.6382-70.459L29.4326-70.459L29.4326-67.1323Z"/>
  </g>
  <line id="Baseline-M" style="fill:none;stroke:#27AAE1;opacity:1;stroke-width:0.5;" x1="263" x2="3036" y1="1126" y2="1126"/>
  <line id="Capline-M" style="fill:none;stroke:#27AAE1;opacity:1;stroke-width:0.5;" x1="263" x2="3036" y1="1055.54" y2="1055.54"/>
  <g id="H-reference" style="fill:#27AAE1;stroke:none;" transform="matrix(1 0 0 1 339 1556)">
   <path d="M0.993654 0L3.63775 0L29.3281-67.1323L30.0303-67.1323L30.0303-70.459L28.1226-70.459ZM11.6885-24.4799L46.9815-24.4799L46.2315-26.7285L12.4385-26.7285ZM55.1196 0L57.7637 0L30.6382-70.459L29.4326-70.459L29.4326-67.1323Z"/>
  </g>
  <line id="Baseline-L" style="fill:none;stroke:#27AAE1;opacity:1;stroke-width:0.5;" x1="263" x2="3036" y1="1556" y2="1556"/>
  <line id="Capline-L" style="fill:none;stroke:#27AAE1;opacity:1;stroke-width:0.5;" x1="263" x2="3036" y1="1485.54" y2="1485.54"/>
  <line id="left-margin-Ultralight-S" style="fill:none;stroke:#00AEEF;stroke-width:0.5;opacity:1.0;" x1="520.363" x2="520.363" y1="600.785" y2="720.121"/>
  <line id="right-margin-Ultralight-S" style="fill:none;stroke:#00AEEF;stroke-width:0.5;opacity:1.0;" x1="599.059" x2="599.059" y1="600.785" y2="720.121"/>
  <line id="left-margin-Regular-S" style="fill:none;stroke:#00AEEF;stroke-width:0.5;opacity:1.0;" x1="1405.73" x2="1405.73" y1="600.785" y2="720.121"/>
  <line id="right-margin-Regular-S" style="fill:none;stroke:#00AEEF;stroke-width:0.5;opacity:1.0;" x1="1493.96" x2="1493.96" y1="600.785" y2="720.121"/>
  <line id="left-margin-Black-S" style="fill:none;stroke:#00AEEF;stroke-width:0.5;opacity:1.0;" x1="2882.81" x2="2882.81" y1="600.785" y2="720.121"/>
  <line id="right-margin-Black-S" style="fill:none;stroke:#00AEEF;stroke-width:0.5;opacity:1.0;" x1="2983.99" x2="2983.99" y1="600.785" y2="720.121"/>
 </g>
 <g id="Symbols">
  <g id="Black-S" transform="matrix(1 0 0 1 2882.81 696)">
   <path class="monochrome-0 SFSymbolsPreview000000" d="M58.1055 12.3047L79.834 12.3047C86.9141 12.3047 91.4062 7.61719 91.4062 0.537109L91.4062-71.0449C91.4062-78.1738 86.9141-82.7637 79.834-82.7637L58.1055-82.7637C51.0254-82.7637 46.4355-78.125 46.4355-70.9961L46.4355 0.585938C46.4355 7.66602 51.0254 12.3047 58.1055 12.3047ZM59.5215 1.31836C58.252 1.31836 57.4219 0.537109 57.4219-0.683594L57.4219-69.8242C57.4219-71.0449 58.252-71.8262 59.5215-71.8262L78.3691-71.8262C79.6387-71.8262 80.4688-70.9961 80.4688-69.7754L80.4688-0.683594C80.4688 0.537109 79.6387 1.31836 78.3691 1.31836ZM9.76562 0.292969L14.7949 11.1816C15.8203 13.3789 18.8965 13.1836 19.7266 11.2793L24.6582 0.292969L24.6582-62.793L9.76562-62.793ZM9.81445-70.1172L24.707-70.1172L24.707-77.832C24.707-81.4941 22.5586-83.8867 18.9941-83.8867L15.5273-83.8867C11.9629-83.8867 9.81445-81.4453 9.81445-77.7832ZM82.7148-0.927734L82.7148-5.17578L67.8223-5.17578C66.6504-5.17578 65.7227-4.19922 65.7227-2.97852C65.7227-1.75781 66.6504-0.927734 67.8711-0.927734ZM82.7148-65.5273L82.7148-69.7754L67.8223-69.7754C66.6504-69.7754 65.7227-68.7988 65.7227-67.5781C65.7227-66.3574 66.6504-65.5273 67.8711-65.5273ZM82.7148-33.252L82.7148-37.5L67.8223-37.5C66.6504-37.5 65.7227-36.4746 65.7227-35.3027C65.7227-34.082 66.6504-33.252 67.8711-33.252ZM82.7148-26.7578L82.7148-31.0547L72.1191-31.0547C70.9473-31.0547 70.0195-30.0293 70.0195-28.8574C70.0195-27.5879 70.9473-26.7578 72.168-26.7578ZM82.7148-39.6973L82.7148-43.9453L72.1191-43.9453C70.9473-43.9453 70.0195-42.9199 70.0195-41.748C70.0195-40.5273 70.9473-39.6973 72.168-39.6973ZM82.7148-46.1426L82.7148-50.3906L72.1191-50.3906C70.9473-50.3906 70.0195-49.4141 70.0195-48.1934C70.0195-46.9727 70.9473-46.1426 72.168-46.1426ZM82.7148-20.3125L82.7148-24.5605L72.1191-24.5605C70.9473-24.5605 70.0195-23.584 70.0195-22.3633C70.0195-21.1426 70.9473-20.3125 72.168-20.3125ZM82.7148-52.5879L82.7148-56.8848L72.1191-56.8848C70.9473-56.8848 70.0195-55.8594 70.0195-54.6875C70.0195-53.4668 70.9473-52.5879 72.168-52.5879ZM82.7148-13.8672L82.7148-18.1152L72.1191-18.1152C70.9473-18.1152 70.0195-17.0898 70.0195-15.918C70.0195-14.6973 70.9473-13.8672 72.168-13.8672ZM82.7148-7.37305L82.7148-11.6699L72.1191-11.6699C70.9473-11.6699 70.0195-10.6445 70.0195-9.47266C70.0195-8.20312 70.9473-7.37305 72.168-7.37305ZM82.7148-59.082L82.7148-63.3301L72.1191-63.3301C70.9473-63.3301 70.0195-62.3047 70.0195-61.1328C70.0195-59.9121 70.9473-59.082 72.168-59.082Z"/>
  </g>
  <g id="Regular-S" transform="matrix(1 0 0 1 1405.73 696)">
   <path class="monochrome-0 SFSymbolsPreview000000" d="M49.3652 7.56836L68.8477 7.56836C74.5117 7.56836 78.4668 3.61328 78.4668-2.05078L78.4668-68.3594C78.4668-74.0723 74.5117-78.0762 68.8477-78.0762L49.3652-78.0762C43.75-78.0762 39.7949-74.1211 39.7949-68.4082L39.7949-2.09961C39.7949 3.61328 43.75 7.56836 49.3652 7.56836ZM50.5859 1.2207C47.9492 1.2207 46.1914-0.537109 46.1914-3.07617L46.1914-67.3828C46.1914-69.9219 47.9492-71.6797 50.5859-71.6797L67.627-71.6797C70.2637-71.6797 72.0703-69.9219 72.0703-67.3828L72.0703-3.125C72.0703-0.585938 70.2637 1.2207 67.627 1.2207ZM9.76562-2.14844L13.5254 6.64062C13.9648 7.61719 15.5273 7.71484 16.0156 6.68945L20.2148-2.09961L20.2148-63.4766L9.76562-63.4766ZM9.76562-68.2617L20.2148-68.2617L20.2148-74.1211C20.2148-77.0508 18.7012-78.7109 16.1133-78.7109L13.8672-78.7109C11.2305-78.7109 9.76562-77.002 9.76562-74.1211ZM74.2188-3.27148L74.2188-6.34766L55.7129-6.34766C54.8828-6.34766 54.248-5.71289 54.248-4.83398C54.248-4.00391 54.834-3.27148 55.6641-3.27148ZM74.2188-64.1602L74.2188-67.2363L55.7129-67.2363C54.8828-67.2363 54.248-66.6016 54.248-65.6738C54.248-64.8926 54.834-64.1602 55.6641-64.1602ZM74.2188-33.7891L74.2188-36.7188L55.7129-36.7188C54.8828-36.7188 54.248-36.1816 54.248-35.2539C54.248-34.375 54.834-33.7891 55.6641-33.7891ZM74.2188-27.5879L74.2188-30.6641L61.8164-30.6641C60.9375-30.6641 60.3516-30.0293 60.3516-29.1992C60.3516-28.3203 60.8887-27.5879 61.7676-27.5879ZM74.2188-39.7949L74.2188-42.8711L61.8164-42.8711C60.9375-42.8711 60.3516-42.2363 60.3516-41.2598C60.3516-40.5273 60.8887-39.7949 61.7676-39.7949ZM74.2188-45.8984L74.2188-48.9258L61.8164-48.9258C60.9375-48.9258 60.3516-48.3398 60.3516-47.4609C60.3516-46.582 60.8887-45.8984 61.7676-45.8984ZM74.2188-21.5332L74.2188-24.5605L61.8164-24.5605C60.9375-24.5605 60.3516-23.9746 60.3516-23.0469C60.3516-22.2168 60.8887-21.5332 61.7676-21.5332ZM74.2188-51.9531L74.2188-54.9805L61.8164-54.9805C60.9375-54.9805 60.3516-54.3457 60.3516-53.4668C60.3516-52.6367 60.8887-51.9531 61.7676-51.9531ZM74.2188-15.4785L74.2188-18.5059L61.8164-18.5059C60.9375-18.5059 60.3516-17.8711 60.3516-16.9922C60.3516-16.2109 60.8887-15.4785 61.7676-15.4785ZM74.2188-9.42383L74.2188-12.4023L61.8164-12.4023C60.9375-12.4023 60.3516-11.8652 60.3516-10.9375C60.3516-10.0586 60.8887-9.42383 61.7676-9.42383ZM74.2188-58.1055L74.2188-61.084L61.8164-61.084C60.9375-61.084 60.3516-60.498 60.3516-59.5703C60.3516-58.7402 60.8887-58.1055 61.7676-58.1055Z"/>
  </g>
  <g id="Ultralight-S" transform="matrix(1 0 0 1 520.363 696)">
   <path class="monochrome-0 SFSymbolsPreview000000" d="M43.8252 5.66115L60.5831 5.66115C65.793 5.66115 68.9307 2.47804 68.9307-2.68652L68.9307-67.9053C68.9307-73.1187 65.793-76.2598 60.5831-76.2598L43.8252-76.2598C38.6641-76.2598 35.5264-73.1221 35.5264-67.9087L35.5264-2.68994C35.5264 2.47804 38.6641 5.66115 43.8252 5.66115ZM44.0015 3.49119C39.9571 3.49119 37.6998 1.14305 37.6998-2.84912L37.6998-67.7461C37.6998-71.7383 39.9571-74.0864 44.0015-74.0864L60.4522-74.0864C64.4512-74.0864 66.7574-71.7383 66.7574-67.7461L66.7574-2.85254C66.7574 1.13963 64.4512 3.49119 60.4522 3.49119ZM9.76562-2.55713L12.0269 5.18751C12.1939 5.75539 12.9844 5.71681 13.1548 5.19093L15.4922-2.5083L15.4922-66.3828L9.76562-66.3828ZM9.76562-69.4424L15.4922-69.4424L15.4922-73.2583C15.4922-75.3252 14.5235-76.3042 12.6621-76.3042L12.3687-76.3042C10.6856-76.3042 9.76562-75.1402 9.76562-73.2583ZM67.816-2.8628L67.816-4.84913L50.7178-4.84913C50.0694-4.84913 49.6617-4.39601 49.6617-3.83497C49.6617-3.23194 50.066-2.8628 50.7144-2.8628ZM67.816-65.7949L67.816-67.7812L50.7178-67.7812C50.0694-67.7812 49.6617-67.3735 49.6617-66.8091C49.6617-66.2095 50.066-65.7949 50.7144-65.7949ZM67.816-34.2886L67.816-36.3101L50.7178-36.3101C50.0694-36.3101 49.6617-35.8638 49.6617-35.2539C49.6617-34.6475 50.066-34.2886 50.7144-34.2886ZM67.816-27.9512L67.816-29.9829L56.7759-29.9829C56.1241-29.9829 55.7652-29.5752 55.7652-28.9722C55.7652-28.3657 56.1206-27.9512 56.7725-27.9512ZM67.816-40.6123L67.816-42.644L56.7759-42.644C56.1241-42.644 55.7652-42.1909 55.7652-41.5776C55.7652-40.9814 56.1206-40.6123 56.7725-40.6123ZM67.816-46.8975L67.816-48.9258L56.7759-48.9258C56.1241-48.9258 55.7652-48.4761 55.7652-47.8696C55.7652-47.2632 56.1206-46.8975 56.7725-46.8975ZM67.816-21.6694L67.816-23.6978L56.7759-23.6978C56.1241-23.6978 55.7652-23.2935 55.7652-22.6836C55.7652-22.0806 56.1206-21.6694 56.7725-21.6694ZM67.816-53.2246L67.816-55.2075L56.7759-55.2075C56.1241-55.2075 55.7652-54.7544 55.7652-54.1479C55.7652-53.5449 56.1206-53.2246 56.7725-53.2246ZM67.816-15.3877L67.816-17.3706L56.7759-17.3706C56.1241-17.3706 55.7652-17.0083 55.7652-16.4019C55.7652-15.8022 56.1206-15.3877 56.7725-15.3877ZM67.816-9.10596L67.816-11.0855L56.7759-11.0855C56.1241-11.0855 55.7652-10.6846 55.7652-10.1201C55.7652-9.46827 56.1206-9.10596 56.7725-9.10596ZM67.816-59.5132L67.816-61.4927L56.7759-61.4927C56.1241-61.4927 55.7652-61.0884 55.7652-60.4785C55.7652-59.8755 56.1206-59.5132 56.7725-59.5132Z"/>
  </g>
 </g>
</svg>
